<?xml version="1.0" encoding="UTF-8"?>
<svg xmlns="http://www.w3.org/2000/svg" version="1.1" width="400" height="400" viewBox="0 0 400 400"><rect x="0" y="0" width="400" height="400" fill="#fefefe"/><g transform="scale(4.706)"><g transform="translate(4,4)"><path fill-rule="evenodd" d="M10 0L10 1L9 1L9 2L10 2L10 1L11 1L11 2L12 2L12 1L11 1L11 0ZM14 0L14 3L10 3L10 5L11 5L11 6L10 6L10 7L9 7L9 5L8 5L8 8L9 8L9 9L7 9L7 8L6 8L6 9L3 9L3 8L1 8L1 9L0 9L0 10L2 10L2 12L3 12L3 14L2 14L2 15L1 15L1 13L0 13L0 16L1 16L1 18L0 18L0 21L1 21L1 22L0 22L0 23L2 23L2 21L1 21L1 19L2 19L2 20L4 20L4 21L5 21L5 22L6 22L6 23L4 23L4 22L3 22L3 23L4 23L4 24L1 24L1 26L0 26L0 28L1 28L1 29L3 29L3 27L4 27L4 30L5 30L5 31L7 31L7 32L6 32L6 33L4 33L4 34L3 34L3 35L2 35L2 38L3 38L3 39L5 39L5 40L6 40L6 41L7 41L7 40L9 40L9 42L10 42L10 39L11 39L11 40L12 40L12 41L11 41L11 46L12 46L12 45L14 45L14 49L13 49L13 51L12 51L12 47L11 47L11 48L9 48L9 47L10 47L10 45L9 45L9 46L8 46L8 44L6 44L6 45L7 45L7 46L4 46L4 45L5 45L5 43L4 43L4 42L3 42L3 44L4 44L4 45L3 45L3 46L4 46L4 47L3 47L3 48L1 48L1 49L4 49L4 50L3 50L3 51L8 51L8 52L6 52L6 53L7 53L7 54L6 54L6 55L7 55L7 54L8 54L8 55L9 55L9 56L6 56L6 57L5 57L5 58L6 58L6 59L4 59L4 60L3 60L3 59L2 59L2 61L0 61L0 62L2 62L2 63L5 63L5 64L0 64L0 65L3 65L3 66L4 66L4 68L1 68L1 69L5 69L5 67L7 67L7 68L6 68L6 69L7 69L7 68L8 68L8 70L10 70L10 69L12 69L12 70L13 70L13 71L12 71L12 72L10 72L10 71L9 71L9 72L10 72L10 73L9 73L9 74L8 74L8 76L9 76L9 75L10 75L10 74L12 74L12 76L10 76L10 77L14 77L14 76L15 76L15 77L16 77L16 75L13 75L13 73L15 73L15 72L13 72L13 71L17 71L17 72L16 72L16 73L17 73L17 75L19 75L19 74L22 74L22 73L23 73L23 71L21 71L21 70L20 70L20 67L22 67L22 68L21 68L21 69L22 69L22 70L24 70L24 74L23 74L23 75L22 75L22 76L23 76L23 75L24 75L24 74L25 74L25 76L24 76L24 77L25 77L25 76L26 76L26 75L27 75L27 76L28 76L28 77L29 77L29 76L30 76L30 77L32 77L32 72L31 72L31 71L32 71L32 70L31 70L31 71L30 71L30 70L29 70L29 69L31 69L31 67L27 67L27 68L25 68L25 67L26 67L26 66L27 66L27 65L25 65L25 64L26 64L26 61L27 61L27 64L28 64L28 65L29 65L29 66L32 66L32 67L33 67L33 68L32 68L32 69L33 69L33 72L34 72L34 71L36 71L36 72L35 72L35 73L33 73L33 74L35 74L35 75L36 75L36 76L35 76L35 77L42 77L42 74L40 74L40 76L38 76L38 74L39 74L39 73L40 73L40 71L41 71L41 72L42 72L42 73L43 73L43 77L44 77L44 75L45 75L45 77L46 77L46 75L47 75L47 74L48 74L48 73L51 73L51 75L50 75L50 74L49 74L49 75L48 75L48 76L47 76L47 77L51 77L51 75L52 75L52 76L53 76L53 75L52 75L52 71L54 71L54 70L55 70L55 71L56 71L56 69L54 69L54 70L53 70L53 67L54 67L54 68L55 68L55 67L56 67L56 68L57 68L57 69L58 69L58 68L57 68L57 67L58 67L58 65L57 65L57 64L60 64L60 65L61 65L61 64L60 64L60 63L62 63L62 65L63 65L63 66L59 66L59 68L60 68L60 69L61 69L61 70L62 70L62 71L64 71L64 74L63 74L63 72L61 72L61 71L60 71L60 70L59 70L59 71L60 71L60 72L61 72L61 73L62 73L62 74L60 74L60 73L59 73L59 72L58 72L58 73L56 73L56 74L55 74L55 75L58 75L58 76L59 76L59 77L61 77L61 76L59 76L59 75L62 75L62 77L64 77L64 75L66 75L66 76L67 76L67 75L69 75L69 76L68 76L68 77L69 77L69 76L70 76L70 77L73 77L73 76L74 76L74 77L75 77L75 76L76 76L76 77L77 77L77 74L76 74L76 73L77 73L77 71L73 71L73 69L74 69L74 68L75 68L75 70L76 70L76 69L77 69L77 66L75 66L75 67L74 67L74 68L71 68L71 66L69 66L69 67L68 67L68 64L69 64L69 65L70 65L70 64L71 64L71 65L72 65L72 66L73 66L73 65L75 65L75 64L74 64L74 63L77 63L77 60L76 60L76 61L75 61L75 60L74 60L74 57L73 57L73 56L72 56L72 55L71 55L71 53L72 53L72 51L73 51L73 52L74 52L74 53L73 53L73 54L74 54L74 55L75 55L75 54L76 54L76 57L75 57L75 59L76 59L76 57L77 57L77 54L76 54L76 53L77 53L77 51L76 51L76 49L77 49L77 47L76 47L76 49L75 49L75 47L74 47L74 49L73 49L73 46L74 46L74 45L76 45L76 46L77 46L77 43L73 43L73 42L71 42L71 44L68 44L68 43L66 43L66 42L67 42L67 40L70 40L70 41L69 41L69 42L70 42L70 41L72 41L72 40L73 40L73 39L75 39L75 38L76 38L76 41L75 41L75 40L74 40L74 41L75 41L75 42L76 42L76 41L77 41L77 38L76 38L76 37L77 37L77 36L76 36L76 35L77 35L77 34L75 34L75 36L76 36L76 37L75 37L75 38L73 38L73 37L74 37L74 36L73 36L73 33L72 33L72 31L73 31L73 32L74 32L74 33L77 33L77 30L76 30L76 28L77 28L77 26L76 26L76 28L75 28L75 30L74 30L74 28L73 28L73 26L74 26L74 25L77 25L77 23L73 23L73 22L71 22L71 20L73 20L73 21L75 21L75 22L76 22L76 21L77 21L77 20L76 20L76 21L75 21L75 20L74 20L74 19L73 19L73 18L74 18L74 16L75 16L75 14L77 14L77 12L76 12L76 13L75 13L75 14L72 14L72 13L74 13L74 8L73 8L73 10L72 10L72 11L71 11L71 9L72 9L72 8L70 8L70 9L69 9L69 6L68 6L68 9L69 9L69 11L71 11L71 12L70 12L70 13L69 13L69 12L67 12L67 10L66 10L66 13L64 13L64 10L65 10L65 6L64 6L64 9L63 9L63 5L62 5L62 4L64 4L64 5L65 5L65 4L66 4L66 8L67 8L67 5L69 5L69 1L68 1L68 4L66 4L66 3L64 3L64 2L67 2L67 1L66 1L66 0L64 0L64 2L57 2L57 1L58 1L58 0L56 0L56 2L53 2L53 4L52 4L52 2L51 2L51 3L50 3L50 2L49 2L49 3L50 3L50 4L47 4L47 3L48 3L48 2L47 2L47 3L46 3L46 10L45 10L45 8L44 8L44 7L45 7L45 6L44 6L44 7L43 7L43 6L42 6L42 7L43 7L43 8L44 8L44 9L43 9L43 10L41 10L41 9L42 9L42 8L38 8L38 9L37 9L37 8L36 8L36 7L37 7L37 5L39 5L39 6L38 6L38 7L39 7L39 6L40 6L40 7L41 7L41 6L40 6L40 5L39 5L39 3L42 3L42 4L41 4L41 5L45 5L45 3L44 3L44 1L43 1L43 0L42 0L42 1L43 1L43 2L41 2L41 0L40 0L40 1L39 1L39 0L37 0L37 1L36 1L36 0L35 0L35 2L34 2L34 0L33 0L33 2L34 2L34 3L35 3L35 4L36 4L36 7L35 7L35 6L34 6L34 5L33 5L33 3L32 3L32 1L30 1L30 0L29 0L29 3L27 3L27 0L22 0L22 1L20 1L20 2L18 2L18 1L19 1L19 0L17 0L17 3L16 3L16 4L15 4L15 0ZM45 0L45 2L46 2L46 0ZM47 0L47 1L48 1L48 0ZM49 0L49 1L50 1L50 0ZM51 0L51 1L54 1L54 0ZM60 0L60 1L63 1L63 0ZM23 1L23 2L21 2L21 5L20 5L20 6L19 6L19 7L20 7L20 6L21 6L21 7L22 7L22 6L21 6L21 5L22 5L22 4L23 4L23 2L24 2L24 4L25 4L25 2L24 2L24 1ZM38 1L38 2L36 2L36 4L38 4L38 3L39 3L39 1ZM56 2L56 3L57 3L57 2ZM8 3L8 4L9 4L9 3ZM18 3L18 4L16 4L16 5L15 5L15 4L14 4L14 5L13 5L13 4L12 4L12 6L11 6L11 7L10 7L10 9L9 9L9 11L8 11L8 10L7 10L7 9L6 9L6 10L7 10L7 11L5 11L5 10L3 10L3 9L2 9L2 10L3 10L3 12L4 12L4 11L5 11L5 14L3 14L3 15L2 15L2 18L3 18L3 17L5 17L5 18L4 18L4 19L5 19L5 20L7 20L7 21L6 21L6 22L7 22L7 23L6 23L6 24L7 24L7 23L8 23L8 24L10 24L10 26L11 26L11 27L9 27L9 30L8 30L8 31L9 31L9 32L7 32L7 33L6 33L6 34L7 34L7 35L5 35L5 34L4 34L4 35L3 35L3 37L4 37L4 38L12 38L12 39L14 39L14 37L15 37L15 42L16 42L16 43L15 43L15 44L14 44L14 45L15 45L15 48L16 48L16 49L14 49L14 51L15 51L15 52L17 52L17 54L19 54L19 53L18 53L18 51L19 51L19 50L18 50L18 49L21 49L21 50L20 50L20 53L21 53L21 55L16 55L16 54L15 54L15 53L14 53L14 52L12 52L12 51L11 51L11 49L9 49L9 53L10 53L10 54L9 54L9 55L10 55L10 54L11 54L11 55L12 55L12 53L13 53L13 55L14 55L14 54L15 54L15 55L16 55L16 56L14 56L14 57L13 57L13 56L12 56L12 57L13 57L13 59L14 59L14 57L15 57L15 59L16 59L16 60L18 60L18 61L17 61L17 62L18 62L18 61L19 61L19 60L18 60L18 59L19 59L19 58L20 58L20 59L21 59L21 58L22 58L22 62L21 62L21 63L22 63L22 64L20 64L20 62L19 62L19 65L23 65L23 66L22 66L22 67L23 67L23 69L24 69L24 67L25 67L25 66L24 66L24 65L23 65L23 64L24 64L24 62L23 62L23 61L24 61L24 60L23 60L23 58L22 58L22 57L21 57L21 58L20 58L20 56L21 56L21 55L23 55L23 56L24 56L24 59L25 59L25 61L26 61L26 60L27 60L27 61L29 61L29 62L28 62L28 63L31 63L31 65L32 65L32 64L33 64L33 63L31 63L31 59L33 59L33 60L32 60L32 61L33 61L33 62L34 62L34 61L33 61L33 60L36 60L36 61L35 61L35 63L34 63L34 64L36 64L36 65L35 65L35 66L36 66L36 65L37 65L37 64L38 64L38 65L39 65L39 64L38 64L38 63L40 63L40 64L41 64L41 63L42 63L42 65L43 65L43 62L45 62L45 60L44 60L44 59L43 59L43 58L42 58L42 56L44 56L44 57L45 57L45 59L46 59L46 60L47 60L47 61L46 61L46 63L47 63L47 64L46 64L46 65L47 65L47 66L48 66L48 65L47 65L47 64L48 64L48 63L47 63L47 61L48 61L48 62L49 62L49 63L50 63L50 65L49 65L49 66L50 66L50 68L52 68L52 67L53 67L53 65L54 65L54 63L55 63L55 66L54 66L54 67L55 67L55 66L56 66L56 67L57 67L57 66L56 66L56 64L57 64L57 62L58 62L58 63L59 63L59 62L58 62L58 61L60 61L60 62L61 62L61 61L62 61L62 60L63 60L63 61L64 61L64 60L65 60L65 62L64 62L64 63L63 63L63 62L62 62L62 63L63 63L63 65L64 65L64 67L60 67L60 68L61 68L61 69L62 69L62 68L64 68L64 67L65 67L65 69L66 69L66 68L67 68L67 67L65 67L65 66L67 66L67 65L66 65L66 64L67 64L67 63L65 63L65 62L67 62L67 61L66 61L66 59L68 59L68 60L69 60L69 58L68 58L68 57L70 57L70 58L71 58L71 60L70 60L70 61L68 61L68 63L70 63L70 61L71 61L71 64L72 64L72 65L73 65L73 63L74 63L74 62L75 62L75 61L74 61L74 60L73 60L73 58L71 58L71 57L72 57L72 56L68 56L68 57L67 57L67 56L66 56L66 55L68 55L68 54L66 54L66 55L65 55L65 53L66 53L66 51L65 51L65 49L66 49L66 50L68 50L68 46L69 46L69 45L68 45L68 46L66 46L66 45L67 45L67 44L66 44L66 43L65 43L65 44L66 44L66 45L65 45L65 47L64 47L64 48L62 48L62 47L63 47L63 46L64 46L64 45L63 45L63 46L62 46L62 47L56 47L56 51L54 51L54 47L55 47L55 46L54 46L54 47L53 47L53 52L52 52L52 50L51 50L51 52L52 52L52 55L51 55L51 56L52 56L52 59L50 59L50 57L49 57L49 56L50 56L50 54L51 54L51 53L50 53L50 51L48 51L48 52L47 52L47 51L46 51L46 50L45 50L45 49L46 49L46 47L44 47L44 46L45 46L45 45L46 45L46 46L50 46L50 45L49 45L49 44L50 44L50 43L47 43L47 44L48 44L48 45L46 45L46 41L47 41L47 42L48 42L48 41L49 41L49 42L50 42L50 41L49 41L49 40L50 40L50 39L51 39L51 38L50 38L50 39L49 39L49 38L48 38L48 34L49 34L49 33L48 33L48 30L49 30L49 32L50 32L50 36L51 36L51 37L52 37L52 35L53 35L53 37L54 37L54 39L52 39L52 40L51 40L51 42L52 42L52 43L51 43L51 44L53 44L53 45L54 45L54 44L55 44L55 45L56 45L56 43L53 43L53 42L54 42L54 39L55 39L55 40L56 40L56 41L55 41L55 42L57 42L57 44L58 44L58 45L57 45L57 46L58 46L58 45L60 45L60 46L61 46L61 45L62 45L62 44L63 44L63 43L62 43L62 42L63 42L63 41L62 41L62 42L61 42L61 40L62 40L62 39L63 39L63 40L64 40L64 42L65 42L65 41L66 41L66 40L67 40L67 39L68 39L68 38L69 38L69 37L70 37L70 40L72 40L72 38L71 38L71 37L70 37L70 36L69 36L69 35L71 35L71 36L72 36L72 34L71 34L71 33L70 33L70 32L71 32L71 30L72 30L72 29L70 29L70 32L69 32L69 31L67 31L67 32L66 32L66 31L65 31L65 32L66 32L66 33L65 33L65 34L64 34L64 35L63 35L63 34L62 34L62 35L60 35L60 34L59 34L59 33L60 33L60 31L59 31L59 30L60 30L60 28L62 28L62 29L61 29L61 30L62 30L62 31L61 31L61 33L62 33L62 32L63 32L63 33L64 33L64 32L63 32L63 30L62 30L62 29L63 29L63 28L64 28L64 27L65 27L65 29L66 29L66 30L69 30L69 29L68 29L68 27L66 27L66 26L68 26L68 25L67 25L67 24L69 24L69 23L70 23L70 24L73 24L73 25L74 25L74 24L73 24L73 23L70 23L70 22L68 22L68 21L70 21L70 20L71 20L71 19L72 19L72 18L73 18L73 16L74 16L74 15L72 15L72 18L69 18L69 19L70 19L70 20L68 20L68 18L67 18L67 16L68 16L68 17L69 17L69 16L68 16L68 14L69 14L69 13L67 13L67 15L66 15L66 14L64 14L64 15L63 15L63 14L62 14L62 15L58 15L58 14L59 14L59 13L60 13L60 14L61 14L61 13L62 13L62 12L63 12L63 11L61 11L61 10L62 10L62 5L60 5L60 4L61 4L61 3L58 3L58 4L57 4L57 5L56 5L56 4L53 4L53 5L52 5L52 4L51 4L51 8L53 8L53 9L52 9L52 10L53 10L53 9L54 9L54 11L52 11L52 12L51 12L51 10L50 10L50 9L49 9L49 10L48 10L48 9L47 9L47 10L48 10L48 11L49 11L49 12L48 12L48 13L47 13L47 12L46 12L46 11L45 11L45 12L46 12L46 13L45 13L45 14L47 14L47 15L48 15L48 13L49 13L49 12L50 12L50 14L49 14L49 16L48 16L48 17L49 17L49 18L50 18L50 19L49 19L49 20L48 20L48 18L46 18L46 17L47 17L47 16L46 16L46 15L43 15L43 16L42 16L42 17L41 17L41 21L42 21L42 22L39 22L39 21L38 21L38 17L39 17L39 16L40 16L40 15L42 15L42 14L43 14L43 13L44 13L44 12L43 12L43 11L44 11L44 10L43 10L43 11L40 11L40 10L39 10L39 9L38 9L38 10L37 10L37 9L36 9L36 8L33 8L33 7L34 7L34 6L33 6L33 5L32 5L32 6L31 6L31 8L29 8L29 10L28 10L28 9L25 9L25 10L28 10L28 11L25 11L25 13L26 13L26 12L28 12L28 11L30 11L30 12L31 12L31 9L32 9L32 10L33 10L33 11L32 11L32 13L31 13L31 14L30 14L30 13L29 13L29 14L30 14L30 15L29 15L29 18L28 18L28 19L30 19L30 20L27 20L27 19L25 19L25 20L23 20L23 18L24 18L24 16L25 16L25 17L26 17L26 18L27 18L27 17L28 17L28 13L27 13L27 14L24 14L24 15L23 15L23 14L22 14L22 13L24 13L24 12L23 12L23 11L24 11L24 10L22 10L22 11L21 11L21 12L22 12L22 13L21 13L21 14L20 14L20 12L18 12L18 13L17 13L17 12L16 12L16 14L14 14L14 15L19 15L19 16L20 16L20 17L18 17L18 16L16 16L16 17L18 17L18 18L16 18L16 19L15 19L15 21L13 21L13 20L14 20L14 19L12 19L12 18L10 18L10 17L11 17L11 16L9 16L9 18L7 18L7 17L6 17L6 16L7 16L7 15L9 15L9 13L12 13L12 15L13 15L13 13L14 13L14 12L13 12L13 11L15 11L15 10L14 10L14 9L15 9L15 8L16 8L16 6L17 6L17 7L18 7L18 6L17 6L17 5L18 5L18 4L19 4L19 3ZM26 3L26 4L27 4L27 3ZM30 3L30 4L31 4L31 3ZM43 3L43 4L44 4L44 3ZM25 5L25 8L28 8L28 5ZM47 5L47 8L50 8L50 5ZM58 5L58 9L57 9L57 11L58 11L58 9L60 9L60 10L59 10L59 11L60 11L60 12L61 12L61 11L60 11L60 10L61 10L61 9L60 9L60 7L61 7L61 6L60 6L60 7L59 7L59 5ZM12 6L12 7L11 7L11 11L10 11L10 12L12 12L12 13L13 13L13 12L12 12L12 11L13 11L13 9L14 9L14 7L15 7L15 6L14 6L14 7L13 7L13 6ZM23 6L23 8L24 8L24 6ZM26 6L26 7L27 7L27 6ZM29 6L29 7L30 7L30 6ZM32 6L32 7L33 7L33 6ZM48 6L48 7L49 7L49 6ZM52 6L52 7L53 7L53 8L55 8L55 11L56 11L56 8L55 8L55 6L54 6L54 7L53 7L53 6ZM56 6L56 7L57 7L57 6ZM12 7L12 8L13 8L13 7ZM19 8L19 10L18 10L18 9L16 9L16 11L19 11L19 10L20 10L20 8ZM33 9L33 10L34 10L34 11L33 11L33 14L32 14L32 15L33 15L33 16L34 16L34 18L33 18L33 17L32 17L32 16L31 16L31 15L30 15L30 18L32 18L32 19L31 19L31 20L33 20L33 21L32 21L32 22L31 22L31 21L28 21L28 22L29 22L29 24L27 24L27 22L26 22L26 21L27 21L27 20L25 20L25 22L26 22L26 24L25 24L25 23L23 23L23 22L22 22L22 23L23 23L23 25L22 25L22 24L20 24L20 23L21 23L21 21L22 21L22 20L21 20L21 17L20 17L20 20L19 20L19 22L18 22L18 21L15 21L15 23L14 23L14 22L13 22L13 21L12 21L12 19L11 19L11 20L10 20L10 19L9 19L9 22L8 22L8 21L7 21L7 22L8 22L8 23L10 23L10 24L12 24L12 22L13 22L13 25L15 25L15 26L16 26L16 27L17 27L17 28L15 28L15 27L14 27L14 26L12 26L12 25L11 25L11 26L12 26L12 27L11 27L11 28L10 28L10 29L11 29L11 30L9 30L9 31L11 31L11 32L12 32L12 33L15 33L15 34L14 34L14 35L12 35L12 37L13 37L13 36L15 36L15 34L16 34L16 39L17 39L17 38L19 38L19 40L20 40L20 41L21 41L21 42L20 42L20 43L19 43L19 44L18 44L18 45L17 45L17 46L16 46L16 47L17 47L17 48L19 48L19 47L20 47L20 45L21 45L21 43L22 43L22 44L24 44L24 43L25 43L25 45L26 45L26 46L23 46L23 45L22 45L22 46L21 46L21 47L22 47L22 46L23 46L23 48L21 48L21 49L23 49L23 50L22 50L22 51L21 51L21 52L23 52L23 53L22 53L22 54L23 54L23 55L25 55L25 56L27 56L27 57L25 57L25 58L26 58L26 59L29 59L29 58L30 58L30 59L31 59L31 58L30 58L30 57L32 57L32 56L33 56L33 57L34 57L34 58L33 58L33 59L34 59L34 58L35 58L35 59L36 59L36 60L37 60L37 61L36 61L36 62L37 62L37 63L36 63L36 64L37 64L37 63L38 63L38 62L40 62L40 63L41 63L41 61L42 61L42 62L43 62L43 61L44 61L44 60L43 60L43 59L42 59L42 58L41 58L41 59L40 59L40 58L39 58L39 60L37 60L37 59L38 59L38 57L39 57L39 56L40 56L40 57L41 57L41 56L40 56L40 54L39 54L39 53L38 53L38 51L40 51L40 48L37 48L37 49L39 49L39 50L38 50L38 51L37 51L37 52L36 52L36 50L35 50L35 51L34 51L34 50L33 50L33 51L32 51L32 49L35 49L35 48L36 48L36 47L40 47L40 46L41 46L41 47L42 47L42 46L41 46L41 43L42 43L42 44L43 44L43 46L44 46L44 45L45 45L45 41L44 41L44 39L45 39L45 37L44 37L44 39L43 39L43 38L42 38L42 35L41 35L41 38L40 38L40 37L39 37L39 38L38 38L38 41L37 41L37 42L38 42L38 43L37 43L37 44L36 44L36 45L33 45L33 44L35 44L35 43L36 43L36 41L33 41L33 40L34 40L34 39L35 39L35 40L37 40L37 39L36 39L36 37L37 37L37 35L36 35L36 34L39 34L39 32L41 32L41 33L40 33L40 34L42 34L42 30L44 30L44 31L43 31L43 34L44 34L44 35L43 35L43 36L45 36L45 34L44 34L44 33L47 33L47 29L49 29L49 30L50 30L50 29L51 29L51 31L50 31L50 32L51 32L51 33L52 33L52 34L51 34L51 35L52 35L52 34L53 34L53 33L54 33L54 32L55 32L55 31L56 31L56 32L57 32L57 33L58 33L58 32L59 32L59 31L58 31L58 30L57 30L57 28L55 28L55 27L56 27L56 26L57 26L57 27L58 27L58 28L59 28L59 27L60 27L60 25L59 25L59 24L58 24L58 25L57 25L57 23L56 23L56 21L54 21L54 23L56 23L56 26L55 26L55 27L54 27L54 26L53 26L53 27L52 27L52 25L51 25L51 24L47 24L47 23L48 23L48 22L47 22L47 23L46 23L46 24L45 24L45 20L44 20L44 19L43 19L43 18L42 18L42 19L43 19L43 20L44 20L44 21L43 21L43 24L44 24L44 25L43 25L43 26L41 26L41 25L37 25L37 26L36 26L36 25L35 25L35 24L37 24L37 22L38 22L38 24L42 24L42 23L39 23L39 22L38 22L38 21L36 21L36 19L34 19L34 18L37 18L37 17L38 17L38 15L40 15L40 13L41 13L41 12L39 12L39 11L36 11L36 10L35 10L35 9ZM49 10L49 11L50 11L50 10ZM7 11L7 12L6 12L6 13L8 13L8 11ZM72 11L72 12L73 12L73 11ZM34 12L34 16L35 16L35 17L36 17L36 16L35 16L35 12ZM36 12L36 13L37 13L37 14L38 14L38 13L39 13L39 12ZM42 12L42 13L43 13L43 12ZM52 12L52 13L54 13L54 15L55 15L55 16L54 16L54 17L53 17L53 16L52 16L52 15L53 15L53 14L51 14L51 16L52 16L52 17L53 17L53 18L51 18L51 19L50 19L50 21L51 21L51 22L49 22L49 23L53 23L53 19L54 19L54 20L55 20L55 19L56 19L56 20L57 20L57 22L58 22L58 20L59 20L59 21L60 21L60 22L59 22L59 23L60 23L60 24L63 24L63 25L65 25L65 26L66 26L66 24L67 24L67 23L68 23L68 22L67 22L67 21L68 21L68 20L66 20L66 21L65 21L65 18L66 18L66 16L65 16L65 15L64 15L64 16L65 16L65 18L64 18L64 17L63 17L63 19L62 19L62 18L61 18L61 17L60 17L60 16L57 16L57 14L58 14L58 12L57 12L57 13L54 13L54 12ZM70 13L70 14L71 14L71 13ZM5 14L5 15L4 15L4 16L5 16L5 15L7 15L7 14ZM10 14L10 15L11 15L11 14ZM19 14L19 15L20 15L20 14ZM21 14L21 15L22 15L22 17L23 17L23 15L22 15L22 14ZM25 15L25 16L27 16L27 15ZM62 15L62 16L63 16L63 15ZM76 15L76 17L75 17L75 19L77 19L77 15ZM12 16L12 17L13 17L13 16ZM14 16L14 17L15 17L15 16ZM45 16L45 17L44 17L44 18L45 18L45 19L46 19L46 18L45 18L45 17L46 17L46 16ZM55 16L55 18L54 18L54 19L55 19L55 18L56 18L56 19L57 19L57 20L58 20L58 19L57 19L57 18L58 18L58 17L57 17L57 18L56 18L56 16ZM59 17L59 18L60 18L60 17ZM5 18L5 19L7 19L7 20L8 20L8 19L7 19L7 18ZM18 18L18 19L16 19L16 20L18 20L18 19L19 19L19 18ZM39 18L39 19L40 19L40 18ZM59 19L59 20L60 20L60 19ZM61 19L61 22L60 22L60 23L62 23L62 21L63 21L63 22L64 22L64 20L62 20L62 19ZM47 20L47 21L48 21L48 20ZM51 20L51 21L52 21L52 20ZM34 21L34 22L35 22L35 21ZM10 22L10 23L11 23L11 22ZM19 22L19 23L20 23L20 22ZM66 22L66 23L63 23L63 24L66 24L66 23L67 23L67 22ZM15 23L15 24L16 24L16 26L17 26L17 27L18 27L18 28L20 28L20 31L19 31L19 30L18 30L18 31L17 31L17 30L16 30L16 29L14 29L14 31L13 31L13 32L14 32L14 31L15 31L15 33L16 33L16 34L17 34L17 33L18 33L18 34L19 34L19 32L20 32L20 33L22 33L22 35L17 35L17 36L19 36L19 37L20 37L20 38L21 38L21 39L20 39L20 40L21 40L21 41L22 41L22 42L23 42L23 43L24 43L24 42L25 42L25 43L27 43L27 45L28 45L28 42L30 42L30 43L29 43L29 44L30 44L30 45L29 45L29 46L30 46L30 45L31 45L31 48L30 48L30 47L29 47L29 49L31 49L31 48L32 48L32 45L31 45L31 44L33 44L33 43L32 43L32 42L33 42L33 41L32 41L32 38L33 38L33 39L34 39L34 37L35 37L35 32L34 32L34 33L33 33L33 34L34 34L34 35L29 35L29 34L27 34L27 36L26 36L26 34L25 34L25 33L24 33L24 34L25 34L25 36L24 36L24 38L25 38L25 39L22 39L22 38L23 38L23 36L22 36L22 35L23 35L23 33L22 33L22 32L23 32L23 31L24 31L24 30L26 30L26 31L25 31L25 32L27 32L27 31L30 31L30 32L28 32L28 33L30 33L30 34L32 34L32 33L31 33L31 32L33 32L33 31L34 31L34 29L35 29L35 31L36 31L36 29L37 29L37 30L38 30L38 31L37 31L37 32L36 32L36 33L38 33L38 31L40 31L40 27L39 27L39 28L37 28L37 27L36 27L36 28L35 28L35 26L34 26L34 28L33 28L33 31L32 31L32 30L31 30L31 29L24 29L24 27L23 27L23 26L24 26L24 25L23 25L23 26L22 26L22 25L21 25L21 26L22 26L22 27L21 27L21 28L20 28L20 27L19 27L19 26L18 26L18 25L17 25L17 24L16 24L16 23ZM31 23L31 24L32 24L32 25L31 25L31 26L29 26L29 27L31 27L31 28L32 28L32 27L33 27L33 25L34 25L34 23L33 23L33 24L32 24L32 23ZM19 24L19 25L20 25L20 24ZM29 24L29 25L30 25L30 24ZM53 24L53 25L54 25L54 24ZM2 25L2 26L1 26L1 27L3 27L3 25ZM5 25L5 28L8 28L8 25ZM25 25L25 28L28 28L28 25ZM47 25L47 28L50 28L50 25ZM61 25L61 27L62 27L62 25ZM69 25L69 28L72 28L72 25ZM6 26L6 27L7 27L7 26ZM26 26L26 27L27 27L27 26ZM45 26L45 27L46 27L46 26ZM48 26L48 27L49 27L49 26ZM58 26L58 27L59 27L59 26ZM63 26L63 27L64 27L64 26ZM70 26L70 27L71 27L71 26ZM12 27L12 28L11 28L11 29L12 29L12 30L13 30L13 28L14 28L14 27ZM41 27L41 30L42 30L42 27ZM51 27L51 29L52 29L52 30L53 30L53 29L54 29L54 27L53 27L53 28L52 28L52 27ZM21 28L21 30L23 30L23 28ZM6 29L6 30L7 30L7 29ZM45 29L45 30L46 30L46 29ZM0 30L0 33L1 33L1 32L3 32L3 31L2 31L2 30ZM30 30L30 31L31 31L31 30ZM54 30L54 31L53 31L53 32L52 32L52 31L51 31L51 32L52 32L52 33L53 33L53 32L54 32L54 31L55 31L55 30ZM56 30L56 31L57 31L57 32L58 32L58 31L57 31L57 30ZM16 31L16 33L17 33L17 31ZM21 31L21 32L22 32L22 31ZM9 32L9 33L10 33L10 35L9 35L9 34L8 34L8 35L9 35L9 36L4 36L4 37L9 37L9 36L11 36L11 33L10 33L10 32ZM55 33L55 35L54 35L54 36L56 36L56 38L55 38L55 39L56 39L56 38L57 38L57 39L58 39L58 40L57 40L57 42L58 42L58 40L59 40L59 43L60 43L60 44L61 44L61 43L60 43L60 40L61 40L61 39L62 39L62 38L60 38L60 37L61 37L61 36L59 36L59 34L57 34L57 35L56 35L56 33ZM67 33L67 34L65 34L65 35L64 35L64 36L65 36L65 37L66 37L66 36L67 36L67 37L68 37L68 36L67 36L67 35L69 35L69 34L68 34L68 33ZM0 34L0 35L1 35L1 34ZM28 35L28 36L27 36L27 39L26 39L26 40L25 40L25 41L26 41L26 42L27 42L27 41L28 41L28 40L27 40L27 39L28 39L28 36L29 36L29 35ZM38 35L38 36L40 36L40 35ZM46 35L46 36L47 36L47 35ZM57 35L57 37L58 37L58 35ZM62 35L62 36L63 36L63 35ZM65 35L65 36L66 36L66 35ZM0 36L0 38L1 38L1 36ZM33 36L33 37L34 37L34 36ZM21 37L21 38L22 38L22 37ZM30 37L30 38L29 38L29 39L31 39L31 38L32 38L32 37ZM63 37L63 39L64 39L64 37ZM46 38L46 39L48 39L48 38ZM58 38L58 39L59 39L59 40L60 40L60 39L59 39L59 38ZM65 38L65 39L66 39L66 38ZM0 39L0 41L1 41L1 42L2 42L2 41L3 41L3 40L1 40L1 39ZM6 39L6 40L7 40L7 39ZM21 39L21 40L22 40L22 39ZM39 39L39 41L38 41L38 42L39 42L39 41L40 41L40 42L43 42L43 39L42 39L42 40L41 40L41 41L40 41L40 39ZM23 40L23 41L24 41L24 40ZM52 40L52 41L53 41L53 40ZM16 41L16 42L17 42L17 43L18 43L18 42L17 42L17 41ZM30 41L30 42L32 42L32 41ZM6 42L6 43L8 43L8 42ZM12 42L12 44L13 44L13 42ZM34 42L34 43L35 43L35 42ZM0 43L0 44L1 44L1 46L0 46L0 47L1 47L1 46L2 46L2 44L1 44L1 43ZM30 43L30 44L31 44L31 43ZM38 43L38 45L36 45L36 46L35 46L35 47L33 47L33 48L35 48L35 47L36 47L36 46L38 46L38 45L39 45L39 46L40 46L40 43ZM43 43L43 44L44 44L44 43ZM72 43L72 44L71 44L71 45L70 45L70 46L72 46L72 45L74 45L74 44L73 44L73 43ZM51 45L51 46L52 46L52 45ZM5 47L5 50L8 50L8 47ZM25 47L25 50L28 50L28 47ZM43 47L43 49L45 49L45 48L44 48L44 47ZM47 47L47 50L50 50L50 47ZM51 47L51 49L52 49L52 47ZM66 47L66 48L67 48L67 47ZM69 47L69 50L72 50L72 47ZM6 48L6 49L7 49L7 48ZM23 48L23 49L24 49L24 48ZM26 48L26 49L27 49L27 48ZM48 48L48 49L49 49L49 48ZM58 48L58 50L57 50L57 51L56 51L56 52L57 52L57 51L60 51L60 53L59 53L59 52L58 52L58 53L57 53L57 54L56 54L56 53L55 53L55 52L54 52L54 53L55 53L55 54L53 54L53 55L52 55L52 56L53 56L53 57L54 57L54 58L53 58L53 59L52 59L52 60L53 60L53 62L52 62L52 61L51 61L51 60L49 60L49 59L48 59L48 56L49 56L49 54L47 54L47 52L46 52L46 51L45 51L45 50L44 50L44 51L45 51L45 52L40 52L40 53L41 53L41 54L42 54L42 55L44 55L44 56L45 56L45 57L47 57L47 58L46 58L46 59L48 59L48 60L49 60L49 62L50 62L50 61L51 61L51 64L52 64L52 65L53 65L53 64L52 64L52 63L54 63L54 60L55 60L55 63L56 63L56 62L57 62L57 60L55 60L55 59L56 59L56 57L57 57L57 55L58 55L58 57L59 57L59 56L60 56L60 58L57 58L57 59L60 59L60 60L61 60L61 59L62 59L62 57L63 57L63 59L64 59L64 58L65 58L65 59L66 59L66 58L65 58L65 56L62 56L62 57L61 57L61 55L62 55L62 53L61 53L61 51L62 51L62 52L63 52L63 51L64 51L64 52L65 52L65 51L64 51L64 49L63 49L63 51L62 51L62 48L61 48L61 50L60 50L60 48ZM70 48L70 49L71 49L71 48ZM16 49L16 50L15 50L15 51L16 51L16 50L17 50L17 49ZM74 49L74 51L75 51L75 49ZM1 50L1 51L0 51L0 53L1 53L1 54L0 54L0 55L1 55L1 57L0 57L0 58L2 58L2 57L3 57L3 58L4 58L4 55L3 55L3 56L2 56L2 53L4 53L4 52L1 52L1 51L2 51L2 50ZM23 50L23 51L24 51L24 50ZM29 50L29 51L30 51L30 50ZM10 51L10 53L12 53L12 52L11 52L11 51ZM25 51L25 53L26 53L26 54L25 54L25 55L26 55L26 54L27 54L27 52L28 52L28 51L27 51L27 52L26 52L26 51ZM69 51L69 54L70 54L70 53L71 53L71 51ZM32 52L32 54L31 54L31 55L30 55L30 56L29 56L29 55L27 55L27 56L28 56L28 57L27 57L27 58L29 58L29 57L30 57L30 56L32 56L32 54L33 54L33 53L34 53L34 52ZM48 52L48 53L49 53L49 52ZM23 53L23 54L24 54L24 53ZM28 53L28 54L29 54L29 53ZM35 53L35 54L34 54L34 55L35 55L35 54L36 54L36 55L37 55L37 56L35 56L35 57L36 57L36 58L37 58L37 57L38 57L38 56L39 56L39 55L38 55L38 53L37 53L37 54L36 54L36 53ZM43 53L43 54L44 54L44 53ZM45 53L45 54L46 54L46 55L45 55L45 56L46 56L46 55L47 55L47 56L48 56L48 55L47 55L47 54L46 54L46 53ZM63 53L63 55L64 55L64 53ZM74 53L74 54L75 54L75 53ZM58 54L58 55L59 55L59 54ZM60 54L60 55L61 55L61 54ZM53 55L53 56L55 56L55 57L56 57L56 56L55 56L55 55ZM9 56L9 57L6 57L6 58L8 58L8 59L6 59L6 60L7 60L7 61L5 61L5 63L6 63L6 64L8 64L8 66L7 66L7 65L5 65L5 66L7 66L7 67L9 67L9 69L10 69L10 68L11 68L11 66L10 66L10 65L12 65L12 67L14 67L14 68L15 68L15 69L16 69L16 70L17 70L17 71L19 71L19 70L18 70L18 69L16 69L16 68L18 68L18 67L16 67L16 64L18 64L18 63L14 63L14 62L12 62L12 61L13 61L13 60L11 60L11 62L10 62L10 60L8 60L8 59L9 59L9 57L10 57L10 58L11 58L11 56ZM18 57L18 58L17 58L17 59L18 59L18 58L19 58L19 57ZM60 58L60 59L61 59L61 58ZM53 59L53 60L54 60L54 59ZM20 60L20 61L21 61L21 60ZM29 60L29 61L30 61L30 60ZM40 60L40 61L41 61L41 60ZM71 60L71 61L72 61L72 60ZM3 61L3 62L4 62L4 61ZM7 61L7 62L6 62L6 63L7 63L7 62L8 62L8 63L9 63L9 64L10 64L10 63L9 63L9 62L8 62L8 61ZM37 61L37 62L38 62L38 61ZM73 61L73 62L72 62L72 63L73 63L73 62L74 62L74 61ZM11 63L11 64L12 64L12 65L13 65L13 64L14 64L14 63ZM44 63L44 64L45 64L45 63ZM64 63L64 64L65 64L65 63ZM29 64L29 65L30 65L30 64ZM76 64L76 65L77 65L77 64ZM14 65L14 66L15 66L15 65ZM17 65L17 66L18 66L18 65ZM40 65L40 66L41 66L41 67L42 67L42 68L44 68L44 67L42 67L42 66L41 66L41 65ZM44 65L44 66L45 66L45 71L43 71L43 69L41 69L41 68L40 68L40 67L39 67L39 66L38 66L38 67L39 67L39 68L35 68L35 67L34 67L34 66L33 66L33 67L34 67L34 68L33 68L33 69L34 69L34 70L35 70L35 69L36 69L36 70L39 70L39 71L40 71L40 70L42 70L42 72L46 72L46 66L45 66L45 65ZM1 66L1 67L2 67L2 66ZM23 66L23 67L24 67L24 66ZM51 66L51 67L52 67L52 66ZM15 67L15 68L16 68L16 67ZM75 67L75 68L76 68L76 67ZM34 68L34 69L35 69L35 68ZM39 68L39 70L40 70L40 68ZM13 69L13 70L14 70L14 69ZM25 69L25 72L28 72L28 69ZM47 69L47 72L50 72L50 69ZM63 69L63 70L64 70L64 71L65 71L65 74L66 74L66 75L67 75L67 74L66 74L66 73L68 73L68 72L66 72L66 71L67 71L67 70L66 70L66 71L65 71L65 70L64 70L64 69ZM69 69L69 72L72 72L72 69ZM26 70L26 71L27 71L27 70ZM48 70L48 71L49 71L49 70ZM70 70L70 71L71 71L71 70ZM20 71L20 73L21 73L21 71ZM29 71L29 72L30 72L30 73L29 73L29 75L31 75L31 74L30 74L30 73L31 73L31 72L30 72L30 71ZM12 72L12 73L13 73L13 72ZM17 72L17 73L18 73L18 74L19 74L19 72ZM38 72L38 73L37 73L37 74L38 74L38 73L39 73L39 72ZM53 72L53 74L54 74L54 72ZM73 72L73 73L74 73L74 76L75 76L75 73L74 73L74 72ZM27 73L27 74L28 74L28 73ZM46 73L46 74L45 74L45 75L46 75L46 74L47 74L47 73ZM69 73L69 74L72 74L72 75L70 75L70 76L73 76L73 74L72 74L72 73ZM58 74L58 75L59 75L59 74ZM17 76L17 77L19 77L19 76ZM20 76L20 77L21 77L21 76ZM54 76L54 77L56 77L56 76ZM0 0L0 7L7 7L7 0ZM1 1L1 6L6 6L6 1ZM2 2L2 5L5 5L5 2ZM70 0L70 7L77 7L77 0ZM71 1L71 6L76 6L76 1ZM72 2L72 5L75 5L75 2ZM0 70L0 77L7 77L7 70ZM1 71L1 76L6 76L6 71ZM2 72L2 75L5 75L5 72Z" fill="#000000"/></g></g></svg>
