<?xml version="1.0" encoding="UTF-8"?>
<svg xmlns="http://www.w3.org/2000/svg" version="1.1" width="400" height="400" viewBox="0 0 400 400"><rect x="0" y="0" width="400" height="400" fill="#fefefe"/><g transform="scale(4.494)"><g transform="translate(4,4)"><path fill-rule="evenodd" d="M8 0L8 1L9 1L9 2L8 2L8 4L9 4L9 2L10 2L10 1L9 1L9 0ZM11 0L11 2L12 2L12 1L13 1L13 0ZM15 0L15 1L14 1L14 3L18 3L18 4L17 4L17 5L16 5L16 4L14 4L14 5L13 5L13 6L12 6L12 8L11 8L11 5L8 5L8 8L5 8L5 12L3 12L3 11L4 11L4 8L3 8L3 11L2 11L2 8L1 8L1 11L0 11L0 12L1 12L1 13L0 13L0 14L1 14L1 13L4 13L4 15L5 15L5 14L6 14L6 15L7 15L7 14L6 14L6 13L7 13L7 12L8 12L8 13L10 13L10 14L9 14L9 15L8 15L8 16L3 16L3 15L0 15L0 17L1 17L1 16L3 16L3 17L2 17L2 18L1 18L1 19L0 19L0 20L1 20L1 21L3 21L3 22L4 22L4 23L2 23L2 22L0 22L0 24L4 24L4 25L3 25L3 27L2 27L2 25L1 25L1 27L0 27L0 28L1 28L1 29L0 29L0 32L2 32L2 33L3 33L3 35L1 35L1 33L0 33L0 35L1 35L1 36L3 36L3 37L2 37L2 38L0 38L0 48L1 48L1 49L0 49L0 50L1 50L1 51L0 51L0 54L1 54L1 55L0 55L0 61L2 61L2 62L1 62L1 63L2 63L2 64L0 64L0 65L2 65L2 64L3 64L3 65L5 65L5 64L6 64L6 65L8 65L8 66L6 66L6 67L8 67L8 66L9 66L9 67L11 67L11 66L9 66L9 65L8 65L8 64L9 64L9 63L8 63L8 62L9 62L9 61L7 61L7 60L6 60L6 59L8 59L8 60L11 60L11 61L10 61L10 65L11 65L11 63L12 63L12 65L13 65L13 64L14 64L14 61L13 61L13 60L14 60L14 57L15 57L15 61L16 61L16 59L17 59L17 60L19 60L19 58L21 58L21 56L22 56L22 57L23 57L23 58L22 58L22 59L21 59L21 60L20 60L20 62L19 62L19 61L17 61L17 62L15 62L15 63L17 63L17 62L19 62L19 63L18 63L18 64L17 64L17 65L16 65L16 64L15 64L15 65L14 65L14 66L13 66L13 68L14 68L14 67L15 67L15 69L16 69L16 70L17 70L17 68L18 68L18 70L19 70L19 69L20 69L20 70L21 70L21 71L20 71L20 72L19 72L19 76L20 76L20 72L21 72L21 73L22 73L22 74L21 74L21 75L23 75L23 74L24 74L24 77L25 77L25 78L26 78L26 79L24 79L24 81L25 81L25 80L26 80L26 79L27 79L27 81L29 81L29 79L30 79L30 80L31 80L31 81L34 81L34 80L35 80L35 78L37 78L37 77L38 77L38 76L39 76L39 78L38 78L38 79L39 79L39 78L40 78L40 81L41 81L41 78L42 78L42 77L43 77L43 78L45 78L45 77L49 77L49 78L46 78L46 79L45 79L45 80L44 80L44 79L42 79L42 81L43 81L43 80L44 80L44 81L45 81L45 80L47 80L47 81L48 81L48 80L50 80L50 81L51 81L51 80L53 80L53 81L54 81L54 80L55 80L55 79L53 79L53 78L52 78L52 79L51 79L51 78L50 78L50 77L54 77L54 78L56 78L56 77L57 77L57 78L58 78L58 79L57 79L57 80L56 80L56 81L57 81L57 80L58 80L58 81L59 81L59 80L58 80L58 79L59 79L59 77L58 77L58 75L59 75L59 76L60 76L60 79L62 79L62 78L63 78L63 77L62 77L62 76L64 76L64 75L65 75L65 76L66 76L66 77L65 77L65 80L64 80L64 79L63 79L63 80L64 80L64 81L65 81L65 80L66 80L66 79L68 79L68 80L67 80L67 81L68 81L68 80L69 80L69 81L71 81L71 80L72 80L72 81L73 81L73 80L74 80L74 81L75 81L75 80L74 80L74 79L76 79L76 78L73 78L73 77L77 77L77 78L78 78L78 80L79 80L79 81L80 81L80 80L81 80L81 76L80 76L80 79L79 79L79 78L78 78L78 77L79 77L79 76L78 76L78 75L80 75L80 74L78 74L78 73L79 73L79 71L77 71L77 70L76 70L76 69L77 69L77 66L78 66L78 65L77 65L77 64L79 64L79 65L81 65L81 58L80 58L80 59L79 59L79 61L80 61L80 64L79 64L79 63L77 63L77 64L75 64L75 66L74 66L74 63L72 63L72 62L71 62L71 61L70 61L70 60L71 60L71 59L73 59L73 60L75 60L75 59L76 59L76 58L74 58L74 57L73 57L73 56L72 56L72 55L73 55L73 54L72 54L72 53L74 53L74 56L76 56L76 57L77 57L77 55L78 55L78 57L80 57L80 56L79 56L79 55L81 55L81 50L80 50L80 49L81 49L81 48L80 48L80 47L81 47L81 45L80 45L80 46L79 46L79 47L77 47L77 48L72 48L72 47L73 47L73 46L74 46L74 45L73 45L73 46L70 46L70 45L69 45L69 44L70 44L70 43L71 43L71 45L72 45L72 44L73 44L73 42L75 42L75 41L76 41L76 43L75 43L75 44L76 44L76 43L77 43L77 45L76 45L76 46L77 46L77 45L78 45L78 42L77 42L77 41L79 41L79 40L80 40L80 41L81 41L81 39L80 39L80 37L81 37L81 36L80 36L80 37L79 37L79 35L81 35L81 34L80 34L80 33L79 33L79 35L78 35L78 32L81 32L81 31L80 31L80 30L81 30L81 27L80 27L80 25L81 25L81 24L80 24L80 25L79 25L79 24L78 24L78 25L79 25L79 27L77 27L77 23L76 23L76 22L75 22L75 21L74 21L74 22L75 22L75 23L74 23L74 24L73 24L73 23L72 23L72 25L71 25L71 24L70 24L70 23L71 23L71 22L73 22L73 21L72 21L72 19L71 19L71 17L69 17L69 16L70 16L70 15L71 15L71 16L72 16L72 17L73 17L73 19L74 19L74 20L75 20L75 19L76 19L76 20L77 20L77 22L78 22L78 21L79 21L79 23L80 23L80 20L81 20L81 19L80 19L80 17L81 17L81 16L80 16L80 15L78 15L78 16L76 16L76 15L77 15L77 14L78 14L78 13L79 13L79 12L80 12L80 11L81 11L81 10L80 10L80 9L81 9L81 8L80 8L80 9L79 9L79 8L77 8L77 9L79 9L79 10L78 10L78 12L77 12L77 13L75 13L75 12L76 12L76 11L75 11L75 10L76 10L76 8L73 8L73 6L72 6L72 5L71 5L71 6L70 6L70 7L69 7L69 6L68 6L68 3L70 3L70 4L71 4L71 2L72 2L72 4L73 4L73 1L70 1L70 2L68 2L68 3L66 3L66 2L67 2L67 1L69 1L69 0L67 0L67 1L66 1L66 0L63 0L63 1L62 1L62 0L59 0L59 1L58 1L58 0L57 0L57 1L56 1L56 0L52 0L52 1L54 1L54 2L53 2L53 3L54 3L54 4L55 4L55 1L56 1L56 5L54 5L54 7L53 7L53 4L52 4L52 3L51 3L51 1L50 1L50 2L48 2L48 1L47 1L47 0L46 0L46 1L45 1L45 0L44 0L44 1L43 1L43 0L39 0L39 1L38 1L38 0L37 0L37 1L38 1L38 2L35 2L35 3L34 3L34 2L33 2L33 3L32 3L32 1L34 1L34 0L29 0L29 1L30 1L30 2L28 2L28 0L27 0L27 2L28 2L28 3L30 3L30 2L31 2L31 4L30 4L30 5L31 5L31 6L30 6L30 9L29 9L29 4L25 4L25 2L26 2L26 0L25 0L25 1L24 1L24 2L23 2L23 1L21 1L21 2L19 2L19 1L20 1L20 0L19 0L19 1L18 1L18 0L17 0L17 2L16 2L16 0ZM35 0L35 1L36 1L36 0ZM39 1L39 2L38 2L38 3L39 3L39 2L40 2L40 4L41 4L41 3L42 3L42 5L41 5L41 7L40 7L40 5L39 5L39 4L37 4L37 5L38 5L38 6L37 6L37 10L38 10L38 11L37 11L37 12L36 12L36 11L35 11L35 10L36 10L36 9L35 9L35 7L36 7L36 5L33 5L33 4L34 4L34 3L33 3L33 4L32 4L32 6L31 6L31 7L32 7L32 8L33 8L33 7L34 7L34 10L33 10L33 9L32 9L32 10L31 10L31 9L30 9L30 11L29 11L29 10L28 10L28 9L27 9L27 10L28 10L28 11L26 11L26 10L24 10L24 8L23 8L23 9L22 9L22 8L20 8L20 10L19 10L19 9L18 9L18 5L17 5L17 10L16 10L16 11L15 11L15 10L14 10L14 9L13 9L13 10L14 10L14 11L15 11L15 12L14 12L14 13L13 13L13 11L10 11L10 9L11 9L11 10L12 10L12 9L11 9L11 8L9 8L9 9L8 9L8 10L7 10L7 9L6 9L6 10L7 10L7 11L6 11L6 12L5 12L5 13L6 13L6 12L7 12L7 11L9 11L9 12L10 12L10 13L12 13L12 14L10 14L10 16L11 16L11 17L9 17L9 16L8 16L8 17L9 17L9 18L8 18L8 19L10 19L10 18L11 18L11 17L12 17L12 18L13 18L13 19L12 19L12 21L11 21L11 20L10 20L10 21L9 21L9 20L8 20L8 21L9 21L9 22L7 22L7 21L6 21L6 20L7 20L7 19L6 19L6 20L5 20L5 18L7 18L7 17L5 17L5 18L2 18L2 19L4 19L4 20L3 20L3 21L4 21L4 22L5 22L5 23L6 23L6 24L8 24L8 23L9 23L9 22L10 22L10 21L11 21L11 22L12 22L12 23L10 23L10 24L9 24L9 25L10 25L10 26L9 26L9 27L11 27L11 25L12 25L12 24L14 24L14 25L15 25L15 28L14 28L14 27L13 27L13 26L12 26L12 30L10 30L10 28L9 28L9 30L10 30L10 31L8 31L8 30L7 30L7 29L5 29L5 30L7 30L7 31L6 31L6 32L7 32L7 33L6 33L6 34L4 34L4 35L3 35L3 36L4 36L4 38L5 38L5 39L4 39L4 40L5 40L5 39L6 39L6 40L7 40L7 39L6 39L6 38L8 38L8 37L6 37L6 38L5 38L5 36L4 36L4 35L6 35L6 36L9 36L9 37L10 37L10 36L9 36L9 34L8 34L8 32L9 32L9 33L10 33L10 35L12 35L12 33L13 33L13 34L14 34L14 32L15 32L15 35L16 35L16 34L18 34L18 33L20 33L20 32L16 32L16 30L17 30L17 31L20 31L20 30L19 30L19 29L18 29L18 28L19 28L19 27L20 27L20 26L17 26L17 25L19 25L19 24L20 24L20 25L22 25L22 26L23 26L23 27L22 27L22 28L20 28L20 29L22 29L22 28L24 28L24 26L23 26L23 24L24 24L24 23L27 23L27 24L29 24L29 25L30 25L30 26L31 26L31 27L29 27L29 29L28 29L28 31L27 31L27 30L26 30L26 29L25 29L25 30L26 30L26 31L23 31L23 30L24 30L24 29L23 29L23 30L21 30L21 32L22 32L22 33L21 33L21 36L20 36L20 35L18 35L18 36L17 36L17 37L18 37L18 38L16 38L16 42L15 42L15 40L14 40L14 39L12 39L12 38L15 38L15 36L14 36L14 35L13 35L13 36L12 36L12 37L11 37L11 38L10 38L10 39L9 39L9 41L4 41L4 42L3 42L3 41L1 41L1 43L2 43L2 44L1 44L1 46L2 46L2 47L1 47L1 48L2 48L2 49L3 49L3 50L2 50L2 52L1 52L1 54L2 54L2 55L4 55L4 57L1 57L1 58L7 58L7 57L9 57L9 58L8 58L8 59L9 59L9 58L10 58L10 57L11 57L11 58L12 58L12 57L13 57L13 56L12 56L12 55L11 55L11 56L10 56L10 55L8 55L8 53L5 53L5 55L4 55L4 54L3 54L3 53L4 53L4 52L3 52L3 50L4 50L4 47L3 47L3 46L5 46L5 48L7 48L7 47L6 47L6 46L9 46L9 47L8 47L8 48L9 48L9 49L11 49L11 48L12 48L12 51L13 51L13 53L12 53L12 52L11 52L11 51L10 51L10 50L9 50L9 51L10 51L10 52L9 52L9 54L10 54L10 53L11 53L11 54L13 54L13 55L16 55L16 54L17 54L17 55L18 55L18 56L19 56L19 55L18 55L18 54L17 54L17 52L18 52L18 51L19 51L19 52L23 52L23 51L20 51L20 50L21 50L21 49L19 49L19 48L21 48L21 47L23 47L23 48L22 48L22 50L24 50L24 48L25 48L25 47L26 47L26 48L29 48L29 50L30 50L30 51L29 51L29 52L30 52L30 53L28 53L28 54L26 54L26 53L20 53L20 54L21 54L21 55L20 55L20 56L21 56L21 55L22 55L22 56L24 56L24 59L23 59L23 60L21 60L21 61L22 61L22 62L23 62L23 60L24 60L24 59L26 59L26 61L27 61L27 62L28 62L28 63L26 63L26 66L27 66L27 67L26 67L26 68L24 68L24 67L25 67L25 63L22 63L22 64L24 64L24 65L22 65L22 66L18 66L18 65L21 65L21 64L18 64L18 65L17 65L17 66L16 66L16 65L15 65L15 67L18 67L18 68L20 68L20 67L21 67L21 68L24 68L24 69L21 69L21 70L23 70L23 71L21 71L21 72L22 72L22 73L23 73L23 71L24 71L24 72L26 72L26 71L27 71L27 70L26 70L26 69L27 69L27 67L29 67L29 69L30 69L30 71L32 71L32 72L31 72L31 74L33 74L33 73L34 73L34 72L33 72L33 70L35 70L35 69L37 69L37 68L38 68L38 70L39 70L39 71L40 71L40 72L39 72L39 74L38 74L38 75L39 75L39 76L40 76L40 77L42 77L42 76L40 76L40 74L42 74L42 75L43 75L43 74L42 74L42 73L45 73L45 74L46 74L46 75L48 75L48 72L47 72L47 71L50 71L50 72L52 72L52 70L51 70L51 71L50 71L50 70L49 70L49 69L50 69L50 68L51 68L51 67L55 67L55 68L52 68L52 69L53 69L53 72L54 72L54 73L53 73L53 74L54 74L54 75L55 75L55 76L54 76L54 77L56 77L56 75L57 75L57 71L58 71L58 74L60 74L60 75L61 75L61 73L62 73L62 74L63 74L63 75L64 75L64 74L65 74L65 73L64 73L64 74L63 74L63 71L64 71L64 72L66 72L66 75L70 75L70 76L69 76L69 77L68 77L68 76L67 76L67 77L66 77L66 78L69 78L69 79L70 79L70 78L69 78L69 77L70 77L70 76L71 76L71 77L72 77L72 75L70 75L70 74L68 74L68 73L69 73L69 71L70 71L70 69L67 69L67 70L66 70L66 68L65 68L65 67L67 67L67 68L68 68L68 67L69 67L69 66L72 66L72 64L69 64L69 63L71 63L71 62L70 62L70 61L69 61L69 63L68 63L68 62L67 62L67 61L68 61L68 60L67 60L67 59L66 59L66 61L65 61L65 58L64 58L64 57L63 57L63 56L65 56L65 57L66 57L66 56L67 56L67 55L68 55L68 54L69 54L69 53L70 53L70 55L71 55L71 53L72 53L72 52L71 52L71 53L70 53L70 52L69 52L69 53L68 53L68 51L72 51L72 48L71 48L71 49L69 49L69 47L70 47L70 46L69 46L69 45L67 45L67 46L66 46L66 44L68 44L68 43L70 43L70 42L71 42L71 41L69 41L69 40L68 40L68 42L67 42L67 40L63 40L63 39L65 39L65 38L64 38L64 37L65 37L65 36L66 36L66 37L69 37L69 36L66 36L66 35L67 35L67 34L68 34L68 33L69 33L69 34L70 34L70 35L72 35L72 36L70 36L70 37L71 37L71 38L66 38L66 39L71 39L71 38L72 38L72 42L73 42L73 41L74 41L74 40L73 40L73 39L74 39L74 38L78 38L78 39L77 39L77 40L76 40L76 39L75 39L75 40L76 40L76 41L77 41L77 40L79 40L79 37L75 37L75 36L74 36L74 38L73 38L73 37L72 37L72 36L73 36L73 35L72 35L72 34L74 34L74 35L76 35L76 36L77 36L77 34L75 34L75 32L72 32L72 31L71 31L71 29L72 29L72 30L73 30L73 31L76 31L76 33L77 33L77 32L78 32L78 30L80 30L80 28L79 28L79 29L78 29L78 28L77 28L77 29L78 29L78 30L77 30L77 31L76 31L76 29L75 29L75 30L74 30L74 29L72 29L72 28L71 28L71 29L70 29L70 28L69 28L69 27L71 27L71 25L69 25L69 23L70 23L70 22L68 22L68 26L66 26L66 25L65 25L65 24L66 24L66 22L67 22L67 20L68 20L68 21L71 21L71 19L70 19L70 18L69 18L69 17L68 17L68 16L66 16L66 17L65 17L65 16L63 16L63 15L64 15L64 14L65 14L65 15L66 15L66 14L67 14L67 15L68 15L68 14L69 14L69 15L70 15L70 14L71 14L71 15L72 15L72 14L71 14L71 13L72 13L72 12L73 12L73 14L74 14L74 11L71 11L71 10L72 10L72 9L73 9L73 10L75 10L75 9L73 9L73 8L72 8L72 9L70 9L70 10L69 10L69 9L68 9L68 8L69 8L69 7L68 7L68 6L67 6L67 8L64 8L64 6L63 6L63 5L64 5L64 4L66 4L66 3L65 3L65 2L63 2L63 5L62 5L62 4L61 4L61 7L60 7L60 5L59 5L59 4L60 4L60 3L62 3L62 1L61 1L61 2L60 2L60 3L59 3L59 4L58 4L58 2L57 2L57 4L58 4L58 6L57 6L57 7L58 7L58 8L60 8L60 9L61 9L61 8L62 8L62 10L63 10L63 12L62 12L62 13L60 13L60 12L61 12L61 11L60 11L60 10L59 10L59 9L58 9L58 10L57 10L57 11L56 11L56 12L58 12L58 13L57 13L57 14L56 14L56 15L54 15L54 14L55 14L55 13L54 13L54 12L55 12L55 10L53 10L53 12L51 12L51 10L52 10L52 9L47 9L47 8L45 8L45 7L46 7L46 6L47 6L47 7L48 7L48 6L47 6L47 4L48 4L48 2L47 2L47 4L46 4L46 3L45 3L45 4L43 4L43 3L42 3L42 1ZM44 1L44 2L45 2L45 1ZM18 2L18 3L19 3L19 4L21 4L21 5L19 5L19 7L20 7L20 6L21 6L21 7L22 7L22 5L23 5L23 7L24 7L24 5L23 5L23 4L21 4L21 3L22 3L22 2L21 2L21 3L19 3L19 2ZM11 3L11 4L13 4L13 3ZM45 4L45 5L44 5L44 7L43 7L43 5L42 5L42 7L43 7L43 8L40 8L40 9L42 9L42 10L41 10L41 12L42 12L42 13L41 13L41 14L42 14L42 16L41 16L41 17L42 17L42 18L40 18L40 19L41 19L41 20L40 20L40 22L41 22L41 21L42 21L42 22L43 22L43 23L44 23L44 22L43 22L43 20L42 20L42 18L43 18L43 17L42 17L42 16L43 16L43 15L45 15L45 16L44 16L44 17L46 17L46 18L44 18L44 20L45 20L45 19L46 19L46 20L47 20L47 21L46 21L46 23L45 23L45 25L46 25L46 26L45 26L45 27L43 27L43 26L44 26L44 25L43 25L43 24L42 24L42 23L40 23L40 24L39 24L39 25L40 25L40 26L42 26L42 29L43 29L43 28L44 28L44 29L45 29L45 27L46 27L46 26L48 26L48 27L47 27L47 28L46 28L46 30L45 30L45 31L42 31L42 32L39 32L39 33L42 33L42 34L43 34L43 33L45 33L45 34L44 34L44 35L42 35L42 36L43 36L43 37L42 37L42 38L41 38L41 37L40 37L40 38L39 38L39 36L38 36L38 35L40 35L40 34L38 34L38 32L37 32L37 31L39 31L39 29L41 29L41 28L38 28L38 27L39 27L39 26L38 26L38 23L37 23L37 22L36 22L36 26L35 26L35 25L32 25L32 24L31 24L31 23L34 23L34 20L35 20L35 21L38 21L38 20L35 20L35 19L36 19L36 18L39 18L39 17L40 17L40 14L39 14L39 16L38 16L38 17L36 17L36 16L37 16L37 15L38 15L38 13L37 13L37 14L35 14L35 13L34 13L34 11L33 11L33 12L32 12L32 13L31 13L31 12L30 12L30 13L31 13L31 14L27 14L27 13L29 13L29 11L28 11L28 12L26 12L26 11L24 11L24 13L26 13L26 14L22 14L22 11L23 11L23 10L22 10L22 11L21 11L21 10L20 10L20 11L17 11L17 12L16 12L16 13L14 13L14 15L15 15L15 14L16 14L16 16L13 16L13 15L12 15L12 16L13 16L13 18L15 18L15 21L14 21L14 20L13 20L13 23L14 23L14 22L15 22L15 23L16 23L16 19L18 19L18 16L19 16L19 17L20 17L20 18L19 18L19 20L17 20L17 21L18 21L18 22L19 22L19 23L17 23L17 24L15 24L15 25L17 25L17 24L19 24L19 23L20 23L20 24L21 24L21 22L22 22L22 24L23 24L23 23L24 23L24 22L23 22L23 20L22 20L22 19L23 19L23 17L20 17L20 16L21 16L21 15L25 15L25 16L24 16L24 18L25 18L25 19L24 19L24 21L25 21L25 19L26 19L26 21L30 21L30 20L31 20L31 23L30 23L30 22L29 22L29 23L30 23L30 25L31 25L31 26L32 26L32 27L33 27L33 28L30 28L30 29L29 29L29 30L30 30L30 31L28 31L28 32L26 32L26 35L25 35L25 34L24 34L24 33L25 33L25 32L24 32L24 33L23 33L23 34L24 34L24 35L22 35L22 36L21 36L21 37L20 37L20 36L19 36L19 37L20 37L20 38L21 38L21 39L19 39L19 38L18 38L18 39L19 39L19 40L18 40L18 41L17 41L17 42L16 42L16 43L15 43L15 42L13 42L13 43L12 43L12 42L11 42L11 41L10 41L10 43L11 43L11 44L10 44L10 45L9 45L9 46L11 46L11 45L12 45L12 44L13 44L13 47L12 47L12 48L13 48L13 47L14 47L14 49L15 49L15 48L18 48L18 47L20 47L20 45L21 45L21 46L22 46L22 45L23 45L23 46L24 46L24 47L25 47L25 46L24 46L24 45L23 45L23 43L24 43L24 44L26 44L26 45L27 45L27 46L26 46L26 47L28 47L28 46L29 46L29 44L30 44L30 47L32 47L32 48L33 48L33 49L32 49L32 50L31 50L31 48L30 48L30 50L31 50L31 51L30 51L30 52L36 52L36 51L33 51L33 49L35 49L35 47L36 47L36 50L37 50L37 54L36 54L36 53L33 53L33 55L35 55L35 56L32 56L32 58L31 58L31 56L30 56L30 55L27 55L27 57L25 57L25 58L26 58L26 59L29 59L29 58L30 58L30 60L29 60L29 61L28 61L28 60L27 60L27 61L28 61L28 62L29 62L29 63L28 63L28 64L27 64L27 66L29 66L29 67L30 67L30 66L29 66L29 65L31 65L31 66L32 66L32 67L31 67L31 68L32 68L32 67L34 67L34 68L33 68L33 69L31 69L31 70L33 70L33 69L35 69L35 66L36 66L36 63L35 63L35 62L38 62L38 63L37 63L37 65L38 65L38 66L40 66L40 67L41 67L41 68L39 68L39 70L42 70L42 72L44 72L44 71L45 71L45 69L44 69L44 68L46 68L46 67L47 67L47 68L49 68L49 67L47 67L47 66L48 66L48 65L49 65L49 66L55 66L55 65L56 65L56 64L55 64L55 63L53 63L53 62L52 62L52 61L51 61L51 60L53 60L53 59L51 59L51 58L52 58L52 57L53 57L53 58L54 58L54 60L56 60L56 61L55 61L55 62L57 62L57 64L58 64L58 63L59 63L59 64L60 64L60 63L61 63L61 65L59 65L59 66L57 66L57 67L56 67L56 68L57 68L57 69L56 69L56 70L54 70L54 72L55 72L55 74L56 74L56 70L57 70L57 69L60 69L60 68L59 68L59 66L60 66L60 67L62 67L62 68L61 68L61 69L62 69L62 70L61 70L61 71L60 71L60 72L59 72L59 73L60 73L60 72L62 72L62 70L63 70L63 69L64 69L64 67L63 67L63 66L65 66L65 64L66 64L66 62L65 62L65 61L64 61L64 60L63 60L63 58L62 58L62 59L60 59L60 60L61 60L61 62L59 62L59 60L58 60L58 59L59 59L59 58L60 58L60 55L57 55L57 53L59 53L59 54L60 54L60 53L61 53L61 54L64 54L64 55L65 55L65 56L66 56L66 55L67 55L67 54L66 54L66 53L67 53L67 50L66 50L66 48L68 48L68 47L69 47L69 46L67 46L67 47L66 47L66 48L65 48L65 45L64 45L64 44L66 44L66 43L63 43L63 45L62 45L62 44L60 44L60 43L59 43L59 45L57 45L57 44L58 44L58 43L57 43L57 44L56 44L56 45L57 45L57 48L56 48L56 46L55 46L55 43L53 43L53 41L54 41L54 40L56 40L56 41L58 41L58 42L62 42L62 39L63 39L63 38L62 38L62 36L64 36L64 35L63 35L63 34L64 34L64 33L62 33L62 32L61 32L61 31L60 31L60 34L62 34L62 36L61 36L61 37L58 37L58 35L59 35L59 36L60 36L60 35L59 35L59 33L58 33L58 31L59 31L59 30L58 30L58 29L61 29L61 28L62 28L62 27L61 27L61 26L60 26L60 25L64 25L64 28L63 28L63 30L62 30L62 31L63 31L63 32L67 32L67 33L68 33L68 32L69 32L69 33L70 33L70 32L71 32L71 31L70 31L70 30L69 30L69 28L68 28L68 29L67 29L67 30L69 30L69 31L63 31L63 30L65 30L65 29L64 29L64 28L67 28L67 27L66 27L66 26L65 26L65 25L64 25L64 24L65 24L65 22L66 22L66 20L67 20L67 19L66 19L66 18L65 18L65 17L63 17L63 18L64 18L64 20L63 20L63 21L62 21L62 20L61 20L61 19L60 19L60 21L59 21L59 20L58 20L58 19L59 19L59 18L62 18L62 15L63 15L63 13L62 13L62 15L60 15L60 14L59 14L59 13L58 13L58 14L59 14L59 16L58 16L58 15L57 15L57 16L58 16L58 17L59 17L59 18L58 18L58 19L56 19L56 20L57 20L57 21L56 21L56 22L55 22L55 24L51 24L51 23L54 23L54 21L53 21L53 22L49 22L49 20L50 20L50 21L51 21L51 20L55 20L55 19L49 19L49 18L50 18L50 17L49 17L49 18L48 18L48 19L47 19L47 17L48 17L48 16L49 16L49 15L47 15L47 14L48 14L48 13L49 13L49 12L50 12L50 13L51 13L51 12L50 12L50 10L48 10L48 11L49 11L49 12L46 12L46 13L47 13L47 14L45 14L45 12L43 12L43 8L44 8L44 9L45 9L45 10L44 10L44 11L45 11L45 10L46 10L46 9L45 9L45 8L44 8L44 7L45 7L45 6L46 6L46 4ZM25 5L25 8L28 8L28 5ZM49 5L49 8L52 8L52 5ZM65 5L65 7L66 7L66 5ZM9 6L9 7L10 7L10 6ZM13 6L13 8L16 8L16 6L15 6L15 7L14 7L14 6ZM26 6L26 7L27 7L27 6ZM32 6L32 7L33 7L33 6ZM34 6L34 7L35 7L35 6ZM38 6L38 9L39 9L39 6ZM50 6L50 7L51 7L51 6ZM55 6L55 7L54 7L54 8L53 8L53 9L57 9L57 8L55 8L55 7L56 7L56 6ZM58 6L58 7L59 7L59 6ZM62 6L62 7L63 7L63 6ZM71 6L71 7L72 7L72 6ZM63 9L63 10L64 10L64 11L66 11L66 10L65 10L65 9ZM67 9L67 12L68 12L68 13L67 13L67 14L68 14L68 13L71 13L71 12L70 12L70 11L69 11L69 10L68 10L68 9ZM79 10L79 11L80 11L80 10ZM1 11L1 12L2 12L2 11ZM20 11L20 12L21 12L21 11ZM18 12L18 13L16 13L16 14L19 14L19 15L20 15L20 14L19 14L19 12ZM65 12L65 14L66 14L66 12ZM32 13L32 14L31 14L31 15L33 15L33 16L31 16L31 18L29 18L29 17L30 17L30 15L26 15L26 16L28 16L28 17L27 17L27 18L28 18L28 20L30 20L30 19L31 19L31 20L34 20L34 18L36 18L36 17L34 17L34 15L35 15L35 16L36 16L36 15L35 15L35 14L34 14L34 13ZM42 13L42 14L43 14L43 13ZM33 14L33 15L34 15L34 14ZM50 14L50 15L51 15L51 18L55 18L55 17L56 17L56 18L57 18L57 17L56 17L56 16L54 16L54 15L53 15L53 14ZM17 15L17 16L16 16L16 17L17 17L17 16L18 16L18 15ZM46 15L46 16L47 16L47 15ZM52 15L52 17L53 17L53 15ZM73 15L73 17L74 17L74 16L75 16L75 15ZM59 16L59 17L61 17L61 16ZM25 17L25 18L26 18L26 17ZM67 17L67 18L68 18L68 17ZM76 17L76 18L77 18L77 20L78 20L78 19L79 19L79 20L80 20L80 19L79 19L79 17L78 17L78 18L77 18L77 17ZM20 18L20 19L22 19L22 18ZM31 18L31 19L33 19L33 18ZM74 18L74 19L75 19L75 18ZM68 19L68 20L70 20L70 19ZM4 20L4 21L5 21L5 20ZM20 20L20 21L21 21L21 20ZM64 20L64 21L63 21L63 22L62 22L62 21L61 21L61 22L62 22L62 24L63 24L63 23L64 23L64 22L65 22L65 20ZM57 21L57 23L58 23L58 21ZM6 22L6 23L7 23L7 22ZM27 22L27 23L28 23L28 22ZM47 22L47 23L46 23L46 25L47 25L47 24L50 24L50 23L49 23L49 22ZM59 22L59 23L60 23L60 24L61 24L61 23L60 23L60 22ZM75 23L75 24L76 24L76 23ZM40 24L40 25L41 25L41 24ZM55 24L55 25L56 25L56 26L53 26L53 27L54 27L54 28L56 28L56 30L55 30L55 29L52 29L52 30L51 30L51 29L50 29L50 30L49 30L49 32L51 32L51 33L50 33L50 34L54 34L54 35L50 35L50 36L51 36L51 37L52 37L52 36L55 36L55 38L54 38L54 37L53 37L53 38L51 38L51 39L50 39L50 37L49 37L49 36L48 36L48 35L49 35L49 34L48 34L48 35L47 35L47 33L48 33L48 32L46 32L46 34L45 34L45 35L46 35L46 37L45 37L45 36L44 36L44 37L45 37L45 38L47 38L47 39L45 39L45 40L43 40L43 41L42 41L42 42L41 42L41 41L38 41L38 38L36 38L36 37L37 37L37 36L36 36L36 37L34 37L34 38L33 38L33 35L34 35L34 36L35 36L35 35L34 35L34 34L35 34L35 33L34 33L34 34L33 34L33 32L32 32L32 29L30 29L30 30L31 30L31 31L30 31L30 32L28 32L28 34L27 34L27 35L28 35L28 37L27 37L27 36L26 36L26 37L27 37L27 38L25 38L25 36L24 36L24 38L23 38L23 37L21 37L21 38L23 38L23 39L21 39L21 40L20 40L20 41L21 41L21 40L26 40L26 41L27 41L27 43L28 43L28 44L29 44L29 43L31 43L31 42L32 42L32 43L34 43L34 44L32 44L32 45L31 45L31 46L32 46L32 47L33 47L33 46L32 46L32 45L34 45L34 46L36 46L36 47L37 47L37 48L38 48L38 47L39 47L39 50L38 50L38 51L39 51L39 50L40 50L40 48L41 48L41 51L40 51L40 52L41 52L41 51L42 51L42 53L40 53L40 54L41 54L41 55L40 55L40 56L42 56L42 57L41 57L41 58L42 58L42 59L43 59L43 58L42 58L42 57L44 57L44 56L45 56L45 53L46 53L46 54L49 54L49 55L47 55L47 56L48 56L48 57L46 57L46 59L44 59L44 60L45 60L45 61L44 61L44 62L47 62L47 63L48 63L48 62L49 62L49 63L50 63L50 64L51 64L51 63L50 63L50 62L51 62L51 61L50 61L50 60L48 60L48 62L47 62L47 61L46 61L46 60L47 60L47 58L51 58L51 55L52 55L52 54L53 54L53 53L52 53L52 54L50 54L50 53L47 53L47 52L48 52L48 51L44 51L44 50L46 50L46 49L47 49L47 48L49 48L49 46L51 46L51 45L54 45L54 44L53 44L53 43L52 43L52 40L53 40L53 38L54 38L54 39L57 39L57 38L58 38L58 41L61 41L61 39L62 39L62 38L61 38L61 39L60 39L60 40L59 40L59 38L58 38L58 37L57 37L57 38L56 38L56 36L57 36L57 35L58 35L58 34L57 34L57 33L55 33L55 32L56 32L56 31L58 31L58 30L57 30L57 27L58 27L58 28L61 28L61 27L59 27L59 26L57 26L57 25L56 25L56 24ZM58 24L58 25L59 25L59 24ZM5 25L5 28L8 28L8 25ZM25 25L25 28L28 28L28 25ZM49 25L49 28L52 28L52 25ZM73 25L73 28L76 28L76 25ZM6 26L6 27L7 27L7 26ZM16 26L16 27L17 27L17 26ZM26 26L26 27L27 27L27 26ZM37 26L37 27L38 27L38 26ZM50 26L50 27L51 27L51 26ZM74 26L74 27L75 27L75 26ZM1 27L1 28L2 28L2 27ZM3 27L3 29L2 29L2 30L4 30L4 27ZM34 27L34 28L33 28L33 30L34 30L34 31L35 31L35 30L36 30L36 29L37 29L37 28L36 28L36 27ZM16 28L16 29L17 29L17 28ZM34 29L34 30L35 30L35 29ZM47 29L47 30L48 30L48 29ZM13 30L13 32L14 32L14 31L15 31L15 30ZM54 30L54 31L52 31L52 33L54 33L54 31L55 31L55 30ZM3 31L3 33L4 33L4 32L5 32L5 31ZM7 31L7 32L8 32L8 31ZM10 31L10 33L12 33L12 31ZM30 32L30 33L29 33L29 34L28 34L28 35L29 35L29 34L30 34L30 33L32 33L32 32ZM65 33L65 34L66 34L66 33ZM71 33L71 34L72 34L72 33ZM6 34L6 35L7 35L7 34ZM32 34L32 35L31 35L31 37L30 37L30 38L29 38L29 37L28 37L28 38L29 38L29 40L30 40L30 39L31 39L31 37L32 37L32 35L33 35L33 34ZM55 34L55 35L56 35L56 34ZM13 36L13 37L14 37L14 36ZM48 37L48 39L47 39L47 40L45 40L45 41L47 41L47 42L46 42L46 43L45 43L45 44L43 44L43 43L41 43L41 42L40 42L40 45L42 45L42 49L43 49L43 48L44 48L44 47L43 47L43 46L46 46L46 45L45 45L45 44L47 44L47 45L48 45L48 46L47 46L47 47L48 47L48 46L49 46L49 45L51 45L51 43L50 43L50 44L49 44L49 42L48 42L48 41L47 41L47 40L48 40L48 39L49 39L49 40L50 40L50 41L51 41L51 40L50 40L50 39L49 39L49 37ZM32 38L32 39L33 39L33 41L32 41L32 40L31 40L31 41L32 41L32 42L35 42L35 41L36 41L36 43L35 43L35 45L36 45L36 43L39 43L39 42L38 42L38 41L37 41L37 40L35 40L35 41L34 41L34 39L35 39L35 38L34 38L34 39L33 39L33 38ZM42 38L42 39L43 39L43 38ZM11 39L11 40L12 40L12 41L14 41L14 40L12 40L12 39ZM27 39L27 40L28 40L28 39ZM24 41L24 42L25 42L25 43L26 43L26 42L25 42L25 41ZM28 41L28 43L29 43L29 41ZM63 41L63 42L65 42L65 41ZM2 42L2 43L3 43L3 44L4 44L4 45L5 45L5 44L6 44L6 45L8 45L8 44L6 44L6 43L7 43L7 42L6 42L6 43L5 43L5 42L4 42L4 43L3 43L3 42ZM8 42L8 43L9 43L9 42ZM19 42L19 43L17 43L17 44L19 44L19 43L20 43L20 42ZM21 42L21 44L22 44L22 42ZM80 42L80 43L79 43L79 44L81 44L81 42ZM4 43L4 44L5 44L5 43ZM13 43L13 44L14 44L14 45L15 45L15 46L17 46L17 47L18 47L18 46L19 46L19 45L18 45L18 46L17 46L17 45L15 45L15 43ZM38 44L38 45L37 45L37 46L39 46L39 47L40 47L40 46L39 46L39 44ZM42 44L42 45L43 45L43 44ZM2 45L2 46L3 46L3 45ZM61 45L61 46L58 46L58 48L57 48L57 50L58 50L58 52L59 52L59 53L60 53L60 52L61 52L61 53L66 53L66 52L65 52L65 50L64 50L64 49L65 49L65 48L64 48L64 49L61 49L61 48L60 48L60 47L61 47L61 46L62 46L62 48L63 48L63 47L64 47L64 45L63 45L63 46L62 46L62 45ZM2 47L2 48L3 48L3 47ZM50 47L50 48L54 48L54 49L56 49L56 48L55 48L55 47ZM45 48L45 49L46 49L46 48ZM59 48L59 49L58 49L58 50L59 50L59 52L60 52L60 51L61 51L61 52L62 52L62 51L61 51L61 50L59 50L59 49L60 49L60 48ZM77 48L77 49L78 49L78 50L77 50L77 51L78 51L78 52L77 52L77 54L76 54L76 53L75 53L75 54L76 54L76 55L77 55L77 54L78 54L78 55L79 55L79 54L80 54L80 53L78 53L78 52L80 52L80 51L79 51L79 48ZM5 49L5 52L8 52L8 49ZM16 49L16 50L13 50L13 51L14 51L14 52L17 52L17 51L18 51L18 50L19 50L19 49ZM25 49L25 52L28 52L28 49ZM49 49L49 52L52 52L52 49ZM68 49L68 50L69 50L69 49ZM73 49L73 52L76 52L76 49ZM6 50L6 51L7 51L7 50ZM16 50L16 51L17 51L17 50ZM26 50L26 51L27 51L27 50ZM42 50L42 51L43 51L43 50ZM50 50L50 51L51 51L51 50ZM53 50L53 51L54 51L54 50ZM55 50L55 51L56 51L56 50ZM74 50L74 51L75 51L75 50ZM63 51L63 52L64 52L64 51ZM55 52L55 55L54 55L54 56L55 56L55 55L56 55L56 59L57 59L57 58L59 58L59 56L57 56L57 55L56 55L56 53L57 53L57 52ZM13 53L13 54L14 54L14 53ZM30 53L30 54L31 54L31 55L32 55L32 54L31 54L31 53ZM6 54L6 55L5 55L5 57L7 57L7 56L6 56L6 55L7 55L7 54ZM25 54L25 56L26 56L26 54ZM35 54L35 55L36 55L36 56L35 56L35 57L37 57L37 55L36 55L36 54ZM38 54L38 55L39 55L39 54ZM43 54L43 55L44 55L44 54ZM49 55L49 56L50 56L50 55ZM62 55L62 56L63 56L63 55ZM9 56L9 57L10 57L10 56ZM16 56L16 58L17 58L17 59L18 59L18 58L19 58L19 57L18 57L18 58L17 58L17 56ZM28 56L28 57L30 57L30 56ZM68 56L68 57L67 57L67 58L68 58L68 59L71 59L71 58L73 58L73 57L71 57L71 56L70 56L70 57L69 57L69 56ZM33 57L33 58L32 58L32 59L31 59L31 60L30 60L30 61L31 61L31 62L30 62L30 63L29 63L29 64L28 64L28 65L29 65L29 64L30 64L30 63L31 63L31 64L32 64L32 63L33 63L33 62L32 62L32 61L31 61L31 60L32 60L32 59L33 59L33 58L34 58L34 59L36 59L36 60L35 60L35 61L34 61L34 60L33 60L33 61L34 61L34 62L35 62L35 61L38 61L38 62L39 62L39 65L40 65L40 66L41 66L41 67L42 67L42 65L41 65L41 64L40 64L40 62L42 62L42 63L43 63L43 65L44 65L44 66L43 66L43 67L46 67L46 63L45 63L45 64L44 64L44 63L43 63L43 62L42 62L42 61L43 61L43 60L42 60L42 61L41 61L41 59L39 59L39 58L34 58L34 57ZM68 57L68 58L69 58L69 57ZM70 57L70 58L71 58L71 57ZM77 58L77 59L78 59L78 58ZM1 59L1 60L2 60L2 61L3 61L3 62L2 62L2 63L3 63L3 62L4 62L4 64L5 64L5 63L6 63L6 64L7 64L7 63L6 63L6 62L7 62L7 61L6 61L6 60L5 60L5 59L4 59L4 61L3 61L3 59ZM11 59L11 60L12 60L12 59ZM37 59L37 60L38 60L38 59ZM57 60L57 62L58 62L58 60ZM62 60L62 62L63 62L63 64L62 64L62 66L63 66L63 65L64 65L64 64L65 64L65 63L64 63L64 61L63 61L63 60ZM76 60L76 61L74 61L74 62L75 62L75 63L76 63L76 62L78 62L78 61L77 61L77 60ZM4 61L4 62L6 62L6 61ZM11 61L11 62L12 62L12 63L13 63L13 61ZM24 61L24 62L25 62L25 61ZM39 61L39 62L40 62L40 61ZM49 61L49 62L50 62L50 61ZM34 63L34 65L33 65L33 66L34 66L34 65L35 65L35 63ZM67 63L67 65L69 65L69 64L68 64L68 63ZM52 64L52 65L53 65L53 64ZM76 65L76 66L77 66L77 65ZM0 66L0 69L1 69L1 73L4 73L4 72L2 72L2 71L4 71L4 70L3 70L3 69L5 69L5 70L6 70L6 71L5 71L5 72L6 72L6 73L8 73L8 76L9 76L9 77L8 77L8 78L11 78L11 77L13 77L13 76L12 76L12 75L14 75L14 78L16 78L16 79L17 79L17 80L16 80L16 81L17 81L17 80L19 80L19 79L21 79L21 81L22 81L22 80L23 80L23 76L22 76L22 77L21 77L21 78L20 78L20 77L19 77L19 78L18 78L18 76L17 76L17 74L18 74L18 73L17 73L17 74L16 74L16 75L15 75L15 73L14 73L14 69L13 69L13 73L12 73L12 71L11 71L11 70L10 70L10 71L7 71L7 70L8 70L8 69L10 69L10 68L5 68L5 67L4 67L4 68L3 68L3 67L1 67L1 66ZM73 66L73 67L74 67L74 66ZM79 66L79 67L80 67L80 66ZM36 67L36 68L37 68L37 67ZM71 67L71 71L72 71L72 72L71 72L71 74L72 74L72 72L77 72L77 73L78 73L78 72L77 72L77 71L76 71L76 70L75 70L75 68L76 68L76 67L75 67L75 68L73 68L73 69L72 69L72 67ZM2 68L2 69L3 69L3 68ZM11 68L11 69L12 69L12 68ZM41 68L41 69L42 69L42 70L43 70L43 71L44 71L44 69L43 69L43 68ZM62 68L62 69L63 69L63 68ZM78 68L78 70L79 70L79 69L80 69L80 68ZM6 69L6 70L7 70L7 69ZM46 69L46 70L48 70L48 69ZM73 69L73 71L75 71L75 70L74 70L74 69ZM58 70L58 71L59 71L59 70ZM64 70L64 71L65 71L65 70ZM67 70L67 71L66 71L66 72L68 72L68 70ZM6 71L6 72L7 72L7 71ZM17 71L17 72L18 72L18 71ZM36 71L36 72L35 72L35 73L36 73L36 74L34 74L34 75L35 75L35 76L36 76L36 77L37 77L37 75L36 75L36 74L37 74L37 72L38 72L38 71ZM8 72L8 73L9 73L9 74L10 74L10 75L12 75L12 73L11 73L11 72L10 72L10 73L9 73L9 72ZM29 72L29 73L30 73L30 72ZM32 72L32 73L33 73L33 72ZM45 72L45 73L47 73L47 72ZM80 72L80 73L81 73L81 72ZM25 73L25 76L28 76L28 73ZM49 73L49 76L52 76L52 73ZM73 73L73 76L76 76L76 73ZM26 74L26 75L27 75L27 74ZM29 74L29 76L30 76L30 74ZM50 74L50 75L51 75L51 74ZM74 74L74 75L75 75L75 74ZM31 75L31 76L33 76L33 77L30 77L30 79L31 79L31 80L34 80L34 79L33 79L33 78L34 78L34 76L33 76L33 75ZM16 76L16 77L17 77L17 76ZM27 77L27 78L29 78L29 77ZM12 78L12 79L13 79L13 78ZM21 78L21 79L22 79L22 78ZM71 78L71 79L72 79L72 80L73 80L73 79L72 79L72 78ZM8 79L8 80L9 80L9 81L12 81L12 80L11 80L11 79L10 79L10 80L9 80L9 79ZM36 79L36 80L37 80L37 79ZM47 79L47 80L48 80L48 79ZM14 80L14 81L15 81L15 80ZM38 80L38 81L39 81L39 80ZM61 80L61 81L62 81L62 80ZM76 80L76 81L77 81L77 80ZM0 0L0 7L7 7L7 0ZM1 1L1 6L6 6L6 1ZM2 2L2 5L5 5L5 2ZM74 0L74 7L81 7L81 0ZM75 1L75 6L80 6L80 1ZM76 2L76 5L79 5L79 2ZM0 74L0 81L7 81L7 74ZM1 75L1 80L6 80L6 75ZM2 76L2 79L5 79L5 76Z" fill="#000000"/></g></g></svg>
