<?xml version="1.0" encoding="UTF-8"?>
<svg xmlns="http://www.w3.org/2000/svg" version="1.1" width="400" height="400" viewBox="0 0 400 400"><rect x="0" y="0" width="400" height="400" fill="#fefefe"/><g transform="scale(4.706)"><g transform="translate(4,4)"><path fill-rule="evenodd" d="M10 0L10 1L11 1L11 2L10 2L10 4L9 4L9 3L8 3L8 5L10 5L10 4L12 4L12 7L11 7L11 6L10 6L10 7L11 7L11 8L9 8L9 6L8 6L8 9L7 9L7 8L3 8L3 9L2 9L2 8L1 8L1 9L0 9L0 10L1 10L1 11L0 11L0 13L1 13L1 14L0 14L0 16L2 16L2 15L3 15L3 19L2 19L2 18L1 18L1 17L0 17L0 19L1 19L1 20L0 20L0 21L1 21L1 22L0 22L0 23L1 23L1 25L2 25L2 24L3 24L3 28L2 28L2 31L1 31L1 28L0 28L0 32L2 32L2 33L0 33L0 34L2 34L2 35L1 35L1 36L0 36L0 39L1 39L1 40L3 40L3 41L0 41L0 43L1 43L1 44L3 44L3 45L0 45L0 50L1 50L1 49L3 49L3 48L1 48L1 46L3 46L3 47L4 47L4 50L3 50L3 51L0 51L0 52L3 52L3 53L2 53L2 54L1 54L1 53L0 53L0 54L1 54L1 55L2 55L2 54L3 54L3 56L5 56L5 57L3 57L3 58L6 58L6 59L8 59L8 60L9 60L9 62L10 62L10 63L9 63L9 64L10 64L10 65L8 65L8 63L7 63L7 62L8 62L8 61L7 61L7 60L3 60L3 59L2 59L2 58L1 58L1 57L2 57L2 56L1 56L1 57L0 57L0 58L1 58L1 59L0 59L0 61L1 61L1 62L0 62L0 66L1 66L1 67L2 67L2 66L3 66L3 65L2 65L2 66L1 66L1 62L2 62L2 64L3 64L3 62L4 62L4 61L7 61L7 62L6 62L6 63L4 63L4 64L5 64L5 65L4 65L4 68L1 68L1 69L5 69L5 67L8 67L8 66L9 66L9 68L10 68L10 69L8 69L8 70L9 70L9 71L8 71L8 74L9 74L9 75L8 75L8 76L9 76L9 77L12 77L12 74L13 74L13 75L14 75L14 77L21 77L21 75L22 75L22 74L25 74L25 73L26 73L26 75L24 75L24 77L25 77L25 76L26 76L26 75L27 75L27 73L28 73L28 75L31 75L31 74L32 74L32 73L34 73L34 76L33 76L33 75L32 75L32 76L31 76L31 77L32 77L32 76L33 76L33 77L34 77L34 76L35 76L35 74L36 74L36 75L40 75L40 76L39 76L39 77L41 77L41 76L42 76L42 77L45 77L45 76L46 76L46 77L48 77L48 76L47 76L47 75L49 75L49 76L50 76L50 77L53 77L53 75L54 75L54 74L55 74L55 76L56 76L56 77L57 77L57 75L59 75L59 76L58 76L58 77L59 77L59 76L60 76L60 77L62 77L62 76L63 76L63 77L65 77L65 75L66 75L66 76L67 76L67 74L68 74L68 73L69 73L69 74L70 74L70 76L68 76L68 77L74 77L74 75L75 75L75 76L76 76L76 75L77 75L77 74L76 74L76 73L77 73L77 72L76 72L76 73L75 73L75 72L73 72L73 71L74 71L74 70L77 70L77 65L76 65L76 67L75 67L75 68L73 68L73 67L74 67L74 65L73 65L73 64L76 64L76 63L77 63L77 62L76 62L76 63L75 63L75 61L74 61L74 60L73 60L73 59L72 59L72 58L73 58L73 57L72 57L72 58L71 58L71 60L68 60L68 59L70 59L70 58L69 58L69 57L71 57L71 56L73 56L73 55L74 55L74 56L75 56L75 55L76 55L76 59L77 59L77 54L76 54L76 51L77 51L77 50L76 50L76 49L77 49L77 48L76 48L76 49L75 49L75 48L74 48L74 47L73 47L73 46L76 46L76 47L77 47L77 41L76 41L76 42L75 42L75 44L74 44L74 43L73 43L73 42L72 42L72 43L73 43L73 44L72 44L72 45L73 45L73 46L71 46L71 45L70 45L70 44L65 44L65 43L69 43L69 42L68 42L68 39L66 39L66 40L67 40L67 41L66 41L66 42L64 42L64 41L62 41L62 40L61 40L61 39L64 39L64 38L65 38L65 36L66 36L66 35L67 35L67 34L69 34L69 35L68 35L68 36L69 36L69 37L67 37L67 38L69 38L69 39L70 39L70 40L69 40L69 41L70 41L70 42L71 42L71 40L73 40L73 41L75 41L75 40L76 40L76 39L77 39L77 38L76 38L76 39L74 39L74 38L75 38L75 37L74 37L74 36L73 36L73 38L72 38L72 35L74 35L74 34L75 34L75 36L76 36L76 37L77 37L77 35L76 35L76 34L77 34L77 28L73 28L73 27L75 27L75 25L77 25L77 24L75 24L75 23L76 23L76 22L75 22L75 21L74 21L74 22L75 22L75 23L73 23L73 21L72 21L72 20L73 20L73 19L74 19L74 20L75 20L75 19L74 19L74 15L73 15L73 17L72 17L72 15L71 15L71 17L70 17L70 18L69 18L69 16L70 16L70 14L71 14L71 13L72 13L72 14L73 14L73 13L72 13L72 12L70 12L70 13L69 13L69 12L68 12L68 13L69 13L69 15L68 15L68 16L67 16L67 15L66 15L66 17L64 17L64 16L65 16L65 12L66 12L66 13L67 13L67 12L66 12L66 11L65 11L65 10L67 10L67 9L68 9L68 10L69 10L69 11L70 11L70 9L71 9L71 8L69 8L69 9L68 9L68 7L69 7L69 6L68 6L68 7L67 7L67 5L69 5L69 1L68 1L68 4L65 4L65 3L66 3L66 2L67 2L67 1L64 1L64 0L62 0L62 1L60 1L60 3L61 3L61 4L62 4L62 5L61 5L61 6L60 6L60 5L59 5L59 4L58 4L58 3L59 3L59 1L58 1L58 0L56 0L56 1L54 1L54 0L53 0L53 2L52 2L52 1L51 1L51 0L50 0L50 1L49 1L49 0L48 0L48 1L47 1L47 0L45 0L45 1L44 1L44 0L41 0L41 2L40 2L40 1L39 1L39 2L40 2L40 3L39 3L39 4L40 4L40 5L38 5L38 3L37 3L37 1L36 1L36 0L28 0L28 1L27 1L27 0L26 0L26 1L23 1L23 0L21 0L21 2L22 2L22 3L20 3L20 0L15 0L15 1L14 1L14 0L12 0L12 1L11 1L11 0ZM8 1L8 2L9 2L9 1ZM13 1L13 2L14 2L14 3L12 3L12 4L13 4L13 7L12 7L12 8L11 8L11 9L9 9L9 10L11 10L11 9L12 9L12 8L13 8L13 9L15 9L15 10L12 10L12 11L15 11L15 12L14 12L14 13L12 13L12 12L11 12L11 14L9 14L9 15L8 15L8 14L7 14L7 13L8 13L8 12L9 12L9 11L8 11L8 12L7 12L7 11L5 11L5 13L6 13L6 14L5 14L5 15L6 15L6 16L5 16L5 17L4 17L4 18L7 18L7 17L8 17L8 16L9 16L9 15L11 15L11 16L10 16L10 17L9 17L9 18L8 18L8 20L9 20L9 21L10 21L10 22L11 22L11 24L10 24L10 25L9 25L9 26L10 26L10 27L9 27L9 28L10 28L10 27L12 27L12 28L11 28L11 29L13 29L13 31L11 31L11 32L13 32L13 31L14 31L14 36L13 36L13 37L14 37L14 38L13 38L13 41L12 41L12 40L11 40L11 39L12 39L12 38L11 38L11 37L12 37L12 35L11 35L11 37L8 37L8 36L9 36L9 35L10 35L10 34L9 34L9 35L6 35L6 36L4 36L4 35L5 35L5 32L7 32L7 33L6 33L6 34L8 34L8 33L10 33L10 32L7 32L7 31L5 31L5 30L4 30L4 32L3 32L3 34L4 34L4 35L2 35L2 36L3 36L3 37L1 37L1 39L3 39L3 40L7 40L7 41L6 41L6 42L5 42L5 41L3 41L3 44L4 44L4 46L5 46L5 45L6 45L6 46L8 46L8 43L9 43L9 44L10 44L10 45L9 45L9 46L10 46L10 48L9 48L9 49L10 49L10 51L8 51L8 53L6 53L6 52L7 52L7 51L4 51L4 53L3 53L3 54L5 54L5 56L7 56L7 57L6 57L6 58L7 58L7 57L9 57L9 58L8 58L8 59L10 59L10 60L11 60L11 61L10 61L10 62L11 62L11 63L10 63L10 64L11 64L11 63L12 63L12 66L11 66L11 65L10 65L10 66L11 66L11 67L10 67L10 68L11 68L11 69L14 69L14 68L15 68L15 70L16 70L16 67L17 67L17 65L20 65L20 64L21 64L21 63L20 63L20 64L18 64L18 63L15 63L15 61L14 61L14 60L13 60L13 59L10 59L10 57L9 57L9 56L7 56L7 55L9 55L9 54L11 54L11 55L12 55L12 52L13 52L13 53L14 53L14 52L15 52L15 54L14 54L14 55L13 55L13 56L15 56L15 55L16 55L16 57L15 57L15 59L16 59L16 60L17 60L17 61L20 61L20 59L21 59L21 57L24 57L24 58L22 58L22 59L23 59L23 60L25 60L25 59L26 59L26 60L27 60L27 62L25 62L25 61L21 61L21 62L23 62L23 63L22 63L22 64L23 64L23 63L24 63L24 64L25 64L25 65L26 65L26 64L29 64L29 65L32 65L32 64L31 64L31 63L33 63L33 61L32 61L32 60L33 60L33 58L34 58L34 57L33 57L33 56L31 56L31 55L32 55L32 53L31 53L31 52L32 52L32 51L33 51L33 49L34 49L34 52L33 52L33 53L34 53L34 52L36 52L36 51L37 51L37 52L38 52L38 53L37 53L37 54L38 54L38 53L39 53L39 56L40 56L40 57L41 57L41 58L40 58L40 59L39 59L39 58L38 58L38 57L37 57L37 59L36 59L36 58L35 58L35 59L34 59L34 60L36 60L36 61L38 61L38 63L37 63L37 64L42 64L42 65L40 65L40 66L39 66L39 65L37 65L37 66L38 66L38 67L39 67L39 68L40 68L40 70L41 70L41 71L42 71L42 72L40 72L40 71L39 71L39 70L38 70L38 68L37 68L37 67L36 67L36 66L34 66L34 67L33 67L33 66L32 66L32 67L31 67L31 69L32 69L32 67L33 67L33 68L34 68L34 69L33 69L33 70L32 70L32 71L31 71L31 70L30 70L30 71L29 71L29 73L30 73L30 74L31 74L31 73L30 73L30 72L32 72L32 71L33 71L33 72L34 72L34 73L35 73L35 71L36 71L36 70L35 70L35 68L37 68L37 70L38 70L38 71L39 71L39 72L36 72L36 74L37 74L37 73L39 73L39 72L40 72L40 73L41 73L41 74L42 74L42 76L44 76L44 75L45 75L45 73L43 73L43 74L42 74L42 72L43 72L43 71L44 71L44 72L45 72L45 71L44 71L44 70L46 70L46 69L45 69L45 68L47 68L47 66L48 66L48 65L45 65L45 64L44 64L44 63L45 63L45 60L46 60L46 63L48 63L48 62L49 62L49 61L48 61L48 62L47 62L47 57L49 57L49 58L48 58L48 60L50 60L50 63L49 63L49 68L50 68L50 67L51 67L51 66L54 66L54 67L53 67L53 68L54 68L54 69L56 69L56 67L55 67L55 66L54 66L54 63L55 63L55 62L56 62L56 61L55 61L55 59L56 59L56 60L57 60L57 61L58 61L58 62L57 62L57 63L56 63L56 64L55 64L55 65L56 65L56 66L57 66L57 64L62 64L62 65L59 65L59 66L58 66L58 67L57 67L57 69L58 69L58 70L57 70L57 71L56 71L56 70L54 70L54 71L56 71L56 72L57 72L57 73L58 73L58 74L59 74L59 75L60 75L60 76L62 76L62 75L63 75L63 76L64 76L64 75L63 75L63 73L62 73L62 68L64 68L64 71L66 71L66 69L65 69L65 68L68 68L68 67L65 67L65 65L68 65L68 66L71 66L71 68L72 68L72 67L73 67L73 66L71 66L71 64L72 64L72 63L69 63L69 62L70 62L70 61L69 61L69 62L68 62L68 61L67 61L67 62L68 62L68 63L69 63L69 64L70 64L70 65L68 65L68 64L66 64L66 63L65 63L65 62L66 62L66 60L65 60L65 62L64 62L64 61L63 61L63 60L62 60L62 59L63 59L63 57L62 57L62 56L61 56L61 54L62 54L62 55L63 55L63 56L64 56L64 58L65 58L65 59L66 59L66 58L67 58L67 59L68 59L68 58L67 58L67 55L68 55L68 57L69 57L69 56L70 56L70 55L68 55L68 53L69 53L69 54L72 54L72 55L73 55L73 52L74 52L74 55L75 55L75 52L74 52L74 48L73 48L73 52L72 52L72 51L69 51L69 52L67 52L67 51L68 51L68 50L67 50L67 51L65 51L65 50L66 50L66 49L67 49L67 48L68 48L68 47L67 47L67 48L65 48L65 47L66 47L66 45L65 45L65 46L64 46L64 48L62 48L62 47L63 47L63 46L62 46L62 44L61 44L61 43L63 43L63 45L64 45L64 43L63 43L63 42L62 42L62 41L61 41L61 42L60 42L60 41L59 41L59 40L60 40L60 38L62 38L62 37L63 37L63 36L65 36L65 34L67 34L67 33L65 33L65 32L66 32L66 31L65 31L65 30L67 30L67 32L68 32L68 30L69 30L69 32L70 32L70 33L69 33L69 34L70 34L70 33L72 33L72 34L74 34L74 33L75 33L75 34L76 34L76 33L75 33L75 32L76 32L76 31L73 31L73 32L70 32L70 31L72 31L72 30L73 30L73 29L71 29L71 30L70 30L70 29L67 29L67 28L68 28L68 27L67 27L67 28L66 28L66 27L65 27L65 26L66 26L66 24L63 24L63 23L61 23L61 24L60 24L60 23L59 23L59 22L58 22L58 19L57 19L57 18L58 18L58 17L57 17L57 16L59 16L59 15L60 15L60 14L61 14L61 13L64 13L64 12L65 12L65 11L64 11L64 12L62 12L62 11L63 11L63 10L62 10L62 11L60 11L60 14L59 14L59 10L61 10L61 9L62 9L62 8L61 8L61 7L62 7L62 6L63 6L63 9L64 9L64 10L65 10L65 9L67 9L67 8L66 8L66 6L65 6L65 5L64 5L64 4L63 4L63 5L62 5L62 6L61 6L61 7L60 7L60 6L59 6L59 7L60 7L60 9L58 9L58 6L57 6L57 2L58 2L58 1L56 1L56 2L55 2L55 3L56 3L56 5L55 5L55 8L54 8L54 5L51 5L51 8L52 8L52 9L53 9L53 8L54 8L54 12L53 12L53 11L51 11L51 10L48 10L48 11L47 11L47 9L46 9L46 5L45 5L45 4L44 4L44 3L45 3L45 2L44 2L44 1L43 1L43 2L44 2L44 3L42 3L42 2L41 2L41 3L40 3L40 4L44 4L44 5L43 5L43 8L42 8L42 6L41 6L41 5L40 5L40 6L39 6L39 7L38 7L38 5L37 5L37 8L36 8L36 6L35 6L35 5L36 5L36 3L35 3L35 4L34 4L34 3L33 3L33 1L30 1L30 2L31 2L31 3L33 3L33 7L32 7L32 6L31 6L31 7L32 7L32 8L31 8L31 9L30 9L30 11L29 11L29 9L26 9L26 10L25 10L25 9L24 9L24 10L23 10L23 8L22 8L22 5L24 5L24 4L26 4L26 3L27 3L27 4L28 4L28 3L27 3L27 2L23 2L23 3L22 3L22 4L20 4L20 3L19 3L19 2L18 2L18 1L17 1L17 2L16 2L16 3L19 3L19 5L18 5L18 6L17 6L17 5L15 5L15 7L14 7L14 4L15 4L15 2L14 2L14 1ZM34 1L34 2L36 2L36 1ZM48 1L48 2L49 2L49 1ZM50 1L50 4L51 4L51 3L52 3L52 2L51 2L51 1ZM63 1L63 2L64 2L64 3L65 3L65 2L64 2L64 1ZM46 2L46 3L47 3L47 4L49 4L49 3L47 3L47 2ZM53 2L53 3L54 3L54 2ZM23 3L23 4L24 4L24 3ZM29 3L29 7L30 7L30 5L32 5L32 4L30 4L30 3ZM20 5L20 7L19 7L19 6L18 6L18 7L19 7L19 8L18 8L18 9L17 9L17 6L16 6L16 7L15 7L15 8L16 8L16 10L17 10L17 11L16 11L16 13L15 13L15 14L14 14L14 15L13 15L13 14L11 14L11 15L12 15L12 16L11 16L11 18L9 18L9 20L11 20L11 21L12 21L12 22L14 22L14 21L13 21L13 20L12 20L12 16L13 16L13 17L14 17L14 18L16 18L16 17L14 17L14 15L15 15L15 16L17 16L17 15L18 15L18 14L22 14L22 15L23 15L23 14L25 14L25 15L26 15L26 14L27 14L27 16L23 16L23 19L24 19L24 18L25 18L25 19L26 19L26 20L27 20L27 18L25 18L25 17L28 17L28 19L29 19L29 16L28 16L28 15L30 15L30 17L31 17L31 18L30 18L30 20L34 20L34 19L35 19L35 18L36 18L36 17L37 17L37 18L38 18L38 19L39 19L39 20L40 20L40 22L42 22L42 24L43 24L43 25L42 25L42 26L41 26L41 24L40 24L40 27L39 27L39 25L38 25L38 27L35 27L35 28L34 28L34 29L35 29L35 31L34 31L34 30L33 30L33 29L32 29L32 30L33 30L33 31L31 31L31 32L30 32L30 33L28 33L28 32L29 32L29 31L30 31L30 30L31 30L31 28L29 28L29 25L30 25L30 24L31 24L31 26L32 26L32 27L33 27L33 26L32 26L32 25L36 25L36 26L37 26L37 25L36 25L36 24L38 24L38 21L37 21L37 19L36 19L36 20L35 20L35 22L34 22L34 21L32 21L32 24L31 24L31 21L25 21L25 20L23 20L23 22L21 22L21 23L20 23L20 24L19 24L19 25L17 25L17 26L16 26L16 28L15 28L15 29L16 29L16 28L17 28L17 31L18 31L18 30L19 30L19 32L18 32L18 33L17 33L17 34L15 34L15 35L17 35L17 36L18 36L18 37L19 37L19 35L20 35L20 38L17 38L17 37L16 37L16 36L14 36L14 37L15 37L15 38L14 38L14 41L15 41L15 44L16 44L16 41L15 41L15 40L18 40L18 41L17 41L17 43L19 43L19 44L18 44L18 45L19 45L19 44L20 44L20 43L21 43L21 44L25 44L25 45L24 45L24 46L22 46L22 45L21 45L21 46L20 46L20 47L19 47L19 46L18 46L18 47L16 47L16 49L13 49L13 48L15 48L15 45L14 45L14 44L13 44L13 42L11 42L11 41L10 41L10 42L9 42L9 43L10 43L10 44L11 44L11 43L12 43L12 44L13 44L13 45L12 45L12 47L13 47L13 48L11 48L11 51L10 51L10 53L11 53L11 51L13 51L13 50L14 50L14 51L15 51L15 50L16 50L16 49L17 49L17 48L18 48L18 47L19 47L19 49L18 49L18 51L16 51L16 53L17 53L17 54L16 54L16 55L18 55L18 56L19 56L19 54L21 54L21 55L20 55L20 56L22 56L22 55L24 55L24 57L25 57L25 56L26 56L26 57L27 57L27 58L28 58L28 55L27 55L27 56L26 56L26 55L25 55L25 54L23 54L23 52L22 52L22 51L23 51L23 49L24 49L24 51L26 51L26 52L25 52L25 53L26 53L26 52L27 52L27 53L28 53L28 54L29 54L29 57L30 57L30 58L29 58L29 59L27 59L27 60L29 60L29 61L28 61L28 62L29 62L29 63L31 63L31 62L32 62L32 61L31 61L31 62L30 62L30 60L31 60L31 59L32 59L32 58L31 58L31 57L30 57L30 54L31 54L31 53L28 53L28 51L30 51L30 52L31 52L31 51L30 51L30 50L31 50L31 46L29 46L29 45L33 45L33 46L32 46L32 47L36 47L36 45L37 45L37 47L38 47L38 45L40 45L40 46L43 46L43 49L42 49L42 50L44 50L44 49L45 49L45 51L43 51L43 52L42 52L42 51L41 51L41 53L40 53L40 55L41 55L41 56L42 56L42 57L43 57L43 60L44 60L44 59L46 59L46 57L47 57L47 56L49 56L49 57L50 57L50 58L49 58L49 59L50 59L50 60L51 60L51 64L50 64L50 66L51 66L51 65L52 65L52 62L53 62L53 63L54 63L54 62L55 62L55 61L54 61L54 62L53 62L53 61L52 61L52 60L54 60L54 56L55 56L55 55L56 55L56 57L55 57L55 58L56 58L56 59L58 59L58 60L59 60L59 59L61 59L61 58L59 58L59 56L60 56L60 57L61 57L61 56L60 56L60 54L59 54L59 53L58 53L58 55L59 55L59 56L58 56L58 57L57 57L57 54L56 54L56 52L57 52L57 51L56 51L56 50L57 50L57 48L55 48L55 46L56 46L56 47L61 47L61 46L60 46L60 45L61 45L61 44L60 44L60 45L58 45L58 46L56 46L56 45L55 45L55 43L58 43L58 44L59 44L59 43L60 43L60 42L56 42L56 41L57 41L57 39L56 39L56 38L55 38L55 36L56 36L56 35L55 35L55 34L56 34L56 33L57 33L57 35L58 35L58 37L59 37L59 38L58 38L58 40L59 40L59 38L60 38L60 35L62 35L62 36L63 36L63 35L64 35L64 32L65 32L65 31L64 31L64 29L63 29L63 31L64 31L64 32L62 32L62 30L58 30L58 31L60 31L60 33L59 33L59 32L58 32L58 33L57 33L57 31L56 31L56 30L57 30L57 27L58 27L58 29L60 29L60 28L59 28L59 27L58 27L58 26L60 26L60 27L62 27L62 28L61 28L61 29L62 29L62 28L63 28L63 27L64 27L64 28L65 28L65 27L64 27L64 25L63 25L63 24L62 24L62 25L61 25L61 26L60 26L60 24L59 24L59 23L58 23L58 24L59 24L59 25L58 25L58 26L55 26L55 25L56 25L56 24L55 24L55 25L53 25L53 26L54 26L54 29L53 29L53 30L52 30L52 28L51 28L51 27L52 27L52 25L51 25L51 23L52 23L52 24L54 24L54 23L55 23L55 22L56 22L56 23L57 23L57 22L56 22L56 21L57 21L57 19L56 19L56 17L55 17L55 15L56 15L56 14L57 14L57 15L59 15L59 14L58 14L58 13L56 13L56 14L55 14L55 12L56 12L56 11L58 11L58 10L57 10L57 9L56 9L56 8L57 8L57 6L56 6L56 8L55 8L55 10L56 10L56 11L55 11L55 12L54 12L54 14L53 14L53 12L51 12L51 13L49 13L49 12L46 12L46 13L48 13L48 14L49 14L49 15L50 15L50 16L48 16L48 15L47 15L47 14L45 14L45 15L44 15L44 14L42 14L42 12L41 12L41 11L43 11L43 13L45 13L45 12L44 12L44 11L46 11L46 9L45 9L45 6L44 6L44 8L43 8L43 10L42 10L42 9L41 9L41 10L40 10L40 8L41 8L41 6L40 6L40 7L39 7L39 9L38 9L38 8L37 8L37 9L36 9L36 10L37 10L37 9L38 9L38 10L40 10L40 13L39 13L39 14L37 14L37 13L38 13L38 12L39 12L39 11L38 11L38 12L37 12L37 11L36 11L36 14L35 14L35 12L34 12L34 10L35 10L35 9L34 9L34 10L33 10L33 8L34 8L34 7L35 7L35 6L34 6L34 7L33 7L33 8L32 8L32 9L31 9L31 10L32 10L32 12L29 12L29 11L26 11L26 12L27 12L27 13L25 13L25 11L23 11L23 13L21 13L21 12L22 12L22 11L21 11L21 10L20 10L20 9L21 9L21 8L20 8L20 7L21 7L21 5ZM25 5L25 8L28 8L28 5ZM47 5L47 8L50 8L50 5ZM23 6L23 7L24 7L24 6ZM26 6L26 7L27 7L27 6ZM48 6L48 7L49 7L49 6ZM52 6L52 8L53 8L53 6ZM64 6L64 7L65 7L65 6ZM13 7L13 8L14 8L14 7ZM19 8L19 9L20 9L20 8ZM64 8L64 9L65 9L65 8ZM72 8L72 10L71 10L71 11L73 11L73 12L74 12L74 14L76 14L76 15L75 15L75 16L76 16L76 15L77 15L77 14L76 14L76 13L77 13L77 12L76 12L76 8L75 8L75 9L74 9L74 8ZM1 9L1 10L2 10L2 11L1 11L1 13L4 13L4 12L3 12L3 11L4 11L4 9L3 9L3 10L2 10L2 9ZM5 9L5 10L7 10L7 9ZM44 9L44 10L45 10L45 9ZM18 10L18 11L20 11L20 10ZM73 10L73 11L74 11L74 12L75 12L75 13L76 13L76 12L75 12L75 10ZM6 12L6 13L7 13L7 12ZM17 12L17 13L18 13L18 12ZM33 12L33 14L32 14L32 15L31 15L31 14L30 14L30 15L31 15L31 17L32 17L32 16L34 16L34 17L33 17L33 19L34 19L34 18L35 18L35 17L36 17L36 15L37 15L37 14L36 14L36 15L35 15L35 16L34 16L34 15L33 15L33 14L34 14L34 12ZM27 13L27 14L28 14L28 13ZM1 14L1 15L2 15L2 14ZM6 14L6 15L7 15L7 14ZM41 14L41 15L39 15L39 16L38 16L38 18L39 18L39 19L41 19L41 18L43 18L43 17L44 17L44 18L47 18L47 19L45 19L45 20L44 20L44 19L43 19L43 20L42 20L42 22L43 22L43 24L50 24L50 23L51 23L51 22L50 22L50 23L48 23L48 22L49 22L49 21L50 21L50 20L49 20L49 19L48 19L48 18L49 18L49 17L47 17L47 16L46 16L46 15L45 15L45 17L44 17L44 16L43 16L43 15L42 15L42 14ZM62 14L62 15L61 15L61 16L62 16L62 18L60 18L60 17L59 17L59 18L60 18L60 19L59 19L59 21L60 21L60 22L63 22L63 21L62 21L62 20L61 20L61 19L63 19L63 20L64 20L64 19L63 19L63 16L64 16L64 15L63 15L63 14ZM41 15L41 16L39 16L39 18L41 18L41 16L42 16L42 17L43 17L43 16L42 16L42 15ZM52 15L52 16L51 16L51 17L50 17L50 19L51 19L51 20L52 20L52 22L54 22L54 21L56 21L56 19L55 19L55 20L54 20L54 18L53 18L53 17L54 17L54 15ZM6 16L6 17L7 17L7 16ZM18 16L18 17L17 17L17 18L21 18L21 17L22 17L22 16L21 16L21 17L19 17L19 16ZM67 17L67 19L68 19L68 20L67 20L67 22L66 22L66 23L67 23L67 24L70 24L70 23L71 23L71 24L72 24L72 23L71 23L71 22L72 22L72 21L70 21L70 20L72 20L72 19L70 19L70 20L69 20L69 18L68 18L68 17ZM71 17L71 18L72 18L72 17ZM75 17L75 18L77 18L77 17ZM51 18L51 19L52 19L52 20L53 20L53 21L54 21L54 20L53 20L53 19L52 19L52 18ZM65 18L65 20L66 20L66 18ZM3 19L3 20L2 20L2 21L3 21L3 20L4 20L4 21L5 21L5 24L7 24L7 23L8 23L8 22L7 22L7 21L6 21L6 20L7 20L7 19L6 19L6 20L4 20L4 19ZM16 19L16 20L15 20L15 21L17 21L17 22L16 22L16 23L14 23L14 24L13 24L13 23L12 23L12 25L11 25L11 26L12 26L12 25L14 25L14 24L15 24L15 25L16 25L16 24L18 24L18 21L20 21L20 19L19 19L19 20L17 20L17 19ZM21 19L21 20L22 20L22 19ZM47 19L47 20L48 20L48 21L49 21L49 20L48 20L48 19ZM76 19L76 21L77 21L77 19ZM43 20L43 22L44 22L44 23L45 23L45 22L44 22L44 20ZM60 20L60 21L61 21L61 20ZM24 21L24 23L22 23L22 24L20 24L20 25L19 25L19 26L18 26L18 27L23 27L23 28L22 28L22 29L23 29L23 28L24 28L24 26L23 26L23 25L24 25L24 23L26 23L26 22L25 22L25 21ZM64 21L64 23L65 23L65 21ZM69 21L69 22L70 22L70 21ZM1 22L1 23L2 23L2 22ZM3 22L3 24L4 24L4 22ZM6 22L6 23L7 23L7 22ZM28 22L28 24L29 24L29 23L30 23L30 22ZM33 22L33 24L34 24L34 22ZM35 22L35 24L36 24L36 23L37 23L37 22ZM67 22L67 23L68 23L68 22ZM74 24L74 25L73 25L73 26L74 26L74 25L75 25L75 24ZM5 25L5 28L8 28L8 25ZM20 25L20 26L21 26L21 25ZM25 25L25 28L28 28L28 25ZM43 25L43 26L44 26L44 27L41 27L41 29L40 29L40 28L39 28L39 27L38 27L38 30L36 30L36 31L37 31L37 34L36 34L36 33L34 33L34 32L33 32L33 34L34 34L34 35L33 35L33 36L34 36L34 35L35 35L35 34L36 34L36 35L37 35L37 34L40 34L40 35L41 35L41 33L40 33L40 32L39 32L39 31L42 31L42 32L43 32L43 31L44 31L44 30L43 30L43 29L44 29L44 28L45 28L45 27L46 27L46 26L45 26L45 25ZM47 25L47 28L50 28L50 25ZM62 25L62 27L63 27L63 25ZM69 25L69 28L72 28L72 25ZM1 26L1 27L2 27L2 26ZM6 26L6 27L7 27L7 26ZM26 26L26 27L27 27L27 26ZM48 26L48 27L49 27L49 26ZM70 26L70 27L71 27L71 26ZM76 26L76 27L77 27L77 26ZM55 27L55 28L56 28L56 27ZM13 28L13 29L14 29L14 28ZM18 28L18 29L19 29L19 30L20 30L20 31L21 31L21 32L19 32L19 33L21 33L21 34L22 34L22 35L21 35L21 37L22 37L22 38L21 38L21 39L18 39L18 40L19 40L19 41L18 41L18 42L19 42L19 43L20 43L20 42L21 42L21 40L22 40L22 43L23 43L23 42L24 42L24 43L25 43L25 44L26 44L26 46L27 46L27 45L28 45L28 44L29 44L29 42L30 42L30 43L31 43L31 44L34 44L34 45L36 45L36 44L39 44L39 43L40 43L40 45L41 45L41 43L42 43L42 44L43 44L43 46L45 46L45 45L44 45L44 44L46 44L46 42L45 42L45 43L44 43L44 44L43 44L43 43L42 43L42 42L43 42L43 39L44 39L44 40L46 40L46 41L48 41L48 42L49 42L49 41L50 41L50 42L51 42L51 41L50 41L50 40L51 40L51 36L50 36L50 35L51 35L51 34L49 34L49 32L50 32L50 33L51 33L51 32L52 32L52 35L53 35L53 32L54 32L54 30L53 30L53 32L52 32L52 31L49 31L49 30L48 30L48 29L45 29L45 31L46 31L46 30L48 30L48 31L49 31L49 32L48 32L48 33L47 33L47 32L46 32L46 33L47 33L47 34L46 34L46 35L47 35L47 34L48 34L48 36L47 36L47 37L46 37L46 38L45 38L45 37L44 37L44 38L42 38L42 40L40 40L40 41L37 41L37 40L36 40L36 39L35 39L35 38L36 38L36 36L35 36L35 38L33 38L33 37L32 37L32 36L31 36L31 35L32 35L32 33L30 33L30 34L29 34L29 35L30 35L30 36L31 36L31 37L30 37L30 38L29 38L29 36L28 36L28 37L27 37L27 36L26 36L26 35L24 35L24 36L23 36L23 37L22 37L22 35L23 35L23 34L25 34L25 33L26 33L26 32L27 32L27 30L30 30L30 29L26 29L26 30L25 30L25 31L26 31L26 32L25 32L25 33L23 33L23 34L22 34L22 33L21 33L21 32L24 32L24 30L23 30L23 31L21 31L21 29L20 29L20 28ZM42 28L42 29L43 29L43 28ZM6 29L6 30L8 30L8 31L10 31L10 30L9 30L9 29ZM39 29L39 30L40 30L40 29ZM74 29L74 30L76 30L76 29ZM14 30L14 31L15 31L15 30ZM42 30L42 31L43 31L43 30ZM55 31L55 32L56 32L56 31ZM38 32L38 33L39 33L39 32ZM44 32L44 34L43 34L43 35L42 35L42 36L37 36L37 37L38 37L38 38L37 38L37 39L38 39L38 38L39 38L39 37L42 37L42 36L43 36L43 35L44 35L44 36L45 36L45 35L44 35L44 34L45 34L45 32ZM11 33L11 34L13 34L13 33ZM27 33L27 35L28 35L28 33ZM54 33L54 34L55 34L55 33ZM61 33L61 34L62 34L62 33ZM30 34L30 35L31 35L31 34ZM70 35L70 36L71 36L71 35ZM6 36L6 37L5 37L5 38L4 38L4 37L3 37L3 38L4 38L4 39L7 39L7 38L6 38L6 37L7 37L7 36ZM24 36L24 38L23 38L23 39L22 39L22 40L23 40L23 39L24 39L24 40L26 40L26 41L24 41L24 42L25 42L25 43L27 43L27 44L28 44L28 42L29 42L29 40L30 40L30 39L29 39L29 40L28 40L28 38L27 38L27 37L26 37L26 38L25 38L25 36ZM48 36L48 37L50 37L50 36ZM53 36L53 37L52 37L52 38L54 38L54 36ZM31 37L31 39L32 39L32 40L33 40L33 41L30 41L30 42L32 42L32 43L34 43L34 42L35 42L35 44L36 44L36 40L35 40L35 39L33 39L33 38L32 38L32 37ZM69 37L69 38L70 38L70 39L72 39L72 38L71 38L71 37ZM9 38L9 39L8 39L8 41L9 41L9 39L11 39L11 38ZM15 38L15 39L17 39L17 38ZM40 38L40 39L41 39L41 38ZM46 38L46 39L47 39L47 40L49 40L49 38L48 38L48 39L47 39L47 38ZM26 39L26 40L27 40L27 39ZM53 39L53 40L52 40L52 41L53 41L53 42L52 42L52 43L51 43L51 44L50 44L50 46L51 46L51 44L52 44L52 47L51 47L51 48L52 48L52 47L54 47L54 45L53 45L53 44L54 44L54 43L55 43L55 42L54 42L54 41L56 41L56 40L54 40L54 39ZM73 39L73 40L74 40L74 39ZM53 40L53 41L54 41L54 40ZM19 41L19 42L20 42L20 41ZM33 41L33 42L34 42L34 41ZM40 41L40 43L41 43L41 42L42 42L42 41ZM6 42L6 43L8 43L8 42ZM4 43L4 44L5 44L5 43ZM47 43L47 44L49 44L49 43ZM52 43L52 44L53 44L53 43ZM6 44L6 45L7 45L7 44ZM13 45L13 46L14 46L14 45ZM47 45L47 46L48 46L48 45ZM67 45L67 46L68 46L68 45ZM69 45L69 46L70 46L70 45ZM21 46L21 47L20 47L20 50L19 50L19 52L18 52L18 54L19 54L19 52L20 52L20 53L21 53L21 54L22 54L22 52L21 52L21 51L22 51L22 50L21 50L21 48L22 48L22 46ZM5 47L5 50L8 50L8 47ZM23 47L23 48L24 48L24 47ZM25 47L25 50L28 50L28 47ZM29 47L29 48L30 48L30 47ZM44 47L44 48L45 48L45 49L46 49L46 48L45 48L45 47ZM47 47L47 50L50 50L50 47ZM69 47L69 50L72 50L72 47ZM6 48L6 49L7 49L7 48ZM26 48L26 49L27 49L27 48ZM32 48L32 49L33 49L33 48ZM34 48L34 49L35 49L35 50L36 50L36 49L38 49L38 50L37 50L37 51L38 51L38 52L39 52L39 49L40 49L40 50L41 50L41 49L40 49L40 48ZM48 48L48 49L49 49L49 48ZM53 48L53 49L51 49L51 50L53 50L53 52L52 52L52 53L53 53L53 55L52 55L52 57L53 57L53 56L54 56L54 54L55 54L55 53L54 53L54 50L56 50L56 49L54 49L54 48ZM58 48L58 49L59 49L59 50L58 50L58 52L59 52L59 50L60 50L60 49L62 49L62 52L61 52L61 51L60 51L60 52L61 52L61 53L62 53L62 54L63 54L63 55L64 55L64 56L65 56L65 55L67 55L67 53L65 53L65 51L64 51L64 50L65 50L65 48L64 48L64 50L63 50L63 49L62 49L62 48L60 48L60 49L59 49L59 48ZM70 48L70 49L71 49L71 48ZM75 50L75 51L76 51L76 50ZM45 51L45 52L46 52L46 54L48 54L48 55L50 55L50 53L51 53L51 52L50 52L50 51ZM63 51L63 52L62 52L62 53L64 53L64 54L65 54L65 53L64 53L64 51ZM43 52L43 55L42 55L42 56L43 56L43 55L44 55L44 58L45 58L45 55L44 55L44 52ZM48 52L48 53L50 53L50 52ZM69 52L69 53L70 53L70 52ZM71 52L71 53L72 53L72 52ZM6 54L6 55L7 55L7 54ZM33 54L33 55L35 55L35 54ZM36 55L36 56L35 56L35 57L36 57L36 56L37 56L37 55ZM50 56L50 57L51 57L51 56ZM11 57L11 58L13 58L13 57ZM18 57L18 58L17 58L17 59L20 59L20 58L19 58L19 57ZM74 57L74 58L75 58L75 57ZM41 58L41 59L40 59L40 60L38 60L38 61L39 61L39 63L40 63L40 61L41 61L41 62L42 62L42 64L43 64L43 65L42 65L42 66L40 66L40 68L41 68L41 67L42 67L42 66L43 66L43 65L44 65L44 66L45 66L45 67L43 67L43 68L42 68L42 69L41 69L41 70L42 70L42 71L43 71L43 70L42 70L42 69L44 69L44 68L45 68L45 67L46 67L46 66L45 66L45 65L44 65L44 64L43 64L43 62L44 62L44 61L42 61L42 60L41 60L41 59L42 59L42 58ZM50 58L50 59L51 59L51 58ZM52 58L52 59L53 59L53 58ZM1 59L1 60L2 60L2 59ZM60 60L60 61L59 61L59 62L60 62L60 61L61 61L61 63L62 63L62 64L63 64L63 67L64 67L64 68L65 68L65 67L64 67L64 64L65 64L65 63L64 63L64 62L62 62L62 61L61 61L61 60ZM71 60L71 62L73 62L73 63L74 63L74 62L73 62L73 60ZM76 60L76 61L77 61L77 60ZM34 61L34 63L36 63L36 62L35 62L35 61ZM24 62L24 63L25 63L25 62ZM6 63L6 64L7 64L7 63ZM14 63L14 64L13 64L13 66L14 66L14 67L15 67L15 65L17 65L17 64L15 64L15 63ZM63 63L63 64L64 64L64 63ZM14 64L14 65L15 65L15 64ZM33 64L33 65L36 65L36 64ZM6 65L6 66L7 66L7 65ZM21 65L21 66L22 66L22 65ZM19 66L19 67L20 67L20 66ZM27 66L27 68L29 68L29 69L30 69L30 68L29 68L29 67L28 67L28 66ZM59 66L59 67L58 67L58 69L59 69L59 71L58 71L58 72L59 72L59 74L60 74L60 75L62 75L62 73L61 73L61 74L60 74L60 69L61 69L61 68L62 68L62 66L61 66L61 68L59 68L59 67L60 67L60 66ZM11 67L11 68L13 68L13 67ZM22 67L22 68L21 68L21 69L22 69L22 70L21 70L21 71L19 71L19 70L17 70L17 71L16 71L16 74L15 74L15 72L14 72L14 70L12 70L12 72L10 72L10 71L9 71L9 72L10 72L10 73L13 73L13 72L14 72L14 74L15 74L15 76L19 76L19 75L18 75L18 74L19 74L19 72L21 72L21 73L20 73L20 75L21 75L21 73L23 73L23 71L24 71L24 67ZM25 67L25 68L26 68L26 67ZM54 67L54 68L55 68L55 67ZM6 68L6 69L7 69L7 68ZM17 68L17 69L18 69L18 68ZM19 68L19 69L20 69L20 68ZM75 68L75 69L76 69L76 68ZM25 69L25 72L28 72L28 69ZM47 69L47 72L50 72L50 69ZM51 69L51 70L53 70L53 69ZM67 69L67 71L68 71L68 69ZM69 69L69 72L72 72L72 69ZM73 69L73 70L74 70L74 69ZM22 70L22 71L21 71L21 72L22 72L22 71L23 71L23 70ZM26 70L26 71L27 71L27 70ZM33 70L33 71L34 71L34 70ZM48 70L48 71L49 71L49 70ZM70 70L70 71L71 71L71 70ZM52 71L52 74L53 74L53 73L55 73L55 74L56 74L56 73L55 73L55 72L53 72L53 71ZM17 72L17 74L16 74L16 75L17 75L17 74L18 74L18 72ZM64 72L64 74L65 74L65 72ZM66 72L66 73L67 73L67 72ZM47 73L47 74L48 74L48 73ZM50 73L50 76L51 76L51 73ZM70 73L70 74L71 74L71 76L73 76L73 75L72 75L72 74L74 74L74 73ZM10 74L10 75L9 75L9 76L10 76L10 75L11 75L11 74ZM43 74L43 75L44 75L44 74ZM27 76L27 77L30 77L30 76ZM37 76L37 77L38 77L38 76ZM0 0L0 7L7 7L7 0ZM1 1L1 6L6 6L6 1ZM2 2L2 5L5 5L5 2ZM70 0L70 7L77 7L77 0ZM71 1L71 6L76 6L76 1ZM72 2L72 5L75 5L75 2ZM0 70L0 77L7 77L7 70ZM1 71L1 76L6 76L6 71ZM2 72L2 75L5 75L5 72Z" fill="#000000"/></g></g></svg>
