<?xml version="1.0" encoding="UTF-8"?>
<svg xmlns="http://www.w3.org/2000/svg" version="1.1" width="400" height="400" viewBox="0 0 400 400"><rect x="0" y="0" width="400" height="400" fill="#fefefe"/><g transform="scale(4.706)"><g transform="translate(4,4)"><path fill-rule="evenodd" d="M8 0L8 1L9 1L9 0ZM11 0L11 1L10 1L10 2L8 2L8 4L9 4L9 5L8 5L8 8L5 8L5 9L4 9L4 8L3 8L3 9L2 9L2 8L1 8L1 9L0 9L0 10L1 10L1 11L0 11L0 12L1 12L1 13L4 13L4 15L3 15L3 14L2 14L2 15L1 15L1 16L0 16L0 17L1 17L1 18L0 18L0 24L1 24L1 25L0 25L0 26L2 26L2 25L3 25L3 24L4 24L4 26L3 26L3 27L0 27L0 29L1 29L1 30L0 30L0 31L3 31L3 30L2 30L2 28L3 28L3 27L4 27L4 29L5 29L5 31L4 31L4 32L1 32L1 33L3 33L3 34L1 34L1 35L0 35L0 36L1 36L1 35L2 35L2 38L1 38L1 37L0 37L0 38L1 38L1 39L2 39L2 38L3 38L3 40L4 40L4 41L3 41L3 42L1 42L1 41L2 41L2 40L1 40L1 41L0 41L0 43L1 43L1 44L2 44L2 43L3 43L3 45L2 45L2 46L0 46L0 47L2 47L2 48L0 48L0 49L1 49L1 50L0 50L0 53L1 53L1 54L2 54L2 55L0 55L0 56L2 56L2 55L4 55L4 56L3 56L3 57L2 57L2 59L3 59L3 60L4 60L4 58L6 58L6 59L7 59L7 60L6 60L6 61L5 61L5 63L4 63L4 61L2 61L2 60L0 60L0 61L2 61L2 63L1 63L1 62L0 62L0 63L1 63L1 64L0 64L0 65L1 65L1 67L2 67L2 64L5 64L5 65L7 65L7 66L4 66L4 65L3 65L3 66L4 66L4 68L1 68L1 69L5 69L5 67L8 67L8 68L6 68L6 69L8 69L8 72L10 72L10 71L11 71L11 72L12 72L12 71L11 71L11 70L12 70L12 69L9 69L9 68L11 68L11 67L13 67L13 69L15 69L15 70L13 70L13 72L14 72L14 71L16 71L16 72L20 72L20 74L21 74L21 77L22 77L22 76L23 76L23 77L25 77L25 76L26 76L26 77L27 77L27 75L26 75L26 73L29 73L29 74L28 74L28 77L29 77L29 75L30 75L30 76L31 76L31 77L32 77L32 76L31 76L31 74L30 74L30 73L31 73L31 71L32 71L32 72L34 72L34 74L33 74L33 76L34 76L34 74L36 74L36 75L35 75L35 76L36 76L36 77L37 77L37 76L38 76L38 77L39 77L39 76L40 76L40 77L43 77L43 75L44 75L44 74L45 74L45 73L44 73L44 74L43 74L43 75L42 75L42 76L40 76L40 75L41 75L41 74L42 74L42 73L43 73L43 71L44 71L44 72L45 72L45 71L46 71L46 75L47 75L47 76L44 76L44 77L47 77L47 76L49 76L49 77L51 77L51 75L50 75L50 76L49 76L49 74L48 74L48 73L50 73L50 74L51 74L51 68L52 68L52 67L53 67L53 68L54 68L54 67L53 67L53 66L54 66L54 65L55 65L55 64L56 64L56 63L57 63L57 61L58 61L58 62L59 62L59 64L57 64L57 65L56 65L56 67L55 67L55 69L58 69L58 70L55 70L55 71L56 71L56 73L55 73L55 74L56 74L56 75L57 75L57 76L55 76L55 75L53 75L53 73L54 73L54 72L53 72L53 69L52 69L52 72L53 72L53 73L52 73L52 75L53 75L53 76L52 76L52 77L54 77L54 76L55 76L55 77L61 77L61 76L63 76L63 77L64 77L64 76L63 76L63 75L65 75L65 76L67 76L67 77L69 77L69 76L70 76L70 77L76 77L76 76L77 76L77 71L76 71L76 70L75 70L75 71L74 71L74 69L77 69L77 68L74 68L74 69L73 69L73 68L68 68L68 67L71 67L71 66L72 66L72 67L73 67L73 66L75 66L75 67L77 67L77 66L76 66L76 64L77 64L77 58L76 58L76 57L77 57L77 56L76 56L76 55L77 55L77 53L76 53L76 52L77 52L77 51L76 51L76 52L75 52L75 53L74 53L74 54L75 54L75 53L76 53L76 55L75 55L75 59L74 59L74 55L73 55L73 60L72 60L72 61L71 61L71 59L70 59L70 61L69 61L69 58L67 58L67 57L66 57L66 56L67 56L67 55L68 55L68 56L69 56L69 55L71 55L71 54L73 54L73 53L69 53L69 54L68 54L68 52L67 52L67 50L66 50L66 48L65 48L65 47L68 47L68 51L69 51L69 52L72 52L72 51L73 51L73 52L74 52L74 51L75 51L75 50L74 50L74 49L76 49L76 50L77 50L77 44L76 44L76 43L77 43L77 42L75 42L75 40L77 40L77 35L76 35L76 33L77 33L77 32L76 32L76 31L77 31L77 30L76 30L76 29L77 29L77 23L72 23L72 24L70 24L70 22L72 22L72 21L71 21L71 20L74 20L74 18L75 18L75 22L77 22L77 20L76 20L76 18L75 18L75 17L76 17L76 16L77 16L77 11L76 11L76 12L75 12L75 11L74 11L74 10L73 10L73 11L68 11L68 9L67 9L67 11L66 11L66 10L65 10L65 9L66 9L66 7L67 7L67 5L69 5L69 1L68 1L68 4L66 4L66 3L65 3L65 4L63 4L63 2L64 2L64 1L63 1L63 0L59 0L59 1L56 1L56 2L58 2L58 5L60 5L60 3L61 3L61 1L63 1L63 2L62 2L62 5L61 5L61 6L60 6L60 7L59 7L59 6L58 6L58 7L57 7L57 5L55 5L55 6L54 6L54 5L53 5L53 6L52 6L52 4L53 4L53 3L54 3L54 2L55 2L55 0L52 0L52 1L51 1L51 2L50 2L50 4L49 4L49 0L46 0L46 1L48 1L48 3L47 3L47 4L46 4L46 5L44 5L44 7L43 7L43 6L42 6L42 5L43 5L43 2L44 2L44 1L43 1L43 0L40 0L40 1L39 1L39 2L40 2L40 3L41 3L41 4L42 4L42 5L41 5L41 6L40 6L40 5L39 5L39 4L38 4L38 5L39 5L39 6L38 6L38 8L39 8L39 6L40 6L40 7L41 7L41 8L42 8L42 7L43 7L43 9L44 9L44 11L43 11L43 10L42 10L42 9L38 9L38 10L37 10L37 8L36 8L36 7L37 7L37 3L38 3L38 2L37 2L37 1L38 1L38 0L36 0L36 1L35 1L35 0L32 0L32 1L31 1L31 0L30 0L30 3L29 3L29 4L26 4L26 3L28 3L28 2L29 2L29 0L28 0L28 2L27 2L27 0L21 0L21 1L20 1L20 0L19 0L19 1L18 1L18 4L17 4L17 1L16 1L16 0L15 0L15 1L16 1L16 3L15 3L15 2L14 2L14 7L15 7L15 6L16 6L16 7L17 7L17 8L16 8L16 9L17 9L17 10L15 10L15 11L16 11L16 12L17 12L17 11L19 11L19 12L20 12L20 14L17 14L17 15L20 15L20 16L19 16L19 17L18 17L18 16L16 16L16 14L15 14L15 15L14 15L14 14L12 14L12 13L11 13L11 12L14 12L14 10L13 10L13 9L15 9L15 8L13 8L13 9L12 9L12 8L11 8L11 6L12 6L12 7L13 7L13 5L12 5L12 3L13 3L13 2L12 2L12 3L10 3L10 2L11 2L11 1L12 1L12 0ZM65 0L65 1L66 1L66 2L67 2L67 1L66 1L66 0ZM22 1L22 4L23 4L23 2L25 2L25 3L24 3L24 4L25 4L25 3L26 3L26 1ZM34 1L34 2L33 2L33 4L32 4L32 5L31 5L31 3L30 3L30 6L29 6L29 9L27 9L27 10L24 10L24 8L23 8L23 9L22 9L22 8L20 8L20 5L21 5L21 7L22 7L22 5L21 5L21 4L20 4L20 2L19 2L19 4L20 4L20 5L17 5L17 4L16 4L16 5L17 5L17 7L18 7L18 6L19 6L19 8L18 8L18 10L19 10L19 11L21 11L21 9L22 9L22 11L23 11L23 14L22 14L22 13L21 13L21 14L22 14L22 15L23 15L23 14L24 14L24 15L27 15L27 19L26 19L26 18L25 18L25 17L26 17L26 16L25 16L25 17L24 17L24 16L22 16L22 17L21 17L21 16L20 16L20 17L19 17L19 18L18 18L18 17L17 17L17 18L15 18L15 16L14 16L14 15L11 15L11 13L10 13L10 12L11 12L11 11L10 11L10 10L9 10L9 9L10 9L10 8L9 8L9 9L6 9L6 10L7 10L7 11L5 11L5 12L4 12L4 11L3 11L3 10L2 10L2 9L1 9L1 10L2 10L2 12L4 12L4 13L6 13L6 14L7 14L7 15L4 15L4 16L3 16L3 15L2 15L2 16L1 16L1 17L4 17L4 18L1 18L1 21L2 21L2 22L3 22L3 23L4 23L4 24L5 24L5 23L6 23L6 24L9 24L9 30L7 30L7 29L6 29L6 30L7 30L7 31L6 31L6 32L8 32L8 34L7 34L7 33L6 33L6 34L7 34L7 35L4 35L4 34L5 34L5 33L4 33L4 34L3 34L3 35L4 35L4 36L5 36L5 39L6 39L6 40L5 40L5 42L3 42L3 43L4 43L4 45L3 45L3 48L2 48L2 49L3 49L3 48L4 48L4 45L5 45L5 46L7 46L7 45L5 45L5 42L7 42L7 43L6 43L6 44L7 44L7 43L8 43L8 46L9 46L9 47L10 47L10 48L9 48L9 49L11 49L11 50L10 50L10 51L6 51L6 52L8 52L8 54L7 54L7 53L6 53L6 54L7 54L7 55L5 55L5 54L4 54L4 55L5 55L5 56L4 56L4 57L3 57L3 58L4 58L4 57L5 57L5 56L8 56L8 55L9 55L9 57L8 57L8 58L7 58L7 57L6 57L6 58L7 58L7 59L8 59L8 60L7 60L7 61L6 61L6 62L7 62L7 61L8 61L8 62L10 62L10 59L8 59L8 58L9 58L9 57L10 57L10 58L11 58L11 57L10 57L10 56L11 56L11 55L12 55L12 56L13 56L13 57L12 57L12 59L13 59L13 61L14 61L14 62L15 62L15 63L14 63L14 64L13 64L13 63L12 63L12 60L11 60L11 64L12 64L12 65L13 65L13 66L15 66L15 69L17 69L17 68L21 68L21 69L19 69L19 70L18 70L18 71L20 71L20 70L21 70L21 74L22 74L22 72L23 72L23 74L24 74L24 76L25 76L25 73L24 73L24 71L23 71L23 69L22 69L22 68L23 68L23 67L24 67L24 68L25 68L25 67L26 67L26 68L27 68L27 67L28 67L28 66L27 66L27 67L26 67L26 66L25 66L25 65L26 65L26 64L27 64L27 65L29 65L29 67L31 67L31 66L32 66L32 68L31 68L31 69L30 69L30 68L29 68L29 70L31 70L31 69L32 69L32 71L35 71L35 73L36 73L36 74L37 74L37 75L36 75L36 76L37 76L37 75L38 75L38 74L39 74L39 75L40 75L40 74L41 74L41 72L42 72L42 71L43 71L43 70L44 70L44 65L43 65L43 64L45 64L45 66L46 66L46 65L48 65L48 66L47 66L47 67L46 67L46 68L49 68L49 67L48 67L48 66L49 66L49 65L48 65L48 64L50 64L50 65L51 65L51 66L50 66L50 68L51 68L51 67L52 67L52 66L53 66L53 65L52 65L52 64L53 64L53 63L54 63L54 64L55 64L55 63L56 63L56 62L55 62L55 60L54 60L54 58L53 58L53 57L51 57L51 60L52 60L52 59L53 59L53 60L54 60L54 62L53 62L53 61L50 61L50 60L49 60L49 61L50 61L50 62L51 62L51 63L47 63L47 64L45 64L45 62L46 62L46 61L47 61L47 62L48 62L48 59L50 59L50 58L49 58L49 57L50 57L50 56L51 56L51 55L52 55L52 56L53 56L53 55L54 55L54 56L55 56L55 58L56 58L56 60L57 60L57 59L58 59L58 60L59 60L59 59L60 59L60 58L59 58L59 57L58 57L58 58L57 58L57 57L56 57L56 56L57 56L57 55L58 55L58 56L60 56L60 55L61 55L61 56L62 56L62 57L63 57L63 60L62 60L62 61L61 61L61 62L60 62L60 61L59 61L59 62L60 62L60 63L61 63L61 62L62 62L62 63L64 63L64 62L65 62L65 61L64 61L64 60L66 60L66 61L68 61L68 62L66 62L66 63L67 63L67 64L65 64L65 65L66 65L66 68L65 68L65 66L64 66L64 64L63 64L63 65L62 65L62 64L61 64L61 66L59 66L59 65L60 65L60 64L59 64L59 65L57 65L57 67L56 67L56 68L57 68L57 67L61 67L61 68L63 68L63 71L62 71L62 72L60 72L60 68L59 68L59 70L58 70L58 73L59 73L59 74L58 74L58 75L59 75L59 76L60 76L60 75L59 75L59 74L60 74L60 73L61 73L61 75L63 75L63 74L65 74L65 73L63 73L63 74L62 74L62 72L63 72L63 71L65 71L65 72L66 72L66 71L67 71L67 74L66 74L66 75L67 75L67 74L68 74L68 75L69 75L69 74L71 74L71 75L70 75L70 76L71 76L71 75L73 75L73 76L74 76L74 74L75 74L75 76L76 76L76 73L75 73L75 72L73 72L73 74L72 74L72 73L69 73L69 74L68 74L68 71L67 71L67 69L68 69L68 68L67 68L67 67L68 67L68 65L67 65L67 64L69 64L69 65L71 65L71 64L69 64L69 63L70 63L70 62L71 62L71 63L72 63L72 64L73 64L73 65L74 65L74 64L76 64L76 63L74 63L74 62L75 62L75 60L73 60L73 61L72 61L72 62L71 62L71 61L70 61L70 62L69 62L69 61L68 61L68 59L64 59L64 57L65 57L65 55L66 55L66 54L67 54L67 52L66 52L66 53L65 53L65 55L64 55L64 53L63 53L63 55L62 55L62 54L60 54L60 53L62 53L62 52L63 52L63 51L64 51L64 52L65 52L65 51L66 51L66 50L65 50L65 49L64 49L64 50L63 50L63 48L64 48L64 47L65 47L65 46L64 46L64 45L62 45L62 48L61 48L61 49L58 49L58 50L56 50L56 48L55 48L55 49L54 49L54 50L53 50L53 49L51 49L51 50L53 50L53 51L51 51L51 54L50 54L50 55L49 55L49 53L50 53L50 51L47 51L47 52L45 52L45 51L46 51L46 49L45 49L45 50L44 50L44 46L43 46L43 44L44 44L44 42L47 42L47 43L46 43L46 44L45 44L45 48L46 48L46 46L47 46L47 45L48 45L48 46L51 46L51 47L53 47L53 48L54 48L54 47L55 47L55 46L56 46L56 47L59 47L59 48L60 48L60 45L61 45L61 44L63 44L63 43L64 43L64 44L65 44L65 45L66 45L66 46L69 46L69 45L70 45L70 46L71 46L71 41L70 41L70 40L72 40L72 41L74 41L74 40L75 40L75 39L76 39L76 38L75 38L75 37L73 37L73 36L72 36L72 34L71 34L71 31L72 31L72 30L71 30L71 29L70 29L70 32L69 32L69 33L68 33L68 34L69 34L69 36L68 36L68 37L67 37L67 35L66 35L66 34L67 34L67 33L66 33L66 34L65 34L65 33L64 33L64 32L63 32L63 35L62 35L62 34L61 34L61 35L58 35L58 34L60 34L60 32L59 32L59 33L57 33L57 31L56 31L56 30L57 30L57 29L56 29L56 28L57 28L57 27L56 27L56 26L55 26L55 25L57 25L57 26L58 26L58 28L59 28L59 29L63 29L63 30L61 30L61 32L62 32L62 31L64 31L64 28L63 28L63 27L66 27L66 28L67 28L67 29L65 29L65 30L67 30L67 31L66 31L66 32L68 32L68 31L69 31L69 30L68 30L68 27L66 27L66 26L63 26L63 25L65 25L65 24L67 24L67 25L68 25L68 24L69 24L69 22L70 22L70 21L69 21L69 20L68 20L68 19L70 19L70 17L71 17L71 19L73 19L73 18L74 18L74 17L73 17L73 15L72 15L72 16L70 16L70 15L71 15L71 14L73 14L73 12L74 12L74 11L73 11L73 12L71 12L71 13L69 13L69 14L68 14L68 16L67 16L67 12L66 12L66 11L65 11L65 13L63 13L63 12L64 12L64 9L63 9L63 7L64 7L64 6L63 6L63 5L62 5L62 6L61 6L61 8L60 8L60 9L59 9L59 13L58 13L58 16L56 16L56 17L53 17L53 15L54 15L54 16L55 16L55 15L57 15L57 14L55 14L55 13L56 13L56 12L57 12L57 8L56 8L56 9L55 9L55 7L56 7L56 6L55 6L55 7L54 7L54 6L53 6L53 9L52 9L52 6L51 6L51 9L46 9L46 13L48 13L48 15L47 15L47 16L46 16L46 18L47 18L47 17L48 17L48 15L50 15L50 16L49 16L49 20L48 20L48 19L47 19L47 20L45 20L45 15L46 15L46 14L44 14L44 16L43 16L43 15L42 15L42 14L43 14L43 13L42 13L42 14L41 14L41 12L43 12L43 11L42 11L42 10L38 10L38 11L35 11L35 8L34 8L34 6L35 6L35 7L36 7L36 3L37 3L37 2L35 2L35 1ZM41 1L41 3L42 3L42 2L43 2L43 1ZM52 1L52 2L51 2L51 3L53 3L53 1ZM34 2L34 3L35 3L35 2ZM10 4L10 5L11 5L11 4ZM65 4L65 7L66 7L66 4ZM23 5L23 7L24 7L24 5ZM25 5L25 8L28 8L28 5ZM33 5L33 6L32 6L32 7L31 7L31 6L30 6L30 7L31 7L31 8L30 8L30 10L32 10L32 11L28 11L28 10L27 10L27 11L26 11L26 12L24 12L24 13L25 13L25 14L26 14L26 13L28 13L28 14L30 14L30 13L31 13L31 14L32 14L32 15L28 15L28 16L29 16L29 17L30 17L30 18L28 18L28 19L27 19L27 22L23 22L23 21L22 21L22 20L24 20L24 21L26 21L26 19L22 19L22 20L21 20L21 19L20 19L20 18L19 18L19 19L20 19L20 20L21 20L21 21L19 21L19 20L17 20L17 19L16 19L16 20L17 20L17 21L14 21L14 20L15 20L15 19L14 19L14 17L13 17L13 16L12 16L12 17L8 17L8 15L10 15L10 14L8 14L8 13L9 13L9 12L8 12L8 13L7 13L7 12L6 12L6 13L7 13L7 14L8 14L8 15L7 15L7 16L6 16L6 17L7 17L7 18L5 18L5 19L4 19L4 20L5 20L5 22L4 22L4 21L3 21L3 19L2 19L2 21L3 21L3 22L4 22L4 23L5 23L5 22L6 22L6 23L9 23L9 24L10 24L10 22L6 22L6 21L7 21L7 20L6 20L6 19L9 19L9 20L8 20L8 21L9 21L9 20L10 20L10 21L11 21L11 23L12 23L12 24L14 24L14 22L17 22L17 21L18 21L18 24L17 24L17 25L11 25L11 26L12 26L12 27L13 27L13 28L14 28L14 30L15 30L15 33L14 33L14 32L13 32L13 29L12 29L12 28L11 28L11 29L10 29L10 31L9 31L9 33L10 33L10 34L12 34L12 35L9 35L9 34L8 34L8 35L7 35L7 36L6 36L6 37L7 37L7 38L6 38L6 39L8 39L8 38L9 38L9 39L13 39L13 38L14 38L14 39L15 39L15 40L16 40L16 38L18 38L18 39L17 39L17 40L18 40L18 39L19 39L19 40L20 40L20 41L16 41L16 42L14 42L14 41L13 41L13 40L11 40L11 42L9 42L9 43L10 43L10 44L12 44L12 45L14 45L14 46L12 46L12 47L13 47L13 48L12 48L12 50L11 50L11 52L15 52L15 55L14 55L14 56L15 56L15 55L17 55L17 56L16 56L16 57L17 57L17 58L16 58L16 60L17 60L17 61L18 61L18 62L16 62L16 61L15 61L15 62L16 62L16 64L17 64L17 65L18 65L18 66L17 66L17 67L16 67L16 68L17 68L17 67L18 67L18 66L19 66L19 67L21 67L21 68L22 68L22 67L23 67L23 65L22 65L22 62L23 62L23 63L24 63L24 65L25 65L25 64L26 64L26 63L27 63L27 64L28 64L28 63L27 63L27 62L25 62L25 61L26 61L26 60L27 60L27 61L28 61L28 62L29 62L29 64L30 64L30 65L31 65L31 63L32 63L32 66L33 66L33 65L34 65L34 64L33 64L33 63L32 63L32 62L33 62L33 61L32 61L32 62L31 62L31 60L32 60L32 59L33 59L33 58L34 58L34 62L35 62L35 66L39 66L39 63L37 63L37 64L36 64L36 62L37 62L37 61L36 61L36 60L39 60L39 59L38 59L38 58L43 58L43 55L44 55L44 56L45 56L45 54L44 54L44 53L45 53L45 52L43 52L43 51L44 51L44 50L43 50L43 48L42 48L42 46L41 46L41 47L40 47L40 48L41 48L41 49L42 49L42 52L43 52L43 53L40 53L40 54L39 54L39 51L41 51L41 50L39 50L39 49L37 49L37 48L38 48L38 47L39 47L39 46L40 46L40 42L41 42L41 44L43 44L43 43L42 43L42 42L44 42L44 41L45 41L45 40L47 40L47 41L51 41L51 39L50 39L50 37L51 37L51 35L50 35L50 34L48 34L48 33L49 33L49 32L52 32L52 31L53 31L53 32L54 32L54 33L52 33L52 34L53 34L53 35L54 35L54 36L52 36L52 39L53 39L53 41L54 41L54 43L53 43L53 44L54 44L54 43L55 43L55 42L56 42L56 43L57 43L57 45L58 45L58 46L59 46L59 45L60 45L60 44L61 44L61 43L62 43L62 41L61 41L61 42L60 42L60 41L58 41L58 39L59 39L59 40L60 40L60 39L61 39L61 40L64 40L64 39L65 39L65 41L67 41L67 42L66 42L66 43L65 43L65 42L64 42L64 43L65 43L65 44L66 44L66 45L67 45L67 44L70 44L70 41L68 41L68 39L69 39L69 40L70 40L70 39L69 39L69 38L71 38L71 39L73 39L73 40L74 40L74 39L73 39L73 37L72 37L72 38L71 38L71 34L70 34L70 33L69 33L69 34L70 34L70 37L69 37L69 38L68 38L68 39L67 39L67 40L66 40L66 38L67 38L67 37L66 37L66 36L65 36L65 34L64 34L64 37L65 37L65 38L64 38L64 39L63 39L63 38L62 38L62 35L61 35L61 36L60 36L60 37L61 37L61 38L59 38L59 36L58 36L58 35L56 35L56 34L55 34L55 32L54 32L54 31L55 31L55 30L53 30L53 29L55 29L55 28L56 28L56 27L55 27L55 26L53 26L53 25L54 25L54 24L57 24L57 25L58 25L58 26L59 26L59 28L62 28L62 27L63 27L63 26L62 26L62 24L64 24L64 23L67 23L67 24L68 24L68 23L67 23L67 22L69 22L69 21L68 21L68 20L67 20L67 19L68 19L68 18L69 18L69 17L70 17L70 16L69 16L69 17L67 17L67 19L66 19L66 18L65 18L65 17L64 17L64 19L63 19L63 20L61 20L61 19L59 19L59 18L60 18L60 17L61 17L61 18L62 18L62 17L63 17L63 16L66 16L66 15L61 15L61 14L62 14L62 11L63 11L63 9L62 9L62 8L61 8L61 10L60 10L60 12L61 12L61 13L60 13L60 14L59 14L59 15L61 15L61 16L60 16L60 17L56 17L56 18L58 18L58 19L57 19L57 20L56 20L56 19L55 19L55 18L52 18L52 21L53 21L53 22L52 22L52 24L53 24L53 25L52 25L52 26L53 26L53 27L51 27L51 24L50 24L50 23L49 23L49 24L46 24L46 22L45 22L45 21L44 21L44 22L43 22L43 21L40 21L40 22L39 22L39 21L38 21L38 20L39 20L39 18L41 18L41 19L44 19L44 17L43 17L43 16L41 16L41 17L38 17L38 18L36 18L36 17L37 17L37 15L35 15L35 14L38 14L38 15L39 15L39 16L40 16L40 15L41 15L41 14L38 14L38 13L37 13L37 12L35 12L35 11L34 11L34 12L33 12L33 10L34 10L34 8L33 8L33 6L34 6L34 5ZM47 5L47 8L50 8L50 5ZM9 6L9 7L10 7L10 6ZM26 6L26 7L27 7L27 6ZM41 6L41 7L42 7L42 6ZM45 6L45 7L44 7L44 9L45 9L45 7L46 7L46 6ZM48 6L48 7L49 7L49 6ZM62 6L62 7L63 7L63 6ZM68 6L68 8L69 8L69 10L72 10L72 8L69 8L69 6ZM31 8L31 9L32 9L32 8ZM73 8L73 9L75 9L75 8ZM76 8L76 10L77 10L77 8ZM11 9L11 10L12 10L12 9ZM19 9L19 10L20 10L20 9ZM23 10L23 11L24 11L24 10ZM49 10L49 11L47 11L47 12L48 12L48 13L50 13L50 12L51 12L51 11L50 11L50 10ZM55 10L55 12L52 12L52 15L53 15L53 14L54 14L54 15L55 15L55 14L54 14L54 13L55 13L55 12L56 12L56 10ZM27 11L27 12L28 12L28 13L29 13L29 12L28 12L28 11ZM38 11L38 12L39 12L39 13L40 13L40 12L41 12L41 11ZM31 12L31 13L33 13L33 12ZM34 13L34 14L33 14L33 15L32 15L32 18L33 18L33 17L36 17L36 16L35 16L35 15L34 15L34 14L35 14L35 13ZM65 13L65 14L66 14L66 13ZM74 13L74 14L76 14L76 13ZM50 14L50 15L51 15L51 14ZM33 15L33 16L34 16L34 15ZM74 15L74 16L76 16L76 15ZM4 16L4 17L5 17L5 16ZM30 16L30 17L31 17L31 16ZM50 16L50 18L51 18L51 16ZM61 16L61 17L62 17L62 16ZM12 17L12 18L11 18L11 21L12 21L12 22L14 22L14 21L13 21L13 20L12 20L12 18L13 18L13 17ZM42 17L42 18L43 18L43 17ZM9 18L9 19L10 19L10 18ZM35 18L35 19L33 19L33 20L32 20L32 19L29 19L29 20L28 20L28 21L29 21L29 20L31 20L31 21L34 21L34 20L35 20L35 19L36 19L36 18ZM54 19L54 20L53 20L53 21L54 21L54 22L53 22L53 24L54 24L54 22L56 22L56 21L55 21L55 19ZM58 19L58 20L59 20L59 19ZM64 19L64 20L63 20L63 21L61 21L61 22L60 22L60 21L58 21L58 25L59 25L59 26L60 26L60 25L59 25L59 24L62 24L62 23L64 23L64 20L65 20L65 21L67 21L67 20L65 20L65 19ZM47 20L47 22L48 22L48 20ZM49 20L49 21L51 21L51 20ZM21 21L21 22L20 22L20 24L18 24L18 25L17 25L17 27L16 27L16 28L15 28L15 26L14 26L14 28L15 28L15 29L17 29L17 30L16 30L16 31L23 31L23 33L22 33L22 32L19 32L19 33L17 33L17 32L16 32L16 33L17 33L17 34L19 34L19 35L18 35L18 38L19 38L19 39L20 39L20 40L21 40L21 41L20 41L20 43L19 43L19 42L18 42L18 43L19 43L19 46L20 46L20 47L19 47L19 48L18 48L18 47L15 47L15 49L14 49L14 48L13 48L13 50L12 50L12 51L14 51L14 50L16 50L16 51L18 51L18 52L16 52L16 54L17 54L17 53L18 53L18 52L19 52L19 53L21 53L21 55L22 55L22 53L24 53L24 54L23 54L23 55L24 55L24 57L25 57L25 58L26 58L26 59L24 59L24 60L26 60L26 59L27 59L27 60L28 60L28 61L29 61L29 62L30 62L30 61L29 61L29 60L31 60L31 59L32 59L32 58L31 58L31 56L32 56L32 57L34 57L34 58L35 58L35 57L36 57L36 54L34 54L34 53L38 53L38 52L37 52L37 51L36 51L36 52L35 52L35 51L34 51L34 50L32 50L32 51L31 51L31 49L30 49L30 48L31 48L31 47L30 47L30 48L29 48L29 51L30 51L30 53L29 53L29 52L28 52L28 51L27 51L27 52L26 52L26 53L28 53L28 55L27 55L27 54L25 54L25 51L24 51L24 49L23 49L23 48L24 48L24 46L25 46L25 45L26 45L26 44L28 44L28 43L30 43L30 42L29 42L29 41L28 41L28 39L29 39L29 38L27 38L27 37L28 37L28 36L27 36L27 34L28 34L28 33L29 33L29 35L30 35L30 36L29 36L29 37L30 37L30 36L32 36L32 35L33 35L33 36L34 36L34 35L35 35L35 36L37 36L37 37L36 37L36 38L34 38L34 37L31 37L31 38L32 38L32 41L31 41L31 39L30 39L30 41L31 41L31 42L33 42L33 47L34 47L34 49L35 49L35 48L36 48L36 47L38 47L38 45L39 45L39 44L38 44L38 45L36 45L36 47L35 47L35 43L36 43L36 44L37 44L37 42L38 42L38 43L39 43L39 42L38 42L38 41L39 41L39 40L40 40L40 35L41 35L41 36L42 36L42 37L41 37L41 40L43 40L43 38L44 38L44 39L45 39L45 38L44 38L44 37L45 37L45 35L44 35L44 34L43 34L43 33L46 33L46 32L47 32L47 33L48 33L48 32L47 32L47 31L48 31L48 29L46 29L46 28L43 28L43 29L44 29L44 30L45 30L45 31L44 31L44 32L43 32L43 33L42 33L42 31L41 31L41 30L40 30L40 29L39 29L39 28L41 28L41 27L42 27L42 26L43 26L43 25L44 25L44 24L45 24L45 23L44 23L44 24L43 24L43 23L42 23L42 26L41 26L41 25L40 25L40 26L41 26L41 27L39 27L39 28L37 28L37 27L36 27L36 26L35 26L35 25L37 25L37 24L38 24L38 26L39 26L39 24L38 24L38 23L39 23L39 22L38 22L38 21L35 21L35 23L36 23L36 24L35 24L35 25L34 25L34 24L33 24L33 23L34 23L34 22L32 22L32 23L31 23L31 25L32 25L32 26L30 26L30 24L29 24L29 28L30 28L30 27L33 27L33 25L34 25L34 26L35 26L35 28L33 28L33 29L35 29L35 30L33 30L33 31L32 31L32 32L31 32L31 33L29 33L29 31L31 31L31 30L32 30L32 29L29 29L29 30L26 30L26 29L25 29L25 30L26 30L26 31L24 31L24 28L22 28L22 26L21 26L21 22L22 22L22 21ZM27 22L27 23L25 23L25 24L28 24L28 22ZM29 22L29 23L30 23L30 22ZM61 22L61 23L62 23L62 22ZM23 23L23 24L22 24L22 25L24 25L24 23ZM32 24L32 25L33 25L33 24ZM74 24L74 25L73 25L73 26L75 26L75 25L76 25L76 24ZM5 25L5 28L8 28L8 25ZM19 25L19 27L20 27L20 25ZM25 25L25 28L28 28L28 25ZM45 25L45 26L44 26L44 27L45 27L45 26L46 26L46 25ZM47 25L47 28L50 28L50 25ZM69 25L69 28L72 28L72 25ZM6 26L6 27L7 27L7 26ZM23 26L23 27L24 27L24 26ZM26 26L26 27L27 27L27 26ZM48 26L48 27L49 27L49 26ZM61 26L61 27L62 27L62 26ZM70 26L70 27L71 27L71 26ZM54 27L54 28L55 28L55 27ZM73 27L73 28L74 28L74 29L73 29L73 32L74 32L74 33L73 33L73 34L75 34L75 33L76 33L76 32L74 32L74 31L76 31L76 30L74 30L74 29L76 29L76 28L75 28L75 27ZM20 28L20 30L21 30L21 29L22 29L22 30L23 30L23 29L22 29L22 28ZM35 28L35 29L37 29L37 28ZM51 28L51 29L49 29L49 31L50 31L50 30L51 30L51 31L52 31L52 29L53 29L53 28ZM38 29L38 30L35 30L35 31L34 31L34 33L33 33L33 32L32 32L32 33L31 33L31 35L32 35L32 33L33 33L33 35L34 35L34 34L36 34L36 33L38 33L38 34L41 34L41 32L39 32L39 31L40 31L40 30L39 30L39 29ZM45 29L45 30L46 30L46 31L47 31L47 30L46 30L46 29ZM59 30L59 31L60 31L60 30ZM10 31L10 32L11 32L11 33L12 33L12 32L11 32L11 31ZM35 31L35 33L36 33L36 32L38 32L38 33L39 33L39 32L38 32L38 31ZM25 32L25 33L23 33L23 36L22 36L22 35L21 35L21 34L22 34L22 33L21 33L21 34L20 34L20 36L19 36L19 37L22 37L22 38L21 38L21 40L22 40L22 38L23 38L23 41L22 41L22 42L21 42L21 45L22 45L22 46L21 46L21 48L20 48L20 49L18 49L18 50L19 50L19 52L24 52L24 51L20 51L20 49L21 49L21 50L22 50L22 48L23 48L23 47L22 47L22 46L23 46L23 45L25 45L25 41L26 41L26 43L27 43L27 39L26 39L26 37L27 37L27 36L26 36L26 35L24 35L24 34L25 34L25 33L26 33L26 34L27 34L27 33L28 33L28 32ZM13 33L13 34L14 34L14 33ZM15 34L15 35L16 35L16 34ZM42 34L42 36L43 36L43 37L44 37L44 36L43 36L43 34ZM47 34L47 35L48 35L48 34ZM12 35L12 36L13 36L13 37L9 37L9 38L13 38L13 37L14 37L14 35ZM37 35L37 36L38 36L38 37L37 37L37 38L36 38L36 39L35 39L35 40L36 40L36 39L37 39L37 38L38 38L38 39L39 39L39 35ZM49 35L49 36L48 36L48 38L47 38L47 39L48 39L48 40L49 40L49 39L48 39L48 38L49 38L49 37L50 37L50 35ZM55 35L55 36L54 36L54 37L53 37L53 39L54 39L54 40L55 40L55 39L56 39L56 41L57 41L57 39L56 39L56 38L55 38L55 36L56 36L56 37L57 37L57 36L56 36L56 35ZM75 35L75 36L76 36L76 35ZM16 36L16 37L17 37L17 36ZM24 36L24 37L26 37L26 36ZM46 36L46 37L47 37L47 36ZM3 37L3 38L4 38L4 37ZM24 38L24 39L25 39L25 38ZM33 38L33 41L34 41L34 38ZM61 38L61 39L62 39L62 38ZM6 40L6 41L8 41L8 40ZM24 40L24 41L23 41L23 42L22 42L22 44L24 44L24 41L25 41L25 40ZM36 41L36 42L37 42L37 41ZM11 42L11 43L12 43L12 44L13 44L13 43L12 43L12 42ZM34 42L34 43L35 43L35 42ZM49 42L49 43L50 43L50 45L51 45L51 44L52 44L52 43L50 43L50 42ZM57 42L57 43L58 43L58 45L59 45L59 43L60 43L60 42ZM67 42L67 43L66 43L66 44L67 44L67 43L69 43L69 42ZM74 42L74 43L73 43L73 46L74 46L74 47L73 47L73 48L74 48L74 47L75 47L75 45L74 45L74 43L75 43L75 42ZM16 43L16 44L15 44L15 46L16 46L16 44L17 44L17 46L18 46L18 44L17 44L17 43ZM29 44L29 45L27 45L27 46L29 46L29 45L30 45L30 46L31 46L31 45L32 45L32 44ZM46 44L46 45L47 45L47 44ZM48 44L48 45L49 45L49 44ZM9 45L9 46L10 46L10 47L11 47L11 46L10 46L10 45ZM52 45L52 46L53 46L53 47L54 47L54 46L53 46L53 45ZM5 47L5 50L8 50L8 47ZM25 47L25 50L28 50L28 47ZM47 47L47 50L50 50L50 47ZM69 47L69 50L72 50L72 47ZM6 48L6 49L7 49L7 48ZM16 48L16 50L17 50L17 48ZM26 48L26 49L27 49L27 48ZM48 48L48 49L49 49L49 48ZM70 48L70 49L71 49L71 48ZM36 49L36 50L37 50L37 49ZM61 49L61 50L58 50L58 51L55 51L55 50L54 50L54 51L53 51L53 52L52 52L52 53L54 53L54 55L55 55L55 53L56 53L56 52L57 52L57 54L56 54L56 55L57 55L57 54L58 54L58 55L59 55L59 54L58 54L58 53L59 53L59 52L60 52L60 51L61 51L61 52L62 52L62 51L63 51L63 50L62 50L62 49ZM1 50L1 52L4 52L4 53L5 53L5 52L4 52L4 50L3 50L3 51L2 51L2 50ZM38 50L38 51L39 51L39 50ZM32 51L32 52L31 52L31 53L32 53L32 55L34 55L34 54L33 54L33 51ZM54 51L54 52L55 52L55 51ZM58 51L58 52L59 52L59 51ZM48 52L48 53L46 53L46 55L47 55L47 54L48 54L48 53L49 53L49 52ZM10 53L10 55L11 55L11 53ZM12 53L12 55L13 55L13 54L14 54L14 53ZM18 54L18 55L20 55L20 54ZM38 54L38 55L39 55L39 56L38 56L38 57L40 57L40 56L41 56L41 57L42 57L42 56L41 56L41 55L43 55L43 54L40 54L40 55L39 55L39 54ZM52 54L52 55L53 55L53 54ZM25 55L25 57L26 57L26 58L27 58L27 59L28 59L28 60L29 60L29 59L28 59L28 58L27 58L27 57L29 57L29 58L30 58L30 59L31 59L31 58L30 58L30 57L29 57L29 55L28 55L28 56L27 56L27 57L26 57L26 55ZM30 55L30 56L31 56L31 55ZM63 55L63 56L64 56L64 55ZM17 56L17 57L18 57L18 56ZM20 56L20 58L19 58L19 59L17 59L17 60L19 60L19 61L20 61L20 62L18 62L18 63L17 63L17 64L18 64L18 65L19 65L19 66L21 66L21 65L19 65L19 64L20 64L20 62L21 62L21 60L19 60L19 59L20 59L20 58L21 58L21 59L22 59L22 60L23 60L23 56L22 56L22 58L21 58L21 56ZM34 56L34 57L35 57L35 56ZM46 56L46 58L47 58L47 57L48 57L48 56ZM71 56L71 57L70 57L70 58L72 58L72 56ZM13 57L13 58L14 58L14 60L15 60L15 57ZM44 57L44 60L43 60L43 59L40 59L40 61L39 61L39 62L40 62L40 61L44 61L44 62L41 62L41 63L44 63L44 62L45 62L45 61L44 61L44 60L47 60L47 59L45 59L45 57ZM0 58L0 59L1 59L1 58ZM8 60L8 61L9 61L9 60ZM62 61L62 62L64 62L64 61ZM73 61L73 62L72 62L72 63L73 63L73 62L74 62L74 61ZM52 62L52 63L51 63L51 64L52 64L52 63L53 63L53 62ZM5 63L5 64L7 64L7 63ZM8 63L8 65L9 65L9 66L8 66L8 67L10 67L10 65L9 65L9 64L10 64L10 63ZM18 63L18 64L19 64L19 63ZM37 64L37 65L38 65L38 64ZM40 64L40 65L41 65L41 66L40 66L40 69L42 69L42 68L41 68L41 66L42 66L42 65L41 65L41 64ZM24 66L24 67L25 67L25 66ZM61 66L61 67L63 67L63 68L64 68L64 67L63 67L63 66ZM35 68L35 69L34 69L34 70L35 70L35 71L36 71L36 70L35 70L35 69L36 69L36 68ZM37 68L37 70L38 70L38 69L39 69L39 68ZM21 69L21 70L22 70L22 69ZM25 69L25 72L28 72L28 69ZM47 69L47 72L50 72L50 69ZM61 69L61 70L62 70L62 69ZM64 69L64 70L66 70L66 69ZM69 69L69 72L72 72L72 69ZM9 70L9 71L10 71L10 70ZM16 70L16 71L17 71L17 70ZM26 70L26 71L27 71L27 70ZM41 70L41 71L42 71L42 70ZM48 70L48 71L49 71L49 70ZM70 70L70 71L71 71L71 70ZM39 71L39 72L40 72L40 71ZM36 72L36 73L38 73L38 72ZM8 73L8 74L9 74L9 75L8 75L8 76L9 76L9 77L10 77L10 76L11 76L11 77L12 77L12 76L11 76L11 75L12 75L12 74L13 74L13 77L15 77L15 76L16 76L16 77L17 77L17 76L18 76L18 77L20 77L20 76L19 76L19 73L18 73L18 74L17 74L17 73L16 73L16 74L15 74L15 73L14 73L14 74L13 74L13 73L12 73L12 74L11 74L11 73ZM56 73L56 74L57 74L57 73ZM10 74L10 75L9 75L9 76L10 76L10 75L11 75L11 74ZM47 74L47 75L48 75L48 74ZM0 0L0 7L7 7L7 0ZM1 1L1 6L6 6L6 1ZM2 2L2 5L5 5L5 2ZM70 0L70 7L77 7L77 0ZM71 1L71 6L76 6L76 1ZM72 2L72 5L75 5L75 2ZM0 70L0 77L7 77L7 70ZM1 71L1 76L6 76L6 71ZM2 72L2 75L5 75L5 72Z" fill="#000000"/></g></g></svg>
