<?xml version="1.0" encoding="UTF-8"?>
<svg xmlns="http://www.w3.org/2000/svg" version="1.1" width="400" height="400" viewBox="0 0 400 400"><rect x="0" y="0" width="400" height="400" fill="#fefefe"/><g transform="scale(4.706)"><g transform="translate(4,4)"><path fill-rule="evenodd" d="M8 0L8 1L9 1L9 0ZM11 0L11 1L12 1L12 0ZM14 0L14 1L15 1L15 0ZM17 0L17 1L19 1L19 2L21 2L21 1L20 1L20 0ZM22 0L22 2L23 2L23 1L24 1L24 0ZM25 0L25 2L24 2L24 3L23 3L23 4L22 4L22 5L23 5L23 4L24 4L24 7L23 7L23 6L22 6L22 7L23 7L23 9L21 9L21 5L20 5L20 3L17 3L17 2L15 2L15 3L14 3L14 2L10 2L10 3L9 3L9 4L8 4L8 7L9 7L9 8L10 8L10 7L11 7L11 9L8 9L8 8L1 8L1 9L0 9L0 10L1 10L1 11L0 11L0 15L1 15L1 11L3 11L3 12L2 12L2 14L3 14L3 15L2 15L2 16L1 16L1 18L3 18L3 17L5 17L5 19L7 19L7 20L6 20L6 21L5 21L5 20L3 20L3 23L2 23L2 24L3 24L3 23L5 23L5 22L6 22L6 23L8 23L8 22L6 22L6 21L7 21L7 20L8 20L8 19L9 19L9 21L10 21L10 19L9 19L9 18L10 18L10 17L9 17L9 16L10 16L10 14L11 14L11 18L12 18L12 19L13 19L13 20L12 20L12 21L11 21L11 22L9 22L9 24L4 24L4 25L1 25L1 26L0 26L0 27L1 27L1 28L3 28L3 29L2 29L2 30L4 30L4 29L7 29L7 30L5 30L5 31L1 31L1 30L0 30L0 31L1 31L1 34L0 34L0 40L2 40L2 42L0 42L0 45L1 45L1 46L0 46L0 52L1 52L1 53L0 53L0 54L2 54L2 55L3 55L3 56L2 56L2 58L1 58L1 57L0 57L0 58L1 58L1 59L2 59L2 58L3 58L3 59L4 59L4 55L7 55L7 56L6 56L6 57L5 57L5 60L3 60L3 61L2 61L2 60L1 60L1 61L2 61L2 63L1 63L1 64L0 64L0 66L1 66L1 67L2 67L2 66L1 66L1 64L4 64L4 65L3 65L3 66L4 66L4 68L1 68L1 69L5 69L5 67L8 67L8 66L9 66L9 67L10 67L10 68L9 68L9 69L8 69L8 68L6 68L6 69L8 69L8 76L9 76L9 77L10 77L10 74L11 74L11 75L12 75L12 76L13 76L13 77L14 77L14 74L16 74L16 76L17 76L17 77L20 77L20 74L18 74L18 73L19 73L19 72L20 72L20 71L19 71L19 72L18 72L18 73L16 73L16 72L17 72L17 71L18 71L18 70L17 70L17 71L16 71L16 72L15 72L15 73L14 73L14 74L13 74L13 73L12 73L12 72L11 72L11 71L12 71L12 70L11 70L11 69L12 69L12 68L14 68L14 69L13 69L13 72L14 72L14 69L15 69L15 70L16 70L16 69L17 69L17 67L16 67L16 66L19 66L19 68L18 68L18 69L19 69L19 70L20 70L20 69L21 69L21 70L22 70L22 69L24 69L24 72L23 72L23 73L22 73L22 75L21 75L21 76L22 76L22 77L29 77L29 75L30 75L30 73L31 73L31 74L32 74L32 75L31 75L31 76L32 76L32 77L34 77L34 76L35 76L35 77L37 77L37 76L39 76L39 77L40 77L40 76L42 76L42 77L45 77L45 76L46 76L46 77L47 77L47 76L46 76L46 75L48 75L48 74L49 74L49 73L52 73L52 74L50 74L50 75L49 75L49 76L48 76L48 77L49 77L49 76L52 76L52 75L53 75L53 73L54 73L54 72L53 72L53 70L51 70L51 69L54 69L54 71L55 71L55 69L54 69L54 68L50 68L50 67L53 67L53 66L54 66L54 65L55 65L55 66L56 66L56 68L57 68L57 69L56 69L56 70L58 70L58 71L56 71L56 73L55 73L55 74L57 74L57 75L56 75L56 76L57 76L57 77L59 77L59 74L60 74L60 77L62 77L62 76L61 76L61 73L62 73L62 72L61 72L61 73L60 73L60 72L59 72L59 73L58 73L58 74L57 74L57 72L58 72L58 71L59 71L59 70L60 70L60 69L62 69L62 68L60 68L60 67L59 67L59 68L58 68L58 67L57 67L57 66L60 66L60 65L61 65L61 67L62 67L62 65L61 65L61 64L59 64L59 65L57 65L57 64L58 64L58 62L59 62L59 61L57 61L57 60L59 60L59 58L60 58L60 59L63 59L63 61L64 61L64 62L63 62L63 64L64 64L64 65L65 65L65 66L63 66L63 73L64 73L64 70L65 70L65 69L67 69L67 70L66 70L66 72L65 72L65 74L66 74L66 73L67 73L67 74L69 74L69 73L72 73L72 75L73 75L73 76L72 76L72 77L74 77L74 76L75 76L75 75L76 75L76 76L77 76L77 75L76 75L76 74L73 74L73 72L75 72L75 73L76 73L76 72L77 72L77 70L76 70L76 72L75 72L75 70L74 70L74 71L73 71L73 68L75 68L75 69L76 69L76 68L77 68L77 67L76 67L76 64L77 64L77 61L75 61L75 63L72 63L72 66L74 66L74 67L72 67L72 68L71 68L71 67L70 67L70 68L69 68L69 66L70 66L70 65L71 65L71 63L70 63L70 62L69 62L69 59L70 59L70 61L71 61L71 59L72 59L72 60L73 60L73 61L72 61L72 62L74 62L74 60L77 60L77 58L73 58L73 59L72 59L72 57L74 57L74 55L75 55L75 54L74 54L74 53L76 53L76 52L77 52L77 49L75 49L75 51L76 51L76 52L73 52L73 50L74 50L74 49L73 49L73 48L74 48L74 47L75 47L75 48L76 48L76 47L75 47L75 46L77 46L77 45L76 45L76 44L77 44L77 43L76 43L76 42L73 42L73 41L74 41L74 40L73 40L73 41L72 41L72 43L71 43L71 44L70 44L70 43L69 43L69 46L68 46L68 44L67 44L67 46L65 46L65 45L66 45L66 44L65 44L65 42L66 42L66 41L69 41L69 40L67 40L67 39L66 39L66 40L65 40L65 38L62 38L62 37L65 37L65 36L64 36L64 34L63 34L63 33L62 33L62 32L61 32L61 30L60 30L60 31L59 31L59 32L58 32L58 31L57 31L57 29L58 29L58 28L59 28L59 29L61 29L61 27L60 27L60 28L59 28L59 26L62 26L62 27L64 27L64 26L62 26L62 24L63 24L63 25L65 25L65 26L66 26L66 25L67 25L67 27L68 27L68 28L62 28L62 31L63 31L63 32L64 32L64 33L65 33L65 34L66 34L66 35L67 35L67 37L66 37L66 38L67 38L67 37L69 37L69 38L70 38L70 40L71 40L71 38L72 38L72 39L73 39L73 38L72 38L72 36L73 36L73 35L74 35L74 37L75 37L75 36L77 36L77 33L75 33L75 34L73 34L73 33L74 33L74 31L76 31L76 32L77 32L77 31L76 31L76 30L77 30L77 27L75 27L75 26L76 26L76 24L77 24L77 22L76 22L76 24L75 24L75 26L73 26L73 24L72 24L72 23L75 23L75 22L73 22L73 21L74 21L74 19L76 19L76 20L77 20L77 19L76 19L76 16L77 16L77 15L76 15L76 13L75 13L75 14L74 14L74 15L75 15L75 18L74 18L74 17L72 17L72 15L73 15L73 13L74 13L74 12L75 12L75 10L77 10L77 8L76 8L76 9L75 9L75 10L73 10L73 8L71 8L71 10L70 10L70 9L69 9L69 6L68 6L68 9L69 9L69 10L67 10L67 11L68 11L68 13L69 13L69 12L71 12L71 13L72 13L72 14L71 14L71 15L70 15L70 14L67 14L67 13L64 13L64 14L63 14L63 16L64 16L64 17L66 17L66 19L68 19L68 23L69 23L69 24L68 24L68 25L67 25L67 23L66 23L66 22L67 22L67 20L65 20L65 19L64 19L64 18L63 18L63 17L62 17L62 16L61 16L61 15L62 15L62 13L61 13L61 9L63 9L63 8L64 8L64 7L65 7L65 4L64 4L64 3L65 3L65 1L66 1L66 2L67 2L67 1L66 1L66 0L65 0L65 1L63 1L63 0L60 0L60 2L61 2L61 1L62 1L62 3L61 3L61 4L59 4L59 3L58 3L58 2L57 2L57 0L55 0L55 1L53 1L53 2L55 2L55 3L53 3L53 4L54 4L54 8L51 8L51 6L52 6L52 7L53 7L53 6L52 6L52 4L51 4L51 3L50 3L50 4L47 4L47 2L46 2L46 3L45 3L45 4L44 4L44 5L45 5L45 6L44 6L44 7L45 7L45 6L46 6L46 9L44 9L44 10L45 10L45 12L46 12L46 13L44 13L44 11L43 11L43 9L41 9L41 8L43 8L43 4L42 4L42 3L43 3L43 1L47 1L47 0L43 0L43 1L42 1L42 0L40 0L40 1L39 1L39 0L38 0L38 1L36 1L36 0L35 0L35 1L36 1L36 2L38 2L38 5L37 5L37 3L35 3L35 4L34 4L34 3L33 3L33 2L32 2L32 3L31 3L31 2L30 2L30 4L27 4L27 3L28 3L28 1L31 1L31 0ZM33 0L33 1L34 1L34 0ZM48 0L48 2L50 2L50 1L51 1L51 2L52 2L52 1L51 1L51 0ZM26 1L26 2L27 2L27 1ZM55 1L55 2L56 2L56 3L55 3L55 7L56 7L56 3L57 3L57 2L56 2L56 1ZM68 1L68 4L66 4L66 7L67 7L67 5L69 5L69 1ZM40 2L40 3L39 3L39 5L38 5L38 6L37 6L37 5L36 5L36 4L35 4L35 5L34 5L34 4L30 4L30 5L29 5L29 8L30 8L30 5L32 5L32 6L31 6L31 8L32 8L32 6L33 6L33 7L34 7L34 6L35 6L35 8L33 8L33 9L32 9L32 10L33 10L33 9L34 9L34 10L35 10L35 11L36 11L36 12L34 12L34 11L33 11L33 12L32 12L32 13L33 13L33 15L32 15L32 14L31 14L31 13L29 13L29 14L31 14L31 16L29 16L29 15L28 15L28 14L27 14L27 16L26 16L26 19L25 19L25 16L24 16L24 17L21 17L21 16L22 16L22 14L23 14L23 15L24 15L24 14L25 14L25 15L26 15L26 14L25 14L25 13L24 13L24 14L23 14L23 13L22 13L22 12L26 12L26 13L27 13L27 10L29 10L29 11L30 11L30 12L31 12L31 10L30 10L30 9L24 9L24 10L25 10L25 11L21 11L21 9L20 9L20 6L19 6L19 4L16 4L16 3L15 3L15 4L12 4L12 3L11 3L11 4L9 4L9 5L10 5L10 6L9 6L9 7L10 7L10 6L11 6L11 7L12 7L12 8L14 8L14 9L11 9L11 11L10 11L10 10L8 10L8 9L6 9L6 10L5 10L5 9L4 9L4 12L3 12L3 13L5 13L5 14L7 14L7 15L5 15L5 17L6 17L6 18L9 18L9 17L6 17L6 16L7 16L7 15L9 15L9 14L10 14L10 13L5 13L5 12L7 12L7 11L6 11L6 10L8 10L8 11L10 11L10 12L11 12L11 13L12 13L12 14L13 14L13 13L12 13L12 12L13 12L13 10L14 10L14 11L15 11L15 12L14 12L14 13L15 13L15 14L16 14L16 15L17 15L17 16L16 16L16 17L15 17L15 15L13 15L13 16L14 16L14 18L13 18L13 17L12 17L12 18L13 18L13 19L14 19L14 18L15 18L15 20L13 20L13 22L15 22L15 23L13 23L13 24L12 24L12 22L11 22L11 23L10 23L10 24L9 24L9 26L10 26L10 27L9 27L9 28L10 28L10 29L8 29L8 30L9 30L9 32L8 32L8 33L6 33L6 32L7 32L7 31L5 31L5 32L2 32L2 33L6 33L6 34L5 34L5 35L4 35L4 34L3 34L3 35L4 35L4 36L2 36L2 37L5 37L5 38L7 38L7 39L6 39L6 40L5 40L5 39L4 39L4 38L2 38L2 39L3 39L3 40L4 40L4 43L1 43L1 45L2 45L2 46L4 46L4 45L6 45L6 46L7 46L7 45L8 45L8 46L9 46L9 48L11 48L11 49L10 49L10 50L9 50L9 51L15 51L15 53L16 53L16 54L14 54L14 55L13 55L13 53L14 53L14 52L8 52L8 51L6 51L6 52L8 52L8 53L4 53L4 52L3 52L3 51L4 51L4 50L3 50L3 49L1 49L1 52L2 52L2 53L3 53L3 54L7 54L7 55L10 55L10 56L9 56L9 57L10 57L10 56L11 56L11 57L12 57L12 58L10 58L10 59L12 59L12 58L13 58L13 57L12 57L12 56L11 56L11 54L12 54L12 55L13 55L13 56L15 56L15 58L14 58L14 59L15 59L15 60L11 60L11 61L15 61L15 62L13 62L13 63L12 63L12 62L10 62L10 63L9 63L9 61L8 61L8 59L9 59L9 58L8 58L8 57L6 57L6 58L7 58L7 59L6 59L6 60L5 60L5 61L4 61L4 64L5 64L5 62L7 62L7 63L6 63L6 64L7 64L7 65L6 65L6 66L7 66L7 65L9 65L9 66L10 66L10 65L12 65L12 67L11 67L11 68L10 68L10 69L9 69L9 70L10 70L10 71L11 71L11 70L10 70L10 69L11 69L11 68L12 68L12 67L13 67L13 66L14 66L14 67L15 67L15 68L16 68L16 67L15 67L15 66L16 66L16 64L17 64L17 62L18 62L18 61L19 61L19 63L20 63L20 61L19 61L19 58L18 58L18 60L17 60L17 59L16 59L16 58L17 58L17 56L18 56L18 57L20 57L20 55L21 55L21 56L22 56L22 57L21 57L21 59L20 59L20 60L22 60L22 59L23 59L23 62L24 62L24 64L25 64L25 61L26 61L26 64L27 64L27 66L26 66L26 65L21 65L21 66L20 66L20 64L19 64L19 66L20 66L20 67L21 67L21 66L22 66L22 68L21 68L21 69L22 69L22 68L23 68L23 66L25 66L25 67L24 67L24 68L25 68L25 67L27 67L27 68L29 68L29 69L30 69L30 68L31 68L31 67L32 67L32 68L33 68L33 65L34 65L34 66L35 66L35 64L36 64L36 65L37 65L37 66L36 66L36 69L37 69L37 71L36 71L36 70L35 70L35 67L34 67L34 70L33 70L33 69L32 69L32 70L30 70L30 71L31 71L31 72L32 72L32 73L33 73L33 75L36 75L36 73L38 73L38 72L37 72L37 71L39 71L39 70L40 70L40 68L41 68L41 71L40 71L40 72L39 72L39 74L40 74L40 75L39 75L39 76L40 76L40 75L44 75L44 76L45 76L45 75L46 75L46 74L47 74L47 73L45 73L45 71L46 71L46 70L44 70L44 68L45 68L45 69L46 69L46 68L45 68L45 66L46 66L46 67L47 67L47 68L49 68L49 67L50 67L50 66L52 66L52 65L53 65L53 64L56 64L56 62L57 62L57 61L56 61L56 60L55 60L55 59L56 59L56 58L55 58L55 57L53 57L53 56L56 56L56 57L58 57L58 58L57 58L57 59L58 59L58 58L59 58L59 57L58 57L58 56L60 56L60 57L61 57L61 56L62 56L62 53L66 53L66 54L65 54L65 55L63 55L63 56L64 56L64 57L62 57L62 58L64 58L64 59L65 59L65 61L67 61L67 62L66 62L66 63L65 63L65 64L66 64L66 66L65 66L65 68L64 68L64 69L65 69L65 68L67 68L67 69L68 69L68 68L67 68L67 67L68 67L68 65L70 65L70 64L66 64L66 63L67 63L67 62L68 62L68 63L69 63L69 62L68 62L68 58L69 58L69 56L70 56L70 59L71 59L71 56L70 56L70 55L74 55L74 54L71 54L71 53L73 53L73 52L70 52L70 55L68 55L68 56L67 56L67 55L66 55L66 54L68 54L68 50L67 50L67 47L68 47L68 46L67 46L67 47L65 47L65 48L66 48L66 49L64 49L64 48L63 48L63 47L60 47L60 46L61 46L61 45L62 45L62 46L63 46L63 45L62 45L62 43L63 43L63 44L64 44L64 45L65 45L65 44L64 44L64 43L63 43L63 42L64 42L64 41L65 41L65 40L63 40L63 39L61 39L61 40L59 40L59 39L60 39L60 38L59 38L59 37L61 37L61 36L62 36L62 34L61 34L61 35L60 35L60 34L57 34L57 33L56 33L56 34L55 34L55 32L56 32L56 30L55 30L55 31L54 31L54 29L57 29L57 28L56 28L56 26L55 26L55 25L57 25L57 26L58 26L58 25L59 25L59 24L60 24L60 25L61 25L61 24L62 24L62 21L65 21L65 20L64 20L64 19L63 19L63 20L62 20L62 18L61 18L61 20L62 20L62 21L61 21L61 22L59 22L59 21L60 21L60 17L59 17L59 15L60 15L60 14L58 14L58 13L60 13L60 10L59 10L59 9L58 9L58 8L56 8L56 9L58 9L58 10L59 10L59 12L57 12L57 13L56 13L56 12L54 12L54 9L53 9L53 13L52 13L52 12L51 12L51 11L50 11L50 9L46 9L46 10L47 10L47 11L48 11L48 12L47 12L47 14L46 14L46 16L47 16L47 17L41 17L41 18L40 18L40 14L41 14L41 15L42 15L42 16L43 16L43 15L42 15L42 11L41 11L41 9L39 9L39 8L41 8L41 7L42 7L42 6L41 6L41 7L40 7L40 6L39 6L39 5L40 5L40 4L41 4L41 2ZM24 3L24 4L25 4L25 3ZM62 3L62 4L61 4L61 5L59 5L59 4L58 4L58 6L57 6L57 7L58 7L58 6L59 6L59 8L60 8L60 9L61 9L61 8L63 8L63 7L64 7L64 6L63 6L63 7L62 7L62 4L63 4L63 3ZM45 4L45 5L46 5L46 4ZM11 5L11 6L12 6L12 7L13 7L13 6L12 6L12 5ZM14 5L14 7L15 7L15 8L16 8L16 10L15 10L15 9L14 9L14 10L15 10L15 11L16 11L16 12L15 12L15 13L16 13L16 14L17 14L17 15L18 15L18 16L17 16L17 18L16 18L16 20L15 20L15 21L16 21L16 22L17 22L17 23L15 23L15 24L14 24L14 25L13 25L13 26L11 26L11 25L12 25L12 24L11 24L11 25L10 25L10 26L11 26L11 27L10 27L10 28L11 28L11 29L10 29L10 30L11 30L11 31L10 31L10 32L9 32L9 33L8 33L8 34L9 34L9 35L8 35L8 38L11 38L11 37L12 37L12 38L17 38L17 37L14 37L14 36L18 36L18 38L19 38L19 39L14 39L14 40L13 40L13 41L14 41L14 42L15 42L15 43L13 43L13 42L11 42L11 41L12 41L12 39L10 39L10 43L12 43L12 45L10 45L10 44L9 44L9 43L8 43L8 45L9 45L9 46L11 46L11 48L12 48L12 49L11 49L11 50L13 50L13 49L14 49L14 50L15 50L15 51L16 51L16 53L17 53L17 54L18 54L18 55L20 55L20 54L21 54L21 55L24 55L24 56L25 56L25 55L27 55L27 57L22 57L22 58L23 58L23 59L27 59L27 61L28 61L28 57L30 57L30 58L31 58L31 61L30 61L30 60L29 60L29 61L30 61L30 62L33 62L33 63L35 63L35 62L34 62L34 61L37 61L37 59L38 59L38 58L39 58L39 55L41 55L41 56L40 56L40 59L41 59L41 61L42 61L42 62L41 62L41 63L40 63L40 62L39 62L39 61L38 61L38 64L37 64L37 65L38 65L38 66L37 66L37 67L38 67L38 68L37 68L37 69L39 69L39 68L40 68L40 67L39 67L39 65L38 65L38 64L40 64L40 65L42 65L42 64L44 64L44 63L42 63L42 62L43 62L43 59L42 59L42 58L45 58L45 57L47 57L47 58L46 58L46 59L44 59L44 61L46 61L46 62L47 62L47 61L48 61L48 65L46 65L46 64L47 64L47 63L46 63L46 64L45 64L45 65L46 65L46 66L49 66L49 63L50 63L50 64L51 64L51 63L52 63L52 64L53 64L53 63L52 63L52 62L51 62L51 60L52 60L52 61L53 61L53 62L56 62L56 61L53 61L53 57L52 57L52 56L53 56L53 53L51 53L51 52L53 52L53 50L51 50L51 49L54 49L54 48L55 48L55 50L56 50L56 52L57 52L57 53L56 53L56 56L58 56L58 55L59 55L59 54L61 54L61 53L62 53L62 52L65 52L65 51L66 51L66 52L67 52L67 50L63 50L63 49L62 49L62 48L61 48L61 50L62 50L62 52L61 52L61 51L60 51L60 52L59 52L59 51L58 51L58 49L59 49L59 50L60 50L60 49L59 49L59 47L57 47L57 46L59 46L59 45L57 45L57 44L59 44L59 41L58 41L58 42L56 42L56 41L57 41L57 40L58 40L58 39L59 39L59 38L58 38L58 37L59 37L59 35L57 35L57 34L56 34L56 35L55 35L55 34L53 34L53 32L50 32L50 31L53 31L53 29L51 29L51 28L53 28L53 27L52 27L52 26L53 26L53 25L54 25L54 24L55 24L55 22L54 22L54 24L53 24L53 23L52 23L52 21L50 21L50 20L48 20L48 22L49 22L49 23L47 23L47 21L46 21L46 22L45 22L45 21L42 21L42 20L43 20L43 19L44 19L44 20L46 20L46 19L49 19L49 18L48 18L48 17L47 17L47 18L46 18L46 19L44 19L44 18L43 18L43 19L42 19L42 20L41 20L41 24L39 24L39 22L38 22L38 24L37 24L37 23L36 23L36 22L35 22L35 21L37 21L37 20L38 20L38 21L40 21L40 20L39 20L39 19L38 19L38 18L37 18L37 19L36 19L36 17L37 17L37 16L38 16L38 17L39 17L39 16L38 16L38 15L37 15L37 16L36 16L36 17L35 17L35 15L33 15L33 16L34 16L34 18L33 18L33 17L32 17L32 16L31 16L31 17L30 17L30 19L29 19L29 20L28 20L28 19L26 19L26 20L25 20L25 19L24 19L24 18L22 18L22 19L21 19L21 18L20 18L20 16L19 16L19 15L21 15L21 11L20 11L20 10L18 10L18 11L20 11L20 14L19 14L19 13L16 13L16 12L17 12L17 8L19 8L19 6L18 6L18 7L17 7L17 5ZM25 5L25 8L28 8L28 5ZM47 5L47 8L50 8L50 5ZM15 6L15 7L16 7L16 8L17 8L17 7L16 7L16 6ZM26 6L26 7L27 7L27 6ZM36 6L36 7L37 7L37 8L39 8L39 6L38 6L38 7L37 7L37 6ZM48 6L48 7L49 7L49 6ZM60 6L60 7L61 7L61 6ZM35 8L35 10L36 10L36 11L37 11L37 13L36 13L36 14L37 14L37 13L38 13L38 14L39 14L39 13L40 13L40 12L41 12L41 11L40 11L40 12L39 12L39 11L38 11L38 10L39 10L39 9L38 9L38 10L37 10L37 9L36 9L36 8ZM65 8L65 9L64 9L64 10L62 10L62 12L64 12L64 11L65 11L65 10L66 10L66 9L67 9L67 8ZM1 9L1 10L2 10L2 9ZM51 9L51 10L52 10L52 9ZM48 10L48 11L49 11L49 10ZM55 10L55 11L56 11L56 10ZM71 10L71 11L73 11L73 10ZM76 11L76 12L77 12L77 11ZM50 12L50 13L49 13L49 14L47 14L47 16L48 16L48 15L51 15L51 16L49 16L49 17L50 17L50 19L52 19L52 18L54 18L54 17L56 17L56 15L55 15L55 14L56 14L56 13L55 13L55 14L53 14L53 15L52 15L52 14L50 14L50 13L51 13L51 12ZM72 12L72 13L73 13L73 12ZM43 13L43 14L44 14L44 16L45 16L45 14L44 14L44 13ZM65 14L65 16L66 16L66 17L68 17L68 15L66 15L66 14ZM53 15L53 16L54 16L54 15ZM57 15L57 16L58 16L58 15ZM69 15L69 16L70 16L70 17L69 17L69 18L68 18L68 19L69 19L69 20L70 20L70 21L71 21L71 22L70 22L70 24L71 24L71 23L72 23L72 21L73 21L73 20L72 20L72 17L71 17L71 16L70 16L70 15ZM18 16L18 19L20 19L20 18L19 18L19 16ZM27 16L27 18L28 18L28 16ZM31 17L31 19L30 19L30 21L31 21L31 20L32 20L32 23L31 23L31 22L30 22L30 24L32 24L32 25L31 25L31 26L32 26L32 28L31 28L31 27L30 27L30 28L29 28L29 29L24 29L24 30L23 30L23 31L24 31L24 30L25 30L25 31L26 31L26 32L25 32L25 33L24 33L24 32L22 32L22 31L20 31L20 30L22 30L22 29L23 29L23 27L24 27L24 24L28 24L28 23L29 23L29 22L28 22L28 23L26 23L26 21L27 21L27 20L26 20L26 21L25 21L25 20L21 20L21 22L19 22L19 24L18 24L18 23L17 23L17 24L16 24L16 25L15 25L15 26L16 26L16 27L14 27L14 26L13 26L13 27L11 27L11 28L12 28L12 29L13 29L13 30L15 30L15 31L14 31L14 32L13 32L13 31L11 31L11 32L12 32L12 33L14 33L14 35L13 35L13 34L12 34L12 35L13 35L13 36L12 36L12 37L13 37L13 36L14 36L14 35L15 35L15 34L16 34L16 33L15 33L15 31L16 31L16 32L17 32L17 33L18 33L18 36L19 36L19 37L20 37L20 36L22 36L22 37L21 37L21 39L20 39L20 41L19 41L19 43L20 43L20 44L18 44L18 42L17 42L17 40L15 40L15 41L16 41L16 42L17 42L17 43L16 43L16 45L17 45L17 46L16 46L16 47L15 47L15 45L14 45L14 44L13 44L13 46L12 46L12 47L13 47L13 48L14 48L14 47L15 47L15 49L17 49L17 52L18 52L18 51L21 51L21 53L23 53L23 54L24 54L24 53L26 53L26 52L27 52L27 53L28 53L28 56L29 56L29 54L30 54L30 56L31 56L31 58L32 58L32 57L33 57L33 58L34 58L34 59L32 59L32 61L34 61L34 60L36 60L36 59L35 59L35 58L38 58L38 55L37 55L37 54L35 54L35 55L34 55L34 56L32 56L32 55L33 55L33 54L34 54L34 53L35 53L35 52L34 52L34 51L35 51L35 49L36 49L36 50L38 50L38 51L39 51L39 52L37 52L37 53L38 53L38 54L40 54L40 53L41 53L41 55L42 55L42 53L43 53L43 52L44 52L44 53L45 53L45 54L44 54L44 55L43 55L43 56L42 56L42 57L41 57L41 58L42 58L42 57L44 57L44 55L45 55L45 56L47 56L47 57L48 57L48 58L47 58L47 59L48 59L48 58L49 58L49 62L50 62L50 63L51 63L51 62L50 62L50 60L51 60L51 59L50 59L50 56L51 56L51 55L49 55L49 56L47 56L47 55L48 55L48 54L50 54L50 52L48 52L48 51L47 51L47 52L46 52L46 50L44 50L44 51L43 51L43 49L42 49L42 50L41 50L41 49L40 49L40 48L42 48L42 44L43 44L43 43L42 43L42 41L43 41L43 42L44 42L44 44L45 44L45 46L43 46L43 48L44 48L44 49L46 49L46 47L45 47L45 46L49 46L49 45L50 45L50 46L51 46L51 43L50 43L50 44L49 44L49 45L47 45L47 44L48 44L48 41L47 41L47 42L44 42L44 41L46 41L46 40L47 40L47 39L48 39L48 40L49 40L49 41L50 41L50 42L51 42L51 41L52 41L52 42L53 42L53 43L52 43L52 45L54 45L54 44L55 44L55 45L56 45L56 46L55 46L55 48L56 48L56 49L57 49L57 47L56 47L56 46L57 46L57 45L56 45L56 44L55 44L55 43L56 43L56 42L55 42L55 41L56 41L56 37L57 37L57 36L56 36L56 37L53 37L53 38L52 38L52 37L51 37L51 38L52 38L52 39L51 39L51 40L50 40L50 35L51 35L51 36L54 36L54 35L53 35L53 34L52 34L52 33L51 33L51 34L48 34L48 33L50 33L50 32L49 32L49 31L50 31L50 29L49 29L49 31L48 31L48 29L47 29L47 30L43 30L43 27L42 27L42 31L41 31L41 29L40 29L40 28L41 28L41 27L39 27L39 26L40 26L40 25L39 25L39 24L38 24L38 28L37 28L37 27L36 27L36 28L37 28L37 30L38 30L38 32L37 32L37 33L38 33L38 34L37 34L37 36L38 36L38 35L39 35L39 38L40 38L40 39L39 39L39 43L40 43L40 42L41 42L41 44L40 44L40 45L37 45L37 46L40 46L40 47L39 47L39 49L40 49L40 51L39 51L39 50L38 50L38 48L37 48L37 47L36 47L36 48L35 48L35 46L34 46L34 47L33 47L33 46L32 46L32 45L34 45L34 42L35 42L35 44L36 44L36 42L35 42L35 41L36 41L36 39L35 39L35 38L34 38L34 37L35 37L35 36L36 36L36 34L35 34L35 30L36 30L36 29L35 29L35 30L34 30L34 28L35 28L35 27L34 27L34 24L35 24L35 25L36 25L36 26L37 26L37 24L36 24L36 23L35 23L35 22L34 22L34 19L35 19L35 18L34 18L34 19L33 19L33 18L32 18L32 17ZM51 17L51 18L52 18L52 17ZM57 17L57 19L56 19L56 23L57 23L57 24L58 24L58 23L59 23L59 22L58 22L58 23L57 23L57 21L59 21L59 20L58 20L58 18L59 18L59 17ZM70 17L70 19L71 19L71 17ZM0 20L0 24L1 24L1 22L2 22L2 20ZM18 20L18 21L19 21L19 20ZM53 20L53 21L54 21L54 20ZM71 20L71 21L72 21L72 20ZM23 21L23 22L21 22L21 23L20 23L20 24L19 24L19 25L18 25L18 24L17 24L17 25L16 25L16 26L17 26L17 28L16 28L16 29L15 29L15 28L14 28L14 27L13 27L13 29L15 29L15 30L16 30L16 29L18 29L18 28L19 28L19 26L20 26L20 29L19 29L19 30L20 30L20 29L22 29L22 25L20 25L20 24L21 24L21 23L23 23L23 24L24 24L24 22L25 22L25 21ZM33 22L33 23L32 23L32 24L33 24L33 23L34 23L34 22ZM42 22L42 23L43 23L43 25L42 25L42 26L44 26L44 28L46 28L46 25L44 25L44 23L45 23L45 22L44 22L44 23L43 23L43 22ZM50 22L50 23L49 23L49 24L52 24L52 25L51 25L51 26L52 26L52 25L53 25L53 24L52 24L52 23L51 23L51 22ZM64 22L64 23L63 23L63 24L64 24L64 23L65 23L65 24L66 24L66 23L65 23L65 22ZM5 25L5 28L8 28L8 25ZM17 25L17 26L18 26L18 25ZM25 25L25 28L28 28L28 25ZM32 25L32 26L33 26L33 25ZM47 25L47 28L50 28L50 25ZM69 25L69 28L72 28L72 25ZM2 26L2 27L3 27L3 28L4 28L4 26ZM6 26L6 27L7 27L7 26ZM26 26L26 27L27 27L27 26ZM48 26L48 27L49 27L49 26ZM70 26L70 27L71 27L71 26ZM33 27L33 28L32 28L32 29L31 29L31 28L30 28L30 29L29 29L29 30L27 30L27 31L28 31L28 32L26 32L26 33L30 33L30 34L29 34L29 35L28 35L28 34L27 34L27 35L28 35L28 36L27 36L27 37L25 37L25 36L26 36L26 34L25 34L25 36L23 36L23 34L24 34L24 33L23 33L23 34L22 34L22 32L21 32L21 34L22 34L22 36L23 36L23 37L24 37L24 38L25 38L25 40L24 40L24 39L23 39L23 40L24 40L24 42L23 42L23 43L24 43L24 42L25 42L25 41L26 41L26 43L25 43L25 44L22 44L22 43L21 43L21 42L22 42L22 41L21 41L21 42L20 42L20 43L21 43L21 44L20 44L20 46L23 46L23 47L20 47L20 49L19 49L19 50L24 50L24 51L25 51L25 52L26 52L26 51L27 51L27 52L28 52L28 53L29 53L29 52L30 52L30 50L31 50L31 52L32 52L32 53L30 53L30 54L31 54L31 55L32 55L32 53L33 53L33 51L32 51L32 50L33 50L33 49L34 49L34 48L32 48L32 49L31 49L31 48L30 48L30 47L32 47L32 46L30 46L30 47L29 47L29 46L28 46L28 44L27 44L27 46L24 46L24 45L25 45L25 44L26 44L26 43L31 43L31 44L32 44L32 42L33 42L33 41L35 41L35 39L34 39L34 40L33 40L33 41L31 41L31 42L29 42L29 40L28 40L28 42L27 42L27 39L26 39L26 38L27 38L27 37L28 37L28 36L29 36L29 35L31 35L31 34L32 34L32 36L31 36L31 37L32 37L32 38L33 38L33 37L34 37L34 35L35 35L35 34L33 34L33 33L34 33L34 32L31 32L31 30L33 30L33 31L34 31L34 30L33 30L33 28L34 28L34 27ZM54 27L54 28L55 28L55 27ZM38 28L38 29L39 29L39 28ZM74 28L74 30L73 30L73 29L68 29L68 30L67 30L67 29L63 29L63 30L67 30L67 32L66 32L66 31L65 31L65 32L66 32L66 34L68 34L68 35L69 35L69 33L70 33L70 35L71 35L71 34L72 34L72 33L73 33L73 31L74 31L74 30L76 30L76 29L75 29L75 28ZM30 29L30 30L29 30L29 32L30 32L30 30L31 30L31 29ZM17 30L17 31L18 31L18 32L19 32L19 31L18 31L18 30ZM69 30L69 31L70 31L70 32L71 32L71 33L72 33L72 31L73 31L73 30ZM39 31L39 32L38 32L38 33L39 33L39 32L41 32L41 31ZM42 31L42 35L41 35L41 34L39 34L39 35L41 35L41 36L40 36L40 37L41 37L41 36L42 36L42 35L44 35L44 37L42 37L42 38L46 38L46 36L47 36L47 37L48 37L48 36L49 36L49 35L48 35L48 36L47 36L47 35L46 35L46 32L47 32L47 33L48 33L48 31L46 31L46 32L45 32L45 31L44 31L44 32L43 32L43 31ZM59 32L59 33L61 33L61 32ZM68 32L68 33L69 33L69 32ZM9 33L9 34L10 34L10 33ZM19 33L19 34L20 34L20 33ZM43 33L43 34L44 34L44 35L45 35L45 33ZM1 34L1 35L2 35L2 34ZM6 34L6 35L7 35L7 34ZM51 34L51 35L52 35L52 34ZM75 34L75 35L76 35L76 34ZM19 35L19 36L20 36L20 35ZM6 36L6 37L7 37L7 36ZM9 36L9 37L10 37L10 36ZM32 36L32 37L33 37L33 36ZM70 37L70 38L71 38L71 37ZM30 38L30 39L31 39L31 40L32 40L32 39L31 39L31 38ZM37 38L37 40L38 40L38 38ZM53 38L53 39L54 39L54 40L53 40L53 41L54 41L54 40L55 40L55 38ZM76 38L76 40L75 40L75 41L76 41L76 40L77 40L77 38ZM7 39L7 40L6 40L6 41L9 41L9 39ZM21 39L21 40L22 40L22 39ZM41 39L41 40L40 40L40 41L42 41L42 39ZM43 39L43 40L46 40L46 39ZM61 40L61 41L63 41L63 40ZM37 41L37 42L38 42L38 41ZM6 42L6 43L5 43L5 44L6 44L6 45L7 45L7 44L6 44L6 43L7 43L7 42ZM60 42L60 43L61 43L61 42ZM37 43L37 44L38 44L38 43ZM45 43L45 44L47 44L47 43ZM72 43L72 45L70 45L70 46L73 46L73 47L74 47L74 46L75 46L75 44L76 44L76 43L75 43L75 44L74 44L74 46L73 46L73 43ZM2 44L2 45L3 45L3 44ZM17 44L17 45L18 45L18 44ZM60 44L60 45L61 45L61 44ZM40 45L40 46L41 46L41 45ZM17 46L17 47L16 47L16 48L17 48L17 49L18 49L18 48L17 48L17 47L18 47L18 46ZM52 46L52 47L51 47L51 48L54 48L54 47L53 47L53 46ZM1 47L1 48L2 48L2 47ZM3 47L3 48L4 48L4 47ZM5 47L5 50L8 50L8 47ZM23 47L23 48L24 48L24 47ZM25 47L25 50L28 50L28 47ZM47 47L47 50L50 50L50 47ZM69 47L69 50L72 50L72 47ZM6 48L6 49L7 49L7 48ZM21 48L21 49L22 49L22 48ZM26 48L26 49L27 49L27 48ZM29 48L29 49L30 49L30 48ZM36 48L36 49L37 49L37 48ZM48 48L48 49L49 49L49 48ZM70 48L70 49L71 49L71 48ZM2 50L2 51L3 51L3 50ZM42 51L42 52L43 52L43 51ZM54 51L54 52L55 52L55 51ZM23 52L23 53L24 53L24 52ZM39 52L39 53L40 53L40 52ZM45 52L45 53L46 53L46 54L45 54L45 55L46 55L46 54L48 54L48 52L47 52L47 53L46 53L46 52ZM60 52L60 53L61 53L61 52ZM8 53L8 54L9 54L9 53ZM19 53L19 54L20 54L20 53ZM54 53L54 55L55 55L55 53ZM76 54L76 56L75 56L75 57L76 57L76 56L77 56L77 54ZM0 55L0 56L1 56L1 55ZM15 55L15 56L17 56L17 55ZM35 56L35 57L34 57L34 58L35 58L35 57L36 57L36 56ZM65 56L65 57L64 57L64 58L66 58L66 57L67 57L67 56ZM51 57L51 58L52 58L52 57ZM54 58L54 59L55 59L55 58ZM6 60L6 61L7 61L7 60ZM15 60L15 61L17 61L17 60ZM24 60L24 61L25 61L25 60ZM21 61L21 62L22 62L22 61ZM61 61L61 62L60 62L60 63L62 63L62 61ZM15 62L15 63L13 63L13 65L14 65L14 66L15 66L15 65L14 65L14 64L15 64L15 63L16 63L16 62ZM28 62L28 63L29 63L29 62ZM36 62L36 63L37 63L37 62ZM7 63L7 64L8 64L8 63ZM10 63L10 64L9 64L9 65L10 65L10 64L12 64L12 63ZM21 63L21 64L23 64L23 63ZM30 63L30 64L31 64L31 65L32 65L32 64L31 64L31 63ZM75 63L75 64L74 64L74 66L75 66L75 64L76 64L76 63ZM28 64L28 66L27 66L27 67L29 67L29 66L30 66L30 65L29 65L29 64ZM56 65L56 66L57 66L57 65ZM41 66L41 68L42 68L42 70L43 70L43 71L42 71L42 72L43 72L43 71L44 71L44 70L43 70L43 68L44 68L44 66ZM66 66L66 67L67 67L67 66ZM19 68L19 69L20 69L20 68ZM59 68L59 69L58 69L58 70L59 70L59 69L60 69L60 68ZM25 69L25 72L28 72L28 69ZM47 69L47 72L50 72L50 69ZM69 69L69 72L72 72L72 69ZM26 70L26 71L27 71L27 70ZM32 70L32 72L34 72L34 73L36 73L36 71L33 71L33 70ZM48 70L48 71L49 71L49 70ZM67 70L67 71L68 71L68 70ZM70 70L70 71L71 71L71 70ZM21 71L21 72L22 72L22 71ZM10 72L10 73L9 73L9 74L10 74L10 73L11 73L11 72ZM40 72L40 73L41 73L41 72ZM52 72L52 73L53 73L53 72ZM24 73L24 74L23 74L23 76L24 76L24 74L25 74L25 75L26 75L26 76L28 76L28 75L29 75L29 73L28 73L28 74L25 74L25 73ZM44 73L44 74L45 74L45 73ZM12 74L12 75L13 75L13 74ZM17 74L17 76L19 76L19 75L18 75L18 74ZM63 74L63 77L68 77L68 76L64 76L64 74ZM0 0L0 7L7 7L7 0ZM1 1L1 6L6 6L6 1ZM2 2L2 5L5 5L5 2ZM70 0L70 7L77 7L77 0ZM71 1L71 6L76 6L76 1ZM72 2L72 5L75 5L75 2ZM0 70L0 77L7 77L7 70ZM1 71L1 76L6 76L6 71ZM2 72L2 75L5 75L5 72Z" fill="#000000"/></g></g></svg>
