<?xml version="1.0" encoding="UTF-8"?>
<svg xmlns="http://www.w3.org/2000/svg" version="1.1" width="400" height="400" viewBox="0 0 400 400"><rect x="0" y="0" width="400" height="400" fill="#fefefe"/><g transform="scale(6.557)"><g transform="translate(4,4)"><path fill-rule="evenodd" d="M9 0L9 1L8 1L8 2L11 2L11 3L8 3L8 4L9 4L9 5L8 5L8 7L9 7L9 5L10 5L10 7L11 7L11 5L15 5L15 6L14 6L14 7L13 7L13 6L12 6L12 7L13 7L13 8L11 8L11 9L9 9L9 8L6 8L6 9L5 9L5 8L0 8L0 9L2 9L2 11L3 11L3 12L0 12L0 13L3 13L3 14L2 14L2 15L1 15L1 14L0 14L0 15L1 15L1 16L0 16L0 17L1 17L1 18L2 18L2 17L1 17L1 16L2 16L2 15L3 15L3 14L4 14L4 16L3 16L3 18L4 18L4 19L1 19L1 20L0 20L0 22L2 22L2 20L3 20L3 22L4 22L4 23L5 23L5 22L6 22L6 23L7 23L7 22L6 22L6 21L7 21L7 20L4 20L4 19L7 19L7 18L8 18L8 19L9 19L9 20L8 20L8 22L10 22L10 21L12 21L12 23L10 23L10 24L9 24L9 23L8 23L8 24L2 24L2 23L1 23L1 24L0 24L0 25L1 25L1 26L0 26L0 27L2 27L2 28L1 28L1 29L2 29L2 30L1 30L1 31L2 31L2 30L3 30L3 32L5 32L5 33L2 33L2 32L0 32L0 36L1 36L1 35L2 35L2 34L3 34L3 35L4 35L4 36L5 36L5 35L4 35L4 34L5 34L5 33L7 33L7 34L6 34L6 35L8 35L8 33L7 33L7 32L5 32L5 31L4 31L4 30L6 30L6 31L8 31L8 32L9 32L9 31L10 31L10 32L12 32L12 33L11 33L11 34L13 34L13 33L15 33L15 31L16 31L16 33L17 33L17 34L14 34L14 36L15 36L15 37L14 37L14 38L15 38L15 37L22 37L22 38L24 38L24 40L26 40L26 39L25 39L25 38L24 38L24 37L26 37L26 38L27 38L27 37L26 37L26 36L27 36L27 35L29 35L29 34L32 34L32 32L33 32L33 35L30 35L30 38L28 38L28 39L27 39L27 40L28 40L28 39L29 39L29 40L31 40L31 41L29 41L29 42L28 42L28 41L21 41L21 40L22 40L22 39L21 39L21 40L20 40L20 41L21 41L21 44L20 44L20 42L18 42L18 43L16 43L16 41L17 41L17 40L15 40L15 42L14 42L14 41L13 41L13 40L14 40L14 39L13 39L13 40L12 40L12 39L10 39L10 38L11 38L11 37L12 37L12 38L13 38L13 36L11 36L11 37L9 37L9 36L10 36L10 34L9 34L9 36L8 36L8 37L7 37L7 36L6 36L6 37L4 37L4 38L3 38L3 39L2 39L2 37L3 37L3 36L2 36L2 37L0 37L0 39L1 39L1 40L3 40L3 39L4 39L4 38L5 38L5 39L7 39L7 40L6 40L6 41L7 41L7 42L3 42L3 43L2 43L2 42L0 42L0 43L1 43L1 44L3 44L3 45L4 45L4 44L3 44L3 43L7 43L7 44L6 44L6 45L7 45L7 44L8 44L8 47L10 47L10 46L9 46L9 44L10 44L10 45L11 45L11 44L12 44L12 43L13 43L13 42L14 42L14 45L12 45L12 46L13 46L13 48L12 48L12 47L11 47L11 48L10 48L10 49L11 49L11 50L9 50L9 48L8 48L8 53L10 53L10 52L9 52L9 51L11 51L11 52L13 52L13 53L14 53L14 52L13 52L13 51L15 51L15 53L22 53L22 50L23 50L23 49L22 49L22 50L21 50L21 52L20 52L20 51L17 51L17 50L18 50L18 49L19 49L19 50L20 50L20 49L21 49L21 48L20 48L20 49L19 49L19 47L18 47L18 45L22 45L22 46L21 46L21 47L22 47L22 46L23 46L23 48L24 48L24 50L25 50L25 51L28 51L28 52L26 52L26 53L28 53L28 52L29 52L29 51L30 51L30 50L31 50L31 49L32 49L32 50L33 50L33 51L31 51L31 52L33 52L33 53L38 53L38 52L36 52L36 51L37 51L37 50L36 50L36 51L35 51L35 50L34 50L34 48L35 48L35 49L37 49L37 48L35 48L35 47L37 47L37 46L38 46L38 49L39 49L39 50L38 50L38 51L40 51L40 52L39 52L39 53L40 53L40 52L42 52L42 51L40 51L40 50L41 50L41 49L39 49L39 48L42 48L42 50L43 50L43 53L44 53L44 50L45 50L45 49L49 49L49 48L50 48L50 50L48 50L48 51L47 51L47 52L46 52L46 51L45 51L45 53L49 53L49 52L50 52L50 53L51 53L51 52L52 52L52 51L53 51L53 50L52 50L52 51L51 51L51 52L50 52L50 50L51 50L51 49L52 49L52 48L53 48L53 47L51 47L51 48L50 48L50 46L53 46L53 43L51 43L51 44L50 44L50 42L49 42L49 41L47 41L47 39L45 39L45 38L47 38L47 37L48 37L48 38L49 38L49 39L48 39L48 40L50 40L50 41L51 41L51 40L53 40L53 39L51 39L51 40L50 40L50 38L49 38L49 37L48 37L48 36L50 36L50 37L52 37L52 38L53 38L53 35L52 35L52 34L53 34L53 33L51 33L51 32L50 32L50 31L51 31L51 30L53 30L53 29L52 29L52 28L53 28L53 27L51 27L51 26L53 26L53 24L52 24L52 23L51 23L51 24L50 24L50 23L49 23L49 24L46 24L46 23L48 23L48 22L44 22L44 23L45 23L45 24L44 24L44 25L41 25L41 26L43 26L43 27L42 27L42 30L41 30L41 29L40 29L40 28L41 28L41 27L40 27L40 25L39 25L39 24L41 24L41 23L42 23L42 24L43 24L43 23L42 23L42 22L43 22L43 21L45 21L45 20L46 20L46 19L47 19L47 21L49 21L49 22L53 22L53 21L51 21L51 20L53 20L53 19L51 19L51 20L50 20L50 21L49 21L49 20L48 20L48 19L49 19L49 18L51 18L51 16L52 16L52 18L53 18L53 16L52 16L52 14L53 14L53 13L51 13L51 12L50 12L50 13L49 13L49 10L48 10L48 8L47 8L47 10L44 10L44 9L46 9L46 8L44 8L44 9L39 9L39 10L38 10L38 8L39 8L39 6L40 6L40 8L43 8L43 3L44 3L44 4L45 4L45 3L44 3L44 1L43 1L43 0L41 0L41 1L42 1L42 2L43 2L43 3L42 3L42 4L39 4L39 5L38 5L38 2L39 2L39 3L41 3L41 2L39 2L39 1L40 1L40 0L39 0L39 1L38 1L38 0L37 0L37 1L36 1L36 2L37 2L37 3L35 3L35 4L36 4L36 5L34 5L34 7L33 7L33 6L32 6L32 4L31 4L31 3L30 3L30 1L31 1L31 2L32 2L32 3L34 3L34 2L35 2L35 1L33 1L33 0L32 0L32 1L31 1L31 0L27 0L27 2L28 2L28 1L29 1L29 4L27 4L27 3L26 3L26 4L24 4L24 3L25 3L25 1L26 1L26 0L21 0L21 3L19 3L19 1L18 1L18 0L16 0L16 1L14 1L14 2L13 2L13 0L11 0L11 1L10 1L10 0ZM17 1L17 4L16 4L16 2L14 2L14 4L15 4L15 5L16 5L16 6L15 6L15 7L14 7L14 8L13 8L13 9L11 9L11 10L12 10L12 11L11 11L11 12L14 12L14 13L10 13L10 10L9 10L9 9L6 9L6 10L5 10L5 11L4 11L4 9L3 9L3 11L4 11L4 12L3 12L3 13L4 13L4 14L5 14L5 13L4 13L4 12L7 12L7 11L8 11L8 13L6 13L6 14L7 14L7 15L5 15L5 16L4 16L4 17L6 17L6 18L7 18L7 17L6 17L6 16L7 16L7 15L8 15L8 14L9 14L9 13L10 13L10 14L14 14L14 13L15 13L15 16L16 16L16 17L13 17L13 16L14 16L14 15L12 15L12 16L11 16L11 17L10 17L10 18L11 18L11 17L13 17L13 18L14 18L14 20L13 20L13 19L12 19L12 20L13 20L13 23L14 23L14 24L12 24L12 25L10 25L10 28L9 28L9 30L10 30L10 31L12 31L12 32L14 32L14 31L12 31L12 30L13 30L13 29L15 29L15 30L17 30L17 33L18 33L18 34L17 34L17 35L16 35L16 36L18 36L18 34L19 34L19 36L21 36L21 35L20 35L20 34L21 34L21 33L23 33L23 32L24 32L24 33L27 33L27 34L25 34L25 35L24 35L24 34L22 34L22 37L24 37L24 36L26 36L26 35L27 35L27 34L29 34L29 33L28 33L28 32L29 32L29 31L28 31L28 29L27 29L27 30L26 30L26 29L24 29L24 30L23 30L23 32L22 32L22 29L23 29L23 28L24 28L24 27L23 27L23 26L24 26L24 25L23 25L23 24L24 24L24 23L25 23L25 24L27 24L27 23L29 23L29 25L31 25L31 24L32 24L32 26L29 26L29 30L30 30L30 31L31 31L31 30L30 30L30 27L31 27L31 29L32 29L32 31L33 31L33 32L34 32L34 34L35 34L35 32L37 32L37 33L36 33L36 35L35 35L35 36L37 36L37 37L38 37L38 38L39 38L39 35L41 35L41 36L40 36L40 39L41 39L41 40L39 40L39 39L37 39L37 38L35 38L35 37L34 37L34 38L35 38L35 39L34 39L34 40L37 40L37 41L36 41L36 42L35 42L35 41L34 41L34 42L35 42L35 43L34 43L34 44L37 44L37 45L38 45L38 46L39 46L39 45L38 45L38 44L40 44L40 47L42 47L42 48L43 48L43 50L44 50L44 43L45 43L45 44L46 44L46 43L47 43L47 42L46 42L46 40L42 40L42 39L44 39L44 38L45 38L45 37L44 37L44 36L43 36L43 37L44 37L44 38L42 38L42 35L44 35L44 33L45 33L45 35L47 35L47 33L49 33L49 35L50 35L50 36L52 36L52 35L51 35L51 33L50 33L50 32L49 32L49 31L50 31L50 30L48 30L48 29L44 29L44 27L43 27L43 29L44 29L44 30L42 30L42 31L44 31L44 32L43 32L43 34L42 34L42 32L40 32L40 31L41 31L41 30L40 30L40 31L38 31L38 32L37 32L37 29L36 29L36 31L35 31L35 32L34 32L34 30L35 30L35 29L34 29L34 30L33 30L33 28L32 28L32 26L35 26L35 24L37 24L37 25L38 25L38 26L39 26L39 25L38 25L38 24L37 24L37 21L35 21L35 19L33 19L33 20L31 20L31 18L30 18L30 19L29 19L29 18L28 18L28 17L29 17L29 16L28 16L28 15L29 15L29 14L30 14L30 17L31 17L31 16L32 16L32 18L35 18L35 16L37 16L37 15L38 15L38 18L36 18L36 19L37 19L37 20L38 20L38 22L39 22L39 23L40 23L40 22L42 22L42 19L43 19L43 20L45 20L45 18L47 18L47 19L48 19L48 18L49 18L49 17L50 17L50 16L51 16L51 14L49 14L49 15L50 15L50 16L49 16L49 17L47 17L47 16L48 16L48 15L47 15L47 16L46 16L46 15L45 15L45 16L46 16L46 17L44 17L44 19L43 19L43 18L42 18L42 19L41 19L41 16L40 16L40 15L41 15L41 14L42 14L42 17L43 17L43 16L44 16L44 14L48 14L48 13L46 13L46 11L44 11L44 12L43 12L43 14L42 14L42 13L41 13L41 12L42 12L42 11L43 11L43 10L40 10L40 11L38 11L38 10L37 10L37 11L33 11L33 10L35 10L35 9L34 9L34 8L35 8L35 7L36 7L36 8L37 8L37 7L38 7L38 5L37 5L37 7L36 7L36 6L35 6L35 7L34 7L34 8L32 8L32 6L31 6L31 5L30 5L30 4L29 4L29 5L30 5L30 6L29 6L29 7L30 7L30 6L31 6L31 8L32 8L32 11L33 11L33 12L30 12L30 11L29 11L29 10L28 10L28 9L25 9L25 10L24 10L24 11L25 11L25 12L27 12L27 11L26 11L26 10L28 10L28 11L29 11L29 12L28 12L28 13L29 13L29 14L27 14L27 13L25 13L25 14L24 14L24 13L23 13L23 11L20 11L20 10L21 10L21 9L23 9L23 7L24 7L24 4L23 4L23 2L24 2L24 1L23 1L23 2L22 2L22 4L18 4L18 1ZM37 1L37 2L38 2L38 1ZM10 4L10 5L11 5L11 4ZM22 4L22 5L21 5L21 6L20 6L20 7L21 7L21 6L22 6L22 7L23 7L23 4ZM18 5L18 7L19 7L19 5ZM25 5L25 8L28 8L28 5ZM40 5L40 6L41 6L41 7L42 7L42 6L41 6L41 5ZM16 6L16 7L17 7L17 6ZM26 6L26 7L27 7L27 6ZM44 6L44 7L45 7L45 6ZM18 8L18 9L17 9L17 10L18 10L18 11L19 11L19 10L18 10L18 9L21 9L21 8ZM29 8L29 9L30 9L30 8ZM49 8L49 9L50 9L50 8ZM51 8L51 10L50 10L50 11L51 11L51 10L53 10L53 9L52 9L52 8ZM13 9L13 10L14 10L14 9ZM15 9L15 10L16 10L16 9ZM6 10L6 11L7 11L7 10ZM8 10L8 11L9 11L9 10ZM47 10L47 11L48 11L48 10ZM15 11L15 12L16 12L16 13L17 13L17 12L16 12L16 11ZM37 11L37 12L35 12L35 14L33 14L33 15L32 15L32 16L35 16L35 15L36 15L36 13L37 13L37 14L38 14L38 15L40 15L40 14L41 14L41 13L39 13L39 12L38 12L38 11ZM40 11L40 12L41 12L41 11ZM18 12L18 13L22 13L22 16L23 16L23 15L24 15L24 16L25 16L25 15L24 15L24 14L23 14L23 13L22 13L22 12ZM33 12L33 13L34 13L34 12ZM44 12L44 13L45 13L45 12ZM30 13L30 14L31 14L31 13ZM38 13L38 14L39 14L39 13ZM16 14L16 16L18 16L18 17L21 17L21 18L20 18L20 19L21 19L21 20L19 20L19 19L18 19L18 18L17 18L17 17L16 17L16 18L15 18L15 19L16 19L16 20L17 20L17 19L18 19L18 21L22 21L22 23L21 23L21 24L20 24L20 25L21 25L21 24L23 24L23 23L24 23L24 22L29 22L29 19L28 19L28 18L27 18L27 17L28 17L28 16L26 16L26 19L27 19L27 20L26 20L26 21L24 21L24 22L23 22L23 21L22 21L22 18L25 18L25 17L21 17L21 16L19 16L19 14ZM26 14L26 15L27 15L27 14ZM9 15L9 16L8 16L8 18L9 18L9 16L10 16L10 15ZM38 18L38 20L39 20L39 22L40 22L40 20L41 20L41 19L40 19L40 18ZM10 19L10 20L9 20L9 21L10 21L10 20L11 20L11 19ZM23 19L23 20L25 20L25 19ZM30 20L30 22L31 22L31 23L30 23L30 24L31 24L31 23L32 23L32 24L34 24L34 23L36 23L36 22L34 22L34 21L33 21L33 22L32 22L32 21L31 21L31 20ZM4 21L4 22L5 22L5 21ZM14 21L14 22L15 22L15 23L16 23L16 22L15 22L15 21ZM17 22L17 24L18 24L18 25L17 25L17 26L18 26L18 27L19 27L19 26L18 26L18 25L19 25L19 23L18 23L18 22ZM15 24L15 26L16 26L16 24ZM49 24L49 27L50 27L50 28L51 28L51 27L50 27L50 26L51 26L51 25L52 25L52 24L51 24L51 25L50 25L50 24ZM5 25L5 28L8 28L8 25ZM13 25L13 26L14 26L14 25ZM25 25L25 28L28 28L28 25ZM45 25L45 28L48 28L48 25ZM3 26L3 27L4 27L4 26ZM6 26L6 27L7 27L7 26ZM20 26L20 28L17 28L17 27L16 27L16 29L17 29L17 30L18 30L18 33L21 33L21 32L19 32L19 30L18 30L18 29L22 29L22 26ZM26 26L26 27L27 27L27 26ZM36 26L36 27L34 27L34 28L39 28L39 27L37 27L37 26ZM46 26L46 27L47 27L47 26ZM12 27L12 28L13 28L13 27ZM14 27L14 28L15 28L15 27ZM10 28L10 29L11 29L11 28ZM6 29L6 30L8 30L8 29ZM38 29L38 30L39 30L39 29ZM24 31L24 32L25 32L25 31ZM26 31L26 32L28 32L28 31ZM46 31L46 33L47 33L47 31ZM1 33L1 34L2 34L2 33ZM38 34L38 35L37 35L37 36L38 36L38 35L39 35L39 34ZM31 36L31 38L30 38L30 39L31 39L31 40L32 40L32 41L31 41L31 42L29 42L29 43L27 43L27 42L26 42L26 44L29 44L29 46L30 46L30 47L33 47L33 48L32 48L32 49L33 49L33 48L34 48L34 46L36 46L36 45L34 45L34 46L33 46L33 44L31 44L31 46L30 46L30 43L33 43L33 40L32 40L32 39L33 39L33 38L32 38L32 37L33 37L33 36ZM46 36L46 37L47 37L47 36ZM6 37L6 38L7 38L7 39L9 39L9 38L7 38L7 37ZM17 38L17 39L19 39L19 38ZM41 38L41 39L42 39L42 38ZM4 40L4 41L5 41L5 40ZM8 40L8 41L10 41L10 40ZM11 40L11 42L10 42L10 44L11 44L11 43L12 43L12 40ZM18 40L18 41L19 41L19 40ZM38 40L38 41L39 41L39 42L36 42L36 43L39 43L39 42L40 42L40 41L39 41L39 40ZM42 41L42 42L43 42L43 43L42 43L42 46L43 46L43 43L44 43L44 42L45 42L45 41ZM52 41L52 42L53 42L53 41ZM7 42L7 43L9 43L9 42ZM22 42L22 45L24 45L24 44L23 44L23 43L25 43L25 42ZM40 43L40 44L41 44L41 43ZM48 43L48 44L49 44L49 43ZM51 44L51 45L52 45L52 44ZM14 45L14 48L13 48L13 50L11 50L11 51L13 51L13 50L14 50L14 49L16 49L16 50L17 50L17 49L18 49L18 48L17 48L17 49L16 49L16 47L17 47L17 45ZM25 45L25 48L28 48L28 45ZM45 45L45 48L48 48L48 45ZM26 46L26 47L27 47L27 46ZM46 46L46 47L47 47L47 46ZM26 49L26 50L27 50L27 49ZM28 50L28 51L29 51L29 50ZM16 51L16 52L17 52L17 51ZM23 51L23 52L24 52L24 53L25 53L25 52L24 52L24 51ZM34 51L34 52L35 52L35 51ZM0 0L0 7L7 7L7 0ZM1 1L1 6L6 6L6 1ZM2 2L2 5L5 5L5 2ZM46 0L46 7L53 7L53 0ZM47 1L47 6L52 6L52 1ZM48 2L48 5L51 5L51 2ZM0 46L0 53L7 53L7 46ZM1 47L1 52L6 52L6 47ZM2 48L2 51L5 51L5 48Z" fill="#000000"/></g></g></svg>
