<?xml version="1.0" encoding="UTF-8"?>
<svg xmlns="http://www.w3.org/2000/svg" version="1.1" width="400" height="400" viewBox="0 0 400 400"><rect x="0" y="0" width="400" height="400" fill="#fefefe"/><g transform="scale(4.706)"><g transform="translate(4,4)"><path fill-rule="evenodd" d="M8 0L8 1L12 1L12 0ZM16 0L16 1L13 1L13 3L12 3L12 2L10 2L10 3L9 3L9 4L8 4L8 7L9 7L9 9L8 9L8 8L1 8L1 9L0 9L0 10L1 10L1 11L0 11L0 12L1 12L1 13L2 13L2 14L1 14L1 15L0 15L0 17L1 17L1 18L0 18L0 19L1 19L1 20L0 20L0 24L1 24L1 22L3 22L3 21L2 21L2 20L4 20L4 18L6 18L6 19L5 19L5 21L7 21L7 22L6 22L6 23L5 23L5 24L3 24L3 25L0 25L0 29L1 29L1 30L4 30L4 31L5 31L5 30L6 30L6 31L7 31L7 32L6 32L6 33L5 33L5 32L4 32L4 33L3 33L3 31L0 31L0 36L1 36L1 37L2 37L2 36L3 36L3 37L4 37L4 36L3 36L3 35L5 35L5 34L6 34L6 35L9 35L9 34L10 34L10 36L11 36L11 39L12 39L12 37L14 37L14 38L18 38L18 40L17 40L17 39L15 39L15 40L11 40L11 41L12 41L12 42L8 42L8 43L7 43L7 42L6 42L6 41L10 41L10 37L9 37L9 39L7 39L7 38L4 38L4 39L3 39L3 38L2 38L2 40L1 40L1 39L0 39L0 40L1 40L1 41L0 41L0 43L1 43L1 41L2 41L2 40L3 40L3 42L2 42L2 43L4 43L4 44L5 44L5 46L4 46L4 45L3 45L3 44L0 44L0 45L1 45L1 46L2 46L2 45L3 45L3 47L4 47L4 50L3 50L3 48L1 48L1 47L0 47L0 49L1 49L1 51L0 51L0 52L1 52L1 53L2 53L2 54L0 54L0 55L3 55L3 52L1 52L1 51L5 51L5 52L4 52L4 53L8 53L8 54L4 54L4 55L5 55L5 56L3 56L3 57L2 57L2 56L1 56L1 57L2 57L2 59L1 59L1 60L3 60L3 61L5 61L5 66L4 66L4 68L1 68L1 69L5 69L5 67L7 67L7 66L6 66L6 65L8 65L8 67L9 67L9 69L8 69L8 68L6 68L6 69L8 69L8 76L9 76L9 77L10 77L10 76L11 76L11 77L12 77L12 75L13 75L13 76L14 76L14 77L16 77L16 76L17 76L17 77L20 77L20 76L18 76L18 75L17 75L17 74L16 74L16 76L14 76L14 75L15 75L15 72L16 72L16 73L17 73L17 71L18 71L18 70L17 70L17 71L16 71L16 69L15 69L15 68L17 68L17 65L18 65L18 66L19 66L19 67L20 67L20 66L21 66L21 69L20 69L20 70L19 70L19 72L18 72L18 73L19 73L19 75L20 75L20 73L19 73L19 72L21 72L21 74L22 74L22 72L24 72L24 73L23 73L23 75L21 75L21 76L22 76L22 77L24 77L24 76L25 76L25 77L27 77L27 76L28 76L28 75L29 75L29 76L30 76L30 77L31 77L31 76L30 76L30 74L31 74L31 75L32 75L32 77L38 77L38 76L37 76L37 75L39 75L39 76L40 76L40 77L41 77L41 76L42 76L42 77L45 77L45 76L46 76L46 77L47 77L47 76L46 76L46 75L48 75L48 74L49 74L49 73L52 73L52 74L50 74L50 75L49 75L49 76L48 76L48 77L49 77L49 76L53 76L53 75L55 75L55 74L56 74L56 76L58 76L58 77L59 77L59 74L60 74L60 77L62 77L62 76L61 76L61 75L62 75L62 74L63 74L63 75L64 75L64 74L63 74L63 73L65 73L65 74L66 74L66 73L67 73L67 74L69 74L69 75L70 75L70 74L71 74L71 76L72 76L72 77L74 77L74 76L75 76L75 75L76 75L76 76L77 76L77 75L76 75L76 74L73 74L73 71L75 71L75 70L73 70L73 68L75 68L75 69L76 69L76 68L77 68L77 67L76 67L76 64L77 64L77 63L76 63L76 61L75 61L75 63L72 63L72 64L73 64L73 66L72 66L72 67L68 67L68 66L70 66L70 64L71 64L71 63L70 63L70 62L69 62L69 59L70 59L70 61L72 61L72 62L74 62L74 60L75 60L75 58L77 58L77 57L76 57L76 56L77 56L77 54L76 54L76 56L75 56L75 55L74 55L74 57L75 57L75 58L73 58L73 59L72 59L72 57L73 57L73 55L72 55L72 54L73 54L73 53L76 53L76 52L77 52L77 51L76 51L76 49L75 49L75 48L74 48L74 47L75 47L75 46L74 46L74 44L75 44L75 45L76 45L76 44L77 44L77 43L76 43L76 40L77 40L77 38L76 38L76 40L75 40L75 42L73 42L73 41L74 41L74 40L73 40L73 41L72 41L72 43L70 43L70 42L69 42L69 43L70 43L70 44L68 44L68 45L65 45L65 43L64 43L64 42L66 42L66 41L67 41L67 40L68 40L68 41L69 41L69 38L70 38L70 40L71 40L71 38L72 38L72 39L73 39L73 38L72 38L72 36L73 36L73 32L72 32L72 33L71 33L71 38L70 38L70 35L68 35L68 34L67 34L67 33L69 33L69 32L67 32L67 30L68 30L68 31L70 31L70 32L71 32L71 30L68 30L68 29L74 29L74 28L75 28L75 30L74 30L74 31L76 31L76 32L75 32L75 33L76 33L76 32L77 32L77 27L75 27L75 26L76 26L76 24L77 24L77 22L76 22L76 24L75 24L75 22L74 22L74 23L73 23L73 21L72 21L72 20L76 20L76 18L74 18L74 16L76 16L76 14L77 14L77 13L76 13L76 14L75 14L75 15L73 15L73 14L74 14L74 12L77 12L77 11L75 11L75 10L73 10L73 8L71 8L71 9L70 9L70 10L72 10L72 11L71 11L71 12L72 12L72 11L73 11L73 13L72 13L72 14L71 14L71 15L70 15L70 14L69 14L69 15L68 15L68 14L67 14L67 13L65 13L65 12L64 12L64 11L65 11L65 10L66 10L66 9L68 9L68 10L67 10L67 11L69 11L69 9L68 9L68 8L65 8L65 9L64 9L64 7L65 7L65 4L66 4L66 7L67 7L67 5L69 5L69 1L68 1L68 4L66 4L66 2L67 2L67 1L66 1L66 0L65 0L65 1L66 1L66 2L64 2L64 1L63 1L63 0L61 0L61 1L62 1L62 3L61 3L61 2L60 2L60 3L61 3L61 4L59 4L59 2L58 2L58 0L55 0L55 1L57 1L57 5L56 5L56 9L55 9L55 5L54 5L54 8L53 8L53 4L52 4L52 3L53 3L53 1L51 1L51 0L50 0L50 1L51 1L51 3L50 3L50 4L49 4L49 3L48 3L48 2L49 2L49 0L43 0L43 1L42 1L42 0L41 0L41 3L40 3L40 2L39 2L39 0L37 0L37 1L38 1L38 2L39 2L39 4L37 4L37 5L35 5L35 4L36 4L36 3L37 3L37 2L36 2L36 3L35 3L35 4L34 4L34 3L33 3L33 2L35 2L35 1L36 1L36 0L35 0L35 1L34 1L34 0L33 0L33 1L31 1L31 2L32 2L32 3L29 3L29 4L27 4L27 2L29 2L29 0L28 0L28 1L27 1L27 0L26 0L26 1L25 1L25 0L24 0L24 1L23 1L23 0L22 0L22 2L21 2L21 0L20 0L20 1L19 1L19 2L16 2L16 1L18 1L18 0ZM43 1L43 2L44 2L44 3L41 3L41 4L40 4L40 5L37 5L37 7L36 7L36 6L35 6L35 5L34 5L34 4L31 4L31 5L30 5L30 4L29 4L29 8L30 8L30 6L31 6L31 7L32 7L32 6L33 6L33 8L34 8L34 9L35 9L35 7L36 7L36 10L37 10L37 11L36 11L36 12L35 12L35 13L34 13L34 10L32 10L32 11L33 11L33 14L32 14L32 13L31 13L31 14L29 14L29 13L30 13L30 12L31 12L31 11L30 11L30 12L29 12L29 10L31 10L31 9L29 9L29 10L27 10L27 9L26 9L26 10L25 10L25 12L24 12L24 13L25 13L25 12L26 12L26 13L28 13L28 14L26 14L26 16L27 16L27 20L28 20L28 18L29 18L29 20L30 20L30 18L31 18L31 19L33 19L33 18L34 18L34 17L35 17L35 19L36 19L36 18L37 18L37 21L35 21L35 20L31 20L31 21L29 21L29 24L30 24L30 25L29 25L29 26L30 26L30 28L29 28L29 29L25 29L25 30L28 30L28 31L25 31L25 32L23 32L23 31L20 31L20 30L22 30L22 29L23 29L23 27L24 27L24 24L25 24L25 23L26 23L26 24L27 24L27 23L26 23L26 22L27 22L27 21L26 21L26 20L25 20L25 22L24 22L24 24L23 24L23 22L22 22L22 21L21 21L21 20L20 20L20 19L21 19L21 16L20 16L20 19L19 19L19 17L18 17L18 14L17 14L17 12L18 12L18 13L19 13L19 12L22 12L22 11L23 11L23 10L22 10L22 9L24 9L24 8L22 8L22 9L21 9L21 7L22 7L22 6L23 6L23 7L24 7L24 6L23 6L23 5L21 5L21 2L20 2L20 3L16 3L16 2L14 2L14 4L13 4L13 8L12 8L12 6L11 6L11 4L9 4L9 7L10 7L10 6L11 6L11 8L10 8L10 10L9 10L9 11L10 11L10 12L11 12L11 14L10 14L10 13L8 13L8 12L7 12L7 11L6 11L6 12L7 12L7 13L5 13L5 15L4 15L4 11L5 11L5 10L8 10L8 9L5 9L5 10L4 10L4 11L3 11L3 12L2 12L2 13L3 13L3 15L2 15L2 17L3 17L3 18L1 18L1 19L3 19L3 18L4 18L4 17L3 17L3 15L4 15L4 16L5 16L5 17L6 17L6 18L7 18L7 17L8 17L8 18L9 18L9 21L8 21L8 20L7 20L7 19L6 19L6 20L7 20L7 21L8 21L8 22L7 22L7 23L6 23L6 24L9 24L9 23L11 23L11 24L10 24L10 25L9 25L9 27L10 27L10 28L9 28L9 29L6 29L6 30L8 30L8 31L9 31L9 32L8 32L8 34L9 34L9 32L10 32L10 31L11 31L11 32L14 32L14 34L15 34L15 35L14 35L14 37L18 37L18 38L19 38L19 37L20 37L20 36L19 36L19 35L20 35L20 34L21 34L21 35L22 35L22 36L21 36L21 38L23 38L23 41L24 41L24 42L23 42L23 43L21 43L21 42L22 42L22 41L20 41L20 40L21 40L21 39L19 39L19 40L18 40L18 41L17 41L17 42L18 42L18 41L19 41L19 42L20 42L20 43L19 43L19 45L20 45L20 43L21 43L21 48L20 48L20 46L17 46L17 44L16 44L16 43L15 43L15 42L16 42L16 41L14 41L14 43L13 43L13 42L12 42L12 43L10 43L10 44L11 44L11 45L12 45L12 43L13 43L13 44L14 44L14 45L13 45L13 46L12 46L12 49L11 49L11 48L10 48L10 47L11 47L11 46L10 46L10 45L9 45L9 43L8 43L8 46L10 46L10 47L9 47L9 48L10 48L10 49L9 49L9 51L8 51L8 52L9 52L9 54L8 54L8 55L6 55L6 56L7 56L7 57L6 57L6 58L7 58L7 59L5 59L5 57L3 57L3 59L5 59L5 61L6 61L6 62L8 62L8 63L6 63L6 64L8 64L8 63L9 63L9 66L11 66L11 65L10 65L10 64L13 64L13 66L14 66L14 67L10 67L10 68L11 68L11 70L12 70L12 68L13 68L13 71L12 71L12 72L11 72L11 71L10 71L10 69L9 69L9 71L10 71L10 73L11 73L11 74L10 74L10 75L11 75L11 74L12 74L12 72L13 72L13 71L14 71L14 70L15 70L15 69L14 69L14 67L16 67L16 64L18 64L18 65L19 65L19 64L18 64L18 63L19 63L19 62L17 62L17 63L16 63L16 61L18 61L18 60L12 60L12 59L11 59L11 58L10 58L10 57L11 57L11 56L12 56L12 58L13 58L13 54L15 54L15 55L14 55L14 56L15 56L15 57L14 57L14 58L16 58L16 59L17 59L17 58L16 58L16 57L17 57L17 55L18 55L18 59L19 59L19 60L20 60L20 59L19 59L19 58L20 58L20 56L21 56L21 57L22 57L22 58L21 58L21 61L20 61L20 62L21 62L21 63L20 63L20 65L22 65L22 70L23 70L23 71L24 71L24 69L23 69L23 67L24 67L24 65L26 65L26 66L25 66L25 67L26 67L26 68L28 68L28 66L29 66L29 67L30 67L30 68L31 68L31 69L32 69L32 70L33 70L33 68L34 68L34 69L35 69L35 68L34 68L34 67L36 67L36 65L37 65L37 64L38 64L38 61L40 61L40 62L41 62L41 63L39 63L39 65L38 65L38 68L36 68L36 69L37 69L37 70L39 70L39 68L41 68L41 69L40 69L40 70L41 70L41 71L42 71L42 72L43 72L43 73L42 73L42 76L43 76L43 74L44 74L44 76L45 76L45 74L46 74L46 73L44 73L44 71L46 71L46 70L44 70L44 71L43 71L43 70L42 70L42 68L41 68L41 64L42 64L42 67L43 67L43 69L45 69L45 68L49 68L49 67L50 67L50 68L51 68L51 69L52 69L52 71L51 71L51 72L52 72L52 73L53 73L53 74L52 74L52 75L53 75L53 74L55 74L55 73L57 73L57 74L58 74L58 73L59 73L59 72L60 72L60 73L61 73L61 74L62 74L62 73L63 73L63 72L62 72L62 71L63 71L63 70L62 70L62 69L63 69L63 66L65 66L65 68L64 68L64 69L65 69L65 70L64 70L64 71L65 71L65 72L66 72L66 70L67 70L67 71L68 71L68 70L67 70L67 69L68 69L68 68L67 68L67 66L68 66L68 64L67 64L67 63L69 63L69 62L68 62L68 59L69 59L69 57L68 57L68 56L70 56L70 59L71 59L71 60L72 60L72 59L71 59L71 56L70 56L70 55L71 55L71 54L72 54L72 53L73 53L73 52L71 52L71 51L69 51L69 52L70 52L70 55L68 55L68 56L67 56L67 54L68 54L68 50L67 50L67 51L65 51L65 52L64 52L64 53L67 53L67 54L65 54L65 55L64 55L64 56L63 56L63 54L59 54L59 53L58 53L58 54L59 54L59 56L60 56L60 57L61 57L61 66L60 66L60 65L59 65L59 63L60 63L60 62L59 62L59 63L58 63L58 62L57 62L57 61L60 61L60 58L59 58L59 57L58 57L58 56L56 56L56 57L57 57L57 58L55 58L55 57L53 57L53 58L55 58L55 60L54 60L54 59L53 59L53 61L52 61L52 60L49 60L49 58L52 58L52 57L50 57L50 56L55 56L55 55L56 55L56 52L57 52L57 51L56 51L56 50L54 50L54 49L56 49L56 48L57 48L57 50L59 50L59 52L60 52L60 53L61 53L61 52L62 52L62 53L63 53L63 52L62 52L62 50L61 50L61 52L60 52L60 49L58 49L58 48L57 48L57 47L56 47L56 46L57 46L57 45L59 45L59 46L58 46L58 47L60 47L60 46L61 46L61 48L62 48L62 49L63 49L63 50L66 50L66 49L68 49L68 47L67 47L67 48L66 48L66 47L65 47L65 48L66 48L66 49L64 49L64 48L63 48L63 47L62 47L62 44L63 44L63 43L62 43L62 42L64 42L64 41L65 41L65 40L66 40L66 39L68 39L68 38L69 38L69 37L67 37L67 36L66 36L66 33L64 33L64 32L63 32L63 31L62 31L62 28L63 28L63 26L65 26L65 28L67 28L67 26L68 26L68 19L69 19L69 21L71 21L71 22L70 22L70 23L69 23L69 24L72 24L72 21L71 21L71 20L72 20L72 17L73 17L73 15L72 15L72 17L71 17L71 16L70 16L70 15L69 15L69 16L70 16L70 17L69 17L69 18L68 18L68 19L66 19L66 18L67 18L67 17L68 17L68 15L67 15L67 14L66 14L66 15L65 15L65 16L66 16L66 18L65 18L65 17L64 17L64 16L63 16L63 14L64 14L64 12L63 12L63 11L60 11L60 10L59 10L59 9L58 9L58 8L60 8L60 9L61 9L61 8L63 8L63 7L64 7L64 6L63 6L63 7L62 7L62 6L61 6L61 5L62 5L62 4L65 4L65 3L64 3L64 2L63 2L63 3L62 3L62 4L61 4L61 5L59 5L59 7L58 7L58 6L57 6L57 7L58 7L58 8L57 8L57 9L58 9L58 10L57 10L57 11L56 11L56 10L55 10L55 9L53 9L53 8L52 8L52 9L51 9L51 10L52 10L52 9L53 9L53 13L52 13L52 12L51 12L51 11L50 11L50 9L48 9L48 10L49 10L49 11L48 11L48 12L47 12L47 11L46 11L46 10L47 10L47 9L46 9L46 6L45 6L45 5L46 5L46 4L45 4L45 3L46 3L46 2L48 2L48 1ZM22 2L22 3L23 3L23 4L26 4L26 3L24 3L24 2ZM54 2L54 3L55 3L55 4L56 4L56 2ZM47 3L47 4L48 4L48 3ZM17 4L17 6L16 6L16 7L15 7L15 5L14 5L14 8L13 8L13 9L15 9L15 10L13 10L13 11L12 11L12 8L11 8L11 10L10 10L10 11L12 11L12 17L11 17L11 18L10 18L10 17L9 17L9 14L8 14L8 15L7 15L7 14L6 14L6 15L7 15L7 16L6 16L6 17L7 17L7 16L8 16L8 17L9 17L9 18L10 18L10 20L11 20L11 23L12 23L12 24L11 24L11 25L10 25L10 26L11 26L11 25L12 25L12 26L16 26L16 28L15 28L15 29L14 29L14 28L13 28L13 27L11 27L11 28L10 28L10 29L11 29L11 28L13 28L13 29L12 29L12 30L13 30L13 29L14 29L14 31L15 31L15 32L16 32L16 29L17 29L17 30L18 30L18 31L17 31L17 32L18 32L18 31L19 31L19 30L20 30L20 29L22 29L22 26L21 26L21 25L23 25L23 24L21 24L21 23L22 23L22 22L21 22L21 21L20 21L20 20L19 20L19 19L18 19L18 17L17 17L17 16L16 16L16 15L17 15L17 14L16 14L16 15L15 15L15 13L16 13L16 11L17 11L17 10L16 10L16 9L15 9L15 8L17 8L17 6L18 6L18 7L19 7L19 5L20 5L20 7L21 7L21 5L20 5L20 4L19 4L19 5L18 5L18 4ZM41 4L41 5L40 5L40 7L39 7L39 6L38 6L38 9L40 9L40 10L39 10L39 11L37 11L37 12L36 12L36 13L35 13L35 14L33 14L33 15L32 15L32 14L31 14L31 15L30 15L30 17L29 17L29 18L30 18L30 17L31 17L31 18L32 18L32 17L31 17L31 16L33 16L33 15L34 15L34 16L35 16L35 15L36 15L36 16L37 16L37 17L38 17L38 16L37 16L37 14L36 14L36 13L38 13L38 14L40 14L40 13L39 13L39 12L42 12L42 10L43 10L43 11L44 11L44 13L43 13L43 14L42 14L42 13L41 13L41 14L42 14L42 16L43 16L43 14L45 14L45 18L46 18L46 19L45 19L45 20L47 20L47 19L49 19L49 18L50 18L50 20L48 20L48 23L47 23L47 21L46 21L46 22L45 22L45 21L44 21L44 19L42 19L42 20L41 20L41 23L40 23L40 24L41 24L41 23L42 23L42 22L43 22L43 25L42 25L42 26L43 26L43 27L40 27L40 28L41 28L41 29L39 29L39 30L40 30L40 32L41 32L41 30L42 30L42 31L43 31L43 30L46 30L46 29L48 29L48 31L49 31L49 32L50 32L50 30L49 30L49 29L51 29L51 31L52 31L52 30L54 30L54 31L55 31L55 30L56 30L56 32L55 32L55 33L54 33L54 32L52 32L52 33L54 33L54 34L56 34L56 35L55 35L55 36L53 36L53 35L52 35L52 34L51 34L51 33L48 33L48 32L47 32L47 31L45 31L45 33L44 33L44 34L45 34L45 33L48 33L48 34L47 34L47 37L49 37L49 39L52 39L52 38L53 38L53 37L56 37L56 38L57 38L57 40L59 40L59 38L61 38L61 39L62 39L62 40L60 40L60 41L58 41L58 42L57 42L57 44L59 44L59 42L60 42L60 41L61 41L61 42L62 42L62 41L64 41L64 40L65 40L65 38L64 38L64 37L63 37L63 35L64 35L64 34L63 34L63 33L62 33L62 32L61 32L61 30L60 30L60 32L61 32L61 33L59 33L59 32L58 32L58 31L59 31L59 30L58 30L58 29L61 29L61 27L60 27L60 28L59 28L59 26L61 26L61 25L62 25L62 24L61 24L61 25L60 25L60 24L59 24L59 25L58 25L58 26L57 26L57 24L58 24L58 23L59 23L59 22L58 22L58 23L56 23L56 25L55 25L55 26L57 26L57 28L56 28L56 29L53 29L53 28L51 28L51 27L53 27L53 25L54 25L54 24L53 24L53 21L54 21L54 23L55 23L55 21L54 21L54 20L53 20L53 19L52 19L52 18L50 18L50 17L51 17L51 16L49 16L49 18L48 18L48 17L47 17L47 16L48 16L48 15L52 15L52 14L50 14L50 13L51 13L51 12L50 12L50 13L49 13L49 14L46 14L46 13L47 13L47 12L46 12L46 11L44 11L44 10L43 10L43 9L44 9L44 8L45 8L45 6L44 6L44 8L43 8L43 6L42 6L42 7L41 7L41 5L42 5L42 4ZM43 4L43 5L45 5L45 4ZM25 5L25 8L28 8L28 5ZM31 5L31 6L32 6L32 5ZM47 5L47 8L50 8L50 5ZM26 6L26 7L27 7L27 6ZM34 6L34 7L35 7L35 6ZM48 6L48 7L49 7L49 6ZM51 6L51 7L52 7L52 6ZM60 6L60 7L61 7L61 6ZM68 6L68 7L69 7L69 6ZM18 8L18 9L19 9L19 8ZM40 8L40 9L41 9L41 10L42 10L42 9L43 9L43 8L42 8L42 9L41 9L41 8ZM76 8L76 9L77 9L77 8ZM1 9L1 10L2 10L2 9ZM62 9L62 10L64 10L64 9ZM15 10L15 11L16 11L16 10ZM20 10L20 11L21 11L21 10ZM54 10L54 11L55 11L55 10ZM58 10L58 11L57 11L57 12L56 12L56 13L55 13L55 14L53 14L53 15L54 15L54 16L52 16L52 17L53 17L53 18L54 18L54 17L55 17L55 16L56 16L56 19L57 19L57 21L56 21L56 22L57 22L57 21L60 21L60 22L61 22L61 21L62 21L62 20L61 20L61 19L62 19L62 17L61 17L61 18L60 18L60 19L59 19L59 20L58 20L58 19L57 19L57 18L59 18L59 17L57 17L57 16L61 16L61 15L62 15L62 13L61 13L61 12L60 12L60 13L61 13L61 15L58 15L58 14L59 14L59 13L57 13L57 12L59 12L59 10ZM14 12L14 13L15 13L15 12ZM28 12L28 13L29 13L29 12ZM45 12L45 13L46 13L46 12ZM21 13L21 14L19 14L19 15L21 15L21 14L22 14L22 16L23 16L23 15L24 15L24 16L25 16L25 14L22 14L22 13ZM56 13L56 14L55 14L55 15L56 15L56 16L57 16L57 13ZM13 14L13 17L12 17L12 19L11 19L11 20L12 20L12 19L13 19L13 20L14 20L14 21L16 21L16 22L17 22L17 21L16 21L16 20L17 20L17 18L16 18L16 19L14 19L14 18L13 18L13 17L14 17L14 16L15 16L15 15L14 15L14 14ZM28 15L28 16L29 16L29 15ZM39 15L39 16L40 16L40 17L41 17L41 16L40 16L40 15ZM66 15L66 16L67 16L67 15ZM23 17L23 18L24 18L24 17ZM25 17L25 18L26 18L26 17ZM42 17L42 18L43 18L43 17ZM46 17L46 18L47 18L47 17ZM70 17L70 19L71 19L71 17ZM38 18L38 21L37 21L37 22L38 22L38 24L37 24L37 25L36 25L36 22L35 22L35 21L31 21L31 22L30 22L30 24L34 24L34 23L33 23L33 22L35 22L35 25L32 25L32 27L31 27L31 28L33 28L33 30L32 30L32 29L30 29L30 30L32 30L32 31L31 31L31 33L30 33L30 34L29 34L29 33L28 33L28 32L30 32L30 31L28 31L28 32L25 32L25 33L27 33L27 34L26 34L26 35L27 35L27 36L28 36L28 37L30 37L30 36L31 36L31 35L32 35L32 36L33 36L33 39L32 39L32 40L30 40L30 39L31 39L31 38L32 38L32 37L31 37L31 38L27 38L27 40L26 40L26 39L25 39L25 38L26 38L26 36L22 36L22 37L25 37L25 38L24 38L24 39L25 39L25 40L24 40L24 41L26 41L26 42L24 42L24 43L25 43L25 44L24 44L24 45L23 45L23 46L24 46L24 49L23 49L23 48L22 48L22 49L23 49L23 50L24 50L24 52L21 52L21 51L22 51L22 50L20 50L20 51L19 51L19 52L20 52L20 54L18 54L18 51L17 51L17 52L16 52L16 50L15 50L15 48L14 48L14 50L13 50L13 49L12 49L12 51L11 51L11 50L10 50L10 51L9 51L9 52L11 52L11 54L12 54L12 53L14 53L14 50L15 50L15 52L16 52L16 53L15 53L15 54L18 54L18 55L19 55L19 56L20 56L20 54L21 54L21 56L22 56L22 57L23 57L23 58L22 58L22 60L23 60L23 58L24 58L24 59L25 59L25 60L24 60L24 61L21 61L21 62L22 62L22 65L24 65L24 64L25 64L25 63L23 63L23 62L27 62L27 61L28 61L28 60L29 60L29 61L30 61L30 62L28 62L28 65L29 65L29 66L30 66L30 67L32 67L32 68L33 68L33 67L32 67L32 65L33 65L33 66L34 66L34 65L33 65L33 64L34 64L34 63L35 63L35 65L36 65L36 64L37 64L37 63L36 63L36 62L37 62L37 61L36 61L36 60L37 60L37 58L38 58L38 59L39 59L39 58L40 58L40 59L41 59L41 58L40 58L40 57L38 57L38 56L37 56L37 55L38 55L38 52L39 52L39 51L40 51L40 53L39 53L39 56L40 56L40 54L41 54L41 55L43 55L43 54L45 54L45 55L44 55L44 57L43 57L43 56L42 56L42 57L43 57L43 58L42 58L42 59L43 59L43 58L45 58L45 57L46 57L46 56L47 56L47 54L48 54L48 53L46 53L46 52L47 52L47 51L48 51L48 52L50 52L50 54L49 54L49 55L52 55L52 53L51 53L51 51L52 51L52 50L51 50L51 47L52 47L52 46L54 46L54 45L55 45L55 46L56 46L56 45L55 45L55 43L54 43L54 42L56 42L56 41L54 41L54 40L55 40L55 38L54 38L54 40L53 40L53 42L52 42L52 41L51 41L51 40L50 40L50 41L49 41L49 40L48 40L48 39L47 39L47 40L46 40L46 39L45 39L45 40L46 40L46 41L44 41L44 39L43 39L43 35L42 35L42 38L41 38L41 39L40 39L40 38L39 38L39 39L38 39L38 36L37 36L37 35L38 35L38 33L36 33L36 34L37 34L37 35L35 35L35 33L34 33L34 35L32 35L32 34L33 34L33 31L34 31L34 30L36 30L36 31L35 31L35 32L36 32L36 31L37 31L37 32L39 32L39 31L38 31L38 30L36 30L36 29L37 29L37 27L38 27L38 26L40 26L40 25L38 25L38 24L39 24L39 22L40 22L40 21L39 21L39 20L40 20L40 19L41 19L41 18ZM63 18L63 19L64 19L64 20L65 20L65 21L63 21L63 24L65 24L65 26L66 26L66 25L67 25L67 22L66 22L66 24L65 24L65 23L64 23L64 22L65 22L65 21L67 21L67 20L65 20L65 19L64 19L64 18ZM73 18L73 19L74 19L74 18ZM22 19L22 20L24 20L24 19ZM18 20L18 21L19 21L19 20ZM42 20L42 21L43 21L43 22L44 22L44 25L45 25L45 26L44 26L44 28L45 28L45 26L46 26L46 25L45 25L45 22L44 22L44 21L43 21L43 20ZM50 20L50 21L49 21L49 24L51 24L51 20ZM9 21L9 22L10 22L10 21ZM38 21L38 22L39 22L39 21ZM12 22L12 23L14 23L14 24L12 24L12 25L14 25L14 24L15 24L15 25L16 25L16 26L18 26L18 28L17 28L17 29L18 29L18 28L19 28L19 29L20 29L20 27L19 27L19 25L20 25L20 24L18 24L18 23L17 23L17 25L16 25L16 23L14 23L14 22ZM20 22L20 23L21 23L21 22ZM52 24L52 25L51 25L51 26L52 26L52 25L53 25L53 24ZM73 24L73 26L75 26L75 24ZM3 25L3 26L4 26L4 25ZM5 25L5 28L8 28L8 25ZM25 25L25 28L28 28L28 25ZM47 25L47 28L50 28L50 25ZM69 25L69 28L72 28L72 25ZM1 26L1 27L2 27L2 26ZM6 26L6 27L7 27L7 26ZM26 26L26 27L27 27L27 26ZM33 26L33 28L34 28L34 29L36 29L36 27L37 27L37 26ZM48 26L48 27L49 27L49 26ZM70 26L70 27L71 27L71 26ZM34 27L34 28L35 28L35 27ZM4 29L4 30L5 30L5 29ZM63 29L63 30L65 30L65 32L66 32L66 30L67 30L67 29ZM72 30L72 31L73 31L73 30ZM1 32L1 33L2 33L2 32ZM19 32L19 33L21 33L21 34L22 34L22 35L24 35L24 33L21 33L21 32ZM42 32L42 34L43 34L43 32ZM57 32L57 33L56 33L56 34L57 34L57 33L58 33L58 32ZM6 33L6 34L7 34L7 33ZM15 33L15 34L18 34L18 35L19 35L19 34L18 34L18 33ZM39 33L39 35L41 35L41 34L40 34L40 33ZM1 34L1 35L2 35L2 34ZM27 34L27 35L29 35L29 36L30 36L30 35L31 35L31 34L30 34L30 35L29 35L29 34ZM49 34L49 35L48 35L48 36L49 36L49 37L51 37L51 38L52 38L52 37L51 37L51 35L50 35L50 34ZM59 34L59 35L58 35L58 36L59 36L59 35L60 35L60 34ZM61 34L61 36L60 36L60 37L61 37L61 38L62 38L62 39L63 39L63 37L61 37L61 36L62 36L62 34ZM74 34L74 35L75 35L75 36L77 36L77 35L75 35L75 34ZM12 35L12 36L13 36L13 35ZM16 35L16 36L17 36L17 35ZM34 35L34 37L36 37L36 38L37 38L37 37L36 37L36 36L35 36L35 35ZM45 35L45 37L44 37L44 38L45 38L45 37L46 37L46 35ZM49 35L49 36L50 36L50 35ZM6 36L6 37L8 37L8 36ZM40 36L40 37L41 37L41 36ZM56 36L56 37L57 37L57 36ZM58 37L58 38L59 38L59 37ZM66 37L66 38L67 38L67 37ZM34 38L34 39L33 39L33 40L32 40L32 41L31 41L31 42L32 42L32 43L34 43L34 44L31 44L31 43L29 43L29 42L28 42L28 43L27 43L27 42L26 42L26 43L27 43L27 44L26 44L26 45L27 45L27 46L28 46L28 45L29 45L29 50L30 50L30 49L34 49L34 50L31 50L31 51L33 51L33 53L32 53L32 52L30 52L30 51L28 51L28 52L29 52L29 53L30 53L30 54L31 54L31 53L32 53L32 55L31 55L31 56L30 56L30 57L28 57L28 58L27 58L27 53L26 53L26 51L25 51L25 52L24 52L24 53L22 53L22 56L26 56L26 57L24 57L24 58L25 58L25 59L26 59L26 60L27 60L27 59L28 59L28 58L29 58L29 60L30 60L30 59L31 59L31 60L32 60L32 61L33 61L33 62L32 62L32 63L31 63L31 62L30 62L30 63L29 63L29 65L31 65L31 64L32 64L32 63L33 63L33 62L36 62L36 61L34 61L34 59L35 59L35 58L37 58L37 57L35 57L35 58L32 58L32 57L31 57L31 56L32 56L32 55L33 55L33 57L34 57L34 56L36 56L36 55L37 55L37 53L36 53L36 54L35 54L35 55L33 55L33 54L34 54L34 53L35 53L35 52L34 52L34 50L35 50L35 51L36 51L36 50L35 50L35 49L37 49L37 48L38 48L38 50L37 50L37 52L38 52L38 51L39 51L39 48L40 48L40 49L41 49L41 48L42 48L42 49L43 49L43 50L44 50L44 51L43 51L43 53L42 53L42 52L41 52L41 54L43 54L43 53L44 53L44 51L45 51L45 50L46 50L46 47L45 47L45 46L48 46L48 45L50 45L50 46L51 46L51 41L50 41L50 42L48 42L48 41L47 41L47 42L44 42L44 41L43 41L43 40L41 40L41 41L42 41L42 42L44 42L44 44L45 44L45 46L43 46L43 45L42 45L42 44L43 44L43 43L42 43L42 44L38 44L38 45L40 45L40 46L37 46L37 48L36 48L36 47L35 47L35 46L34 46L34 44L36 44L36 42L37 42L37 40L38 40L38 39L37 39L37 40L36 40L36 39L35 39L35 38ZM4 39L4 40L5 40L5 41L6 41L6 40L7 40L7 39L6 39L6 40L5 40L5 39ZM34 39L34 40L33 40L33 41L34 41L34 43L35 43L35 42L36 42L36 40L35 40L35 39ZM27 40L27 41L29 41L29 40ZM34 40L34 41L35 41L35 40ZM4 42L4 43L6 43L6 44L7 44L7 43L6 43L6 42ZM38 42L38 43L39 43L39 42ZM40 42L40 43L41 43L41 42ZM47 42L47 43L45 43L45 44L49 44L49 43L48 43L48 42ZM67 42L67 43L68 43L68 42ZM28 43L28 44L27 44L27 45L28 45L28 44L29 44L29 43ZM52 43L52 45L53 45L53 44L54 44L54 43ZM60 43L60 45L61 45L61 43ZM75 43L75 44L76 44L76 43ZM15 44L15 45L14 45L14 47L17 47L17 46L16 46L16 44ZM72 44L72 45L68 45L68 46L73 46L73 44ZM6 45L6 46L7 46L7 45ZM24 45L24 46L25 46L25 45ZM31 45L31 46L30 46L30 47L31 47L31 48L33 48L33 47L34 47L34 46L33 46L33 45ZM41 45L41 46L40 46L40 48L41 48L41 47L42 47L42 48L44 48L44 50L45 50L45 48L44 48L44 47L43 47L43 46L42 46L42 45ZM63 45L63 46L65 46L65 45ZM5 47L5 50L8 50L8 47ZM25 47L25 50L28 50L28 47ZM47 47L47 50L50 50L50 47ZM55 47L55 48L56 48L56 47ZM69 47L69 50L72 50L72 47ZM76 47L76 48L77 48L77 47ZM6 48L6 49L7 49L7 48ZM16 48L16 49L17 49L17 50L18 50L18 49L17 49L17 48ZM19 48L19 49L20 49L20 48ZM26 48L26 49L27 49L27 48ZM34 48L34 49L35 49L35 48ZM48 48L48 49L49 49L49 48ZM52 48L52 49L54 49L54 48ZM70 48L70 49L71 49L71 48ZM73 48L73 49L74 49L74 50L73 50L73 51L74 51L74 50L75 50L75 49L74 49L74 48ZM41 50L41 51L42 51L42 50ZM6 51L6 52L7 52L7 51ZM12 51L12 52L13 52L13 51ZM55 51L55 52L56 52L56 51ZM24 53L24 54L23 54L23 55L25 55L25 53ZM45 53L45 54L46 54L46 53ZM53 53L53 54L55 54L55 53ZM9 54L9 55L8 55L8 59L7 59L7 60L6 60L6 61L8 61L8 62L9 62L9 61L10 61L10 62L11 62L11 61L12 61L12 62L15 62L15 61L12 61L12 60L11 60L11 59L10 59L10 58L9 58L9 57L10 57L10 56L11 56L11 55L10 55L10 54ZM28 54L28 56L29 56L29 54ZM48 56L48 57L47 57L47 58L46 58L46 59L44 59L44 61L46 61L46 62L45 62L45 63L46 63L46 62L49 62L49 63L48 63L48 65L49 65L49 63L50 63L50 64L51 64L51 65L52 65L52 66L50 66L50 67L52 67L52 66L54 66L54 65L56 65L56 63L55 63L55 64L53 64L53 63L52 63L52 62L51 62L51 63L50 63L50 62L49 62L49 61L48 61L48 60L47 60L47 58L48 58L48 57L49 57L49 56ZM61 56L61 57L62 57L62 59L64 59L64 60L65 60L65 58L66 58L66 57L67 57L67 56L65 56L65 57L64 57L64 58L63 58L63 56ZM30 57L30 58L31 58L31 59L32 59L32 58L31 58L31 57ZM57 58L57 60L56 60L56 61L53 61L53 62L56 62L56 61L57 61L57 60L59 60L59 59L58 59L58 58ZM8 59L8 60L10 60L10 59ZM76 59L76 60L77 60L77 59ZM42 60L42 61L41 61L41 62L42 62L42 64L43 64L43 65L47 65L47 64L44 64L44 63L43 63L43 60ZM62 60L62 61L63 61L63 60ZM1 61L1 64L0 64L0 66L1 66L1 67L2 67L2 66L3 66L3 65L4 65L4 63L3 63L3 65L2 65L2 66L1 66L1 64L2 64L2 61ZM64 61L64 62L62 62L62 63L63 63L63 64L62 64L62 66L61 66L61 67L62 67L62 66L63 66L63 64L64 64L64 65L65 65L65 66L67 66L67 65L66 65L66 64L65 64L65 63L66 63L66 62L67 62L67 61L66 61L66 62L65 62L65 61ZM14 63L14 64L15 64L15 63ZM57 63L57 64L58 64L58 63ZM14 65L14 66L15 66L15 65ZM57 65L57 67L56 67L56 71L57 71L57 72L58 72L58 71L59 71L59 70L60 70L60 69L62 69L62 68L60 68L60 69L59 69L59 65ZM74 65L74 66L73 66L73 67L74 67L74 66L75 66L75 65ZM26 66L26 67L27 67L27 66ZM43 66L43 67L44 67L44 68L45 68L45 67L44 67L44 66ZM46 66L46 67L47 67L47 66ZM18 68L18 69L19 69L19 68ZM53 68L53 69L54 69L54 68ZM65 68L65 69L67 69L67 68ZM25 69L25 72L28 72L28 69ZM29 69L29 71L30 71L30 69ZM47 69L47 72L50 72L50 69ZM58 69L58 70L57 70L57 71L58 71L58 70L59 70L59 69ZM69 69L69 72L72 72L72 69ZM20 70L20 71L21 71L21 70ZM26 70L26 71L27 71L27 70ZM34 70L34 71L35 71L35 72L34 72L34 73L33 73L33 74L34 74L34 73L35 73L35 74L36 74L36 73L35 73L35 72L37 72L37 73L38 73L38 74L39 74L39 75L40 75L40 73L41 73L41 72L39 72L39 71L38 71L38 72L37 72L37 71L35 71L35 70ZM48 70L48 71L49 71L49 70ZM53 70L53 71L52 71L52 72L53 72L53 73L54 73L54 72L55 72L55 70ZM70 70L70 71L71 71L71 70ZM76 70L76 72L75 72L75 73L76 73L76 72L77 72L77 70ZM32 71L32 72L33 72L33 71ZM53 71L53 72L54 72L54 71ZM29 72L29 73L28 73L28 74L29 74L29 73L30 73L30 72ZM61 72L61 73L62 73L62 72ZM13 73L13 75L14 75L14 73ZM24 73L24 75L23 75L23 76L24 76L24 75L26 75L26 76L27 76L27 74L25 74L25 73ZM31 73L31 74L32 74L32 73ZM47 73L47 74L48 74L48 73ZM69 73L69 74L70 74L70 73ZM71 73L71 74L72 74L72 73ZM33 75L33 76L36 76L36 75ZM72 75L72 76L73 76L73 75ZM63 76L63 77L68 77L68 76ZM0 0L0 7L7 7L7 0ZM1 1L1 6L6 6L6 1ZM2 2L2 5L5 5L5 2ZM70 0L70 7L77 7L77 0ZM71 1L71 6L76 6L76 1ZM72 2L72 5L75 5L75 2ZM0 70L0 77L7 77L7 70ZM1 71L1 76L6 76L6 71ZM2 72L2 75L5 75L5 72Z" fill="#000000"/></g></g></svg>
