<?xml version="1.0" encoding="UTF-8"?>
<svg xmlns="http://www.w3.org/2000/svg" version="1.1" width="400" height="400" viewBox="0 0 400 400"><rect x="0" y="0" width="400" height="400" fill="#fefefe"/><g transform="scale(4.706)"><g transform="translate(4,4)"><path fill-rule="evenodd" d="M9 0L9 2L8 2L8 3L9 3L9 2L10 2L10 0ZM12 0L12 3L10 3L10 4L8 4L8 7L9 7L9 6L10 6L10 8L8 8L8 10L6 10L6 9L7 9L7 8L6 8L6 9L5 9L5 8L4 8L4 9L5 9L5 10L6 10L6 11L8 11L8 10L9 10L9 11L11 11L11 9L12 9L12 10L13 10L13 11L12 11L12 12L10 12L10 13L9 13L9 15L7 15L7 14L4 14L4 13L8 13L8 12L4 12L4 10L3 10L3 9L2 9L2 8L1 8L1 9L0 9L0 13L1 13L1 14L0 14L0 16L1 16L1 14L2 14L2 15L3 15L3 14L4 14L4 17L7 17L7 16L10 16L10 17L11 17L11 18L10 18L10 19L9 19L9 18L6 18L6 19L7 19L7 20L5 20L5 18L3 18L3 16L2 16L2 17L0 17L0 19L1 19L1 24L0 24L0 27L2 27L2 28L0 28L0 29L2 29L2 31L3 31L3 32L1 32L1 30L0 30L0 32L1 32L1 33L0 33L0 34L1 34L1 35L0 35L0 42L1 42L1 35L2 35L2 36L3 36L3 37L2 37L2 40L3 40L3 42L4 42L4 43L3 43L3 44L2 44L2 46L0 46L0 48L1 48L1 51L0 51L0 52L1 52L1 51L2 51L2 49L3 49L3 52L2 52L2 53L0 53L0 55L3 55L3 56L2 56L2 57L1 57L1 56L0 56L0 57L1 57L1 58L0 58L0 59L1 59L1 60L0 60L0 63L1 63L1 60L4 60L4 63L3 63L3 61L2 61L2 65L1 65L1 64L0 64L0 66L1 66L1 67L2 67L2 66L3 66L3 64L4 64L4 68L1 68L1 69L5 69L5 67L8 67L8 68L9 68L9 67L10 67L10 69L12 69L12 68L15 68L15 67L10 67L10 65L9 65L9 64L10 64L10 63L11 63L11 64L12 64L12 63L13 63L13 66L14 66L14 63L16 63L16 64L18 64L18 63L17 63L17 61L18 61L18 62L20 62L20 66L21 66L21 67L22 67L22 69L23 69L23 70L22 70L22 71L21 71L21 70L20 70L20 71L19 71L19 72L18 72L18 73L17 73L17 71L18 71L18 70L19 70L19 69L21 69L21 68L20 68L20 67L19 67L19 65L16 65L16 66L17 66L17 67L16 67L16 69L18 69L18 70L15 70L15 69L13 69L13 70L12 70L12 71L13 71L13 72L15 72L15 71L16 71L16 73L15 73L15 74L13 74L13 73L12 73L12 75L14 75L14 76L16 76L16 77L18 77L18 76L19 76L19 77L20 77L20 74L19 74L19 75L18 75L18 76L17 76L17 74L18 74L18 73L20 73L20 71L21 71L21 72L22 72L22 73L21 73L21 74L22 74L22 75L23 75L23 76L24 76L24 74L22 74L22 73L25 73L25 75L26 75L26 77L27 77L27 75L29 75L29 76L28 76L28 77L29 77L29 76L30 76L30 77L33 77L33 76L32 76L32 74L31 74L31 76L30 76L30 72L31 72L31 73L32 73L32 72L33 72L33 75L34 75L34 76L35 76L35 77L38 77L38 76L35 76L35 75L36 75L36 74L35 74L35 73L38 73L38 75L41 75L41 76L40 76L40 77L43 77L43 76L42 76L42 75L44 75L44 76L45 76L45 75L44 75L44 74L43 74L43 73L45 73L45 71L44 71L44 72L43 72L43 71L42 71L42 68L41 68L41 71L40 71L40 69L39 69L39 71L38 71L38 68L39 68L39 67L37 67L37 65L38 65L38 66L40 66L40 67L41 67L41 66L40 66L40 65L41 65L41 64L42 64L42 62L43 62L43 63L44 63L44 61L43 61L43 60L44 60L44 58L42 58L42 56L43 56L43 55L44 55L44 54L43 54L43 53L42 53L42 54L43 54L43 55L42 55L42 56L38 56L38 58L37 58L37 59L35 59L35 58L31 58L31 57L32 57L32 56L33 56L33 55L34 55L34 57L36 57L36 56L37 56L37 54L38 54L38 55L41 55L41 54L40 54L40 53L41 53L41 52L42 52L42 51L41 51L41 50L42 50L42 49L43 49L43 51L44 51L44 49L43 49L43 48L42 48L42 45L43 45L43 47L44 47L44 45L45 45L45 43L44 43L44 42L43 42L43 40L41 40L41 39L44 39L44 38L42 38L42 37L41 37L41 36L40 36L40 37L39 37L39 36L38 36L38 35L40 35L40 34L41 34L41 35L42 35L42 33L40 33L40 32L39 32L39 31L41 31L41 29L42 29L42 32L43 32L43 31L44 31L44 29L45 29L45 31L47 31L47 32L46 32L46 34L45 34L45 35L46 35L46 36L47 36L47 37L48 37L48 38L49 38L49 37L50 37L50 38L51 38L51 40L50 40L50 39L49 39L49 41L48 41L48 42L49 42L49 43L50 43L50 44L48 44L48 43L47 43L47 42L46 42L46 41L45 41L45 40L46 40L46 39L47 39L47 38L46 38L46 37L45 37L45 36L44 36L44 34L43 34L43 36L44 36L44 37L45 37L45 38L46 38L46 39L45 39L45 40L44 40L44 41L45 41L45 42L46 42L46 43L47 43L47 45L46 45L46 46L45 46L45 47L46 47L46 48L45 48L45 49L46 49L46 50L45 50L45 52L44 52L44 53L45 53L45 56L44 56L44 57L45 57L45 58L46 58L46 59L48 59L48 58L49 58L49 59L50 59L50 60L49 60L49 62L50 62L50 61L51 61L51 63L50 63L50 64L49 64L49 65L48 65L48 64L47 64L47 63L48 63L48 61L47 61L47 62L46 62L46 61L45 61L45 63L46 63L46 64L47 64L47 65L45 65L45 66L44 66L44 65L43 65L43 67L45 67L45 66L46 66L46 67L49 67L49 68L43 68L43 69L46 69L46 73L49 73L49 74L48 74L48 75L47 75L47 74L46 74L46 77L47 77L47 76L48 76L48 77L50 77L50 76L52 76L52 73L54 73L54 71L53 71L53 70L52 70L52 69L51 69L51 68L50 68L50 67L52 67L52 68L53 68L53 69L54 69L54 70L55 70L55 68L56 68L56 67L57 67L57 70L58 70L58 71L57 71L57 73L59 73L59 75L60 75L60 76L58 76L58 74L56 74L56 75L57 75L57 76L56 76L56 77L61 77L61 75L60 75L60 73L61 73L61 72L62 72L62 71L61 71L61 70L63 70L63 72L64 72L64 73L66 73L66 74L65 74L65 76L64 76L64 74L63 74L63 73L62 73L62 75L63 75L63 76L64 76L64 77L66 77L66 74L67 74L67 75L68 75L68 76L67 76L67 77L69 77L69 76L70 76L70 77L76 77L76 76L73 76L73 74L74 74L74 75L77 75L77 74L76 74L76 71L77 71L77 70L76 70L76 67L75 67L75 66L76 66L76 64L75 64L75 65L74 65L74 64L73 64L73 65L72 65L72 66L71 66L71 64L72 64L72 59L74 59L74 60L73 60L73 62L74 62L74 63L75 63L75 62L76 62L76 63L77 63L77 62L76 62L76 60L75 60L75 59L77 59L77 57L76 57L76 55L77 55L77 54L76 54L76 52L75 52L75 53L74 53L74 52L72 52L72 51L73 51L73 50L74 50L74 51L77 51L77 50L75 50L75 49L76 49L76 48L75 48L75 45L76 45L76 44L75 44L75 43L77 43L77 41L75 41L75 40L74 40L74 41L73 41L73 43L72 43L72 42L71 42L71 43L70 43L70 42L69 42L69 41L70 41L70 40L69 40L69 41L68 41L68 42L67 42L67 41L66 41L66 39L67 39L67 38L68 38L68 39L71 39L71 41L72 41L72 38L70 38L70 37L71 37L71 36L72 36L72 37L73 37L73 38L75 38L75 37L76 37L76 32L77 32L77 30L76 30L76 29L77 29L77 28L76 28L76 27L77 27L77 26L76 26L76 27L75 27L75 25L74 25L74 24L72 24L72 23L73 23L73 22L74 22L74 23L75 23L75 24L76 24L76 23L77 23L77 21L76 21L76 19L77 19L77 18L76 18L76 16L74 16L74 15L77 15L77 13L76 13L76 11L77 11L77 10L76 10L76 9L75 9L75 8L74 8L74 9L73 9L73 8L71 8L71 9L70 9L70 8L69 8L69 6L68 6L68 9L67 9L67 11L69 11L69 10L71 10L71 11L70 11L70 12L68 12L68 13L67 13L67 14L65 14L65 13L66 13L66 11L65 11L65 13L64 13L64 10L65 10L65 8L67 8L67 5L69 5L69 1L68 1L68 4L66 4L66 2L67 2L67 1L66 1L66 0L64 0L64 2L63 2L63 4L62 4L62 3L60 3L60 2L56 2L56 1L57 1L57 0L56 0L56 1L55 1L55 0L54 0L54 1L53 1L53 0L50 0L50 1L48 1L48 0L47 0L47 1L44 1L44 0L42 0L42 2L43 2L43 3L42 3L42 4L41 4L41 5L39 5L39 6L38 6L38 7L39 7L39 6L40 6L40 7L41 7L41 8L38 8L38 10L39 10L39 11L40 11L40 9L41 9L41 8L42 8L42 7L43 7L43 5L44 5L44 8L45 8L45 16L44 16L44 14L43 14L43 15L42 15L42 13L40 13L40 15L39 15L39 13L37 13L37 12L38 12L38 11L37 11L37 10L36 10L36 9L35 9L35 8L37 8L37 6L36 6L36 7L35 7L35 5L36 5L36 3L37 3L37 4L38 4L38 1L39 1L39 3L41 3L41 1L39 1L39 0L37 0L37 1L36 1L36 0L34 0L34 1L33 1L33 0L32 0L32 1L30 1L30 0L27 0L27 1L26 1L26 0L25 0L25 1L23 1L23 0L22 0L22 2L21 2L21 3L20 3L20 2L19 2L19 3L20 3L20 4L19 4L19 5L18 5L18 7L17 7L17 6L16 6L16 8L18 8L18 9L17 9L17 10L18 10L18 9L19 9L19 5L20 5L20 8L22 8L22 9L21 9L21 11L20 11L20 10L19 10L19 11L20 11L20 12L19 12L19 13L21 13L21 11L22 11L22 12L23 12L23 8L24 8L24 9L26 9L26 10L28 10L28 12L29 12L29 13L30 13L30 14L29 14L29 15L30 15L30 16L27 16L27 15L26 15L26 14L28 14L28 13L27 13L27 12L25 12L25 10L24 10L24 13L23 13L23 15L21 15L21 16L20 16L20 17L22 17L22 18L24 18L24 16L23 16L23 15L25 15L25 19L26 19L26 20L25 20L25 22L26 22L26 20L27 20L27 21L28 21L28 22L27 22L27 23L28 23L28 22L29 22L29 24L26 24L26 23L24 23L24 22L23 22L23 21L24 21L24 20L23 20L23 19L21 19L21 18L18 18L18 17L19 17L19 16L18 16L18 17L17 17L17 16L16 16L16 18L17 18L17 19L16 19L16 20L17 20L17 19L19 19L19 20L18 20L18 21L19 21L19 22L18 22L18 23L16 23L16 21L15 21L15 19L14 19L14 18L15 18L15 17L14 17L14 15L15 15L15 14L17 14L17 15L20 15L20 14L18 14L18 13L15 13L15 12L16 12L16 10L15 10L15 9L14 9L14 8L12 8L12 7L13 7L13 6L12 6L12 7L11 7L11 4L12 4L12 3L13 3L13 0ZM15 0L15 1L16 1L16 3L17 3L17 4L18 4L18 3L17 3L17 2L18 2L18 0L17 0L17 1L16 1L16 0ZM20 0L20 1L21 1L21 0ZM58 0L58 1L61 1L61 0ZM62 0L62 1L63 1L63 0ZM25 1L25 2L22 2L22 3L21 3L21 4L20 4L20 5L21 5L21 4L22 4L22 5L24 5L24 4L29 4L29 7L30 7L30 4L29 4L29 2L30 2L30 3L31 3L31 2L30 2L30 1L29 1L29 2L28 2L28 1L27 1L27 2L28 2L28 3L26 3L26 1ZM32 1L32 2L33 2L33 1ZM47 1L47 3L46 3L46 4L47 4L47 3L48 3L48 4L49 4L49 3L51 3L51 1L50 1L50 2L49 2L49 3L48 3L48 1ZM52 1L52 2L53 2L53 1ZM34 2L34 3L33 3L33 4L35 4L35 2ZM44 2L44 5L45 5L45 7L46 7L46 5L45 5L45 2ZM54 2L54 3L53 3L53 4L52 4L52 5L51 5L51 7L52 7L52 8L51 8L51 9L53 9L53 10L54 10L54 11L57 11L57 10L59 10L59 9L62 9L62 10L60 10L60 11L59 11L59 12L58 12L58 15L56 15L56 14L57 14L57 13L56 13L56 12L55 12L55 14L54 14L54 13L52 13L52 16L53 16L53 15L54 15L54 16L56 16L56 17L55 17L55 19L54 19L54 21L55 21L55 23L54 23L54 25L55 25L55 28L54 28L54 29L53 29L53 27L54 27L54 26L53 26L53 25L52 25L52 24L51 24L51 22L50 22L50 23L49 23L49 21L50 21L50 20L51 20L51 18L50 18L50 19L49 19L49 17L50 17L50 14L48 14L48 13L51 13L51 12L52 12L52 11L50 11L50 9L46 9L46 11L47 11L47 13L46 13L46 16L47 16L47 17L45 17L45 18L44 18L44 17L42 17L42 16L40 16L40 17L39 17L39 16L38 16L38 15L37 15L37 13L36 13L36 10L35 10L35 9L34 9L34 10L33 10L33 11L34 11L34 12L31 12L31 11L30 11L30 10L29 10L29 12L30 12L30 13L32 13L32 15L31 15L31 14L30 14L30 15L31 15L31 16L32 16L32 15L33 15L33 14L34 14L34 15L35 15L35 16L36 16L36 19L32 19L32 18L33 18L33 17L32 17L32 18L31 18L31 19L32 19L32 21L33 21L33 22L32 22L32 23L33 23L33 24L32 24L32 26L33 26L33 25L34 25L34 24L35 24L35 23L34 23L34 22L37 22L37 21L38 21L38 22L39 22L39 21L38 21L38 20L36 20L36 19L38 19L38 17L39 17L39 18L40 18L40 23L39 23L39 27L40 27L40 29L41 29L41 27L40 27L40 26L41 26L41 25L40 25L40 23L44 23L44 24L45 24L45 22L46 22L46 24L48 24L48 23L49 23L49 24L51 24L51 25L52 25L52 26L53 26L53 27L51 27L51 29L49 29L49 30L47 30L47 29L46 29L46 27L45 27L45 25L44 25L44 28L43 28L43 29L44 29L44 28L45 28L45 29L46 29L46 30L47 30L47 31L49 31L49 32L50 32L50 33L49 33L49 34L48 34L48 33L47 33L47 34L48 34L48 35L49 35L49 36L48 36L48 37L49 37L49 36L51 36L51 35L50 35L50 33L51 33L51 32L52 32L52 33L53 33L53 34L54 34L54 35L56 35L56 36L54 36L54 37L53 37L53 35L52 35L52 38L55 38L55 39L54 39L54 40L55 40L55 41L53 41L53 39L52 39L52 40L51 40L51 41L53 41L53 42L52 42L52 44L51 44L51 45L52 45L52 44L53 44L53 42L54 42L54 45L55 45L55 47L54 47L54 46L52 46L52 47L54 47L54 48L55 48L55 49L56 49L56 50L55 50L55 51L54 51L54 52L55 52L55 53L52 53L52 52L53 52L53 49L52 49L52 48L51 48L51 50L52 50L52 52L51 52L51 51L48 51L48 52L47 52L47 53L48 53L48 55L47 55L47 57L48 57L48 56L49 56L49 53L50 53L50 52L51 52L51 53L52 53L52 54L53 54L53 56L52 56L52 55L51 55L51 57L52 57L52 58L53 58L53 56L54 56L54 57L55 57L55 59L54 59L54 61L53 61L53 60L52 60L52 59L51 59L51 58L50 58L50 59L51 59L51 61L52 61L52 62L53 62L53 63L54 63L54 64L55 64L55 66L54 66L54 65L53 65L53 64L52 64L52 63L51 63L51 65L50 65L50 66L51 66L51 65L52 65L52 66L53 66L53 67L54 67L54 68L55 68L55 67L56 67L56 65L57 65L57 66L58 66L58 65L60 65L60 64L61 64L61 65L62 65L62 66L61 66L61 69L60 69L60 68L59 68L59 67L58 67L58 69L60 69L60 70L61 70L61 69L62 69L62 67L63 67L63 65L62 65L62 64L63 64L63 63L62 63L62 62L63 62L63 60L64 60L64 61L65 61L65 59L66 59L66 61L67 61L67 59L68 59L68 58L67 58L67 59L66 59L66 58L64 58L64 59L62 59L62 56L63 56L63 52L62 52L62 51L60 51L60 52L59 52L59 53L60 53L60 55L61 55L61 56L59 56L59 57L61 57L61 58L60 58L60 59L61 59L61 60L58 60L58 61L55 61L55 60L56 60L56 56L55 56L55 55L57 55L57 54L58 54L58 55L59 55L59 54L58 54L58 53L56 53L56 52L57 52L57 51L56 51L56 50L58 50L58 49L61 49L61 48L62 48L62 49L63 49L63 50L64 50L64 53L65 53L65 50L67 50L67 51L66 51L66 55L67 55L67 56L64 56L64 57L67 57L67 56L68 56L68 55L69 55L69 54L70 54L70 53L69 53L69 52L68 52L68 50L67 50L67 49L68 49L68 48L66 48L66 49L65 49L65 48L64 48L64 49L63 49L63 47L61 47L61 46L62 46L62 45L63 45L63 44L62 44L62 42L60 42L60 43L59 43L59 45L58 45L58 49L56 49L56 45L57 45L57 41L56 41L56 39L58 39L58 38L57 38L57 35L58 35L58 34L60 34L60 35L61 35L61 36L58 36L58 37L61 37L61 38L60 38L60 39L59 39L59 40L58 40L58 41L64 41L64 42L66 42L66 43L67 43L67 42L66 42L66 41L64 41L64 40L62 40L62 37L63 37L63 34L62 34L62 33L64 33L64 35L65 35L65 33L64 33L64 32L62 32L62 30L61 30L61 29L63 29L63 28L62 28L62 27L64 27L64 29L67 29L67 28L68 28L68 26L67 26L67 25L65 25L65 23L64 23L64 25L65 25L65 26L67 26L67 28L65 28L65 27L64 27L64 26L63 26L63 25L62 25L62 26L61 26L61 24L62 24L62 23L63 23L63 21L65 21L65 22L66 22L66 21L68 21L68 22L70 22L70 21L71 21L71 20L70 20L70 19L69 19L69 21L68 21L68 19L66 19L66 18L65 18L65 17L68 17L68 18L71 18L71 19L72 19L72 17L74 17L74 16L73 16L73 15L74 15L74 13L75 13L75 11L76 11L76 10L75 10L75 11L74 11L74 10L73 10L73 11L72 11L72 12L70 12L70 13L71 13L71 14L70 14L70 15L69 15L69 14L68 14L68 15L67 15L67 16L63 16L63 17L62 17L62 15L63 15L63 9L64 9L64 8L65 8L65 7L66 7L66 4L65 4L65 5L63 5L63 7L62 7L62 6L61 6L61 8L60 8L60 5L61 5L61 4L60 4L60 3L56 3L56 4L55 4L55 2ZM64 2L64 3L65 3L65 2ZM22 3L22 4L24 4L24 3ZM13 4L13 5L16 5L16 4ZM59 4L59 5L60 5L60 4ZM25 5L25 8L28 8L28 5ZM31 5L31 7L32 7L32 8L33 8L33 7L34 7L34 8L35 8L35 7L34 7L34 6L33 6L33 5ZM41 5L41 7L42 7L42 5ZM47 5L47 8L50 8L50 5ZM52 5L52 7L53 7L53 8L54 8L54 9L56 9L56 10L57 10L57 9L58 9L58 7L59 7L59 6L58 6L58 7L57 7L57 5L54 5L54 7L53 7L53 5ZM14 6L14 7L15 7L15 6ZM21 6L21 7L22 7L22 8L23 8L23 7L24 7L24 6L23 6L23 7L22 7L22 6ZM26 6L26 7L27 7L27 6ZM32 6L32 7L33 7L33 6ZM48 6L48 7L49 7L49 6ZM55 6L55 7L54 7L54 8L56 8L56 9L57 9L57 7L56 7L56 6ZM64 6L64 7L65 7L65 6ZM29 8L29 9L31 9L31 8ZM62 8L62 9L63 9L63 8ZM9 9L9 10L10 10L10 9ZM42 9L42 10L41 10L41 11L42 11L42 12L43 12L43 13L44 13L44 9ZM1 10L1 13L2 13L2 10ZM14 10L14 11L15 11L15 10ZM42 10L42 11L43 11L43 10ZM47 10L47 11L48 11L48 12L49 12L49 10ZM13 12L13 14L12 14L12 13L11 13L11 14L10 14L10 16L12 16L12 17L13 17L13 18L14 18L14 17L13 17L13 14L15 14L15 13L14 13L14 12ZM60 12L60 13L59 13L59 15L58 15L58 16L57 16L57 17L56 17L56 18L57 18L57 20L56 20L56 19L55 19L55 21L56 21L56 22L57 22L57 21L58 21L58 20L59 20L59 19L60 19L60 18L61 18L61 19L62 19L62 18L61 18L61 15L62 15L62 13L61 13L61 12ZM73 12L73 13L72 13L72 14L71 14L71 17L72 17L72 15L73 15L73 13L74 13L74 12ZM24 13L24 14L25 14L25 13ZM34 13L34 14L35 14L35 13ZM11 14L11 15L12 15L12 14ZM47 14L47 15L48 15L48 17L47 17L47 18L48 18L48 17L49 17L49 15L48 15L48 14ZM60 14L60 15L61 15L61 14ZM6 15L6 16L7 16L7 15ZM26 16L26 18L27 18L27 19L28 19L28 18L29 18L29 17L27 17L27 16ZM68 16L68 17L70 17L70 16ZM40 17L40 18L41 18L41 19L42 19L42 18L41 18L41 17ZM58 17L58 19L59 19L59 17ZM63 17L63 20L64 20L64 19L65 19L65 21L66 21L66 19L65 19L65 18L64 18L64 17ZM11 18L11 19L10 19L10 20L9 20L9 19L8 19L8 20L9 20L9 22L10 22L10 23L9 23L9 27L10 27L10 23L12 23L12 24L11 24L11 27L12 27L12 24L14 24L14 23L15 23L15 21L14 21L14 19L12 19L12 18ZM45 18L45 20L42 20L42 22L43 22L43 21L46 21L46 22L47 22L47 19L46 19L46 18ZM73 18L73 20L72 20L72 21L73 21L73 20L74 20L74 21L75 21L75 22L76 22L76 21L75 21L75 19L76 19L76 18L75 18L75 19L74 19L74 18ZM11 19L11 21L10 21L10 22L13 22L13 23L14 23L14 21L12 21L12 19ZM20 19L20 20L21 20L21 21L23 21L23 20L21 20L21 19ZM29 19L29 20L30 20L30 21L29 21L29 22L30 22L30 24L31 24L31 22L30 22L30 21L31 21L31 20L30 20L30 19ZM48 19L48 21L49 21L49 19ZM52 19L52 23L53 23L53 19ZM2 20L2 22L3 22L3 20ZM33 20L33 21L36 21L36 20ZM5 21L5 22L4 22L4 23L3 23L3 24L2 24L2 25L3 25L3 26L2 26L2 27L4 27L4 23L6 23L6 24L8 24L8 21ZM59 21L59 22L58 22L58 23L57 23L57 24L56 24L56 25L59 25L59 26L58 26L58 27L57 27L57 26L56 26L56 27L57 27L57 28L55 28L55 29L59 29L59 30L58 30L58 31L57 31L57 32L56 32L56 31L55 31L55 32L54 32L54 31L53 31L53 33L56 33L56 35L57 35L57 33L58 33L58 31L59 31L59 32L60 32L60 31L61 31L61 30L60 30L60 29L59 29L59 28L61 28L61 27L60 27L60 23L61 23L61 22L60 22L60 21ZM6 22L6 23L7 23L7 22ZM21 22L21 23L18 23L18 24L16 24L16 25L13 25L13 26L19 26L19 27L18 27L18 28L19 28L19 29L18 29L18 30L17 30L17 29L13 29L13 28L15 28L15 27L13 27L13 28L11 28L11 29L10 29L10 28L9 28L9 29L8 29L8 30L7 30L7 29L5 29L5 30L4 30L4 29L3 29L3 28L2 28L2 29L3 29L3 31L6 31L6 32L7 32L7 33L6 33L6 34L5 34L5 32L4 32L4 34L3 34L3 36L4 36L4 37L3 37L3 38L4 38L4 37L5 37L5 38L7 38L7 37L8 37L8 39L3 39L3 40L4 40L4 41L6 41L6 42L5 42L5 43L4 43L4 44L5 44L5 46L7 46L7 45L6 45L6 44L8 44L8 46L9 46L9 47L10 47L10 48L9 48L9 49L11 49L11 47L12 47L12 48L13 48L13 47L12 47L12 46L11 46L11 47L10 47L10 46L9 46L9 45L10 45L10 44L9 44L9 43L11 43L11 44L12 44L12 43L13 43L13 45L15 45L15 46L14 46L14 48L15 48L15 49L14 49L14 50L13 50L13 51L12 51L12 52L9 52L9 51L10 51L10 50L9 50L9 51L6 51L6 52L5 52L5 51L4 51L4 53L6 53L6 54L5 54L5 57L4 57L4 56L3 56L3 57L4 57L4 58L3 58L3 59L4 59L4 58L5 58L5 57L6 57L6 58L7 58L7 59L6 59L6 60L5 60L5 61L6 61L6 62L8 62L8 61L6 61L6 60L7 60L7 59L8 59L8 60L11 60L11 61L9 61L9 63L8 63L8 64L9 64L9 63L10 63L10 62L11 62L11 61L13 61L13 62L15 62L15 61L16 61L16 60L15 60L15 59L14 59L14 60L11 60L11 59L8 59L8 58L11 58L11 57L8 57L8 56L9 56L9 55L8 55L8 56L7 56L7 55L6 55L6 54L8 54L8 53L9 53L9 54L10 54L10 56L12 56L12 55L13 55L13 56L14 56L14 57L12 57L12 59L13 59L13 58L14 58L14 57L16 57L16 58L17 58L17 57L18 57L18 59L17 59L17 60L18 60L18 61L20 61L20 60L21 60L21 62L22 62L22 63L21 63L21 65L23 65L23 64L24 64L24 63L25 63L25 66L22 66L22 67L23 67L23 68L24 68L24 67L25 67L25 66L27 66L27 67L26 67L26 68L29 68L29 72L30 72L30 68L29 68L29 66L27 66L27 65L29 65L29 64L30 64L30 62L29 62L29 64L27 64L27 65L26 65L26 63L27 63L27 61L30 61L30 59L31 59L31 60L32 60L32 61L31 61L31 62L32 62L32 65L31 65L31 68L32 68L32 70L31 70L31 72L32 72L32 71L33 71L33 72L38 72L38 73L39 73L39 74L41 74L41 75L42 75L42 73L40 73L40 71L39 71L39 72L38 72L38 71L37 71L37 69L36 69L36 71L34 71L34 70L33 70L33 69L35 69L35 68L36 68L36 67L35 67L35 66L32 66L32 65L33 65L33 64L34 64L34 63L35 63L35 64L36 64L36 63L38 63L38 64L41 64L41 62L40 62L40 61L42 61L42 60L41 60L41 59L42 59L42 58L41 58L41 57L40 57L40 59L39 59L39 58L38 58L38 59L37 59L37 61L35 61L35 62L34 62L34 60L35 60L35 59L33 59L33 60L32 60L32 59L31 59L31 58L30 58L30 57L31 57L31 56L32 56L32 55L31 55L31 54L33 54L33 53L31 53L31 52L34 52L34 51L35 51L35 53L34 53L34 55L35 55L35 56L36 56L36 52L39 52L39 51L40 51L40 52L41 52L41 51L40 51L40 50L41 50L41 49L42 49L42 48L41 48L41 46L40 46L40 45L41 45L41 44L40 44L40 45L39 45L39 46L38 46L38 47L40 47L40 50L39 50L39 49L38 49L38 48L37 48L37 45L36 45L36 44L37 44L37 43L35 43L35 45L33 45L33 44L34 44L34 43L33 43L33 42L32 42L32 41L34 41L34 40L33 40L33 39L34 39L34 38L33 38L33 35L34 35L34 37L36 37L36 35L38 35L38 34L40 34L40 33L39 33L39 32L35 32L35 30L36 30L36 29L38 29L38 31L39 31L39 29L38 29L38 27L36 27L36 26L35 26L35 27L34 27L34 29L33 29L33 31L31 31L31 32L34 32L34 34L33 34L33 35L32 35L32 34L31 34L31 33L30 33L30 32L29 32L29 35L30 35L30 36L31 36L31 37L30 37L30 38L29 38L29 39L28 39L28 38L27 38L27 39L25 39L25 40L24 40L24 41L23 41L23 40L22 40L22 39L21 39L21 37L23 37L23 35L25 35L25 33L26 33L26 35L27 35L27 36L28 36L28 32L24 32L24 33L23 33L23 31L24 31L24 28L23 28L23 30L22 30L22 33L21 33L21 32L20 32L20 33L21 33L21 35L20 35L20 34L17 34L17 36L16 36L16 37L14 37L14 36L15 36L15 35L16 35L16 34L15 34L15 33L14 33L14 34L15 34L15 35L13 35L13 34L11 34L11 33L12 33L12 32L14 32L14 31L16 31L16 30L17 30L17 31L20 31L20 29L22 29L22 28L21 28L21 27L20 27L20 26L22 26L22 27L24 27L24 26L23 26L23 23L22 23L22 22ZM21 23L21 24L18 24L18 25L21 25L21 24L22 24L22 23ZM67 23L67 24L69 24L69 23ZM70 23L70 24L71 24L71 23ZM37 24L37 26L38 26L38 24ZM5 25L5 28L8 28L8 25ZM25 25L25 28L28 28L28 25ZM30 25L30 28L29 28L29 29L27 29L27 30L26 30L26 31L28 31L28 30L29 30L29 29L30 29L30 30L32 30L32 28L31 28L31 25ZM47 25L47 28L50 28L50 25ZM69 25L69 28L72 28L72 25ZM6 26L6 27L7 27L7 26ZM26 26L26 27L27 27L27 26ZM42 26L42 27L43 27L43 26ZM48 26L48 27L49 27L49 26ZM70 26L70 27L71 27L71 26ZM73 26L73 27L74 27L74 26ZM19 27L19 28L20 28L20 27ZM35 27L35 29L34 29L34 30L35 30L35 29L36 29L36 27ZM58 27L58 28L59 28L59 27ZM30 28L30 29L31 29L31 28ZM75 28L75 29L76 29L76 28ZM51 29L51 31L50 31L50 32L51 32L51 31L52 31L52 30L53 30L53 29ZM69 29L69 30L70 30L70 31L71 31L71 30L72 30L72 31L74 31L74 29ZM6 30L6 31L7 31L7 32L8 32L8 31L9 31L9 32L10 32L10 33L7 33L7 34L6 34L6 35L8 35L8 34L9 34L9 35L11 35L11 34L10 34L10 33L11 33L11 31L9 31L9 30L8 30L8 31L7 31L7 30ZM13 30L13 31L14 31L14 30ZM64 30L64 31L65 31L65 32L66 32L66 33L67 33L67 32L68 32L68 33L69 33L69 34L70 34L70 35L71 35L71 33L72 33L72 35L75 35L75 34L74 34L74 33L75 33L75 32L71 32L71 33L70 33L70 32L69 32L69 31L68 31L68 30ZM16 32L16 33L19 33L19 32ZM44 32L44 33L45 33L45 32ZM61 32L61 33L60 33L60 34L61 34L61 35L62 35L62 34L61 34L61 33L62 33L62 32ZM1 33L1 34L2 34L2 33ZM35 33L35 34L34 34L34 35L35 35L35 34L36 34L36 33ZM4 34L4 36L5 36L5 34ZM30 34L30 35L31 35L31 36L32 36L32 35L31 35L31 34ZM67 34L67 35L66 35L66 37L65 37L65 36L64 36L64 37L65 37L65 38L64 38L64 39L65 39L65 38L67 38L67 37L70 37L70 36L69 36L69 35L68 35L68 34ZM12 35L12 37L11 37L11 38L10 38L10 36L8 36L8 37L9 37L9 38L10 38L10 39L8 39L8 40L6 40L6 41L7 41L7 42L6 42L6 43L9 43L9 42L11 42L11 43L12 43L12 42L11 42L11 41L12 41L12 39L13 39L13 41L14 41L14 42L15 42L15 43L14 43L14 44L15 44L15 45L17 45L17 47L16 47L16 46L15 46L15 47L16 47L16 50L17 50L17 49L19 49L19 47L20 47L20 46L21 46L21 47L23 47L23 48L20 48L20 50L18 50L18 52L17 52L17 53L18 53L18 52L19 52L19 54L20 54L20 55L17 55L17 56L16 56L16 55L14 55L14 54L13 54L13 55L14 55L14 56L16 56L16 57L17 57L17 56L19 56L19 57L20 57L20 58L19 58L19 59L18 59L18 60L20 60L20 58L21 58L21 59L22 59L22 58L23 58L23 56L25 56L25 55L26 55L26 56L27 56L27 57L26 57L26 58L24 58L24 59L23 59L23 60L25 60L25 63L26 63L26 58L27 58L27 57L28 57L28 59L27 59L27 60L29 60L29 57L28 57L28 56L31 56L31 55L30 55L30 54L31 54L31 53L30 53L30 54L29 54L29 55L28 55L28 56L27 56L27 55L26 55L26 54L27 54L27 52L25 52L25 53L24 53L24 54L23 54L23 53L22 53L22 54L21 54L21 52L23 52L23 50L24 50L24 51L29 51L29 52L30 52L30 51L33 51L33 48L32 48L32 49L30 49L30 50L29 50L29 48L31 48L31 47L32 47L32 46L33 46L33 45L32 45L32 43L31 43L31 44L29 44L29 43L30 43L30 41L31 41L31 40L32 40L32 37L31 37L31 38L30 38L30 40L29 40L29 42L27 42L27 41L28 41L28 40L25 40L25 42L24 42L24 43L28 43L28 44L27 44L27 45L28 45L28 46L25 46L25 44L23 44L23 42L21 42L21 40L19 40L19 35L18 35L18 36L17 36L17 37L18 37L18 38L12 38L12 37L13 37L13 35ZM6 36L6 37L7 37L7 36ZM20 36L20 37L21 37L21 36ZM73 36L73 37L74 37L74 36ZM38 37L38 38L35 38L35 41L36 41L36 42L39 42L39 43L38 43L38 44L39 44L39 43L40 43L40 42L42 42L42 44L43 44L43 42L42 42L42 41L41 41L41 40L40 40L40 39L39 39L39 40L38 40L38 38L39 38L39 37ZM40 37L40 38L41 38L41 37ZM11 38L11 39L10 39L10 40L8 40L8 42L9 42L9 41L10 41L10 40L11 40L11 39L12 39L12 38ZM76 38L76 39L77 39L77 38ZM36 39L36 40L37 40L37 39ZM60 39L60 40L61 40L61 39ZM15 40L15 41L16 41L16 40ZM17 41L17 42L18 42L18 43L16 43L16 44L17 44L17 45L18 45L18 44L19 44L19 45L20 45L20 44L21 44L21 46L23 46L23 47L24 47L24 46L23 46L23 44L22 44L22 43L19 43L19 42L18 42L18 41ZM39 41L39 42L40 42L40 41ZM49 41L49 42L50 42L50 43L51 43L51 42L50 42L50 41ZM55 42L55 45L56 45L56 42ZM64 43L64 45L65 45L65 46L64 46L64 47L68 47L68 45L67 45L67 44L65 44L65 43ZM68 43L68 44L69 44L69 45L70 45L70 46L71 46L71 45L72 45L72 46L73 46L73 47L74 47L74 45L75 45L75 44L74 44L74 43L73 43L73 44L71 44L71 45L70 45L70 44L69 44L69 43ZM0 44L0 45L1 45L1 44ZM28 44L28 45L29 45L29 44ZM73 44L73 45L74 45L74 44ZM3 45L3 48L4 48L4 45ZM35 45L35 46L36 46L36 45ZM47 45L47 46L50 46L50 45ZM59 45L59 48L60 48L60 45ZM66 45L66 46L67 46L67 45ZM18 46L18 47L17 47L17 48L18 48L18 47L19 47L19 46ZM29 46L29 47L31 47L31 46ZM76 46L76 47L77 47L77 46ZM1 47L1 48L2 48L2 47ZM5 47L5 50L8 50L8 47ZM25 47L25 50L28 50L28 47ZM47 47L47 50L50 50L50 47ZM69 47L69 50L72 50L72 47ZM6 48L6 49L7 49L7 48ZM23 48L23 49L22 49L22 50L21 50L21 51L19 51L19 52L21 52L21 51L22 51L22 50L23 50L23 49L24 49L24 48ZM26 48L26 49L27 49L27 48ZM34 48L34 49L35 49L35 50L36 50L36 48ZM48 48L48 49L49 49L49 48ZM70 48L70 49L71 49L71 48ZM74 48L74 49L75 49L75 48ZM37 49L37 51L39 51L39 50L38 50L38 49ZM64 49L64 50L65 50L65 49ZM14 51L14 52L16 52L16 51ZM6 52L6 53L8 53L8 52ZM12 52L12 53L13 53L13 52ZM45 52L45 53L46 53L46 52ZM48 52L48 53L49 53L49 52ZM60 52L60 53L61 53L61 54L62 54L62 52ZM67 52L67 53L68 53L68 52ZM71 52L71 53L72 53L72 52ZM15 53L15 54L16 54L16 53ZM25 53L25 54L26 54L26 53ZM73 53L73 54L74 54L74 53ZM3 54L3 55L4 55L4 54ZM11 54L11 55L12 55L12 54ZM64 54L64 55L65 55L65 54ZM67 54L67 55L68 55L68 54ZM71 54L71 55L70 55L70 56L69 56L69 58L70 58L70 57L71 57L71 58L72 58L72 57L74 57L74 56L73 56L73 55L72 55L72 54ZM75 54L75 55L76 55L76 54ZM20 55L20 57L22 57L22 56L23 56L23 55L22 55L22 56L21 56L21 55ZM6 56L6 57L7 57L7 56ZM45 56L45 57L46 57L46 56ZM57 56L57 58L58 58L58 56ZM1 58L1 59L2 59L2 58ZM38 59L38 61L40 61L40 60L39 60L39 59ZM69 59L69 60L68 60L68 61L69 61L69 62L67 62L67 63L66 63L66 64L68 64L68 63L69 63L69 67L68 67L68 68L71 68L71 67L70 67L70 64L71 64L71 63L69 63L69 62L71 62L71 59ZM74 60L74 61L75 61L75 60ZM54 61L54 63L55 63L55 61ZM59 61L59 62L57 62L57 64L59 64L59 63L60 63L60 61ZM61 61L61 62L62 62L62 61ZM23 62L23 63L22 63L22 64L23 64L23 63L24 63L24 62ZM33 62L33 63L34 63L34 62ZM64 62L64 65L65 65L65 66L64 66L64 68L63 68L63 69L64 69L64 68L65 68L65 66L66 66L66 69L65 69L65 70L64 70L64 71L66 71L66 69L67 69L67 66L68 66L68 65L67 65L67 66L66 66L66 65L65 65L65 62ZM4 63L4 64L5 64L5 65L6 65L6 66L7 66L7 65L6 65L6 64L7 64L7 63L6 63L6 64L5 64L5 63ZM8 65L8 66L9 66L9 65ZM18 67L18 68L19 68L19 67ZM33 67L33 68L34 68L34 67ZM72 67L72 68L74 68L74 69L75 69L75 68L74 68L74 67ZM6 68L6 69L7 69L7 68ZM8 69L8 70L9 70L9 71L11 71L11 70L9 70L9 69ZM25 69L25 72L28 72L28 69ZM47 69L47 72L50 72L50 69ZM69 69L69 72L72 72L72 69ZM14 70L14 71L15 71L15 70ZM26 70L26 71L27 71L27 70ZM48 70L48 71L49 71L49 70ZM70 70L70 71L71 71L71 70ZM75 70L75 71L76 71L76 70ZM22 71L22 72L23 72L23 71ZM59 71L59 72L60 72L60 71ZM73 71L73 72L74 72L74 73L75 73L75 72L74 72L74 71ZM8 72L8 73L10 73L10 74L9 74L9 75L8 75L8 76L10 76L10 77L11 77L11 76L10 76L10 74L11 74L11 72ZM51 72L51 73L50 73L50 74L49 74L49 75L48 75L48 76L49 76L49 75L51 75L51 73L52 73L52 72ZM55 72L55 73L56 73L56 72ZM28 73L28 74L29 74L29 73ZM67 73L67 74L68 74L68 75L70 75L70 74L69 74L69 73ZM71 73L71 75L72 75L72 74L73 74L73 73ZM26 74L26 75L27 75L27 74ZM34 74L34 75L35 75L35 74ZM53 74L53 77L54 77L54 75L55 75L55 74ZM12 76L12 77L13 77L13 76ZM0 0L0 7L7 7L7 0ZM1 1L1 6L6 6L6 1ZM2 2L2 5L5 5L5 2ZM70 0L70 7L77 7L77 0ZM71 1L71 6L76 6L76 1ZM72 2L72 5L75 5L75 2ZM0 70L0 77L7 77L7 70ZM1 71L1 76L6 76L6 71ZM2 72L2 75L5 75L5 72Z" fill="#000000"/></g></g></svg>
