<?xml version="1.0" encoding="UTF-8"?>
<svg xmlns="http://www.w3.org/2000/svg" version="1.1" width="400" height="400" viewBox="0 0 400 400"><rect x="0" y="0" width="400" height="400" fill="#fefefe"/><g transform="scale(4.494)"><g transform="translate(4,4)"><path fill-rule="evenodd" d="M9 0L9 3L8 3L8 4L9 4L9 5L8 5L8 8L9 8L9 5L12 5L12 4L14 4L14 7L13 7L13 6L12 6L12 7L11 7L11 6L10 6L10 7L11 7L11 8L10 8L10 9L11 9L11 10L12 10L12 9L13 9L13 8L14 8L14 7L15 7L15 8L16 8L16 11L15 11L15 12L14 12L14 13L16 13L16 14L13 14L13 12L11 12L11 13L10 13L10 12L9 12L9 11L10 11L10 10L9 10L9 9L8 9L8 10L5 10L5 11L8 11L8 12L9 12L9 15L10 15L10 16L12 16L12 15L13 15L13 17L11 17L11 18L10 18L10 19L11 19L11 18L12 18L12 19L13 19L13 20L9 20L9 17L8 17L8 18L6 18L6 17L7 17L7 16L5 16L5 17L4 17L4 18L3 18L3 19L2 19L2 18L1 18L1 17L2 17L2 16L4 16L4 14L5 14L5 13L7 13L7 14L6 14L6 15L8 15L8 13L7 13L7 12L5 12L5 13L3 13L3 12L4 12L4 11L3 11L3 12L2 12L2 11L1 11L1 10L3 10L3 8L1 8L1 9L0 9L0 11L1 11L1 12L2 12L2 13L3 13L3 14L2 14L2 16L1 16L1 17L0 17L0 23L2 23L2 24L0 24L0 25L2 25L2 26L0 26L0 31L1 31L1 33L0 33L0 35L1 35L1 33L2 33L2 29L3 29L3 31L4 31L4 32L3 32L3 34L2 34L2 36L1 36L1 37L0 37L0 38L1 38L1 39L0 39L0 40L1 40L1 41L2 41L2 40L3 40L3 42L2 42L2 43L0 43L0 44L2 44L2 45L0 45L0 50L3 50L3 49L4 49L4 52L3 52L3 53L4 53L4 56L5 56L5 58L6 58L6 59L5 59L5 61L7 61L7 62L6 62L6 63L7 63L7 62L9 62L9 63L10 63L10 64L11 64L11 62L12 62L12 65L11 65L11 67L10 67L10 65L8 65L8 64L6 64L6 65L5 65L5 62L4 62L4 58L2 58L2 57L1 57L1 56L3 56L3 55L2 55L2 52L1 52L1 51L0 51L0 54L1 54L1 55L0 55L0 57L1 57L1 58L0 58L0 60L1 60L1 61L0 61L0 62L3 62L3 63L2 63L2 64L3 64L3 66L2 66L2 65L1 65L1 64L0 64L0 65L1 65L1 66L0 66L0 69L1 69L1 68L2 68L2 69L3 69L3 70L1 70L1 73L4 73L4 72L2 72L2 71L4 71L4 70L5 70L5 68L4 68L4 66L5 66L5 67L7 67L7 68L6 68L6 69L7 69L7 70L6 70L6 71L5 71L5 72L6 72L6 73L8 73L8 74L11 74L11 75L10 75L10 76L12 76L12 77L11 77L11 78L15 78L15 79L13 79L13 81L17 81L17 78L18 78L18 77L19 77L19 79L18 79L18 80L19 80L19 79L20 79L20 76L19 76L19 75L18 75L18 73L20 73L20 72L21 72L21 70L22 70L22 69L26 69L26 70L25 70L25 71L24 71L24 70L23 70L23 71L22 71L22 73L21 73L21 76L24 76L24 79L23 79L23 78L22 78L22 77L21 77L21 79L23 79L23 80L20 80L20 81L24 81L24 79L25 79L25 78L26 78L26 79L27 79L27 78L29 78L29 80L28 80L28 81L30 81L30 78L31 78L31 79L33 79L33 80L34 80L34 81L35 81L35 80L36 80L36 81L37 81L37 80L36 80L36 78L38 78L38 79L39 79L39 78L40 78L40 77L41 77L41 79L40 79L40 80L38 80L38 81L40 81L40 80L41 80L41 81L44 81L44 80L46 80L46 79L48 79L48 80L47 80L47 81L48 81L48 80L49 80L49 81L50 81L50 80L51 80L51 81L54 81L54 80L53 80L53 79L52 79L52 77L53 77L53 78L54 78L54 79L56 79L56 78L57 78L57 79L58 79L58 80L57 80L57 81L59 81L59 80L60 80L60 79L61 79L61 77L62 77L62 76L63 76L63 75L64 75L64 73L63 73L63 71L64 71L64 72L65 72L65 71L66 71L66 72L67 72L67 73L68 73L68 74L67 74L67 75L66 75L66 74L65 74L65 75L66 75L66 76L67 76L67 75L68 75L68 77L67 77L67 78L65 78L65 77L64 77L64 78L63 78L63 80L62 80L62 81L63 81L63 80L64 80L64 81L67 81L67 78L68 78L68 81L69 81L69 79L71 79L71 80L70 80L70 81L71 81L71 80L72 80L72 81L74 81L74 79L75 79L75 81L77 81L77 80L80 80L80 81L81 81L81 78L80 78L80 77L81 77L81 76L80 76L80 75L81 75L81 74L80 74L80 75L79 75L79 74L77 74L77 73L81 73L81 71L78 71L78 70L80 70L80 69L81 69L81 63L80 63L80 66L79 66L79 67L78 67L78 65L79 65L79 64L78 64L78 63L77 63L77 64L76 64L76 63L75 63L75 62L76 62L76 60L75 60L75 61L74 61L74 60L73 60L73 61L74 61L74 62L73 62L73 63L72 63L72 60L71 60L71 58L72 58L72 59L77 59L77 60L78 60L78 61L79 61L79 62L80 62L80 61L81 61L81 58L80 58L80 59L79 59L79 60L78 60L78 57L79 57L79 55L77 55L77 53L81 53L81 51L79 51L79 52L77 52L77 49L78 49L78 48L79 48L79 47L78 47L78 45L80 45L80 46L81 46L81 38L80 38L80 37L81 37L81 34L79 34L79 35L77 35L77 32L75 32L75 35L77 35L77 36L76 36L76 37L75 37L75 38L76 38L76 39L77 39L77 40L76 40L76 41L75 41L75 40L74 40L74 36L73 36L73 34L74 34L74 33L73 33L73 34L72 34L72 31L73 31L73 30L74 30L74 29L75 29L75 31L77 31L77 30L78 30L78 31L79 31L79 33L81 33L81 31L79 31L79 30L80 30L80 29L81 29L81 26L80 26L80 27L78 27L78 25L81 25L81 22L79 22L79 23L78 23L78 21L79 21L79 20L80 20L80 21L81 21L81 18L80 18L80 17L81 17L81 16L79 16L79 15L81 15L81 14L79 14L79 15L76 15L76 13L75 13L75 12L74 12L74 11L75 11L75 10L74 10L74 9L76 9L76 8L74 8L74 9L72 9L72 8L73 8L73 6L72 6L72 5L71 5L71 6L70 6L70 7L71 7L71 6L72 6L72 8L70 8L70 10L67 10L67 9L68 9L68 8L67 8L67 5L68 5L68 7L69 7L69 5L68 5L68 4L67 4L67 3L68 3L68 2L67 2L67 1L66 1L66 2L65 2L65 1L64 1L64 2L63 2L63 0L62 0L62 1L61 1L61 0L60 0L60 2L57 2L57 1L59 1L59 0L57 0L57 1L56 1L56 2L55 2L55 3L54 3L54 2L52 2L52 1L53 1L53 0L49 0L49 1L51 1L51 2L50 2L50 3L53 3L53 4L49 4L49 2L48 2L48 1L47 1L47 0L46 0L46 1L45 1L45 0L43 0L43 1L45 1L45 2L43 2L43 3L40 3L40 1L41 1L41 2L42 2L42 0L39 0L39 3L38 3L38 4L42 4L42 5L41 5L41 6L40 6L40 8L39 8L39 10L38 10L38 11L37 11L37 9L38 9L38 8L37 8L37 2L38 2L38 0L37 0L37 2L36 2L36 1L33 1L33 0L32 0L32 1L31 1L31 0L25 0L25 1L26 1L26 2L28 2L28 4L27 4L27 3L26 3L26 4L24 4L24 7L23 7L23 6L22 6L22 5L23 5L23 3L25 3L25 2L24 2L24 0L23 0L23 1L21 1L21 0L19 0L19 1L18 1L18 0L16 0L16 3L13 3L13 2L14 2L14 0L13 0L13 2L12 2L12 1L10 1L10 0ZM54 0L54 1L55 1L55 0ZM68 0L68 1L69 1L69 3L70 3L70 4L71 4L71 2L72 2L72 4L73 4L73 1L69 1L69 0ZM19 1L19 2L21 2L21 1ZM32 1L32 2L29 2L29 3L32 3L32 5L29 5L29 7L30 7L30 6L31 6L31 8L34 8L34 5L35 5L35 8L36 8L36 3L35 3L35 2L33 2L33 1ZM46 1L46 2L45 2L45 4L44 4L44 5L42 5L42 6L41 6L41 7L42 7L42 9L41 9L41 8L40 8L40 9L41 9L41 13L40 13L40 11L38 11L38 13L40 13L40 14L38 14L38 16L37 16L37 15L36 15L36 13L37 13L37 11L36 11L36 10L35 10L35 9L34 9L34 10L35 10L35 13L34 13L34 12L32 12L32 9L31 9L31 11L28 11L28 10L29 10L29 9L28 9L28 10L27 10L27 9L24 9L24 8L23 8L23 7L22 7L22 6L21 6L21 5L22 5L22 3L20 3L20 6L19 6L19 5L18 5L18 3L16 3L16 4L15 4L15 7L16 7L16 8L17 8L17 10L19 10L19 11L20 11L20 12L17 12L17 11L16 11L16 12L17 12L17 13L18 13L18 14L19 14L19 16L17 16L17 15L16 15L16 18L17 18L17 19L16 19L16 20L17 20L17 19L18 19L18 20L19 20L19 19L20 19L20 20L21 20L21 21L20 21L20 22L18 22L18 23L16 23L16 24L15 24L15 26L13 26L13 23L12 23L12 22L10 22L10 21L8 21L8 19L5 19L5 18L4 18L4 19L3 19L3 20L2 20L2 19L1 19L1 21L2 21L2 22L5 22L5 23L3 23L3 24L2 24L2 25L4 25L4 24L7 24L7 23L6 23L6 22L7 22L7 21L8 21L8 22L10 22L10 23L9 23L9 26L10 26L10 25L12 25L12 26L11 26L11 29L12 29L12 31L11 31L11 30L10 30L10 27L9 27L9 31L5 31L5 30L4 30L4 31L5 31L5 32L7 32L7 33L5 33L5 34L7 34L7 35L6 35L6 36L5 36L5 35L3 35L3 36L2 36L2 37L1 37L1 38L2 38L2 37L3 37L3 40L4 40L4 39L5 39L5 38L8 38L8 39L6 39L6 40L5 40L5 41L4 41L4 42L3 42L3 43L2 43L2 44L3 44L3 43L4 43L4 45L3 45L3 46L2 46L2 47L1 47L1 49L2 49L2 47L5 47L5 48L8 48L8 47L5 47L5 46L7 46L7 45L8 45L8 46L9 46L9 49L10 49L10 51L9 51L9 53L8 53L8 54L9 54L9 55L5 55L5 56L7 56L7 57L6 57L6 58L7 58L7 57L8 57L8 56L9 56L9 55L10 55L10 56L12 56L12 57L13 57L13 58L14 58L14 59L12 59L12 58L11 58L11 57L9 57L9 58L10 58L10 59L6 59L6 60L7 60L7 61L8 61L8 60L9 60L9 61L11 61L11 60L12 60L12 62L13 62L13 65L12 65L12 66L13 66L13 65L14 65L14 66L15 66L15 65L16 65L16 64L17 64L17 66L18 66L18 71L16 71L16 68L17 68L17 67L14 67L14 68L13 68L13 67L12 67L12 68L8 68L8 69L9 69L9 70L10 70L10 71L11 71L11 72L12 72L12 71L13 71L13 73L12 73L12 75L14 75L14 77L15 77L15 78L16 78L16 75L14 75L14 74L15 74L15 73L14 73L14 72L15 72L15 71L16 71L16 73L17 73L17 72L19 72L19 70L20 70L20 68L19 68L19 67L20 67L20 66L21 66L21 67L22 67L22 68L21 68L21 69L22 69L22 68L23 68L23 67L24 67L24 66L23 66L23 65L24 65L24 63L25 63L25 64L27 64L27 65L26 65L26 68L28 68L28 69L27 69L27 70L28 70L28 69L29 69L29 73L30 73L30 72L31 72L31 73L32 73L32 74L31 74L31 77L33 77L33 75L36 75L36 76L34 76L34 78L33 78L33 79L34 79L34 80L35 80L35 79L34 79L34 78L35 78L35 77L37 77L37 76L38 76L38 77L39 77L39 74L40 74L40 75L41 75L41 77L43 77L43 79L41 79L41 80L43 80L43 79L45 79L45 77L46 77L46 78L47 78L47 77L48 77L48 78L49 78L49 79L50 79L50 77L48 77L48 73L47 73L47 74L45 74L45 77L44 77L44 74L43 74L43 72L41 72L41 71L40 71L40 70L41 70L41 69L42 69L42 68L43 68L43 70L42 70L42 71L43 71L43 70L45 70L45 69L44 69L44 68L43 68L43 67L44 67L44 66L45 66L45 63L46 63L46 62L45 62L45 63L44 63L44 66L42 66L42 65L43 65L43 64L41 64L41 68L40 68L40 66L39 66L39 61L38 61L38 60L40 60L40 61L42 61L42 63L43 63L43 62L44 62L44 61L45 61L45 60L44 60L44 59L43 59L43 58L45 58L45 59L46 59L46 60L47 60L47 64L46 64L46 65L47 65L47 64L51 64L51 65L48 65L48 66L47 66L47 68L46 68L46 67L45 67L45 68L46 68L46 69L47 69L47 68L50 68L50 69L48 69L48 70L47 70L47 71L46 71L46 72L45 72L45 71L44 71L44 72L45 72L45 73L46 73L46 72L50 72L50 69L51 69L51 70L52 70L52 71L53 71L53 73L54 73L54 71L53 71L53 70L55 70L55 68L54 68L54 67L55 67L55 66L54 66L54 67L53 67L53 66L52 66L52 63L53 63L53 65L54 65L54 63L55 63L55 60L56 60L56 61L57 61L57 65L58 65L58 61L59 61L59 60L60 60L60 62L62 62L62 63L59 63L59 65L62 65L62 63L63 63L63 65L64 65L64 67L63 67L63 66L62 66L62 67L61 67L61 66L60 66L60 67L59 67L59 66L58 66L58 67L56 67L56 69L57 69L57 70L56 70L56 71L55 71L55 73L56 73L56 74L57 74L57 73L58 73L58 74L59 74L59 73L60 73L60 74L61 74L61 76L60 76L60 75L59 75L59 76L60 76L60 77L59 77L59 78L60 78L60 77L61 77L61 76L62 76L62 70L63 70L63 68L64 68L64 67L65 67L65 69L66 69L66 67L67 67L67 69L68 69L68 71L67 71L67 70L66 70L66 71L67 71L67 72L68 72L68 73L70 73L70 71L71 71L71 70L74 70L74 69L75 69L75 70L76 70L76 72L77 72L77 70L76 70L76 68L77 68L77 65L78 65L78 64L77 64L77 65L76 65L76 64L75 64L75 63L73 63L73 64L74 64L74 65L73 65L73 66L74 66L74 65L76 65L76 68L74 68L74 67L73 67L73 69L72 69L72 68L71 68L71 67L72 67L72 65L71 65L71 67L69 67L69 66L70 66L70 63L71 63L71 64L72 64L72 63L71 63L71 60L70 60L70 59L69 59L69 58L68 58L68 59L66 59L66 55L67 55L67 56L69 56L69 57L71 57L71 56L73 56L73 55L72 55L72 54L74 54L74 53L72 53L72 54L70 54L70 52L72 52L72 51L71 51L71 50L72 50L72 49L71 49L71 48L72 48L72 47L73 47L73 48L76 48L76 46L77 46L77 45L78 45L78 44L79 44L79 42L80 42L80 38L79 38L79 37L78 37L78 36L77 36L77 37L78 37L78 38L79 38L79 39L78 39L78 40L77 40L77 44L75 44L75 45L74 45L74 44L73 44L73 43L75 43L75 41L74 41L74 40L73 40L73 41L70 41L70 42L69 42L69 40L70 40L70 39L67 39L67 38L66 38L66 37L67 37L67 36L68 36L68 37L70 37L70 38L72 38L72 39L71 39L71 40L72 40L72 39L73 39L73 36L71 36L71 35L72 35L72 34L71 34L71 31L72 31L72 30L73 30L73 29L72 29L72 28L70 28L70 27L71 27L71 26L70 26L70 27L68 27L68 28L67 28L67 27L66 27L66 25L68 25L68 26L69 26L69 25L70 25L70 24L71 24L71 25L72 25L72 23L74 23L74 24L75 24L75 23L76 23L76 22L77 22L77 19L78 19L78 20L79 20L79 19L80 19L80 18L79 18L79 17L78 17L78 16L76 16L76 15L75 15L75 14L74 14L74 13L73 13L73 15L74 15L74 16L73 16L73 17L71 17L71 18L72 18L72 19L71 19L71 20L70 20L70 19L67 19L67 20L70 20L70 21L68 21L68 23L67 23L67 22L66 22L66 23L65 23L65 21L66 21L66 19L64 19L64 20L63 20L63 21L64 21L64 23L63 23L63 22L62 22L62 23L61 23L61 21L62 21L62 19L61 19L61 18L63 18L63 14L64 14L64 13L66 13L66 15L64 15L64 17L65 17L65 18L68 18L68 17L69 17L69 18L70 18L70 17L69 17L69 16L70 16L70 15L67 15L67 12L69 12L69 13L68 13L68 14L70 14L70 12L73 12L73 11L72 11L72 10L71 10L71 11L65 11L65 10L66 10L66 9L67 9L67 8L66 8L66 4L65 4L65 10L64 10L64 4L63 4L63 3L62 3L62 5L61 5L61 10L64 10L64 13L63 13L63 11L58 11L58 12L57 12L57 13L58 13L58 15L56 15L56 14L55 14L55 13L56 13L56 11L55 11L55 12L54 12L54 9L55 9L55 10L56 10L56 9L55 9L55 7L56 7L56 6L57 6L57 10L60 10L60 9L58 9L58 8L60 8L60 4L58 4L58 5L56 5L56 4L54 4L54 5L53 5L53 9L48 9L48 10L51 10L51 12L50 12L50 11L47 11L47 8L48 8L48 6L47 6L47 7L46 7L46 6L45 6L45 5L48 5L48 4L46 4L46 2L47 2L47 3L48 3L48 2L47 2L47 1ZM11 2L11 3L10 3L10 4L12 4L12 2ZM56 2L56 3L57 3L57 2ZM60 2L60 3L61 3L61 2ZM64 2L64 3L65 3L65 2ZM66 2L66 3L67 3L67 2ZM34 3L34 4L33 4L33 5L34 5L34 4L35 4L35 3ZM16 4L16 7L17 7L17 8L18 8L18 9L21 9L21 6L20 6L20 8L18 8L18 7L19 7L19 6L18 6L18 5L17 5L17 4ZM25 5L25 8L28 8L28 5ZM49 5L49 8L52 8L52 5ZM54 5L54 7L55 7L55 5ZM62 5L62 9L63 9L63 5ZM17 6L17 7L18 7L18 6ZM26 6L26 7L27 7L27 6ZM32 6L32 7L33 7L33 6ZM38 6L38 7L39 7L39 6ZM42 6L42 7L43 7L43 6ZM44 6L44 7L45 7L45 8L44 8L44 9L46 9L46 7L45 7L45 6ZM50 6L50 7L51 7L51 6ZM58 6L58 7L59 7L59 6ZM6 8L6 9L7 9L7 8ZM22 8L22 9L23 9L23 10L24 10L24 9L23 9L23 8ZM77 8L77 10L76 10L76 12L77 12L77 11L78 11L78 13L80 13L80 12L81 12L81 10L80 10L80 12L79 12L79 10L78 10L78 8ZM42 9L42 10L43 10L43 9ZM8 10L8 11L9 11L9 10ZM13 10L13 11L14 11L14 10ZM20 10L20 11L21 11L21 13L22 13L22 14L21 14L21 15L20 15L20 17L21 17L21 20L23 20L23 21L22 21L22 22L20 22L20 23L18 23L18 24L17 24L17 25L18 25L18 26L19 26L19 27L17 27L17 28L16 28L16 29L15 29L15 30L16 30L16 29L17 29L17 31L14 31L14 30L13 30L13 32L14 32L14 33L17 33L17 34L16 34L16 35L15 35L15 34L13 34L13 33L12 33L12 32L10 32L10 31L9 31L9 32L8 32L8 33L7 33L7 34L8 34L8 33L11 33L11 34L10 34L10 36L9 36L9 37L8 37L8 38L9 38L9 37L11 37L11 38L12 38L12 39L13 39L13 40L10 40L10 39L8 39L8 40L6 40L6 41L5 41L5 42L6 42L6 43L9 43L9 44L8 44L8 45L12 45L12 44L13 44L13 45L14 45L14 44L15 44L15 45L16 45L16 46L13 46L13 47L14 47L14 48L13 48L13 49L12 49L12 46L10 46L10 47L11 47L11 49L12 49L12 50L15 50L15 52L14 52L14 51L10 51L10 53L9 53L9 54L10 54L10 53L11 53L11 55L12 55L12 56L16 56L16 57L18 57L18 58L16 58L16 59L17 59L17 64L18 64L18 66L20 66L20 65L21 65L21 66L22 66L22 67L23 67L23 66L22 66L22 65L23 65L23 63L24 63L24 62L25 62L25 63L27 63L27 62L25 62L25 60L26 60L26 59L27 59L27 61L28 61L28 62L29 62L29 61L28 61L28 59L27 59L27 58L26 58L26 55L25 55L25 57L24 57L24 56L23 56L23 60L22 60L22 58L21 58L21 57L22 57L22 55L21 55L21 52L22 52L22 53L23 53L23 54L24 54L24 53L25 53L25 54L26 54L26 53L29 53L29 55L28 55L28 58L30 58L30 54L31 54L31 55L32 55L32 56L31 56L31 58L32 58L32 56L33 56L33 58L34 58L34 60L33 60L33 59L32 59L32 60L30 60L30 61L34 61L34 63L35 63L35 64L34 64L34 65L33 65L33 66L34 66L34 67L33 67L33 68L34 68L34 69L32 69L32 64L31 64L31 65L30 65L30 64L29 64L29 63L28 63L28 64L29 64L29 65L30 65L30 66L31 66L31 67L30 67L30 68L31 68L31 69L30 69L30 71L31 71L31 72L32 72L32 73L33 73L33 70L34 70L34 69L35 69L35 68L38 68L38 69L36 69L36 71L34 71L34 72L35 72L35 73L36 73L36 71L37 71L37 70L38 70L38 71L39 71L39 70L38 70L38 69L40 69L40 68L38 68L38 67L37 67L37 66L38 66L38 64L36 64L36 63L38 63L38 61L37 61L37 60L38 60L38 59L39 59L39 58L40 58L40 57L37 57L37 58L38 58L38 59L37 59L37 60L36 60L36 62L35 62L35 59L36 59L36 58L34 58L34 56L35 56L35 55L36 55L36 56L41 56L41 59L42 59L42 56L43 56L43 57L45 57L45 55L44 55L44 52L42 52L42 51L43 51L43 50L42 50L42 49L46 49L46 50L44 50L44 51L45 51L45 53L47 53L47 52L48 52L48 53L49 53L49 55L48 55L48 54L46 54L46 55L47 55L47 56L46 56L46 57L47 57L47 58L46 58L46 59L47 59L47 60L49 60L49 62L48 62L48 63L50 63L50 61L52 61L52 62L51 62L51 63L52 63L52 62L54 62L54 60L55 60L55 59L56 59L56 60L57 60L57 61L58 61L58 60L57 60L57 59L56 59L56 57L57 57L57 58L58 58L58 56L52 56L52 57L54 57L54 58L51 58L51 59L52 59L52 60L50 60L50 59L49 59L49 58L50 58L50 57L51 57L51 56L49 56L49 55L50 55L50 53L53 53L53 54L51 54L51 55L53 55L53 54L54 54L54 55L58 55L58 53L57 53L57 54L56 54L56 53L55 53L55 51L56 51L56 52L57 52L57 51L56 51L56 49L57 49L57 48L55 48L55 51L54 51L54 50L53 50L53 48L52 48L52 47L50 47L50 48L48 48L48 49L47 49L47 48L46 48L46 47L47 47L47 46L49 46L49 43L50 43L50 44L51 44L51 45L52 45L52 46L53 46L53 47L57 47L57 46L58 46L58 47L60 47L60 48L61 48L61 47L62 47L62 49L63 49L63 50L60 50L60 49L59 49L59 48L58 48L58 52L59 52L59 55L60 55L60 53L61 53L61 52L59 52L59 51L64 51L64 52L63 52L63 53L62 53L62 54L61 54L61 55L62 55L62 54L63 54L63 56L64 56L64 57L62 57L62 58L61 58L61 59L60 59L60 58L59 58L59 59L60 59L60 60L61 60L61 61L62 61L62 60L61 60L61 59L62 59L62 58L63 58L63 60L64 60L64 59L65 59L65 60L66 60L66 59L65 59L65 55L66 55L66 52L65 52L65 50L66 50L66 51L69 51L69 50L68 50L68 49L67 49L67 50L66 50L66 48L67 48L67 47L68 47L68 48L69 48L69 47L70 47L70 48L71 48L71 47L72 47L72 44L70 44L70 45L69 45L69 43L68 43L68 41L67 41L67 39L66 39L66 38L64 38L64 36L63 36L63 40L64 40L64 41L65 41L65 42L66 42L66 43L68 43L68 44L66 44L66 45L64 45L64 44L65 44L65 43L64 43L64 42L63 42L63 41L62 41L62 40L61 40L61 39L62 39L62 37L61 37L61 36L62 36L62 35L66 35L66 36L67 36L67 35L70 35L70 34L69 34L69 33L70 33L70 32L69 32L69 31L68 31L68 30L67 30L67 28L66 28L66 30L67 30L67 31L66 31L66 32L68 32L68 33L67 33L67 35L66 35L66 34L63 34L63 33L64 33L64 32L63 32L63 31L64 31L64 30L65 30L65 26L64 26L64 25L63 25L63 28L64 28L64 30L63 30L63 31L62 31L62 30L60 30L60 29L59 29L59 31L58 31L58 30L53 30L53 31L55 31L55 32L56 32L56 33L57 33L57 32L56 32L56 31L58 31L58 32L60 32L60 34L59 34L59 33L58 33L58 34L57 34L57 35L56 35L56 34L55 34L55 36L54 36L54 37L53 37L53 35L52 35L52 30L51 30L51 29L53 29L53 27L54 27L54 29L55 29L55 28L56 28L56 29L57 29L57 28L56 28L56 27L58 27L58 26L56 26L56 25L57 25L57 23L58 23L58 24L59 24L59 27L60 27L60 28L61 28L61 29L62 29L62 28L61 28L61 27L60 27L60 26L62 26L62 25L61 25L61 23L60 23L60 21L59 21L59 19L60 19L60 18L61 18L61 17L62 17L62 16L61 16L61 15L62 15L62 14L63 14L63 13L62 13L62 14L61 14L61 15L60 15L60 13L61 13L61 12L59 12L59 15L60 15L60 16L59 16L59 18L58 18L58 16L57 16L57 18L56 18L56 15L55 15L55 16L54 16L54 17L53 17L53 16L52 16L52 18L51 18L51 17L50 17L50 18L47 18L47 17L45 17L45 16L44 16L44 15L45 15L45 13L46 13L46 15L47 15L47 12L46 12L46 11L43 11L43 12L42 12L42 13L44 13L44 15L43 15L43 14L42 14L42 15L39 15L39 16L38 16L38 17L39 17L39 16L40 16L40 17L41 17L41 19L42 19L42 20L41 20L41 21L40 21L40 22L39 22L39 23L38 23L38 24L39 24L39 26L40 26L40 25L42 25L42 27L39 27L39 28L42 28L42 30L39 30L39 32L38 32L38 30L36 30L36 29L35 29L35 28L34 28L34 29L33 29L33 28L32 28L32 26L33 26L33 25L31 25L31 24L34 24L34 23L31 23L31 24L30 24L30 22L31 22L31 21L32 21L32 22L35 22L35 25L34 25L34 27L35 27L35 25L36 25L36 28L37 28L37 29L38 29L38 28L37 28L37 27L38 27L38 25L36 25L36 24L37 24L37 22L38 22L38 21L39 21L39 20L38 20L38 21L37 21L37 20L36 20L36 19L38 19L38 18L37 18L37 16L36 16L36 15L35 15L35 14L34 14L34 15L29 15L29 13L28 13L28 14L27 14L27 11L25 11L25 12L24 12L24 11L23 11L23 12L22 12L22 10ZM52 10L52 12L51 12L51 13L50 13L50 12L48 12L48 13L50 13L50 14L49 14L49 15L48 15L48 16L50 16L50 15L51 15L51 14L52 14L52 15L54 15L54 14L53 14L53 13L54 13L54 12L53 12L53 10ZM23 12L23 14L24 14L24 15L23 15L23 16L21 16L21 17L22 17L22 19L23 19L23 18L25 18L25 19L26 19L26 20L24 20L24 21L23 21L23 22L22 22L22 23L24 23L24 24L26 24L26 23L25 23L25 22L27 22L27 18L28 18L28 20L30 20L30 19L31 19L31 20L32 20L32 21L35 21L35 22L36 22L36 21L35 21L35 20L34 20L34 19L35 19L35 18L34 18L34 17L33 17L33 16L32 16L32 19L31 19L31 17L26 17L26 15L27 15L27 14L26 14L26 13L25 13L25 14L24 14L24 12ZM30 12L30 13L31 13L31 14L33 14L33 13L31 13L31 12ZM52 12L52 13L53 13L53 12ZM0 13L0 15L1 15L1 13ZM71 13L71 16L72 16L72 13ZM11 14L11 15L12 15L12 14ZM25 14L25 15L24 15L24 16L23 16L23 17L24 17L24 16L25 16L25 15L26 15L26 14ZM14 15L14 17L15 17L15 15ZM28 15L28 16L29 16L29 15ZM42 16L42 18L43 18L43 20L42 20L42 21L43 21L43 20L44 20L44 16ZM60 16L60 17L61 17L61 16ZM65 16L65 17L66 17L66 16ZM67 16L67 17L68 17L68 16ZM74 16L74 17L75 17L75 16ZM17 17L17 18L18 18L18 17ZM25 17L25 18L26 18L26 17ZM77 17L77 18L78 18L78 17ZM13 18L13 19L14 19L14 18ZM39 18L39 19L40 19L40 18ZM45 18L45 19L46 19L46 20L48 20L48 19L46 19L46 18ZM50 18L50 19L49 19L49 20L50 20L50 22L51 22L51 23L52 23L52 24L53 24L53 26L54 26L54 23L55 23L55 25L56 25L56 23L55 23L55 20L54 20L54 19L55 19L55 18L54 18L54 19L53 19L53 18L52 18L52 19L51 19L51 18ZM75 18L75 19L74 19L74 20L73 20L73 21L72 21L72 20L71 20L71 21L70 21L70 22L69 22L69 23L68 23L68 24L69 24L69 23L70 23L70 22L71 22L71 23L72 23L72 22L76 22L76 21L75 21L75 19L76 19L76 18ZM4 19L4 20L3 20L3 21L4 21L4 20L5 20L5 21L7 21L7 20L5 20L5 19ZM50 19L50 20L51 20L51 22L52 22L52 20L51 20L51 19ZM56 19L56 21L58 21L58 19ZM53 20L53 23L54 23L54 20ZM14 21L14 23L15 23L15 21ZM24 21L24 22L25 22L25 21ZM28 21L28 23L27 23L27 24L28 24L28 23L29 23L29 22L30 22L30 21ZM44 21L44 23L45 23L45 24L44 24L44 26L45 26L45 27L46 27L46 29L47 29L47 31L46 31L46 30L44 30L44 31L43 31L43 32L42 32L42 31L41 31L41 32L42 32L42 33L40 33L40 32L39 32L39 33L37 33L37 31L36 31L36 30L35 30L35 31L36 31L36 32L35 32L35 33L32 33L32 31L31 31L31 28L30 28L30 29L29 29L29 30L26 30L26 29L25 29L25 30L26 30L26 31L27 31L27 32L25 32L25 31L24 31L24 28L21 28L21 27L19 27L19 29L20 29L20 30L21 30L21 31L18 31L18 32L17 32L17 33L18 33L18 34L19 34L19 35L20 35L20 34L25 34L25 36L23 36L23 39L22 39L22 38L21 38L21 37L22 37L22 36L21 36L21 37L19 37L19 36L17 36L17 35L16 35L16 36L15 36L15 37L14 37L14 36L11 36L11 37L12 37L12 38L13 38L13 39L15 39L15 40L16 40L16 42L15 42L15 41L13 41L13 44L14 44L14 42L15 42L15 43L16 43L16 44L18 44L18 45L17 45L17 46L16 46L16 48L19 48L19 50L17 50L17 49L15 49L15 48L14 48L14 49L15 49L15 50L16 50L16 51L17 51L17 53L18 53L18 51L19 51L19 50L20 50L20 52L21 52L21 50L23 50L23 49L24 49L24 48L26 48L26 46L27 46L27 47L28 47L28 48L29 48L29 49L30 49L30 50L31 50L31 49L30 49L30 47L28 47L28 43L27 43L27 44L26 44L26 46L25 46L25 47L24 47L24 46L23 46L23 45L25 45L25 44L23 44L23 43L22 43L22 44L21 44L21 46L20 46L20 42L18 42L18 41L17 41L17 40L18 40L18 39L19 39L19 40L20 40L20 41L21 41L21 42L22 42L22 41L23 41L23 42L27 42L27 40L30 40L30 41L29 41L29 42L30 42L30 43L29 43L29 45L30 45L30 43L31 43L31 46L33 46L33 47L36 47L36 48L35 48L35 50L32 50L32 52L33 52L33 53L31 53L31 51L30 51L30 52L29 52L29 53L31 53L31 54L33 54L33 56L34 56L34 54L33 54L33 53L35 53L35 52L33 52L33 51L36 51L36 52L37 52L37 53L36 53L36 54L39 54L39 55L40 55L40 54L41 54L41 53L42 53L42 52L41 52L41 51L42 51L42 50L41 50L41 49L40 49L40 50L39 50L39 49L38 49L38 47L40 47L40 48L42 48L42 47L40 47L40 46L41 46L41 45L40 45L40 46L38 46L38 44L39 44L39 43L40 43L40 44L42 44L42 45L43 45L43 47L44 47L44 45L46 45L46 46L45 46L45 47L46 47L46 46L47 46L47 44L48 44L48 41L47 41L47 40L49 40L49 41L50 41L50 39L48 39L48 38L47 38L47 39L46 39L46 38L45 38L45 37L47 37L47 36L48 36L48 37L49 37L49 38L50 38L50 35L49 35L49 34L51 34L51 32L50 32L50 31L51 31L51 30L49 30L49 33L48 33L48 34L47 34L47 35L45 35L45 34L42 34L42 33L45 33L45 32L46 32L46 33L47 33L47 32L48 32L48 29L47 29L47 27L46 27L46 25L47 25L47 26L48 26L48 25L47 25L47 24L48 24L48 23L46 23L46 21ZM47 21L47 22L49 22L49 21ZM71 21L71 22L72 22L72 21ZM40 22L40 24L41 24L41 22ZM58 22L58 23L59 23L59 24L60 24L60 23L59 23L59 22ZM10 23L10 24L11 24L11 23ZM42 23L42 24L43 24L43 23ZM49 23L49 24L50 24L50 23ZM62 23L62 24L63 24L63 23ZM64 23L64 24L65 24L65 23ZM66 23L66 24L67 24L67 23ZM79 23L79 24L80 24L80 23ZM18 24L18 25L19 25L19 24ZM21 24L21 25L20 25L20 26L21 26L21 25L22 25L22 26L23 26L23 25L22 25L22 24ZM29 24L29 27L31 27L31 25L30 25L30 24ZM77 24L77 25L78 25L78 24ZM5 25L5 28L8 28L8 25ZM25 25L25 28L28 28L28 25ZM49 25L49 28L52 28L52 25ZM73 25L73 28L76 28L76 25ZM3 26L3 28L4 28L4 26ZM6 26L6 27L7 27L7 26ZM15 26L15 27L16 27L16 26ZM26 26L26 27L27 27L27 26ZM50 26L50 27L51 27L51 26ZM74 26L74 27L75 27L75 26ZM1 27L1 29L2 29L2 27ZM42 27L42 28L43 28L43 29L44 29L44 27ZM77 27L77 29L78 29L78 30L79 30L79 29L80 29L80 28L79 28L79 29L78 29L78 27ZM17 28L17 29L18 29L18 28ZM68 28L68 29L69 29L69 30L70 30L70 28ZM6 29L6 30L7 30L7 29ZM32 29L32 30L33 30L33 32L34 32L34 30L33 30L33 29ZM29 30L29 31L28 31L28 33L25 33L25 32L24 32L24 31L23 31L23 32L24 32L24 33L25 33L25 34L26 34L26 35L28 35L28 33L30 33L30 35L31 35L31 37L30 37L30 36L29 36L29 39L33 39L33 40L35 40L35 41L36 41L36 40L35 40L35 39L38 39L38 40L39 40L39 41L38 41L38 42L40 42L40 40L41 40L41 38L40 38L40 37L41 37L41 36L43 36L43 35L42 35L42 34L39 34L39 36L37 36L37 34L36 34L36 33L35 33L35 34L32 34L32 33L30 33L30 32L29 32L29 31L30 31L30 30ZM44 31L44 32L45 32L45 31ZM61 31L61 34L60 34L60 35L59 35L59 34L58 34L58 35L57 35L57 36L58 36L58 37L57 37L57 38L58 38L58 39L57 39L57 41L58 41L58 40L59 40L59 41L60 41L60 39L61 39L61 38L60 38L60 39L59 39L59 38L58 38L58 37L59 37L59 36L61 36L61 35L62 35L62 31ZM53 32L53 34L54 34L54 32ZM31 34L31 35L32 35L32 34ZM35 34L35 35L33 35L33 36L32 36L32 37L31 37L31 38L33 38L33 36L35 36L35 35L36 35L36 34ZM40 35L40 36L39 36L39 37L40 37L40 36L41 36L41 35ZM44 35L44 36L45 36L45 35ZM48 35L48 36L49 36L49 35ZM4 36L4 37L5 37L5 36ZM6 36L6 37L7 37L7 36ZM16 36L16 37L17 37L17 36ZM26 36L26 37L25 37L25 40L24 40L24 39L23 39L23 40L24 40L24 41L26 41L26 39L28 39L28 37L27 37L27 36ZM36 36L36 37L34 37L34 38L36 38L36 37L37 37L37 38L38 38L38 39L39 39L39 40L40 40L40 39L39 39L39 38L38 38L38 37L37 37L37 36ZM18 37L18 38L19 38L19 39L20 39L20 40L22 40L22 39L20 39L20 38L19 38L19 37ZM52 37L52 41L51 41L51 42L50 42L50 43L51 43L51 42L52 42L52 41L53 41L53 44L52 44L52 45L53 45L53 46L55 46L55 45L54 45L54 44L55 44L55 43L54 43L54 41L56 41L56 39L55 39L55 38L56 38L56 37L55 37L55 38L54 38L54 39L53 39L53 37ZM15 38L15 39L16 39L16 40L17 40L17 38ZM43 38L43 39L42 39L42 41L41 41L41 43L42 43L42 44L45 44L45 43L44 43L44 40L46 40L46 39L44 39L44 38ZM54 39L54 40L53 40L53 41L54 41L54 40L55 40L55 39ZM64 39L64 40L66 40L66 39ZM31 40L31 41L32 41L32 43L33 43L33 42L34 42L34 41L32 41L32 40ZM6 41L6 42L7 42L7 41ZM11 41L11 43L10 43L10 42L9 42L9 43L10 43L10 44L12 44L12 41ZM42 41L42 43L43 43L43 41ZM61 41L61 42L60 42L60 43L59 43L59 42L58 42L58 43L57 43L57 42L56 42L56 43L57 43L57 44L56 44L56 46L57 46L57 45L58 45L58 43L59 43L59 44L61 44L61 45L62 45L62 44L64 44L64 43L63 43L63 42L62 42L62 41ZM66 41L66 42L67 42L67 41ZM16 42L16 43L17 43L17 42ZM36 42L36 43L34 43L34 45L35 45L35 44L38 44L38 43L37 43L37 42ZM61 42L61 43L62 43L62 42ZM70 42L70 43L71 43L71 42ZM18 43L18 44L19 44L19 43ZM5 44L5 45L7 45L7 44ZM22 44L22 45L23 45L23 44ZM59 45L59 46L60 46L60 47L61 47L61 46L60 46L60 45ZM73 45L73 46L74 46L74 47L75 47L75 46L76 46L76 45L75 45L75 46L74 46L74 45ZM22 46L22 47L23 47L23 46ZM37 46L37 47L38 47L38 46ZM62 46L62 47L63 47L63 49L64 49L64 50L65 50L65 48L66 48L66 47L67 47L67 46L66 46L66 47L65 47L65 46L64 46L64 47L63 47L63 46ZM68 46L68 47L69 47L69 46ZM70 46L70 47L71 47L71 46ZM19 47L19 48L20 48L20 49L21 49L21 47ZM64 47L64 48L65 48L65 47ZM22 48L22 49L23 49L23 48ZM33 48L33 49L34 49L34 48ZM36 48L36 49L37 49L37 50L36 50L36 51L37 51L37 50L38 50L38 49L37 49L37 48ZM80 48L80 49L79 49L79 50L80 50L80 49L81 49L81 48ZM5 49L5 52L8 52L8 49ZM25 49L25 52L28 52L28 49ZM49 49L49 52L52 52L52 49ZM73 49L73 52L76 52L76 49ZM6 50L6 51L7 51L7 50ZM26 50L26 51L27 51L27 50ZM40 50L40 51L41 51L41 50ZM46 50L46 52L47 52L47 50ZM50 50L50 51L51 51L51 50ZM74 50L74 51L75 51L75 50ZM38 51L38 53L39 53L39 51ZM53 51L53 53L54 53L54 51ZM11 52L11 53L12 53L12 52ZM15 52L15 53L16 53L16 52ZM67 52L67 53L68 53L68 54L67 54L67 55L68 55L68 54L69 54L69 55L70 55L70 54L69 54L69 53L68 53L68 52ZM5 53L5 54L7 54L7 53ZM19 53L19 54L18 54L18 55L17 55L17 54L14 54L14 55L16 55L16 56L18 56L18 57L19 57L19 58L18 58L18 64L21 64L21 65L22 65L22 63L23 63L23 62L21 62L21 60L20 60L20 62L21 62L21 63L19 63L19 59L21 59L21 58L20 58L20 57L21 57L21 55L20 55L20 53ZM63 53L63 54L64 54L64 53ZM75 53L75 54L76 54L76 53ZM42 54L42 55L43 55L43 54ZM19 55L19 56L20 56L20 55ZM75 55L75 56L76 56L76 57L74 57L74 58L76 58L76 57L78 57L78 56L77 56L77 55ZM59 56L59 57L60 57L60 56ZM80 56L80 57L81 57L81 56ZM48 57L48 58L47 58L47 59L48 59L48 58L49 58L49 57ZM72 57L72 58L73 58L73 57ZM10 59L10 60L11 60L11 59ZM14 59L14 60L13 60L13 62L14 62L14 63L15 63L15 64L16 64L16 62L14 62L14 60L15 60L15 59ZM53 59L53 60L52 60L52 61L53 61L53 60L54 60L54 59ZM68 59L68 60L67 60L67 63L68 63L68 62L69 62L69 63L70 63L70 61L69 61L69 59ZM2 60L2 61L3 61L3 60ZM42 60L42 61L43 61L43 60ZM79 60L79 61L80 61L80 60ZM63 61L63 63L64 63L64 61ZM65 61L65 63L66 63L66 61ZM30 62L30 63L31 63L31 62ZM32 62L32 63L33 63L33 62ZM35 64L35 66L36 66L36 64ZM55 64L55 65L56 65L56 64ZM65 64L65 65L66 65L66 64ZM67 64L67 67L68 67L68 68L69 68L69 67L68 67L68 66L69 66L69 64ZM6 65L6 66L7 66L7 67L8 67L8 65ZM27 65L27 66L28 66L28 68L29 68L29 66L28 66L28 65ZM48 66L48 67L50 67L50 66ZM65 66L65 67L66 67L66 66ZM2 67L2 68L3 68L3 69L4 69L4 68L3 68L3 67ZM34 67L34 68L35 68L35 67ZM51 67L51 69L52 69L52 70L53 70L53 69L52 69L52 67ZM58 67L58 70L57 70L57 71L56 71L56 72L57 72L57 71L58 71L58 72L59 72L59 71L60 71L60 72L61 72L61 71L60 71L60 70L61 70L61 67L60 67L60 68L59 68L59 67ZM62 67L62 68L63 68L63 67ZM12 68L12 69L13 69L13 70L14 70L14 71L15 71L15 70L14 70L14 69L13 69L13 68ZM70 68L70 69L69 69L69 71L68 71L68 72L69 72L69 71L70 71L70 70L71 70L71 68ZM79 68L79 69L80 69L80 68ZM31 69L31 70L32 70L32 69ZM7 70L7 71L6 71L6 72L7 72L7 71L8 71L8 73L10 73L10 72L9 72L9 71L8 71L8 70ZM11 70L11 71L12 71L12 70ZM64 70L64 71L65 71L65 70ZM26 71L26 72L27 72L27 71ZM72 71L72 72L73 72L73 71ZM23 72L23 73L24 73L24 72ZM38 72L38 73L37 73L37 74L36 74L36 75L37 75L37 74L38 74L38 73L40 73L40 74L41 74L41 75L43 75L43 74L41 74L41 72ZM25 73L25 76L28 76L28 73ZM49 73L49 76L52 76L52 73ZM73 73L73 76L76 76L76 73ZM26 74L26 75L27 75L27 74ZM29 74L29 76L30 76L30 74ZM50 74L50 75L51 75L51 74ZM53 74L53 77L54 77L54 76L55 76L55 78L56 78L56 76L55 76L55 75L54 75L54 74ZM69 74L69 78L71 78L71 77L70 77L70 76L72 76L72 75L70 75L70 74ZM74 74L74 75L75 75L75 74ZM17 75L17 77L18 77L18 75ZM46 75L46 77L47 77L47 75ZM57 75L57 78L58 78L58 75ZM77 75L77 77L76 77L76 78L75 78L75 79L77 79L77 77L78 77L78 78L79 78L79 77L80 77L80 76L79 76L79 75ZM78 76L78 77L79 77L79 76ZM9 77L9 78L8 78L8 80L9 80L9 81L10 81L10 80L11 80L11 79L10 79L10 77ZM26 77L26 78L27 78L27 77ZM73 78L73 79L72 79L72 80L73 80L73 79L74 79L74 78ZM51 79L51 80L52 80L52 79ZM64 79L64 80L66 80L66 79ZM55 80L55 81L56 81L56 80ZM0 0L0 7L7 7L7 0ZM1 1L1 6L6 6L6 1ZM2 2L2 5L5 5L5 2ZM74 0L74 7L81 7L81 0ZM75 1L75 6L80 6L80 1ZM76 2L76 5L79 5L79 2ZM0 74L0 81L7 81L7 74ZM1 75L1 80L6 80L6 75ZM2 76L2 79L5 79L5 76Z" fill="#000000"/></g></g></svg>
