<?xml version="1.0" encoding="UTF-8"?>
<svg xmlns="http://www.w3.org/2000/svg" version="1.1" width="400" height="400" viewBox="0 0 400 400"><rect x="0" y="0" width="400" height="400" fill="#fefefe"/><g transform="scale(4.706)"><g transform="translate(4,4)"><path fill-rule="evenodd" d="M10 0L10 1L8 1L8 2L10 2L10 1L11 1L11 5L9 5L9 3L8 3L8 5L9 5L9 6L8 6L8 9L7 9L7 8L3 8L3 9L2 9L2 8L1 8L1 11L0 11L0 12L1 12L1 11L2 11L2 13L1 13L1 14L0 14L0 15L1 15L1 16L2 16L2 17L0 17L0 19L1 19L1 20L0 20L0 24L1 24L1 25L0 25L0 28L1 28L1 29L0 29L0 30L2 30L2 31L1 31L1 32L4 32L4 29L7 29L7 30L5 30L5 31L7 31L7 32L5 32L5 34L4 34L4 33L3 33L3 34L1 34L1 33L0 33L0 34L1 34L1 35L0 35L0 37L1 37L1 36L3 36L3 38L2 38L2 39L0 39L0 40L2 40L2 41L4 41L4 42L3 42L3 43L2 43L2 42L1 42L1 41L0 41L0 42L1 42L1 44L0 44L0 45L2 45L2 46L4 46L4 47L3 47L3 48L2 48L2 47L1 47L1 48L2 48L2 51L0 51L0 52L1 52L1 54L0 54L0 55L1 55L1 59L0 59L0 60L1 60L1 59L2 59L2 58L6 58L6 59L7 59L7 58L6 58L6 57L8 57L8 58L10 58L10 57L11 57L11 59L12 59L12 60L10 60L10 61L8 61L8 62L10 62L10 61L11 61L11 62L12 62L12 63L11 63L11 64L12 64L12 66L13 66L13 64L12 64L12 63L14 63L14 62L12 62L12 60L13 60L13 61L15 61L15 63L16 63L16 61L18 61L18 58L17 58L17 60L16 60L16 59L15 59L15 58L12 58L12 57L11 57L11 56L12 56L12 55L13 55L13 54L12 54L12 52L11 52L11 53L9 53L9 52L8 52L8 53L7 53L7 52L6 52L6 51L9 51L9 49L11 49L11 50L13 50L13 53L17 53L17 54L14 54L14 55L16 55L16 56L17 56L17 57L18 57L18 56L19 56L19 59L20 59L20 60L21 60L21 61L22 61L22 60L21 60L21 58L20 58L20 56L19 56L19 55L21 55L21 53L22 53L22 55L23 55L23 56L21 56L21 57L22 57L22 58L24 58L24 59L23 59L23 62L22 62L22 63L20 63L20 61L19 61L19 62L18 62L18 63L20 63L20 65L19 65L19 64L17 64L17 65L16 65L16 66L17 66L17 67L19 67L19 66L20 66L20 68L21 68L21 69L20 69L20 72L18 72L18 71L17 71L17 68L16 68L16 67L15 67L15 64L14 64L14 69L16 69L16 71L17 71L17 73L16 73L16 74L15 74L15 72L14 72L14 71L15 71L15 70L14 70L14 71L13 71L13 70L12 70L12 71L11 71L11 73L10 73L10 74L15 74L15 75L16 75L16 74L17 74L17 73L20 73L20 74L22 74L22 73L23 73L23 75L24 75L24 76L25 76L25 77L26 77L26 76L27 76L27 75L28 75L28 76L31 76L31 77L32 77L32 76L33 76L33 77L34 77L34 75L32 75L32 74L29 74L29 72L30 72L30 73L31 73L31 71L33 71L33 70L31 70L31 71L30 71L30 70L29 70L29 68L30 68L30 67L31 67L31 68L32 68L32 69L35 69L35 68L36 68L36 67L35 67L35 66L34 66L34 65L36 65L36 66L38 66L38 69L39 69L39 70L37 70L37 69L36 69L36 70L37 70L37 71L34 71L34 72L35 72L35 73L33 73L33 74L37 74L37 75L36 75L36 77L37 77L37 75L38 75L38 77L39 77L39 72L41 72L41 71L42 71L42 70L44 70L44 71L43 71L43 72L42 72L42 73L40 73L40 75L41 75L41 76L42 76L42 77L49 77L49 76L50 76L50 77L51 77L51 76L50 76L50 75L52 75L52 74L53 74L53 73L54 73L54 74L55 74L55 75L58 75L58 74L60 74L60 76L58 76L58 77L65 77L65 75L66 75L66 76L67 76L67 77L69 77L69 76L71 76L71 77L73 77L73 75L72 75L72 76L71 76L71 74L69 74L69 75L68 75L68 74L67 74L67 73L66 73L66 69L67 69L67 70L68 70L68 71L67 71L67 72L68 72L68 73L73 73L73 72L74 72L74 76L76 76L76 75L77 75L77 74L76 74L76 73L77 73L77 72L76 72L76 71L77 71L77 65L76 65L76 64L75 64L75 65L76 65L76 66L75 66L75 67L74 67L74 68L73 68L73 67L72 67L72 68L71 68L71 66L72 66L72 64L73 64L73 63L74 63L74 62L75 62L75 63L77 63L77 62L75 62L75 61L74 61L74 59L71 59L71 60L70 60L70 61L72 61L72 62L70 62L70 63L69 63L69 65L68 65L68 67L69 67L69 68L67 68L67 67L66 67L66 68L65 68L65 67L64 67L64 66L65 66L65 65L66 65L66 66L67 66L67 65L66 65L66 64L68 64L68 58L67 58L67 57L69 57L69 58L72 58L72 57L73 57L73 58L75 58L75 59L76 59L76 61L77 61L77 59L76 59L76 58L77 58L77 56L76 56L76 55L77 55L77 54L74 54L74 51L75 51L75 53L76 53L76 51L77 51L77 50L76 50L76 49L77 49L77 48L76 48L76 47L75 47L75 48L76 48L76 49L74 49L74 46L77 46L77 44L75 44L75 45L73 45L73 46L71 46L71 45L72 45L72 44L73 44L73 41L75 41L75 40L76 40L76 39L77 39L77 38L76 38L76 39L74 39L74 38L75 38L75 37L74 37L74 36L73 36L73 35L74 35L74 34L75 34L75 36L76 36L76 37L77 37L77 35L76 35L76 34L77 34L77 28L75 28L75 25L77 25L77 24L76 24L76 23L77 23L77 20L76 20L76 21L75 21L75 20L73 20L73 21L72 21L72 19L74 19L74 17L75 17L75 19L77 19L77 17L75 17L75 15L76 15L76 16L77 16L77 9L76 9L76 8L75 8L75 9L74 9L74 8L72 8L72 12L71 12L71 11L70 11L70 9L71 9L71 8L69 8L69 6L68 6L68 7L67 7L67 5L69 5L69 1L68 1L68 4L66 4L66 2L67 2L67 1L66 1L66 0L64 0L64 2L63 2L63 1L62 1L62 2L61 2L61 0L60 0L60 2L61 2L61 3L59 3L59 2L56 2L56 1L58 1L58 0L56 0L56 1L54 1L54 0L51 0L51 1L50 1L50 0L49 0L49 1L48 1L48 0L45 0L45 1L44 1L44 4L41 4L41 2L42 2L42 3L43 3L43 2L42 2L42 1L43 1L43 0L40 0L40 1L39 1L39 0L37 0L37 1L38 1L38 3L39 3L39 4L38 4L38 5L40 5L40 4L41 4L41 6L40 6L40 7L41 7L41 6L42 6L42 8L43 8L43 6L44 6L44 7L45 7L45 6L44 6L44 5L45 5L45 2L46 2L46 1L48 1L48 2L49 2L49 3L48 3L48 4L46 4L46 9L45 9L45 8L44 8L44 9L45 9L45 10L43 10L43 9L42 9L42 10L40 10L40 9L41 9L41 8L39 8L39 6L38 6L38 7L37 7L37 6L36 6L36 5L37 5L37 3L35 3L35 2L36 2L36 0L35 0L35 2L34 2L34 0L31 0L31 1L33 1L33 2L30 2L30 4L28 4L28 3L26 3L26 2L24 2L24 3L23 3L23 0L20 0L20 3L19 3L19 4L18 4L18 3L16 3L16 4L15 4L15 5L16 5L16 4L18 4L18 7L17 7L17 6L16 6L16 8L18 8L18 9L19 9L19 10L20 10L20 9L21 9L21 8L18 8L18 7L19 7L19 5L20 5L20 7L21 7L21 6L22 6L22 7L23 7L23 6L24 6L24 8L23 8L23 9L22 9L22 10L21 10L21 11L20 11L20 12L21 12L21 13L22 13L22 12L23 12L23 14L20 14L20 13L18 13L18 12L16 12L16 11L17 11L17 9L16 9L16 10L15 10L15 11L14 11L14 10L12 10L12 9L15 9L15 6L14 6L14 8L13 8L13 5L12 5L12 2L14 2L14 1L15 1L15 0L14 0L14 1L11 1L11 0ZM17 0L17 2L19 2L19 0ZM24 0L24 1L27 1L27 0ZM29 0L29 1L30 1L30 0ZM21 1L21 5L23 5L23 3L22 3L22 1ZM51 1L51 2L52 2L52 3L54 3L54 4L51 4L51 3L49 3L49 4L51 4L51 8L52 8L52 9L53 9L53 8L52 8L52 6L53 6L53 7L54 7L54 9L57 9L57 10L54 10L54 11L55 11L55 12L54 12L54 13L53 13L53 11L51 11L51 9L48 9L48 10L47 10L47 9L46 9L46 11L43 11L43 12L46 12L46 11L47 11L47 12L48 12L48 13L46 13L46 14L45 14L45 13L43 13L43 14L44 14L44 15L42 15L42 17L43 17L43 20L42 20L42 18L41 18L41 17L40 17L40 16L41 16L41 15L40 15L40 14L42 14L42 12L41 12L41 13L40 13L40 11L39 11L39 10L38 10L38 11L39 11L39 12L37 12L37 13L38 13L38 15L37 15L37 16L38 16L38 15L39 15L39 17L36 17L36 15L35 15L35 14L36 14L36 12L35 12L35 11L34 11L34 10L36 10L36 11L37 11L37 10L36 10L36 9L33 9L33 11L32 11L32 10L31 10L31 11L30 11L30 10L29 10L29 9L27 9L27 10L29 10L29 11L26 11L26 9L25 9L25 10L24 10L24 9L23 9L23 10L22 10L22 11L21 11L21 12L22 12L22 11L23 11L23 10L24 10L24 11L25 11L25 12L24 12L24 13L25 13L25 15L27 15L27 16L26 16L26 17L25 17L25 16L24 16L24 14L23 14L23 15L21 15L21 16L20 16L20 17L21 17L21 20L22 20L22 21L21 21L21 22L20 22L20 21L19 21L19 20L20 20L20 18L19 18L19 20L18 20L18 21L19 21L19 23L21 23L21 24L20 24L20 25L19 25L19 24L18 24L18 25L17 25L17 26L16 26L16 24L15 24L15 23L18 23L18 22L15 22L15 21L16 21L16 20L15 20L15 21L14 21L14 22L13 22L13 19L12 19L12 17L15 17L15 18L14 18L14 19L16 19L16 16L17 16L17 19L18 19L18 16L19 16L19 15L20 15L20 14L18 14L18 13L17 13L17 14L18 14L18 16L17 16L17 15L15 15L15 16L14 16L14 15L13 15L13 14L15 14L15 13L14 13L14 12L12 12L12 11L10 11L10 12L12 12L12 13L13 13L13 14L12 14L12 16L11 16L11 19L10 19L10 18L9 18L9 17L10 17L10 16L9 16L9 15L11 15L11 14L9 14L9 15L6 15L6 16L8 16L8 19L5 19L5 17L4 17L4 19L3 19L3 17L2 17L2 20L1 20L1 21L2 21L2 20L4 20L4 19L5 19L5 21L6 21L6 22L5 22L5 23L4 23L4 22L1 22L1 24L2 24L2 23L3 23L3 25L1 25L1 26L3 26L3 27L2 27L2 28L3 28L3 29L2 29L2 30L3 30L3 29L4 29L4 28L3 28L3 27L4 27L4 26L3 26L3 25L4 25L4 24L9 24L9 26L10 26L10 27L11 27L11 28L10 28L10 29L9 29L9 33L11 33L11 34L12 34L12 35L11 35L11 37L10 37L10 38L12 38L12 40L11 40L11 41L12 41L12 40L13 40L13 41L14 41L14 42L9 42L9 38L8 38L8 41L5 41L5 42L8 42L8 43L9 43L9 45L12 45L12 43L14 43L14 42L16 42L16 43L15 43L15 44L13 44L13 45L15 45L15 48L16 48L16 49L15 49L15 50L16 50L16 51L14 51L14 52L17 52L17 53L18 53L18 52L19 52L19 51L20 51L20 52L21 52L21 51L23 51L23 52L24 52L24 50L21 50L21 51L20 51L20 50L19 50L19 49L20 49L20 48L19 48L19 47L22 47L22 48L21 48L21 49L22 49L22 48L23 48L23 47L22 47L22 45L24 45L24 46L27 46L27 45L28 45L28 46L31 46L31 47L30 47L30 49L29 49L29 50L30 50L30 49L31 49L31 50L32 50L32 52L31 52L31 51L29 51L29 53L27 53L27 52L28 52L28 51L27 51L27 52L26 52L26 51L25 51L25 55L24 55L24 58L25 58L25 57L26 57L26 58L28 58L28 59L24 59L24 62L26 62L26 60L27 60L27 61L29 61L29 62L28 62L28 64L26 64L26 65L27 65L27 66L26 66L26 67L29 67L29 66L31 66L31 67L32 67L32 68L33 68L33 67L34 67L34 68L35 68L35 67L34 67L34 66L33 66L33 67L32 67L32 66L31 66L31 64L32 64L32 63L34 63L34 64L33 64L33 65L34 65L34 64L36 64L36 63L37 63L37 64L38 64L38 66L39 66L39 67L40 67L40 66L41 66L41 67L42 67L42 66L43 66L43 65L44 65L44 66L48 66L48 67L44 67L44 70L45 70L45 71L44 71L44 72L45 72L45 73L42 73L42 76L43 76L43 74L44 74L44 76L45 76L45 73L46 73L46 74L48 74L48 75L47 75L47 76L49 76L49 74L48 74L48 73L46 73L46 68L50 68L50 67L51 67L51 69L52 69L52 70L53 70L53 71L52 71L52 72L53 72L53 71L54 71L54 70L55 70L55 72L54 72L54 73L55 73L55 72L57 72L57 73L56 73L56 74L57 74L57 73L58 73L58 69L60 69L60 72L59 72L59 73L61 73L61 72L63 72L63 73L62 73L62 75L61 75L61 76L63 76L63 74L64 74L64 72L65 72L65 71L61 71L61 69L62 69L62 70L65 70L65 69L63 69L63 68L64 68L64 67L63 67L63 65L64 65L64 64L66 64L66 63L65 63L65 62L64 62L64 63L61 63L61 64L62 64L62 65L61 65L61 66L60 66L60 67L59 67L59 66L58 66L58 67L57 67L57 66L56 66L56 65L54 65L54 64L55 64L55 62L53 62L53 59L49 59L49 58L50 58L50 57L51 57L51 56L50 56L50 57L49 57L49 56L48 56L48 55L47 55L47 56L46 56L46 55L44 55L44 56L46 56L46 57L47 57L47 56L48 56L48 57L49 57L49 58L48 58L48 60L47 60L47 59L46 59L46 58L45 58L45 57L44 57L44 58L43 58L43 57L41 57L41 56L42 56L42 55L43 55L43 54L42 54L42 55L40 55L40 54L41 54L41 53L42 53L42 52L43 52L43 53L45 53L45 54L49 54L49 55L50 55L50 54L51 54L51 53L49 53L49 51L45 51L45 50L44 50L44 48L45 48L45 49L46 49L46 48L45 48L45 47L44 47L44 45L43 45L43 44L42 44L42 43L41 43L41 45L40 45L40 43L38 43L38 41L41 41L41 39L39 39L39 40L38 40L38 38L37 38L37 40L36 40L36 39L35 39L35 38L36 38L36 37L35 37L35 36L37 36L37 35L35 35L35 34L36 34L36 33L38 33L38 34L40 34L40 32L39 32L39 33L38 33L38 30L39 30L39 31L40 31L40 29L38 29L38 27L39 27L39 28L40 28L40 27L41 27L41 31L42 31L42 30L43 30L43 32L41 32L41 34L44 34L44 33L45 33L45 35L44 35L44 36L43 36L43 35L42 35L42 37L41 37L41 36L39 36L39 35L38 35L38 37L40 37L40 38L42 38L42 40L43 40L43 41L42 41L42 42L43 42L43 41L44 41L44 40L43 40L43 39L45 39L45 43L44 43L44 44L45 44L45 45L46 45L46 42L47 42L47 41L46 41L46 38L48 38L48 36L49 36L49 35L51 35L51 36L52 36L52 37L54 37L54 38L53 38L53 40L51 40L51 37L49 37L49 39L47 39L47 40L48 40L48 41L49 41L49 42L48 42L48 43L47 43L47 46L48 46L48 45L49 45L49 46L50 46L50 45L51 45L51 46L52 46L52 47L51 47L51 49L52 49L52 48L53 48L53 51L52 51L52 50L51 50L51 52L53 52L53 53L54 53L54 50L56 50L56 49L54 49L54 48L57 48L57 50L58 50L58 47L59 47L59 46L58 46L58 44L60 44L60 45L62 45L62 46L61 46L61 47L60 47L60 48L59 48L59 49L60 49L60 48L61 48L61 49L62 49L62 47L63 47L63 48L65 48L65 50L64 50L64 51L63 51L63 50L62 50L62 51L60 51L60 50L59 50L59 52L58 52L58 51L55 51L55 52L56 52L56 54L57 54L57 53L58 53L58 55L57 55L57 57L58 57L58 55L59 55L59 56L61 56L61 57L59 57L59 58L60 58L60 60L58 60L58 59L56 59L56 58L55 58L55 57L54 57L54 55L52 55L52 57L53 57L53 58L55 58L55 59L54 59L54 61L55 61L55 60L56 60L56 64L57 64L57 65L58 65L58 64L59 64L59 65L60 65L60 64L59 64L59 63L60 63L60 62L58 62L58 61L61 61L61 62L63 62L63 61L64 61L64 60L65 60L65 61L66 61L66 62L67 62L67 61L66 61L66 60L67 60L67 59L66 59L66 57L67 57L67 56L69 56L69 57L71 57L71 56L69 56L69 55L67 55L67 54L68 54L68 53L69 53L69 54L70 54L70 53L71 53L71 51L68 51L68 50L67 50L67 51L65 51L65 50L66 50L66 49L67 49L67 48L68 48L68 46L67 46L67 48L65 48L65 47L66 47L66 46L65 46L65 47L63 47L63 44L65 44L65 45L67 45L67 44L68 44L68 45L69 45L69 46L70 46L70 43L72 43L72 41L71 41L71 42L69 42L69 40L70 40L70 39L71 39L71 38L73 38L73 37L72 37L72 34L70 34L70 32L69 32L69 34L67 34L67 35L66 35L66 37L65 37L65 35L63 35L63 32L64 32L64 34L66 34L66 33L68 33L68 32L67 32L67 31L65 31L65 30L66 30L66 29L67 29L67 30L69 30L69 29L67 29L67 28L68 28L68 27L67 27L67 28L66 28L66 24L69 24L69 22L70 22L70 23L71 23L71 22L72 22L72 24L73 24L73 26L74 26L74 24L73 24L73 22L74 22L74 23L76 23L76 22L74 22L74 21L73 21L73 22L72 22L72 21L70 21L70 20L71 20L71 19L72 19L72 17L74 17L74 14L73 14L73 16L72 16L72 17L71 17L71 15L70 15L70 18L69 18L69 19L68 19L68 18L65 18L65 20L67 20L67 19L68 19L68 20L69 20L69 21L66 21L66 24L65 24L65 25L63 25L63 24L64 24L64 23L65 23L65 21L64 21L64 20L63 20L63 21L62 21L62 20L61 20L61 22L60 22L60 21L59 21L59 20L58 20L58 19L57 19L57 18L59 18L59 17L60 17L60 16L58 16L58 14L59 14L59 15L60 15L60 14L59 14L59 13L61 13L61 14L63 14L63 13L65 13L65 14L64 14L64 15L61 15L61 16L62 16L62 18L61 18L61 19L63 19L63 17L64 17L64 16L66 16L66 17L69 17L69 14L66 14L66 13L67 13L67 12L69 12L69 13L70 13L70 14L71 14L71 13L70 13L70 11L69 11L69 8L67 8L67 7L66 7L66 6L65 6L65 5L66 5L66 4L65 4L65 2L64 2L64 4L63 4L63 2L62 2L62 3L61 3L61 4L59 4L59 5L58 5L58 4L57 4L57 3L56 3L56 4L57 4L57 5L55 5L55 3L54 3L54 2L53 2L53 1ZM33 2L33 3L32 3L32 4L30 4L30 6L29 6L29 8L30 8L30 6L31 6L31 7L32 7L32 6L33 6L33 7L34 7L34 8L35 8L35 7L36 7L36 6L35 6L35 7L34 7L34 6L33 6L33 5L34 5L34 2ZM13 3L13 4L14 4L14 3ZM24 3L24 4L25 4L25 3ZM32 4L32 5L31 5L31 6L32 6L32 5L33 5L33 4ZM35 4L35 5L36 5L36 4ZM62 4L62 5L61 5L61 6L60 6L60 5L59 5L59 6L58 6L58 9L61 9L61 8L63 8L63 10L62 10L62 13L63 13L63 11L64 11L64 12L67 12L67 11L68 11L68 10L67 10L67 9L66 9L66 8L63 8L63 4ZM11 5L11 7L12 7L12 5ZM25 5L25 8L28 8L28 5ZM47 5L47 8L50 8L50 5ZM53 5L53 6L54 6L54 7L55 7L55 5ZM9 6L9 8L10 8L10 6ZM26 6L26 7L27 7L27 6ZM48 6L48 7L49 7L49 6ZM56 6L56 7L57 7L57 6ZM59 6L59 7L60 7L60 8L61 8L61 7L62 7L62 6L61 6L61 7L60 7L60 6ZM64 6L64 7L65 7L65 6ZM11 8L11 9L12 9L12 8ZM31 8L31 9L32 9L32 8ZM37 8L37 9L39 9L39 8ZM3 9L3 10L4 10L4 9ZM5 9L5 11L4 11L4 12L3 12L3 13L2 13L2 14L1 14L1 15L2 15L2 16L4 16L4 15L2 15L2 14L4 14L4 13L5 13L5 12L7 12L7 13L6 13L6 14L8 14L8 12L9 12L9 10L10 10L10 9L8 9L8 10L7 10L7 9ZM64 9L64 10L65 10L65 11L67 11L67 10L65 10L65 9ZM6 10L6 11L7 11L7 12L8 12L8 11L7 11L7 10ZM48 10L48 11L49 11L49 10ZM57 10L57 11L58 11L58 12L55 12L55 13L57 13L57 14L52 14L52 13L50 13L50 12L49 12L49 13L50 13L50 16L49 16L49 18L48 18L48 19L49 19L49 21L48 21L48 22L47 22L47 21L46 21L46 22L44 22L44 21L42 21L42 20L41 20L41 21L40 21L40 22L38 22L38 23L37 23L37 22L36 22L36 24L33 24L33 25L32 25L32 23L35 23L35 21L36 21L36 19L37 19L37 20L38 20L38 21L39 21L39 20L40 20L40 19L39 19L39 20L38 20L38 18L36 18L36 17L35 17L35 16L34 16L34 14L33 14L33 13L34 13L34 11L33 11L33 13L32 13L32 11L31 11L31 12L29 12L29 13L28 13L28 12L26 12L26 13L28 13L28 14L29 14L29 15L28 15L28 16L29 16L29 17L30 17L30 18L32 18L32 19L34 19L34 17L35 17L35 21L33 21L33 20L32 20L32 23L31 23L31 22L30 22L30 23L31 23L31 26L30 26L30 27L29 27L29 24L28 24L28 23L29 23L29 22L28 22L28 21L31 21L31 20L29 20L29 19L26 19L26 18L28 18L28 17L26 17L26 18L25 18L25 17L24 17L24 20L23 20L23 21L22 21L22 22L25 22L25 19L26 19L26 21L27 21L27 22L26 22L26 24L23 24L23 23L22 23L22 24L21 24L21 25L22 25L22 26L20 26L20 27L22 27L22 28L21 28L21 31L20 31L20 29L19 29L19 27L18 27L18 28L17 28L17 27L15 27L15 28L17 28L17 29L14 29L14 30L16 30L16 31L14 31L14 33L13 33L13 30L12 30L12 29L13 29L13 28L14 28L14 25L15 25L15 24L14 24L14 23L10 23L10 22L11 22L11 21L12 21L12 19L11 19L11 21L9 21L9 24L10 24L10 26L12 26L12 27L13 27L13 28L11 28L11 30L12 30L12 31L10 31L10 32L12 32L12 33L13 33L13 34L14 34L14 33L15 33L15 32L16 32L16 33L17 33L17 32L16 32L16 31L18 31L18 33L19 33L19 34L17 34L17 35L19 35L19 34L20 34L20 35L21 35L21 34L20 34L20 33L21 33L21 32L22 32L22 33L23 33L23 34L22 34L22 35L25 35L25 37L24 37L24 36L22 36L22 37L20 37L20 38L19 38L19 37L17 37L17 36L16 36L16 35L15 35L15 36L16 36L16 41L17 41L17 39L18 39L18 41L21 41L21 40L22 40L22 41L23 41L23 43L22 43L22 42L20 42L20 43L21 43L21 44L20 44L20 45L19 45L19 44L17 44L17 45L16 45L16 46L17 46L17 47L16 47L16 48L17 48L17 49L16 49L16 50L17 50L17 49L18 49L18 48L17 48L17 47L19 47L19 46L20 46L20 45L22 45L22 44L23 44L23 43L26 43L26 44L27 44L27 43L30 43L30 41L29 41L29 40L28 40L28 39L27 39L27 43L26 43L26 41L25 41L25 38L27 38L27 37L26 37L26 34L27 34L27 36L31 36L31 38L30 38L30 40L31 40L31 39L32 39L32 40L34 40L34 41L33 41L33 42L32 42L32 43L31 43L31 44L32 44L32 47L31 47L31 49L35 49L35 47L34 47L34 45L33 45L33 44L35 44L35 46L36 46L36 48L37 48L37 49L36 49L36 50L39 50L39 51L35 51L35 60L33 60L33 59L32 59L32 58L33 58L33 56L34 56L34 53L33 53L33 54L32 54L32 53L31 53L31 54L30 54L30 55L29 55L29 54L27 54L27 55L29 55L29 56L30 56L30 57L28 57L28 56L26 56L26 55L25 55L25 56L26 56L26 57L28 57L28 58L29 58L29 59L28 59L28 60L29 60L29 61L30 61L30 64L31 64L31 63L32 63L32 62L31 62L31 61L32 61L32 60L33 60L33 62L34 62L34 63L36 63L36 62L37 62L37 63L40 63L40 59L42 59L42 58L41 58L41 57L36 57L36 53L37 53L37 52L40 52L40 53L41 53L41 51L42 51L42 48L43 48L43 46L39 46L39 47L40 47L40 48L37 48L37 46L38 46L38 45L39 45L39 44L37 44L37 42L35 42L35 43L34 43L34 41L35 41L35 39L34 39L34 38L35 38L35 37L33 37L33 39L32 39L32 36L34 36L34 35L33 35L33 34L35 34L35 30L36 30L36 29L37 29L37 28L35 28L35 27L38 27L38 26L35 26L35 25L37 25L37 24L38 24L38 25L39 25L39 27L40 27L40 26L41 26L41 25L42 25L42 26L43 26L43 27L42 27L42 28L45 28L45 29L44 29L44 32L45 32L45 33L46 33L46 35L47 35L47 36L48 36L48 35L49 35L49 34L51 34L51 35L52 35L52 34L51 34L51 32L52 32L52 33L53 33L53 34L57 34L57 35L53 35L53 36L56 36L56 37L55 37L55 38L54 38L54 39L56 39L56 40L57 40L57 41L60 41L60 42L58 42L58 43L60 43L60 42L61 42L61 44L63 44L63 43L66 43L66 42L65 42L65 41L64 41L64 40L65 40L65 38L64 38L64 37L61 37L61 34L62 34L62 33L61 33L61 32L63 32L63 31L64 31L64 32L65 32L65 31L64 31L64 28L63 28L63 27L64 27L64 26L63 26L63 25L62 25L62 26L61 26L61 25L59 25L59 24L60 24L60 22L59 22L59 21L58 21L58 20L56 20L56 18L57 18L57 17L58 17L58 16L57 16L57 14L58 14L58 12L60 12L60 10ZM73 10L73 11L74 11L74 12L73 12L73 13L74 13L74 12L75 12L75 13L76 13L76 11L75 11L75 10ZM30 13L30 15L29 15L29 16L30 16L30 15L31 15L31 17L33 17L33 16L32 16L32 15L33 15L33 14L31 14L31 13ZM39 13L39 14L40 14L40 13ZM46 14L46 16L45 16L45 15L44 15L44 16L43 16L43 17L44 17L44 18L45 18L45 19L44 19L44 20L45 20L45 19L46 19L46 20L47 20L47 17L48 17L48 15L49 15L49 14ZM53 15L53 16L50 16L50 20L52 20L52 19L53 19L53 20L54 20L54 21L52 21L52 23L51 23L51 21L49 21L49 22L48 22L48 23L49 23L49 24L52 24L52 27L51 27L51 29L50 29L50 30L49 30L49 31L48 31L48 30L47 30L47 29L45 29L45 30L47 30L47 32L49 32L49 31L50 31L50 32L51 32L51 29L52 29L52 28L53 28L53 30L54 30L54 31L53 31L53 33L56 33L56 32L58 32L58 33L57 33L57 34L58 34L58 35L57 35L57 37L56 37L56 38L57 38L57 37L58 37L58 35L60 35L60 34L61 34L61 33L60 33L60 34L59 34L59 32L61 32L61 31L59 31L59 30L58 30L58 29L57 29L57 28L59 28L59 29L60 29L60 30L62 30L62 31L63 31L63 30L62 30L62 29L63 29L63 28L62 28L62 27L61 27L61 26L58 26L58 27L57 27L57 25L58 25L58 22L55 22L55 23L54 23L54 25L56 25L56 27L55 27L55 26L53 26L53 22L54 22L54 21L56 21L56 20L55 20L55 18L56 18L56 17L54 17L54 15ZM55 15L55 16L56 16L56 15ZM44 16L44 17L45 17L45 18L46 18L46 17L45 17L45 16ZM6 17L6 18L7 18L7 17ZM22 17L22 18L23 18L23 17ZM52 17L52 18L51 18L51 19L52 19L52 18L53 18L53 19L54 19L54 18L53 18L53 17ZM8 19L8 20L9 20L9 19ZM69 19L69 20L70 20L70 19ZM6 20L6 21L7 21L7 20ZM27 20L27 21L28 21L28 20ZM6 22L6 23L8 23L8 22ZM40 22L40 24L39 24L39 23L38 23L38 24L39 24L39 25L40 25L40 24L41 24L41 23L42 23L42 25L43 25L43 26L44 26L44 27L46 27L46 26L45 26L45 25L44 25L44 22ZM61 22L61 24L63 24L63 23L64 23L64 22ZM45 23L45 24L47 24L47 23ZM12 24L12 25L14 25L14 24ZM22 24L22 25L23 25L23 26L22 26L22 27L23 27L23 28L22 28L22 32L23 32L23 33L24 33L24 32L25 32L25 33L27 33L27 34L28 34L28 35L29 35L29 33L28 33L28 31L31 31L31 32L30 32L30 33L31 33L31 32L32 32L32 34L33 34L33 32L32 32L32 31L31 31L31 29L32 29L32 28L33 28L33 31L34 31L34 28L33 28L33 27L30 27L30 28L29 28L29 29L30 29L30 30L28 30L28 29L27 29L27 32L26 32L26 31L24 31L24 30L23 30L23 29L24 29L24 25L23 25L23 24ZM5 25L5 28L8 28L8 25ZM25 25L25 28L28 28L28 25ZM33 25L33 26L34 26L34 27L35 27L35 26L34 26L34 25ZM47 25L47 28L50 28L50 25ZM69 25L69 28L72 28L72 25ZM6 26L6 27L7 27L7 26ZM26 26L26 27L27 27L27 26ZM48 26L48 27L49 27L49 26ZM70 26L70 27L71 27L71 26ZM76 26L76 27L77 27L77 26ZM56 27L56 28L57 28L57 27ZM60 27L60 29L61 29L61 27ZM54 28L54 29L55 29L55 32L56 32L56 30L57 30L57 31L58 31L58 30L57 30L57 29L55 29L55 28ZM18 29L18 31L19 31L19 29ZM71 29L71 30L70 30L70 31L71 31L71 32L72 32L72 31L71 31L71 30L73 30L73 29ZM74 29L74 30L75 30L75 29ZM7 30L7 31L8 31L8 30ZM23 31L23 32L24 32L24 31ZM73 31L73 34L74 34L74 33L75 33L75 34L76 34L76 33L75 33L75 31ZM7 32L7 33L6 33L6 34L7 34L7 33L8 33L8 32ZM47 33L47 34L49 34L49 33ZM3 34L3 36L4 36L4 34ZM8 34L8 35L6 35L6 36L7 36L7 37L4 37L4 38L3 38L3 39L2 39L2 40L4 40L4 39L5 39L5 38L7 38L7 37L8 37L8 36L9 36L9 34ZM69 34L69 35L68 35L68 36L69 36L69 37L66 37L66 38L70 38L70 36L69 36L69 35L70 35L70 34ZM13 35L13 36L14 36L14 35ZM62 35L62 36L63 36L63 35ZM12 37L12 38L13 38L13 40L14 40L14 41L15 41L15 40L14 40L14 39L15 39L15 38L14 38L14 37ZM22 37L22 39L23 39L23 41L24 41L24 38L23 38L23 37ZM28 37L28 38L29 38L29 37ZM42 37L42 38L44 38L44 37ZM20 38L20 39L21 39L21 38ZM58 38L58 39L57 39L57 40L60 40L60 38ZM61 38L61 40L62 40L62 43L63 43L63 40L64 40L64 39L63 39L63 38ZM6 39L6 40L7 40L7 39ZM49 39L49 40L50 40L50 41L51 41L51 40L50 40L50 39ZM66 39L66 41L68 41L68 39ZM72 39L72 40L74 40L74 39ZM37 40L37 41L38 41L38 40ZM54 40L54 41L52 41L52 42L50 42L50 44L49 44L49 43L48 43L48 44L49 44L49 45L50 45L50 44L51 44L51 45L53 45L53 48L54 48L54 45L55 45L55 46L56 46L56 47L58 47L58 46L56 46L56 45L55 45L55 44L56 44L56 43L57 43L57 42L54 42L54 41L55 41L55 40ZM52 42L52 43L51 43L51 44L54 44L54 43L53 43L53 42ZM67 42L67 43L68 43L68 42ZM75 42L75 43L76 43L76 42ZM6 43L6 44L5 44L5 45L4 45L4 44L3 44L3 45L4 45L4 46L7 46L7 45L6 45L6 44L7 44L7 43ZM32 43L32 44L33 44L33 43ZM35 43L35 44L36 44L36 43ZM24 44L24 45L25 45L25 44ZM18 45L18 46L19 46L19 45ZM11 46L11 48L12 48L12 49L13 49L13 50L14 50L14 47L13 47L13 46ZM5 47L5 50L8 50L8 47ZM9 47L9 48L10 48L10 47ZM12 47L12 48L13 48L13 47ZM25 47L25 50L28 50L28 47ZM33 47L33 48L34 48L34 47ZM41 47L41 48L40 48L40 51L41 51L41 48L42 48L42 47ZM47 47L47 50L50 50L50 47ZM69 47L69 50L72 50L72 47ZM6 48L6 49L7 49L7 48ZM26 48L26 49L27 49L27 48ZM48 48L48 49L49 49L49 48ZM70 48L70 49L71 49L71 48ZM3 49L3 50L4 50L4 49ZM73 49L73 50L74 50L74 49ZM33 50L33 52L34 52L34 50ZM3 51L3 52L4 52L4 53L2 53L2 55L4 55L4 56L5 56L5 55L6 55L6 56L7 56L7 55L8 55L8 54L7 54L7 53L6 53L6 52L4 52L4 51ZM62 51L62 52L60 52L60 53L62 53L62 54L61 54L61 56L62 56L62 54L63 54L63 55L64 55L64 54L65 54L65 55L66 55L66 54L65 54L65 52L64 52L64 53L62 53L62 52L63 52L63 51ZM67 51L67 52L66 52L66 53L67 53L67 52L68 52L68 51ZM45 52L45 53L46 53L46 52ZM47 52L47 53L48 53L48 52ZM69 52L69 53L70 53L70 52ZM72 52L72 53L73 53L73 52ZM19 53L19 54L18 54L18 55L17 55L17 56L18 56L18 55L19 55L19 54L20 54L20 53ZM38 53L38 55L37 55L37 56L40 56L40 55L39 55L39 53ZM4 54L4 55L5 55L5 54ZM6 54L6 55L7 55L7 54ZM11 54L11 55L12 55L12 54ZM31 54L31 55L32 55L32 56L33 56L33 55L32 55L32 54ZM59 54L59 55L60 55L60 54ZM71 54L71 55L73 55L73 56L74 56L74 57L76 57L76 56L75 56L75 55L73 55L73 54ZM9 55L9 56L8 56L8 57L9 57L9 56L10 56L10 55ZM2 56L2 57L3 57L3 56ZM13 56L13 57L15 57L15 56ZM64 56L64 57L63 57L63 58L62 58L62 59L63 59L63 60L62 60L62 61L63 61L63 60L64 60L64 59L65 59L65 60L66 60L66 59L65 59L65 58L64 58L64 57L66 57L66 56ZM30 57L30 60L31 60L31 58L32 58L32 57ZM37 58L37 59L36 59L36 60L35 60L35 62L36 62L36 61L37 61L37 60L39 60L39 59L40 59L40 58ZM44 58L44 60L41 60L41 61L43 61L43 63L42 63L42 62L41 62L41 64L39 64L39 66L40 66L40 65L42 65L42 64L44 64L44 65L48 65L48 66L49 66L49 67L50 67L50 66L49 66L49 64L51 64L51 67L52 67L52 69L54 69L54 68L53 68L53 67L54 67L54 66L53 66L53 62L52 62L52 61L51 61L51 60L49 60L49 61L47 61L47 62L48 62L48 64L47 64L47 63L46 63L46 60L45 60L45 58ZM4 59L4 60L2 60L2 61L3 61L3 62L2 62L2 64L4 64L4 68L1 68L1 69L5 69L5 67L8 67L8 70L9 70L9 71L8 71L8 74L9 74L9 71L10 71L10 70L11 70L11 69L12 69L12 68L13 68L13 67L10 67L10 66L11 66L11 65L10 65L10 63L8 63L8 64L9 64L9 66L8 66L8 65L7 65L7 64L4 64L4 62L5 62L5 61L7 61L7 60L5 60L5 59ZM15 60L15 61L16 61L16 60ZM44 60L44 61L45 61L45 60ZM72 60L72 61L73 61L73 60ZM38 61L38 62L39 62L39 61ZM49 61L49 63L50 63L50 61ZM6 62L6 63L7 63L7 62ZM44 62L44 63L45 63L45 64L46 64L46 63L45 63L45 62ZM57 62L57 64L58 64L58 62ZM0 63L0 66L1 66L1 67L2 67L2 66L1 66L1 63ZM23 63L23 65L22 65L22 64L21 64L21 65L20 65L20 66L21 66L21 65L22 65L22 67L21 67L21 68L22 68L22 67L23 67L23 68L25 68L25 67L24 67L24 66L23 66L23 65L25 65L25 63ZM51 63L51 64L52 64L52 63ZM70 63L70 64L72 64L72 63ZM6 65L6 66L7 66L7 65ZM18 65L18 66L19 66L19 65ZM28 65L28 66L29 66L29 65ZM69 65L69 66L70 66L70 65ZM73 65L73 66L74 66L74 65ZM52 66L52 67L53 67L53 66ZM55 66L55 68L56 68L56 69L55 69L55 70L57 70L57 69L58 69L58 68L56 68L56 66ZM61 66L61 68L60 68L60 69L61 69L61 68L62 68L62 66ZM75 67L75 68L74 68L74 69L73 69L73 70L74 70L74 71L76 71L76 70L74 70L74 69L75 69L75 68L76 68L76 67ZM6 68L6 69L7 69L7 68ZM18 68L18 69L19 69L19 68ZM39 68L39 69L41 69L41 70L42 70L42 68ZM21 69L21 71L22 71L22 72L23 72L23 73L24 73L24 75L25 75L25 74L26 74L26 75L27 75L27 74L28 74L28 73L24 73L24 72L23 72L23 71L22 71L22 70L24 70L24 69ZM25 69L25 72L28 72L28 69ZM47 69L47 72L50 72L50 69ZM69 69L69 72L72 72L72 69ZM26 70L26 71L27 71L27 70ZM39 70L39 71L38 71L38 72L39 72L39 71L40 71L40 70ZM48 70L48 71L49 71L49 70ZM70 70L70 71L71 71L71 70ZM12 72L12 73L14 73L14 72ZM51 73L51 74L52 74L52 73ZM8 75L8 76L10 76L10 75ZM11 75L11 77L13 77L13 76L12 76L12 75ZM17 75L17 77L21 77L21 75L20 75L20 76L18 76L18 75ZM67 75L67 76L68 76L68 75ZM14 76L14 77L15 77L15 76ZM22 76L22 77L23 77L23 76ZM52 76L52 77L53 77L53 76ZM54 76L54 77L55 77L55 76ZM56 76L56 77L57 77L57 76ZM0 0L0 7L7 7L7 0ZM1 1L1 6L6 6L6 1ZM2 2L2 5L5 5L5 2ZM70 0L70 7L77 7L77 0ZM71 1L71 6L76 6L76 1ZM72 2L72 5L75 5L75 2ZM0 70L0 77L7 77L7 70ZM1 71L1 76L6 76L6 71ZM2 72L2 75L5 75L5 72Z" fill="#000000"/></g></g></svg>
