<?xml version="1.0" encoding="UTF-8"?>
<svg xmlns="http://www.w3.org/2000/svg" version="1.1" width="400" height="400" viewBox="0 0 400 400"><rect x="0" y="0" width="400" height="400" fill="#fefefe"/><g transform="scale(4.706)"><g transform="translate(4,4)"><path fill-rule="evenodd" d="M9 0L9 1L8 1L8 2L10 2L10 1L11 1L11 3L12 3L12 4L11 4L11 5L10 5L10 7L9 7L9 6L8 6L8 9L7 9L7 8L3 8L3 9L5 9L5 10L3 10L3 11L2 11L2 8L1 8L1 9L0 9L0 10L1 10L1 11L0 11L0 13L1 13L1 14L0 14L0 15L2 15L2 16L0 16L0 19L2 19L2 16L5 16L5 18L4 18L4 20L3 20L3 22L2 22L2 20L0 20L0 24L1 24L1 26L0 26L0 27L1 27L1 28L0 28L0 30L1 30L1 31L2 31L2 30L3 30L3 29L4 29L4 30L5 30L5 32L4 32L4 31L3 31L3 34L4 34L4 37L3 37L3 36L2 36L2 32L1 32L1 34L0 34L0 35L1 35L1 36L0 36L0 39L2 39L2 38L1 38L1 37L3 37L3 38L4 38L4 41L8 41L8 39L7 39L7 38L9 38L9 37L10 37L10 40L11 40L11 38L14 38L14 36L16 36L16 39L17 39L17 40L15 40L15 41L18 41L18 42L14 42L14 41L13 41L13 40L12 40L12 42L13 42L13 43L12 43L12 45L11 45L11 43L10 43L10 42L5 42L5 43L4 43L4 42L3 42L3 43L2 43L2 41L1 41L1 40L0 40L0 43L2 43L2 46L3 46L3 44L4 44L4 48L3 48L3 47L1 47L1 46L0 46L0 47L1 47L1 50L0 50L0 56L1 56L1 58L0 58L0 59L1 59L1 60L0 60L0 63L2 63L2 64L0 64L0 66L1 66L1 67L2 67L2 66L3 66L3 65L4 65L4 63L7 63L7 64L6 64L6 65L5 65L5 66L4 66L4 68L1 68L1 69L5 69L5 67L7 67L7 66L6 66L6 65L9 65L9 67L10 67L10 68L11 68L11 66L12 66L12 67L13 67L13 68L14 68L14 67L16 67L16 69L17 69L17 67L19 67L19 68L18 68L18 69L19 69L19 70L21 70L21 69L22 69L22 70L24 70L24 74L23 74L23 73L22 73L22 74L23 74L23 75L25 75L25 77L26 77L26 76L27 76L27 75L28 75L28 77L30 77L30 76L29 76L29 75L30 75L30 73L31 73L31 74L32 74L32 76L33 76L33 77L37 77L37 76L36 76L36 74L37 74L37 73L41 73L41 74L38 74L38 75L40 75L40 76L39 76L39 77L41 77L41 76L42 76L42 77L44 77L44 76L45 76L45 75L43 75L43 76L42 76L42 74L44 74L44 73L45 73L45 74L46 74L46 77L49 77L49 76L50 76L50 77L51 77L51 76L53 76L53 77L55 77L55 75L58 75L58 74L60 74L60 76L58 76L58 77L65 77L65 75L66 75L66 77L69 77L69 76L71 76L71 77L75 77L75 76L76 76L76 75L77 75L77 74L76 74L76 73L77 73L77 72L76 72L76 71L77 71L77 65L76 65L76 64L75 64L75 65L76 65L76 66L74 66L74 65L73 65L73 64L74 64L74 62L75 62L75 63L77 63L77 62L75 62L75 61L77 61L77 58L75 58L75 57L77 57L77 55L75 55L75 54L77 54L77 53L75 53L75 54L74 54L74 52L75 52L75 50L77 50L77 48L76 48L76 49L75 49L75 48L73 48L73 47L74 47L74 46L75 46L75 45L77 45L77 41L76 41L76 39L74 39L74 38L76 38L76 37L77 37L77 36L75 36L75 35L73 35L73 34L75 34L75 33L74 33L74 32L76 32L76 35L77 35L77 28L74 28L74 27L75 27L75 25L77 25L77 24L76 24L76 23L77 23L77 20L76 20L76 21L74 21L74 20L75 20L75 19L77 19L77 17L75 17L75 19L74 19L74 18L73 18L73 17L71 17L71 19L72 19L72 20L70 20L70 19L69 19L69 18L70 18L70 15L71 15L71 16L72 16L72 15L73 15L73 13L72 13L72 14L70 14L70 13L71 13L71 12L74 12L74 14L75 14L75 15L74 15L74 16L77 16L77 10L75 10L75 9L76 9L76 8L75 8L75 9L74 9L74 8L72 8L72 10L71 10L71 11L70 11L70 10L69 10L69 9L71 9L71 8L69 8L69 9L68 9L68 10L67 10L67 11L68 11L68 10L69 10L69 11L70 11L70 13L69 13L69 12L66 12L66 9L67 9L67 8L68 8L68 7L69 7L69 6L68 6L68 7L67 7L67 5L69 5L69 1L68 1L68 4L66 4L66 5L64 5L64 7L63 7L63 5L61 5L61 4L63 4L63 3L64 3L64 4L65 4L65 2L62 2L62 1L60 1L60 3L61 3L61 4L60 4L60 5L57 5L57 4L56 4L56 3L58 3L58 4L59 4L59 3L58 3L58 2L59 2L59 0L58 0L58 1L57 1L57 2L56 2L56 1L55 1L55 0L52 0L52 2L51 2L51 0L47 0L47 3L48 3L48 4L46 4L46 7L45 7L45 6L44 6L44 7L43 7L43 5L44 5L44 4L45 4L45 2L46 2L46 0L45 0L45 1L41 1L41 2L40 2L40 3L39 3L39 4L38 4L38 7L37 7L37 4L36 4L36 2L37 2L37 3L38 3L38 2L39 2L39 0L36 0L36 1L35 1L35 0L34 0L34 1L33 1L33 2L32 2L32 0L31 0L31 1L29 1L29 0L28 0L28 2L27 2L27 1L26 1L26 2L25 2L25 0L23 0L23 1L22 1L22 3L21 3L21 2L20 2L20 1L21 1L21 0L20 0L20 1L17 1L17 0L14 0L14 2L13 2L13 0ZM64 0L64 1L65 1L65 0ZM15 1L15 2L14 2L14 3L13 3L13 2L12 2L12 3L13 3L13 4L14 4L14 5L11 5L11 8L12 8L12 9L11 9L11 10L8 10L8 12L9 12L9 13L8 13L8 14L9 14L9 13L10 13L10 15L11 15L11 12L12 12L12 13L13 13L13 14L12 14L12 15L13 15L13 16L14 16L14 14L17 14L17 15L16 15L16 18L15 18L15 17L14 17L14 18L12 18L12 16L9 16L9 15L8 15L8 16L7 16L7 15L5 15L5 16L7 16L7 17L6 17L6 18L5 18L5 19L6 19L6 20L7 20L7 21L5 21L5 22L3 22L3 23L2 23L2 22L1 22L1 24L2 24L2 25L4 25L4 23L5 23L5 22L7 22L7 23L6 23L6 24L7 24L7 23L8 23L8 22L7 22L7 21L9 21L9 22L10 22L10 24L9 24L9 29L8 29L8 30L9 30L9 31L8 31L8 33L11 33L11 34L7 34L7 33L4 33L4 34L7 34L7 35L6 35L6 36L7 36L7 37L4 37L4 38L5 38L5 40L7 40L7 39L6 39L6 38L7 38L7 37L8 37L8 36L9 36L9 35L11 35L11 34L12 34L12 36L11 36L11 37L12 37L12 36L13 36L13 34L14 34L14 32L13 32L13 31L14 31L14 30L13 30L13 29L17 29L17 28L19 28L19 29L20 29L20 32L19 32L19 31L17 31L17 32L16 32L16 30L15 30L15 33L16 33L16 34L15 34L15 35L16 35L16 36L17 36L17 34L18 34L18 36L21 36L21 35L22 35L22 34L21 34L21 35L20 35L20 33L22 33L22 31L23 31L23 36L22 36L22 37L20 37L20 38L22 38L22 39L19 39L19 42L18 42L18 43L19 43L19 44L18 44L18 45L16 45L16 44L17 44L17 43L16 43L16 44L14 44L14 43L13 43L13 45L14 45L14 46L15 46L15 47L14 47L14 48L15 48L15 49L14 49L14 51L12 51L12 52L14 52L14 53L13 53L13 55L12 55L12 54L11 54L11 55L9 55L9 56L8 56L8 55L6 55L6 56L7 56L7 57L6 57L6 58L5 58L5 55L4 55L4 56L2 56L2 57L3 57L3 58L1 58L1 59L3 59L3 62L2 62L2 61L1 61L1 62L2 62L2 63L3 63L3 62L5 62L5 60L4 60L4 59L3 59L3 58L5 58L5 59L6 59L6 60L8 60L8 62L9 62L9 63L12 63L12 64L14 64L14 63L15 63L15 64L16 64L16 65L19 65L19 67L20 67L20 68L22 68L22 69L23 69L23 68L22 68L22 67L23 67L23 65L24 65L24 66L26 66L26 65L25 65L25 63L26 63L26 64L27 64L27 67L28 67L28 68L29 68L29 71L30 71L30 68L32 68L32 69L31 69L31 73L32 73L32 74L33 74L33 76L34 76L34 73L35 73L35 74L36 74L36 73L37 73L37 69L38 69L38 72L39 72L39 71L40 71L40 72L41 72L41 73L44 73L44 72L45 72L45 73L46 73L46 74L48 74L48 75L47 75L47 76L49 76L49 74L48 74L48 73L46 73L46 72L45 72L45 71L44 71L44 70L46 70L46 69L44 69L44 70L42 70L42 68L41 68L41 67L42 67L42 66L39 66L39 65L37 65L37 66L35 66L35 65L36 65L36 64L37 64L37 63L36 63L36 62L35 62L35 61L37 61L37 60L40 60L40 63L39 63L39 64L40 64L40 63L41 63L41 64L42 64L42 65L43 65L43 67L44 67L44 68L50 68L50 67L51 67L51 69L52 69L52 71L54 71L54 70L55 70L55 72L56 72L56 73L55 73L55 74L57 74L57 73L58 73L58 69L60 69L60 72L59 72L59 73L62 73L62 74L61 74L61 76L62 76L62 75L63 75L63 76L64 76L64 75L65 75L65 74L68 74L68 75L67 75L67 76L68 76L68 75L70 75L70 74L71 74L71 75L72 75L72 76L73 76L73 75L74 75L74 76L75 76L75 75L74 75L74 74L73 74L73 73L68 73L68 72L66 72L66 73L64 73L64 75L63 75L63 73L62 73L62 72L64 72L64 71L65 71L65 70L66 70L66 71L68 71L68 70L66 70L66 69L67 69L67 68L69 68L69 67L68 67L68 64L69 64L69 61L70 61L70 62L71 62L71 61L72 61L72 62L74 62L74 60L71 60L71 59L73 59L73 58L74 58L74 59L75 59L75 60L76 60L76 59L75 59L75 58L74 58L74 57L75 57L75 56L74 56L74 57L72 57L72 58L70 58L70 57L66 57L66 60L64 60L64 59L63 59L63 60L62 60L62 57L61 57L61 54L62 54L62 53L61 53L61 52L66 52L66 53L63 53L63 54L64 54L64 58L65 58L65 56L66 56L66 55L67 55L67 56L68 56L68 55L69 55L69 54L68 54L68 53L69 53L69 51L67 51L67 50L66 50L66 49L68 49L68 48L67 48L67 47L66 47L66 48L65 48L65 47L63 47L63 46L62 46L62 45L61 45L61 44L59 44L59 43L58 43L58 42L60 42L60 43L62 43L62 44L64 44L64 45L65 45L65 46L66 46L66 45L67 45L67 44L69 44L69 43L68 43L68 42L69 42L69 41L71 41L71 39L72 39L72 38L73 38L73 36L72 36L72 33L73 33L73 32L71 32L71 31L72 31L72 30L74 30L74 31L76 31L76 30L75 30L75 29L72 29L72 30L70 30L70 32L69 32L69 33L70 33L70 32L71 32L71 34L69 34L69 36L66 36L66 37L65 37L65 39L63 39L63 38L64 38L64 37L63 37L63 36L64 36L64 35L63 35L63 32L64 32L64 31L65 31L65 32L66 32L66 31L65 31L65 30L64 30L64 31L63 31L63 30L62 30L62 29L64 29L64 28L62 28L62 27L63 27L63 25L62 25L62 22L64 22L64 23L66 23L66 22L65 22L65 21L66 21L66 20L67 20L67 19L68 19L68 20L69 20L69 21L67 21L67 24L68 24L68 23L69 23L69 22L71 22L71 23L72 23L72 21L73 21L73 22L74 22L74 23L73 23L73 24L75 24L75 23L76 23L76 22L74 22L74 21L73 21L73 20L72 20L72 21L70 21L70 20L69 20L69 19L68 19L68 18L66 18L66 19L65 19L65 21L64 21L64 20L63 20L63 17L64 17L64 16L65 16L65 17L69 17L69 14L67 14L67 13L66 13L66 12L65 12L65 11L60 11L60 13L59 13L59 12L58 12L58 11L56 11L56 10L60 10L60 9L59 9L59 7L60 7L60 6L59 6L59 7L58 7L58 6L57 6L57 5L54 5L54 6L53 6L53 7L52 7L52 4L51 4L51 2L50 2L50 3L49 3L49 2L48 2L48 3L49 3L49 4L51 4L51 8L55 8L55 7L56 7L56 8L57 8L57 9L56 9L56 10L55 10L55 9L54 9L54 10L53 10L53 11L51 11L51 9L48 9L48 10L47 10L47 11L44 11L44 12L43 12L43 10L46 10L46 8L45 8L45 9L44 9L44 8L43 8L43 9L42 9L42 8L41 8L41 9L40 9L40 8L39 8L39 7L40 7L40 6L41 6L41 7L42 7L42 6L41 6L41 5L42 5L42 4L44 4L44 3L42 3L42 2L41 2L41 3L42 3L42 4L41 4L41 5L40 5L40 4L39 4L39 7L38 7L38 9L37 9L37 8L36 8L36 5L35 5L35 7L34 7L34 6L33 6L33 5L34 5L34 2L35 2L35 1L34 1L34 2L33 2L33 3L32 3L32 4L31 4L31 3L30 3L30 2L28 2L28 3L27 3L27 4L28 4L28 3L29 3L29 4L30 4L30 5L32 5L32 6L31 6L31 7L30 7L30 6L29 6L29 7L30 7L30 8L31 8L31 9L30 9L30 10L31 10L31 13L32 13L32 16L30 16L30 15L31 15L31 14L30 14L30 15L29 15L29 16L28 16L28 19L27 19L27 17L26 17L26 18L25 18L25 20L23 20L23 19L21 19L21 18L24 18L24 17L22 17L22 16L25 16L25 15L22 15L22 14L20 14L20 15L22 15L22 16L21 16L21 17L20 17L20 16L18 16L18 17L17 17L17 15L19 15L19 13L16 13L16 11L15 11L15 8L16 8L16 9L17 9L17 12L20 12L20 13L21 13L21 12L20 12L20 10L21 10L21 9L22 9L22 8L23 8L23 9L24 9L24 8L23 8L23 7L24 7L24 4L23 4L23 3L24 3L24 2L23 2L23 3L22 3L22 4L20 4L20 2L19 2L19 3L18 3L18 2L17 2L17 1ZM37 1L37 2L38 2L38 1ZM53 1L53 4L55 4L55 1ZM66 1L66 2L67 2L67 1ZM8 3L8 5L9 5L9 3ZM15 3L15 4L16 4L16 5L17 5L17 6L16 6L16 8L17 8L17 9L19 9L19 8L20 8L20 9L21 9L21 8L22 8L22 7L23 7L23 4L22 4L22 7L21 7L21 6L20 6L20 7L19 7L19 6L18 6L18 5L20 5L20 4L18 4L18 3L17 3L17 4L16 4L16 3ZM25 3L25 4L26 4L26 3ZM17 4L17 5L18 5L18 4ZM32 4L32 5L33 5L33 4ZM25 5L25 8L28 8L28 5ZM47 5L47 8L50 8L50 5ZM12 6L12 8L14 8L14 7L15 7L15 6L14 6L14 7L13 7L13 6ZM17 6L17 7L18 7L18 8L19 8L19 7L18 7L18 6ZM26 6L26 7L27 7L27 6ZM32 6L32 7L31 7L31 8L32 8L32 7L33 7L33 8L34 8L34 9L33 9L33 10L32 10L32 9L31 9L31 10L32 10L32 11L33 11L33 13L35 13L35 14L36 14L36 15L34 15L34 16L35 16L35 17L36 17L36 18L35 18L35 19L34 19L34 20L33 20L33 21L32 21L32 19L33 19L33 17L32 17L32 19L28 19L28 20L26 20L26 21L22 21L22 20L21 20L21 21L20 21L20 20L19 20L19 19L20 19L20 17L18 17L18 18L19 18L19 19L17 19L17 18L16 18L16 20L17 20L17 21L16 21L16 22L13 22L13 21L15 21L15 18L14 18L14 19L13 19L13 21L12 21L12 19L11 19L11 24L10 24L10 25L11 25L11 26L13 26L13 25L15 25L15 26L14 26L14 27L12 27L12 28L11 28L11 27L10 27L10 28L11 28L11 29L9 29L9 30L10 30L10 31L9 31L9 32L10 32L10 31L12 31L12 30L11 30L11 29L12 29L12 28L15 28L15 27L17 27L17 25L16 25L16 24L17 24L17 23L16 23L16 22L18 22L18 23L19 23L19 24L20 24L20 26L19 26L19 25L18 25L18 26L19 26L19 28L20 28L20 27L22 27L22 28L21 28L21 30L22 30L22 28L23 28L23 26L21 26L21 25L24 25L24 29L23 29L23 30L24 30L24 29L27 29L27 31L25 31L25 32L24 32L24 34L25 34L25 35L26 35L26 36L27 36L27 34L28 34L28 33L27 33L27 34L26 34L26 33L25 33L25 32L30 32L30 33L31 33L31 34L30 34L30 35L31 35L31 34L32 34L32 37L34 37L34 36L36 36L36 35L35 35L35 34L36 34L36 32L35 32L35 31L37 31L37 32L38 32L38 33L40 33L40 34L39 34L39 36L38 36L38 35L37 35L37 37L38 37L38 38L39 38L39 40L37 40L37 39L36 39L36 37L35 37L35 39L34 39L34 40L31 40L31 39L32 39L32 38L31 38L31 36L29 36L29 35L28 35L28 38L27 38L27 40L25 40L25 39L26 39L26 38L25 38L25 37L22 37L22 38L23 38L23 40L25 40L25 42L27 42L27 43L32 43L32 44L31 44L31 46L29 46L29 44L28 44L28 45L27 45L27 44L26 44L26 45L27 45L27 46L25 46L25 44L24 44L24 43L23 43L23 41L22 41L22 42L20 42L20 43L21 43L21 44L22 44L22 45L23 45L23 47L24 47L24 51L22 51L22 50L23 50L23 49L22 49L22 47L21 47L21 45L20 45L20 46L19 46L19 47L20 47L20 48L21 48L21 49L22 49L22 50L19 50L19 51L20 51L20 52L17 52L17 51L18 51L18 49L19 49L19 48L18 48L18 46L17 46L17 47L15 47L15 48L16 48L16 49L15 49L15 50L16 50L16 52L17 52L17 54L16 54L16 53L15 53L15 54L14 54L14 55L13 55L13 56L15 56L15 57L14 57L14 58L13 58L13 61L16 61L16 62L15 62L15 63L16 63L16 64L17 64L17 63L18 63L18 62L21 62L21 61L20 61L20 60L18 60L18 58L17 58L17 59L16 59L16 58L15 58L15 57L16 57L16 56L17 56L17 57L18 57L18 56L19 56L19 55L20 55L20 56L21 56L21 58L22 58L22 59L21 59L21 60L22 60L22 59L23 59L23 58L22 58L22 57L23 57L23 54L22 54L22 53L23 53L23 52L24 52L24 53L25 53L25 54L24 54L24 55L25 55L25 54L26 54L26 53L25 53L25 51L28 51L28 52L27 52L27 53L28 53L28 54L27 54L27 55L30 55L30 58L31 58L31 59L32 59L32 60L29 60L29 63L30 63L30 65L29 65L29 66L28 66L28 67L30 67L30 66L31 66L31 67L32 67L32 68L34 68L34 70L32 70L32 71L35 71L35 72L36 72L36 71L35 71L35 69L36 69L36 68L38 68L38 69L39 69L39 66L38 66L38 67L36 67L36 68L34 68L34 67L35 67L35 66L33 66L33 65L31 65L31 64L32 64L32 62L34 62L34 61L35 61L35 60L33 60L33 59L34 59L34 58L33 58L33 56L34 56L34 57L35 57L35 56L34 56L34 53L33 53L33 54L32 54L32 53L30 53L30 52L32 52L32 51L30 51L30 50L32 50L32 48L33 48L33 49L34 49L34 50L33 50L33 52L34 52L34 51L36 51L36 50L35 50L35 48L36 48L36 47L37 47L37 45L38 45L38 43L36 43L36 41L35 41L35 42L34 42L34 40L37 40L37 41L40 41L40 44L41 44L41 45L40 45L40 46L38 46L38 48L39 48L39 49L37 49L37 51L38 51L38 52L39 52L39 53L38 53L38 54L40 54L40 56L39 56L39 57L40 57L40 56L41 56L41 57L42 57L42 59L41 59L41 61L43 61L43 63L44 63L44 64L43 64L43 65L44 65L44 66L45 66L45 65L46 65L46 64L47 64L47 65L48 65L48 64L47 64L47 63L44 63L44 62L46 62L46 60L45 60L45 58L46 58L46 59L47 59L47 60L48 60L48 57L49 57L49 55L50 55L50 56L52 56L52 55L54 55L54 56L53 56L53 57L50 57L50 58L49 58L49 59L50 59L50 61L47 61L47 62L48 62L48 63L50 63L50 66L49 66L49 67L50 67L50 66L51 66L51 67L52 67L52 66L53 66L53 67L54 67L54 66L53 66L53 65L52 65L52 64L53 64L53 62L55 62L55 63L58 63L58 60L57 60L57 61L56 61L56 59L59 59L59 61L61 61L61 62L60 62L60 63L64 63L64 62L65 62L65 63L66 63L66 62L65 62L65 61L62 61L62 60L60 60L60 58L61 58L61 57L60 57L60 56L59 56L59 55L60 55L60 54L61 54L61 53L60 53L60 52L61 52L61 51L65 51L65 50L64 50L64 49L63 49L63 48L62 48L62 49L63 49L63 50L60 50L60 49L61 49L61 48L60 48L60 46L57 46L57 45L56 45L56 47L55 47L55 49L54 49L54 50L55 50L55 51L54 51L54 52L55 52L55 54L52 54L52 53L53 53L53 50L52 50L52 48L54 48L54 45L55 45L55 43L56 43L56 44L57 44L57 42L56 42L56 41L55 41L55 40L57 40L57 41L60 41L60 40L61 40L61 39L59 39L59 38L62 38L62 37L61 37L61 34L62 34L62 33L59 33L59 34L57 34L57 32L56 32L56 30L57 30L57 31L58 31L58 30L59 30L59 31L60 31L60 29L61 29L61 27L62 27L62 25L59 25L59 24L60 24L60 22L61 22L61 20L62 20L62 19L61 19L61 18L59 18L59 17L62 17L62 16L63 16L63 15L64 15L64 14L65 14L65 12L63 12L63 14L62 14L62 12L61 12L61 15L60 15L60 16L59 16L59 13L58 13L58 12L56 12L56 11L55 11L55 10L54 10L54 11L53 11L53 13L54 13L54 12L56 12L56 13L55 13L55 14L52 14L52 13L50 13L50 12L49 12L49 13L50 13L50 16L49 16L49 18L48 18L48 19L49 19L49 20L50 20L50 22L48 22L48 23L47 23L47 22L46 22L46 21L47 21L47 20L46 20L46 21L45 21L45 22L44 22L44 23L47 23L47 24L46 24L46 25L45 25L45 24L43 24L43 23L42 23L42 25L43 25L43 26L42 26L42 27L39 27L39 26L38 26L38 27L36 27L36 28L37 28L37 29L35 29L35 27L34 27L34 26L33 26L33 25L35 25L35 23L36 23L36 24L38 24L38 25L39 25L39 24L38 24L38 23L40 23L40 24L41 24L41 23L40 23L40 22L39 22L39 20L40 20L40 21L41 21L41 22L43 22L43 21L44 21L44 20L45 20L45 19L47 19L47 17L48 17L48 15L49 15L49 14L45 14L45 13L43 13L43 14L42 14L42 12L40 12L40 13L41 13L41 14L40 14L40 15L38 15L38 13L37 13L37 12L39 12L39 11L42 11L42 10L40 10L40 9L39 9L39 10L37 10L37 11L36 11L36 10L35 10L35 9L36 9L36 8L34 8L34 7L33 7L33 6ZM48 6L48 7L49 7L49 6ZM54 6L54 7L55 7L55 6ZM56 6L56 7L57 7L57 6ZM61 6L61 7L62 7L62 9L63 9L63 10L64 10L64 8L67 8L67 7L66 7L66 6L65 6L65 7L64 7L64 8L63 8L63 7L62 7L62 6ZM20 7L20 8L21 8L21 7ZM9 8L9 9L10 9L10 8ZM6 9L6 10L7 10L7 9ZM13 9L13 10L12 10L12 11L13 11L13 12L14 12L14 13L15 13L15 11L14 11L14 9ZM25 9L25 10L24 10L24 11L22 11L22 12L24 12L24 11L25 11L25 14L27 14L27 13L26 13L26 12L29 12L29 13L30 13L30 12L29 12L29 9ZM73 9L73 10L74 10L74 11L75 11L75 12L76 12L76 11L75 11L75 10L74 10L74 9ZM26 10L26 11L27 11L27 10ZM33 10L33 11L35 11L35 10ZM48 10L48 11L49 11L49 10ZM5 11L5 12L7 12L7 11ZM9 11L9 12L11 12L11 11ZM1 12L1 13L4 13L4 14L7 14L7 13L4 13L4 12ZM46 12L46 13L48 13L48 12ZM23 13L23 14L24 14L24 13ZM57 13L57 14L56 14L56 16L55 16L55 17L54 17L54 15L52 15L52 16L50 16L50 20L52 20L52 22L54 22L54 21L55 21L55 23L54 23L54 24L53 24L53 23L51 23L51 24L53 24L53 25L54 25L54 26L56 26L56 27L55 27L55 28L54 28L54 27L53 27L53 26L52 26L52 27L51 27L51 29L50 29L50 30L49 30L49 29L48 29L48 31L47 31L47 32L48 32L48 33L46 33L46 35L44 35L44 34L45 34L45 33L44 33L44 32L42 32L42 31L43 31L43 30L42 30L42 31L41 31L41 30L40 30L40 28L39 28L39 27L38 27L38 29L39 29L39 30L38 30L38 32L40 32L40 33L41 33L41 34L40 34L40 35L41 35L41 36L39 36L39 37L40 37L40 38L41 38L41 39L40 39L40 40L41 40L41 41L43 41L43 42L44 42L44 39L45 39L45 45L44 45L44 43L43 43L43 45L44 45L44 46L43 46L43 47L44 47L44 48L43 48L43 49L42 49L42 48L41 48L41 49L42 49L42 51L41 51L41 52L42 52L42 51L43 51L43 53L40 53L40 54L41 54L41 56L42 56L42 57L43 57L43 56L42 56L42 54L43 54L43 53L45 53L45 52L46 52L46 55L47 55L47 54L48 54L48 55L49 55L49 54L50 54L50 55L51 55L51 54L50 54L50 53L51 53L51 52L52 52L52 51L50 51L50 52L47 52L47 51L45 51L45 49L46 49L46 48L45 48L45 47L44 47L44 46L45 46L45 45L46 45L46 42L47 42L47 43L49 43L49 44L47 44L47 46L48 46L48 45L49 45L49 44L54 44L54 42L55 42L55 41L54 41L54 39L55 39L55 37L56 37L56 39L57 39L57 40L59 40L59 39L57 39L57 38L59 38L59 36L58 36L58 35L57 35L57 34L54 34L54 33L56 33L56 32L55 32L55 31L54 31L54 30L55 30L55 29L57 29L57 30L58 30L58 29L57 29L57 28L59 28L59 29L60 29L60 27L61 27L61 26L58 26L58 27L57 27L57 25L58 25L58 22L57 22L57 20L58 20L58 21L59 21L59 22L60 22L60 21L59 21L59 19L56 19L56 20L55 20L55 17L56 17L56 16L57 16L57 18L58 18L58 17L59 17L59 16L58 16L58 15L57 15L57 14L58 14L58 13ZM2 14L2 15L3 15L3 14ZM41 14L41 15L40 15L40 18L41 18L41 20L42 20L42 21L43 21L43 20L42 20L42 17L41 17L41 16L43 16L43 17L44 17L44 18L46 18L46 17L47 17L47 16L46 16L46 15L45 15L45 14L43 14L43 15L42 15L42 14ZM66 14L66 15L67 15L67 14ZM26 15L26 16L27 16L27 15ZM37 15L37 16L36 16L36 17L39 17L39 16L38 16L38 15ZM43 15L43 16L44 16L44 17L45 17L45 15ZM61 15L61 16L62 16L62 15ZM8 16L8 20L10 20L10 19L9 19L9 16ZM29 16L29 17L30 17L30 18L31 18L31 17L30 17L30 16ZM10 17L10 18L11 18L11 17ZM6 18L6 19L7 19L7 18ZM36 18L36 21L37 21L37 22L36 22L36 23L38 23L38 20L37 20L37 18ZM51 18L51 19L54 19L54 18ZM18 20L18 21L19 21L19 20ZM28 20L28 22L29 22L29 23L27 23L27 24L30 24L30 26L31 26L31 25L33 25L33 23L32 23L32 24L30 24L30 23L31 23L31 22L30 22L30 20ZM53 20L53 21L54 21L54 20ZM26 21L26 22L27 22L27 21ZM33 21L33 22L35 22L35 21ZM12 22L12 23L13 23L13 24L12 24L12 25L13 25L13 24L14 24L14 23L13 23L13 22ZM19 22L19 23L21 23L21 24L22 24L22 23L23 23L23 24L25 24L25 22L22 22L22 23L21 23L21 22ZM15 23L15 24L16 24L16 23ZM48 23L48 24L50 24L50 23ZM55 23L55 24L54 24L54 25L56 25L56 23ZM64 24L64 26L65 26L65 24ZM5 25L5 28L8 28L8 25ZM25 25L25 28L28 28L28 25ZM36 25L36 26L37 26L37 25ZM40 25L40 26L41 26L41 25ZM44 25L44 27L45 27L45 25ZM47 25L47 28L50 28L50 25ZM69 25L69 28L72 28L72 25ZM1 26L1 27L2 27L2 26ZM3 26L3 27L4 27L4 26ZM6 26L6 27L7 27L7 26ZM26 26L26 27L27 27L27 26ZM32 26L32 27L30 27L30 28L29 28L29 30L30 30L30 31L32 31L32 32L31 32L31 33L32 33L32 34L35 34L35 32L34 32L34 33L32 33L32 32L33 32L33 31L34 31L34 30L35 30L35 29L34 29L34 28L33 28L33 26ZM48 26L48 27L49 27L49 26ZM67 26L67 27L68 27L68 26ZM70 26L70 27L71 27L71 26ZM73 26L73 27L74 27L74 26ZM76 26L76 27L77 27L77 26ZM56 27L56 28L57 28L57 27ZM65 27L65 29L66 29L66 27ZM1 28L1 30L2 30L2 28ZM30 28L30 29L31 29L31 30L33 30L33 29L31 29L31 28ZM41 28L41 29L42 29L42 28ZM44 28L44 29L45 29L45 31L46 31L46 30L47 30L47 29L46 29L46 28ZM52 28L52 29L51 29L51 31L52 31L52 30L54 30L54 28ZM6 29L6 30L7 30L7 29ZM67 29L67 34L66 34L66 35L67 35L67 34L68 34L68 30L69 30L69 29ZM39 30L39 31L40 31L40 30ZM61 30L61 32L63 32L63 31L62 31L62 30ZM6 31L6 32L7 32L7 31ZM48 31L48 32L49 32L49 37L51 37L51 40L53 40L53 37L54 37L54 34L53 34L53 37L52 37L52 36L51 36L51 35L52 35L52 34L50 34L50 33L54 33L54 32L50 32L50 31ZM12 32L12 34L13 34L13 32ZM18 32L18 33L19 33L19 32ZM64 33L64 34L65 34L65 33ZM47 34L47 35L46 35L46 36L44 36L44 35L42 35L42 36L41 36L41 37L42 37L42 39L41 39L41 40L43 40L43 38L44 38L44 37L47 37L47 36L48 36L48 34ZM33 35L33 36L34 36L34 35ZM55 35L55 36L56 36L56 37L58 37L58 36L57 36L57 35ZM62 35L62 36L63 36L63 35ZM70 36L70 37L71 37L71 38L72 38L72 37L71 37L71 36ZM74 36L74 37L75 37L75 36ZM17 37L17 39L18 39L18 38L19 38L19 37ZM29 37L29 39L28 39L28 40L27 40L27 42L28 42L28 40L30 40L30 37ZM66 37L66 38L67 38L67 39L66 39L66 41L67 41L67 39L69 39L69 40L68 40L68 41L69 41L69 40L70 40L70 39L69 39L69 37ZM46 38L46 41L47 41L47 42L49 42L49 43L52 43L52 42L53 42L53 41L52 41L52 42L51 42L51 41L50 41L50 42L49 42L49 40L48 40L48 39L47 39L47 38ZM49 38L49 39L50 39L50 38ZM62 39L62 40L63 40L63 41L62 41L62 43L64 43L64 44L65 44L65 43L66 43L66 42L65 42L65 43L64 43L64 41L65 41L65 40L63 40L63 39ZM73 39L73 40L74 40L74 39ZM20 40L20 41L21 41L21 40ZM47 40L47 41L48 41L48 40ZM30 41L30 42L31 42L31 41ZM32 41L32 42L33 42L33 46L34 46L34 48L35 48L35 47L36 47L36 46L34 46L34 45L35 45L35 44L36 44L36 43L34 43L34 42L33 42L33 41ZM73 41L73 44L70 44L70 45L71 45L71 46L73 46L73 45L75 45L75 42L76 42L76 41ZM71 42L71 43L72 43L72 42ZM5 43L5 45L6 45L6 46L8 46L8 45L9 45L9 48L10 48L10 49L9 49L9 53L8 53L8 54L9 54L9 53L11 53L11 51L10 51L10 50L12 50L12 48L13 48L13 46L11 46L11 45L10 45L10 44L8 44L8 43ZM0 44L0 45L1 45L1 44ZM6 44L6 45L8 45L8 44ZM58 44L58 45L59 45L59 44ZM15 45L15 46L16 46L16 45ZM51 45L51 46L52 46L52 47L51 47L51 48L52 48L52 47L53 47L53 45ZM10 46L10 47L11 47L11 46ZM40 46L40 47L39 47L39 48L40 48L40 47L42 47L42 46ZM5 47L5 50L8 50L8 47ZM25 47L25 50L28 50L28 47ZM29 47L29 49L31 49L31 48L30 48L30 47ZM47 47L47 50L50 50L50 47ZM56 47L56 49L55 49L55 50L58 50L58 51L55 51L55 52L56 52L56 54L57 54L57 53L58 53L58 55L55 55L55 57L53 57L53 58L55 58L55 59L56 59L56 58L58 58L58 57L59 57L59 56L58 56L58 55L59 55L59 54L60 54L60 53L59 53L59 52L60 52L60 50L58 50L58 49L60 49L60 48L58 48L58 47ZM69 47L69 50L72 50L72 47ZM2 48L2 50L4 50L4 49L3 49L3 48ZM6 48L6 49L7 49L7 48ZM17 48L17 49L16 49L16 50L17 50L17 49L18 49L18 48ZM26 48L26 49L27 49L27 48ZM44 48L44 49L43 49L43 50L44 50L44 49L45 49L45 48ZM48 48L48 49L49 49L49 48ZM70 48L70 49L71 49L71 48ZM39 49L39 52L40 52L40 49ZM73 49L73 50L74 50L74 49ZM1 51L1 52L3 52L3 53L4 53L4 54L7 54L7 53L6 53L6 52L8 52L8 51L4 51L4 52L3 52L3 51ZM70 51L70 52L71 52L71 51ZM73 51L73 52L72 52L72 53L73 53L73 52L74 52L74 51ZM76 51L76 52L77 52L77 51ZM4 52L4 53L5 53L5 52ZM36 52L36 53L35 53L35 54L37 54L37 52ZM19 53L19 54L21 54L21 56L22 56L22 54L21 54L21 53ZM29 53L29 54L30 54L30 53ZM48 53L48 54L49 54L49 53ZM66 53L66 54L67 54L67 53ZM1 54L1 55L2 55L2 54ZM15 54L15 55L16 55L16 54ZM17 54L17 56L18 56L18 54ZM31 54L31 58L32 58L32 56L33 56L33 55L32 55L32 54ZM71 54L71 55L74 55L74 54ZM11 55L11 56L12 56L12 55ZM37 55L37 56L36 56L36 57L37 57L37 58L36 58L36 59L39 59L39 58L38 58L38 57L37 57L37 56L38 56L38 55ZM44 55L44 56L45 56L45 55ZM62 55L62 56L63 56L63 55ZM9 56L9 57L10 57L10 58L8 58L8 57L7 57L7 58L6 58L6 59L10 59L10 60L11 60L11 61L12 61L12 59L10 59L10 58L12 58L12 57L10 57L10 56ZM24 56L24 57L25 57L25 59L24 59L24 60L25 60L25 61L26 61L26 60L27 60L27 61L28 61L28 59L29 59L29 57L28 57L28 56L26 56L26 57L25 57L25 56ZM47 56L47 57L48 57L48 56ZM19 57L19 58L20 58L20 57ZM27 57L27 58L26 58L26 59L27 59L27 58L28 58L28 57ZM44 57L44 58L43 58L43 60L44 60L44 61L45 61L45 60L44 60L44 58L45 58L45 57ZM55 57L55 58L56 58L56 57ZM50 58L50 59L51 59L51 61L52 61L52 62L53 62L53 59L51 59L51 58ZM67 58L67 59L68 59L68 60L66 60L66 61L69 61L69 60L70 60L70 58ZM32 60L32 61L33 61L33 60ZM54 60L54 61L55 61L55 62L56 62L56 61L55 61L55 60ZM6 61L6 62L7 62L7 61ZM9 61L9 62L10 62L10 61ZM17 61L17 62L18 62L18 61ZM22 61L22 63L19 63L19 65L20 65L20 66L21 66L21 67L22 67L22 65L23 65L23 61ZM38 61L38 62L39 62L39 61ZM12 62L12 63L14 63L14 62ZM26 62L26 63L27 63L27 64L28 64L28 62ZM30 62L30 63L31 63L31 62ZM34 63L34 64L35 64L35 63ZM51 63L51 64L52 64L52 63ZM67 63L67 64L68 64L68 63ZM70 63L70 65L69 65L69 66L72 66L72 67L74 67L74 66L72 66L72 63ZM2 64L2 65L1 65L1 66L2 66L2 65L3 65L3 64ZM20 64L20 65L22 65L22 64ZM44 64L44 65L45 65L45 64ZM54 64L54 65L55 65L55 68L57 68L57 69L58 69L58 68L62 68L62 67L64 67L64 68L63 68L63 69L65 69L65 67L64 67L64 66L65 66L65 64L64 64L64 65L63 65L63 66L62 66L62 64L61 64L61 67L60 67L60 66L57 66L57 64L56 64L56 65L55 65L55 64ZM59 64L59 65L60 65L60 64ZM12 65L12 66L13 66L13 67L14 67L14 66L15 66L15 65L14 65L14 66L13 66L13 65ZM66 65L66 66L67 66L67 65ZM16 66L16 67L17 67L17 66ZM46 66L46 67L48 67L48 66ZM56 66L56 67L57 67L57 68L58 68L58 67L57 67L57 66ZM24 67L24 68L26 68L26 67ZM66 67L66 68L67 68L67 67ZM75 67L75 68L74 68L74 69L73 69L73 71L76 71L76 70L74 70L74 69L75 69L75 68L76 68L76 67ZM6 68L6 69L8 69L8 70L9 70L9 71L8 71L8 74L9 74L9 72L10 72L10 75L8 75L8 76L9 76L9 77L12 77L12 75L14 75L14 73L13 73L13 72L14 72L14 71L16 71L16 73L17 73L17 75L15 75L15 77L18 77L18 76L17 76L17 75L18 75L18 74L20 74L20 75L19 75L19 77L21 77L21 74L20 74L20 73L21 73L21 72L23 72L23 71L21 71L21 72L20 72L20 71L16 71L16 70L14 70L14 69L11 69L11 71L10 71L10 69L9 69L9 68ZM53 68L53 69L54 69L54 68ZM25 69L25 72L28 72L28 69ZM40 69L40 71L41 71L41 72L44 72L44 71L42 71L42 70L41 70L41 69ZM47 69L47 72L50 72L50 69ZM69 69L69 72L72 72L72 69ZM13 70L13 71L14 71L14 70ZM26 70L26 71L27 71L27 70ZM48 70L48 71L49 71L49 70ZM61 70L61 71L62 71L62 70ZM63 70L63 71L64 71L64 70ZM70 70L70 71L71 71L71 70ZM56 71L56 72L57 72L57 71ZM17 72L17 73L18 73L18 72ZM33 72L33 73L34 73L34 72ZM52 72L52 73L53 73L53 76L54 76L54 72ZM74 72L74 73L75 73L75 72ZM25 73L25 74L26 74L26 75L27 75L27 74L28 74L28 73ZM72 74L72 75L73 75L73 74ZM10 75L10 76L11 76L11 75ZM50 75L50 76L51 76L51 75ZM13 76L13 77L14 77L14 76ZM22 76L22 77L24 77L24 76ZM56 76L56 77L57 77L57 76ZM0 0L0 7L7 7L7 0ZM1 1L1 6L6 6L6 1ZM2 2L2 5L5 5L5 2ZM70 0L70 7L77 7L77 0ZM71 1L71 6L76 6L76 1ZM72 2L72 5L75 5L75 2ZM0 70L0 77L7 77L7 70ZM1 71L1 76L6 76L6 71ZM2 72L2 75L5 75L5 72Z" fill="#000000"/></g></g></svg>
