<?xml version="1.0" encoding="UTF-8"?>
<svg xmlns="http://www.w3.org/2000/svg" version="1.1" width="400" height="400" viewBox="0 0 400 400"><rect x="0" y="0" width="400" height="400" fill="#fefefe"/><g transform="scale(6.557)"><g transform="translate(4,4)"><path fill-rule="evenodd" d="M11 0L11 1L12 1L12 3L10 3L10 1L8 1L8 2L9 2L9 3L8 3L8 4L9 4L9 3L10 3L10 4L11 4L11 5L10 5L10 7L11 7L11 6L12 6L12 7L13 7L13 8L14 8L14 7L15 7L15 6L14 6L14 7L13 7L13 6L12 6L12 5L13 5L13 4L14 4L14 5L15 5L15 4L19 4L19 5L18 5L18 7L19 7L19 8L17 8L17 11L18 11L18 9L22 9L22 10L23 10L23 9L24 9L24 10L25 10L25 9L28 9L28 10L31 10L31 12L33 12L33 11L35 11L35 12L36 12L36 13L37 13L37 14L36 14L36 15L37 15L37 16L35 16L35 14L34 14L34 13L32 13L32 15L30 15L30 14L31 14L31 13L30 13L30 14L29 14L29 12L27 12L27 13L28 13L28 14L27 14L27 16L26 16L26 14L25 14L25 12L26 12L26 11L27 11L27 10L26 10L26 11L22 11L22 12L20 12L20 13L19 13L19 12L16 12L16 11L15 11L15 10L16 10L16 9L15 9L15 10L14 10L14 9L12 9L12 10L13 10L13 11L15 11L15 12L16 12L16 13L17 13L17 14L15 14L15 13L14 13L14 14L13 14L13 12L11 12L11 11L10 11L10 8L6 8L6 9L7 9L7 10L5 10L5 11L4 11L4 12L3 12L3 13L4 13L4 14L5 14L5 13L8 13L8 14L6 14L6 15L3 15L3 17L2 17L2 14L0 14L0 16L1 16L1 17L0 17L0 19L1 19L1 20L2 20L2 21L3 21L3 22L4 22L4 20L6 20L6 21L7 21L7 22L6 22L6 23L5 23L5 24L4 24L4 23L3 23L3 24L2 24L2 22L1 22L1 24L0 24L0 28L1 28L1 30L0 30L0 33L2 33L2 36L1 36L1 35L0 35L0 37L2 37L2 36L3 36L3 37L5 37L5 39L7 39L7 38L8 38L8 39L9 39L9 40L11 40L11 39L12 39L12 40L14 40L14 39L13 39L13 38L15 38L15 40L16 40L16 39L18 39L18 37L19 37L19 38L20 38L20 39L21 39L21 40L19 40L19 41L18 41L18 40L17 40L17 41L18 41L18 42L19 42L19 43L17 43L17 44L16 44L16 43L15 43L15 42L16 42L16 41L15 41L15 42L14 42L14 41L13 41L13 43L12 43L12 42L10 42L10 41L9 41L9 42L10 42L10 44L11 44L11 45L12 45L12 44L13 44L13 45L14 45L14 44L15 44L15 46L12 46L12 47L11 47L11 46L10 46L10 45L9 45L9 43L8 43L8 42L5 42L5 41L7 41L7 40L4 40L4 38L3 38L3 41L2 41L2 42L0 42L0 43L1 43L1 44L3 44L3 45L4 45L4 44L3 44L3 43L7 43L7 44L6 44L6 45L8 45L8 47L9 47L9 46L10 46L10 48L11 48L11 50L10 50L10 49L9 49L9 48L8 48L8 53L10 53L10 52L11 52L11 53L13 53L13 52L12 52L12 51L13 51L13 49L12 49L12 48L13 48L13 47L14 47L14 49L16 49L16 50L14 50L14 51L16 51L16 52L14 52L14 53L19 53L19 52L20 52L20 53L22 53L22 52L23 52L23 53L25 53L25 52L26 52L26 53L27 53L27 52L29 52L29 50L32 50L32 48L33 48L33 49L34 49L34 47L40 47L40 48L42 48L42 49L41 49L41 50L45 50L45 49L46 49L46 50L47 50L47 49L49 49L49 50L48 50L48 51L47 51L47 52L45 52L45 53L51 53L51 52L52 52L52 51L53 51L53 50L52 50L52 51L51 51L51 49L52 49L52 47L51 47L51 48L50 48L50 46L53 46L53 45L51 45L51 44L53 44L53 43L51 43L51 44L50 44L50 42L51 42L51 41L52 41L52 42L53 42L53 41L52 41L52 40L50 40L50 38L49 38L49 37L48 37L48 35L46 35L46 34L45 34L45 35L46 35L46 36L45 36L45 37L48 37L48 38L49 38L49 39L48 39L48 40L50 40L50 41L47 41L47 43L46 43L46 40L47 40L47 39L45 39L45 38L44 38L44 37L40 37L40 38L38 38L38 37L37 37L37 36L38 36L38 35L40 35L40 36L41 36L41 35L40 35L40 34L38 34L38 35L37 35L37 36L36 36L36 34L37 34L37 32L35 32L35 30L34 30L34 27L37 27L37 28L36 28L36 29L37 29L37 30L38 30L38 33L39 33L39 30L40 30L40 29L39 29L39 27L40 27L40 28L41 28L41 27L40 27L40 26L41 26L41 25L39 25L39 24L38 24L38 25L39 25L39 26L37 26L37 24L36 24L36 23L38 23L38 21L39 21L39 23L40 23L40 24L41 24L41 23L40 23L40 22L41 22L41 21L39 21L39 20L42 20L42 22L43 22L43 21L45 21L45 22L44 22L44 23L42 23L42 24L44 24L44 26L43 26L43 25L42 25L42 26L43 26L43 27L42 27L42 28L43 28L43 27L44 27L44 29L46 29L46 30L47 30L47 29L48 29L48 30L50 30L50 31L49 31L49 32L50 32L50 33L51 33L51 35L52 35L52 36L50 36L50 34L49 34L49 33L48 33L48 32L47 32L47 31L45 31L45 33L46 33L46 32L47 32L47 34L49 34L49 36L50 36L50 37L52 37L52 38L53 38L53 35L52 35L52 34L53 34L53 32L50 32L50 31L51 31L51 30L53 30L53 29L52 29L52 28L53 28L53 27L51 27L51 26L53 26L53 24L52 24L52 25L51 25L51 24L50 24L50 23L49 23L49 22L53 22L53 21L50 21L50 19L49 19L49 18L50 18L50 17L51 17L51 16L50 16L50 15L49 15L49 14L53 14L53 13L51 13L51 12L50 12L50 11L51 11L51 10L53 10L53 9L52 9L52 8L51 8L51 9L50 9L50 8L49 8L49 10L50 10L50 11L49 11L49 12L48 12L48 11L47 11L47 10L48 10L48 8L47 8L47 10L45 10L45 12L43 12L43 11L44 11L44 9L46 9L46 8L43 8L43 3L44 3L44 4L45 4L45 3L44 3L44 1L43 1L43 0L42 0L42 2L43 2L43 3L42 3L42 4L41 4L41 5L42 5L42 8L41 8L41 6L40 6L40 7L39 7L39 5L40 5L40 4L39 4L39 5L38 5L38 3L41 3L41 2L39 2L39 1L38 1L38 0L35 0L35 1L33 1L33 0L27 0L27 1L26 1L26 2L25 2L25 0L24 0L24 1L23 1L23 0L21 0L21 3L20 3L20 2L19 2L19 1L17 1L17 0L16 0L16 1L13 1L13 0ZM28 1L28 2L29 2L29 1ZM30 1L30 2L31 2L31 1ZM35 1L35 2L34 2L34 3L35 3L35 4L34 4L34 5L33 5L33 3L31 3L31 4L32 4L32 5L30 5L30 4L29 4L29 5L30 5L30 6L29 6L29 9L31 9L31 10L32 10L32 11L33 11L33 10L35 10L35 11L36 11L36 12L37 12L37 11L36 11L36 10L37 10L37 9L38 9L38 10L39 10L39 13L38 13L38 14L37 14L37 15L38 15L38 16L37 16L37 17L35 17L35 16L34 16L34 15L33 15L33 16L32 16L32 17L31 17L31 18L26 18L26 20L25 20L25 21L26 21L26 22L24 22L24 21L23 21L23 20L22 20L22 19L23 19L23 18L24 18L24 19L25 19L25 18L24 18L24 17L25 17L25 16L24 16L24 15L25 15L25 14L24 14L24 15L23 15L23 16L22 16L22 17L23 17L23 18L21 18L21 17L19 17L19 18L20 18L20 19L21 19L21 20L22 20L22 21L20 21L20 23L19 23L19 22L18 22L18 23L16 23L16 24L15 24L15 22L17 22L17 21L15 21L15 20L16 20L16 19L15 19L15 18L16 18L16 17L17 17L17 18L18 18L18 16L17 16L17 15L15 15L15 16L16 16L16 17L13 17L13 16L14 16L14 15L11 15L11 16L12 16L12 18L10 18L10 16L9 16L9 17L8 17L8 18L10 18L10 19L9 19L9 20L7 20L7 19L6 19L6 18L7 18L7 17L5 17L5 16L4 16L4 17L3 17L3 18L2 18L2 17L1 17L1 18L2 18L2 20L4 20L4 19L6 19L6 20L7 20L7 21L12 21L12 18L13 18L13 22L12 22L12 23L14 23L14 24L13 24L13 25L14 25L14 26L15 26L15 27L13 27L13 26L12 26L12 24L11 24L11 22L7 22L7 23L6 23L6 24L7 24L7 23L8 23L8 24L9 24L9 23L10 23L10 24L11 24L11 25L10 25L10 26L9 26L9 27L10 27L10 29L11 29L11 27L13 27L13 28L12 28L12 30L10 30L10 31L5 31L5 30L8 30L8 29L5 29L5 30L4 30L4 28L3 28L3 29L2 29L2 30L3 30L3 31L1 31L1 32L3 32L3 34L4 34L4 32L7 32L7 33L6 33L6 34L5 34L5 37L6 37L6 38L7 38L7 37L6 37L6 36L8 36L8 35L9 35L9 36L10 36L10 35L9 35L9 32L10 32L10 33L11 33L11 32L12 32L12 33L13 33L13 34L11 34L11 35L13 35L13 36L14 36L14 37L16 37L16 38L17 38L17 37L16 37L16 35L15 35L15 34L16 34L16 33L18 33L18 32L16 32L16 33L13 33L13 32L14 32L14 31L13 31L13 30L14 30L14 29L15 29L15 27L16 27L16 28L17 28L17 26L18 26L18 28L19 28L19 29L18 29L18 30L17 30L17 29L16 29L16 30L17 30L17 31L18 31L18 30L19 30L19 32L21 32L21 30L22 30L22 31L23 31L23 32L22 32L22 33L19 33L19 36L21 36L21 34L22 34L22 37L20 37L20 38L22 38L22 41L19 41L19 42L20 42L20 43L21 43L21 44L22 44L22 45L23 45L23 44L24 44L24 43L25 43L25 42L29 42L29 43L27 43L27 44L29 44L29 47L31 47L31 46L32 46L32 47L34 47L34 46L35 46L35 45L36 45L36 44L38 44L38 46L41 46L41 47L43 47L43 48L44 48L44 46L41 46L41 44L40 44L40 43L44 43L44 42L45 42L45 39L44 39L44 38L40 38L40 39L41 39L41 40L39 40L39 39L38 39L38 38L37 38L37 37L36 37L36 36L35 36L35 35L33 35L33 36L30 36L30 35L31 35L31 34L30 34L30 35L26 35L26 34L27 34L27 32L28 32L28 33L29 33L29 31L31 31L31 32L32 32L32 34L33 34L33 32L34 32L34 34L35 34L35 32L34 32L34 30L33 30L33 28L29 28L29 29L27 29L27 32L26 32L26 34L25 34L25 33L24 33L24 32L25 32L25 31L24 31L24 30L26 30L26 29L24 29L24 27L23 27L23 26L22 26L22 25L23 25L23 24L24 24L24 23L26 23L26 24L29 24L29 25L31 25L31 24L32 24L32 27L33 27L33 24L32 24L32 23L34 23L34 24L35 24L35 23L36 23L36 22L37 22L37 21L38 21L38 20L37 20L37 19L38 19L38 18L39 18L39 19L42 19L42 20L45 20L45 19L46 19L46 20L47 20L47 21L46 21L46 22L45 22L45 23L46 23L46 24L49 24L49 25L50 25L50 24L49 24L49 23L46 23L46 22L48 22L48 20L49 20L49 19L48 19L48 18L49 18L49 17L50 17L50 16L49 16L49 17L47 17L47 16L48 16L48 14L49 14L49 13L48 13L48 12L47 12L47 13L46 13L46 14L47 14L47 15L46 15L46 16L45 16L45 13L43 13L43 12L42 12L42 11L43 11L43 10L41 10L41 8L39 8L39 9L38 9L38 8L37 8L37 7L38 7L38 5L37 5L37 7L36 7L36 3L38 3L38 1ZM13 2L13 3L14 3L14 4L15 4L15 3L16 3L16 2ZM22 2L22 4L20 4L20 3L19 3L19 4L20 4L20 6L19 6L19 7L20 7L20 6L21 6L21 7L22 7L22 6L23 6L23 7L24 7L24 4L26 4L26 3L27 3L27 2L26 2L26 3L24 3L24 4L23 4L23 2ZM35 2L35 3L36 3L36 2ZM22 4L22 5L21 5L21 6L22 6L22 5L23 5L23 4ZM8 5L8 7L9 7L9 5ZM25 5L25 8L28 8L28 5ZM34 5L34 7L33 7L33 6L32 6L32 7L31 7L31 6L30 6L30 8L31 8L31 9L32 9L32 7L33 7L33 8L34 8L34 7L35 7L35 5ZM16 6L16 7L17 7L17 6ZM26 6L26 7L27 7L27 6ZM44 6L44 7L45 7L45 6ZM0 8L0 9L3 9L3 10L2 10L2 11L0 11L0 13L2 13L2 11L3 11L3 10L4 10L4 9L5 9L5 8ZM22 8L22 9L23 9L23 8ZM35 8L35 10L36 10L36 9L37 9L37 8ZM42 8L42 9L43 9L43 8ZM40 10L40 12L41 12L41 10ZM5 11L5 12L7 12L7 11ZM9 12L9 13L10 13L10 12ZM22 12L22 13L20 13L20 15L19 15L19 13L18 13L18 15L19 15L19 16L20 16L20 15L21 15L21 14L22 14L22 13L24 13L24 12ZM42 13L42 14L43 14L43 13ZM8 14L8 15L9 15L9 14ZM28 14L28 15L29 15L29 14ZM38 14L38 15L39 15L39 16L41 16L41 17L42 17L42 18L43 18L43 19L45 19L45 18L44 18L44 17L45 17L45 16L44 16L44 17L43 17L43 15L40 15L40 14ZM6 15L6 16L7 16L7 15ZM23 16L23 17L24 17L24 16ZM28 16L28 17L29 17L29 16ZM33 16L33 17L32 17L32 18L31 18L31 19L29 19L29 20L30 20L30 22L29 22L29 21L28 21L28 19L27 19L27 23L28 23L28 22L29 22L29 24L31 24L31 23L30 23L30 22L34 22L34 23L35 23L35 22L34 22L34 21L31 21L31 20L33 20L33 19L34 19L34 20L36 20L36 21L37 21L37 20L36 20L36 19L37 19L37 18L36 18L36 19L35 19L35 18L34 18L34 16ZM4 17L4 18L5 18L5 17ZM39 17L39 18L40 18L40 17ZM52 17L52 18L53 18L53 17ZM46 18L46 19L47 19L47 18ZM14 19L14 20L15 20L15 19ZM17 19L17 20L18 20L18 19ZM51 19L51 20L53 20L53 19ZM14 21L14 22L15 22L15 21ZM22 21L22 22L21 22L21 24L20 24L20 25L22 25L22 24L23 24L23 23L24 23L24 22L23 22L23 21ZM22 22L22 23L23 23L23 22ZM3 24L3 26L2 26L2 27L4 27L4 24ZM17 24L17 25L18 25L18 26L19 26L19 28L20 28L20 29L19 29L19 30L20 30L20 29L22 29L22 30L24 30L24 29L22 29L22 28L20 28L20 27L22 27L22 26L19 26L19 25L18 25L18 24ZM5 25L5 28L8 28L8 25ZM15 25L15 26L16 26L16 25ZM25 25L25 28L28 28L28 25ZM34 25L34 26L35 26L35 25ZM45 25L45 28L48 28L48 25ZM6 26L6 27L7 27L7 26ZM26 26L26 27L27 27L27 26ZM29 26L29 27L31 27L31 26ZM46 26L46 27L47 27L47 26ZM50 27L50 28L49 28L49 29L50 29L50 28L51 28L51 27ZM30 29L30 30L32 30L32 29ZM38 29L38 30L39 30L39 29ZM41 29L41 31L40 31L40 32L42 32L42 34L43 34L43 32L44 32L44 31L43 31L43 32L42 32L42 30L43 30L43 29ZM28 30L28 31L29 31L29 30ZM3 31L3 32L4 32L4 31ZM10 31L10 32L11 32L11 31ZM12 31L12 32L13 32L13 31ZM32 31L32 32L33 32L33 31ZM7 33L7 34L6 34L6 35L8 35L8 33ZM22 33L22 34L23 34L23 33ZM24 34L24 35L23 35L23 37L22 37L22 38L24 38L24 37L26 37L26 38L28 38L28 39L29 39L29 38L28 38L28 37L29 37L29 36L28 36L28 37L26 37L26 35L25 35L25 34ZM3 35L3 36L4 36L4 35ZM14 35L14 36L15 36L15 35ZM17 35L17 36L18 36L18 35ZM24 35L24 36L25 36L25 35ZM42 35L42 36L44 36L44 35ZM11 36L11 38L13 38L13 37L12 37L12 36ZM33 36L33 39L32 39L32 40L31 40L31 39L30 39L30 40L31 40L31 41L29 41L29 42L32 42L32 44L33 44L33 42L32 42L32 40L33 40L33 41L35 41L35 42L34 42L34 44L35 44L35 43L36 43L36 42L38 42L38 43L40 43L40 41L39 41L39 40L38 40L38 41L37 41L37 40L34 40L34 39L35 39L35 38L34 38L34 37L35 37L35 36ZM8 37L8 38L10 38L10 37ZM30 37L30 38L31 38L31 37ZM0 38L0 39L2 39L2 38ZM36 38L36 39L37 39L37 38ZM23 39L23 41L22 41L22 42L21 42L21 43L23 43L23 41L26 41L26 40L27 40L27 39L26 39L26 40L24 40L24 39ZM42 39L42 40L44 40L44 39ZM0 40L0 41L1 41L1 40ZM38 41L38 42L39 42L39 41ZM41 41L41 42L43 42L43 41ZM2 42L2 43L3 43L3 42ZM29 43L29 44L30 44L30 46L31 46L31 44L30 44L30 43ZM45 43L45 44L46 44L46 43ZM19 44L19 45L18 45L18 46L17 46L17 45L16 45L16 46L15 46L15 48L16 48L16 49L18 49L18 48L17 48L17 47L18 47L18 46L19 46L19 47L21 47L21 45L20 45L20 44ZM43 44L43 45L44 45L44 44ZM49 44L49 45L50 45L50 44ZM25 45L25 48L28 48L28 45ZM33 45L33 46L34 46L34 45ZM45 45L45 48L48 48L48 45ZM22 46L22 47L24 47L24 46ZM26 46L26 47L27 47L27 46ZM46 46L46 47L47 47L47 46ZM19 48L19 50L20 50L20 52L21 52L21 50L22 50L22 51L23 51L23 52L24 52L24 51L26 51L26 50L27 50L27 51L28 51L28 50L27 50L27 49L26 49L26 50L25 50L25 49L24 49L24 48L22 48L22 49L20 49L20 48ZM35 48L35 50L33 50L33 51L30 51L30 52L33 52L33 53L34 53L34 51L36 51L36 49L37 49L37 50L38 50L38 51L37 51L37 52L35 52L35 53L37 53L37 52L38 52L38 51L39 51L39 52L41 52L41 53L42 53L42 52L43 52L43 51L39 51L39 50L38 50L38 49L39 49L39 48ZM49 48L49 49L50 49L50 48ZM22 49L22 50L23 50L23 51L24 51L24 50L23 50L23 49ZM9 50L9 52L10 52L10 50ZM11 50L11 51L12 51L12 50ZM17 50L17 52L18 52L18 50ZM50 51L50 52L51 52L51 51ZM0 0L0 7L7 7L7 0ZM1 1L1 6L6 6L6 1ZM2 2L2 5L5 5L5 2ZM46 0L46 7L53 7L53 0ZM47 1L47 6L52 6L52 1ZM48 2L48 5L51 5L51 2ZM0 46L0 53L7 53L7 46ZM1 47L1 52L6 52L6 47ZM2 48L2 51L5 51L5 48Z" fill="#000000"/></g></g></svg>
