<?xml version="1.0" encoding="UTF-8"?>
<svg xmlns="http://www.w3.org/2000/svg" version="1.1" width="400" height="400" viewBox="0 0 400 400"><rect x="0" y="0" width="400" height="400" fill="#fefefe"/><g transform="scale(6.557)"><g transform="translate(4,4)"><path fill-rule="evenodd" d="M8 0L8 4L9 4L9 5L8 5L8 7L9 7L9 8L10 8L10 9L11 9L11 10L9 10L9 9L7 9L7 8L4 8L4 9L2 9L2 8L0 8L0 9L1 9L1 10L0 10L0 14L1 14L1 15L0 15L0 17L1 17L1 18L0 18L0 21L1 21L1 22L0 22L0 25L1 25L1 22L2 22L2 24L3 24L3 22L4 22L4 21L7 21L7 22L5 22L5 23L4 23L4 26L3 26L3 25L2 25L2 26L1 26L1 27L0 27L0 28L1 28L1 27L2 27L2 29L1 29L1 30L0 30L0 31L1 31L1 32L0 32L0 33L1 33L1 34L2 34L2 35L0 35L0 38L1 38L1 39L2 39L2 41L0 41L0 43L1 43L1 44L3 44L3 45L4 45L4 44L3 44L3 43L8 43L8 44L6 44L6 45L8 45L8 46L10 46L10 47L8 47L8 49L9 49L9 51L8 51L8 53L10 53L10 50L11 50L11 52L12 52L12 53L19 53L19 52L18 52L18 51L17 51L17 52L15 52L15 51L16 51L16 50L22 50L22 52L23 52L23 53L26 53L26 52L24 52L24 51L25 51L25 49L26 49L26 51L27 51L27 52L28 52L28 51L29 51L29 52L30 52L30 51L31 51L31 50L34 50L34 49L35 49L35 48L36 48L36 49L37 49L37 50L35 50L35 51L34 51L34 53L40 53L40 51L39 51L39 49L38 49L38 48L37 48L37 47L36 47L36 46L37 46L37 44L39 44L39 45L38 45L38 47L39 47L39 48L40 48L40 47L41 47L41 48L42 48L42 47L43 47L43 46L44 46L44 48L43 48L43 49L42 49L42 50L41 50L41 52L42 52L42 51L43 51L43 53L45 53L45 52L46 52L46 53L50 53L50 50L52 50L52 49L53 49L53 41L51 41L51 42L49 42L49 41L50 41L50 38L52 38L52 39L51 39L51 40L52 40L52 39L53 39L53 36L52 36L52 37L51 37L51 36L50 36L50 35L49 35L49 33L50 33L50 34L51 34L51 35L53 35L53 33L52 33L52 34L51 34L51 33L50 33L50 31L51 31L51 32L53 32L53 29L52 29L52 31L51 31L51 30L50 30L50 31L49 31L49 28L50 28L50 27L51 27L51 28L52 28L52 27L53 27L53 25L52 25L52 27L51 27L51 26L50 26L50 27L49 27L49 25L50 25L50 23L46 23L46 24L44 24L44 26L43 26L43 24L41 24L41 26L40 26L40 24L38 24L38 23L43 23L43 22L45 22L45 21L43 21L43 20L42 20L42 19L45 19L45 20L46 20L46 21L47 21L47 22L49 22L49 21L50 21L50 18L52 18L52 19L51 19L51 22L52 22L52 24L53 24L53 21L52 21L52 19L53 19L53 13L52 13L52 12L53 12L53 8L49 8L49 9L48 9L48 8L47 8L47 10L48 10L48 12L47 12L47 11L46 11L46 9L44 9L44 8L45 8L45 6L44 6L44 7L43 7L43 3L44 3L44 4L45 4L45 3L44 3L44 1L43 1L43 0L40 0L40 1L42 1L42 2L41 2L41 3L40 3L40 2L39 2L39 3L40 3L40 5L41 5L41 6L40 6L40 7L41 7L41 10L40 10L40 8L38 8L38 7L39 7L39 6L38 6L38 7L37 7L37 5L36 5L36 7L35 7L35 5L31 5L31 3L33 3L33 4L34 4L34 3L35 3L35 4L36 4L36 3L37 3L37 4L38 4L38 5L39 5L39 4L38 4L38 3L37 3L37 2L36 2L36 1L34 1L34 0L19 0L19 1L20 1L20 2L19 2L19 4L20 4L20 7L21 7L21 9L20 9L20 8L18 8L18 7L19 7L19 5L18 5L18 7L17 7L17 5L16 5L16 3L15 3L15 1L16 1L16 2L17 2L17 1L18 1L18 0L13 0L13 1L12 1L12 0L10 0L10 1L9 1L9 0ZM38 0L38 1L39 1L39 0ZM11 1L11 2L9 2L9 3L10 3L10 5L12 5L12 4L13 4L13 5L15 5L15 7L14 7L14 6L13 6L13 7L14 7L14 8L15 8L15 7L16 7L16 5L15 5L15 3L14 3L14 1L13 1L13 3L12 3L12 1ZM21 1L21 3L23 3L23 5L22 5L22 6L21 6L21 7L22 7L22 6L23 6L23 8L22 8L22 9L21 9L21 10L22 10L22 9L23 9L23 10L25 10L25 11L20 11L20 13L16 13L16 12L15 12L15 11L16 11L16 10L17 10L17 12L19 12L19 11L18 11L18 10L19 10L19 9L18 9L18 8L16 8L16 9L15 9L15 10L14 10L14 9L13 9L13 8L11 8L11 9L12 9L12 11L10 11L10 12L9 12L9 14L7 14L7 13L8 13L8 11L5 11L5 10L7 10L7 9L5 9L5 10L4 10L4 11L5 11L5 12L7 12L7 13L6 13L6 14L5 14L5 13L4 13L4 14L5 14L5 15L1 15L1 17L2 17L2 18L1 18L1 19L2 19L2 20L1 20L1 21L2 21L2 22L3 22L3 21L4 21L4 20L5 20L5 19L3 19L3 18L7 18L7 19L6 19L6 20L7 20L7 21L8 21L8 23L10 23L10 24L11 24L11 25L9 25L9 30L10 30L10 31L9 31L9 32L8 32L8 33L9 33L9 32L10 32L10 34L7 34L7 33L6 33L6 34L7 34L7 35L5 35L5 33L4 33L4 31L3 31L3 30L5 30L5 29L3 29L3 30L2 30L2 31L3 31L3 32L2 32L2 33L4 33L4 35L3 35L3 36L1 36L1 37L3 37L3 38L2 38L2 39L4 39L4 40L5 40L5 39L4 39L4 38L8 38L8 37L4 37L4 36L8 36L8 35L10 35L10 36L9 36L9 38L10 38L10 41L11 41L11 37L12 37L12 36L14 36L14 35L15 35L15 37L14 37L14 38L12 38L12 39L14 39L14 40L15 40L15 37L16 37L16 38L17 38L17 39L18 39L18 38L17 38L17 37L16 37L16 36L17 36L17 35L18 35L18 36L19 36L19 34L18 34L18 32L19 32L19 31L21 31L21 30L19 30L19 29L18 29L18 30L17 30L17 29L16 29L16 28L15 28L15 27L16 27L16 26L17 26L17 27L18 27L18 26L19 26L19 25L24 25L24 24L25 24L25 23L26 23L26 24L31 24L31 26L32 26L32 23L35 23L35 22L36 22L36 23L38 23L38 16L37 16L37 21L36 21L36 19L35 19L35 16L34 16L34 15L35 15L35 14L37 14L37 15L38 15L38 13L36 13L36 12L33 12L33 14L32 14L32 13L31 13L31 15L30 15L30 13L29 13L29 15L30 15L30 16L28 16L28 15L27 15L27 14L28 14L28 12L27 12L27 11L28 11L28 10L27 10L27 9L26 9L26 10L25 10L25 9L24 9L24 3L25 3L25 4L26 4L26 3L27 3L27 2L28 2L28 3L29 3L29 1L27 1L27 2L26 2L26 3L25 3L25 2L24 2L24 3L23 3L23 1ZM31 1L31 2L32 2L32 1ZM33 1L33 2L34 2L34 1ZM35 2L35 3L36 3L36 2ZM42 2L42 3L43 3L43 2ZM11 3L11 4L12 4L12 3ZM13 3L13 4L14 4L14 3ZM29 4L29 5L30 5L30 6L29 6L29 8L30 8L30 9L32 9L32 10L33 10L33 9L32 9L32 8L30 8L30 6L31 6L31 7L32 7L32 6L31 6L31 5L30 5L30 4ZM25 5L25 8L28 8L28 5ZM9 6L9 7L10 7L10 6ZM11 6L11 7L12 7L12 6ZM26 6L26 7L27 7L27 6ZM33 6L33 7L34 7L34 6ZM41 6L41 7L42 7L42 8L43 8L43 7L42 7L42 6ZM17 9L17 10L18 10L18 9ZM34 9L34 11L38 11L38 12L40 12L40 13L39 13L39 15L40 15L40 17L39 17L39 18L41 18L41 17L43 17L43 18L44 18L44 17L45 17L45 16L46 16L46 19L47 19L47 18L48 18L48 19L49 19L49 18L50 18L50 17L52 17L52 13L51 13L51 12L52 12L52 9L49 9L49 10L50 10L50 13L47 13L47 12L46 12L46 11L45 11L45 10L44 10L44 9L43 9L43 11L42 11L42 12L41 12L41 11L38 11L38 9L37 9L37 10L35 10L35 9ZM13 10L13 12L14 12L14 13L12 13L12 12L10 12L10 13L11 13L11 14L9 14L9 15L11 15L11 16L12 16L12 18L13 18L13 19L16 19L16 18L17 18L17 17L13 17L13 16L12 16L12 15L11 15L11 14L13 14L13 15L14 15L14 16L16 16L16 14L14 14L14 13L15 13L15 12L14 12L14 10ZM26 10L26 11L27 11L27 10ZM29 10L29 11L30 11L30 12L31 12L31 11L30 11L30 10ZM43 11L43 12L42 12L42 16L43 16L43 14L45 14L45 15L46 15L46 16L47 16L47 17L50 17L50 15L49 15L49 14L48 14L48 15L46 15L46 14L45 14L45 13L44 13L44 11ZM24 12L24 13L20 13L20 14L22 14L22 16L23 16L23 17L22 17L22 18L21 18L21 17L19 17L19 16L18 16L18 15L17 15L17 16L18 16L18 17L19 17L19 18L21 18L21 20L22 20L22 19L25 19L25 22L26 22L26 23L27 23L27 21L28 21L28 23L29 23L29 21L28 21L28 20L29 20L29 19L31 19L31 20L30 20L30 23L31 23L31 22L33 22L33 20L34 20L34 21L35 21L35 19L32 19L32 18L34 18L34 16L33 16L33 15L32 15L32 18L31 18L31 17L28 17L28 16L27 16L27 17L24 17L24 15L25 15L25 16L26 16L26 12ZM2 13L2 14L3 14L3 13ZM6 14L6 15L5 15L5 17L8 17L8 19L7 19L7 20L8 20L8 21L10 21L10 22L12 22L12 23L13 23L13 25L14 25L14 26L12 26L12 27L15 27L15 25L16 25L16 24L17 24L17 26L18 26L18 25L19 25L19 23L18 23L18 22L17 22L17 23L16 23L16 22L15 22L15 24L14 24L14 23L13 23L13 22L14 22L14 21L19 21L19 20L14 20L14 21L10 21L10 20L11 20L11 19L10 19L10 18L9 18L9 17L10 17L10 16L6 16L6 15L7 15L7 14ZM23 14L23 15L24 15L24 14ZM40 14L40 15L41 15L41 14ZM48 15L48 16L49 16L49 15ZM2 16L2 17L3 17L3 16ZM25 18L25 19L26 19L26 20L28 20L28 18L27 18L27 19L26 19L26 18ZM8 19L8 20L10 20L10 19ZM39 19L39 20L40 20L40 21L41 21L41 22L42 22L42 20L41 20L41 19ZM2 20L2 21L3 21L3 20ZM23 20L23 21L20 21L20 23L21 23L21 24L22 24L22 23L24 23L24 20ZM5 23L5 24L7 24L7 23ZM37 24L37 25L36 25L36 27L38 27L38 24ZM5 25L5 28L8 28L8 25ZM25 25L25 28L28 28L28 25ZM33 25L33 26L34 26L34 27L33 27L33 28L34 28L34 29L33 29L33 30L32 30L32 31L30 31L30 29L31 29L31 28L32 28L32 27L31 27L31 28L29 28L29 29L26 29L26 30L28 30L28 31L26 31L26 32L25 32L25 33L23 33L23 32L24 32L24 31L25 31L25 29L23 29L23 28L24 28L24 26L23 26L23 27L22 27L22 26L20 26L20 27L22 27L22 28L20 28L20 29L23 29L23 30L22 30L22 32L20 32L20 33L21 33L21 34L20 34L20 37L23 37L23 35L22 35L22 36L21 36L21 34L22 34L22 33L23 33L23 34L25 34L25 35L24 35L24 36L25 36L25 37L24 37L24 38L27 38L27 37L28 37L28 35L29 35L29 38L28 38L28 39L29 39L29 40L27 40L27 41L29 41L29 40L31 40L31 43L33 43L33 42L34 42L34 43L35 43L35 44L33 44L33 47L35 47L35 44L36 44L36 43L38 43L38 42L37 42L37 41L35 41L35 40L36 40L36 39L37 39L37 38L38 38L38 40L39 40L39 39L40 39L40 41L39 41L39 42L40 42L40 41L41 41L41 42L42 42L42 41L41 41L41 39L40 39L40 38L38 38L38 37L39 37L39 36L38 36L38 37L37 37L37 38L36 38L36 37L35 37L35 33L34 33L34 32L33 32L33 34L34 34L34 35L33 35L33 36L34 36L34 37L33 37L33 38L31 38L31 39L30 39L30 36L31 36L31 35L32 35L32 31L33 31L33 30L34 30L34 31L38 31L38 29L39 29L39 28L40 28L40 33L39 33L39 32L38 32L38 33L36 33L36 35L37 35L37 34L38 34L38 33L39 33L39 35L40 35L40 37L41 37L41 38L42 38L42 35L40 35L40 34L41 34L41 33L42 33L42 32L43 32L43 31L44 31L44 32L45 32L45 34L43 34L43 35L45 35L45 34L46 34L46 32L47 32L47 31L46 31L46 30L48 30L48 29L45 29L45 31L44 31L44 30L43 30L43 31L41 31L41 30L42 30L42 29L44 29L44 27L42 27L42 28L41 28L41 27L40 27L40 26L39 26L39 28L37 28L37 30L35 30L35 29L36 29L36 28L34 28L34 27L35 27L35 25ZM45 25L45 28L48 28L48 25ZM6 26L6 27L7 27L7 26ZM26 26L26 27L27 27L27 26ZM46 26L46 27L47 27L47 26ZM13 28L13 29L11 29L11 30L12 30L12 31L11 31L11 33L12 33L12 32L13 32L13 31L14 31L14 32L15 32L15 30L14 30L14 29L15 29L15 28ZM6 29L6 30L8 30L8 29ZM16 30L16 32L17 32L17 30ZM18 30L18 31L19 31L19 30ZM23 30L23 31L24 31L24 30ZM5 31L5 32L7 32L7 31ZM28 31L28 33L29 33L29 35L31 35L31 33L29 33L29 31ZM45 31L45 32L46 32L46 31ZM26 32L26 33L25 33L25 34L27 34L27 35L28 35L28 34L27 34L27 32ZM48 32L48 33L49 33L49 32ZM13 33L13 34L15 34L15 35L16 35L16 34L17 34L17 33ZM10 34L10 35L11 35L11 36L12 36L12 35L11 35L11 34ZM47 34L47 35L46 35L46 37L47 37L47 38L48 38L48 37L50 37L50 36L48 36L48 34ZM25 35L25 36L26 36L26 37L27 37L27 36L26 36L26 35ZM44 36L44 37L43 37L43 39L42 39L42 40L43 40L43 39L44 39L44 40L45 40L45 42L43 42L43 43L42 43L42 44L41 44L41 43L40 43L40 46L39 46L39 47L40 47L40 46L41 46L41 47L42 47L42 46L41 46L41 45L43 45L43 44L44 44L44 43L45 43L45 44L48 44L48 43L49 43L49 42L47 42L47 43L45 43L45 42L46 42L46 41L49 41L49 39L48 39L48 40L47 40L47 39L46 39L46 38L45 38L45 39L44 39L44 37L45 37L45 36ZM47 36L47 37L48 37L48 36ZM19 38L19 40L18 40L18 41L17 41L17 40L16 40L16 41L15 41L15 43L16 43L16 42L17 42L17 44L18 44L18 41L23 41L23 42L24 42L24 43L23 43L23 44L22 44L22 43L20 43L20 42L19 42L19 44L20 44L20 45L23 45L23 47L22 47L22 48L21 48L21 46L20 46L20 47L19 47L19 45L18 45L18 47L16 47L16 46L17 46L17 45L16 45L16 46L14 46L14 47L16 47L16 48L13 48L13 44L12 44L12 43L11 43L11 44L8 44L8 45L10 45L10 46L12 46L12 47L10 47L10 48L9 48L9 49L10 49L10 48L12 48L12 52L13 52L13 49L14 49L14 50L15 50L15 49L18 49L18 48L19 48L19 49L24 49L24 45L23 45L23 44L24 44L24 43L25 43L25 44L28 44L28 43L30 43L30 42L28 42L28 43L27 43L27 42L26 42L26 40L25 40L25 41L23 41L23 40L24 40L24 39L22 39L22 40L21 40L21 39L20 39L20 38ZM6 39L6 40L7 40L7 39ZM8 39L8 41L2 41L2 43L3 43L3 42L8 42L8 43L10 43L10 42L9 42L9 39ZM31 39L31 40L32 40L32 42L33 42L33 39ZM45 39L45 40L46 40L46 39ZM12 40L12 42L13 42L13 43L14 43L14 41L13 41L13 40ZM25 42L25 43L26 43L26 42ZM35 42L35 43L36 43L36 42ZM51 42L51 43L50 43L50 45L49 45L49 46L50 46L50 49L51 49L51 46L52 46L52 44L51 44L51 43L52 43L52 42ZM14 44L14 45L15 45L15 44ZM29 44L29 46L30 46L30 44ZM25 45L25 48L28 48L28 45ZM31 45L31 46L32 46L32 45ZM45 45L45 48L48 48L48 45ZM26 46L26 47L27 47L27 46ZM46 46L46 47L47 47L47 46ZM30 47L30 48L29 48L29 49L28 49L28 50L27 50L27 51L28 51L28 50L29 50L29 49L32 49L32 47ZM33 48L33 49L34 49L34 48ZM43 49L43 51L44 51L44 52L45 52L45 51L46 51L46 50L48 50L48 51L47 51L47 52L49 52L49 49L46 49L46 50L45 50L45 49ZM32 51L32 52L31 52L31 53L33 53L33 51ZM38 51L38 52L39 52L39 51ZM51 51L51 53L52 53L52 52L53 52L53 51ZM0 0L0 7L7 7L7 0ZM1 1L1 6L6 6L6 1ZM2 2L2 5L5 5L5 2ZM46 0L46 7L53 7L53 0ZM47 1L47 6L52 6L52 1ZM48 2L48 5L51 5L51 2ZM0 46L0 53L7 53L7 46ZM1 47L1 52L6 52L6 47ZM2 48L2 51L5 51L5 48Z" fill="#000000"/></g></g></svg>
