<?xml version="1.0" encoding="UTF-8"?>
<svg xmlns="http://www.w3.org/2000/svg" version="1.1" width="400" height="400" viewBox="0 0 400 400"><rect x="0" y="0" width="400" height="400" fill="#fefefe"/><g transform="scale(4.494)"><g transform="translate(4,4)"><path fill-rule="evenodd" d="M8 0L8 1L9 1L9 3L10 3L10 4L8 4L8 7L9 7L9 5L12 5L12 8L11 8L11 6L10 6L10 8L9 8L9 9L10 9L10 10L11 10L11 11L9 11L9 10L8 10L8 12L9 12L9 13L8 13L8 14L5 14L5 15L8 15L8 16L6 16L6 17L5 17L5 19L4 19L4 16L3 16L3 14L1 14L1 13L0 13L0 15L2 15L2 16L3 16L3 17L2 17L2 19L4 19L4 20L3 20L3 21L0 21L0 22L1 22L1 23L0 23L0 24L1 24L1 25L0 25L0 26L2 26L2 27L0 27L0 30L2 30L2 31L1 31L1 32L0 32L0 33L2 33L2 36L1 36L1 38L0 38L0 39L1 39L1 41L0 41L0 44L1 44L1 41L2 41L2 42L3 42L3 41L5 41L5 43L2 43L2 45L0 45L0 46L1 46L1 47L4 47L4 48L3 48L3 49L4 49L4 50L3 50L3 51L4 51L4 52L1 52L1 49L2 49L2 48L0 48L0 52L1 52L1 54L0 54L0 63L2 63L2 64L3 64L3 65L1 65L1 64L0 64L0 65L1 65L1 66L0 66L0 67L1 67L1 68L0 68L0 70L1 70L1 73L4 73L4 72L2 72L2 71L4 71L4 70L1 70L1 68L2 68L2 69L5 69L5 70L6 70L6 71L5 71L5 72L6 72L6 73L8 73L8 80L9 80L9 78L10 78L10 80L11 80L11 79L12 79L12 80L14 80L14 81L16 81L16 79L15 79L15 78L14 78L14 77L11 77L11 76L9 76L9 75L11 75L11 74L12 74L12 76L14 76L14 75L15 75L15 76L16 76L16 74L17 74L17 73L18 73L18 74L19 74L19 75L18 75L18 78L20 78L20 77L22 77L22 78L21 78L21 79L22 79L22 78L23 78L23 80L22 80L22 81L23 81L23 80L24 80L24 81L26 81L26 80L24 80L24 78L25 78L25 79L26 79L26 78L25 78L25 77L27 77L27 81L29 81L29 80L28 80L28 79L29 79L29 78L30 78L30 77L29 77L29 76L32 76L32 75L30 75L30 74L32 74L32 72L33 72L33 73L34 73L34 72L35 72L35 73L36 73L36 75L33 75L33 76L35 76L35 77L36 77L36 78L34 78L34 79L33 79L33 80L34 80L34 79L35 79L35 81L37 81L37 80L39 80L39 79L40 79L40 80L42 80L42 79L43 79L43 81L44 81L44 79L47 79L47 78L48 78L48 79L49 79L49 80L50 80L50 81L52 81L52 80L53 80L53 79L55 79L55 78L53 78L53 79L52 79L52 78L51 78L51 77L54 77L54 76L53 76L53 73L54 73L54 74L56 74L56 73L57 73L57 75L55 75L55 77L56 77L56 79L57 79L57 80L56 80L56 81L58 81L58 80L59 80L59 79L58 79L58 78L60 78L60 80L61 80L61 81L62 81L62 80L61 80L61 79L65 79L65 77L64 77L64 75L65 75L65 74L63 74L63 73L62 73L62 72L60 72L60 73L59 73L59 74L60 74L60 73L62 73L62 76L61 76L61 77L60 77L60 76L59 76L59 77L58 77L58 73L57 73L57 72L59 72L59 71L58 71L58 70L61 70L61 71L63 71L63 72L64 72L64 73L66 73L66 74L67 74L67 73L66 73L66 72L65 72L65 70L66 70L66 69L67 69L67 70L68 70L68 74L71 74L71 75L72 75L72 77L71 77L71 76L70 76L70 75L68 75L68 76L67 76L67 77L66 77L66 78L67 78L67 79L66 79L66 80L63 80L63 81L66 81L66 80L67 80L67 79L68 79L68 78L71 78L71 79L69 79L69 80L68 80L68 81L69 81L69 80L71 80L71 81L72 81L72 80L73 80L73 78L72 78L72 77L74 77L74 79L75 79L75 77L77 77L77 78L76 78L76 80L74 80L74 81L76 81L76 80L77 80L77 81L78 81L78 79L79 79L79 81L80 81L80 80L81 80L81 79L79 79L79 78L80 78L80 74L79 74L79 72L81 72L81 70L80 70L80 68L81 68L81 67L78 67L78 69L77 69L77 70L76 70L76 69L75 69L75 68L74 68L74 70L75 70L75 71L77 71L77 72L73 72L73 71L71 71L71 70L73 70L73 68L72 68L72 67L73 67L73 66L75 66L75 67L77 67L77 66L76 66L76 65L77 65L77 64L76 64L76 65L74 65L74 64L72 64L72 65L73 65L73 66L71 66L71 65L70 65L70 66L69 66L69 65L66 65L66 66L68 66L68 68L63 68L63 67L64 67L64 66L63 66L63 65L65 65L65 64L63 64L63 63L64 63L64 62L68 62L68 63L69 63L69 64L70 64L70 61L66 61L66 60L67 60L67 58L68 58L68 59L69 59L69 60L70 60L70 58L71 58L71 59L72 59L72 60L73 60L73 61L71 61L71 62L73 62L73 63L74 63L74 62L73 62L73 61L75 61L75 63L78 63L78 66L81 66L81 65L79 65L79 63L78 63L78 62L79 62L79 61L80 61L80 60L81 60L81 59L80 59L80 60L79 60L79 59L78 59L78 61L75 61L75 59L74 59L74 57L75 57L75 58L76 58L76 57L78 57L78 58L81 58L81 57L80 57L80 56L78 56L78 54L80 54L80 55L81 55L81 54L80 54L80 53L79 53L79 52L81 52L81 50L80 50L80 48L79 48L79 47L78 47L78 49L77 49L77 48L75 48L75 47L74 47L74 48L73 48L73 45L70 45L70 46L69 46L69 45L66 45L66 44L65 44L65 42L66 42L66 41L67 41L67 42L68 42L68 41L70 41L70 39L71 39L71 40L74 40L74 41L75 41L75 42L77 42L77 43L76 43L76 44L77 44L77 45L78 45L78 46L80 46L80 47L81 47L81 46L80 46L80 44L79 44L79 43L80 43L80 42L81 42L81 41L80 41L80 42L79 42L79 41L77 41L77 40L78 40L78 39L79 39L79 40L81 40L81 37L80 37L80 34L79 34L79 32L81 32L81 30L80 30L80 28L81 28L81 27L80 27L80 24L81 24L81 22L80 22L80 23L79 23L79 20L81 20L81 19L80 19L80 17L79 17L79 16L80 16L80 15L79 15L79 16L78 16L78 14L80 14L80 13L81 13L81 11L80 11L80 10L79 10L79 9L77 9L77 8L75 8L75 10L76 10L76 9L77 9L77 10L78 10L78 11L80 11L80 13L79 13L79 12L76 12L76 11L75 11L75 12L76 12L76 13L74 13L74 14L76 14L76 13L78 13L78 14L77 14L77 15L73 15L73 14L72 14L72 13L70 13L70 14L71 14L71 15L72 15L72 16L71 16L71 17L70 17L70 15L69 15L69 16L68 16L68 15L67 15L67 18L66 18L66 20L64 20L64 21L65 21L65 22L63 22L63 19L64 19L64 18L65 18L65 17L64 17L64 16L65 16L65 14L64 14L64 13L62 13L62 12L63 12L63 11L64 11L64 10L65 10L65 11L66 11L66 12L65 12L65 13L66 13L66 14L68 14L68 13L69 13L69 12L71 12L71 10L70 10L70 9L73 9L73 10L74 10L74 9L73 9L73 6L72 6L72 5L71 5L71 6L70 6L70 4L71 4L71 2L72 2L72 4L73 4L73 1L70 1L70 0L69 0L69 1L70 1L70 2L68 2L68 3L69 3L69 4L68 4L68 7L69 7L69 8L68 8L68 9L69 9L69 12L68 12L68 13L66 13L66 12L67 12L67 8L66 8L66 9L65 9L65 8L64 8L64 7L65 7L65 5L67 5L67 4L66 4L66 3L65 3L65 1L66 1L66 0L64 0L64 1L62 1L62 3L61 3L61 0L58 0L58 1L60 1L60 2L59 2L59 3L58 3L58 2L57 2L57 0L54 0L54 1L52 1L52 2L51 2L51 3L50 3L50 2L49 2L49 1L51 1L51 0L49 0L49 1L47 1L47 3L46 3L46 2L45 2L45 1L46 1L46 0L43 0L43 1L44 1L44 2L42 2L42 1L41 1L41 0L40 0L40 1L39 1L39 0L37 0L37 1L36 1L36 0L34 0L34 2L35 2L35 3L34 3L34 4L33 4L33 0L32 0L32 1L31 1L31 0L30 0L30 2L28 2L28 0L26 0L26 1L25 1L25 0L24 0L24 1L21 1L21 0L18 0L18 2L17 2L17 0L16 0L16 2L13 2L13 1L15 1L15 0L13 0L13 1L12 1L12 0L11 0L11 1L10 1L10 0ZM67 0L67 1L68 1L68 0ZM11 1L11 2L10 2L10 3L12 3L12 1ZM19 1L19 2L21 2L21 1ZM38 1L38 3L37 3L37 2L36 2L36 3L35 3L35 4L34 4L34 6L33 6L33 7L32 7L32 5L33 5L33 4L32 4L32 3L31 3L31 4L32 4L32 5L30 5L30 4L29 4L29 3L28 3L28 2L26 2L26 4L27 4L27 3L28 3L28 4L29 4L29 5L30 5L30 6L29 6L29 9L28 9L28 10L27 10L27 9L25 9L25 10L26 10L26 11L25 11L25 12L23 12L23 11L22 11L22 10L23 10L23 9L22 9L22 8L23 8L23 7L24 7L24 6L23 6L23 5L24 5L24 3L23 3L23 2L22 2L22 3L19 3L19 4L20 4L20 6L19 6L19 5L18 5L18 4L17 4L17 2L16 2L16 3L13 3L13 4L12 4L12 5L13 5L13 4L15 4L15 5L17 5L17 7L18 7L18 6L19 6L19 8L20 8L20 6L21 6L21 9L22 9L22 10L21 10L21 11L20 11L20 9L19 9L19 10L18 10L18 8L16 8L16 6L15 6L15 7L14 7L14 6L13 6L13 8L14 8L14 10L13 10L13 11L14 11L14 12L15 12L15 11L16 11L16 10L15 10L15 8L16 8L16 9L17 9L17 10L18 10L18 11L17 11L17 12L16 12L16 13L15 13L15 14L13 14L13 13L12 13L12 12L11 12L11 13L9 13L9 14L8 14L8 15L9 15L9 14L10 14L10 15L11 15L11 16L10 16L10 17L11 17L11 18L12 18L12 19L10 19L10 18L9 18L9 17L6 17L6 18L7 18L7 19L6 19L6 20L5 20L5 21L3 21L3 22L2 22L2 24L3 24L3 25L4 25L4 23L5 23L5 24L9 24L9 28L11 28L11 27L13 27L13 28L12 28L12 29L13 29L13 30L11 30L11 29L10 29L10 30L9 30L9 29L8 29L8 31L9 31L9 33L10 33L10 34L11 34L11 32L12 32L12 33L13 33L13 34L12 34L12 35L10 35L10 37L9 37L9 40L8 40L8 39L6 39L6 40L7 40L7 41L6 41L6 42L7 42L7 43L6 43L6 44L3 44L3 46L4 46L4 47L6 47L6 48L9 48L9 51L10 51L10 52L9 52L9 53L6 53L6 54L8 54L8 55L11 55L11 54L12 54L12 55L13 55L13 54L14 54L14 56L15 56L15 55L16 55L16 56L17 56L17 57L18 57L18 59L16 59L16 57L10 57L10 56L9 56L9 57L8 57L8 56L7 56L7 55L6 55L6 56L7 56L7 57L4 57L4 58L7 58L7 57L8 57L8 58L9 58L9 60L8 60L8 59L6 59L6 60L5 60L5 59L3 59L3 58L2 58L2 57L1 57L1 58L2 58L2 59L1 59L1 61L2 61L2 62L4 62L4 63L3 63L3 64L7 64L7 65L5 65L5 66L3 66L3 67L4 67L4 68L7 68L7 69L6 69L6 70L7 70L7 71L6 71L6 72L7 72L7 71L8 71L8 73L9 73L9 74L11 74L11 73L14 73L14 74L16 74L16 73L14 73L14 72L18 72L18 73L19 73L19 70L18 70L18 71L17 71L17 69L18 69L18 67L16 67L16 68L14 68L14 70L16 70L16 71L12 71L12 70L13 70L13 64L15 64L15 65L14 65L14 67L15 67L15 66L16 66L16 64L15 64L15 63L17 63L17 64L18 64L18 65L17 65L17 66L18 66L18 65L19 65L19 63L18 63L18 62L16 62L16 60L17 60L17 61L19 61L19 62L21 62L21 61L22 61L22 60L23 60L23 58L24 58L24 57L25 57L25 58L27 58L27 59L25 59L25 60L24 60L24 61L23 61L23 66L22 66L22 64L21 64L21 63L20 63L20 64L21 64L21 65L20 65L20 67L22 67L22 69L23 69L23 70L21 70L21 69L20 69L20 70L21 70L21 72L20 72L20 76L21 76L21 72L22 72L22 71L23 71L23 72L26 72L26 71L24 71L24 68L25 68L25 69L27 69L27 70L28 70L28 72L29 72L29 74L30 74L30 73L31 73L31 72L30 72L30 70L31 70L31 71L33 71L33 72L34 72L34 70L37 70L37 69L38 69L38 68L39 68L39 67L41 67L41 70L39 70L39 71L40 71L40 72L39 72L39 74L38 74L38 71L36 71L36 72L37 72L37 74L38 74L38 75L37 75L37 76L36 76L36 77L37 77L37 76L38 76L38 75L39 75L39 74L41 74L41 75L40 75L40 76L39 76L39 78L40 78L40 79L42 79L42 78L41 78L41 76L42 76L42 77L43 77L43 78L44 78L44 77L43 77L43 76L42 76L42 74L44 74L44 73L45 73L45 75L44 75L44 76L45 76L45 75L46 75L46 73L47 73L47 71L48 71L48 69L49 69L49 70L50 70L50 71L49 71L49 72L50 72L50 71L51 71L51 72L52 72L52 71L51 71L51 70L50 70L50 68L54 68L54 69L53 69L53 72L54 72L54 73L55 73L55 72L56 72L56 70L54 70L54 69L61 69L61 68L62 68L62 66L61 66L61 65L60 65L60 66L59 66L59 65L58 65L58 64L57 64L57 65L58 65L58 66L59 66L59 68L56 68L56 67L57 67L57 66L55 66L55 65L56 65L56 63L57 63L57 62L58 62L58 61L59 61L59 64L62 64L62 65L63 65L63 64L62 64L62 62L64 62L64 61L65 61L65 60L63 60L63 61L62 61L62 59L63 59L63 58L65 58L65 59L66 59L66 57L65 57L65 56L66 56L66 53L64 53L64 52L63 52L63 50L64 50L64 49L63 49L63 48L68 48L68 46L67 46L67 47L66 47L66 46L65 46L65 45L63 45L63 43L62 43L62 40L63 40L63 41L65 41L65 40L66 40L66 38L67 38L67 39L68 39L68 40L67 40L67 41L68 41L68 40L69 40L69 39L70 39L70 38L72 38L72 37L73 37L73 36L74 36L74 38L75 38L75 39L74 39L74 40L75 40L75 41L76 41L76 40L77 40L77 39L78 39L78 38L77 38L77 37L76 37L76 36L74 36L74 34L75 34L75 35L77 35L77 34L78 34L78 36L79 36L79 34L78 34L78 32L79 32L79 31L78 31L78 30L76 30L76 29L74 29L74 30L72 30L72 29L68 29L68 30L67 30L67 29L65 29L65 28L68 28L68 26L66 26L66 25L69 25L69 26L70 26L70 25L71 25L71 27L72 27L72 25L71 25L71 24L73 24L73 23L70 23L70 24L67 24L67 23L68 23L68 22L69 22L69 21L68 21L68 20L69 20L69 17L68 17L68 18L67 18L67 21L66 21L66 22L65 22L65 24L66 24L66 25L64 25L64 24L63 24L63 23L62 23L62 21L61 21L61 20L62 20L62 18L61 18L61 16L62 16L62 17L63 17L63 18L64 18L64 17L63 17L63 14L62 14L62 13L61 13L61 12L62 12L62 10L63 10L63 9L64 9L64 8L63 8L63 9L61 9L61 8L62 8L62 6L63 6L63 7L64 7L64 6L63 6L63 5L65 5L65 4L64 4L64 3L62 3L62 4L61 4L61 3L59 3L59 4L60 4L60 5L58 5L58 3L57 3L57 4L56 4L56 5L53 5L53 8L54 8L54 9L52 9L52 10L51 10L51 9L50 9L50 10L49 10L49 14L48 14L48 13L47 13L47 12L48 12L48 10L47 10L47 9L48 9L48 6L47 6L47 7L46 7L46 6L45 6L45 4L46 4L46 3L42 3L42 4L41 4L41 3L40 3L40 4L39 4L39 1ZM40 1L40 2L41 2L41 1ZM54 1L54 2L52 2L52 4L53 4L53 3L54 3L54 4L55 4L55 3L56 3L56 1ZM48 3L48 4L49 4L49 3ZM36 4L36 7L35 7L35 6L34 6L34 7L35 7L35 8L31 8L31 6L30 6L30 9L29 9L29 10L30 10L30 11L31 11L31 9L34 9L34 10L35 10L35 11L37 11L37 12L32 12L32 13L31 13L31 12L30 12L30 13L31 13L31 16L29 16L29 15L30 15L30 14L29 14L29 15L26 15L26 14L25 14L25 16L27 16L27 17L28 17L28 18L29 18L29 17L31 17L31 18L30 18L30 19L32 19L32 20L33 20L33 21L34 21L34 22L35 22L35 23L36 23L36 24L35 24L35 28L32 28L32 27L34 27L34 26L33 26L33 25L34 25L34 24L33 24L33 22L32 22L32 21L31 21L31 20L30 20L30 21L29 21L29 19L27 19L27 20L28 20L28 21L27 21L27 22L28 22L28 21L29 21L29 22L30 22L30 23L28 23L28 24L27 24L27 23L26 23L26 22L24 22L24 21L25 21L25 20L26 20L26 17L24 17L24 16L23 16L23 15L21 15L21 14L20 14L20 13L19 13L19 12L20 12L20 11L19 11L19 12L18 12L18 13L17 13L17 14L18 14L18 13L19 13L19 14L20 14L20 15L17 15L17 17L16 17L16 16L15 16L15 15L16 15L16 14L15 14L15 15L12 15L12 17L14 17L14 18L13 18L13 20L11 20L11 21L10 21L10 19L9 19L9 18L8 18L8 19L7 19L7 20L6 20L6 21L7 21L7 20L8 20L8 19L9 19L9 21L8 21L8 22L5 22L5 23L8 23L8 22L9 22L9 21L10 21L10 24L11 24L11 25L10 25L10 27L11 27L11 25L12 25L12 26L13 26L13 27L15 27L15 28L16 28L16 29L17 29L17 30L14 30L14 31L13 31L13 33L14 33L14 31L16 31L16 32L18 32L18 33L15 33L15 34L17 34L17 35L18 35L18 33L20 33L20 34L19 34L19 36L18 36L18 37L19 37L19 36L20 36L20 37L22 37L22 36L23 36L23 33L22 33L22 32L24 32L24 34L26 34L26 35L27 35L27 36L25 36L25 35L24 35L24 37L30 37L30 38L31 38L31 39L29 39L29 38L23 38L23 40L22 40L22 39L20 39L20 38L18 38L18 41L16 41L16 40L17 40L17 38L16 38L16 37L15 37L15 35L14 35L14 34L13 34L13 35L14 35L14 36L13 36L13 37L15 37L15 39L14 39L14 38L12 38L12 39L14 39L14 40L13 40L13 41L10 41L10 40L9 40L9 41L7 41L7 42L9 42L9 41L10 41L10 42L11 42L11 43L8 43L8 44L6 44L6 45L4 45L4 46L6 46L6 47L7 47L7 46L8 46L8 47L10 47L10 49L12 49L12 50L14 50L14 52L15 52L15 49L14 49L14 48L15 48L15 47L16 47L16 48L17 48L17 49L16 49L16 50L18 50L18 52L16 52L16 53L15 53L15 54L16 54L16 55L17 55L17 53L19 53L19 54L18 54L18 56L20 56L20 55L21 55L21 57L20 57L20 58L19 58L19 59L18 59L18 60L19 60L19 61L21 61L21 59L20 59L20 58L22 58L22 55L23 55L23 54L24 54L24 55L25 55L25 57L27 57L27 58L30 58L30 59L33 59L33 60L32 60L32 62L31 62L31 63L29 63L29 62L27 62L27 63L29 63L29 64L31 64L31 65L30 65L30 66L31 66L31 65L32 65L32 67L33 67L33 66L34 66L34 67L35 67L35 69L36 69L36 67L37 67L37 66L36 66L36 65L38 65L38 67L39 67L39 66L42 66L42 68L43 68L43 67L44 67L44 65L43 65L43 64L44 64L44 63L46 63L46 64L45 64L45 65L46 65L46 66L45 66L45 68L44 68L44 69L45 69L45 68L46 68L46 70L47 70L47 67L46 67L46 66L48 66L48 68L49 68L49 61L48 61L48 59L49 59L49 60L50 60L50 59L51 59L51 58L52 58L52 59L53 59L53 57L52 57L52 56L51 56L51 55L50 55L50 54L52 54L52 53L53 53L53 50L56 50L56 52L55 52L55 51L54 51L54 53L55 53L55 54L54 54L54 55L55 55L55 54L56 54L56 53L58 53L58 51L57 51L57 50L56 50L56 49L58 49L58 48L59 48L59 50L60 50L60 53L59 53L59 54L61 54L61 53L62 53L62 54L63 54L63 56L62 56L62 58L61 58L61 57L60 57L60 63L61 63L61 62L62 62L62 61L61 61L61 59L62 59L62 58L63 58L63 56L65 56L65 55L64 55L64 54L63 54L63 52L61 52L61 49L62 49L62 48L63 48L63 47L65 47L65 46L63 46L63 45L62 45L62 44L59 44L59 42L60 42L60 41L61 41L61 39L60 39L60 41L58 41L58 42L57 42L57 41L56 41L56 42L57 42L57 43L56 43L56 46L57 46L57 48L56 48L56 47L55 47L55 42L54 42L54 41L55 41L55 40L53 40L53 38L54 38L54 37L55 37L55 38L56 38L56 39L57 39L57 40L58 40L58 39L59 39L59 38L60 38L60 37L59 37L59 35L58 35L58 33L59 33L59 32L58 32L58 31L57 31L57 30L61 30L61 29L62 29L62 33L61 33L61 32L60 32L60 33L61 33L61 34L60 34L60 35L61 35L61 38L62 38L62 39L64 39L64 38L65 38L65 37L67 37L67 38L69 38L69 37L67 37L67 36L65 36L65 37L64 37L64 35L65 35L65 34L66 34L66 35L67 35L67 34L68 34L68 35L69 35L69 36L70 36L70 37L72 37L72 35L73 35L73 34L74 34L74 33L76 33L76 32L78 32L78 31L76 31L76 30L74 30L74 31L72 31L72 32L70 32L70 31L71 31L71 30L70 30L70 31L69 31L69 30L68 30L68 31L69 31L69 32L68 32L68 33L67 33L67 34L66 34L66 32L67 32L67 31L66 31L66 30L65 30L65 29L63 29L63 28L61 28L61 29L60 29L60 28L59 28L59 26L60 26L60 25L62 25L62 24L61 24L61 23L59 23L59 22L61 22L61 21L58 21L58 22L57 22L57 23L56 23L56 25L55 25L55 26L54 26L54 24L55 24L55 22L56 22L56 21L57 21L57 20L59 20L59 19L58 19L58 18L57 18L57 17L59 17L59 18L60 18L60 17L59 17L59 16L58 16L58 15L59 15L59 14L60 14L60 15L61 15L61 13L59 13L59 12L58 12L58 13L59 13L59 14L57 14L57 13L56 13L56 12L57 12L57 11L59 11L59 10L60 10L60 12L61 12L61 9L60 9L60 8L59 8L59 6L58 6L58 5L57 5L57 6L56 6L56 7L55 7L55 6L54 6L54 7L55 7L55 8L57 8L57 6L58 6L58 9L59 9L59 10L57 10L57 9L56 9L56 10L57 10L57 11L56 11L56 12L53 12L53 11L50 11L50 12L51 12L51 13L50 13L50 15L49 15L49 17L48 17L48 16L46 16L46 15L45 15L45 14L46 14L46 12L45 12L45 11L44 11L44 10L46 10L46 8L44 8L44 7L45 7L45 6L44 6L44 4L42 4L42 5L43 5L43 6L42 6L42 8L43 8L43 9L42 9L42 10L41 10L41 11L40 11L40 13L39 13L39 12L38 12L38 11L39 11L39 10L38 10L38 9L39 9L39 8L40 8L40 7L41 7L41 6L40 6L40 7L39 7L39 5L38 5L38 4ZM62 4L62 5L63 5L63 4ZM25 5L25 8L28 8L28 5ZM49 5L49 8L52 8L52 5ZM22 6L22 7L23 7L23 6ZM26 6L26 7L27 7L27 6ZM37 6L37 7L36 7L36 8L37 8L37 7L38 7L38 6ZM43 6L43 7L44 7L44 6ZM50 6L50 7L51 7L51 6ZM60 6L60 7L61 7L61 6ZM66 6L66 7L67 7L67 6ZM69 6L69 7L70 7L70 8L69 8L69 9L70 9L70 8L72 8L72 6L71 6L71 7L70 7L70 6ZM1 8L1 9L3 9L3 10L2 10L2 11L3 11L3 10L4 10L4 13L5 13L5 12L6 12L6 13L7 13L7 12L6 12L6 11L7 11L7 10L6 10L6 9L8 9L8 8ZM80 8L80 9L81 9L81 8ZM11 9L11 10L12 10L12 9ZM0 10L0 11L1 11L1 10ZM5 10L5 11L6 11L6 10ZM32 10L32 11L33 11L33 10ZM37 10L37 11L38 11L38 10ZM42 10L42 11L41 11L41 13L43 13L43 14L44 14L44 13L45 13L45 12L44 12L44 11L43 11L43 10ZM73 11L73 12L74 12L74 11ZM22 12L22 13L23 13L23 14L24 14L24 13L23 13L23 12ZM25 12L25 13L26 13L26 12ZM27 12L27 14L28 14L28 13L29 13L29 12ZM37 12L37 14L36 14L36 13L35 13L35 14L34 14L34 13L32 13L32 14L34 14L34 15L32 15L32 16L34 16L34 17L33 17L33 18L32 18L32 19L33 19L33 18L34 18L34 21L35 21L35 19L36 19L36 23L37 23L37 24L38 24L38 23L39 23L39 24L40 24L40 25L42 25L42 22L40 22L40 21L38 21L38 20L39 20L39 19L38 19L38 20L37 20L37 19L36 19L36 17L35 17L35 14L36 14L36 15L37 15L37 16L38 16L38 17L37 17L37 18L39 18L39 16L40 16L40 20L41 20L41 19L42 19L42 20L43 20L43 21L44 21L44 22L43 22L43 26L42 26L42 27L39 27L39 30L36 30L36 31L38 31L38 32L39 32L39 34L40 34L40 33L43 33L43 34L44 34L44 33L45 33L45 32L46 32L46 34L45 34L45 35L44 35L44 36L41 36L41 35L42 35L42 34L41 34L41 35L40 35L40 36L39 36L39 37L40 37L40 36L41 36L41 38L39 38L39 39L38 39L38 35L36 35L36 34L37 34L37 33L36 33L36 34L35 34L35 33L34 33L34 32L33 32L33 29L32 29L32 33L31 33L31 30L30 30L30 29L31 29L31 27L32 27L32 26L31 26L31 25L30 25L30 26L29 26L29 30L28 30L28 29L23 29L23 28L20 28L20 27L19 27L19 24L18 24L18 23L19 23L19 22L20 22L20 23L21 23L21 25L20 25L20 26L21 26L21 27L24 27L24 26L22 26L22 25L23 25L23 24L22 24L22 23L23 23L23 22L22 22L22 21L23 21L23 20L25 20L25 19L23 19L23 18L24 18L24 17L23 17L23 16L20 16L20 17L19 17L19 18L18 18L18 19L19 19L19 21L18 21L18 20L17 20L17 21L16 21L16 19L15 19L15 20L13 20L13 21L14 21L14 22L15 22L15 23L17 23L17 24L16 24L16 25L13 25L13 26L15 26L15 27L16 27L16 28L17 28L17 27L16 27L16 26L17 26L17 24L18 24L18 30L19 30L19 29L21 29L21 31L18 31L18 32L22 32L22 31L23 31L23 30L28 30L28 31L30 31L30 32L27 32L27 31L25 31L25 32L26 32L26 34L27 34L27 33L31 33L31 34L30 34L30 35L31 35L31 36L30 36L30 37L31 37L31 38L33 38L33 39L32 39L32 40L35 40L35 39L36 39L36 40L37 40L37 41L36 41L36 42L35 42L35 41L34 41L34 43L33 43L33 41L31 41L31 40L29 40L29 39L28 39L28 41L27 41L27 39L26 39L26 41L27 41L27 42L22 42L22 43L21 43L21 42L20 42L20 41L19 41L19 43L20 43L20 45L19 45L19 46L20 46L20 45L22 45L22 47L21 47L21 48L20 48L20 47L19 47L19 48L18 48L18 43L17 43L17 42L16 42L16 41L15 41L15 40L14 40L14 41L13 41L13 42L12 42L12 46L13 46L13 47L12 47L12 48L13 48L13 47L14 47L14 46L15 46L15 45L16 45L16 46L17 46L17 48L18 48L18 49L19 49L19 51L20 51L20 52L21 52L21 54L23 54L23 52L24 52L24 50L23 50L23 51L22 51L22 48L23 48L23 46L24 46L24 47L25 47L25 48L26 48L26 45L28 45L28 44L32 44L32 43L33 43L33 46L34 46L34 47L33 47L33 52L32 52L32 53L31 53L31 51L30 51L30 50L31 50L31 49L30 49L30 48L32 48L32 45L30 45L30 46L27 46L27 47L28 47L28 48L29 48L29 52L30 52L30 53L28 53L28 54L29 54L29 55L26 55L26 56L28 56L28 57L29 57L29 56L30 56L30 58L31 58L31 57L32 57L32 55L31 55L31 54L34 54L34 55L33 55L33 56L35 56L35 57L36 57L36 56L37 56L37 55L36 55L36 56L35 56L35 53L36 53L36 54L39 54L39 53L41 53L41 54L40 54L40 55L41 55L41 56L42 56L42 55L43 55L43 58L42 58L42 60L41 60L41 58L39 58L39 57L40 57L40 56L39 56L39 55L38 55L38 59L39 59L39 60L37 60L37 59L34 59L34 58L33 58L33 59L34 59L34 60L35 60L35 62L34 62L34 61L33 61L33 64L32 64L32 65L33 65L33 64L35 64L35 65L36 65L36 64L38 64L38 63L39 63L39 62L40 62L40 64L39 64L39 65L40 65L40 64L41 64L41 65L42 65L42 66L43 66L43 65L42 65L42 64L43 64L43 62L42 62L42 60L43 60L43 61L44 61L44 62L46 62L46 63L48 63L48 61L47 61L47 62L46 62L46 61L44 61L44 60L46 60L46 59L47 59L47 56L48 56L48 55L49 55L49 57L50 57L50 58L49 58L49 59L50 59L50 58L51 58L51 57L50 57L50 55L49 55L49 54L50 54L50 53L49 53L49 54L48 54L48 53L47 53L47 51L46 51L46 52L44 52L44 51L45 51L45 50L44 50L44 51L41 51L41 50L40 50L40 49L42 49L42 48L43 48L43 49L46 49L46 50L48 50L48 49L46 49L46 48L48 48L48 47L49 47L49 48L54 48L54 45L53 45L53 47L52 47L52 46L51 46L51 45L50 45L50 42L48 42L48 41L49 41L49 40L50 40L50 41L51 41L51 36L52 36L52 38L53 38L53 36L54 36L54 34L55 34L55 37L56 37L56 38L57 38L57 39L58 39L58 38L59 38L59 37L56 37L56 36L57 36L57 33L58 33L58 32L57 32L57 33L56 33L56 34L55 34L55 33L53 33L53 32L56 32L56 30L51 30L51 29L49 29L49 31L48 31L48 30L47 30L47 29L48 29L48 28L47 28L47 27L48 27L48 24L49 24L49 23L50 23L50 22L49 22L49 23L48 23L48 21L49 21L49 20L50 20L50 21L51 21L51 24L54 24L54 21L51 21L51 20L50 20L50 17L49 17L49 18L48 18L48 17L47 17L47 18L46 18L46 16L45 16L45 18L43 18L43 17L44 17L44 15L43 15L43 17L42 17L42 15L41 15L41 16L40 16L40 15L37 15L37 14L39 14L39 13L38 13L38 12ZM43 12L43 13L44 13L44 12ZM51 13L51 15L50 15L50 16L51 16L51 17L53 17L53 16L54 16L54 13L53 13L53 14L52 14L52 13ZM47 14L47 15L48 15L48 14ZM56 14L56 15L55 15L55 16L56 16L56 17L57 17L57 16L56 16L56 15L57 15L57 14ZM51 15L51 16L52 16L52 15ZM14 16L14 17L15 17L15 16ZM72 16L72 17L73 17L73 18L70 18L70 19L71 19L71 22L72 22L72 19L73 19L73 21L76 21L76 22L75 22L75 23L74 23L74 24L76 24L76 23L77 23L77 24L78 24L78 25L79 25L79 24L78 24L78 23L77 23L77 21L78 21L78 20L77 20L77 17L75 17L75 16L74 16L74 17L73 17L73 16ZM20 17L20 18L19 18L19 19L20 19L20 22L21 22L21 23L22 23L22 22L21 22L21 20L23 20L23 19L20 19L20 18L21 18L21 17ZM54 17L54 18L53 18L53 19L52 19L52 20L55 20L55 21L56 21L56 19L57 19L57 18L56 18L56 19L55 19L55 17ZM42 18L42 19L43 19L43 18ZM47 18L47 19L48 19L48 18ZM73 18L73 19L74 19L74 20L75 20L75 19L76 19L76 18ZM78 18L78 19L79 19L79 18ZM0 19L0 20L1 20L1 19ZM44 19L44 20L45 20L45 21L46 21L46 22L44 22L44 26L43 26L43 27L44 27L44 28L40 28L40 30L39 30L39 31L40 31L40 30L43 30L43 31L41 31L41 32L43 32L43 31L44 31L44 30L45 30L45 31L46 31L46 30L45 30L45 27L46 27L46 25L47 25L47 24L48 24L48 23L47 23L47 21L48 21L48 20L47 20L47 21L46 21L46 20L45 20L45 19ZM60 19L60 20L61 20L61 19ZM76 20L76 21L77 21L77 20ZM17 21L17 23L18 23L18 21ZM30 21L30 22L31 22L31 21ZM67 21L67 22L68 22L68 21ZM3 22L3 23L4 23L4 22ZM12 22L12 23L11 23L11 24L13 24L13 22ZM52 22L52 23L53 23L53 22ZM24 23L24 24L25 24L25 23ZM30 23L30 24L31 24L31 23ZM40 23L40 24L41 24L41 23ZM46 23L46 24L47 24L47 23ZM57 24L57 25L56 25L56 26L55 26L55 27L54 27L54 26L53 26L53 28L54 28L54 29L58 29L58 28L56 28L56 27L57 27L57 25L58 25L58 26L59 26L59 25L60 25L60 24L59 24L59 25L58 25L58 24ZM5 25L5 28L8 28L8 25ZM25 25L25 28L28 28L28 25ZM36 25L36 28L35 28L35 29L36 29L36 28L37 28L37 29L38 29L38 26L39 26L39 25L38 25L38 26L37 26L37 25ZM49 25L49 28L52 28L52 25ZM73 25L73 28L76 28L76 25ZM3 26L3 28L4 28L4 26ZM6 26L6 27L7 27L7 26ZM26 26L26 27L27 27L27 26ZM30 26L30 27L31 27L31 26ZM44 26L44 27L45 27L45 26ZM50 26L50 27L51 27L51 26ZM63 26L63 27L64 27L64 28L65 28L65 27L64 27L64 26ZM74 26L74 27L75 27L75 26ZM78 26L78 27L79 27L79 28L80 28L80 27L79 27L79 26ZM46 28L46 29L47 29L47 28ZM77 28L77 29L78 29L78 28ZM2 29L2 30L3 30L3 29ZM4 29L4 30L5 30L5 31L6 31L6 32L4 32L4 31L3 31L3 32L2 32L2 33L3 33L3 32L4 32L4 34L3 34L3 36L2 36L2 37L3 37L3 38L5 38L5 37L4 37L4 36L5 36L5 35L4 35L4 34L5 34L5 33L6 33L6 34L7 34L7 35L6 35L6 36L7 36L7 37L6 37L6 38L8 38L8 36L7 36L7 35L8 35L8 34L7 34L7 33L6 33L6 32L7 32L7 31L6 31L6 30L7 30L7 29L6 29L6 30L5 30L5 29ZM10 30L10 32L11 32L11 30ZM34 30L34 31L35 31L35 30ZM50 30L50 32L49 32L49 33L50 33L50 36L51 36L51 35L52 35L52 33L51 33L51 30ZM52 31L52 32L53 32L53 31ZM64 31L64 32L66 32L66 31ZM75 31L75 32L76 32L76 31ZM69 32L69 33L68 33L68 34L69 34L69 33L70 33L70 34L71 34L71 33L70 33L70 32ZM73 32L73 33L74 33L74 32ZM21 33L21 34L22 34L22 33ZM33 33L33 35L35 35L35 36L34 36L34 37L35 37L35 38L36 38L36 37L37 37L37 36L36 36L36 35L35 35L35 34L34 34L34 33ZM62 33L62 34L61 34L61 35L62 35L62 34L63 34L63 33ZM64 33L64 34L65 34L65 33ZM28 34L28 36L29 36L29 34ZM47 34L47 35L48 35L48 34ZM20 35L20 36L21 36L21 35ZM45 35L45 36L44 36L44 37L43 37L43 38L41 38L41 40L39 40L39 42L38 42L38 41L37 41L37 42L38 42L38 43L39 43L39 42L40 42L40 41L43 41L43 40L44 40L44 42L43 42L43 43L42 43L42 42L41 42L41 43L42 43L42 44L41 44L41 45L42 45L42 46L41 46L41 47L39 47L39 46L36 46L36 47L37 47L37 48L38 48L38 49L35 49L35 47L34 47L34 49L35 49L35 51L34 51L34 52L33 52L33 53L35 53L35 51L36 51L36 50L37 50L37 52L36 52L36 53L37 53L37 52L38 52L38 53L39 53L39 52L40 52L40 51L39 51L39 52L38 52L38 50L39 50L39 49L40 49L40 48L41 48L41 47L43 47L43 48L44 48L44 46L45 46L45 45L46 45L46 44L45 44L45 45L43 45L43 43L47 43L47 40L44 40L44 38L45 38L45 36L46 36L46 38L47 38L47 39L48 39L48 40L49 40L49 39L50 39L50 37L49 37L49 38L48 38L48 37L47 37L47 36L46 36L46 35ZM70 35L70 36L71 36L71 35ZM31 36L31 37L33 37L33 36ZM35 36L35 37L36 37L36 36ZM10 37L10 38L11 38L11 37ZM62 37L62 38L63 38L63 37ZM75 37L75 38L76 38L76 37ZM79 37L79 39L80 39L80 37ZM1 38L1 39L2 39L2 41L3 41L3 39L2 39L2 38ZM19 39L19 40L20 40L20 39ZM42 39L42 40L43 40L43 39ZM75 39L75 40L76 40L76 39ZM21 40L21 41L22 41L22 40ZM52 40L52 43L51 43L51 44L54 44L54 43L53 43L53 40ZM30 41L30 42L29 42L29 43L30 43L30 42L31 42L31 43L32 43L32 42L31 42L31 41ZM45 41L45 42L46 42L46 41ZM71 41L71 44L73 44L73 41ZM13 42L13 43L14 43L14 44L13 44L13 45L14 45L14 44L15 44L15 43L16 43L16 44L17 44L17 43L16 43L16 42ZM78 42L78 43L79 43L79 42ZM23 43L23 44L24 44L24 46L25 46L25 45L26 45L26 44L28 44L28 43L25 43L25 44L24 44L24 43ZM34 43L34 46L35 46L35 45L37 45L37 44L36 44L36 43ZM48 43L48 44L47 44L47 47L48 47L48 46L49 46L49 47L50 47L50 45L48 45L48 44L49 44L49 43ZM67 43L67 44L70 44L70 43ZM74 43L74 45L75 45L75 46L76 46L76 45L75 45L75 43ZM10 44L10 45L11 45L11 44ZM38 44L38 45L40 45L40 44ZM57 44L57 45L58 45L58 46L59 46L59 48L60 48L60 49L61 49L61 48L62 48L62 46L61 46L61 45L58 45L58 44ZM6 45L6 46L7 46L7 45ZM30 46L30 47L29 47L29 48L30 48L30 47L31 47L31 46ZM45 47L45 48L46 48L46 47ZM19 48L19 49L20 49L20 48ZM69 48L69 49L68 49L68 50L67 50L67 49L65 49L65 50L67 50L67 51L68 51L68 53L67 53L67 55L68 55L68 56L67 56L67 57L69 57L69 55L71 55L71 57L72 57L72 55L71 55L71 54L69 54L69 53L72 53L72 51L71 51L71 52L69 52L69 49L70 49L70 50L71 50L71 49L72 49L72 48L71 48L71 49L70 49L70 48ZM5 49L5 52L8 52L8 49ZM25 49L25 52L28 52L28 49ZM49 49L49 52L52 52L52 49ZM73 49L73 52L76 52L76 49ZM6 50L6 51L7 51L7 50ZM20 50L20 51L21 51L21 52L22 52L22 51L21 51L21 50ZM26 50L26 51L27 51L27 50ZM50 50L50 51L51 51L51 50ZM74 50L74 51L75 51L75 50ZM77 50L77 51L78 51L78 50ZM65 51L65 52L66 52L66 51ZM10 52L10 53L9 53L9 54L10 54L10 53L12 53L12 52ZM4 53L4 54L5 54L5 53ZM26 53L26 54L27 54L27 53ZM44 53L44 54L46 54L46 53ZM73 53L73 55L76 55L76 56L75 56L75 57L76 57L76 56L77 56L77 55L76 55L76 53L75 53L75 54L74 54L74 53ZM77 53L77 54L78 54L78 53ZM19 54L19 55L20 55L20 54ZM41 54L41 55L42 55L42 54ZM68 54L68 55L69 55L69 54ZM2 55L2 56L3 56L3 55ZM4 55L4 56L5 56L5 55ZM45 55L45 56L44 56L44 58L43 58L43 59L45 59L45 58L46 58L46 57L45 57L45 56L46 56L46 55ZM56 55L56 58L57 58L57 56L58 56L58 55ZM60 55L60 56L61 56L61 55ZM54 56L54 57L55 57L55 56ZM73 56L73 57L74 57L74 56ZM11 58L11 59L10 59L10 60L9 60L9 61L7 61L7 60L6 60L6 61L7 61L7 62L5 62L5 63L7 63L7 64L9 64L9 65L10 65L10 70L8 70L8 69L7 69L7 70L8 70L8 71L9 71L9 72L10 72L10 73L11 73L11 72L10 72L10 71L11 71L11 69L12 69L12 67L11 67L11 65L12 65L12 64L9 64L9 63L7 63L7 62L10 62L10 63L12 63L12 62L13 62L13 63L15 63L15 61L14 61L14 60L13 60L13 58ZM54 58L54 59L55 59L55 58ZM58 58L58 59L56 59L56 61L53 61L53 60L52 60L52 61L51 61L51 62L50 62L50 63L51 63L51 64L50 64L50 65L51 65L51 66L50 66L50 67L53 67L53 66L54 66L54 65L55 65L55 64L53 64L53 63L54 63L54 62L57 62L57 60L58 60L58 59L59 59L59 58ZM2 59L2 60L3 60L3 59ZM11 59L11 60L10 60L10 61L11 61L11 62L12 62L12 59ZM15 59L15 60L16 60L16 59ZM19 59L19 60L20 60L20 59ZM27 59L27 60L28 60L28 61L31 61L31 60L29 60L29 59ZM73 59L73 60L74 60L74 59ZM4 60L4 61L5 61L5 60ZM13 61L13 62L14 62L14 61ZM24 61L24 63L26 63L26 61ZM52 61L52 63L53 63L53 61ZM37 62L37 63L38 63L38 62ZM41 63L41 64L42 64L42 63ZM66 63L66 64L67 64L67 63ZM80 63L80 64L81 64L81 63ZM25 64L25 65L24 65L24 67L25 67L25 68L27 68L27 69L29 69L29 65L28 65L28 64ZM51 64L51 65L52 65L52 64ZM26 65L26 66L25 66L25 67L26 67L26 66L27 66L27 67L28 67L28 65ZM1 66L1 67L2 67L2 66ZM5 66L5 67L7 67L7 68L9 68L9 66L8 66L8 67L7 67L7 66ZM35 66L35 67L36 67L36 66ZM60 67L60 68L61 68L61 67ZM16 68L16 69L17 69L17 68ZM30 68L30 69L31 69L31 70L32 70L32 69L33 69L33 68ZM69 68L69 69L68 69L68 70L69 70L69 69L70 69L70 70L71 70L71 69L70 69L70 68ZM62 69L62 70L64 70L64 69ZM78 69L78 70L77 70L77 71L78 71L78 72L77 72L77 76L78 76L78 72L79 72L79 69ZM41 70L41 74L42 74L42 72L43 72L43 73L44 73L44 71L45 71L45 70L43 70L43 71L42 71L42 70ZM69 72L69 73L71 73L71 74L72 74L72 72ZM22 73L22 74L23 74L23 75L24 75L24 74L23 74L23 73ZM25 73L25 76L28 76L28 73ZM49 73L49 76L52 76L52 73ZM73 73L73 76L76 76L76 73ZM26 74L26 75L27 75L27 74ZM50 74L50 75L51 75L51 74ZM74 74L74 75L75 75L75 74ZM47 75L47 76L46 76L46 77L45 77L45 78L47 78L47 76L48 76L48 75ZM22 76L22 77L23 77L23 78L24 78L24 76ZM56 76L56 77L57 77L57 76ZM68 76L68 77L70 77L70 76ZM10 77L10 78L11 78L11 77ZM16 77L16 78L17 78L17 77ZM28 77L28 78L29 78L29 77ZM31 77L31 79L30 79L30 80L31 80L31 79L32 79L32 78L33 78L33 77ZM49 77L49 78L50 78L50 79L51 79L51 78L50 78L50 77ZM62 77L62 78L63 78L63 77ZM12 78L12 79L14 79L14 78ZM37 78L37 79L38 79L38 78ZM77 78L77 79L78 79L78 78ZM17 79L17 80L18 80L18 81L20 81L20 79L19 79L19 80L18 80L18 79ZM71 79L71 80L72 80L72 79ZM45 80L45 81L47 81L47 80ZM0 0L0 7L7 7L7 0ZM1 1L1 6L6 6L6 1ZM2 2L2 5L5 5L5 2ZM74 0L74 7L81 7L81 0ZM75 1L75 6L80 6L80 1ZM76 2L76 5L79 5L79 2ZM0 74L0 81L7 81L7 74ZM1 75L1 80L6 80L6 75ZM2 76L2 79L5 79L5 76Z" fill="#000000"/></g></g></svg>
