<?xml version="1.0" encoding="UTF-8"?>
<svg xmlns="http://www.w3.org/2000/svg" version="1.1" width="400" height="400" viewBox="0 0 400 400"><rect x="0" y="0" width="400" height="400" fill="#fefefe"/><g transform="scale(4.706)"><g transform="translate(4,4)"><path fill-rule="evenodd" d="M9 0L9 1L8 1L8 3L9 3L9 6L8 6L8 7L9 7L9 10L10 10L10 12L8 12L8 11L7 11L7 10L8 10L8 9L7 9L7 8L5 8L5 9L4 9L4 8L1 8L1 11L0 11L0 15L3 15L3 16L4 16L4 19L3 19L3 18L2 18L2 19L3 19L3 21L4 21L4 22L3 22L3 23L4 23L4 25L3 25L3 24L2 24L2 23L1 23L1 24L0 24L0 28L1 28L1 29L3 29L3 32L0 32L0 33L2 33L2 34L0 34L0 37L2 37L2 38L0 38L0 39L3 39L3 40L5 40L5 41L7 41L7 42L5 42L5 43L7 43L7 42L8 42L8 43L11 43L11 44L9 44L9 45L11 45L11 46L10 46L10 47L9 47L9 46L6 46L6 45L7 45L7 44L4 44L4 42L3 42L3 41L1 41L1 40L0 40L0 42L1 42L1 44L0 44L0 45L1 45L1 44L2 44L2 45L4 45L4 46L3 46L3 48L4 48L4 50L3 50L3 49L2 49L2 47L1 47L1 46L0 46L0 47L1 47L1 48L0 48L0 50L3 50L3 52L4 52L4 53L3 53L3 55L4 55L4 53L5 53L5 52L4 52L4 51L7 51L7 52L6 52L6 53L7 53L7 54L6 54L6 55L5 55L5 56L6 56L6 57L4 57L4 56L2 56L2 51L1 51L1 53L0 53L0 55L1 55L1 56L0 56L0 57L2 57L2 58L1 58L1 59L0 59L0 62L1 62L1 64L2 64L2 65L1 65L1 67L2 67L2 66L3 66L3 64L4 64L4 68L1 68L1 69L5 69L5 67L8 67L8 70L9 70L9 71L8 71L8 72L9 72L9 71L10 71L10 73L8 73L8 76L9 76L9 77L11 77L11 76L12 76L12 77L13 77L13 76L12 76L12 75L13 75L13 74L14 74L14 76L15 76L15 77L17 77L17 76L18 76L18 75L19 75L19 77L23 77L23 76L24 76L24 77L26 77L26 73L27 73L27 74L28 74L28 75L29 75L29 74L28 74L28 73L30 73L30 74L33 74L33 73L32 73L32 72L34 72L34 73L35 73L35 74L37 74L37 72L35 72L35 71L37 71L37 69L38 69L38 71L39 71L39 69L40 69L40 68L39 68L39 66L40 66L40 67L42 67L42 65L43 65L43 67L44 67L44 68L43 68L43 69L42 69L42 70L40 70L40 73L39 73L39 72L38 72L38 74L39 74L39 75L35 75L35 77L41 77L41 76L42 76L42 77L44 77L44 72L43 72L43 70L44 70L44 71L45 71L45 70L46 70L46 72L45 72L45 73L46 73L46 74L47 74L47 75L49 75L49 76L50 76L50 77L53 77L53 75L51 75L51 73L52 73L52 74L54 74L54 73L52 73L52 72L51 72L51 69L52 69L52 71L53 71L53 70L56 70L56 71L58 71L58 72L59 72L59 73L56 73L56 72L55 72L55 73L56 73L56 74L55 74L55 77L60 77L60 76L61 76L61 77L63 77L63 76L65 76L65 77L70 77L70 76L65 76L65 75L63 75L63 76L61 76L61 75L62 75L62 74L64 74L64 73L65 73L65 74L66 74L66 75L68 75L68 73L73 73L73 75L74 75L74 76L73 76L73 77L76 77L76 76L77 76L77 74L76 74L76 71L77 71L77 70L74 70L74 69L73 69L73 68L72 68L72 66L71 66L71 65L73 65L73 63L72 63L72 62L69 62L69 61L68 61L68 62L67 62L67 63L66 63L66 62L65 62L65 63L63 63L63 62L64 62L64 60L65 60L65 59L64 59L64 60L63 60L63 62L62 62L62 57L64 57L64 58L65 58L65 57L68 57L68 58L67 58L67 60L66 60L66 61L67 61L67 60L70 60L70 58L72 58L72 59L73 59L73 60L74 60L74 63L75 63L75 65L76 65L76 66L75 66L75 67L74 67L74 68L75 68L75 67L76 67L76 69L77 69L77 67L76 67L76 66L77 66L77 65L76 65L76 64L77 64L77 63L76 63L76 61L75 61L75 59L76 59L76 60L77 60L77 59L76 59L76 57L77 57L77 53L75 53L75 54L76 54L76 55L74 55L74 54L73 54L73 57L74 57L74 56L76 56L76 57L75 57L75 58L74 58L74 59L73 59L73 58L72 58L72 56L71 56L71 57L68 57L68 55L67 55L67 54L66 54L66 52L65 52L65 51L66 51L66 48L67 48L67 47L66 47L66 46L68 46L68 51L67 51L67 52L68 52L68 54L69 54L69 55L70 55L70 53L71 53L71 54L72 54L72 53L71 53L71 52L75 52L75 50L76 50L76 52L77 52L77 49L73 49L73 46L74 46L74 45L73 45L73 46L72 46L72 43L73 43L73 44L74 44L74 43L76 43L76 42L77 42L77 41L76 41L76 40L77 40L77 38L76 38L76 35L77 35L77 31L76 31L76 30L74 30L74 27L75 27L75 28L76 28L76 29L77 29L77 26L75 26L75 25L76 25L76 23L77 23L77 22L74 22L74 21L77 21L77 20L73 20L73 21L72 21L72 17L73 17L73 18L74 18L74 17L75 17L75 19L76 19L76 18L77 18L77 17L76 17L76 16L77 16L77 14L76 14L76 13L74 13L74 12L75 12L75 11L76 11L76 12L77 12L77 11L76 11L76 10L75 10L75 11L74 11L74 10L73 10L73 9L72 9L72 10L71 10L71 9L70 9L70 10L69 10L69 9L68 9L68 10L69 10L69 11L67 11L67 5L69 5L69 1L68 1L68 4L65 4L65 3L66 3L66 2L67 2L67 1L66 1L66 0L64 0L64 2L65 2L65 3L64 3L64 4L63 4L63 3L62 3L62 0L61 0L61 6L60 6L60 7L61 7L61 6L62 6L62 7L63 7L63 6L62 6L62 4L63 4L63 5L64 5L64 4L65 4L65 6L64 6L64 11L63 11L63 10L62 10L62 11L61 11L61 8L59 8L59 6L58 6L58 8L57 8L57 10L58 10L58 8L59 8L59 11L60 11L60 12L58 12L58 13L60 13L60 12L61 12L61 14L60 14L60 15L62 15L62 16L61 16L61 17L60 17L60 16L59 16L59 15L56 15L56 13L57 13L57 11L54 11L54 10L52 10L52 11L54 11L54 12L56 12L56 13L53 13L53 12L52 12L52 13L51 13L51 12L50 12L50 11L48 11L48 10L49 10L49 9L50 9L50 10L51 10L51 5L52 5L52 7L53 7L53 8L52 8L52 9L53 9L53 8L54 8L54 7L55 7L55 6L56 6L56 7L57 7L57 6L56 6L56 5L59 5L59 4L60 4L60 1L57 1L57 2L55 2L55 3L53 3L53 4L51 4L51 3L52 3L52 1L53 1L53 0L52 0L52 1L51 1L51 3L50 3L50 2L48 2L48 3L50 3L50 4L47 4L47 3L46 3L46 0L45 0L45 1L44 1L44 0L42 0L42 1L41 1L41 0L39 0L39 1L38 1L38 2L36 2L36 3L35 3L35 2L34 2L34 0L32 0L32 1L31 1L31 0L30 0L30 1L31 1L31 3L30 3L30 2L29 2L29 0L27 0L27 1L25 1L25 0L23 0L23 1L22 1L22 5L23 5L23 6L22 6L22 7L21 7L21 5L20 5L20 4L19 4L19 3L18 3L18 2L19 2L19 0L17 0L17 1L16 1L16 0L15 0L15 3L18 3L18 5L20 5L20 7L21 7L21 8L19 8L19 9L21 9L21 11L20 11L20 13L18 13L18 11L17 11L17 13L18 13L18 14L20 14L20 16L21 16L21 17L23 17L23 18L24 18L24 19L22 19L22 18L21 18L21 20L20 20L20 21L19 21L19 20L17 20L17 23L18 23L18 22L21 22L21 24L22 24L22 25L21 25L21 26L22 26L22 25L23 25L23 26L24 26L24 30L22 30L22 29L21 29L21 30L20 30L20 33L18 33L18 31L19 31L19 29L18 29L18 28L16 28L16 29L15 29L15 30L16 30L16 31L15 31L15 32L14 32L14 35L12 35L12 34L13 34L13 31L14 31L14 29L13 29L13 28L15 28L15 27L14 27L14 25L15 25L15 24L16 24L16 23L14 23L14 24L13 24L13 21L14 21L14 22L16 22L16 19L18 19L18 18L20 18L20 17L19 17L19 16L18 16L18 17L17 17L17 18L16 18L16 15L17 15L17 14L16 14L16 13L15 13L15 14L14 14L14 12L16 12L16 11L15 11L15 10L14 10L14 9L13 9L13 8L12 8L12 9L11 9L11 8L10 8L10 7L11 7L11 5L10 5L10 4L12 4L12 5L13 5L13 4L12 4L12 2L11 2L11 3L10 3L10 0ZM35 0L35 1L36 1L36 0ZM47 0L47 1L48 1L48 0ZM49 0L49 1L50 1L50 0ZM55 0L55 1L56 1L56 0ZM13 1L13 3L14 3L14 1ZM17 1L17 2L18 2L18 1ZM23 1L23 3L26 3L26 4L27 4L27 2L28 2L28 4L30 4L30 3L29 3L29 2L28 2L28 1L27 1L27 2L24 2L24 1ZM32 1L32 2L33 2L33 1ZM39 1L39 5L38 5L38 4L37 4L37 3L36 3L36 6L35 6L35 7L34 7L34 6L33 6L33 5L32 5L32 4L31 4L31 7L30 7L30 5L29 5L29 7L30 7L30 8L29 8L29 11L28 11L28 10L27 10L27 11L26 11L26 9L23 9L23 8L24 8L24 6L23 6L23 7L22 7L22 8L21 8L21 9L23 9L23 10L22 10L22 11L21 11L21 13L20 13L20 14L21 14L21 13L22 13L22 15L23 15L23 16L24 16L24 15L25 15L25 14L24 14L24 13L25 13L25 12L24 12L24 11L23 11L23 10L25 10L25 11L26 11L26 14L27 14L27 15L26 15L26 16L25 16L25 17L26 17L26 18L27 18L27 17L26 17L26 16L27 16L27 15L28 15L28 14L29 14L29 17L30 17L30 16L31 16L31 18L30 18L30 19L28 19L28 21L30 21L30 22L29 22L29 23L28 23L28 22L27 22L27 20L26 20L26 22L25 22L25 24L26 24L26 22L27 22L27 24L29 24L29 26L30 26L30 27L33 27L33 26L31 26L31 25L32 25L32 24L31 24L31 23L33 23L33 24L34 24L34 27L35 27L35 28L36 28L36 29L37 29L37 28L36 28L36 27L38 27L38 30L39 30L39 28L40 28L40 29L41 29L41 30L40 30L40 31L39 31L39 32L38 32L38 31L37 31L37 30L36 30L36 31L35 31L35 32L38 32L38 33L37 33L37 35L36 35L36 36L34 36L34 35L35 35L35 34L33 34L33 33L32 33L32 32L31 32L31 31L33 31L33 32L34 32L34 30L35 30L35 29L34 29L34 28L31 28L31 29L32 29L32 30L30 30L30 29L26 29L26 30L28 30L28 31L29 31L29 32L30 32L30 33L32 33L32 34L33 34L33 35L31 35L31 36L33 36L33 37L31 37L31 38L30 38L30 37L29 37L29 35L27 35L27 34L28 34L28 32L27 32L27 31L25 31L25 30L24 30L24 31L21 31L21 32L24 32L24 33L23 33L23 35L24 35L24 34L26 34L26 35L25 35L25 36L26 36L26 37L27 37L27 38L29 38L29 40L28 40L28 39L27 39L27 40L28 40L28 41L30 41L30 40L32 40L32 39L31 39L31 38L33 38L33 37L36 37L36 38L34 38L34 39L35 39L35 40L33 40L33 41L31 41L31 42L28 42L28 43L32 43L32 42L33 42L33 44L34 44L34 45L32 45L32 46L33 46L33 47L35 47L35 48L32 48L32 47L31 47L31 45L30 45L30 44L29 44L29 46L30 46L30 48L29 48L29 49L30 49L30 51L29 51L29 52L31 52L31 53L30 53L30 54L28 54L28 55L27 55L27 57L26 57L26 56L23 56L23 54L24 54L24 55L26 55L26 54L27 54L27 53L28 53L28 52L26 52L26 51L23 51L23 50L22 50L22 47L20 47L20 48L18 48L18 50L17 50L17 49L16 49L16 47L17 47L17 46L16 46L16 45L17 45L17 44L18 44L18 45L20 45L20 44L21 44L21 46L22 46L22 44L21 44L21 43L20 43L20 44L19 44L19 42L20 42L20 41L22 41L22 42L23 42L23 43L24 43L24 42L25 42L25 43L26 43L26 42L27 42L27 41L26 41L26 42L25 42L25 40L24 40L24 39L23 39L23 38L25 38L25 39L26 39L26 38L25 38L25 37L23 37L23 36L21 36L21 35L22 35L22 34L21 34L21 33L20 33L20 34L18 34L18 33L17 33L17 32L15 32L15 33L17 33L17 34L15 34L15 38L14 38L14 39L12 39L12 40L11 40L11 38L13 38L13 37L12 37L12 35L11 35L11 33L12 33L12 32L11 32L11 31L13 31L13 30L12 30L12 28L13 28L13 27L12 27L12 24L11 24L11 27L12 27L12 28L11 28L11 30L10 30L10 28L9 28L9 29L5 29L5 30L4 30L4 31L5 31L5 33L6 33L6 34L7 34L7 35L5 35L5 36L4 36L4 33L3 33L3 35L1 35L1 36L4 36L4 37L3 37L3 39L5 39L5 37L6 37L6 38L7 38L7 39L6 39L6 40L7 40L7 39L9 39L9 38L10 38L10 40L8 40L8 42L9 42L9 41L11 41L11 42L13 42L13 43L12 43L12 44L11 44L11 45L13 45L13 43L14 43L14 49L13 49L13 48L11 48L11 47L12 47L12 46L11 46L11 47L10 47L10 48L9 48L9 50L10 50L10 51L13 51L13 50L14 50L14 51L15 51L15 52L13 52L13 53L15 53L15 54L14 54L14 55L13 55L13 54L9 54L9 51L8 51L8 52L7 52L7 53L8 53L8 54L7 54L7 55L6 55L6 56L7 56L7 55L8 55L8 54L9 54L9 55L13 55L13 56L12 56L12 57L11 57L11 56L10 56L10 57L11 57L11 58L9 58L9 56L8 56L8 59L9 59L9 60L8 60L8 61L9 61L9 60L10 60L10 62L9 62L9 63L10 63L10 62L11 62L11 61L12 61L12 60L13 60L13 61L14 61L14 62L12 62L12 64L11 64L11 65L12 65L12 64L13 64L13 63L16 63L16 65L19 65L19 66L16 66L16 68L15 68L15 64L14 64L14 65L13 65L13 66L10 66L10 67L14 67L14 70L15 70L15 71L13 71L13 68L10 68L10 69L12 69L12 71L11 71L11 70L10 70L10 71L11 71L11 74L9 74L9 76L10 76L10 75L11 75L11 74L12 74L12 71L13 71L13 73L15 73L15 72L16 72L16 74L15 74L15 76L17 76L17 74L19 74L19 75L20 75L20 76L21 76L21 73L23 73L23 72L24 72L24 71L23 71L23 72L20 72L20 70L22 70L22 69L20 69L20 68L21 68L21 67L23 67L23 68L25 68L25 67L26 67L26 68L27 68L27 67L26 67L26 66L25 66L25 64L24 64L24 67L23 67L23 66L22 66L22 65L19 65L19 64L22 64L22 63L24 63L24 62L25 62L25 61L24 61L24 62L22 62L22 60L20 60L20 58L21 58L21 57L22 57L22 58L25 58L25 59L23 59L23 60L25 60L25 59L26 59L26 60L27 60L27 59L26 59L26 58L27 58L27 57L28 57L28 60L29 60L29 62L32 62L32 63L33 63L33 62L32 62L32 61L35 61L35 60L36 60L36 61L37 61L37 62L39 62L39 63L37 63L37 64L39 64L39 65L40 65L40 66L41 66L41 65L40 65L40 64L44 64L44 65L46 65L46 66L45 66L45 68L46 68L46 67L48 67L48 68L49 68L49 67L50 67L50 66L49 66L49 67L48 67L48 65L50 65L50 63L52 63L52 64L51 64L51 65L52 65L52 64L53 64L53 65L56 65L56 64L57 64L57 66L58 66L58 67L56 67L56 66L52 66L52 67L51 67L51 68L52 68L52 67L55 67L55 68L53 68L53 69L56 69L56 70L57 70L57 69L58 69L58 70L59 70L59 69L60 69L60 70L61 70L61 71L62 71L62 70L63 70L63 71L65 71L65 72L66 72L66 74L67 74L67 72L68 72L68 70L67 70L67 66L66 66L66 63L65 63L65 67L66 67L66 70L67 70L67 72L66 72L66 71L65 71L65 70L63 70L63 69L64 69L64 67L63 67L63 65L62 65L62 66L58 66L58 65L59 65L59 64L57 64L57 63L54 63L54 62L58 62L58 60L60 60L60 61L59 61L59 63L60 63L60 62L61 62L61 60L60 60L60 59L59 59L59 58L58 58L58 57L60 57L60 58L61 58L61 56L62 56L62 55L63 55L63 56L65 56L65 55L63 55L63 54L59 54L59 52L60 52L60 53L61 53L61 52L62 52L62 53L63 53L63 52L62 52L62 51L65 51L65 50L62 50L62 49L61 49L61 51L60 51L60 50L59 50L59 49L60 49L60 48L58 48L58 47L59 47L59 45L58 45L58 46L57 46L57 45L56 45L56 44L55 44L55 43L54 43L54 41L55 41L55 42L56 42L56 43L57 43L57 44L59 44L59 43L61 43L61 45L65 45L65 44L64 44L64 43L67 43L67 42L64 42L64 43L63 43L63 44L62 44L62 43L61 43L61 42L63 42L63 40L65 40L65 41L67 41L67 40L66 40L66 38L67 38L67 39L69 39L69 40L68 40L68 43L69 43L69 44L70 44L70 45L68 45L68 44L67 44L67 45L68 45L68 46L71 46L71 43L70 43L70 41L71 41L71 42L73 42L73 40L75 40L75 38L74 38L74 37L75 37L75 35L76 35L76 34L75 34L75 33L76 33L76 32L74 32L74 31L73 31L73 32L72 32L72 31L71 31L71 32L70 32L70 29L68 29L68 34L69 34L69 35L67 35L67 31L66 31L66 33L65 33L65 35L64 35L64 31L65 31L65 29L64 29L64 31L63 31L63 32L62 32L62 30L60 30L60 29L63 29L63 27L64 27L64 28L66 28L66 30L67 30L67 28L66 28L66 27L67 27L67 26L68 26L68 24L66 24L66 23L65 23L65 22L63 22L63 23L62 23L62 19L63 19L63 18L62 18L62 17L61 17L61 18L62 18L62 19L61 19L61 20L60 20L60 22L61 22L61 23L62 23L62 25L61 25L61 24L60 24L60 23L59 23L59 24L58 24L58 23L56 23L56 22L59 22L59 20L58 20L58 19L56 19L56 18L52 18L52 19L50 19L50 18L51 18L51 17L52 17L52 16L53 16L53 17L56 17L56 16L54 16L54 15L55 15L55 14L54 14L54 15L52 15L52 14L53 14L53 13L52 13L52 14L51 14L51 15L50 15L50 14L48 14L48 16L50 16L50 18L49 18L49 20L47 20L47 16L46 16L46 17L44 17L44 16L45 16L45 15L46 15L46 14L45 14L45 13L46 13L46 12L47 12L47 13L50 13L50 12L47 12L47 11L45 11L45 12L44 12L44 16L43 16L43 14L42 14L42 13L43 13L43 12L40 12L40 13L37 13L37 12L38 12L38 10L36 10L36 9L37 9L37 8L41 8L41 10L39 10L39 11L41 11L41 10L42 10L42 11L43 11L43 10L44 10L44 8L45 8L45 10L48 10L48 9L46 9L46 8L45 8L45 7L46 7L46 5L44 5L44 4L45 4L45 2L44 2L44 4L43 4L43 2L41 2L41 1ZM20 2L20 3L21 3L21 2ZM40 2L40 3L41 3L41 5L43 5L43 4L42 4L42 3L41 3L41 2ZM57 2L57 4L59 4L59 3L58 3L58 2ZM34 3L34 4L35 4L35 3ZM15 4L15 5L16 5L16 7L15 7L15 6L14 6L14 7L15 7L15 9L16 9L16 10L17 10L17 9L18 9L18 7L19 7L19 6L18 6L18 7L17 7L17 4ZM23 4L23 5L24 5L24 4ZM54 4L54 5L53 5L53 7L54 7L54 6L55 6L55 4ZM25 5L25 8L28 8L28 5ZM47 5L47 8L50 8L50 5ZM9 6L9 7L10 7L10 6ZM12 6L12 7L13 7L13 6ZM26 6L26 7L27 7L27 6ZM32 6L32 7L33 7L33 6ZM36 6L36 8L34 8L34 9L36 9L36 8L37 8L37 6ZM38 6L38 7L39 7L39 6ZM40 6L40 7L41 7L41 8L42 8L42 10L43 10L43 8L42 8L42 7L43 7L43 6L42 6L42 7L41 7L41 6ZM44 6L44 7L45 7L45 6ZM48 6L48 7L49 7L49 6ZM65 6L65 7L66 7L66 6ZM68 6L68 7L69 7L69 6ZM16 7L16 8L17 8L17 7ZM31 8L31 9L32 9L32 10L31 10L31 11L30 11L30 13L29 13L29 14L31 14L31 13L32 13L32 12L33 12L33 11L32 11L32 10L33 10L33 9L32 9L32 8ZM74 8L74 9L76 9L76 8ZM2 9L2 11L1 11L1 12L2 12L2 13L1 13L1 14L3 14L3 12L2 12L2 11L3 11L3 9ZM5 9L5 10L7 10L7 9ZM10 9L10 10L11 10L11 11L12 11L12 12L11 12L11 13L9 13L9 14L8 14L8 13L6 13L6 12L7 12L7 11L4 11L4 12L5 12L5 13L4 13L4 15L5 15L5 16L7 16L7 15L8 15L8 17L9 17L9 18L10 18L10 19L8 19L8 18L7 18L7 17L6 17L6 18L5 18L5 20L4 20L4 21L5 21L5 20L8 20L8 24L9 24L9 25L10 25L10 22L9 22L9 21L11 21L11 23L12 23L12 21L11 21L11 20L12 20L12 19L11 19L11 18L13 18L13 19L14 19L14 20L15 20L15 19L14 19L14 18L15 18L15 16L13 16L13 15L14 15L14 14L12 14L12 12L14 12L14 11L12 11L12 10L11 10L11 9ZM55 9L55 10L56 10L56 9ZM65 9L65 10L66 10L66 9ZM34 10L34 12L35 12L35 11L36 11L36 10ZM70 10L70 11L71 11L71 12L67 12L67 13L68 13L68 14L67 14L67 15L65 15L65 14L64 14L64 13L65 13L65 12L66 12L66 11L64 11L64 12L63 12L63 11L62 11L62 14L63 14L63 15L65 15L65 17L66 17L66 22L67 22L67 23L69 23L69 24L71 24L71 23L73 23L73 25L75 25L75 23L73 23L73 22L71 22L71 23L69 23L69 22L68 22L68 21L67 21L67 20L69 20L69 19L70 19L70 20L71 20L71 19L70 19L70 18L71 18L71 17L72 17L72 15L71 15L71 16L70 16L70 14L71 14L71 13L72 13L72 14L73 14L73 15L74 15L74 16L73 16L73 17L74 17L74 16L75 16L75 15L74 15L74 13L73 13L73 12L74 12L74 11L73 11L73 10L72 10L72 11L71 11L71 10ZM22 11L22 12L23 12L23 13L24 13L24 12L23 12L23 11ZM5 13L5 15L7 15L7 14L6 14L6 13ZM36 13L36 15L38 15L38 17L39 17L39 18L38 18L38 19L37 19L37 18L36 18L36 17L37 17L37 16L36 16L36 17L35 17L35 16L34 16L34 19L32 19L32 18L33 18L33 16L32 16L32 15L31 15L31 16L32 16L32 18L31 18L31 19L32 19L32 20L31 20L31 22L33 22L33 23L34 23L34 24L36 24L36 26L35 26L35 27L36 27L36 26L38 26L38 27L44 27L44 28L46 28L46 29L47 29L47 30L48 30L48 31L46 31L46 30L45 30L45 32L43 32L43 30L44 30L44 29L43 29L43 28L42 28L42 30L41 30L41 31L42 31L42 32L41 32L41 34L39 34L39 33L38 33L38 35L39 35L39 36L40 36L40 37L39 37L39 38L36 38L36 40L35 40L35 41L34 41L34 42L37 42L37 44L38 44L38 43L39 43L39 45L38 45L38 46L39 46L39 45L43 45L43 46L44 46L44 47L42 47L42 50L43 50L43 51L44 51L44 50L43 50L43 48L44 48L44 47L45 47L45 48L46 48L46 49L45 49L45 50L46 50L46 51L48 51L48 52L47 52L47 54L45 54L45 52L42 52L42 53L44 53L44 54L42 54L42 55L41 55L41 54L40 54L40 53L41 53L41 52L40 52L40 50L39 50L39 51L35 51L35 49L34 49L34 52L33 52L33 50L31 50L31 52L33 52L33 55L35 55L35 56L34 56L34 57L33 57L33 58L29 58L29 60L32 60L32 59L33 59L33 60L34 60L34 59L36 59L36 58L34 58L34 57L35 57L35 56L36 56L36 57L37 57L37 56L38 56L38 55L37 55L37 56L36 56L36 55L35 55L35 54L38 54L38 53L39 53L39 54L40 54L40 55L39 55L39 56L40 56L40 57L39 57L39 58L40 58L40 57L41 57L41 58L42 58L42 57L43 57L43 58L44 58L44 59L43 59L43 60L42 60L42 59L41 59L41 60L42 60L42 63L44 63L44 62L45 62L45 63L46 63L46 64L47 64L47 65L48 65L48 64L47 64L47 61L48 61L48 60L50 60L50 61L51 61L51 62L52 62L52 63L53 63L53 62L52 62L52 61L53 61L53 60L52 60L52 61L51 61L51 60L50 60L50 58L45 58L45 56L43 56L43 55L44 55L44 54L45 54L45 55L46 55L46 57L48 57L48 56L49 56L49 55L50 55L50 54L51 54L51 55L52 55L52 56L51 56L51 57L53 57L53 58L52 58L52 59L55 59L55 58L56 58L56 60L57 60L57 58L56 58L56 57L58 57L58 56L61 56L61 55L59 55L59 54L58 54L58 51L59 51L59 50L58 50L58 51L57 51L57 49L55 49L55 48L56 48L56 47L57 47L57 46L56 46L56 45L55 45L55 46L54 46L54 43L53 43L53 41L52 41L52 40L50 40L50 41L52 41L52 42L51 42L51 43L53 43L53 44L52 44L52 45L51 45L51 46L50 46L50 42L48 42L48 43L46 43L46 44L45 44L45 43L43 43L43 42L42 42L42 40L44 40L44 42L45 42L45 41L47 41L47 40L48 40L48 39L51 39L51 38L49 38L49 35L50 35L50 36L51 36L51 37L52 37L52 39L53 39L53 37L54 37L54 36L53 36L53 37L52 37L52 36L51 36L51 34L53 34L53 35L55 35L55 34L56 34L56 33L57 33L57 35L56 35L56 36L55 36L55 37L56 37L56 36L57 36L57 35L58 35L58 34L59 34L59 36L60 36L60 34L59 34L59 33L58 33L58 32L60 32L60 31L59 31L59 27L57 27L57 26L59 26L59 25L60 25L60 24L59 24L59 25L56 25L56 24L55 24L55 25L53 25L53 23L47 23L47 20L45 20L45 19L46 19L46 18L45 18L45 19L44 19L44 23L43 23L43 20L42 20L42 19L43 19L43 18L42 18L42 17L43 17L43 16L42 16L42 15L41 15L41 14L39 14L39 15L38 15L38 14L37 14L37 13ZM69 13L69 14L68 14L68 16L69 16L69 14L70 14L70 13ZM15 14L15 15L16 15L16 14ZM23 14L23 15L24 15L24 14ZM33 14L33 15L34 15L34 14ZM10 15L10 16L11 16L11 17L10 17L10 18L11 18L11 17L12 17L12 16L11 16L11 15ZM39 15L39 17L40 17L40 16L41 16L41 17L42 17L42 16L41 16L41 15ZM51 15L51 16L52 16L52 15ZM1 16L1 17L2 17L2 16ZM57 16L57 17L58 17L58 16ZM66 16L66 17L67 17L67 16ZM13 17L13 18L14 18L14 17ZM68 17L68 18L67 18L67 19L68 19L68 18L70 18L70 17ZM6 18L6 19L7 19L7 18ZM39 18L39 19L40 19L40 21L41 21L41 19L42 19L42 18L41 18L41 19L40 19L40 18ZM59 18L59 19L60 19L60 18ZM64 18L64 19L65 19L65 18ZM0 19L0 20L1 20L1 21L0 21L0 22L2 22L2 20L1 20L1 19ZM10 19L10 20L11 20L11 19ZM34 19L34 20L37 20L37 19ZM53 19L53 20L52 20L52 21L53 21L53 22L54 22L54 23L55 23L55 22L56 22L56 21L57 21L57 20L56 20L56 21L55 21L55 19ZM23 20L23 21L24 21L24 20ZM32 20L32 21L33 21L33 22L35 22L35 23L36 23L36 24L37 24L37 23L38 23L38 24L39 24L39 23L40 23L40 26L41 26L41 23L42 23L42 22L41 22L41 23L40 23L40 22L39 22L39 20L38 20L38 22L37 22L37 23L36 23L36 22L35 22L35 21L33 21L33 20ZM49 20L49 22L50 22L50 21L51 21L51 20ZM6 21L6 22L5 22L5 24L7 24L7 23L6 23L6 22L7 22L7 21ZM45 21L45 23L44 23L44 24L42 24L42 25L43 25L43 26L44 26L44 27L45 27L45 24L47 24L47 23L46 23L46 21ZM22 22L22 23L24 23L24 22ZM38 22L38 23L39 23L39 22ZM64 23L64 24L63 24L63 26L64 26L64 27L66 27L66 26L67 26L67 25L66 25L66 24L65 24L65 23ZM1 24L1 28L2 28L2 26L3 26L3 25L2 25L2 24ZM18 24L18 25L17 25L17 26L16 26L16 27L17 27L17 26L18 26L18 25L20 25L20 24ZM23 24L23 25L24 25L24 24ZM5 25L5 28L8 28L8 25ZM25 25L25 28L28 28L28 25ZM47 25L47 28L50 28L50 25ZM51 25L51 27L53 27L53 29L55 29L55 30L53 30L53 31L48 31L48 33L47 33L47 34L45 34L45 33L46 33L46 32L45 32L45 33L42 33L42 35L43 35L43 36L42 36L42 37L40 37L40 38L39 38L39 39L40 39L40 38L43 38L43 39L44 39L44 40L45 40L45 35L47 35L47 36L46 36L46 38L47 38L47 39L46 39L46 40L47 40L47 39L48 39L48 38L47 38L47 36L48 36L48 35L49 35L49 34L50 34L50 33L49 33L49 32L52 32L52 33L53 33L53 34L55 34L55 33L56 33L56 32L58 32L58 31L56 31L56 28L57 28L57 27L55 27L55 26L56 26L56 25L55 25L55 26L52 26L52 25ZM64 25L64 26L65 26L65 25ZM69 25L69 28L72 28L72 25ZM6 26L6 27L7 27L7 26ZM9 26L9 27L10 27L10 26ZM19 26L19 28L22 28L22 27L20 27L20 26ZM26 26L26 27L27 27L27 26ZM48 26L48 27L49 27L49 26ZM60 26L60 28L61 28L61 27L62 27L62 26ZM70 26L70 27L71 27L71 26ZM3 27L3 28L4 28L4 27ZM54 27L54 28L55 28L55 27ZM17 29L17 31L18 31L18 29ZM33 29L33 30L34 30L34 29ZM48 29L48 30L51 30L51 29ZM57 29L57 30L58 30L58 29ZM71 29L71 30L72 30L72 29ZM6 30L6 31L7 31L7 32L6 32L6 33L8 33L8 34L9 34L9 35L10 35L10 33L11 33L11 32L10 32L10 30L9 30L9 32L8 32L8 30ZM29 30L29 31L30 31L30 30ZM24 31L24 32L25 32L25 31ZM53 31L53 32L54 32L54 33L55 33L55 31ZM71 32L71 35L72 35L72 37L73 37L73 36L74 36L74 34L73 34L73 35L72 35L72 32ZM26 33L26 34L27 34L27 33ZM48 33L48 34L47 34L47 35L48 35L48 34L49 34L49 33ZM61 33L61 34L63 34L63 33ZM17 34L17 35L18 35L18 34ZM44 34L44 35L45 35L45 34ZM7 35L7 36L6 36L6 37L7 37L7 36L8 36L8 38L9 38L9 37L11 37L11 36L8 36L8 35ZM26 35L26 36L27 36L27 37L28 37L28 36L27 36L27 35ZM61 35L61 37L60 37L60 39L63 39L63 38L64 38L64 39L65 39L65 38L66 38L66 37L65 37L65 36L64 36L64 37L63 37L63 35ZM18 36L18 37L16 37L16 38L15 38L15 39L14 39L14 40L17 40L17 41L15 41L15 42L14 42L14 41L13 41L13 40L12 40L12 41L13 41L13 42L14 42L14 43L15 43L15 45L16 45L16 44L17 44L17 43L18 43L18 42L19 42L19 38L20 38L20 37L21 37L21 38L22 38L22 37L21 37L21 36ZM37 36L37 37L38 37L38 36ZM43 36L43 37L44 37L44 36ZM68 36L68 37L67 37L67 38L70 38L70 37L69 37L69 36ZM18 37L18 38L19 38L19 37ZM57 37L57 38L59 38L59 37ZM64 37L64 38L65 38L65 37ZM54 38L54 40L55 40L55 41L56 41L56 42L57 42L57 43L58 43L58 42L59 42L59 41L58 41L58 40L59 40L59 39L56 39L56 38ZM71 38L71 41L72 41L72 40L73 40L73 39L74 39L74 38L73 38L73 39L72 39L72 38ZM20 39L20 40L21 40L21 39ZM22 39L22 41L23 41L23 42L24 42L24 40L23 40L23 39ZM37 39L37 40L36 40L36 41L37 41L37 42L39 42L39 41L41 41L41 40L42 40L42 39L41 39L41 40L38 40L38 39ZM55 39L55 40L56 40L56 39ZM61 40L61 41L60 41L60 42L61 42L61 41L62 41L62 40ZM69 40L69 41L70 41L70 40ZM57 41L57 42L58 42L58 41ZM74 41L74 42L75 42L75 41ZM15 42L15 43L16 43L16 42ZM40 42L40 44L41 44L41 42ZM35 43L35 46L37 46L37 45L36 45L36 43ZM42 43L42 44L43 44L43 45L44 45L44 44L43 44L43 43ZM23 44L23 47L24 47L24 46L26 46L26 44L25 44L25 45L24 45L24 44ZM48 44L48 45L45 45L45 47L46 47L46 46L49 46L49 44ZM75 44L75 48L76 48L76 45L77 45L77 44ZM51 46L51 48L52 48L52 46ZM55 46L55 47L56 47L56 46ZM61 46L61 47L63 47L63 48L64 48L64 49L65 49L65 48L66 48L66 47L64 47L64 46ZM5 47L5 50L8 50L8 47ZM25 47L25 50L28 50L28 47ZM37 47L37 48L36 48L36 50L38 50L38 49L37 49L37 48L39 48L39 49L40 49L40 48L39 48L39 47ZM47 47L47 50L50 50L50 47ZM53 47L53 48L54 48L54 47ZM69 47L69 50L72 50L72 47ZM6 48L6 49L7 49L7 48ZM23 48L23 49L24 49L24 48ZM26 48L26 49L27 49L27 48ZM30 48L30 49L31 49L31 48ZM48 48L48 49L49 49L49 48ZM70 48L70 49L71 49L71 48ZM12 49L12 50L13 50L13 49ZM14 49L14 50L15 50L15 51L17 51L17 50L15 50L15 49ZM19 49L19 51L18 51L18 52L15 52L15 53L19 53L19 52L20 52L20 49ZM51 49L51 51L53 51L53 52L54 52L54 51L55 51L55 52L56 52L56 53L54 53L54 54L55 54L55 55L53 55L53 53L52 53L52 52L48 52L48 53L52 53L52 55L53 55L53 56L58 56L58 55L57 55L57 52L56 52L56 51L55 51L55 50L54 50L54 49ZM21 51L21 53L20 53L20 55L19 55L19 54L18 54L18 55L16 55L16 54L15 54L15 55L14 55L14 57L12 57L12 59L10 59L10 60L12 60L12 59L14 59L14 60L15 60L15 61L18 61L18 60L19 60L19 59L17 59L17 60L16 60L16 59L14 59L14 57L15 57L15 55L16 55L16 56L17 56L17 57L16 57L16 58L19 58L19 57L21 57L21 56L22 56L22 54L23 54L23 53L22 53L22 52L23 52L23 51ZM68 51L68 52L69 52L69 51ZM10 52L10 53L11 53L11 52ZM25 52L25 53L24 53L24 54L26 54L26 52ZM34 52L34 54L35 54L35 52ZM36 52L36 53L37 53L37 52ZM39 52L39 53L40 53L40 52ZM21 53L21 54L22 54L22 53ZM31 54L31 55L29 55L29 57L32 57L32 54ZM47 54L47 56L48 56L48 55L49 55L49 54ZM66 55L66 56L67 56L67 55ZM3 57L3 58L2 58L2 59L3 59L3 61L5 61L5 63L4 63L4 64L7 64L7 63L8 63L8 62L7 62L7 61L5 61L5 60L4 60L4 57ZM6 57L6 58L7 58L7 57ZM25 57L25 58L26 58L26 57ZM6 59L6 60L7 60L7 59ZM37 59L37 60L38 60L38 59ZM39 59L39 61L40 61L40 63L39 63L39 64L40 64L40 63L41 63L41 61L40 61L40 59ZM45 59L45 60L48 60L48 59ZM43 60L43 62L44 62L44 60ZM71 60L71 61L72 61L72 60ZM1 61L1 62L2 62L2 61ZM19 61L19 63L18 63L18 62L16 62L16 63L18 63L18 64L19 64L19 63L20 63L20 62L21 62L21 63L22 63L22 62L21 62L21 61ZM26 61L26 62L27 62L27 63L26 63L26 65L29 65L29 64L31 64L31 63L29 63L29 64L27 64L27 63L28 63L28 62L27 62L27 61ZM45 61L45 62L46 62L46 61ZM6 62L6 63L7 63L7 62ZM48 62L48 63L50 63L50 62ZM68 62L68 64L67 64L67 65L68 65L68 68L70 68L70 67L71 67L71 66L70 66L70 65L71 65L71 64L72 64L72 63L69 63L69 62ZM2 63L2 64L3 64L3 63ZM34 63L34 64L33 64L33 65L32 65L32 66L31 66L31 65L30 65L30 66L29 66L29 67L28 67L28 68L32 68L32 67L33 67L33 69L34 69L34 71L35 71L35 70L36 70L36 69L37 69L37 67L38 67L38 65L36 65L36 69L34 69L34 68L35 68L35 64L36 64L36 63ZM61 63L61 64L60 64L60 65L61 65L61 64L62 64L62 63ZM6 65L6 66L9 66L9 65ZM33 65L33 67L34 67L34 65ZM19 66L19 67L17 67L17 68L20 68L20 66ZM30 66L30 67L31 67L31 66ZM69 66L69 67L70 67L70 66ZM59 67L59 68L60 68L60 67ZM62 67L62 69L61 69L61 70L62 70L62 69L63 69L63 67ZM6 68L6 69L7 69L7 68ZM56 68L56 69L57 69L57 68ZM15 69L15 70L16 70L16 72L17 72L17 73L20 73L20 72L18 72L18 71L19 71L19 70L17 70L17 69ZM23 69L23 70L24 70L24 69ZM25 69L25 72L28 72L28 69ZM30 69L30 70L29 70L29 71L30 71L30 70L31 70L31 69ZM47 69L47 72L50 72L50 69ZM69 69L69 72L72 72L72 69ZM26 70L26 71L27 71L27 70ZM48 70L48 71L49 71L49 70ZM70 70L70 71L71 71L71 70ZM73 70L73 72L74 72L74 73L75 73L75 71L74 71L74 70ZM31 71L31 72L30 72L30 73L31 73L31 72L32 72L32 71ZM41 71L41 74L43 74L43 72L42 72L42 71ZM59 71L59 72L60 72L60 73L59 73L59 74L57 74L57 75L56 75L56 76L57 76L57 75L59 75L59 76L60 76L60 75L61 75L61 74L62 74L62 73L64 73L64 72L62 72L62 73L61 73L61 72L60 72L60 71ZM24 73L24 74L25 74L25 73ZM49 73L49 74L50 74L50 73ZM22 74L22 75L23 75L23 74ZM70 74L70 75L71 75L71 77L72 77L72 74ZM75 74L75 76L76 76L76 74ZM31 75L31 76L29 76L29 77L34 77L34 76L33 76L33 75ZM39 75L39 76L41 76L41 75ZM42 75L42 76L43 76L43 75ZM45 75L45 77L48 77L48 76L46 76L46 75ZM27 76L27 77L28 77L28 76ZM0 0L0 7L7 7L7 0ZM1 1L1 6L6 6L6 1ZM2 2L2 5L5 5L5 2ZM70 0L70 7L77 7L77 0ZM71 1L71 6L76 6L76 1ZM72 2L72 5L75 5L75 2ZM0 70L0 77L7 77L7 70ZM1 71L1 76L6 76L6 71ZM2 72L2 75L5 75L5 72Z" fill="#000000"/></g></g></svg>
