<?xml version="1.0" encoding="UTF-8"?>
<svg xmlns="http://www.w3.org/2000/svg" version="1.1" width="400" height="400" viewBox="0 0 400 400"><rect x="0" y="0" width="400" height="400" fill="#fefefe"/><g transform="scale(4.494)"><g transform="translate(4,4)"><path fill-rule="evenodd" d="M11 0L11 1L8 1L8 3L9 3L9 5L10 5L10 9L9 9L9 11L10 11L10 12L9 12L9 13L8 13L8 14L5 14L5 13L7 13L7 12L8 12L8 10L4 10L4 8L1 8L1 10L2 10L2 9L3 9L3 12L4 12L4 16L3 16L3 17L2 17L2 14L3 14L3 13L2 13L2 11L0 11L0 13L2 13L2 14L0 14L0 15L1 15L1 16L0 16L0 19L3 19L3 17L4 17L4 21L2 21L2 20L0 20L0 22L4 22L4 21L5 21L5 20L6 20L6 21L7 21L7 20L8 20L8 19L10 19L10 18L12 18L12 16L14 16L14 17L13 17L13 18L14 18L14 20L15 20L15 19L16 19L16 20L17 20L17 19L20 19L20 20L19 20L19 21L21 21L21 20L22 20L22 21L23 21L23 22L22 22L22 24L23 24L23 23L24 23L24 26L22 26L22 27L23 27L23 28L24 28L24 30L23 30L23 29L22 29L22 30L21 30L21 31L22 31L22 32L20 32L20 31L19 31L19 30L20 30L20 29L19 29L19 28L18 28L18 29L19 29L19 30L18 30L18 31L17 31L17 33L15 33L15 31L16 31L16 29L17 29L17 28L16 28L16 26L17 26L17 27L20 27L20 28L21 28L21 26L20 26L20 25L21 25L21 24L20 24L20 23L19 23L19 22L18 22L18 21L14 21L14 22L13 22L13 19L11 19L11 20L12 20L12 22L11 22L11 21L8 21L8 22L5 22L5 24L3 24L3 23L0 23L0 24L2 24L2 25L1 25L1 26L0 26L0 27L1 27L1 28L0 28L0 35L1 35L1 38L2 38L2 39L5 39L5 41L4 41L4 40L3 40L3 41L2 41L2 45L3 45L3 46L6 46L6 47L9 47L9 48L5 48L5 47L2 47L2 48L1 48L1 44L0 44L0 48L1 48L1 49L0 49L0 50L1 50L1 51L0 51L0 52L1 52L1 51L3 51L3 52L2 52L2 53L1 53L1 54L2 54L2 55L5 55L5 56L1 56L1 58L0 58L0 60L1 60L1 59L2 59L2 61L3 61L3 63L2 63L2 62L1 62L1 63L2 63L2 64L1 64L1 65L0 65L0 68L1 68L1 69L0 69L0 70L1 70L1 73L4 73L4 72L2 72L2 71L4 71L4 70L6 70L6 71L5 71L5 72L6 72L6 73L8 73L8 74L9 74L9 75L8 75L8 76L9 76L9 77L8 77L8 80L9 80L9 81L10 81L10 80L11 80L11 77L10 77L10 76L11 76L11 75L12 75L12 76L13 76L13 77L14 77L14 78L15 78L15 79L14 79L14 80L12 80L12 81L17 81L17 80L18 80L18 81L20 81L20 80L21 80L21 81L24 81L24 80L25 80L25 81L26 81L26 80L27 80L27 81L28 81L28 80L29 80L29 81L34 81L34 80L35 80L35 81L36 81L36 80L35 80L35 79L37 79L37 81L38 81L38 79L40 79L40 80L39 80L39 81L40 81L40 80L44 80L44 81L47 81L47 80L48 80L48 81L51 81L51 80L50 80L50 78L51 78L51 79L52 79L52 78L53 78L53 75L54 75L54 78L57 78L57 77L58 77L58 75L59 75L59 76L61 76L61 78L62 78L62 79L65 79L65 80L64 80L64 81L67 81L67 80L68 80L68 79L65 79L65 77L63 77L63 78L62 78L62 76L64 76L64 75L65 75L65 74L66 74L66 75L68 75L68 74L66 74L66 72L68 72L68 73L69 73L69 71L67 71L67 70L68 70L68 69L70 69L70 71L71 71L71 70L73 70L73 69L74 69L74 67L73 67L73 66L72 66L72 67L71 67L71 68L68 68L68 69L67 69L67 70L66 70L66 68L67 68L67 67L65 67L65 65L67 65L67 64L65 64L65 63L63 63L63 62L67 62L67 63L69 63L69 64L68 64L68 67L70 67L70 66L69 66L69 65L70 65L70 63L69 63L69 61L68 61L68 60L66 60L66 61L65 61L65 59L66 59L66 58L68 58L68 59L69 59L69 58L73 58L73 57L74 57L74 56L73 56L73 57L71 57L71 56L72 56L72 55L73 55L73 54L72 54L72 53L75 53L75 54L76 54L76 55L78 55L78 56L76 56L76 57L77 57L77 59L76 59L76 58L74 58L74 60L75 60L75 61L74 61L74 62L75 62L75 63L74 63L74 64L71 64L71 65L75 65L75 68L76 68L76 67L77 67L77 68L78 68L78 71L80 71L80 72L81 72L81 71L80 71L80 69L79 69L79 67L78 67L78 66L76 66L76 64L75 64L75 63L76 63L76 62L75 62L75 61L76 61L76 60L77 60L77 63L78 63L78 64L77 64L77 65L81 65L81 64L79 64L79 63L80 63L80 59L81 59L81 58L80 58L80 57L78 57L78 56L79 56L79 55L80 55L80 56L81 56L81 55L80 55L80 54L79 54L79 55L78 55L78 54L76 54L76 53L78 53L78 52L80 52L80 53L81 53L81 49L80 49L80 48L81 48L81 45L80 45L80 43L79 43L79 45L76 45L76 46L78 46L78 48L77 48L77 47L74 47L74 46L73 46L73 45L74 45L74 44L75 44L75 43L76 43L76 44L78 44L78 42L77 42L77 43L76 43L76 41L75 41L75 40L76 40L76 39L77 39L77 40L79 40L79 42L80 42L80 41L81 41L81 39L80 39L80 38L81 38L81 37L79 37L79 34L80 34L80 36L81 36L81 34L80 34L80 31L81 31L81 30L78 30L78 28L77 28L77 27L79 27L79 26L80 26L80 25L79 25L79 26L77 26L77 25L78 25L78 24L79 24L79 20L80 20L80 19L79 19L79 20L77 20L77 24L76 24L76 22L75 22L75 21L76 21L76 20L75 20L75 21L74 21L74 20L73 20L73 23L72 23L72 25L69 25L69 23L66 23L66 22L70 22L70 24L71 24L71 21L68 21L68 20L67 20L67 19L66 19L66 18L65 18L65 20L66 20L66 22L64 22L64 23L66 23L66 24L64 24L64 25L62 25L62 24L63 24L63 23L61 23L61 24L60 24L60 22L63 22L63 21L64 21L64 17L65 17L65 16L64 16L64 15L65 15L65 13L66 13L66 12L65 12L65 13L63 13L63 12L62 12L62 11L63 11L63 10L65 10L65 11L67 11L67 12L69 12L69 11L68 11L68 10L72 10L72 9L73 9L73 6L72 6L72 5L71 5L71 6L70 6L70 8L69 8L69 9L67 9L67 6L68 6L68 7L69 7L69 6L68 6L68 5L66 5L66 7L65 7L65 6L64 6L64 7L63 7L63 5L62 5L62 11L60 11L60 10L59 10L59 11L58 11L58 12L56 12L56 11L55 11L55 10L53 10L53 11L55 11L55 12L54 12L54 13L55 13L55 12L56 12L56 14L55 14L55 15L54 15L54 14L53 14L53 12L51 12L51 11L52 11L52 9L56 9L56 10L58 10L58 9L59 9L59 8L61 8L61 6L60 6L60 7L59 7L59 6L58 6L58 8L57 8L57 9L56 9L56 7L57 7L57 6L56 6L56 5L58 5L58 4L60 4L60 3L61 3L61 4L62 4L62 3L63 3L63 2L61 2L61 1L63 1L63 0L61 0L61 1L60 1L60 0L59 0L59 2L60 2L60 3L57 3L57 2L55 2L55 5L54 5L54 3L53 3L53 0L50 0L50 4L48 4L48 2L47 2L47 1L48 1L48 0L47 0L47 1L46 1L46 0L45 0L45 1L43 1L43 0L40 0L40 1L39 1L39 0L38 0L38 1L37 1L37 2L35 2L35 1L36 1L36 0L34 0L34 1L32 1L32 0L29 0L29 1L30 1L30 2L29 2L29 3L30 3L30 2L35 2L35 3L34 3L34 4L33 4L33 3L32 3L32 4L33 4L33 5L31 5L31 6L30 6L30 4L26 4L26 2L27 2L27 3L28 3L28 0L27 0L27 1L26 1L26 2L25 2L25 1L24 1L24 2L25 2L25 4L24 4L24 7L23 7L23 6L22 6L22 5L23 5L23 4L21 4L21 3L23 3L23 2L20 2L20 1L19 1L19 2L18 2L18 0L17 0L17 1L16 1L16 0L15 0L15 1L13 1L13 2L12 2L12 0ZM21 0L21 1L23 1L23 0ZM55 0L55 1L58 1L58 0ZM65 0L65 2L66 2L66 3L65 3L65 4L64 4L64 5L65 5L65 4L66 4L66 3L69 3L69 5L70 5L70 4L71 4L71 2L72 2L72 4L73 4L73 1L68 1L68 0L67 0L67 1L66 1L66 0ZM38 1L38 4L39 4L39 7L40 7L40 2L39 2L39 1ZM41 1L41 2L42 2L42 3L41 3L41 7L42 7L42 3L43 3L43 4L44 4L44 5L43 5L43 8L42 8L42 10L43 10L43 11L47 11L47 12L46 12L46 13L47 13L47 15L46 15L46 16L47 16L47 15L49 15L49 14L50 14L50 13L51 13L51 12L49 12L49 11L51 11L51 9L50 9L50 10L48 10L48 11L47 11L47 9L48 9L48 8L47 8L47 7L48 7L48 6L47 6L47 7L46 7L46 5L48 5L48 4L44 4L44 2L42 2L42 1ZM45 1L45 3L46 3L46 1ZM67 1L67 2L68 2L68 1ZM9 2L9 3L11 3L11 4L16 4L16 5L14 5L14 6L13 6L13 5L11 5L11 9L12 9L12 10L10 10L10 11L11 11L11 12L10 12L10 13L9 13L9 14L8 14L8 15L9 15L9 14L11 14L11 13L12 13L12 14L15 14L15 13L18 13L18 12L15 12L15 11L17 11L17 10L16 10L16 9L17 9L17 7L18 7L18 6L19 6L19 7L20 7L20 8L18 8L18 11L19 11L19 10L20 10L20 12L19 12L19 13L20 13L20 14L16 14L16 15L18 15L18 16L21 16L21 17L23 17L23 18L22 18L22 19L24 19L24 20L23 20L23 21L25 21L25 22L24 22L24 23L27 23L27 24L28 24L28 23L29 23L29 21L30 21L30 20L31 20L31 21L32 21L32 23L31 23L31 22L30 22L30 23L31 23L31 24L32 24L32 23L33 23L33 20L31 20L31 19L32 19L32 18L30 18L30 17L31 17L31 15L32 15L32 16L33 16L33 17L34 17L34 15L32 15L32 14L36 14L36 13L37 13L37 16L39 16L39 17L40 17L40 18L39 18L39 19L41 19L41 17L40 17L40 15L38 15L38 14L40 14L40 13L41 13L41 12L42 12L42 13L43 13L43 14L44 14L44 15L43 15L43 16L42 16L42 15L41 15L41 16L42 16L42 17L43 17L43 18L42 18L42 19L43 19L43 20L44 20L44 22L43 22L43 21L42 21L42 20L41 20L41 21L42 21L42 22L40 22L40 20L39 20L39 22L36 22L36 23L35 23L35 21L36 21L36 20L35 20L35 19L36 19L36 18L37 18L37 19L38 19L38 18L37 18L37 17L36 17L36 18L34 18L34 23L35 23L35 24L37 24L37 23L40 23L40 24L39 24L39 25L40 25L40 26L39 26L39 28L42 28L42 27L43 27L43 29L44 29L44 30L42 30L42 29L41 29L41 30L42 30L42 31L43 31L43 32L40 32L40 34L39 34L39 31L38 31L38 30L39 30L39 29L38 29L38 28L36 28L36 25L32 25L32 26L35 26L35 28L34 28L34 30L31 30L31 28L32 28L32 27L30 27L30 26L31 26L31 25L30 25L30 24L29 24L29 25L30 25L30 26L29 26L29 30L31 30L31 33L33 33L33 34L34 34L34 35L33 35L33 37L34 37L34 38L36 38L36 37L38 37L38 38L37 38L37 39L34 39L34 40L32 40L32 39L33 39L33 38L32 38L32 39L31 39L31 44L30 44L30 48L31 48L31 49L32 49L32 50L29 50L29 53L24 53L24 51L22 51L22 52L21 52L21 53L20 53L20 52L15 52L15 49L14 49L14 48L17 48L17 49L16 49L16 51L19 51L19 50L20 50L20 49L21 49L21 48L20 48L20 49L18 49L18 48L17 48L17 47L19 47L19 46L18 46L18 45L19 45L19 43L17 43L17 46L16 46L16 45L15 45L15 46L14 46L14 44L16 44L16 43L14 43L14 41L13 41L13 40L11 40L11 39L12 39L12 38L13 38L13 39L17 39L17 37L18 37L18 39L19 39L19 38L20 38L20 39L22 39L22 38L23 38L23 39L24 39L24 40L22 40L22 41L21 41L21 40L20 40L20 41L19 41L19 40L18 40L18 41L19 41L19 42L20 42L20 41L21 41L21 42L23 42L23 43L22 43L22 44L23 44L23 43L25 43L25 46L24 46L24 48L25 48L25 47L26 47L26 45L27 45L27 48L29 48L29 46L28 46L28 44L29 44L29 43L30 43L30 39L29 39L29 38L31 38L31 37L32 37L32 35L30 35L30 36L28 36L28 33L27 33L27 34L26 34L26 32L27 32L27 31L28 31L28 32L29 32L29 34L30 34L30 31L28 31L28 30L27 30L27 29L25 29L25 31L23 31L23 30L22 30L22 31L23 31L23 32L22 32L22 33L21 33L21 34L22 34L22 35L21 35L21 36L22 36L22 35L23 35L23 34L24 34L24 35L26 35L26 36L27 36L27 37L28 37L28 38L26 38L26 37L25 37L25 38L23 38L23 37L21 37L21 38L20 38L20 37L19 37L19 36L20 36L20 33L19 33L19 35L18 35L18 33L17 33L17 34L16 34L16 35L18 35L18 36L16 36L16 37L13 37L13 33L12 33L12 32L11 32L11 33L10 33L10 31L13 31L13 32L14 32L14 31L15 31L15 30L14 30L14 31L13 31L13 29L16 29L16 28L15 28L15 27L13 27L13 25L15 25L15 26L16 26L16 25L15 25L15 24L13 24L13 23L11 23L11 24L12 24L12 27L13 27L13 29L12 29L12 28L11 28L11 26L10 26L10 27L9 27L9 29L6 29L6 30L4 30L4 31L3 31L3 32L4 32L4 31L6 31L6 32L7 32L7 33L3 33L3 34L1 34L1 35L3 35L3 34L4 34L4 35L5 35L5 34L7 34L7 33L8 33L8 35L9 35L9 36L7 36L7 35L6 35L6 36L5 36L5 37L3 37L3 36L2 36L2 38L5 38L5 39L6 39L6 40L7 40L7 41L6 41L6 42L5 42L5 43L3 43L3 45L4 45L4 44L5 44L5 45L6 45L6 46L9 46L9 47L10 47L10 48L9 48L9 49L10 49L10 50L9 50L9 52L10 52L10 53L9 53L9 55L8 55L8 53L5 53L5 54L7 54L7 55L6 55L6 56L5 56L5 57L2 57L2 58L5 58L5 59L6 59L6 60L5 60L5 61L4 61L4 59L3 59L3 61L4 61L4 62L5 62L5 61L6 61L6 62L7 62L7 63L4 63L4 64L5 64L5 65L4 65L4 67L6 67L6 68L8 68L8 69L6 69L6 70L7 70L7 71L6 71L6 72L9 72L9 74L10 74L10 75L9 75L9 76L10 76L10 75L11 75L11 74L12 74L12 75L13 75L13 74L12 74L12 73L14 73L14 75L16 75L16 74L15 74L15 73L14 73L14 71L16 71L16 70L17 70L17 72L18 72L18 73L17 73L17 76L18 76L18 74L19 74L19 76L22 76L22 77L16 77L16 79L15 79L15 80L17 80L17 78L18 78L18 80L19 80L19 78L21 78L21 79L22 79L22 80L24 80L24 79L27 79L27 78L28 78L28 79L29 79L29 80L34 80L34 78L35 78L35 77L36 77L36 78L38 78L38 77L36 77L36 76L38 76L38 75L39 75L39 77L40 77L40 76L42 76L42 73L44 73L44 74L43 74L43 75L44 75L44 76L43 76L43 77L42 77L42 79L43 79L43 77L44 77L44 78L46 78L46 77L44 77L44 76L47 76L47 77L48 77L48 78L47 78L47 79L48 79L48 78L49 78L49 77L48 77L48 73L47 73L47 72L48 72L48 71L47 71L47 72L45 72L45 73L44 73L44 72L42 72L42 71L43 71L43 70L42 70L42 69L41 69L41 67L42 67L42 65L43 65L43 62L44 62L44 60L45 60L45 63L46 63L46 65L45 65L45 64L44 64L44 65L45 65L45 67L44 67L44 66L43 66L43 67L44 67L44 68L43 68L43 69L45 69L45 70L46 70L46 69L47 69L47 70L48 70L48 69L47 69L47 68L46 68L46 67L49 67L49 68L50 68L50 69L49 69L49 70L50 70L50 69L51 69L51 68L52 68L52 69L53 69L53 70L54 70L54 69L53 69L53 67L55 67L55 68L56 68L56 69L57 69L57 70L55 70L55 71L57 71L57 72L58 72L58 74L59 74L59 75L61 75L61 76L62 76L62 74L63 74L63 75L64 75L64 73L65 73L65 72L66 72L66 71L65 71L65 72L64 72L64 70L65 70L65 68L64 68L64 67L63 67L63 66L62 66L62 67L61 67L61 66L60 66L60 65L64 65L64 64L62 64L62 62L61 62L61 61L57 61L57 60L58 60L58 58L57 58L57 56L58 56L58 57L59 57L59 55L60 55L60 54L61 54L61 56L60 56L60 58L59 58L59 60L60 60L60 59L61 59L61 56L62 56L62 58L63 58L63 59L62 59L62 60L63 60L63 61L64 61L64 57L63 57L63 56L64 56L64 55L63 55L63 53L64 53L64 52L65 52L65 55L66 55L66 53L67 53L67 55L68 55L68 53L67 53L67 52L66 52L66 50L68 50L68 51L71 51L71 52L70 52L70 53L69 53L69 56L68 56L68 57L69 57L69 56L71 56L71 52L72 52L72 51L71 51L71 50L72 50L72 49L71 49L71 48L74 48L74 47L70 47L70 46L71 46L71 45L72 45L72 44L74 44L74 42L75 42L75 41L74 41L74 42L73 42L73 41L72 41L72 38L73 38L73 37L72 37L72 36L74 36L74 37L75 37L75 38L76 38L76 36L74 36L74 35L78 35L78 30L77 30L77 29L76 29L76 31L74 31L74 30L75 30L75 29L72 29L72 28L71 28L71 30L73 30L73 31L74 31L74 32L73 32L73 33L74 33L74 34L72 34L72 33L71 33L71 32L72 32L72 31L70 31L70 30L69 30L69 29L70 29L70 28L69 28L69 29L67 29L67 27L66 27L66 25L64 25L64 26L62 26L62 25L60 25L60 26L59 26L59 25L58 25L58 24L59 24L59 23L58 23L58 21L57 21L57 20L58 20L58 19L60 19L60 20L61 20L61 21L63 21L63 20L62 20L62 19L63 19L63 17L64 17L64 16L63 16L63 17L62 17L62 14L60 14L60 13L59 13L59 12L58 12L58 13L57 13L57 14L56 14L56 15L55 15L55 16L54 16L54 15L52 15L52 17L51 17L51 15L50 15L50 17L51 17L51 18L53 18L53 19L55 19L55 20L56 20L56 21L55 21L55 23L54 23L54 21L53 21L53 22L51 22L51 21L52 21L52 19L50 19L50 18L49 18L49 16L48 16L48 18L47 18L47 17L46 17L46 18L45 18L45 19L43 19L43 18L44 18L44 17L45 17L45 16L44 16L44 15L45 15L45 14L44 14L44 13L45 13L45 12L44 12L44 13L43 13L43 12L42 12L42 11L40 11L40 12L39 12L39 13L38 13L38 12L37 12L37 9L38 9L38 10L41 10L41 9L38 9L38 8L37 8L37 7L38 7L38 5L37 5L37 7L36 7L36 4L37 4L37 3L36 3L36 4L35 4L35 7L36 7L36 9L35 9L35 8L34 8L34 9L32 9L32 8L31 8L31 7L32 7L32 6L31 6L31 7L30 7L30 6L29 6L29 10L28 10L28 9L24 9L24 10L26 10L26 11L25 11L25 13L26 13L26 14L25 14L25 15L24 15L24 11L23 11L23 10L22 10L22 11L21 11L21 10L20 10L20 8L21 8L21 9L22 9L22 8L21 8L21 7L22 7L22 6L21 6L21 7L20 7L20 6L19 6L19 4L20 4L20 2L19 2L19 3L18 3L18 2L17 2L17 3L15 3L15 2L13 2L13 3L11 3L11 2ZM51 2L51 3L52 3L52 4L53 4L53 3L52 3L52 2ZM69 2L69 3L70 3L70 2ZM25 5L25 8L28 8L28 5ZM49 5L49 8L52 8L52 5ZM53 5L53 7L54 7L54 5ZM8 6L8 7L9 7L9 6ZM12 6L12 8L14 8L14 9L13 9L13 10L14 10L14 11L13 11L13 13L15 13L15 12L14 12L14 11L15 11L15 10L14 10L14 9L15 9L15 8L16 8L16 7L17 7L17 6L16 6L16 7L15 7L15 6L14 6L14 7L13 7L13 6ZM26 6L26 7L27 7L27 6ZM33 6L33 7L34 7L34 6ZM44 6L44 9L43 9L43 10L46 10L46 9L45 9L45 6ZM50 6L50 7L51 7L51 6ZM55 6L55 7L56 7L56 6ZM71 6L71 7L72 7L72 6ZM64 7L64 8L63 8L63 9L65 9L65 10L66 10L66 8L65 8L65 7ZM5 8L5 9L7 9L7 8ZM71 8L71 9L72 9L72 8ZM78 8L78 9L77 9L77 11L76 11L76 12L75 12L75 13L77 13L77 14L75 14L75 15L74 15L74 13L73 13L73 12L74 12L74 11L75 11L75 10L76 10L76 9L74 9L74 11L73 11L73 12L72 12L72 13L71 13L71 12L70 12L70 14L71 14L71 15L69 15L69 16L70 16L70 17L69 17L69 18L68 18L68 19L70 19L70 20L72 20L72 17L73 17L73 19L75 19L75 18L74 18L74 17L76 17L76 19L78 19L78 17L77 17L77 16L78 16L78 15L79 15L79 16L80 16L80 18L81 18L81 15L80 15L80 14L81 14L81 10L79 10L79 9L80 9L80 8ZM27 10L27 11L26 11L26 13L27 13L27 14L26 14L26 15L29 15L29 17L28 17L28 16L27 16L27 18L26 18L26 19L25 19L25 21L26 21L26 22L27 22L27 23L28 23L28 22L27 22L27 21L28 21L28 20L30 20L30 19L29 19L29 17L30 17L30 15L29 15L29 14L31 14L31 13L33 13L33 12L34 12L34 13L35 13L35 12L36 12L36 10L34 10L34 11L32 11L32 10L31 10L31 11L29 11L29 13L27 13L27 12L28 12L28 10ZM78 10L78 11L77 11L77 12L78 12L78 11L79 11L79 10ZM6 11L6 12L7 12L7 11ZM22 11L22 12L21 12L21 13L22 13L22 14L21 14L21 16L23 16L23 17L24 17L24 16L23 16L23 15L22 15L22 14L23 14L23 11ZM34 11L34 12L35 12L35 11ZM30 12L30 13L31 13L31 12ZM47 12L47 13L49 13L49 12ZM79 12L79 13L78 13L78 14L80 14L80 12ZM58 13L58 15L57 15L57 16L58 16L58 17L57 17L57 18L56 18L56 19L58 19L58 18L60 18L60 19L62 19L62 18L60 18L60 17L61 17L61 15L59 15L59 13ZM67 13L67 16L66 16L66 17L68 17L68 13ZM63 14L63 15L64 15L64 14ZM72 14L72 15L71 15L71 17L72 17L72 15L73 15L73 16L74 16L74 15L73 15L73 14ZM6 15L6 16L5 16L5 17L6 17L6 18L5 18L5 19L6 19L6 20L7 20L7 19L6 19L6 18L7 18L7 17L8 17L8 18L10 18L10 16L7 16L7 15ZM14 15L14 16L15 16L15 15ZM35 15L35 16L36 16L36 15ZM75 15L75 16L77 16L77 15ZM6 16L6 17L7 17L7 16ZM16 16L16 17L14 17L14 18L16 18L16 17L17 17L17 16ZM43 16L43 17L44 17L44 16ZM59 16L59 17L60 17L60 16ZM1 17L1 18L2 18L2 17ZM18 17L18 18L20 18L20 17ZM53 17L53 18L55 18L55 17ZM27 18L27 20L26 20L26 21L27 21L27 20L28 20L28 18ZM48 18L48 20L49 20L49 22L50 22L50 23L51 23L51 22L50 22L50 21L51 21L51 20L50 20L50 19L49 19L49 18ZM45 19L45 20L46 20L46 19ZM46 21L46 25L47 25L47 26L46 26L46 27L47 27L47 26L48 26L48 28L47 28L47 29L46 29L46 28L44 28L44 29L46 29L46 30L45 30L45 31L44 31L44 33L43 33L43 34L42 34L42 33L41 33L41 34L40 34L40 35L42 35L42 36L44 36L44 35L45 35L45 34L46 34L46 33L45 33L45 31L46 31L46 30L47 30L47 33L48 33L48 31L49 31L49 30L51 30L51 31L50 31L50 33L49 33L49 34L47 34L47 35L46 35L46 37L44 37L44 38L42 38L42 39L41 39L41 38L39 38L39 39L37 39L37 42L36 42L36 41L35 41L35 42L34 42L34 41L32 41L32 43L33 43L33 42L34 42L34 43L35 43L35 44L34 44L34 45L35 45L35 46L33 46L33 45L31 45L31 47L33 47L33 48L32 48L32 49L33 49L33 54L32 54L32 55L31 55L31 54L28 54L28 57L26 57L26 56L27 56L27 54L24 54L24 53L22 53L22 54L21 54L21 55L20 55L20 53L18 53L18 54L19 54L19 55L17 55L17 58L16 58L16 56L15 56L15 55L16 55L16 54L17 54L17 53L15 53L15 52L12 52L12 51L11 51L11 50L10 50L10 52L11 52L11 53L10 53L10 54L12 54L12 53L14 53L14 54L13 54L13 55L14 55L14 56L12 56L12 57L10 57L10 55L9 55L9 56L8 56L8 58L6 58L6 57L7 57L7 56L6 56L6 57L5 57L5 58L6 58L6 59L11 59L11 60L8 60L8 61L9 61L9 62L10 62L10 65L9 65L9 66L8 66L8 64L6 64L6 65L5 65L5 66L6 66L6 67L7 67L7 66L8 66L8 68L9 68L9 70L8 70L8 71L9 71L9 72L10 72L10 73L12 73L12 71L9 71L9 70L10 70L10 69L11 69L11 70L12 70L12 69L15 69L15 70L16 70L16 68L14 68L14 67L12 67L12 66L11 66L11 65L14 65L14 64L12 64L12 63L13 63L13 62L12 62L12 63L11 63L11 62L10 62L10 61L11 61L11 60L12 60L12 61L13 61L13 59L14 59L14 58L15 58L15 59L17 59L17 60L16 60L16 61L14 61L14 63L15 63L15 64L16 64L16 66L15 66L15 67L17 67L17 65L18 65L18 63L19 63L19 61L20 61L20 59L21 59L21 58L22 58L22 59L23 59L23 60L21 60L21 61L22 61L22 62L20 62L20 64L19 64L19 66L18 66L18 68L17 68L17 70L18 70L18 71L24 71L24 70L25 70L25 71L26 71L26 70L27 70L27 72L21 72L21 73L19 73L19 74L21 74L21 75L22 75L22 76L23 76L23 77L25 77L25 78L26 78L26 77L28 77L28 78L29 78L29 79L30 79L30 77L29 77L29 74L31 74L31 73L29 73L29 72L30 72L30 71L31 71L31 72L33 72L33 71L34 71L34 74L33 74L33 73L32 73L32 75L30 75L30 76L32 76L32 79L33 79L33 78L34 78L34 77L35 77L35 76L36 76L36 75L37 75L37 73L38 73L38 74L39 74L39 73L38 73L38 72L37 72L37 73L35 73L35 72L36 72L36 71L35 71L35 70L33 70L33 69L38 69L38 71L39 71L39 72L41 72L41 71L42 71L42 70L41 70L41 71L40 71L40 66L41 66L41 65L40 65L40 66L39 66L39 68L38 68L38 65L37 65L37 63L36 63L36 62L35 62L35 58L36 58L36 59L37 59L37 60L38 60L38 62L43 62L43 61L42 61L42 60L40 60L40 61L39 61L39 59L37 59L37 58L36 58L36 57L37 57L37 56L36 56L36 55L38 55L38 54L39 54L39 55L40 55L40 56L41 56L41 57L42 57L42 56L47 56L47 55L50 55L50 54L47 54L47 52L48 52L48 53L52 53L52 55L51 55L51 56L52 56L52 55L55 55L55 56L53 56L53 58L52 58L52 57L50 57L50 56L48 56L48 57L46 57L46 58L49 58L49 59L46 59L46 62L47 62L47 63L48 63L48 60L50 60L50 61L49 61L49 63L50 63L50 62L51 62L51 60L52 60L52 61L53 61L53 59L55 59L55 60L56 60L56 59L55 59L55 56L57 56L57 55L58 55L58 54L60 54L60 52L61 52L61 54L62 54L62 52L61 52L61 51L62 51L62 50L64 50L64 51L63 51L63 52L64 52L64 51L65 51L65 50L66 50L66 48L68 48L68 49L69 49L69 50L71 50L71 49L69 49L69 46L70 46L70 45L69 45L69 44L68 44L68 45L67 45L67 46L66 46L66 43L67 43L67 41L66 41L66 43L65 43L65 46L64 46L64 47L66 47L66 48L64 48L64 49L62 49L62 48L63 48L63 47L61 47L61 46L63 46L63 45L64 45L64 42L65 42L65 39L64 39L64 41L61 41L61 39L62 39L62 40L63 40L63 39L62 39L62 38L61 38L61 37L59 37L59 36L60 36L60 35L61 35L61 36L62 36L62 35L63 35L63 38L64 38L64 37L65 37L65 38L66 38L66 37L65 37L65 35L67 35L67 34L65 34L65 32L66 32L66 33L67 33L67 32L69 32L69 34L68 34L68 35L69 35L69 34L70 34L70 38L69 38L69 37L68 37L68 36L67 36L67 37L68 37L68 38L67 38L67 40L68 40L68 39L69 39L69 42L68 42L68 43L70 43L70 44L71 44L71 43L73 43L73 42L72 42L72 41L71 41L71 40L70 40L70 39L71 39L71 36L72 36L72 34L70 34L70 32L69 32L69 31L67 31L67 32L66 32L66 31L64 31L64 30L63 30L63 31L62 31L62 32L63 32L63 33L61 33L61 34L60 34L60 32L61 32L61 31L60 31L60 32L59 32L59 33L58 33L58 32L55 32L55 31L53 31L53 30L51 30L51 29L53 29L53 26L55 26L55 27L54 27L54 30L55 30L55 29L56 29L56 28L57 28L57 29L59 29L59 28L61 28L61 30L62 30L62 29L64 29L64 28L65 28L65 26L64 26L64 28L61 28L61 27L62 27L62 26L61 26L61 27L59 27L59 28L58 28L58 27L57 27L57 26L58 26L58 25L55 25L55 24L56 24L56 23L57 23L57 21L56 21L56 23L55 23L55 24L49 24L49 23L48 23L48 22L47 22L47 21ZM8 22L8 23L6 23L6 24L8 24L8 23L9 23L9 25L10 25L10 23L9 23L9 22ZM14 22L14 23L16 23L16 22ZM74 22L74 23L73 23L73 24L75 24L75 22ZM80 22L80 24L81 24L81 22ZM17 23L17 24L18 24L18 25L17 25L17 26L19 26L19 23ZM42 23L42 24L40 24L40 25L44 25L44 26L43 26L43 27L44 27L44 26L45 26L45 25L44 25L44 24L45 24L45 23ZM3 25L3 26L4 26L4 25ZM5 25L5 28L8 28L8 25ZM25 25L25 28L28 28L28 25ZM49 25L49 28L52 28L52 25ZM73 25L73 28L76 28L76 25ZM1 26L1 27L2 27L2 26ZM6 26L6 27L7 27L7 26ZM26 26L26 27L27 27L27 26ZM50 26L50 27L51 27L51 26ZM68 26L68 27L72 27L72 26ZM74 26L74 27L75 27L75 26ZM55 27L55 28L56 28L56 27ZM80 27L80 28L79 28L79 29L81 29L81 27ZM1 28L1 29L2 29L2 30L3 30L3 29L2 29L2 28ZM9 29L9 30L6 30L6 31L8 31L8 33L9 33L9 34L10 34L10 35L11 35L11 36L10 36L10 38L9 38L9 37L7 37L7 36L6 36L6 37L5 37L5 38L6 38L6 39L7 39L7 38L8 38L8 42L9 42L9 43L7 43L7 42L6 42L6 43L5 43L5 44L6 44L6 45L9 45L9 44L10 44L10 46L11 46L11 45L12 45L12 46L13 46L13 44L14 44L14 43L13 43L13 44L12 44L12 43L11 43L11 44L10 44L10 41L9 41L9 39L11 39L11 38L12 38L12 37L11 37L11 36L12 36L12 35L11 35L11 34L10 34L10 33L9 33L9 31L10 31L10 30L12 30L12 29ZM36 29L36 30L38 30L38 29ZM47 29L47 30L49 30L49 29ZM66 29L66 30L67 30L67 29ZM26 30L26 31L27 31L27 30ZM34 30L34 31L35 31L35 30ZM57 30L57 31L59 31L59 30ZM32 31L32 32L33 32L33 31ZM52 31L52 32L51 32L51 33L50 33L50 34L49 34L49 35L50 35L50 36L48 36L48 35L47 35L47 38L48 38L48 39L45 39L45 38L44 38L44 39L45 39L45 40L44 40L44 43L43 43L43 40L42 40L42 42L41 42L41 43L40 43L40 42L38 42L38 43L36 43L36 44L35 44L35 45L36 45L36 44L38 44L38 43L40 43L40 44L39 44L39 46L38 46L38 45L37 45L37 46L38 46L38 47L37 47L37 48L38 48L38 50L37 50L37 51L38 51L38 52L39 52L39 53L42 53L42 54L41 54L41 55L42 55L42 54L44 54L44 55L45 55L45 54L46 54L46 53L45 53L45 52L44 52L44 53L42 53L42 52L43 52L43 49L44 49L44 48L45 48L45 47L46 47L46 46L47 46L47 49L46 49L46 50L47 50L47 51L46 51L46 52L47 52L47 51L48 51L48 50L47 50L47 49L48 49L48 48L49 48L49 46L48 46L48 45L49 45L49 44L50 44L50 46L51 46L51 47L50 47L50 48L54 48L54 49L53 49L53 54L54 54L54 53L55 53L55 55L57 55L57 54L58 54L58 53L59 53L59 52L60 52L60 51L61 51L61 50L62 50L62 49L61 49L61 48L60 48L60 47L59 47L59 46L61 46L61 45L63 45L63 44L62 44L62 42L59 42L59 39L61 39L61 38L59 38L59 37L58 37L58 34L57 34L57 35L56 35L56 33L55 33L55 32L54 32L54 33L52 33L52 32L53 32L53 31ZM63 31L63 32L64 32L64 31ZM23 32L23 33L22 33L22 34L23 34L23 33L24 33L24 32ZM34 32L34 33L36 33L36 34L35 34L35 35L34 35L34 37L35 37L35 36L38 36L38 37L39 37L39 36L38 36L38 35L39 35L39 34L38 34L38 32ZM74 32L74 33L75 33L75 34L77 34L77 33L76 33L76 32ZM14 33L14 34L15 34L15 33ZM51 33L51 34L52 34L52 35L51 35L51 36L50 36L50 41L51 41L51 39L52 39L52 38L51 38L51 37L52 37L52 35L54 35L54 34L55 34L55 33L54 33L54 34L52 34L52 33ZM63 33L63 34L64 34L64 35L65 35L65 34L64 34L64 33ZM37 34L37 35L38 35L38 34ZM43 34L43 35L44 35L44 34ZM61 34L61 35L62 35L62 34ZM14 35L14 36L15 36L15 35ZM30 36L30 37L31 37L31 36ZM40 36L40 37L41 37L41 36ZM55 36L55 38L54 38L54 37L53 37L53 38L54 38L54 39L55 39L55 40L56 40L56 41L53 41L53 40L52 40L52 41L53 41L53 42L52 42L52 43L50 43L50 42L49 42L49 43L50 43L50 44L52 44L52 43L53 43L53 45L54 45L54 44L55 44L55 46L56 46L56 45L57 45L57 47L55 47L55 48L57 48L57 47L58 47L58 48L59 48L59 49L57 49L57 50L56 50L56 49L54 49L54 50L55 50L55 51L54 51L54 52L55 52L55 53L56 53L56 52L57 52L57 53L58 53L58 52L59 52L59 49L60 49L60 48L59 48L59 47L58 47L58 46L59 46L59 45L57 45L57 43L58 43L58 44L59 44L59 42L58 42L58 37L57 37L57 36ZM6 37L6 38L7 38L7 37ZM48 37L48 38L49 38L49 37ZM77 37L77 39L78 39L78 38L79 38L79 37ZM25 38L25 39L26 39L26 38ZM56 38L56 39L57 39L57 38ZM27 39L27 40L28 40L28 39ZM39 39L39 41L40 41L40 40L41 40L41 39ZM48 39L48 41L47 41L47 40L46 40L46 41L45 41L45 42L48 42L48 41L49 41L49 39ZM73 39L73 40L74 40L74 39ZM79 39L79 40L80 40L80 39ZM0 40L0 42L1 42L1 40ZM25 40L25 43L26 43L26 44L28 44L28 43L27 43L27 42L29 42L29 41L26 41L26 40ZM3 41L3 42L4 42L4 41ZM12 41L12 42L13 42L13 41ZM53 42L53 43L55 43L55 44L56 44L56 43L57 43L57 42ZM70 42L70 43L71 43L71 42ZM6 43L6 44L7 44L7 43ZM44 43L44 44L42 44L42 45L41 45L41 44L40 44L40 45L41 45L41 46L43 46L43 47L42 47L42 49L43 49L43 47L45 47L45 46L46 46L46 44L45 44L45 43ZM47 43L47 44L48 44L48 43ZM20 44L20 45L21 45L21 44ZM22 45L22 48L23 48L23 45ZM44 45L44 46L45 46L45 45ZM68 45L68 46L67 46L67 47L68 47L68 46L69 46L69 45ZM15 46L15 47L16 47L16 46ZM35 46L35 50L34 50L34 51L35 51L35 52L34 52L34 56L33 56L33 57L32 57L32 58L30 58L30 57L31 57L31 56L30 56L30 57L28 57L28 58L26 58L26 57L25 57L25 55L22 55L22 56L23 56L23 57L22 57L22 58L23 58L23 59L24 59L24 58L25 58L25 62L24 62L24 60L23 60L23 63L22 63L22 64L23 64L23 66L24 66L24 68L23 68L23 69L21 69L21 66L22 66L22 65L21 65L21 64L20 64L20 65L21 65L21 66L19 66L19 68L18 68L18 70L19 70L19 68L20 68L20 69L21 69L21 70L23 70L23 69L25 69L25 67L26 67L26 69L28 69L28 67L27 67L27 66L30 66L30 67L29 67L29 68L31 68L31 66L32 66L32 67L34 67L34 68L36 68L36 67L35 67L35 66L34 66L34 65L35 65L35 64L33 64L33 63L32 63L32 62L33 62L33 61L34 61L34 58L35 58L35 57L36 57L36 56L35 56L35 55L36 55L36 54L37 54L37 53L36 53L36 54L35 54L35 52L36 52L36 51L35 51L35 50L36 50L36 46ZM39 46L39 47L40 47L40 46ZM52 46L52 47L53 47L53 46ZM79 46L79 47L80 47L80 46ZM11 47L11 48L10 48L10 49L12 49L12 50L13 50L13 49L12 49L12 47ZM13 47L13 48L14 48L14 47ZM33 48L33 49L34 49L34 48ZM39 48L39 50L40 50L40 48ZM1 49L1 50L3 50L3 51L4 51L4 50L3 50L3 49ZM5 49L5 52L8 52L8 49ZM17 49L17 50L18 50L18 49ZM22 49L22 50L23 50L23 49ZM25 49L25 52L28 52L28 49ZM49 49L49 52L52 52L52 49ZM64 49L64 50L65 50L65 49ZM73 49L73 52L76 52L76 49ZM78 49L78 50L79 50L79 51L80 51L80 50L79 50L79 49ZM6 50L6 51L7 51L7 50ZM26 50L26 51L27 51L27 50ZM41 50L41 52L42 52L42 50ZM44 50L44 51L45 51L45 50ZM50 50L50 51L51 51L51 50ZM57 50L57 51L58 51L58 50ZM74 50L74 51L75 51L75 50ZM39 51L39 52L40 52L40 51ZM55 51L55 52L56 52L56 51ZM77 51L77 52L78 52L78 51ZM3 52L3 53L2 53L2 54L4 54L4 52ZM31 52L31 53L32 53L32 52ZM14 54L14 55L15 55L15 54ZM14 56L14 57L12 57L12 59L13 59L13 58L14 58L14 57L15 57L15 56ZM18 56L18 57L19 57L19 59L20 59L20 57L21 57L21 56L20 56L20 57L19 57L19 56ZM38 56L38 57L39 57L39 56ZM66 56L66 57L65 57L65 58L66 58L66 57L67 57L67 56ZM9 57L9 58L10 58L10 57ZM23 57L23 58L24 58L24 57ZM33 57L33 58L32 58L32 61L30 61L30 60L31 60L31 59L30 59L30 60L29 60L29 58L28 58L28 59L27 59L27 60L26 60L26 62L25 62L25 63L23 63L23 64L25 64L25 65L24 65L24 66L26 66L26 65L27 65L27 64L28 64L28 65L29 65L29 64L30 64L30 63L31 63L31 65L32 65L32 63L31 63L31 62L32 62L32 61L33 61L33 58L34 58L34 57ZM44 57L44 58L43 58L43 59L45 59L45 57ZM17 58L17 59L18 59L18 58ZM41 58L41 59L42 59L42 58ZM51 58L51 59L50 59L50 60L51 60L51 59L52 59L52 58ZM70 59L70 62L71 62L71 59ZM77 59L77 60L78 60L78 59ZM6 60L6 61L7 61L7 60ZM17 60L17 61L16 61L16 62L17 62L17 63L16 63L16 64L17 64L17 63L18 63L18 62L17 62L17 61L19 61L19 60ZM27 61L27 62L26 62L26 63L25 63L25 64L27 64L27 62L28 62L28 61ZM55 61L55 62L52 62L52 63L51 63L51 64L49 64L49 65L50 65L50 66L49 66L49 67L50 67L50 66L51 66L51 67L53 67L53 66L55 66L55 65L56 65L56 68L57 68L57 69L58 69L58 70L59 70L59 71L60 71L60 72L59 72L59 73L60 73L60 72L61 72L61 73L62 73L62 72L63 72L63 71L61 71L61 70L63 70L63 69L64 69L64 68L63 68L63 69L61 69L61 70L59 70L59 69L60 69L60 68L61 68L61 67L59 67L59 66L58 66L58 64L59 64L59 65L60 65L60 64L61 64L61 62L60 62L60 64L59 64L59 62L58 62L58 63L57 63L57 62L56 62L56 61ZM67 61L67 62L68 62L68 61ZM78 61L78 62L79 62L79 61ZM29 62L29 63L28 63L28 64L29 64L29 63L30 63L30 62ZM34 62L34 63L35 63L35 62ZM72 62L72 63L73 63L73 62ZM38 63L38 64L40 64L40 63ZM53 63L53 64L52 64L52 65L51 65L51 66L53 66L53 65L55 65L55 64L56 64L56 63ZM2 64L2 65L3 65L3 64ZM6 65L6 66L7 66L7 65ZM46 65L46 66L48 66L48 65ZM1 66L1 68L2 68L2 69L1 69L1 70L2 70L2 69L3 69L3 70L4 70L4 68L2 68L2 67L3 67L3 66ZM10 66L10 67L11 67L11 68L12 68L12 67L11 67L11 66ZM57 67L57 68L58 68L58 69L59 69L59 68L58 68L58 67ZM32 68L32 69L31 69L31 70L32 70L32 71L33 71L33 70L32 70L32 69L33 69L33 68ZM45 68L45 69L46 69L46 68ZM71 68L71 69L73 69L73 68ZM29 69L29 71L28 71L28 72L29 72L29 71L30 71L30 69ZM13 70L13 71L14 71L14 70ZM51 70L51 71L52 71L52 72L54 72L54 73L53 73L53 74L55 74L55 72L54 72L54 71L52 71L52 70ZM74 70L74 72L73 72L73 71L72 71L72 73L71 73L71 72L70 72L70 74L69 74L69 76L68 76L68 77L67 77L67 76L66 76L66 77L67 77L67 78L68 78L68 77L70 77L70 75L71 75L71 74L72 74L72 76L71 76L71 77L72 77L72 79L71 79L71 81L72 81L72 79L73 79L73 80L74 80L74 81L75 81L75 80L76 80L76 81L79 81L79 80L80 80L80 79L79 79L79 78L78 78L78 77L77 77L77 74L78 74L78 73L79 73L79 72L78 72L78 73L77 73L77 70L76 70L76 71L75 71L75 70ZM22 73L22 74L23 74L23 75L24 75L24 73ZM25 73L25 76L28 76L28 73ZM45 73L45 74L44 74L44 75L46 75L46 74L47 74L47 73ZM49 73L49 76L52 76L52 73ZM73 73L73 76L76 76L76 73ZM80 73L80 74L81 74L81 73ZM26 74L26 75L27 75L27 74ZM35 74L35 75L34 75L34 76L35 76L35 75L36 75L36 74ZM50 74L50 75L51 75L51 74ZM56 74L56 75L57 75L57 74ZM74 74L74 75L75 75L75 74ZM32 75L32 76L33 76L33 75ZM78 75L78 76L79 76L79 77L81 77L81 76L80 76L80 75ZM9 77L9 78L10 78L10 77ZM73 77L73 78L74 78L74 79L76 79L76 78L74 78L74 77ZM12 78L12 79L13 79L13 78ZM22 78L22 79L23 79L23 78ZM77 78L77 80L78 80L78 78ZM45 79L45 80L46 80L46 79ZM53 79L53 80L54 80L54 81L55 81L55 79ZM57 79L57 81L58 81L58 79ZM59 79L59 80L60 80L60 81L61 81L61 79ZM62 80L62 81L63 81L63 80ZM69 80L69 81L70 81L70 80ZM0 0L0 7L7 7L7 0ZM1 1L1 6L6 6L6 1ZM2 2L2 5L5 5L5 2ZM74 0L74 7L81 7L81 0ZM75 1L75 6L80 6L80 1ZM76 2L76 5L79 5L79 2ZM0 74L0 81L7 81L7 74ZM1 75L1 80L6 80L6 75ZM2 76L2 79L5 79L5 76Z" fill="#000000"/></g></g></svg>
