<?xml version="1.0" encoding="UTF-8"?>
<svg xmlns="http://www.w3.org/2000/svg" version="1.1" width="400" height="400" viewBox="0 0 400 400"><rect x="0" y="0" width="400" height="400" fill="#fefefe"/><g transform="scale(6.557)"><g transform="translate(4,4)"><path fill-rule="evenodd" d="M12 0L12 2L14 2L14 3L15 3L15 4L14 4L14 5L15 5L15 6L14 6L14 7L13 7L13 6L12 6L12 7L13 7L13 8L14 8L14 7L15 7L15 6L16 6L16 8L17 8L17 9L18 9L18 10L17 10L17 11L18 11L18 12L16 12L16 11L14 11L14 12L15 12L15 13L14 13L14 14L13 14L13 13L12 13L12 14L10 14L10 12L12 12L12 11L11 11L11 10L10 10L10 9L9 9L9 8L10 8L10 7L11 7L11 4L10 4L10 3L11 3L11 2L9 2L9 1L8 1L8 2L9 2L9 3L8 3L8 4L9 4L9 5L8 5L8 7L9 7L9 8L6 8L6 9L8 9L8 11L7 11L7 10L6 10L6 11L2 11L2 12L1 12L1 13L0 13L0 15L1 15L1 16L0 16L0 17L1 17L1 16L2 16L2 18L4 18L4 17L5 17L5 16L4 16L4 15L7 15L7 16L6 16L6 17L8 17L8 13L7 13L7 12L9 12L9 15L14 15L14 16L12 16L12 17L11 17L11 19L12 19L12 20L13 20L13 19L16 19L16 20L15 20L15 21L14 21L14 22L15 22L15 24L17 24L17 25L18 25L18 26L17 26L17 27L18 27L18 28L16 28L16 27L14 27L14 28L13 28L13 26L14 26L14 25L13 25L13 24L14 24L14 23L13 23L13 22L12 22L12 21L10 21L10 23L8 23L8 22L6 22L6 23L5 23L5 22L4 22L4 21L5 21L5 20L6 20L6 21L8 21L8 20L10 20L10 19L7 19L7 18L5 18L5 19L3 19L3 20L2 20L2 19L1 19L1 18L0 18L0 19L1 19L1 20L2 20L2 21L3 21L3 22L2 22L2 23L1 23L1 27L0 27L0 28L2 28L2 26L3 26L3 25L2 25L2 23L3 23L3 24L4 24L4 27L3 27L3 28L4 28L4 29L3 29L3 30L4 30L4 29L5 29L5 31L4 31L4 34L3 34L3 33L1 33L1 32L2 32L2 30L0 30L0 35L1 35L1 34L3 34L3 35L2 35L2 36L0 36L0 37L1 37L1 38L2 38L2 39L0 39L0 40L3 40L3 41L2 41L2 42L1 42L1 41L0 41L0 43L1 43L1 44L3 44L3 45L4 45L4 44L3 44L3 43L7 43L7 44L6 44L6 45L8 45L8 47L9 47L9 46L10 46L10 48L8 48L8 53L9 53L9 49L10 49L10 53L12 53L12 52L13 52L13 51L14 51L14 52L15 52L15 53L17 53L17 52L18 52L18 53L19 53L19 49L22 49L22 51L21 51L21 52L20 52L20 53L22 53L22 51L24 51L24 52L23 52L23 53L25 53L25 52L26 52L26 53L27 53L27 50L28 50L28 52L29 52L29 50L32 50L32 48L33 48L33 49L34 49L34 47L35 47L35 46L34 46L34 44L35 44L35 43L36 43L36 42L38 42L38 43L37 43L37 44L36 44L36 45L38 45L38 43L40 43L40 44L41 44L41 47L40 47L40 48L42 48L42 49L41 49L41 50L43 50L43 49L44 49L44 50L45 50L45 51L47 51L47 52L45 52L45 53L49 53L49 52L50 52L50 53L51 53L51 52L52 52L52 51L53 51L53 50L52 50L52 51L51 51L51 52L50 52L50 49L52 49L52 48L50 48L50 46L51 46L51 44L52 44L52 43L51 43L51 41L52 41L52 42L53 42L53 40L50 40L50 38L49 38L49 37L48 37L48 36L50 36L50 37L51 37L51 38L53 38L53 35L52 35L52 34L53 34L53 32L52 32L52 33L51 33L51 32L50 32L50 31L51 31L51 30L53 30L53 29L52 29L52 28L53 28L53 27L51 27L51 28L50 28L50 26L49 26L49 24L50 24L50 25L51 25L51 26L53 26L53 25L51 25L51 24L50 24L50 23L49 23L49 22L53 22L53 21L51 21L51 20L53 20L53 19L51 19L51 16L52 16L52 18L53 18L53 15L51 15L51 16L50 16L50 15L48 15L48 16L47 16L47 17L49 17L49 18L48 18L48 19L47 19L47 18L45 18L45 19L47 19L47 20L48 20L48 21L49 21L49 22L48 22L48 23L49 23L49 24L47 24L47 22L46 22L46 21L45 21L45 20L44 20L44 21L45 21L45 22L46 22L46 24L44 24L44 26L43 26L43 25L42 25L42 26L43 26L43 27L40 27L40 26L41 26L41 25L39 25L39 24L38 24L38 25L39 25L39 26L37 26L37 24L36 24L36 23L37 23L37 22L38 22L38 23L39 23L39 22L40 22L40 21L39 21L39 22L38 22L38 21L37 21L37 20L38 20L38 19L39 19L39 20L41 20L41 19L39 19L39 18L40 18L40 17L39 17L39 18L38 18L38 19L37 19L37 18L36 18L36 19L35 19L35 18L34 18L34 16L35 16L35 17L37 17L37 16L38 16L38 15L39 15L39 16L41 16L41 17L42 17L42 18L43 18L43 19L42 19L42 20L43 20L43 19L44 19L44 17L45 17L45 16L43 16L43 15L42 15L42 14L43 14L43 13L41 13L41 14L38 14L38 13L39 13L39 12L41 12L41 11L42 11L42 12L43 12L43 11L42 11L42 10L44 10L44 11L45 11L45 12L44 12L44 13L45 13L45 14L44 14L44 15L45 15L45 14L46 14L46 15L47 15L47 14L46 14L46 13L47 13L47 12L46 12L46 11L48 11L48 10L50 10L50 8L49 8L49 9L48 9L48 8L47 8L47 10L44 10L44 9L46 9L46 8L45 8L45 6L44 6L44 7L43 7L43 3L44 3L44 4L45 4L45 3L44 3L44 1L43 1L43 0L42 0L42 2L43 2L43 3L42 3L42 4L40 4L40 7L39 7L39 6L38 6L38 4L39 4L39 3L41 3L41 2L39 2L39 1L38 1L38 0L35 0L35 1L33 1L33 0L27 0L27 3L26 3L26 2L25 2L25 3L26 3L26 4L24 4L24 3L23 3L23 4L22 4L22 1L23 1L23 0L21 0L21 2L20 2L20 1L19 1L19 0L18 0L18 1L17 1L17 0L16 0L16 1L15 1L15 2L14 2L14 1L13 1L13 0ZM24 0L24 1L26 1L26 0ZM18 1L18 2L17 2L17 3L19 3L19 4L18 4L18 6L17 6L17 4L15 4L15 5L16 5L16 6L17 6L17 8L18 8L18 9L19 9L19 7L20 7L20 8L21 8L21 7L22 7L22 6L23 6L23 7L24 7L24 4L23 4L23 5L22 5L22 4L20 4L20 3L19 3L19 1ZM28 1L28 2L29 2L29 1ZM30 1L30 2L31 2L31 1ZM35 1L35 3L34 3L34 2L33 2L33 3L31 3L31 5L30 5L30 4L29 4L29 5L30 5L30 6L29 6L29 9L31 9L31 10L28 10L28 9L25 9L25 10L24 10L24 8L22 8L22 9L20 9L20 10L19 10L19 13L20 13L20 15L21 15L21 14L22 14L22 15L23 15L23 16L22 16L22 17L20 17L20 16L19 16L19 18L18 18L18 20L19 20L19 21L18 21L18 23L17 23L17 21L15 21L15 22L16 22L16 23L17 23L17 24L18 24L18 25L19 25L19 28L21 28L21 26L22 26L22 29L20 29L20 31L19 31L19 32L21 32L21 30L22 30L22 31L23 31L23 32L22 32L22 33L19 33L19 34L17 34L17 35L19 35L19 34L20 34L20 35L21 35L21 36L22 36L22 37L23 37L23 35L24 35L24 38L21 38L21 37L20 37L20 36L19 36L19 37L18 37L18 39L17 39L17 40L15 40L15 38L14 38L14 37L15 37L15 36L16 36L16 35L15 35L15 34L16 34L16 33L18 33L18 32L17 32L17 31L18 31L18 30L19 30L19 29L18 29L18 30L17 30L17 29L15 29L15 28L14 28L14 29L15 29L15 30L17 30L17 31L16 31L16 33L13 33L13 32L14 32L14 31L13 31L13 32L12 32L12 31L11 31L11 32L12 32L12 33L13 33L13 34L11 34L11 36L10 36L10 37L11 37L11 36L12 36L12 37L13 37L13 39L12 39L12 38L9 38L9 37L8 37L8 36L9 36L9 35L8 35L8 34L10 34L10 30L9 30L9 29L6 29L6 30L8 30L8 31L6 31L6 32L8 32L8 31L9 31L9 33L5 33L5 35L4 35L4 36L2 36L2 38L3 38L3 40L4 40L4 41L5 41L5 40L4 40L4 39L5 39L5 38L7 38L7 37L8 37L8 40L9 40L9 41L6 41L6 42L7 42L7 43L8 43L8 45L10 45L10 46L11 46L11 47L12 47L12 48L14 48L14 47L15 47L15 46L13 46L13 47L12 47L12 43L13 43L13 45L16 45L16 46L17 46L17 47L16 47L16 49L15 49L15 50L14 50L14 51L15 51L15 52L16 52L16 51L15 51L15 50L16 50L16 49L18 49L18 48L17 48L17 47L18 47L18 46L19 46L19 48L22 48L22 49L23 49L23 50L24 50L24 48L23 48L23 47L22 47L22 46L21 46L21 45L20 45L20 46L19 46L19 45L16 45L16 44L18 44L18 41L19 41L19 43L20 43L20 44L21 44L21 43L20 43L20 42L21 42L21 41L20 41L20 40L22 40L22 41L23 41L23 42L22 42L22 43L23 43L23 44L22 44L22 45L23 45L23 46L24 46L24 45L23 45L23 44L24 44L24 43L25 43L25 42L27 42L27 40L28 40L28 42L29 42L29 43L27 43L27 44L29 44L29 43L32 43L32 42L33 42L33 43L34 43L34 42L35 42L35 41L33 41L33 40L32 40L32 39L34 39L34 40L37 40L37 41L38 41L38 42L39 42L39 41L40 41L40 43L41 43L41 44L43 44L43 45L44 45L44 44L43 44L43 42L41 42L41 41L45 41L45 39L47 39L47 40L46 40L46 43L45 43L45 42L44 42L44 43L45 43L45 44L46 44L46 43L48 43L48 44L49 44L49 42L47 42L47 40L48 40L48 41L50 41L50 40L48 40L48 39L49 39L49 38L48 38L48 37L47 37L47 36L46 36L46 35L48 35L48 33L50 33L50 32L49 32L49 31L50 31L50 30L48 30L48 29L46 29L46 30L45 30L45 29L44 29L44 27L43 27L43 30L41 30L41 28L40 28L40 27L36 27L36 28L34 28L34 27L33 27L33 24L32 24L32 23L33 23L33 21L34 21L34 22L35 22L35 23L34 23L34 24L35 24L35 23L36 23L36 20L37 20L37 19L36 19L36 20L35 20L35 19L33 19L33 20L30 20L30 19L31 19L31 18L32 18L32 17L33 17L33 16L34 16L34 14L35 14L35 16L37 16L37 15L38 15L38 14L37 14L37 13L36 13L36 12L37 12L37 11L36 11L36 10L37 10L37 9L38 9L38 10L39 10L39 11L40 11L40 10L41 10L41 8L39 8L39 9L38 9L38 8L37 8L37 7L38 7L38 6L37 6L37 7L36 7L36 6L35 6L35 7L34 7L34 5L35 5L35 4L36 4L36 3L37 3L37 4L38 4L38 3L37 3L37 2L38 2L38 1ZM15 2L15 3L16 3L16 2ZM12 3L12 5L13 5L13 3ZM19 4L19 6L18 6L18 7L19 7L19 6L20 6L20 7L21 7L21 6L22 6L22 5L21 5L21 6L20 6L20 4ZM32 4L32 7L31 7L31 6L30 6L30 8L31 8L31 9L32 9L32 7L33 7L33 8L34 8L34 7L33 7L33 5L34 5L34 4ZM25 5L25 8L28 8L28 5ZM41 5L41 7L42 7L42 8L43 8L43 9L44 9L44 8L43 8L43 7L42 7L42 5ZM9 6L9 7L10 7L10 6ZM26 6L26 7L27 7L27 6ZM0 8L0 9L2 9L2 10L3 10L3 9L4 9L4 10L5 10L5 8ZM11 8L11 9L12 9L12 8ZM35 8L35 10L33 10L33 11L32 11L32 10L31 10L31 11L29 11L29 13L28 13L28 12L27 12L27 13L26 13L26 14L25 14L25 13L24 13L24 14L23 14L23 13L22 13L22 12L23 12L23 11L24 11L24 12L26 12L26 11L27 11L27 10L26 10L26 11L24 11L24 10L23 10L23 9L22 9L22 10L20 10L20 11L22 11L22 12L20 12L20 13L22 13L22 14L23 14L23 15L24 15L24 16L26 16L26 17L24 17L24 18L25 18L25 19L24 19L24 20L23 20L23 19L22 19L22 20L20 20L20 21L19 21L19 23L20 23L20 24L19 24L19 25L22 25L22 26L23 26L23 27L24 27L24 29L22 29L22 30L24 30L24 31L25 31L25 32L24 32L24 33L25 33L25 34L24 34L24 35L26 35L26 36L25 36L25 38L26 38L26 36L27 36L27 35L30 35L30 36L33 36L33 38L34 38L34 39L35 39L35 38L34 38L34 37L35 37L35 36L36 36L36 37L37 37L37 38L36 38L36 39L37 39L37 38L38 38L38 39L39 39L39 40L38 40L38 41L39 41L39 40L41 40L41 39L40 39L40 38L43 38L43 37L42 37L42 36L44 36L44 39L42 39L42 40L44 40L44 39L45 39L45 37L46 37L46 36L44 36L44 35L40 35L40 34L38 34L38 35L37 35L37 36L36 36L36 34L37 34L37 32L35 32L35 30L34 30L34 29L32 29L32 32L31 32L31 31L29 31L29 30L28 30L28 31L29 31L29 33L27 33L27 34L26 34L26 32L27 32L27 29L29 29L29 28L30 28L30 30L31 30L31 28L33 28L33 27L32 27L32 24L31 24L31 23L29 23L29 24L26 24L26 23L28 23L28 22L29 22L29 21L28 21L28 20L29 20L29 19L27 19L27 21L25 21L25 20L26 20L26 18L31 18L31 17L32 17L32 16L33 16L33 14L34 14L34 11L35 11L35 12L36 12L36 11L35 11L35 10L36 10L36 9L37 9L37 8ZM51 8L51 10L53 10L53 9L52 9L52 8ZM13 9L13 10L14 10L14 9ZM15 9L15 10L16 10L16 9ZM22 10L22 11L23 11L23 10ZM6 11L6 12L3 12L3 13L2 13L2 16L3 16L3 17L4 17L4 16L3 16L3 15L4 15L4 14L7 14L7 13L6 13L6 12L7 12L7 11ZM49 11L49 12L48 12L48 13L49 13L49 14L51 14L51 13L50 13L50 11ZM31 12L31 13L32 13L32 14L30 14L30 13L29 13L29 14L28 14L28 13L27 13L27 14L26 14L26 16L27 16L27 14L28 14L28 15L32 15L32 14L33 14L33 12ZM15 13L15 15L16 15L16 17L12 17L12 19L13 19L13 18L16 18L16 17L18 17L18 16L17 16L17 15L18 15L18 14L17 14L17 13ZM52 13L52 14L53 14L53 13ZM24 14L24 15L25 15L25 14ZM36 14L36 15L37 15L37 14ZM41 15L41 16L42 16L42 17L43 17L43 16L42 16L42 15ZM28 16L28 17L29 17L29 16ZM49 16L49 17L50 17L50 16ZM9 17L9 18L10 18L10 17ZM22 17L22 18L23 18L23 17ZM19 18L19 19L20 19L20 18ZM6 19L6 20L7 20L7 19ZM48 19L48 20L49 20L49 21L50 21L50 20L51 20L51 19L50 19L50 20L49 20L49 19ZM3 20L3 21L4 21L4 20ZM22 20L22 21L20 21L20 23L21 23L21 22L22 22L22 25L23 25L23 24L24 24L24 23L25 23L25 22L24 22L24 23L23 23L23 22L22 22L22 21L23 21L23 20ZM0 21L0 22L1 22L1 21ZM30 21L30 22L32 22L32 21ZM41 21L41 22L43 22L43 21ZM3 22L3 23L4 23L4 22ZM11 22L11 23L12 23L12 22ZM6 23L6 24L7 24L7 23ZM40 23L40 24L41 24L41 23ZM42 23L42 24L43 24L43 23ZM9 24L9 27L10 27L10 24ZM29 24L29 25L31 25L31 24ZM5 25L5 28L8 28L8 25ZM12 25L12 26L11 26L11 28L12 28L12 26L13 26L13 25ZM15 25L15 26L16 26L16 25ZM25 25L25 28L28 28L28 25ZM34 25L34 26L35 26L35 25ZM45 25L45 28L48 28L48 25ZM6 26L6 27L7 27L7 26ZM26 26L26 27L27 27L27 26ZM29 26L29 27L30 27L30 28L31 28L31 26ZM46 26L46 27L47 27L47 26ZM36 28L36 29L37 29L37 30L36 30L36 31L38 31L38 33L39 33L39 31L40 31L40 32L42 32L42 34L43 34L43 32L44 32L44 31L45 31L45 35L46 35L46 34L47 34L47 33L46 33L46 32L47 32L47 31L45 31L45 30L44 30L44 31L43 31L43 32L42 32L42 31L40 31L40 30L38 30L38 28ZM49 28L49 29L50 29L50 28ZM11 29L11 30L12 30L12 29ZM24 29L24 30L26 30L26 29ZM33 30L33 32L32 32L32 34L33 34L33 32L34 32L34 34L35 34L35 32L34 32L34 30ZM22 33L22 34L21 34L21 35L23 35L23 33ZM6 34L6 35L7 35L7 34ZM30 34L30 35L31 35L31 34ZM50 34L50 36L52 36L52 35L51 35L51 34ZM34 35L34 36L35 36L35 35ZM38 35L38 36L37 36L37 37L38 37L38 38L39 38L39 37L41 37L41 36L39 36L39 35ZM4 36L4 37L3 37L3 38L4 38L4 37L5 37L5 36ZM6 36L6 37L7 37L7 36ZM13 36L13 37L14 37L14 36ZM28 36L28 37L27 37L27 39L26 39L26 40L25 40L25 39L24 39L24 41L26 41L26 40L27 40L27 39L29 39L29 38L31 38L31 37L29 37L29 36ZM16 37L16 38L17 38L17 37ZM19 37L19 38L20 38L20 37ZM28 37L28 38L29 38L29 37ZM6 39L6 40L7 40L7 39ZM9 39L9 40L11 40L11 39ZM13 39L13 40L12 40L12 42L14 42L14 41L13 41L13 40L14 40L14 39ZM30 39L30 40L31 40L31 41L29 41L29 42L32 42L32 40L31 40L31 39ZM17 40L17 41L18 41L18 40ZM9 41L9 44L10 44L10 45L11 45L11 42L10 42L10 41ZM15 41L15 42L16 42L16 41ZM2 42L2 43L3 43L3 42ZM14 43L14 44L16 44L16 43ZM50 43L50 44L51 44L51 43ZM31 44L31 46L30 46L30 47L33 47L33 44ZM25 45L25 48L28 48L28 45ZM39 45L39 46L38 46L38 47L39 47L39 46L40 46L40 45ZM45 45L45 48L48 48L48 45ZM52 45L52 46L53 46L53 45ZM20 46L20 47L21 47L21 46ZM26 46L26 47L27 47L27 46ZM42 46L42 47L43 47L43 48L44 48L44 46ZM46 46L46 47L47 47L47 46ZM35 48L35 50L33 50L33 51L31 51L31 52L30 52L30 53L31 53L31 52L33 52L33 53L34 53L34 51L35 51L35 52L36 52L36 53L37 53L37 52L36 52L36 49L37 49L37 50L38 50L38 51L39 51L39 50L38 50L38 49L39 49L39 48ZM49 48L49 49L47 49L47 51L48 51L48 50L49 50L49 49L50 49L50 48ZM11 49L11 51L12 51L12 49ZM26 49L26 50L25 50L25 51L26 51L26 50L27 50L27 49ZM45 49L45 50L46 50L46 49ZM40 51L40 52L41 52L41 53L42 53L42 52L43 52L43 51L42 51L42 52L41 52L41 51ZM38 52L38 53L39 53L39 52ZM0 0L0 7L7 7L7 0ZM1 1L1 6L6 6L6 1ZM2 2L2 5L5 5L5 2ZM46 0L46 7L53 7L53 0ZM47 1L47 6L52 6L52 1ZM48 2L48 5L51 5L51 2ZM0 46L0 53L7 53L7 46ZM1 47L1 52L6 52L6 47ZM2 48L2 51L5 51L5 48Z" fill="#000000"/></g></g></svg>
