<?xml version="1.0" encoding="UTF-8"?>
<svg xmlns="http://www.w3.org/2000/svg" version="1.1" width="400" height="400" viewBox="0 0 400 400"><rect x="0" y="0" width="400" height="400" fill="#fefefe"/><g transform="scale(4.706)"><g transform="translate(4,4)"><path fill-rule="evenodd" d="M8 0L8 2L10 2L10 3L11 3L11 6L10 6L10 7L9 7L9 6L8 6L8 7L9 7L9 8L6 8L6 9L8 9L8 11L7 11L7 10L5 10L5 9L4 9L4 10L3 10L3 9L2 9L2 8L1 8L1 9L2 9L2 10L1 10L1 13L2 13L2 11L3 11L3 13L4 13L4 14L3 14L3 15L2 15L2 14L1 14L1 15L0 15L0 17L1 17L1 18L0 18L0 19L1 19L1 20L0 20L0 24L1 24L1 25L0 25L0 27L1 27L1 28L2 28L2 29L1 29L1 31L2 31L2 32L1 32L1 33L0 33L0 34L1 34L1 33L3 33L3 34L4 34L4 35L0 35L0 36L1 36L1 38L2 38L2 40L1 40L1 42L0 42L0 44L1 44L1 46L0 46L0 47L1 47L1 50L0 50L0 52L2 52L2 53L0 53L0 54L3 54L3 52L5 52L5 53L8 53L8 56L6 56L6 55L7 55L7 54L6 54L6 55L5 55L5 54L4 54L4 55L2 55L2 56L0 56L0 57L2 57L2 56L3 56L3 58L4 58L4 59L1 59L1 64L0 64L0 66L1 66L1 67L2 67L2 66L1 66L1 64L3 64L3 63L4 63L4 65L3 65L3 66L4 66L4 68L1 68L1 69L5 69L5 67L8 67L8 68L6 68L6 69L8 69L8 71L9 71L9 74L11 74L11 76L10 76L10 75L8 75L8 76L9 76L9 77L11 77L11 76L12 76L12 77L13 77L13 76L15 76L15 75L16 75L16 77L17 77L17 76L19 76L19 77L20 77L20 76L21 76L21 73L25 73L25 74L28 74L28 75L24 75L24 76L22 76L22 77L27 77L27 76L28 76L28 75L30 75L30 76L31 76L31 75L30 75L30 74L32 74L32 73L30 73L30 71L33 71L33 69L35 69L35 70L37 70L37 69L36 69L36 65L35 65L35 63L37 63L37 62L35 62L35 61L38 61L38 63L39 63L39 62L42 62L42 64L41 64L41 63L40 63L40 65L39 65L39 64L38 64L38 65L37 65L37 67L38 67L38 66L39 66L39 67L41 67L41 68L42 68L42 70L43 70L43 71L40 71L40 70L39 70L39 69L38 69L38 71L34 71L34 72L33 72L33 73L34 73L34 72L36 72L36 73L37 73L37 72L38 72L38 73L39 73L39 75L40 75L40 76L39 76L39 77L40 77L40 76L41 76L41 77L42 77L42 76L41 76L41 75L40 75L40 73L41 73L41 72L42 72L42 74L43 74L43 77L45 77L45 75L46 75L46 77L47 77L47 75L48 75L48 74L49 74L49 73L51 73L51 74L50 74L50 75L49 75L49 76L48 76L48 77L49 77L49 76L50 76L50 75L51 75L51 77L53 77L53 75L54 75L54 76L55 76L55 74L57 74L57 75L56 75L56 77L57 77L57 75L59 75L59 74L60 74L60 77L62 77L62 76L63 76L63 77L68 77L68 76L71 76L71 75L72 75L72 74L73 74L73 76L72 76L72 77L74 77L74 75L75 75L75 76L76 76L76 73L77 73L77 69L76 69L76 68L77 68L77 66L75 66L75 67L76 67L76 68L75 68L75 69L74 69L74 70L73 70L73 67L74 67L74 66L71 66L71 65L70 65L70 61L69 61L69 60L71 60L71 59L72 59L72 62L73 62L73 63L72 63L72 64L73 64L73 63L74 63L74 65L75 65L75 63L76 63L76 64L77 64L77 63L76 63L76 62L77 62L77 59L76 59L76 61L75 61L75 58L77 58L77 57L76 57L76 56L77 56L77 55L75 55L75 54L76 54L76 53L75 53L75 54L73 54L73 53L74 53L74 51L75 51L75 50L76 50L76 52L77 52L77 50L76 50L76 49L77 49L77 45L76 45L76 44L77 44L77 43L76 43L76 44L75 44L75 43L73 43L73 41L74 41L74 40L75 40L75 41L76 41L76 39L77 39L77 38L76 38L76 37L77 37L77 35L76 35L76 34L77 34L77 33L76 33L76 32L77 32L77 31L76 31L76 30L77 30L77 28L75 28L75 29L76 29L76 30L75 30L75 33L74 33L74 35L76 35L76 36L73 36L73 33L72 33L72 32L71 32L71 33L69 33L69 32L70 32L70 29L71 29L71 30L72 30L72 31L73 31L73 32L74 32L74 31L73 31L73 29L74 29L74 27L75 27L75 26L73 26L73 25L77 25L77 21L74 21L74 22L73 22L73 21L72 21L72 20L75 20L75 19L77 19L77 17L75 17L75 16L74 16L74 15L73 15L73 14L74 14L74 13L75 13L75 14L76 14L76 15L77 15L77 12L75 12L75 11L77 11L77 10L75 10L75 9L77 9L77 8L75 8L75 9L74 9L74 10L73 10L73 9L71 9L71 10L72 10L72 12L70 12L70 11L69 11L69 10L70 10L70 8L69 8L69 6L68 6L68 8L65 8L65 6L64 6L64 8L65 8L65 10L64 10L64 9L63 9L63 8L61 8L61 9L60 9L60 8L59 8L59 5L61 5L61 6L60 6L60 7L61 7L61 6L62 6L62 7L63 7L63 6L62 6L62 5L66 5L66 7L67 7L67 5L69 5L69 1L68 1L68 4L66 4L66 3L65 3L65 2L63 2L63 1L62 1L62 3L61 3L61 4L59 4L59 5L58 5L58 4L57 4L57 5L58 5L58 9L57 9L57 10L56 10L56 8L57 8L57 6L56 6L56 7L55 7L55 5L56 5L56 3L60 3L60 2L59 2L59 0L58 0L58 2L57 2L57 1L56 1L56 3L55 3L55 5L54 5L54 8L53 8L53 6L52 6L52 8L51 8L51 5L53 5L53 1L55 1L55 0L52 0L52 2L51 2L51 3L52 3L52 4L49 4L49 3L48 3L48 2L46 2L46 1L48 1L48 0L45 0L45 2L46 2L46 3L48 3L48 4L46 4L46 7L45 7L45 6L44 6L44 7L43 7L43 5L45 5L45 3L44 3L44 4L41 4L41 3L43 3L43 1L40 1L40 0L38 0L38 1L37 1L37 2L36 2L36 3L34 3L34 5L33 5L33 6L32 6L32 5L31 5L31 4L32 4L32 3L33 3L33 2L32 2L32 1L31 1L31 2L30 2L30 0L29 0L29 1L28 1L28 2L29 2L29 3L27 3L27 1L26 1L26 0L23 0L23 1L21 1L21 4L20 4L20 3L19 3L19 4L16 4L16 5L14 5L14 8L13 8L13 4L15 4L15 3L14 3L14 2L15 2L15 1L16 1L16 0L15 0L15 1L13 1L13 3L12 3L12 2L10 2L10 0ZM18 0L18 2L20 2L20 0ZM33 0L33 1L34 1L34 2L35 2L35 0ZM49 0L49 1L50 1L50 0ZM64 0L64 1L65 1L65 0ZM23 1L23 2L24 2L24 3L25 3L25 4L27 4L27 3L25 3L25 2L24 2L24 1ZM66 1L66 2L67 2L67 1ZM31 2L31 3L32 3L32 2ZM37 2L37 3L36 3L36 4L35 4L35 5L34 5L34 6L33 6L33 7L34 7L34 6L35 6L35 9L34 9L34 8L33 8L33 9L32 9L32 11L33 11L33 12L31 12L31 7L32 7L32 6L31 6L31 7L30 7L30 5L29 5L29 9L27 9L27 10L25 10L25 9L24 9L24 8L23 8L23 10L22 10L22 9L21 9L21 8L22 8L22 5L24 5L24 4L23 4L23 3L22 3L22 5L21 5L21 8L19 8L19 7L20 7L20 5L17 5L17 7L16 7L16 6L15 6L15 8L16 8L16 11L15 11L15 13L16 13L16 14L15 14L15 15L14 15L14 14L12 14L12 11L13 11L13 10L14 10L14 9L13 9L13 8L12 8L12 6L11 6L11 7L10 7L10 8L12 8L12 10L11 10L11 11L9 11L9 12L7 12L7 11L4 11L4 13L5 13L5 14L4 14L4 19L5 19L5 20L4 20L4 21L3 21L3 24L2 24L2 22L1 22L1 24L2 24L2 25L3 25L3 26L2 26L2 28L3 28L3 31L4 31L4 32L3 32L3 33L4 33L4 34L5 34L5 35L4 35L4 36L2 36L2 37L4 37L4 39L3 39L3 40L2 40L2 42L1 42L1 43L2 43L2 44L3 44L3 46L2 46L2 49L4 49L4 48L3 48L3 46L4 46L4 45L5 45L5 46L7 46L7 45L5 45L5 44L3 44L3 42L4 42L4 43L5 43L5 42L8 42L8 45L9 45L9 44L11 44L11 45L10 45L10 47L11 47L11 45L12 45L12 44L11 44L11 43L9 43L9 42L11 42L11 40L14 40L14 39L13 39L13 37L12 37L12 35L13 35L13 36L14 36L14 35L15 35L15 40L17 40L17 42L16 42L16 43L17 43L17 44L16 44L16 45L13 45L13 46L12 46L12 48L11 48L11 49L10 49L10 50L9 50L9 53L10 53L10 54L9 54L9 55L10 55L10 54L11 54L11 51L12 51L12 52L13 52L13 51L12 51L12 49L13 49L13 46L16 46L16 45L17 45L17 46L18 46L18 47L19 47L19 49L18 49L18 48L17 48L17 47L16 47L16 48L17 48L17 49L15 49L15 48L14 48L14 51L16 51L16 54L15 54L15 52L14 52L14 53L12 53L12 55L11 55L11 58L9 58L9 59L8 59L8 57L10 57L10 56L8 56L8 57L6 57L6 56L4 56L4 57L6 57L6 58L5 58L5 59L6 59L6 60L4 60L4 61L3 61L3 60L2 60L2 61L3 61L3 62L4 62L4 61L6 61L6 62L8 62L8 61L6 61L6 60L7 60L7 59L8 59L8 60L9 60L9 61L10 61L10 62L9 62L9 63L8 63L8 65L6 65L6 64L7 64L7 63L5 63L5 65L6 65L6 66L8 66L8 65L10 65L10 66L12 66L12 68L13 68L13 72L12 72L12 73L11 73L11 74L12 74L12 75L14 75L14 74L15 74L15 73L14 73L14 71L17 71L17 70L18 70L18 72L17 72L17 73L19 73L19 72L20 72L20 73L21 73L21 72L22 72L22 71L19 71L19 70L22 70L22 69L23 69L23 67L24 67L24 68L25 68L25 67L24 67L24 66L25 66L25 65L26 65L26 68L27 68L27 67L28 67L28 68L31 68L31 69L29 69L29 70L32 70L32 68L33 68L33 66L34 66L34 67L35 67L35 66L34 66L34 63L35 63L35 62L34 62L34 60L35 60L35 59L34 59L34 60L33 60L33 58L35 58L35 56L34 56L34 57L31 57L31 56L32 56L32 54L33 54L33 53L35 53L35 51L36 51L36 50L35 50L35 48L36 48L36 49L37 49L37 52L38 52L38 54L37 54L37 53L36 53L36 56L38 56L38 58L37 58L37 57L36 57L36 58L37 58L37 60L39 60L39 61L40 61L40 60L44 60L44 61L43 61L43 63L45 63L45 64L47 64L47 65L46 65L46 66L47 66L47 65L48 65L48 66L50 66L50 68L52 68L52 67L51 67L51 65L52 65L52 66L53 66L53 65L52 65L52 64L51 64L51 61L52 61L52 63L53 63L53 64L55 64L55 65L54 65L54 67L53 67L53 68L54 68L54 69L51 69L51 70L53 70L53 73L54 73L54 74L55 74L55 73L54 73L54 71L55 71L55 72L56 72L56 73L58 73L58 72L59 72L59 73L61 73L61 74L62 74L62 75L61 75L61 76L62 76L62 75L63 75L63 76L68 76L68 75L69 75L69 74L67 74L67 73L68 73L68 72L67 72L67 73L66 73L66 71L65 71L65 69L66 69L66 68L67 68L67 69L68 69L68 68L67 68L67 66L66 66L66 65L68 65L68 67L69 67L69 68L70 68L70 65L68 65L68 64L69 64L69 63L68 63L68 62L69 62L69 61L68 61L68 62L67 62L67 61L66 61L66 60L68 60L68 59L67 59L67 58L68 58L68 56L69 56L69 58L70 58L70 59L71 59L71 57L70 57L70 55L69 55L69 54L68 54L68 52L70 52L70 54L71 54L71 55L73 55L73 57L72 57L72 59L73 59L73 58L74 58L74 55L73 55L73 54L72 54L72 53L73 53L73 52L71 52L71 51L68 51L68 50L67 50L67 51L66 51L66 50L65 50L65 49L68 49L68 48L67 48L67 47L68 47L68 46L67 46L67 44L68 44L68 42L69 42L69 41L70 41L70 42L71 42L71 43L72 43L72 42L71 42L71 41L72 41L72 38L73 38L73 40L74 40L74 39L76 39L76 38L75 38L75 37L73 37L73 36L71 36L71 34L72 34L72 33L71 33L71 34L70 34L70 35L69 35L69 34L68 34L68 33L67 33L67 34L68 34L68 35L69 35L69 36L66 36L66 33L65 33L65 32L66 32L66 30L67 30L67 29L65 29L65 28L67 28L67 26L68 26L68 25L66 25L66 22L67 22L67 24L68 24L68 22L69 22L69 23L70 23L70 24L72 24L72 21L71 21L71 20L72 20L72 19L71 19L71 18L72 18L72 17L73 17L73 15L72 15L72 17L71 17L71 14L72 14L72 13L74 13L74 12L72 12L72 13L70 13L70 12L69 12L69 11L67 11L67 10L68 10L68 9L69 9L69 8L68 8L68 9L66 9L66 10L65 10L65 11L64 11L64 13L65 13L65 14L66 14L66 15L63 15L63 17L64 17L64 18L65 18L65 17L64 17L64 16L66 16L66 17L68 17L68 16L69 16L69 13L70 13L70 17L71 17L71 18L69 18L69 19L70 19L70 20L69 20L69 21L68 21L68 18L66 18L66 19L65 19L65 20L63 20L63 19L62 19L62 14L63 14L63 11L62 11L62 10L63 10L63 9L61 9L61 10L58 10L58 11L56 11L56 10L55 10L55 9L53 9L53 8L52 8L52 10L53 10L53 12L52 12L52 11L50 11L50 10L51 10L51 9L47 9L47 10L46 10L46 8L45 8L45 7L44 7L44 11L43 11L43 10L42 10L42 9L43 9L43 8L42 8L42 9L41 9L41 7L42 7L42 6L41 6L41 7L40 7L40 6L39 6L39 5L37 5L37 4L38 4L38 3L39 3L39 4L40 4L40 5L41 5L41 4L40 4L40 3L39 3L39 2ZM29 3L29 4L30 4L30 3ZM63 3L63 4L65 4L65 3ZM61 4L61 5L62 5L62 4ZM25 5L25 8L28 8L28 5ZM35 5L35 6L36 6L36 8L37 8L37 5ZM47 5L47 8L50 8L50 5ZM18 6L18 7L17 7L17 9L18 9L18 10L20 10L20 9L18 9L18 7L19 7L19 6ZM23 6L23 7L24 7L24 6ZM26 6L26 7L27 7L27 6ZM38 6L38 10L40 10L40 9L39 9L39 6ZM48 6L48 7L49 7L49 6ZM9 9L9 10L10 10L10 9ZM29 9L29 10L28 10L28 11L27 11L27 12L26 12L26 13L25 13L25 10L24 10L24 13L23 13L23 11L22 11L22 10L21 10L21 11L20 11L20 12L19 12L19 13L17 13L17 14L18 14L18 17L16 17L16 18L15 18L15 16L16 16L16 15L15 15L15 16L14 16L14 15L13 15L13 16L14 16L14 17L12 17L12 18L10 18L10 20L9 20L9 21L8 21L8 22L6 22L6 23L5 23L5 24L3 24L3 25L4 25L4 27L3 27L3 28L4 28L4 29L5 29L5 31L7 31L7 32L6 32L6 33L5 33L5 32L4 32L4 33L5 33L5 34L6 34L6 35L7 35L7 34L10 34L10 35L9 35L9 36L4 36L4 37L10 37L10 36L11 36L11 34L10 34L10 32L13 32L13 31L9 31L9 29L10 29L10 30L11 30L11 29L12 29L12 27L13 27L13 28L14 28L14 29L13 29L13 30L15 30L15 31L14 31L14 33L13 33L13 35L14 35L14 34L17 34L17 35L16 35L16 38L18 38L18 37L19 37L19 39L17 39L17 40L18 40L18 41L20 41L20 43L21 43L21 44L20 44L20 45L21 45L21 44L22 44L22 46L21 46L21 48L20 48L20 49L21 49L21 52L20 52L20 51L19 51L19 53L22 53L22 55L21 55L21 54L20 54L20 56L22 56L22 57L24 57L24 56L22 56L22 55L23 55L23 53L24 53L24 54L25 54L25 57L26 57L26 58L23 58L23 60L24 60L24 59L25 59L25 60L26 60L26 59L27 59L27 57L28 57L28 60L27 60L27 61L25 61L25 62L23 62L23 63L25 63L25 62L28 62L28 63L26 63L26 64L28 64L28 65L27 65L27 66L28 66L28 67L32 67L32 66L33 66L33 65L32 65L32 62L33 62L33 63L34 63L34 62L33 62L33 60L32 60L32 61L31 61L31 63L30 63L30 62L28 62L28 61L30 61L30 59L32 59L32 58L30 58L30 57L29 57L29 56L30 56L30 55L31 55L31 54L32 54L32 53L33 53L33 52L34 52L34 51L35 51L35 50L34 50L34 51L33 51L33 50L32 50L32 49L33 49L33 48L34 48L34 45L35 45L35 47L36 47L36 48L37 48L37 47L38 47L38 46L39 46L39 45L37 45L37 44L39 44L39 43L40 43L40 44L41 44L41 45L40 45L40 47L41 47L41 48L42 48L42 49L43 49L43 50L40 50L40 49L38 49L38 51L41 51L41 54L40 54L40 55L39 55L39 54L38 54L38 55L39 55L39 56L42 56L42 53L43 53L43 52L42 52L42 51L44 51L44 52L45 52L45 53L44 53L44 54L43 54L43 55L44 55L44 57L42 57L42 58L44 58L44 57L45 57L45 58L46 58L46 60L45 60L45 59L44 59L44 60L45 60L45 63L46 63L46 62L49 62L49 63L47 63L47 64L48 64L48 65L49 65L49 63L50 63L50 62L49 62L49 61L51 61L51 59L52 59L52 60L53 60L53 62L56 62L56 60L57 60L57 58L56 58L56 57L57 57L57 55L56 55L56 54L55 54L55 53L56 53L56 52L57 52L57 53L58 53L58 57L59 57L59 58L60 58L60 59L62 59L62 58L63 58L63 59L65 59L65 58L66 58L66 57L67 57L67 56L68 56L68 55L67 55L67 56L65 56L65 58L64 58L64 56L63 56L63 57L60 57L60 56L59 56L59 55L60 55L60 54L61 54L61 55L62 55L62 54L63 54L63 55L64 55L64 54L65 54L65 55L66 55L66 54L67 54L67 53L66 53L66 54L65 54L65 53L64 53L64 54L63 54L63 53L62 53L62 52L61 52L61 51L60 51L60 52L61 52L61 53L59 53L59 52L57 52L57 51L55 51L55 50L58 50L58 51L59 51L59 50L58 50L58 49L56 49L56 48L57 48L57 47L58 47L58 48L59 48L59 49L61 49L61 50L62 50L62 51L63 51L63 52L64 52L64 49L63 49L63 48L62 48L62 49L61 49L61 47L60 47L60 48L59 48L59 47L58 47L58 45L55 45L55 43L57 43L57 42L58 42L58 43L61 43L61 42L62 42L62 43L66 43L66 41L69 41L69 40L70 40L70 39L71 39L71 38L72 38L72 37L71 37L71 36L70 36L70 37L71 37L71 38L70 38L70 39L68 39L68 40L67 40L67 39L66 39L66 40L65 40L65 41L63 41L63 42L62 42L62 41L61 41L61 40L60 40L60 39L59 39L59 38L61 38L61 37L58 37L58 36L61 36L61 34L62 34L62 36L64 36L64 37L66 37L66 38L67 38L67 37L66 37L66 36L64 36L64 34L65 34L65 33L64 33L64 34L62 34L62 32L61 32L61 31L62 31L62 30L63 30L63 32L64 32L64 31L65 31L65 30L64 30L64 28L65 28L65 27L64 27L64 25L65 25L65 26L66 26L66 25L65 25L65 23L64 23L64 22L63 22L63 23L62 23L62 25L63 25L63 27L62 27L62 30L59 30L59 31L58 31L58 30L57 30L57 29L53 29L53 30L51 30L51 31L50 31L50 33L48 33L48 32L47 32L47 31L49 31L49 30L50 30L50 29L51 29L51 28L53 28L53 27L55 27L55 26L56 26L56 28L57 28L57 27L59 27L59 26L61 26L61 25L59 25L59 24L58 24L58 25L56 25L56 24L57 24L57 22L58 22L58 23L59 23L59 20L57 20L57 22L56 22L56 24L55 24L55 22L53 22L53 23L54 23L54 24L55 24L55 26L53 26L53 25L52 25L52 21L54 21L54 20L52 20L52 21L51 21L51 19L52 19L52 16L53 16L53 19L54 19L54 17L55 17L55 19L56 19L56 18L57 18L57 17L55 17L55 14L56 14L56 15L58 15L58 16L59 16L59 15L58 15L58 14L59 14L59 13L62 13L62 12L59 12L59 11L58 11L58 14L56 14L56 13L55 13L55 14L53 14L53 15L52 15L52 13L51 13L51 14L50 14L50 12L49 12L49 14L47 14L47 13L48 13L48 11L46 11L46 13L45 13L45 12L43 12L43 13L44 13L44 14L47 14L47 15L46 15L46 16L45 16L45 15L44 15L44 16L45 16L45 18L43 18L43 17L42 17L42 18L41 18L41 19L42 19L42 20L40 20L40 19L39 19L39 15L40 15L40 14L39 14L39 13L38 13L38 14L39 14L39 15L37 15L37 16L38 16L38 19L39 19L39 20L38 20L38 21L37 21L37 20L34 20L34 18L35 18L35 19L36 19L36 18L35 18L35 17L36 17L36 16L35 16L35 17L34 17L34 15L35 15L35 13L34 13L34 12L35 12L35 11L36 11L36 14L37 14L37 12L40 12L40 11L37 11L37 9L36 9L36 10L35 10L35 11L34 11L34 12L33 12L33 13L32 13L32 14L31 14L31 13L30 13L30 11L29 11L29 10L30 10L30 9ZM33 9L33 10L34 10L34 9ZM41 10L41 14L42 14L42 16L43 16L43 14L42 14L42 10ZM54 10L54 11L55 11L55 10ZM21 11L21 14L20 14L20 13L19 13L19 15L20 15L20 17L18 17L18 18L16 18L16 20L15 20L15 19L14 19L14 20L13 20L13 18L12 18L12 21L13 21L13 22L14 22L14 23L13 23L13 25L12 25L12 24L11 24L11 25L10 25L10 23L11 23L11 22L10 22L10 21L11 21L11 20L10 20L10 21L9 21L9 22L8 22L8 23L9 23L9 26L11 26L11 27L12 27L12 26L13 26L13 27L14 27L14 28L17 28L17 27L18 27L18 29L17 29L17 30L16 30L16 31L15 31L15 33L17 33L17 34L19 34L19 35L17 35L17 36L19 36L19 35L20 35L20 33L19 33L19 32L21 32L21 33L24 33L24 35L22 35L22 34L21 34L21 36L20 36L20 37L21 37L21 40L20 40L20 39L19 39L19 40L20 40L20 41L21 41L21 42L22 42L22 43L23 43L23 45L24 45L24 46L22 46L22 47L23 47L23 48L21 48L21 49L23 49L23 50L22 50L22 51L23 51L23 50L24 50L24 49L23 49L23 48L24 48L24 46L25 46L25 43L23 43L23 42L26 42L26 44L27 44L27 45L28 45L28 46L29 46L29 49L30 49L30 50L31 50L31 51L27 51L27 52L28 52L28 54L29 54L29 55L27 55L27 56L29 56L29 55L30 55L30 54L31 54L31 53L32 53L32 52L33 52L33 51L32 51L32 50L31 50L31 48L32 48L32 47L30 47L30 46L32 46L32 45L34 45L34 44L36 44L36 43L38 43L38 42L36 42L36 43L34 43L34 42L35 42L35 39L36 39L36 41L37 41L37 37L38 37L38 38L39 38L39 37L40 37L40 39L38 39L38 40L41 40L41 41L42 41L42 42L41 42L41 43L42 43L42 45L41 45L41 47L42 47L42 48L43 48L43 49L44 49L44 47L45 47L45 49L46 49L46 47L45 47L45 45L47 45L47 46L49 46L49 45L51 45L51 46L52 46L52 48L51 48L51 49L52 49L52 51L53 51L53 52L51 52L51 51L50 51L50 52L49 52L49 51L47 51L47 52L46 52L46 53L48 53L48 54L49 54L49 55L48 55L48 56L49 56L49 55L50 55L50 52L51 52L51 54L52 54L52 55L51 55L51 56L50 56L50 57L48 57L48 58L47 58L47 60L46 60L46 61L49 61L49 58L50 58L50 57L51 57L51 56L52 56L52 58L55 58L55 59L56 59L56 58L55 58L55 57L56 57L56 55L55 55L55 54L54 54L54 55L53 55L53 53L55 53L55 52L54 52L54 51L53 51L53 50L55 50L55 48L56 48L56 47L57 47L57 46L55 46L55 45L54 45L54 46L53 46L53 44L54 44L54 43L55 43L55 41L56 41L56 42L57 42L57 40L58 40L58 42L59 42L59 41L60 41L60 42L61 42L61 41L60 41L60 40L58 40L58 39L57 39L57 38L58 38L58 37L57 37L57 38L56 38L56 36L55 36L55 40L54 40L54 39L53 39L53 38L52 38L52 39L53 39L53 40L50 40L50 38L49 38L49 37L48 37L48 33L47 33L47 34L45 34L45 32L46 32L46 29L45 29L45 31L44 31L44 32L42 32L42 31L41 31L41 29L42 29L42 30L43 30L43 29L42 29L42 28L41 28L41 27L42 27L42 25L43 25L43 26L44 26L44 27L45 27L45 26L46 26L46 23L45 23L45 21L46 21L46 22L47 22L47 23L48 23L48 20L49 20L49 24L50 24L50 23L51 23L51 22L50 22L50 19L51 19L51 17L49 17L49 16L50 16L50 15L48 15L48 16L47 16L47 17L46 17L46 18L45 18L45 19L44 19L44 21L43 21L43 20L42 20L42 21L43 21L43 22L42 22L42 23L43 23L43 24L41 24L41 21L39 21L39 22L38 22L38 23L37 23L37 21L36 21L36 23L37 23L37 24L36 24L36 25L35 25L35 24L34 24L34 23L35 23L35 22L34 22L34 20L33 20L33 21L32 21L32 19L33 19L33 18L32 18L32 16L33 16L33 15L34 15L34 13L33 13L33 14L32 14L32 16L30 16L30 15L31 15L31 14L30 14L30 15L29 15L29 16L28 16L28 17L26 17L26 22L24 22L24 21L25 21L25 19L24 19L24 21L22 21L22 27L21 27L21 26L19 26L19 25L20 25L20 24L21 24L21 22L20 22L20 21L21 21L21 20L23 20L23 19L21 19L21 18L22 18L22 17L21 17L21 15L23 15L23 13L22 13L22 11ZM5 12L5 13L7 13L7 12ZM9 12L9 16L8 16L8 14L6 14L6 15L5 15L5 16L6 16L6 17L8 17L8 19L7 19L7 18L6 18L6 19L7 19L7 20L5 20L5 21L4 21L4 22L5 22L5 21L7 21L7 20L8 20L8 19L9 19L9 17L10 17L10 15L11 15L11 16L12 16L12 14L10 14L10 13L11 13L11 12ZM13 12L13 13L14 13L14 12ZM53 12L53 13L54 13L54 12ZM65 12L65 13L66 13L66 14L67 14L67 15L68 15L68 14L67 14L67 13L69 13L69 12L67 12L67 13L66 13L66 12ZM24 13L24 16L25 16L25 13ZM27 13L27 14L28 14L28 13ZM60 14L60 15L61 15L61 14ZM6 15L6 16L7 16L7 15ZM26 15L26 16L27 16L27 15ZM51 15L51 16L52 16L52 15ZM53 15L53 16L54 16L54 15ZM2 16L2 17L3 17L3 16ZM20 17L20 18L21 18L21 17ZM23 17L23 18L25 18L25 17ZM47 17L47 18L48 18L48 19L50 19L50 18L48 18L48 17ZM58 17L58 19L61 19L61 18L60 18L60 17ZM74 17L74 19L75 19L75 17ZM2 18L2 20L3 20L3 18ZM27 18L27 19L28 19L28 21L27 21L27 23L28 23L28 22L29 22L29 24L24 24L24 22L23 22L23 25L24 25L24 27L22 27L22 28L20 28L20 29L18 29L18 30L17 30L17 31L16 31L16 32L17 32L17 33L18 33L18 32L19 32L19 31L20 31L20 29L21 29L21 30L24 30L24 31L23 31L23 32L25 32L25 37L27 37L27 36L28 36L28 37L29 37L29 35L30 35L30 36L32 36L32 37L31 37L31 38L28 38L28 40L29 40L29 41L28 41L28 45L29 45L29 42L30 42L30 43L31 43L31 44L33 44L33 43L32 43L32 42L31 42L31 40L30 40L30 39L31 39L31 38L33 38L33 36L34 36L34 35L35 35L35 36L36 36L36 37L37 37L37 35L38 35L38 37L39 37L39 36L40 36L40 35L41 35L41 34L44 34L44 33L42 33L42 32L41 32L41 31L40 31L40 29L38 29L38 28L40 28L40 27L39 27L39 26L40 26L40 25L41 25L41 24L40 24L40 25L39 25L39 24L38 24L38 26L37 26L37 25L36 25L36 26L37 26L37 27L36 27L36 28L35 28L35 29L34 29L34 26L35 26L35 25L34 25L34 26L33 26L33 29L32 29L32 27L30 27L30 26L29 26L29 24L31 24L31 26L32 26L32 24L31 24L31 23L30 23L30 22L31 22L31 21L29 21L29 20L31 20L31 19L30 19L30 18ZM42 18L42 19L43 19L43 18ZM17 19L17 20L16 20L16 21L17 21L17 22L18 22L18 23L17 23L17 25L15 25L15 23L14 23L14 25L13 25L13 26L14 26L14 27L15 27L15 26L17 26L17 25L19 25L19 24L18 24L18 23L20 23L20 22L19 22L19 21L20 21L20 20L21 20L21 19ZM14 20L14 22L15 22L15 20ZM18 20L18 21L19 21L19 20ZM55 20L55 21L56 21L56 20ZM60 20L60 21L62 21L62 20ZM65 20L65 21L67 21L67 20ZM69 21L69 22L70 22L70 21ZM39 22L39 23L40 23L40 22ZM43 22L43 23L44 23L44 24L45 24L45 23L44 23L44 22ZM75 22L75 23L73 23L73 24L75 24L75 23L76 23L76 22ZM6 23L6 24L7 24L7 23ZM63 23L63 25L64 25L64 23ZM5 25L5 28L8 28L8 25ZM14 25L14 26L15 26L15 25ZM25 25L25 28L28 28L28 25ZM44 25L44 26L45 26L45 25ZM47 25L47 28L50 28L50 25ZM69 25L69 28L72 28L72 25ZM6 26L6 27L7 27L7 26ZM26 26L26 27L27 27L27 26ZM48 26L48 27L49 27L49 26ZM52 26L52 27L53 27L53 26ZM70 26L70 27L71 27L71 26ZM9 27L9 28L10 28L10 27ZM37 27L37 28L36 28L36 31L35 31L35 32L36 32L36 33L39 33L39 34L38 34L38 35L40 35L40 34L41 34L41 33L40 33L40 32L39 32L39 30L38 30L38 31L37 31L37 28L38 28L38 27ZM60 27L60 28L58 28L58 29L61 29L61 27ZM63 27L63 28L64 28L64 27ZM22 28L22 29L23 29L23 28ZM30 28L30 29L29 29L29 31L30 31L30 30L31 30L31 31L32 31L32 30L31 30L31 28ZM6 29L6 30L7 30L7 31L8 31L8 32L7 32L7 33L6 33L6 34L7 34L7 33L8 33L8 32L9 32L9 31L8 31L8 30L7 30L7 29ZM26 29L26 30L25 30L25 31L28 31L28 29ZM47 29L47 30L48 30L48 29ZM68 29L68 30L69 30L69 29ZM18 30L18 31L17 31L17 32L18 32L18 31L19 31L19 30ZM33 30L33 31L34 31L34 30ZM54 30L54 31L51 31L51 32L52 32L52 33L53 33L53 34L54 34L54 35L53 35L53 36L54 36L54 35L56 35L56 34L54 34L54 33L55 33L55 32L56 32L56 31L57 31L57 34L58 34L58 35L57 35L57 36L58 36L58 35L60 35L60 34L58 34L58 31L57 31L57 30L56 30L56 31L55 31L55 30ZM21 31L21 32L22 32L22 31ZM54 31L54 32L53 32L53 33L54 33L54 32L55 32L55 31ZM59 31L59 33L61 33L61 32L60 32L60 31ZM67 31L67 32L69 32L69 31ZM26 32L26 33L27 33L27 34L26 34L26 36L27 36L27 35L29 35L29 34L30 34L30 35L34 35L34 34L35 34L35 35L36 35L36 34L35 34L35 33L34 33L34 32L33 32L33 34L32 34L32 33L31 33L31 32L30 32L30 33L29 33L29 32ZM28 33L28 34L29 34L29 33ZM30 33L30 34L31 34L31 33ZM50 33L50 34L49 34L49 36L50 36L50 37L52 37L52 35L51 35L51 33ZM75 33L75 34L76 34L76 33ZM42 35L42 36L43 36L43 35ZM44 35L44 37L45 37L45 38L46 38L46 37L47 37L47 36L45 36L45 35ZM50 35L50 36L51 36L51 35ZM22 36L22 38L23 38L23 39L25 39L25 38L24 38L24 37L23 37L23 36ZM11 37L11 38L12 38L12 37ZM41 37L41 39L42 39L42 40L43 40L43 39L44 39L44 38L43 38L43 37ZM6 38L6 39L4 39L4 42L5 42L5 41L10 41L10 40L11 40L11 39L10 39L10 38L9 38L9 39L10 39L10 40L8 40L8 39L7 39L7 38ZM26 38L26 39L27 39L27 38ZM34 38L34 39L33 39L33 42L34 42L34 39L35 39L35 38ZM62 38L62 39L63 39L63 40L64 40L64 38ZM6 39L6 40L7 40L7 39ZM46 39L46 44L47 44L47 41L49 41L49 40L48 40L48 39ZM56 39L56 40L57 40L57 39ZM21 40L21 41L22 41L22 40ZM24 40L24 41L26 41L26 42L27 42L27 41L26 41L26 40ZM44 40L44 41L43 41L43 42L42 42L42 43L43 43L43 45L42 45L42 47L43 47L43 46L44 46L44 45L45 45L45 44L44 44L44 43L45 43L45 40ZM53 40L53 41L54 41L54 40ZM12 41L12 43L15 43L15 41ZM39 41L39 42L40 42L40 41ZM50 41L50 43L48 43L48 44L51 44L51 45L52 45L52 44L51 44L51 43L52 43L52 42L51 42L51 41ZM18 42L18 43L19 43L19 42ZM53 42L53 43L54 43L54 42ZM6 43L6 44L7 44L7 43ZM69 43L69 45L71 45L71 46L73 46L73 44L72 44L72 45L71 45L71 44L70 44L70 43ZM61 44L61 45L62 45L62 46L63 46L63 47L64 47L64 48L65 48L65 47L66 47L66 46L65 46L65 44L64 44L64 45L62 45L62 44ZM74 44L74 45L75 45L75 49L74 49L74 47L73 47L73 49L74 49L74 50L73 50L73 51L74 51L74 50L75 50L75 49L76 49L76 45L75 45L75 44ZM18 45L18 46L19 46L19 47L20 47L20 46L19 46L19 45ZM5 47L5 50L8 50L8 47ZM25 47L25 50L28 50L28 47ZM47 47L47 50L50 50L50 47ZM69 47L69 50L72 50L72 47ZM6 48L6 49L7 49L7 48ZM26 48L26 49L27 49L27 48ZM48 48L48 49L49 49L49 48ZM70 48L70 49L71 49L71 48ZM17 49L17 50L16 50L16 51L17 51L17 53L18 53L18 51L17 51L17 50L18 50L18 49ZM1 50L1 51L2 51L2 50ZM10 50L10 51L11 51L11 50ZM44 50L44 51L46 51L46 50ZM5 51L5 52L7 52L7 51ZM24 51L24 52L25 52L25 54L27 54L27 53L26 53L26 52L25 52L25 51ZM31 51L31 52L32 52L32 51ZM39 52L39 53L40 53L40 52ZM48 52L48 53L49 53L49 52ZM61 53L61 54L62 54L62 53ZM34 54L34 55L35 55L35 54ZM45 54L45 56L47 56L47 55L46 55L46 54ZM13 55L13 57L12 57L12 58L11 58L11 59L12 59L12 60L11 60L11 61L12 61L12 62L13 62L13 65L14 65L14 66L13 66L13 68L14 68L14 70L15 70L15 69L16 69L16 68L17 68L17 67L18 67L18 66L19 66L19 65L18 65L18 64L19 64L19 63L18 63L18 64L17 64L17 62L19 62L19 60L20 60L20 59L18 59L18 57L17 57L17 56L18 56L18 55L17 55L17 56L16 56L16 55L15 55L15 56L14 56L14 55ZM52 55L52 56L53 56L53 57L55 57L55 56L53 56L53 55ZM20 57L20 58L21 58L21 57ZM39 57L39 58L38 58L38 59L41 59L41 57ZM6 58L6 59L7 59L7 58ZM16 58L16 59L17 59L17 58ZM29 58L29 59L30 59L30 58ZM9 59L9 60L10 60L10 59ZM21 59L21 61L22 61L22 59ZM53 59L53 60L54 60L54 61L55 61L55 60L54 60L54 59ZM58 59L58 63L59 63L59 64L61 64L61 65L63 65L63 67L62 67L62 66L59 66L59 65L58 65L58 66L57 66L57 63L55 63L55 64L56 64L56 66L55 66L55 67L56 67L56 66L57 66L57 67L58 67L58 68L57 68L57 69L58 69L58 71L59 71L59 69L60 69L60 70L61 70L61 71L62 71L62 70L61 70L61 69L62 69L62 68L63 68L63 69L64 69L64 68L65 68L65 67L66 67L66 66L65 66L65 67L64 67L64 65L66 65L66 64L68 64L68 63L67 63L67 62L65 62L65 60L64 60L64 61L63 61L63 63L66 63L66 64L64 64L64 65L63 65L63 64L61 64L61 63L59 63L59 61L62 61L62 60L59 60L59 59ZM12 60L12 61L13 61L13 60ZM73 60L73 61L74 61L74 63L75 63L75 61L74 61L74 60ZM15 61L15 62L14 62L14 63L15 63L15 64L16 64L16 61ZM10 62L10 63L9 63L9 64L10 64L10 63L11 63L11 62ZM20 63L20 65L21 65L21 63ZM28 63L28 64L29 64L29 63ZM23 64L23 65L22 65L22 66L20 66L20 67L19 67L19 68L18 68L18 69L20 69L20 67L23 67L23 66L24 66L24 64ZM30 64L30 65L31 65L31 66L32 66L32 65L31 65L31 64ZM42 64L42 66L41 66L41 65L40 65L40 66L41 66L41 67L43 67L43 69L44 69L44 72L43 72L43 73L44 73L44 72L45 72L45 70L46 70L46 69L45 69L45 68L47 68L47 67L45 67L45 68L44 68L44 66L45 66L45 65L43 65L43 64ZM15 65L15 66L14 66L14 67L15 67L15 66L16 66L16 65ZM17 65L17 66L18 66L18 65ZM28 65L28 66L29 66L29 65ZM58 66L58 67L59 67L59 66ZM10 67L10 68L8 68L8 69L9 69L9 70L10 70L10 71L11 71L11 70L12 70L12 69L11 69L11 70L10 70L10 68L11 68L11 67ZM48 67L48 68L49 68L49 67ZM61 67L61 68L62 68L62 67ZM63 67L63 68L64 68L64 67ZM21 68L21 69L22 69L22 68ZM25 69L25 72L28 72L28 69ZM47 69L47 72L50 72L50 69ZM69 69L69 72L72 72L72 69ZM23 70L23 71L24 71L24 70ZM26 70L26 71L27 71L27 70ZM48 70L48 71L49 71L49 70ZM63 70L63 71L64 71L64 72L62 72L62 74L63 74L63 75L65 75L65 74L66 74L66 73L65 73L65 74L64 74L64 72L65 72L65 71L64 71L64 70ZM67 70L67 71L68 71L68 70ZM70 70L70 71L71 71L71 70ZM75 70L75 71L73 71L73 72L75 72L75 71L76 71L76 70ZM38 71L38 72L39 72L39 73L40 73L40 71ZM51 71L51 72L52 72L52 71ZM56 71L56 72L57 72L57 71ZM13 73L13 74L14 74L14 73ZM28 73L28 74L29 74L29 73ZM45 73L45 74L44 74L44 75L45 75L45 74L46 74L46 75L47 75L47 73ZM71 73L71 74L70 74L70 75L71 75L71 74L72 74L72 73ZM73 73L73 74L75 74L75 73ZM16 74L16 75L17 75L17 74ZM35 74L35 75L34 75L34 76L33 76L33 75L32 75L32 76L33 76L33 77L34 77L34 76L35 76L35 77L36 77L36 76L37 76L37 77L38 77L38 76L37 76L37 75L38 75L38 74ZM19 75L19 76L20 76L20 75ZM35 75L35 76L36 76L36 75ZM58 76L58 77L59 77L59 76ZM0 0L0 7L7 7L7 0ZM1 1L1 6L6 6L6 1ZM2 2L2 5L5 5L5 2ZM70 0L70 7L77 7L77 0ZM71 1L71 6L76 6L76 1ZM72 2L72 5L75 5L75 2ZM0 70L0 77L7 77L7 70ZM1 71L1 76L6 76L6 71ZM2 72L2 75L5 75L5 72Z" fill="#000000"/></g></g></svg>
