<?xml version="1.0" encoding="UTF-8"?>
<svg xmlns="http://www.w3.org/2000/svg" version="1.1" width="400" height="400" viewBox="0 0 400 400"><rect x="0" y="0" width="400" height="400" fill="#fefefe"/><g transform="scale(4.706)"><g transform="translate(4,4)"><path fill-rule="evenodd" d="M9 0L9 2L10 2L10 0ZM13 0L13 1L14 1L14 0ZM16 0L16 1L17 1L17 2L13 2L13 4L11 4L11 3L10 3L10 5L8 5L8 8L9 8L9 9L10 9L10 10L9 10L9 12L10 12L10 15L9 15L9 14L8 14L8 12L4 12L4 11L5 11L5 10L6 10L6 11L7 11L7 10L8 10L8 9L7 9L7 8L6 8L6 9L5 9L5 10L3 10L3 8L1 8L1 9L0 9L0 10L1 10L1 12L0 12L0 13L1 13L1 16L0 16L0 17L1 17L1 19L0 19L0 21L1 21L1 22L0 22L0 23L2 23L2 24L0 24L0 27L1 27L1 25L2 25L2 24L3 24L3 25L4 25L4 30L3 30L3 28L2 28L2 29L1 29L1 30L0 30L0 33L1 33L1 34L0 34L0 36L2 36L2 35L1 35L1 34L3 34L3 32L4 32L4 34L5 34L5 35L7 35L7 34L6 34L6 33L8 33L8 34L10 34L10 35L11 35L11 32L10 32L10 33L9 33L9 32L6 32L6 33L5 33L5 30L6 30L6 31L7 31L7 30L6 30L6 29L8 29L8 31L10 31L10 29L9 29L9 28L11 28L11 25L12 25L12 26L13 26L13 27L12 27L12 29L11 29L11 30L12 30L12 31L13 31L13 32L12 32L12 36L11 36L11 37L12 37L12 38L13 38L13 39L12 39L12 40L11 40L11 39L10 39L10 37L9 37L9 36L4 36L4 37L3 37L3 38L2 38L2 39L1 39L1 37L0 37L0 39L1 39L1 40L0 40L0 43L1 43L1 41L4 41L4 42L3 42L3 44L4 44L4 45L5 45L5 44L4 44L4 43L5 43L5 40L6 40L6 41L7 41L7 40L9 40L9 42L6 42L6 43L7 43L7 44L6 44L6 45L7 45L7 46L4 46L4 47L3 47L3 46L2 46L2 44L0 44L0 46L2 46L2 48L1 48L1 49L0 49L0 52L1 52L1 53L2 53L2 52L3 52L3 53L5 53L5 51L7 51L7 52L6 52L6 53L7 53L7 52L8 52L8 53L9 53L9 55L8 55L8 56L6 56L6 55L7 55L7 54L4 54L4 55L3 55L3 54L2 54L2 55L1 55L1 56L0 56L0 57L1 57L1 56L2 56L2 55L3 55L3 57L2 57L2 59L1 59L1 58L0 58L0 61L2 61L2 59L3 59L3 62L2 62L2 63L3 63L3 64L2 64L2 65L4 65L4 63L5 63L5 64L6 64L6 65L5 65L5 66L4 66L4 68L1 68L1 69L5 69L5 67L9 67L9 69L8 69L8 70L9 70L9 71L10 71L10 72L9 72L9 73L10 73L10 74L8 74L8 76L9 76L9 77L10 77L10 76L9 76L9 75L11 75L11 74L12 74L12 76L11 76L11 77L13 77L13 74L14 74L14 77L18 77L18 76L20 76L20 77L21 77L21 76L20 76L20 75L19 75L19 74L17 74L17 73L18 73L18 72L19 72L19 73L20 73L20 72L19 72L19 71L20 71L20 70L21 70L21 72L22 72L22 76L23 76L23 77L25 77L25 76L26 76L26 75L27 75L27 73L28 73L28 74L29 74L29 75L30 75L30 74L29 74L29 72L30 72L30 71L29 71L29 68L30 68L30 69L31 69L31 72L32 72L32 73L31 73L31 75L32 75L32 76L31 76L31 77L33 77L33 76L35 76L35 77L36 77L36 76L39 76L39 77L41 77L41 76L42 76L42 75L43 75L43 77L45 77L45 76L46 76L46 75L45 75L45 73L44 73L44 71L45 71L45 68L44 68L44 67L43 67L43 68L42 68L42 67L40 67L40 68L39 68L39 66L41 66L41 65L42 65L42 66L43 66L43 65L42 65L42 64L41 64L41 63L45 63L45 65L44 65L44 66L46 66L46 73L47 73L47 74L48 74L48 73L51 73L51 72L52 72L52 74L51 74L51 75L50 75L50 74L49 74L49 75L48 75L48 76L47 76L47 77L51 77L51 75L52 75L52 76L53 76L53 75L54 75L54 77L58 77L58 76L59 76L59 77L61 77L61 76L59 76L59 75L62 75L62 73L61 73L61 74L60 74L60 73L59 73L59 72L58 72L58 73L56 73L56 72L55 72L55 71L57 71L57 70L56 70L56 69L55 69L55 70L53 70L53 67L54 67L54 68L55 68L55 67L56 67L56 68L57 68L57 69L58 69L58 68L59 68L59 67L60 67L60 69L59 69L59 71L60 71L60 72L62 72L62 71L66 71L66 72L68 72L68 73L65 73L65 72L63 72L63 73L65 73L65 75L64 75L64 74L63 74L63 75L64 75L64 76L62 76L62 77L65 77L65 75L66 75L66 76L67 76L67 75L69 75L69 76L68 76L68 77L69 77L69 76L70 76L70 77L71 77L71 76L70 76L70 75L71 75L71 74L72 74L72 75L73 75L73 76L72 76L72 77L75 77L75 76L76 76L76 77L77 77L77 74L76 74L76 73L77 73L77 71L73 71L73 69L74 69L74 68L75 68L75 70L76 70L76 69L77 69L77 66L75 66L75 67L74 67L74 68L71 68L71 66L69 66L69 65L77 65L77 63L76 63L76 62L77 62L77 60L76 60L76 59L77 59L77 58L76 58L76 59L75 59L75 60L74 60L74 57L77 57L77 56L75 56L75 55L76 55L76 54L77 54L77 51L76 51L76 49L77 49L77 47L76 47L76 49L75 49L75 48L74 48L74 45L76 45L76 46L77 46L77 43L73 43L73 42L72 42L72 43L71 43L71 44L68 44L68 43L66 43L66 42L67 42L67 40L70 40L70 41L69 41L69 42L70 42L70 41L71 41L71 40L70 40L70 37L69 37L69 34L70 34L70 35L71 35L71 34L72 34L72 39L75 39L75 40L74 40L74 41L75 41L75 42L76 42L76 41L77 41L77 36L76 36L76 38L73 38L73 37L74 37L74 36L75 36L75 35L74 35L74 36L73 36L73 33L74 33L74 32L75 32L75 34L76 34L76 33L77 33L77 29L76 29L76 28L77 28L77 26L76 26L76 28L74 28L74 25L77 25L77 23L73 23L73 22L71 22L71 20L73 20L73 21L75 21L75 22L76 22L76 21L77 21L77 20L76 20L76 21L75 21L75 20L74 20L74 19L73 19L73 18L74 18L74 16L75 16L75 18L76 18L76 17L77 17L77 14L73 14L73 15L72 15L72 13L71 13L71 12L70 12L70 13L69 13L69 11L72 11L72 12L73 12L73 13L74 13L74 12L73 12L73 10L74 10L74 11L77 11L77 10L76 10L76 9L75 9L75 10L74 10L74 8L73 8L73 10L71 10L71 9L72 9L72 8L70 8L70 9L69 9L69 11L68 11L68 12L67 12L67 11L66 11L66 10L65 10L65 8L64 8L64 9L63 9L63 6L62 6L62 9L61 9L61 5L63 5L63 4L64 4L64 7L65 7L65 4L66 4L66 8L67 8L67 9L68 9L68 8L69 8L69 6L68 6L68 8L67 8L67 5L69 5L69 1L68 1L68 4L66 4L66 3L64 3L64 2L67 2L67 1L66 1L66 0L65 0L65 1L64 1L64 2L63 2L63 0L60 0L60 1L62 1L62 2L57 2L57 1L58 1L58 0L56 0L56 2L54 2L54 0L53 0L53 2L52 2L52 1L51 1L51 0L50 0L50 2L48 2L48 4L47 4L47 3L46 3L46 10L45 10L45 8L44 8L44 7L45 7L45 6L44 6L44 7L43 7L43 6L42 6L42 5L43 5L43 4L45 4L45 2L46 2L46 1L49 1L49 0L45 0L45 2L44 2L44 0L42 0L42 1L41 1L41 2L42 2L42 3L43 3L43 4L41 4L41 3L40 3L40 0L37 0L37 2L36 2L36 0L35 0L35 1L34 1L34 0L33 0L33 1L34 1L34 3L35 3L35 4L36 4L36 3L37 3L37 2L38 2L38 3L39 3L39 5L41 5L41 6L40 6L40 7L41 7L41 6L42 6L42 7L43 7L43 8L44 8L44 9L43 9L43 10L42 10L42 11L41 11L41 10L40 10L40 8L39 8L39 9L37 9L37 8L38 8L38 7L39 7L39 6L38 6L38 4L37 4L37 5L36 5L36 7L37 7L37 8L35 8L35 6L34 6L34 5L33 5L33 3L32 3L32 2L31 2L31 3L30 3L30 4L29 4L29 2L30 2L30 0L27 0L27 2L26 2L26 1L25 1L25 2L24 2L24 3L23 3L23 2L22 2L22 1L24 1L24 0L21 0L21 1L19 1L19 0ZM11 1L11 2L12 2L12 1ZM28 1L28 2L29 2L29 1ZM42 1L42 2L43 2L43 3L44 3L44 2L43 2L43 1ZM17 2L17 3L15 3L15 4L13 4L13 5L12 5L12 6L11 6L11 5L10 5L10 6L9 6L9 7L10 7L10 9L11 9L11 10L10 10L10 12L11 12L11 13L12 13L12 15L11 15L11 16L8 16L8 19L6 19L6 18L7 18L7 17L6 17L6 16L7 16L7 15L5 15L5 13L3 13L3 15L2 15L2 18L3 18L3 20L5 20L5 19L6 19L6 20L8 20L8 19L9 19L9 18L11 18L11 19L12 19L12 20L13 20L13 21L12 21L12 22L13 22L13 23L12 23L12 24L14 24L14 27L13 27L13 29L12 29L12 30L13 30L13 29L14 29L14 28L15 28L15 29L17 29L17 31L16 31L16 32L13 32L13 33L16 33L16 34L15 34L15 36L14 36L14 34L13 34L13 36L14 36L14 39L15 39L15 40L12 40L12 41L13 41L13 43L12 43L12 42L11 42L11 40L10 40L10 39L9 39L9 40L10 40L10 42L9 42L9 43L10 43L10 46L9 46L9 45L8 45L8 44L7 44L7 45L8 45L8 46L9 46L9 48L10 48L10 50L9 50L9 51L8 51L8 52L9 52L9 53L10 53L10 54L11 54L11 55L9 55L9 56L8 56L8 57L9 57L9 58L7 58L7 57L6 57L6 56L5 56L5 55L4 55L4 56L5 56L5 57L4 57L4 58L5 58L5 59L6 59L6 60L5 60L5 61L4 61L4 62L5 62L5 63L6 63L6 64L7 64L7 63L6 63L6 62L8 62L8 61L11 61L11 62L10 62L10 63L9 63L9 64L8 64L8 65L9 65L9 64L10 64L10 65L11 65L11 66L12 66L12 67L13 67L13 66L14 66L14 68L11 68L11 70L10 70L10 71L11 71L11 72L10 72L10 73L11 73L11 72L12 72L12 73L14 73L14 72L15 72L15 71L14 71L14 70L16 70L16 72L17 72L17 71L19 71L19 70L20 70L20 69L21 69L21 68L22 68L22 66L21 66L21 65L24 65L24 68L26 68L26 67L25 67L25 66L28 66L28 67L27 67L27 68L29 68L29 67L30 67L30 68L31 68L31 69L32 69L32 70L33 70L33 71L32 71L32 72L33 72L33 73L32 73L32 74L33 74L33 73L35 73L35 74L34 74L34 75L36 75L36 74L37 74L37 75L38 75L38 73L39 73L39 76L41 76L41 75L42 75L42 74L43 74L43 72L40 72L40 71L39 71L39 72L38 72L38 71L37 71L37 70L39 70L39 69L37 69L37 68L38 68L38 65L39 65L39 64L40 64L40 63L41 63L41 62L42 62L42 60L44 60L44 61L43 61L43 62L45 62L45 60L46 60L46 65L47 65L47 66L48 66L48 67L47 67L47 68L48 68L48 67L49 67L49 66L50 66L50 68L52 68L52 67L53 67L53 65L54 65L54 63L55 63L55 60L57 60L57 61L58 61L58 62L57 62L57 63L56 63L56 65L55 65L55 66L54 66L54 67L55 67L55 66L56 66L56 67L57 67L57 68L58 68L58 67L57 67L57 66L58 66L58 65L57 65L57 64L59 64L59 65L60 65L60 63L59 63L59 61L60 61L60 62L61 62L61 61L62 61L62 60L65 60L65 61L64 61L64 63L63 63L63 62L62 62L62 63L61 63L61 65L62 65L62 63L63 63L63 65L64 65L64 67L61 67L61 66L60 66L60 67L61 67L61 70L60 70L60 71L61 71L61 70L64 70L64 69L62 69L62 68L64 68L64 67L65 67L65 69L66 69L66 68L67 68L67 67L68 67L68 66L67 66L67 65L66 65L66 64L67 64L67 63L68 63L68 61L69 61L69 63L70 63L70 62L71 62L71 64L73 64L73 63L74 63L74 64L75 64L75 63L74 63L74 62L76 62L76 60L75 60L75 61L74 61L74 60L73 60L73 58L71 58L71 57L72 57L72 56L73 56L73 57L74 57L74 55L73 55L73 54L72 54L72 56L69 56L69 57L68 57L68 58L67 58L67 56L66 56L66 55L67 55L67 54L66 54L66 55L65 55L65 53L66 53L66 52L67 52L67 51L66 51L66 49L67 49L67 50L68 50L68 46L69 46L69 45L68 45L68 46L67 46L67 44L66 44L66 43L63 43L63 46L62 46L62 47L55 47L55 46L54 46L54 47L53 47L53 46L52 46L52 45L51 45L51 44L53 44L53 45L54 45L54 44L56 44L56 43L57 43L57 44L58 44L58 45L57 45L57 46L58 46L58 45L60 45L60 46L61 46L61 45L62 45L62 43L61 43L61 42L63 42L63 40L64 40L64 42L65 42L65 41L66 41L66 40L67 40L67 39L68 39L68 38L69 38L69 37L68 37L68 38L67 38L67 36L66 36L66 35L68 35L68 34L69 34L69 33L70 33L70 34L71 34L71 33L70 33L70 32L68 32L68 30L69 30L69 29L68 29L68 30L67 30L67 31L66 31L66 29L67 29L67 28L68 28L68 27L67 27L67 28L66 28L66 27L65 27L65 26L68 26L68 25L67 25L67 24L68 24L68 23L69 23L69 22L70 22L70 20L71 20L71 19L72 19L72 18L73 18L73 16L74 16L74 15L73 15L73 16L72 16L72 15L71 15L71 18L69 18L69 19L70 19L70 20L68 20L68 18L67 18L67 16L68 16L68 17L69 17L69 16L68 16L68 15L69 15L69 13L68 13L68 14L67 14L67 15L66 15L66 14L64 14L64 13L63 13L63 14L62 14L62 15L60 15L60 16L57 16L57 17L58 17L58 19L57 19L57 18L56 18L56 16L55 16L55 15L54 15L54 13L57 13L57 14L58 14L58 15L59 15L59 14L58 14L58 13L60 13L60 14L61 14L61 13L62 13L62 12L65 12L65 13L66 13L66 11L65 11L65 10L64 10L64 11L63 11L63 9L62 9L62 11L61 11L61 10L60 10L60 4L61 4L61 3L58 3L58 4L57 4L57 5L56 5L56 4L55 4L55 3L54 3L54 4L55 4L55 5L53 5L53 7L52 7L52 4L53 4L53 3L51 3L51 8L52 8L52 10L54 10L54 9L53 9L53 8L56 8L56 11L55 11L55 12L54 12L54 11L52 11L52 13L51 13L51 10L50 10L50 9L49 9L49 10L50 10L50 11L49 11L49 12L48 12L48 13L47 13L47 11L44 11L44 10L43 10L43 12L42 12L42 13L43 13L43 12L46 12L46 13L45 13L45 14L47 14L47 15L48 15L48 13L49 13L49 12L50 12L50 14L49 14L49 16L48 16L48 17L49 17L49 18L50 18L50 19L49 19L49 20L50 20L50 22L49 22L49 24L51 24L51 21L52 21L52 20L51 20L51 18L52 18L52 17L51 17L51 16L52 16L52 15L51 15L51 14L52 14L52 13L53 13L53 17L54 17L54 16L55 16L55 18L54 18L54 19L53 19L53 22L52 22L52 23L53 23L53 24L54 24L54 25L55 25L55 26L56 26L56 27L55 27L55 28L56 28L56 27L57 27L57 28L58 28L58 27L59 27L59 29L58 29L58 30L56 30L56 31L55 31L55 30L54 30L54 31L53 31L53 29L54 29L54 27L53 27L53 26L52 26L52 25L51 25L51 26L52 26L52 27L51 27L51 29L50 29L50 30L49 30L49 29L48 29L48 30L49 30L49 32L50 32L50 36L51 36L51 34L52 34L52 33L51 33L51 32L52 32L52 31L53 31L53 32L54 32L54 34L55 34L55 33L56 33L56 35L57 35L57 37L58 37L58 36L59 36L59 38L58 38L58 39L57 39L57 40L58 40L58 42L55 42L55 41L56 41L56 39L55 39L55 38L56 38L56 36L54 36L54 35L52 35L52 37L54 37L54 39L52 39L52 40L51 40L51 42L52 42L52 43L49 43L49 42L50 42L50 41L49 41L49 40L50 40L50 39L51 39L51 38L50 38L50 39L49 39L49 38L48 38L48 36L47 36L47 35L48 35L48 34L49 34L49 33L48 33L48 31L47 31L47 35L46 35L46 36L47 36L47 37L46 37L46 38L45 38L45 43L44 43L44 44L41 44L41 45L39 45L39 46L38 46L38 44L40 44L40 43L43 43L43 41L44 41L44 40L43 40L43 39L44 39L44 37L45 37L45 36L43 36L43 35L42 35L42 34L40 34L40 33L41 33L41 31L42 31L42 33L43 33L43 34L46 34L46 33L45 33L45 32L44 32L44 30L43 30L43 29L44 29L44 28L46 28L46 26L45 26L45 27L41 27L41 26L44 26L44 25L43 25L43 24L46 24L46 23L43 23L43 22L44 22L44 21L43 21L43 20L45 20L45 21L46 21L46 22L47 22L47 23L48 23L48 21L47 21L47 20L48 20L48 18L47 18L47 16L46 16L46 15L44 15L44 16L46 16L46 17L44 17L44 18L46 18L46 19L42 19L42 16L43 16L43 15L37 15L37 14L38 14L38 13L40 13L40 14L41 14L41 13L40 13L40 12L41 12L41 11L39 11L39 10L38 10L38 11L39 11L39 12L37 12L37 11L36 11L36 10L37 10L37 9L36 9L36 10L35 10L35 8L34 8L34 6L33 6L33 5L32 5L32 6L31 6L31 4L30 4L30 6L29 6L29 7L30 7L30 8L31 8L31 9L28 9L28 11L29 11L29 13L28 13L28 12L27 12L27 11L25 11L25 9L24 9L24 6L23 6L23 5L22 5L22 6L21 6L21 7L20 7L20 5L21 5L21 4L23 4L23 3L20 3L20 5L18 5L18 4L19 4L19 3L18 3L18 2ZM35 2L35 3L36 3L36 2ZM56 2L56 3L57 3L57 2ZM62 2L62 3L63 3L63 2ZM8 3L8 4L9 4L9 3ZM25 3L25 4L27 4L27 3ZM49 3L49 4L50 4L50 3ZM14 5L14 7L13 7L13 6L12 6L12 8L11 8L11 9L16 9L16 10L14 10L14 11L13 11L13 10L12 10L12 11L13 11L13 12L12 12L12 13L13 13L13 15L14 15L14 14L15 14L15 11L16 11L16 13L22 13L22 14L21 14L21 15L22 15L22 16L21 16L21 17L20 17L20 20L19 20L19 22L18 22L18 21L17 21L17 20L18 20L18 19L19 19L19 18L18 18L18 16L20 16L20 15L18 15L18 14L16 14L16 15L17 15L17 17L16 17L16 19L15 19L15 20L16 20L16 23L15 23L15 21L13 21L13 22L14 22L14 23L15 23L15 24L16 24L16 25L15 25L15 28L18 28L18 29L19 29L19 30L18 30L18 31L17 31L17 35L16 35L16 39L17 39L17 40L15 40L15 41L14 41L14 42L15 42L15 44L14 44L14 43L13 43L13 44L11 44L11 46L12 46L12 45L13 45L13 47L10 47L10 48L12 48L12 49L13 49L13 48L14 48L14 50L10 50L10 53L12 53L12 56L11 56L11 59L10 59L10 60L11 60L11 59L13 59L13 60L12 60L12 62L13 62L13 63L12 63L12 64L13 64L13 65L12 65L12 66L13 66L13 65L14 65L14 64L15 64L15 59L13 59L13 57L14 57L14 56L15 56L15 57L16 57L16 58L17 58L17 57L16 57L16 56L17 56L17 51L18 51L18 53L19 53L19 55L20 55L20 56L21 56L21 57L19 57L19 56L18 56L18 57L19 57L19 58L18 58L18 59L16 59L16 62L19 62L19 63L17 63L17 64L16 64L16 65L15 65L15 66L17 66L17 67L18 67L18 68L16 68L16 67L15 67L15 68L16 68L16 69L18 69L18 70L19 70L19 69L20 69L20 68L21 68L21 66L19 66L19 65L20 65L20 64L19 64L19 63L20 63L20 61L19 61L19 60L20 60L20 59L21 59L21 61L23 61L23 63L22 63L22 62L21 62L21 64L24 64L24 65L27 65L27 63L28 63L28 65L29 65L29 63L30 63L30 64L35 64L35 65L36 65L36 64L37 64L37 65L38 65L38 62L39 62L39 63L40 63L40 62L41 62L41 60L40 60L40 59L39 59L39 58L40 58L40 57L41 57L41 58L42 58L42 57L43 57L43 59L44 59L44 60L45 60L45 58L46 58L46 57L47 57L47 59L46 59L46 60L47 60L47 59L48 59L48 60L49 60L49 59L48 59L48 56L47 56L47 55L48 55L48 54L47 54L47 52L48 52L48 53L50 53L50 57L51 57L51 58L50 58L50 61L51 61L51 60L52 60L52 61L53 61L53 62L48 62L48 61L47 61L47 63L48 63L48 64L47 64L47 65L48 65L48 66L49 66L49 65L50 65L50 66L51 66L51 67L52 67L52 66L51 66L51 64L52 64L52 65L53 65L53 64L52 64L52 63L54 63L54 60L52 60L52 59L54 59L54 57L53 57L53 56L55 56L55 59L56 59L56 56L55 56L55 55L58 55L58 59L60 59L60 60L61 60L61 59L60 59L60 57L61 57L61 56L59 56L59 55L62 55L62 53L61 53L61 50L62 50L62 51L64 51L64 52L65 52L65 51L64 51L64 50L65 50L65 48L64 48L64 46L65 46L65 47L66 47L66 48L67 48L67 47L66 47L66 46L65 46L65 44L64 44L64 46L63 46L63 47L62 47L62 49L61 49L61 50L60 50L60 48L58 48L58 49L57 49L57 50L58 50L58 49L59 49L59 52L58 52L58 53L57 53L57 54L56 54L56 53L55 53L55 51L56 51L56 52L57 52L57 51L56 51L56 48L55 48L55 47L54 47L54 50L51 50L51 49L52 49L52 48L51 48L51 47L52 47L52 46L51 46L51 45L50 45L50 44L49 44L49 43L48 43L48 42L47 42L47 41L46 41L46 45L42 45L42 47L40 47L40 46L39 46L39 47L40 47L40 49L38 49L38 46L36 46L36 45L37 45L37 44L38 44L38 43L39 43L39 42L38 42L38 41L40 41L40 42L41 42L41 41L43 41L43 40L42 40L42 36L41 36L41 38L40 38L40 37L38 37L38 36L40 36L40 34L38 34L38 32L39 32L39 33L40 33L40 32L39 32L39 28L41 28L41 27L39 27L39 28L38 28L38 29L37 29L37 27L38 27L38 26L39 26L39 25L37 25L37 24L40 24L40 25L41 25L41 24L40 24L40 23L39 23L39 21L40 21L40 22L42 22L42 21L40 21L40 20L39 20L39 19L38 19L38 20L37 20L37 18L36 18L36 19L35 19L35 15L36 15L36 16L37 16L37 15L36 15L36 11L32 11L32 10L34 10L34 8L33 8L33 9L31 9L31 11L30 11L30 13L29 13L29 14L28 14L28 16L30 16L30 17L28 17L28 20L29 20L29 18L30 18L30 19L31 19L31 20L30 20L30 21L31 21L31 20L32 20L32 21L34 21L34 20L35 20L35 21L36 21L36 22L37 22L37 23L35 23L35 22L30 22L30 23L28 23L28 24L26 24L26 23L23 23L23 24L22 24L22 25L18 25L18 24L16 24L16 23L17 23L17 22L18 22L18 23L20 23L20 24L21 24L21 22L24 22L24 21L26 21L26 22L29 22L29 21L26 21L26 20L25 20L25 19L23 19L23 20L24 20L24 21L22 21L22 19L21 19L21 18L23 18L23 17L22 17L22 16L23 16L23 14L24 14L24 13L25 13L25 16L24 16L24 18L26 18L26 17L25 17L25 16L27 16L27 15L26 15L26 14L27 14L27 12L26 12L26 13L25 13L25 12L24 12L24 9L23 9L23 8L22 8L22 9L23 9L23 10L21 10L21 8L20 8L20 7L19 7L19 6L18 6L18 5ZM25 5L25 8L28 8L28 5ZM47 5L47 8L50 8L50 5ZM58 5L58 9L59 9L59 5ZM10 6L10 7L11 7L11 6ZM15 6L15 8L17 8L17 12L20 12L20 11L21 11L21 10L19 10L19 9L20 9L20 8L19 8L19 7L18 7L18 6L17 6L17 7L16 7L16 6ZM22 6L22 7L23 7L23 6ZM26 6L26 7L27 7L27 6ZM30 6L30 7L31 7L31 8L32 8L32 7L33 7L33 6L32 6L32 7L31 7L31 6ZM37 6L37 7L38 7L38 6ZM48 6L48 7L49 7L49 6ZM54 6L54 7L55 7L55 6ZM56 6L56 7L57 7L57 6ZM17 7L17 8L18 8L18 7ZM1 9L1 10L2 10L2 9ZM6 9L6 10L7 10L7 9ZM26 9L26 10L27 10L27 9ZM47 9L47 10L48 10L48 9ZM18 10L18 11L19 11L19 10ZM57 10L57 11L60 11L60 12L61 12L61 11L60 11L60 10ZM2 11L2 12L3 12L3 11ZM31 11L31 12L32 12L32 14L31 14L31 15L30 15L30 14L29 14L29 15L30 15L30 16L33 16L33 18L34 18L34 16L33 16L33 15L34 15L34 14L33 14L33 13L34 13L34 12L32 12L32 11ZM13 12L13 13L14 13L14 12ZM53 12L53 13L54 13L54 12ZM76 12L76 13L77 13L77 12ZM6 13L6 14L7 14L7 13ZM70 13L70 14L71 14L71 13ZM32 14L32 15L33 15L33 14ZM63 14L63 15L62 15L62 19L63 19L63 20L62 20L62 21L60 21L60 18L59 18L59 23L60 23L60 24L61 24L61 25L62 25L62 26L61 26L61 27L62 27L62 28L60 28L60 30L58 30L58 31L60 31L60 30L61 30L61 31L62 31L62 30L63 30L63 31L65 31L65 29L64 29L64 27L63 27L63 26L65 26L65 23L66 23L66 24L67 24L67 23L68 23L68 22L69 22L69 21L68 21L68 20L66 20L66 21L65 21L65 18L66 18L66 16L65 16L65 15L64 15L64 14ZM3 15L3 18L4 18L4 19L5 19L5 18L6 18L6 17L5 17L5 18L4 18L4 16L5 16L5 15ZM63 15L63 17L64 17L64 18L65 18L65 16L64 16L64 15ZM75 15L75 16L76 16L76 15ZM39 16L39 17L41 17L41 16ZM60 16L60 17L61 17L61 16ZM12 17L12 18L15 18L15 17ZM30 17L30 18L32 18L32 17ZM50 17L50 18L51 18L51 17ZM17 18L17 19L16 19L16 20L17 20L17 19L18 19L18 18ZM55 18L55 19L54 19L54 20L55 20L55 19L56 19L56 20L57 20L57 22L58 22L58 20L57 20L57 19L56 19L56 18ZM13 19L13 20L14 20L14 19ZM46 19L46 20L47 20L47 19ZM1 20L1 21L2 21L2 20ZM9 20L9 21L6 21L6 22L5 22L5 21L3 21L3 22L2 22L2 23L3 23L3 24L4 24L4 23L3 23L3 22L5 22L5 24L7 24L7 23L6 23L6 22L8 22L8 24L9 24L9 25L10 25L10 24L9 24L9 23L11 23L11 20ZM63 20L63 22L64 22L64 20ZM37 21L37 22L38 22L38 21ZM54 21L54 22L53 22L53 23L56 23L56 21ZM67 21L67 22L66 22L66 23L67 23L67 22L68 22L68 21ZM60 22L60 23L61 23L61 24L63 24L63 25L64 25L64 23L62 23L62 22ZM31 23L31 24L29 24L29 25L31 25L31 24L32 24L32 29L30 29L30 33L31 33L31 34L29 34L29 33L28 33L28 34L29 34L29 35L27 35L27 33L25 33L25 32L24 32L24 33L23 33L23 35L22 35L22 36L23 36L23 37L22 37L22 38L23 38L23 39L22 39L22 41L23 41L23 40L25 40L25 41L24 41L24 42L23 42L23 43L22 43L22 42L20 42L20 41L21 41L21 39L20 39L20 37L21 37L21 36L20 36L20 35L21 35L21 34L20 34L20 32L21 32L21 31L23 31L23 30L24 30L24 27L23 27L23 26L24 26L24 25L23 25L23 26L22 26L22 27L21 27L21 28L20 28L20 31L18 31L18 33L19 33L19 34L18 34L18 35L19 35L19 38L18 38L18 36L17 36L17 38L18 38L18 39L20 39L20 41L19 41L19 40L18 40L18 41L16 41L16 45L17 45L17 46L19 46L19 47L18 47L18 49L17 49L17 47L16 47L16 50L15 50L15 51L17 51L17 50L18 50L18 51L19 51L19 52L22 52L22 53L20 53L20 55L22 55L22 57L21 57L21 59L22 59L22 60L24 60L24 64L25 64L25 63L27 63L27 61L30 61L30 60L31 60L31 61L32 61L32 62L31 62L31 63L32 63L32 62L33 62L33 63L36 63L36 62L35 62L35 60L39 60L39 62L40 62L40 60L39 60L39 59L38 59L38 58L39 58L39 56L38 56L38 55L43 55L43 56L44 56L44 57L45 57L45 56L46 56L46 55L45 55L45 56L44 56L44 54L43 54L43 53L44 53L44 52L45 52L45 51L46 51L46 48L45 48L45 47L44 47L44 48L43 48L43 47L42 47L42 48L41 48L41 49L40 49L40 50L39 50L39 52L37 52L37 53L35 53L35 54L34 54L34 55L36 55L36 56L34 56L34 58L33 58L33 57L32 57L32 54L33 54L33 53L34 53L34 52L32 52L32 54L31 54L31 56L29 56L29 55L30 55L30 54L29 54L29 53L31 53L31 51L32 51L32 50L31 50L31 48L29 48L29 50L31 50L31 51L30 51L30 52L28 52L28 51L27 51L27 52L26 52L26 51L23 51L23 49L24 49L24 47L23 47L23 46L21 46L21 45L22 45L22 44L23 44L23 45L24 45L24 46L25 46L25 45L26 45L26 44L27 44L27 46L30 46L30 45L33 45L33 46L31 46L31 47L32 47L32 49L34 49L34 50L35 50L35 52L36 52L36 51L38 51L38 49L37 49L37 50L36 50L36 46L35 46L35 45L36 45L36 44L37 44L37 43L35 43L35 44L34 44L34 45L33 45L33 43L34 43L34 41L35 41L35 42L37 42L37 41L35 41L35 40L36 40L36 38L38 38L38 37L37 37L37 35L36 35L36 34L37 34L37 33L36 33L36 32L34 32L34 31L33 31L33 30L35 30L35 31L38 31L38 30L35 30L35 29L36 29L36 27L35 27L35 26L36 26L36 24L34 24L34 23ZM70 23L70 24L73 24L73 25L74 25L74 24L73 24L73 23ZM33 24L33 25L34 25L34 24ZM55 24L55 25L56 25L56 26L57 26L57 27L58 27L58 26L59 26L59 27L60 27L60 25L59 25L59 24L58 24L58 25L57 25L57 24ZM5 25L5 28L8 28L8 25ZM17 25L17 26L18 26L18 25ZM25 25L25 28L28 28L28 25ZM47 25L47 28L50 28L50 25ZM69 25L69 28L72 28L72 25ZM2 26L2 27L3 27L3 26ZM6 26L6 27L7 27L7 26ZM26 26L26 27L27 27L27 26ZM33 26L33 29L32 29L32 30L31 30L31 32L32 32L32 30L33 30L33 29L34 29L34 26ZM48 26L48 27L49 27L49 26ZM70 26L70 27L71 27L71 26ZM52 27L52 28L53 28L53 27ZM21 28L21 30L23 30L23 28ZM62 28L62 29L61 29L61 30L62 30L62 29L63 29L63 28ZM73 28L73 30L76 30L76 29L74 29L74 28ZM25 29L25 31L26 31L26 32L29 32L29 29L28 29L28 30L27 30L27 29ZM40 29L40 30L41 30L41 29ZM46 29L46 30L47 30L47 29ZM51 29L51 31L50 31L50 32L51 32L51 31L52 31L52 29ZM70 29L70 31L71 31L71 30L72 30L72 29ZM2 30L2 32L1 32L1 33L2 33L2 32L3 32L3 30ZM26 30L26 31L27 31L27 30ZM42 30L42 31L43 31L43 30ZM54 31L54 32L55 32L55 31ZM56 31L56 32L57 32L57 34L58 34L58 35L59 35L59 36L60 36L60 38L59 38L59 39L58 39L58 40L59 40L59 39L60 39L60 41L59 41L59 43L58 43L58 44L59 44L59 43L60 43L60 44L61 44L61 43L60 43L60 41L61 41L61 36L60 36L60 35L62 35L62 36L63 36L63 35L64 35L64 36L65 36L65 37L66 37L66 36L65 36L65 35L66 35L66 32L62 32L62 33L61 33L61 34L58 34L58 33L60 33L60 32L57 32L57 31ZM72 31L72 33L73 33L73 32L74 32L74 31ZM33 32L33 33L34 33L34 34L36 34L36 33L34 33L34 32ZM43 32L43 33L44 33L44 32ZM67 32L67 34L68 34L68 32ZM64 33L64 35L65 35L65 33ZM19 34L19 35L20 35L20 34ZM31 34L31 36L33 36L33 38L36 38L36 37L34 37L34 36L35 36L35 35L32 35L32 34ZM62 34L62 35L63 35L63 34ZM23 35L23 36L24 36L24 37L23 37L23 38L24 38L24 37L25 37L25 38L26 38L26 39L29 39L29 42L28 42L28 40L27 40L27 41L25 41L25 42L28 42L28 43L27 43L27 44L28 44L28 45L30 45L30 44L31 44L31 43L30 43L30 41L31 41L31 40L32 40L32 42L33 42L33 41L34 41L34 40L35 40L35 39L32 39L32 37L29 37L29 36L30 36L30 35L29 35L29 36L27 36L27 37L25 37L25 36L26 36L26 35ZM5 37L5 39L4 39L4 40L5 40L5 39L6 39L6 40L7 40L7 39L6 39L6 38L8 38L8 37ZM27 37L27 38L28 38L28 37ZM62 37L62 39L64 39L64 40L65 40L65 39L66 39L66 38L65 38L65 39L64 39L64 37ZM29 38L29 39L30 39L30 40L31 40L31 38ZM46 38L46 39L47 39L47 38ZM38 39L38 40L39 40L39 39ZM40 39L40 40L41 40L41 39ZM54 39L54 40L52 40L52 41L53 41L53 42L54 42L54 43L55 43L55 42L54 42L54 41L55 41L55 39ZM75 40L75 41L76 41L76 40ZM18 41L18 42L17 42L17 43L18 43L18 42L19 42L19 41ZM21 43L21 44L22 44L22 43ZM23 43L23 44L24 44L24 43ZM29 43L29 44L30 44L30 43ZM47 43L47 44L48 44L48 45L46 45L46 46L49 46L49 44L48 44L48 43ZM13 44L13 45L14 45L14 44ZM19 44L19 45L20 45L20 44ZM71 44L71 45L70 45L70 46L72 46L72 45L74 45L74 44ZM5 47L5 50L8 50L8 47ZM14 47L14 48L15 48L15 47ZM19 47L19 48L20 48L20 47ZM25 47L25 50L28 50L28 47ZM47 47L47 50L50 50L50 47ZM69 47L69 50L72 50L72 47ZM3 48L3 50L2 50L2 51L1 51L1 52L2 52L2 51L3 51L3 52L4 52L4 48ZM6 48L6 49L7 49L7 48ZM21 48L21 49L20 49L20 50L19 50L19 51L22 51L22 50L21 50L21 49L22 49L22 48ZM26 48L26 49L27 49L27 48ZM42 48L42 49L43 49L43 48ZM44 48L44 49L45 49L45 48ZM48 48L48 49L49 49L49 48ZM70 48L70 49L71 49L71 48ZM73 48L73 49L74 49L74 50L75 50L75 49L74 49L74 48ZM41 50L41 51L40 51L40 52L39 52L39 53L38 53L38 54L40 54L40 52L41 52L41 53L42 53L42 50ZM44 50L44 51L45 51L45 50ZM54 50L54 51L53 51L53 53L52 53L52 51L48 51L48 52L50 52L50 53L52 53L52 54L54 54L54 51L55 51L55 50ZM11 51L11 52L12 52L12 51ZM69 51L69 53L68 53L68 55L69 55L69 54L70 54L70 53L71 53L71 51ZM72 51L72 52L73 52L73 53L74 53L74 54L76 54L76 53L75 53L75 51ZM13 52L13 53L14 53L14 54L13 54L13 56L12 56L12 57L13 57L13 56L14 56L14 54L16 54L16 52L15 52L15 53L14 53L14 52ZM22 53L22 55L25 55L25 54L26 54L26 55L29 55L29 54L28 54L28 53L27 53L27 54L26 54L26 53ZM45 53L45 54L46 54L46 53ZM63 53L63 56L62 56L62 59L65 59L65 58L66 58L66 57L65 57L65 56L64 56L64 53ZM36 54L36 55L37 55L37 54ZM58 54L58 55L59 55L59 54ZM15 55L15 56L16 56L16 55ZM51 55L51 56L53 56L53 55ZM23 56L23 57L22 57L22 58L23 58L23 59L24 59L24 60L25 60L25 62L26 62L26 60L27 60L27 58L26 58L26 60L25 60L25 59L24 59L24 58L25 58L25 56ZM27 56L27 57L28 57L28 56ZM37 56L37 57L36 57L36 58L37 58L37 57L38 57L38 56ZM41 56L41 57L42 57L42 56ZM5 57L5 58L6 58L6 59L7 59L7 60L6 60L6 61L7 61L7 60L8 60L8 59L7 59L7 58L6 58L6 57ZM23 57L23 58L24 58L24 57ZM29 57L29 58L30 58L30 57ZM52 57L52 58L53 58L53 57ZM69 57L69 58L68 58L68 59L70 59L70 60L69 60L69 61L71 61L71 58L70 58L70 57ZM19 58L19 59L18 59L18 60L19 60L19 59L20 59L20 58ZM32 58L32 59L31 59L31 60L32 60L32 61L33 61L33 58ZM34 58L34 60L35 60L35 58ZM28 59L28 60L29 60L29 59ZM66 60L66 61L68 61L68 60ZM72 60L72 61L73 61L73 62L72 62L72 63L73 63L73 62L74 62L74 61L73 61L73 60ZM37 61L37 62L38 62L38 61ZM28 62L28 63L29 63L29 62ZM65 62L65 63L64 63L64 64L65 64L65 63L67 63L67 62ZM0 63L0 65L1 65L1 63ZM49 63L49 64L48 64L48 65L49 65L49 64L50 64L50 63ZM18 64L18 65L19 65L19 64ZM6 65L6 66L7 66L7 65ZM30 65L30 66L31 66L31 68L32 68L32 67L33 67L33 70L35 70L35 71L34 71L34 72L37 72L37 73L38 73L38 72L37 72L37 71L36 71L36 70L35 70L35 69L36 69L36 68L35 68L35 66L34 66L34 67L33 67L33 65L32 65L32 66L31 66L31 65ZM56 65L56 66L57 66L57 65ZM1 66L1 67L2 67L2 66ZM9 66L9 67L10 67L10 66ZM36 66L36 67L37 67L37 66ZM65 66L65 67L67 67L67 66ZM69 67L69 68L70 68L70 67ZM75 67L75 68L76 68L76 67ZM6 68L6 69L7 69L7 68ZM43 68L43 69L40 69L40 70L42 70L42 71L43 71L43 69L44 69L44 68ZM13 69L13 70L14 70L14 69ZM25 69L25 72L28 72L28 69ZM47 69L47 72L50 72L50 69ZM69 69L69 72L72 72L72 69ZM11 70L11 71L12 71L12 70ZM23 70L23 71L22 71L22 72L23 72L23 71L24 71L24 70ZM26 70L26 71L27 71L27 70ZM48 70L48 71L49 71L49 70ZM66 70L66 71L67 71L67 70ZM70 70L70 71L71 71L71 70ZM13 71L13 72L14 72L14 71ZM53 71L53 72L54 72L54 75L55 75L55 76L56 76L56 75L55 75L55 74L56 74L56 73L55 73L55 72L54 72L54 71ZM73 72L73 73L72 73L72 74L73 74L73 73L74 73L74 76L75 76L75 73L74 73L74 72ZM15 73L15 74L16 74L16 73ZM23 73L23 76L24 76L24 75L25 75L25 73ZM41 73L41 74L42 74L42 73ZM69 73L69 74L71 74L71 73ZM52 74L52 75L53 75L53 74ZM58 74L58 75L57 75L57 76L58 76L58 75L59 75L59 74ZM28 76L28 77L30 77L30 76ZM0 0L0 7L7 7L7 0ZM1 1L1 6L6 6L6 1ZM2 2L2 5L5 5L5 2ZM70 0L70 7L77 7L77 0ZM71 1L71 6L76 6L76 1ZM72 2L72 5L75 5L75 2ZM0 70L0 77L7 77L7 70ZM1 71L1 76L6 76L6 71ZM2 72L2 75L5 75L5 72Z" fill="#000000"/></g></g></svg>
