<?xml version="1.0" encoding="UTF-8"?>
<svg xmlns="http://www.w3.org/2000/svg" version="1.1" width="400" height="400" viewBox="0 0 400 400"><rect x="0" y="0" width="400" height="400" fill="#fefefe"/><g transform="scale(4.706)"><g transform="translate(4,4)"><path fill-rule="evenodd" d="M8 0L8 1L11 1L11 2L9 2L9 3L11 3L11 4L12 4L12 3L13 3L13 5L11 5L11 6L10 6L10 5L9 5L9 4L8 4L8 7L9 7L9 6L10 6L10 8L9 8L9 9L10 9L10 8L12 8L12 7L13 7L13 5L14 5L14 9L11 9L11 10L14 10L14 11L16 11L16 12L17 12L17 11L16 11L16 10L17 10L17 9L18 9L18 10L19 10L19 9L20 9L20 8L21 8L21 6L20 6L20 4L19 4L19 5L18 5L18 7L17 7L17 6L16 6L16 8L17 8L17 9L15 9L15 4L16 4L16 5L17 5L17 4L16 4L16 3L17 3L17 2L14 2L14 3L13 3L13 1L16 1L16 0L13 0L13 1L11 1L11 0ZM20 0L20 1L19 1L19 2L18 2L18 3L19 3L19 2L22 2L22 1L24 1L24 0ZM25 0L25 1L26 1L26 2L23 2L23 3L24 3L24 4L23 4L23 6L22 6L22 7L23 7L23 8L22 8L22 9L23 9L23 10L22 10L22 13L26 13L26 12L27 12L27 14L21 14L21 15L20 15L20 13L19 13L19 15L18 15L18 16L17 16L17 18L16 18L16 15L17 15L17 14L16 14L16 13L15 13L15 12L14 12L14 13L13 13L13 14L10 14L10 13L9 13L9 14L8 14L8 12L9 12L9 11L8 11L8 10L5 10L5 12L6 12L6 13L4 13L4 14L5 14L5 15L3 15L3 14L1 14L1 13L3 13L3 11L4 11L4 9L8 9L8 8L1 8L1 10L0 10L0 12L1 12L1 13L0 13L0 20L2 20L2 21L3 21L3 22L2 22L2 23L1 23L1 21L0 21L0 25L1 25L1 26L0 26L0 27L1 27L1 28L0 28L0 30L2 30L2 29L1 29L1 28L4 28L4 30L3 30L3 32L2 32L2 33L1 33L1 31L0 31L0 33L1 33L1 34L2 34L2 33L3 33L3 36L0 36L0 39L1 39L1 38L2 38L2 37L3 37L3 39L2 39L2 42L0 42L0 46L1 46L1 47L3 47L3 49L4 49L4 51L5 51L5 52L6 52L6 53L5 53L5 59L4 59L4 57L3 57L3 56L0 56L0 57L2 57L2 58L3 58L3 59L4 59L4 61L3 61L3 62L2 62L2 59L0 59L0 60L1 60L1 64L0 64L0 66L1 66L1 67L2 67L2 66L1 66L1 65L2 65L2 64L3 64L3 62L4 62L4 61L7 61L7 60L8 60L8 62L5 62L5 63L4 63L4 65L5 65L5 66L4 66L4 68L1 68L1 69L5 69L5 67L7 67L7 68L6 68L6 69L8 69L8 76L9 76L9 77L10 77L10 75L12 75L12 77L13 77L13 75L14 75L14 74L15 74L15 72L14 72L14 71L15 71L15 70L16 70L16 73L18 73L18 74L16 74L16 75L15 75L15 76L14 76L14 77L15 77L15 76L16 76L16 75L17 75L17 76L18 76L18 75L20 75L20 74L19 74L19 73L20 73L20 72L21 72L21 71L24 71L24 74L25 74L25 77L27 77L27 76L28 76L28 74L27 74L27 73L30 73L30 72L33 72L33 73L32 73L32 74L31 74L31 75L33 75L33 76L30 76L30 74L29 74L29 76L30 76L30 77L35 77L35 76L36 76L36 75L37 75L37 76L38 76L38 77L42 77L42 75L41 75L41 76L40 76L40 75L39 75L39 74L41 74L41 73L40 73L40 71L41 71L41 72L42 72L42 71L43 71L43 73L44 73L44 74L43 74L43 75L44 75L44 77L45 77L45 76L46 76L46 77L49 77L49 76L50 76L50 75L49 75L49 73L50 73L50 74L51 74L51 75L53 75L53 74L51 74L51 73L54 73L54 72L53 72L53 71L55 71L55 72L56 72L56 71L55 71L55 70L57 70L57 68L58 68L58 67L59 67L59 68L60 68L60 69L58 69L58 70L60 70L60 73L59 73L59 72L58 72L58 71L57 71L57 72L58 72L58 73L57 73L57 74L56 74L56 73L55 73L55 74L54 74L54 76L52 76L52 77L54 77L54 76L55 76L55 77L56 77L56 76L55 76L55 74L56 74L56 75L57 75L57 76L58 76L58 77L64 77L64 76L60 76L60 75L61 75L61 71L62 71L62 69L64 69L64 70L63 70L63 71L64 71L64 70L65 70L65 71L67 71L67 72L65 72L65 73L67 73L67 72L68 72L68 74L65 74L65 75L66 75L66 76L65 76L65 77L67 77L67 75L68 75L68 76L69 76L69 77L73 77L73 76L70 76L70 73L71 73L71 74L72 74L72 75L73 75L73 72L74 72L74 71L75 71L75 72L77 72L77 71L75 71L75 70L74 70L74 69L75 69L75 68L77 68L77 67L75 67L75 66L74 66L74 65L75 65L75 64L74 64L74 65L73 65L73 61L75 61L75 62L74 62L74 63L75 63L75 62L76 62L76 61L75 61L75 60L77 60L77 59L75 59L75 58L77 58L77 57L75 57L75 58L74 58L74 57L72 57L72 58L74 58L74 59L75 59L75 60L73 60L73 59L72 59L72 61L71 61L71 59L70 59L70 58L71 58L71 57L70 57L70 56L77 56L77 55L75 55L75 54L74 54L74 53L72 53L72 54L71 54L71 52L74 52L74 51L75 51L75 53L76 53L76 52L77 52L77 51L76 51L76 50L77 50L77 49L75 49L75 50L74 50L74 48L73 48L73 46L74 46L74 47L75 47L75 48L77 48L77 47L76 47L76 46L74 46L74 45L75 45L75 44L77 44L77 43L75 43L75 42L76 42L76 41L75 41L75 42L72 42L72 41L74 41L74 40L72 40L72 39L73 39L73 38L70 38L70 37L69 37L69 35L71 35L71 37L73 37L73 35L74 35L74 37L75 37L75 36L77 36L77 34L72 34L72 33L73 33L73 31L76 31L76 32L74 32L74 33L76 33L76 32L77 32L77 31L76 31L76 30L77 30L77 27L75 27L75 26L76 26L76 24L77 24L77 23L76 23L76 22L77 22L77 21L75 21L75 22L74 22L74 20L75 20L75 19L76 19L76 20L77 20L77 19L76 19L76 17L75 17L75 18L74 18L74 17L72 17L72 16L77 16L77 15L76 15L76 14L74 14L74 15L72 15L72 16L71 16L71 14L73 14L73 13L72 13L72 12L74 12L74 13L75 13L75 12L77 12L77 11L76 11L76 10L74 10L74 9L73 9L73 8L71 8L71 9L70 9L70 10L69 10L69 9L68 9L68 8L67 8L67 5L69 5L69 1L68 1L68 4L66 4L66 3L65 3L65 4L64 4L64 2L67 2L67 1L65 1L65 0L62 0L62 2L63 2L63 4L64 4L64 5L63 5L63 6L62 6L62 5L60 5L60 4L62 4L62 3L58 3L58 0L57 0L57 3L56 3L56 2L55 2L55 3L53 3L53 4L55 4L55 5L51 5L51 4L52 4L52 0L50 0L50 1L51 1L51 2L50 2L50 3L48 3L48 2L49 2L49 1L48 1L48 0L45 0L45 1L46 1L46 2L44 2L44 1L42 1L42 0L40 0L40 1L39 1L39 2L38 2L38 0L35 0L35 1L37 1L37 2L36 2L36 3L35 3L35 6L34 6L34 4L33 4L33 3L34 3L34 1L33 1L33 2L32 2L32 1L31 1L31 0L28 0L28 1L27 1L27 0ZM55 0L55 1L56 1L56 0ZM59 0L59 1L60 1L60 2L61 2L61 0ZM29 1L29 2L31 2L31 3L28 3L28 2L27 2L27 3L28 3L28 4L29 4L29 5L30 5L30 6L29 6L29 7L30 7L30 8L31 8L31 10L29 10L29 9L25 9L25 11L26 11L26 10L27 10L27 11L28 11L28 12L29 12L29 14L27 14L27 15L25 15L25 16L24 16L24 17L23 17L23 15L22 15L22 16L21 16L21 17L23 17L23 18L20 18L20 17L19 17L19 18L17 18L17 20L16 20L16 18L15 18L15 15L14 15L14 14L15 14L15 13L14 13L14 14L13 14L13 15L8 15L8 16L10 16L10 17L6 17L6 18L7 18L7 19L6 19L6 20L5 20L5 22L3 22L3 23L2 23L2 24L1 24L1 25L2 25L2 26L1 26L1 27L4 27L4 26L3 26L3 25L4 25L4 24L8 24L8 23L5 23L5 22L7 22L7 21L6 21L6 20L7 20L7 19L8 19L8 18L9 18L9 20L8 20L8 22L9 22L9 24L12 24L12 23L13 23L13 25L9 25L9 29L8 29L8 31L6 31L6 32L4 32L4 36L5 36L5 37L4 37L4 40L3 40L3 41L4 41L4 43L6 43L6 44L5 44L5 45L4 45L4 44L3 44L3 43L2 43L2 44L3 44L3 45L2 45L2 46L8 46L8 45L9 45L9 47L11 47L11 46L12 46L12 49L11 49L11 48L10 48L10 49L9 49L9 50L11 50L11 52L10 52L10 54L9 54L9 55L8 55L8 53L9 53L9 52L8 52L8 51L6 51L6 52L8 52L8 53L6 53L6 54L7 54L7 55L6 55L6 56L9 56L9 55L10 55L10 58L11 58L11 59L8 59L8 58L9 58L9 57L6 57L6 58L7 58L7 59L6 59L6 60L7 60L7 59L8 59L8 60L9 60L9 61L10 61L10 60L13 60L13 66L12 66L12 65L11 65L11 67L13 67L13 68L12 68L12 69L11 69L11 68L10 68L10 69L9 69L9 71L10 71L10 72L9 72L9 74L10 74L10 72L11 72L11 70L12 70L12 69L13 69L13 70L14 70L14 69L15 69L15 65L16 65L16 66L17 66L17 67L16 67L16 69L17 69L17 72L18 72L18 69L19 69L19 71L21 71L21 70L22 70L22 68L20 68L20 67L22 67L22 65L21 65L21 66L20 66L20 65L19 65L19 64L20 64L20 63L21 63L21 64L22 64L22 63L23 63L23 62L24 62L24 64L23 64L23 65L24 65L24 66L23 66L23 67L24 67L24 68L23 68L23 69L24 69L24 68L28 68L28 67L27 67L27 65L28 65L28 66L29 66L29 68L30 68L30 70L29 70L29 71L30 71L30 70L32 70L32 71L33 71L33 72L35 72L35 74L34 74L34 73L33 73L33 75L35 75L35 74L36 74L36 73L38 73L38 74L37 74L37 75L38 75L38 76L39 76L39 75L38 75L38 74L39 74L39 69L37 69L37 68L36 68L36 70L38 70L38 72L36 72L36 71L33 71L33 69L34 69L34 70L35 70L35 69L34 69L34 68L35 68L35 67L36 67L36 65L35 65L35 64L36 64L36 63L35 63L35 62L36 62L36 60L37 60L37 62L38 62L38 63L37 63L37 67L39 67L39 66L40 66L40 65L44 65L44 66L43 66L43 67L40 67L40 69L41 69L41 71L42 71L42 70L43 70L43 71L44 71L44 73L45 73L45 74L44 74L44 75L46 75L46 76L48 76L48 75L47 75L47 74L48 74L48 73L47 73L47 74L46 74L46 70L43 70L43 67L44 67L44 69L45 69L45 68L47 68L47 67L48 67L48 66L53 66L53 65L50 65L50 64L51 64L51 63L50 63L50 64L49 64L49 63L48 63L48 62L49 62L49 61L48 61L48 60L50 60L50 62L52 62L52 64L54 64L54 65L55 65L55 67L52 67L52 68L51 68L51 67L50 67L50 68L51 68L51 70L52 70L52 71L51 71L51 72L52 72L52 71L53 71L53 70L54 70L54 69L56 69L56 67L57 67L57 66L59 66L59 67L60 67L60 66L61 66L61 69L62 69L62 65L63 65L63 66L64 66L64 65L65 65L65 64L66 64L66 63L64 63L64 64L62 64L62 62L64 62L64 61L60 61L60 62L59 62L59 61L58 61L58 60L62 60L62 59L61 59L61 58L63 58L63 57L62 57L62 56L63 56L63 55L61 55L61 56L56 56L56 55L60 55L60 54L64 54L64 53L62 53L62 50L63 50L63 49L62 49L62 47L63 47L63 48L64 48L64 49L65 49L65 50L64 50L64 52L66 52L66 51L65 51L65 50L66 50L66 49L65 49L65 48L66 48L66 47L67 47L67 50L68 50L68 46L71 46L71 44L69 44L69 43L70 43L70 42L71 42L71 41L72 41L72 40L71 40L71 39L70 39L70 40L71 40L71 41L68 41L68 40L69 40L69 39L68 39L68 38L69 38L69 37L68 37L68 36L67 36L67 35L69 35L69 34L71 34L71 33L70 33L70 32L72 32L72 31L70 31L70 30L71 30L71 29L68 29L68 23L67 23L67 28L66 28L66 25L65 25L65 26L64 26L64 24L63 24L63 22L64 22L64 21L65 21L65 20L66 20L66 19L65 19L65 18L66 18L66 17L65 17L65 18L64 18L64 16L67 16L67 18L69 18L69 17L70 17L70 19L69 19L69 20L68 20L68 19L67 19L67 20L68 20L68 21L66 21L66 22L68 22L68 21L69 21L69 23L70 23L70 24L71 24L71 22L70 22L70 21L73 21L73 20L71 20L71 18L72 18L72 17L71 17L71 16L70 16L70 15L69 15L69 17L68 17L68 15L67 15L67 14L70 14L70 13L71 13L71 11L72 11L72 9L71 9L71 10L70 10L70 12L69 12L69 13L68 13L68 11L69 11L69 10L68 10L68 11L67 11L67 12L66 12L66 11L65 11L65 10L66 10L66 9L65 9L65 8L66 8L66 5L65 5L65 7L64 7L64 6L63 6L63 7L62 7L62 6L61 6L61 7L60 7L60 5L59 5L59 4L58 4L58 3L57 3L57 5L55 5L55 8L54 8L54 9L56 9L56 10L53 10L53 11L52 11L52 12L51 12L51 11L50 11L50 10L51 10L51 9L53 9L53 8L51 8L51 9L50 9L50 10L49 10L49 9L47 9L47 10L49 10L49 12L51 12L51 13L50 13L50 14L52 14L52 15L49 15L49 16L51 16L51 18L50 18L50 17L48 17L48 16L47 16L47 15L46 15L46 16L45 16L45 14L43 14L43 15L42 15L42 16L41 16L41 14L42 14L42 13L40 13L40 16L39 16L39 17L38 17L38 14L39 14L39 13L38 13L38 12L39 12L39 11L38 11L38 10L42 10L42 9L43 9L43 11L46 11L46 10L44 10L44 9L46 9L46 8L44 8L44 6L45 6L45 7L46 7L46 6L45 6L45 5L44 5L44 4L46 4L46 3L47 3L47 4L48 4L48 3L47 3L47 2L46 2L46 3L44 3L44 2L43 2L43 3L42 3L42 4L41 4L41 3L40 3L40 2L39 2L39 4L37 4L37 3L36 3L36 5L38 5L38 6L37 6L37 8L35 8L35 9L37 9L37 10L35 10L35 11L34 11L34 10L33 10L33 9L34 9L34 6L33 6L33 7L32 7L32 6L31 6L31 3L32 3L32 2L31 2L31 1ZM14 3L14 4L15 4L15 3ZM21 3L21 5L22 5L22 3ZM25 3L25 4L26 4L26 3ZM55 3L55 4L56 4L56 3ZM32 4L32 5L33 5L33 4ZM39 4L39 6L38 6L38 7L39 7L39 9L42 9L42 8L43 8L43 4L42 4L42 8L41 8L41 6L40 6L40 4ZM25 5L25 8L28 8L28 5ZM47 5L47 8L50 8L50 5ZM57 5L57 6L56 6L56 7L57 7L57 8L56 8L56 9L57 9L57 8L59 8L59 9L58 9L58 10L57 10L57 12L56 12L56 14L57 14L57 12L58 12L58 13L59 13L59 14L58 14L58 15L55 15L55 11L54 11L54 12L53 12L53 13L52 13L52 14L53 14L53 15L52 15L52 16L53 16L53 17L54 17L54 18L55 18L55 17L56 17L56 18L57 18L57 20L61 20L61 21L62 21L62 20L61 20L61 19L62 19L62 18L63 18L63 21L64 21L64 20L65 20L65 19L64 19L64 18L63 18L63 17L62 17L62 16L61 16L61 17L62 17L62 18L61 18L61 19L58 19L58 18L60 18L60 17L58 17L58 15L59 15L59 16L60 16L60 15L62 15L62 14L63 14L63 16L64 16L64 15L65 15L65 14L63 14L63 13L64 13L64 12L60 12L60 13L59 13L59 12L58 12L58 10L59 10L59 9L61 9L61 11L64 11L64 10L65 10L65 9L64 9L64 8L62 8L62 9L61 9L61 8L60 8L60 7L59 7L59 6L58 6L58 5ZM11 6L11 7L12 7L12 6ZM19 6L19 7L20 7L20 6ZM23 6L23 7L24 7L24 6ZM26 6L26 7L27 7L27 6ZM30 6L30 7L31 7L31 8L32 8L32 7L31 7L31 6ZM35 6L35 7L36 7L36 6ZM39 6L39 7L40 7L40 6ZM48 6L48 7L49 7L49 6ZM51 6L51 7L52 7L52 6ZM53 6L53 7L54 7L54 6ZM57 6L57 7L58 7L58 6ZM68 6L68 7L69 7L69 6ZM18 8L18 9L19 9L19 8ZM37 8L37 9L38 9L38 8ZM76 8L76 9L77 9L77 8ZM62 9L62 10L64 10L64 9ZM1 10L1 11L3 11L3 10ZM20 10L20 11L19 11L19 12L20 12L20 11L21 11L21 10ZM28 10L28 11L29 11L29 12L30 12L30 14L29 14L29 15L27 15L27 18L28 18L28 19L27 19L27 21L28 21L28 22L30 22L30 23L29 23L29 24L26 24L26 23L27 23L27 22L24 22L24 23L23 23L23 22L22 22L22 21L23 21L23 20L20 20L20 19L19 19L19 21L18 21L18 20L17 20L17 23L19 23L19 24L22 24L22 23L23 23L23 24L24 24L24 29L26 29L26 30L27 30L27 31L26 31L26 34L23 34L23 35L21 35L21 34L22 34L22 32L23 32L23 33L25 33L25 31L23 31L23 29L22 29L22 28L21 28L21 27L23 27L23 26L20 26L20 27L19 27L19 28L18 28L18 29L17 29L17 28L16 28L16 27L18 27L18 26L17 26L17 25L18 25L18 24L17 24L17 25L15 25L15 24L14 24L14 26L11 26L11 28L14 28L14 30L13 30L13 31L12 31L12 30L11 30L11 31L12 31L12 32L11 32L11 34L10 34L10 35L11 35L11 34L12 34L12 37L13 37L13 38L14 38L14 37L15 37L15 38L16 38L16 39L12 39L12 38L10 38L10 39L11 39L11 42L10 42L10 41L9 41L9 40L8 40L8 38L9 38L9 37L11 37L11 36L9 36L9 35L8 35L8 34L9 34L9 33L10 33L10 30L9 30L9 32L6 32L6 33L8 33L8 34L6 34L6 35L5 35L5 36L6 36L6 37L5 37L5 39L7 39L7 40L5 40L5 41L7 41L7 42L6 42L6 43L7 43L7 44L6 44L6 45L7 45L7 44L8 44L8 42L10 42L10 43L12 43L12 44L9 44L9 45L10 45L10 46L11 46L11 45L13 45L13 46L15 46L15 47L16 47L16 48L17 48L17 49L15 49L15 48L13 48L13 49L12 49L12 50L13 50L13 49L15 49L15 50L14 50L14 51L15 51L15 52L13 52L13 51L12 51L12 52L11 52L11 53L12 53L12 57L11 57L11 58L12 58L12 59L16 59L16 60L15 60L15 61L17 61L17 62L14 62L14 63L16 63L16 64L17 64L17 65L18 65L18 67L17 67L17 68L18 68L18 67L20 67L20 66L19 66L19 65L18 65L18 64L17 64L17 63L18 63L18 61L19 61L19 63L20 63L20 62L22 62L22 61L21 61L21 60L22 60L22 59L23 59L23 58L21 58L21 57L22 57L22 56L23 56L23 54L22 54L22 53L24 53L24 52L22 52L22 50L21 50L21 48L22 48L22 49L24 49L24 51L25 51L25 55L24 55L24 58L25 58L25 55L26 55L26 60L25 60L25 62L29 62L29 63L30 63L30 64L28 64L28 63L27 63L27 64L28 64L28 65L29 65L29 66L30 66L30 65L31 65L31 69L32 69L32 68L33 68L33 67L35 67L35 65L33 65L33 64L32 64L32 65L31 65L31 63L34 63L34 62L33 62L33 60L34 60L34 59L32 59L32 58L35 58L35 59L36 59L36 58L37 58L37 59L39 59L39 60L40 60L40 61L38 61L38 62L40 62L40 63L41 63L41 64L44 64L44 62L45 62L45 63L47 63L47 62L48 62L48 61L47 61L47 59L46 59L46 58L49 58L49 59L50 59L50 60L51 60L51 61L52 61L52 62L53 62L53 63L54 63L54 64L55 64L55 65L56 65L56 66L57 66L57 65L56 65L56 64L57 64L57 63L58 63L58 65L59 65L59 66L60 66L60 65L62 65L62 64L61 64L61 63L60 63L60 64L59 64L59 62L58 62L58 61L57 61L57 62L56 62L56 61L54 61L54 60L53 60L53 59L52 59L52 58L53 58L53 56L52 56L52 54L51 54L51 52L53 52L53 54L54 54L54 57L55 57L55 58L54 58L54 59L55 59L55 58L56 58L56 56L55 56L55 54L60 54L60 53L59 53L59 52L58 52L58 51L59 51L59 49L61 49L61 48L60 48L60 47L61 47L61 46L63 46L63 47L64 47L64 48L65 48L65 47L66 47L66 46L68 46L68 45L69 45L69 44L68 44L68 43L66 43L66 42L67 42L67 41L66 41L66 40L67 40L67 39L66 39L66 40L65 40L65 43L66 43L66 44L64 44L64 45L65 45L65 47L64 47L64 46L63 46L63 44L60 44L60 43L59 43L59 42L61 42L61 41L62 41L62 43L64 43L64 42L63 42L63 41L64 41L64 40L61 40L61 39L62 39L62 38L63 38L63 39L64 39L64 38L63 38L63 37L64 37L64 36L63 36L63 35L64 35L64 34L63 34L63 35L62 35L62 36L61 36L61 38L60 38L60 37L59 37L59 35L60 35L60 33L61 33L61 34L62 34L62 33L65 33L65 34L68 34L68 33L69 33L69 32L70 32L70 31L69 31L69 30L68 30L68 29L66 29L66 28L64 28L64 29L65 29L65 31L66 31L66 32L68 32L68 33L65 33L65 32L64 32L64 30L62 30L62 32L59 32L59 31L56 31L56 32L55 32L55 30L58 30L58 29L59 29L59 30L60 30L60 31L61 31L61 30L60 30L60 29L59 29L59 28L58 28L58 27L59 27L59 26L56 26L56 24L58 24L58 25L61 25L61 26L60 26L60 27L61 27L61 26L62 26L62 28L61 28L61 29L63 29L63 27L64 27L64 26L63 26L63 24L60 24L60 23L59 23L59 24L58 24L58 23L56 23L56 24L55 24L55 23L54 23L54 22L56 22L56 21L54 21L54 20L53 20L53 18L51 18L51 19L50 19L50 18L48 18L48 17L47 17L47 20L48 20L48 19L50 19L50 20L49 20L49 21L48 21L48 22L49 22L49 23L48 23L48 24L46 24L46 23L45 23L45 24L44 24L44 25L43 25L43 27L42 27L42 26L41 26L41 27L42 27L42 28L41 28L41 29L43 29L43 27L44 27L44 28L45 28L45 29L44 29L44 30L45 30L45 31L46 31L46 32L43 32L43 33L42 33L42 31L43 31L43 30L41 30L41 33L40 33L40 31L37 31L37 30L39 30L39 29L40 29L40 28L38 28L38 24L36 24L36 23L38 23L38 22L40 22L40 23L41 23L41 24L39 24L39 26L40 26L40 25L41 25L41 24L42 24L42 22L40 22L40 21L43 21L43 20L42 20L42 18L43 18L43 19L45 19L45 20L46 20L46 19L45 19L45 18L46 18L46 17L45 17L45 16L43 16L43 17L42 17L42 18L41 18L41 19L40 19L40 18L39 18L39 20L40 20L40 21L36 21L36 20L37 20L37 19L38 19L38 17L37 17L37 16L36 16L36 14L34 14L34 15L33 15L33 13L34 13L34 11L32 11L32 13L31 13L31 12L30 12L30 11L29 11L29 10ZM73 10L73 11L74 11L74 10ZM6 11L6 12L7 12L7 11ZM10 11L10 12L13 12L13 11ZM23 11L23 12L24 12L24 11ZM35 11L35 12L36 12L36 13L37 13L37 11ZM41 11L41 12L42 12L42 11ZM44 12L44 13L46 13L46 12ZM47 12L47 14L49 14L49 13L48 13L48 12ZM65 12L65 13L66 13L66 14L67 14L67 13L66 13L66 12ZM6 13L6 14L7 14L7 13ZM53 13L53 14L54 14L54 13ZM60 13L60 14L59 14L59 15L60 15L60 14L62 14L62 13ZM30 14L30 17L28 17L28 18L29 18L29 19L28 19L28 21L31 21L31 23L30 23L30 24L31 24L31 25L30 25L30 27L29 27L29 29L28 29L28 32L27 32L27 33L28 33L28 35L29 35L29 33L30 33L30 32L32 32L32 31L34 31L34 32L33 32L33 33L32 33L32 36L33 36L33 33L34 33L34 32L37 32L37 33L36 33L36 34L35 34L35 35L36 35L36 36L35 36L35 37L34 37L34 38L32 38L32 39L31 39L31 38L30 38L30 37L31 37L31 35L30 35L30 37L29 37L29 36L27 36L27 34L26 34L26 36L25 36L25 37L26 37L26 39L25 39L25 40L27 40L27 42L26 42L26 41L25 41L25 42L24 42L24 41L23 41L23 40L24 40L24 39L23 39L23 40L22 40L22 41L21 41L21 43L22 43L22 41L23 41L23 44L24 44L24 46L23 46L23 45L21 45L21 44L20 44L20 46L19 46L19 47L18 47L18 45L19 45L19 44L17 44L17 43L19 43L19 42L20 42L20 41L19 41L19 40L18 40L18 39L19 39L19 38L18 38L18 37L16 37L16 38L18 38L18 39L16 39L16 40L15 40L15 41L16 41L16 45L15 45L15 43L14 43L14 42L13 42L13 41L12 41L12 42L13 42L13 45L15 45L15 46L16 46L16 47L18 47L18 48L19 48L19 49L18 49L18 50L15 50L15 51L18 51L18 52L19 52L19 53L18 53L18 54L17 54L17 52L15 52L15 53L14 53L14 54L15 54L15 56L14 56L14 55L13 55L13 57L12 57L12 58L13 58L13 57L14 57L14 58L17 58L17 59L18 59L18 60L21 60L21 59L20 59L20 56L21 56L21 55L22 55L22 54L21 54L21 55L19 55L19 53L20 53L20 52L21 52L21 53L22 53L22 52L21 52L21 51L20 51L20 50L19 50L19 49L20 49L20 48L19 48L19 47L21 47L21 46L23 46L23 47L22 47L22 48L24 48L24 46L25 46L25 45L26 45L26 46L30 46L30 47L29 47L29 48L31 48L31 47L33 47L33 48L32 48L32 49L29 49L29 52L28 52L28 53L26 53L26 55L27 55L27 56L29 56L29 57L27 57L27 58L29 58L29 59L28 59L28 60L27 60L27 61L29 61L29 62L31 62L31 61L32 61L32 59L30 59L30 55L31 55L31 58L32 58L32 57L37 57L37 58L39 58L39 59L40 59L40 57L37 57L37 55L36 55L36 54L38 54L38 53L39 53L39 54L41 54L41 52L39 52L39 51L38 51L38 52L37 52L37 51L36 51L36 52L35 52L35 50L37 50L37 48L38 48L38 49L39 49L39 50L40 50L40 51L42 51L42 53L45 53L45 54L44 54L44 55L43 55L43 54L42 54L42 55L38 55L38 56L44 56L44 57L42 57L42 59L41 59L41 60L42 60L42 63L43 63L43 62L44 62L44 61L43 61L43 58L44 58L44 60L45 60L45 58L46 58L46 57L49 57L49 58L50 58L50 59L51 59L51 54L50 54L50 53L48 53L48 54L47 54L47 51L45 51L45 50L43 50L43 51L42 51L42 50L40 50L40 47L42 47L42 48L43 48L43 49L44 49L44 47L45 47L45 46L44 46L44 47L42 47L42 46L41 46L41 45L45 45L45 44L44 44L44 43L45 43L45 42L46 42L46 43L47 43L47 44L46 44L46 45L47 45L47 46L48 46L48 45L47 45L47 44L49 44L49 45L51 45L51 46L52 46L52 47L53 47L53 48L51 48L51 51L50 51L50 52L51 52L51 51L53 51L53 52L54 52L54 49L53 49L53 48L55 48L55 49L56 49L56 50L55 50L55 53L54 53L54 54L55 54L55 53L56 53L56 51L57 51L57 49L59 49L59 47L60 47L60 46L61 46L61 45L60 45L60 44L59 44L59 45L58 45L58 44L57 44L57 43L58 43L58 42L59 42L59 41L60 41L60 38L59 38L59 37L58 37L58 36L57 36L57 35L56 35L56 34L55 34L55 33L53 33L53 32L54 32L54 31L53 31L53 28L54 28L54 27L53 27L53 26L54 26L54 25L51 25L51 26L52 26L52 27L51 27L51 28L52 28L52 29L51 29L51 30L52 30L52 32L51 32L51 31L50 31L50 30L49 30L49 31L48 31L48 29L47 29L47 30L46 30L46 31L47 31L47 32L46 32L46 33L47 33L47 35L49 35L49 37L51 37L51 38L48 38L48 37L46 37L46 36L45 36L45 35L46 35L46 34L44 34L44 33L43 33L43 35L42 35L42 34L41 34L41 35L40 35L40 34L39 34L39 32L37 32L37 31L36 31L36 30L37 30L37 27L35 27L35 26L37 26L37 25L35 25L35 22L34 22L34 23L32 23L32 22L33 22L33 21L31 21L31 19L30 19L30 17L31 17L31 18L33 18L33 20L34 20L34 21L35 21L35 20L36 20L36 19L35 19L35 17L36 17L36 18L37 18L37 17L36 17L36 16L35 16L35 17L34 17L34 18L33 18L33 17L32 17L32 15L31 15L31 14ZM2 15L2 17L1 17L1 19L2 19L2 20L3 20L3 21L4 21L4 20L3 20L3 19L2 19L2 18L3 18L3 15ZM6 15L6 16L7 16L7 15ZM53 15L53 16L54 16L54 17L55 17L55 16L54 16L54 15ZM13 16L13 17L14 17L14 16ZM40 16L40 17L41 17L41 16ZM56 16L56 17L57 17L57 16ZM4 17L4 18L5 18L5 17ZM10 17L10 19L12 19L12 20L11 20L11 21L12 21L12 22L13 22L13 23L16 23L16 20L14 20L14 19L15 19L15 18L14 18L14 19L13 19L13 18L12 18L12 17ZM24 17L24 20L25 20L25 19L26 19L26 18L25 18L25 17ZM43 17L43 18L44 18L44 17ZM73 18L73 19L74 19L74 18ZM34 19L34 20L35 20L35 19ZM55 19L55 20L56 20L56 19ZM9 20L9 22L10 22L10 23L11 23L11 22L10 22L10 20ZM12 20L12 21L13 21L13 22L14 22L14 21L13 21L13 20ZM51 20L51 21L50 21L50 22L52 22L52 21L53 21L53 20ZM20 21L20 22L21 22L21 21ZM44 21L44 22L46 22L46 21ZM57 21L57 22L58 22L58 21ZM61 22L61 23L62 23L62 22ZM73 22L73 24L74 24L74 26L75 26L75 23L74 23L74 22ZM24 23L24 24L25 24L25 23ZM49 23L49 24L50 24L50 23ZM51 23L51 24L54 24L54 23ZM65 23L65 24L66 24L66 23ZM5 25L5 28L8 28L8 25ZM25 25L25 28L28 28L28 25ZM33 25L33 26L32 26L32 27L30 27L30 28L31 28L31 30L33 30L33 28L34 28L34 30L36 30L36 29L35 29L35 28L34 28L34 26L35 26L35 25ZM45 25L45 26L44 26L44 27L45 27L45 26L46 26L46 25ZM47 25L47 28L50 28L50 25ZM69 25L69 28L72 28L72 25ZM6 26L6 27L7 27L7 26ZM15 26L15 27L16 27L16 26ZM26 26L26 27L27 27L27 26ZM48 26L48 27L49 27L49 26ZM55 26L55 29L54 29L54 30L55 30L55 29L58 29L58 28L56 28L56 26ZM70 26L70 27L71 27L71 26ZM73 27L73 28L74 28L74 30L75 30L75 28L74 28L74 27ZM19 28L19 30L18 30L18 31L16 31L16 30L17 30L17 29L16 29L16 30L15 30L15 32L14 32L14 33L13 33L13 34L14 34L14 33L15 33L15 34L18 34L18 33L19 33L19 36L20 36L20 34L21 34L21 32L19 32L19 31L21 31L21 30L22 30L22 29L21 29L21 28ZM6 29L6 30L7 30L7 29ZM20 29L20 30L21 30L21 29ZM72 29L72 30L73 30L73 29ZM29 30L29 31L30 31L30 30ZM66 30L66 31L67 31L67 30ZM49 31L49 32L47 32L47 33L48 33L48 34L50 34L50 36L51 36L51 37L52 37L52 38L51 38L51 39L50 39L50 41L48 41L48 40L49 40L49 39L48 39L48 38L47 38L47 39L44 39L44 40L45 40L45 41L41 41L41 40L40 40L40 41L39 41L39 42L40 42L40 41L41 41L41 42L42 42L42 43L41 43L41 44L43 44L43 42L45 42L45 41L46 41L46 40L47 40L47 41L48 41L48 43L49 43L49 42L50 42L50 43L51 43L51 45L52 45L52 46L53 46L53 45L54 45L54 47L55 47L55 46L56 46L56 47L57 47L57 48L56 48L56 49L57 49L57 48L58 48L58 47L59 47L59 46L60 46L60 45L59 45L59 46L56 46L56 45L54 45L54 44L55 44L55 42L54 42L54 44L53 44L53 41L55 41L55 40L53 40L53 41L52 41L52 39L53 39L53 37L54 37L54 39L55 39L55 38L56 38L56 39L57 39L57 40L56 40L56 41L59 41L59 40L58 40L58 39L59 39L59 38L58 38L58 39L57 39L57 36L56 36L56 35L55 35L55 34L54 34L54 35L55 35L55 37L54 37L54 36L53 36L53 33L52 33L52 34L50 34L50 33L49 33L49 32L50 32L50 31ZM15 32L15 33L18 33L18 32ZM56 32L56 33L58 33L58 34L59 34L59 33L58 33L58 32ZM37 33L37 34L36 34L36 35L37 35L37 34L38 34L38 35L39 35L39 34L38 34L38 33ZM6 35L6 36L8 36L8 37L9 37L9 36L8 36L8 35ZM14 35L14 36L13 36L13 37L14 37L14 36L15 36L15 35ZM41 35L41 36L40 36L40 38L39 38L39 37L38 37L38 36L36 36L36 37L38 37L38 39L37 39L37 40L36 40L36 39L34 39L34 41L33 41L33 40L32 40L32 41L29 41L29 40L31 40L31 39L30 39L30 38L29 38L29 37L28 37L28 38L27 38L27 40L28 40L28 41L29 41L29 44L28 44L28 45L29 45L29 44L30 44L30 45L31 45L31 44L32 44L32 46L33 46L33 44L34 44L34 47L35 47L35 48L34 48L34 49L33 49L33 50L31 50L31 51L30 51L30 52L29 52L29 53L30 53L30 54L31 54L31 55L32 55L32 56L36 56L36 55L33 55L33 54L31 54L31 51L34 51L34 50L35 50L35 48L37 48L37 47L36 47L36 46L38 46L38 45L39 45L39 46L40 46L40 45L39 45L39 44L38 44L38 43L37 43L37 44L36 44L36 45L35 45L35 43L36 43L36 41L37 41L37 40L39 40L39 39L41 39L41 36L42 36L42 37L44 37L44 38L46 38L46 37L45 37L45 36L42 36L42 35ZM21 36L21 39L22 39L22 38L24 38L24 37L23 37L23 36ZM52 36L52 37L53 37L53 36ZM62 36L62 37L63 37L63 36ZM65 36L65 37L66 37L66 36ZM6 37L6 38L7 38L7 37ZM28 38L28 40L29 40L29 38ZM75 38L75 40L77 40L77 39L76 39L76 38ZM42 39L42 40L43 40L43 39ZM16 40L16 41L17 41L17 40ZM35 40L35 41L36 41L36 40ZM50 41L50 42L52 42L52 41ZM25 42L25 44L26 44L26 42ZM30 42L30 44L31 44L31 42ZM34 42L34 43L35 43L35 42ZM32 43L32 44L33 44L33 43ZM73 43L73 45L72 45L72 46L73 46L73 45L74 45L74 43ZM37 44L37 45L38 45L38 44ZM66 44L66 45L67 45L67 44ZM16 45L16 46L17 46L17 45ZM5 47L5 50L8 50L8 47ZM25 47L25 50L28 50L28 47ZM38 47L38 48L39 48L39 47ZM47 47L47 50L50 50L50 47ZM69 47L69 50L72 50L72 47ZM0 48L0 51L1 51L1 53L0 53L0 55L3 55L3 54L1 54L1 53L4 53L4 52L2 52L2 51L3 51L3 50L1 50L1 49L2 49L2 48ZM6 48L6 49L7 49L7 48ZM26 48L26 49L27 49L27 48ZM45 48L45 49L46 49L46 48ZM48 48L48 49L49 49L49 48ZM70 48L70 49L71 49L71 48ZM52 49L52 50L53 50L53 49ZM19 51L19 52L20 52L20 51ZM26 51L26 52L27 52L27 51ZM43 51L43 52L45 52L45 53L46 53L46 52L45 52L45 51ZM48 51L48 52L49 52L49 51ZM12 52L12 53L13 53L13 52ZM32 52L32 53L33 53L33 52ZM34 52L34 53L35 53L35 52ZM36 52L36 53L37 53L37 52ZM57 52L57 53L58 53L58 52ZM67 52L67 53L68 53L68 54L69 54L69 55L68 55L68 56L66 56L66 55L64 55L64 57L65 57L65 58L64 58L64 59L65 59L65 60L67 60L67 61L68 61L68 62L67 62L67 63L68 63L68 64L67 64L67 65L66 65L66 66L68 66L68 67L69 67L69 66L70 66L70 67L71 67L71 68L72 68L72 67L74 67L74 66L72 66L72 63L71 63L71 61L70 61L70 62L69 62L69 60L70 60L70 59L69 59L69 60L67 60L67 59L66 59L66 57L67 57L67 58L68 58L68 56L70 56L70 55L71 55L71 54L69 54L69 53L70 53L70 52ZM15 53L15 54L16 54L16 55L17 55L17 56L15 56L15 57L17 57L17 58L18 58L18 59L19 59L19 58L18 58L18 57L19 57L19 55L17 55L17 54L16 54L16 53ZM65 53L65 54L66 54L66 53ZM27 54L27 55L29 55L29 54ZM45 54L45 55L46 55L46 54ZM48 54L48 55L47 55L47 56L49 56L49 57L50 57L50 56L49 56L49 55L50 55L50 54ZM72 54L72 55L74 55L74 54ZM45 56L45 57L44 57L44 58L45 58L45 57L46 57L46 56ZM58 57L58 58L59 58L59 57ZM69 57L69 58L70 58L70 57ZM57 59L57 60L58 60L58 59ZM23 60L23 61L24 61L24 60ZM40 61L40 62L41 62L41 61ZM45 61L45 62L47 62L47 61ZM53 61L53 62L54 62L54 63L56 63L56 62L54 62L54 61ZM65 61L65 62L66 62L66 61ZM8 62L8 64L7 64L7 63L5 63L5 64L7 64L7 65L6 65L6 66L7 66L7 65L8 65L8 64L9 64L9 65L10 65L10 63L9 63L9 62ZM11 62L11 64L12 64L12 62ZM25 63L25 64L24 64L24 65L25 65L25 64L26 64L26 63ZM69 63L69 64L68 64L68 66L69 66L69 65L71 65L71 63ZM76 63L76 64L77 64L77 63ZM14 64L14 65L15 65L15 64ZM45 64L45 65L47 65L47 66L48 66L48 65L47 65L47 64ZM8 66L8 67L9 67L9 66ZM13 66L13 67L14 67L14 66ZM24 66L24 67L26 67L26 66ZM45 66L45 67L46 67L46 66ZM71 66L71 67L72 67L72 66ZM65 67L65 68L66 68L66 70L67 70L67 71L68 71L68 68L66 68L66 67ZM13 68L13 69L14 69L14 68ZM19 68L19 69L20 69L20 68ZM52 68L52 70L53 70L53 69L54 69L54 68ZM25 69L25 72L28 72L28 69ZM47 69L47 72L50 72L50 69ZM69 69L69 72L72 72L72 69ZM26 70L26 71L27 71L27 70ZM48 70L48 71L49 71L49 70ZM70 70L70 71L71 71L71 70ZM12 71L12 73L13 73L13 71ZM63 72L63 73L64 73L64 72ZM58 73L58 75L60 75L60 74L59 74L59 73ZM12 74L12 75L13 75L13 74ZM22 74L22 75L21 75L21 77L22 77L22 76L23 76L23 77L24 77L24 75L23 75L23 74ZM26 74L26 76L27 76L27 74ZM63 74L63 75L64 75L64 74ZM68 74L68 75L69 75L69 74ZM74 74L74 75L76 75L76 76L77 76L77 75L76 75L76 74ZM0 0L0 7L7 7L7 0ZM1 1L1 6L6 6L6 1ZM2 2L2 5L5 5L5 2ZM70 0L70 7L77 7L77 0ZM71 1L71 6L76 6L76 1ZM72 2L72 5L75 5L75 2ZM0 70L0 77L7 77L7 70ZM1 71L1 76L6 76L6 71ZM2 72L2 75L5 75L5 72Z" fill="#000000"/></g></g></svg>
