<?xml version="1.0" encoding="UTF-8"?>
<svg xmlns="http://www.w3.org/2000/svg" version="1.1" width="400" height="400" viewBox="0 0 400 400"><rect x="0" y="0" width="400" height="400" fill="#fefefe"/><g transform="scale(4.706)"><g transform="translate(4,4)"><path fill-rule="evenodd" d="M8 0L8 1L10 1L10 2L8 2L8 4L9 4L9 5L8 5L8 8L5 8L5 9L4 9L4 8L3 8L3 9L2 9L2 8L1 8L1 12L2 12L2 14L1 14L1 15L0 15L0 16L1 16L1 19L0 19L0 20L1 20L1 21L2 21L2 23L3 23L3 24L2 24L2 25L1 25L1 24L0 24L0 27L2 27L2 25L4 25L4 26L3 26L3 28L4 28L4 29L1 29L1 28L0 28L0 31L1 31L1 32L2 32L2 33L0 33L0 36L5 36L5 35L7 35L7 36L6 36L6 37L7 37L7 36L8 36L8 37L9 37L9 38L11 38L11 36L12 36L12 39L11 39L11 40L10 40L10 41L9 41L9 39L8 39L8 41L9 41L9 42L10 42L10 41L11 41L11 42L12 42L12 41L13 41L13 40L12 40L12 39L14 39L14 42L13 42L13 43L9 43L9 44L8 44L8 43L7 43L7 42L4 42L4 39L5 39L5 40L6 40L6 41L7 41L7 40L6 40L6 39L7 39L7 38L6 38L6 39L5 39L5 37L4 37L4 39L3 39L3 37L2 37L2 38L1 38L1 39L3 39L3 40L2 40L2 42L4 42L4 43L3 43L3 44L4 44L4 43L7 43L7 44L5 44L5 45L9 45L9 46L3 46L3 47L2 47L2 48L4 48L4 50L3 50L3 49L1 49L1 48L0 48L0 49L1 49L1 50L3 50L3 51L0 51L0 52L2 52L2 53L0 53L0 54L2 54L2 55L4 55L4 56L5 56L5 54L6 54L6 55L7 55L7 56L6 56L6 57L8 57L8 59L7 59L7 58L5 58L5 57L3 57L3 58L5 58L5 61L7 61L7 60L8 60L8 62L6 62L6 63L5 63L5 62L4 62L4 61L3 61L3 59L2 59L2 60L1 60L1 57L2 57L2 56L1 56L1 55L0 55L0 61L3 61L3 63L1 63L1 64L0 64L0 65L1 65L1 67L2 67L2 65L4 65L4 68L1 68L1 69L5 69L5 67L7 67L7 68L6 68L6 69L8 69L8 72L9 72L9 73L8 73L8 74L9 74L9 73L11 73L11 74L10 74L10 76L9 76L9 75L8 75L8 76L9 76L9 77L11 77L11 76L12 76L12 77L14 77L14 76L15 76L15 75L17 75L17 74L14 74L14 76L12 76L12 71L14 71L14 72L13 72L13 73L15 73L15 71L16 71L16 73L17 73L17 71L18 71L18 75L19 75L19 77L25 77L25 76L26 76L26 75L27 75L27 76L28 76L28 77L29 77L29 73L30 73L30 74L32 74L32 77L34 77L34 76L35 76L35 75L36 75L36 76L37 76L37 77L39 77L39 74L40 74L40 75L43 75L43 76L44 76L44 77L47 77L47 76L48 76L48 77L50 77L50 76L53 76L53 77L54 77L54 75L55 75L55 74L56 74L56 75L57 75L57 77L61 77L61 76L62 76L62 75L63 75L63 76L64 76L64 75L65 75L65 77L69 77L69 76L70 76L70 77L71 77L71 76L72 76L72 77L74 77L74 75L75 75L75 74L73 74L73 72L75 72L75 73L76 73L76 76L75 76L75 77L76 77L76 76L77 76L77 71L76 71L76 70L75 70L75 71L73 71L73 68L74 68L74 69L77 69L77 68L76 68L76 66L75 66L75 65L74 65L74 63L75 63L75 64L77 64L77 62L76 62L76 61L77 61L77 58L73 58L73 59L76 59L76 60L71 60L71 59L69 59L69 60L68 60L68 64L66 64L66 63L67 63L67 62L66 62L66 61L67 61L67 60L64 60L64 61L65 61L65 62L64 62L64 63L63 63L63 61L62 61L62 60L63 60L63 57L62 57L62 56L64 56L64 59L66 59L66 58L65 58L65 57L66 57L66 56L67 56L67 55L68 55L68 57L67 57L67 58L68 58L68 57L70 57L70 58L72 58L72 56L70 56L70 55L72 55L72 53L73 53L73 54L77 54L77 53L74 53L74 51L75 51L75 52L77 52L77 50L76 50L76 49L77 49L77 44L75 44L75 43L74 43L74 42L75 42L75 40L74 40L74 39L73 39L73 38L72 38L72 36L73 36L73 37L75 37L75 38L76 38L76 40L77 40L77 38L76 38L76 37L77 37L77 35L75 35L75 36L73 36L73 34L72 34L72 31L74 31L74 33L75 33L75 34L77 34L77 32L76 32L76 31L77 31L77 23L74 23L74 21L75 21L75 22L77 22L77 20L76 20L76 19L77 19L77 18L75 18L75 17L74 17L74 16L75 16L75 14L76 14L76 13L77 13L77 10L76 10L76 9L77 9L77 8L76 8L76 9L75 9L75 8L73 8L73 11L72 11L72 13L73 13L73 12L76 12L76 13L75 13L75 14L72 14L72 15L73 15L73 18L70 18L70 16L71 16L71 17L72 17L72 16L71 16L71 15L70 15L70 16L68 16L68 14L67 14L67 16L66 16L66 15L65 15L65 14L66 14L66 12L67 12L67 13L71 13L71 12L70 12L70 11L67 11L67 10L66 10L66 12L64 12L64 11L65 11L65 10L64 10L64 11L63 11L63 9L62 9L62 8L63 8L63 6L64 6L64 9L66 9L66 8L67 8L67 5L69 5L69 1L68 1L68 4L65 4L65 3L66 3L66 2L67 2L67 1L66 1L66 0L63 0L63 2L62 2L62 4L61 4L61 5L60 5L60 2L61 2L61 0L59 0L59 1L57 1L57 2L58 2L58 4L57 4L57 3L56 3L56 2L55 2L55 1L56 1L56 0L54 0L54 1L52 1L52 0L49 0L49 1L50 1L50 2L51 2L51 3L50 3L50 4L48 4L48 3L47 3L47 2L46 2L46 3L47 3L47 4L45 4L45 2L44 2L44 3L43 3L43 2L42 2L42 1L43 1L43 0L42 0L42 1L41 1L41 0L39 0L39 2L38 2L38 4L36 4L36 7L37 7L37 8L35 8L35 6L34 6L34 1L36 1L36 0L34 0L34 1L33 1L33 0L31 0L31 1L30 1L30 2L28 2L28 0L26 0L26 1L25 1L25 0L24 0L24 1L25 1L25 2L26 2L26 4L24 4L24 2L23 2L23 1L22 1L22 0L20 0L20 1L21 1L21 3L20 3L20 2L17 2L17 1L15 1L15 2L16 2L16 3L19 3L19 5L18 5L18 4L15 4L15 5L14 5L14 3L13 3L13 2L12 2L12 1L13 1L13 0L12 0L12 1L10 1L10 0ZM18 0L18 1L19 1L19 0ZM46 0L46 1L47 1L47 0ZM26 1L26 2L27 2L27 4L28 4L28 2L27 2L27 1ZM32 1L32 2L33 2L33 1ZM51 1L51 2L52 2L52 1ZM65 1L65 2L63 2L63 3L65 3L65 2L66 2L66 1ZM11 2L11 4L12 4L12 5L11 5L11 7L10 7L10 6L9 6L9 11L8 11L8 9L5 9L5 10L4 10L4 9L3 9L3 10L2 10L2 12L3 12L3 13L4 13L4 14L3 14L3 16L2 16L2 15L1 15L1 16L2 16L2 19L3 19L3 20L2 20L2 21L3 21L3 20L4 20L4 21L6 21L6 22L7 22L7 23L6 23L6 24L7 24L7 23L8 23L8 24L9 24L9 28L10 28L10 31L9 31L9 33L8 33L8 34L7 34L7 33L4 33L4 32L5 32L5 31L6 31L6 32L8 32L8 29L5 29L5 30L1 30L1 31L2 31L2 32L3 32L3 33L4 33L4 34L7 34L7 35L12 35L12 32L13 32L13 30L14 30L14 29L15 29L15 28L14 28L14 27L15 27L15 26L16 26L16 30L15 30L15 31L16 31L16 32L17 32L17 31L16 31L16 30L17 30L17 29L18 29L18 30L19 30L19 29L18 29L18 28L20 28L20 29L22 29L22 30L21 30L21 31L22 31L22 32L23 32L23 33L24 33L24 32L23 32L23 31L25 31L25 32L26 32L26 33L25 33L25 35L24 35L24 34L23 34L23 35L22 35L22 34L21 34L21 35L22 35L22 38L21 38L21 40L22 40L22 39L23 39L23 36L24 36L24 37L25 37L25 39L24 39L24 40L23 40L23 41L24 41L24 42L23 42L23 43L21 43L21 42L22 42L22 41L20 41L20 43L21 43L21 44L25 44L25 43L24 43L24 42L25 42L25 41L26 41L26 42L27 42L27 41L29 41L29 40L30 40L30 41L33 41L33 42L34 42L34 41L33 41L33 39L34 39L34 40L35 40L35 39L34 39L34 38L36 38L36 40L37 40L37 43L35 43L35 44L34 44L34 43L33 43L33 46L34 46L34 47L33 47L33 50L32 50L32 48L31 48L31 47L32 47L32 43L31 43L31 42L30 42L30 43L29 43L29 42L28 42L28 43L29 43L29 44L30 44L30 43L31 43L31 45L28 45L28 44L27 44L27 45L28 45L28 46L31 46L31 47L29 47L29 48L30 48L30 49L31 49L31 50L30 50L30 51L27 51L27 52L29 52L29 54L27 54L27 53L26 53L26 52L23 52L23 51L22 51L22 50L23 50L23 48L24 48L24 46L26 46L26 45L24 45L24 46L23 46L23 45L22 45L22 46L23 46L23 47L22 47L22 48L21 48L21 50L20 50L20 51L19 51L19 49L20 49L20 47L19 47L19 46L20 46L20 45L19 45L19 44L17 44L17 43L16 43L16 42L18 42L18 43L19 43L19 40L20 40L20 39L18 39L18 38L19 38L19 36L18 36L18 38L14 38L14 35L13 35L13 38L14 38L14 39L18 39L18 41L17 41L17 40L16 40L16 42L15 42L15 43L16 43L16 44L17 44L17 46L16 46L16 45L15 45L15 44L14 44L14 43L13 43L13 44L14 44L14 45L12 45L12 44L9 44L9 45L10 45L10 46L14 46L14 45L15 45L15 47L14 47L14 48L13 48L13 49L9 49L9 51L6 51L6 52L5 52L5 53L2 53L2 54L5 54L5 53L6 53L6 54L10 54L10 55L12 55L12 56L15 56L15 57L16 57L16 58L15 58L15 60L14 60L14 57L11 57L11 58L13 58L13 61L10 61L10 60L9 60L9 59L10 59L10 56L9 56L9 55L8 55L8 56L9 56L9 59L8 59L8 60L9 60L9 62L10 62L10 63L12 63L12 62L13 62L13 61L14 61L14 62L15 62L15 61L16 61L16 62L19 62L19 64L20 64L20 65L19 65L19 66L16 66L16 65L15 65L15 64L17 64L17 63L15 63L15 64L13 64L13 66L14 66L14 67L15 67L15 70L14 70L14 68L10 68L10 67L12 67L12 66L9 66L9 63L8 63L8 65L6 65L6 64L7 64L7 63L6 63L6 64L5 64L5 63L4 63L4 65L5 65L5 66L9 66L9 67L8 67L8 68L9 68L9 69L10 69L10 70L9 70L9 72L11 72L11 71L12 71L12 70L14 70L14 71L15 71L15 70L16 70L16 71L17 71L17 70L18 70L18 67L19 67L19 68L20 68L20 65L21 65L21 66L23 66L23 67L22 67L22 69L21 69L21 70L19 70L19 72L20 72L20 74L19 74L19 75L20 75L20 76L21 76L21 75L20 75L20 74L21 74L21 71L22 71L22 70L24 70L24 68L23 68L23 67L24 67L24 66L25 66L25 67L26 67L26 68L27 68L27 67L28 67L28 68L29 68L29 67L30 67L30 66L32 66L32 68L31 68L31 69L29 69L29 70L31 70L31 71L32 71L32 70L34 70L34 69L35 69L35 71L36 71L36 72L35 72L35 73L36 73L36 74L37 74L37 75L38 75L38 74L39 74L39 73L40 73L40 74L44 74L44 76L45 76L45 74L44 74L44 73L45 73L45 72L46 72L46 71L45 71L45 72L44 72L44 71L43 71L43 73L42 73L42 71L41 71L41 70L40 70L40 69L42 69L42 70L43 70L43 69L46 69L46 68L47 68L47 67L48 67L48 68L49 68L49 66L47 66L47 67L45 67L45 66L46 66L46 64L47 64L47 65L48 65L48 64L49 64L49 63L51 63L51 65L50 65L50 68L51 68L51 74L50 74L50 73L48 73L48 74L46 74L46 76L47 76L47 75L48 75L48 76L50 76L50 75L54 75L54 74L55 74L55 73L54 73L54 74L52 74L52 73L53 73L53 72L57 72L57 70L58 70L58 74L60 74L60 73L61 73L61 72L62 72L62 74L61 74L61 75L62 75L62 74L63 74L63 75L64 75L64 74L63 74L63 73L65 73L65 72L67 72L67 73L68 73L68 72L67 72L67 70L65 70L65 71L64 71L64 69L68 69L68 68L69 68L69 66L70 66L70 68L73 68L73 67L74 67L74 65L73 65L73 66L72 66L72 67L71 67L71 64L70 64L70 63L69 63L69 64L70 64L70 65L69 65L69 66L68 66L68 65L66 65L66 66L64 66L64 65L65 65L65 64L64 64L64 65L63 65L63 63L62 63L62 61L61 61L61 59L60 59L60 58L61 58L61 56L62 56L62 54L63 54L63 55L64 55L64 56L65 56L65 55L67 55L67 54L69 54L69 53L67 53L67 52L68 52L68 50L65 50L65 49L64 49L64 46L63 46L63 45L65 45L65 44L63 44L63 43L64 43L64 42L65 42L65 43L66 43L66 42L67 42L67 44L66 44L66 45L68 45L68 46L71 46L71 45L68 45L68 44L69 44L69 43L71 43L71 44L73 44L73 45L72 45L72 46L74 46L74 47L73 47L73 51L70 51L70 52L71 52L71 53L72 53L72 52L73 52L73 51L74 51L74 50L75 50L75 51L76 51L76 50L75 50L75 49L76 49L76 46L75 46L75 45L74 45L74 43L71 43L71 41L72 41L72 40L73 40L73 41L74 41L74 40L73 40L73 39L72 39L72 38L71 38L71 39L70 39L70 40L68 40L68 41L67 41L67 38L68 38L68 39L69 39L69 38L70 38L70 37L69 37L69 36L68 36L68 37L67 37L67 35L68 35L68 34L69 34L69 35L70 35L70 36L71 36L71 35L70 35L70 34L71 34L71 32L70 32L70 33L68 33L68 32L66 32L66 31L71 31L71 30L73 30L73 29L69 29L69 30L67 30L67 28L68 28L68 24L69 24L69 23L71 23L71 22L72 22L72 24L73 24L73 26L75 26L75 25L76 25L76 24L73 24L73 21L74 21L74 20L75 20L75 18L73 18L73 19L71 19L71 20L72 20L72 21L71 21L71 22L67 22L67 23L68 23L68 24L67 24L67 27L66 27L66 25L63 25L63 26L62 26L62 24L63 24L63 23L65 23L65 24L66 24L66 23L65 23L65 22L64 22L64 20L65 20L65 21L67 21L67 20L68 20L68 21L70 21L70 18L69 18L69 17L68 17L68 16L67 16L67 17L68 17L68 19L67 19L67 18L66 18L66 17L65 17L65 15L64 15L64 14L65 14L65 13L63 13L63 12L62 12L62 13L61 13L61 8L62 8L62 6L61 6L61 8L60 8L60 5L59 5L59 4L58 4L58 5L56 5L56 3L55 3L55 2L54 2L54 3L53 3L53 4L52 4L52 5L53 5L53 7L54 7L54 5L56 5L56 6L55 6L55 8L56 8L56 6L57 6L57 7L58 7L58 8L60 8L60 9L58 9L58 12L59 12L59 11L60 11L60 13L58 13L58 14L60 14L60 13L61 13L61 15L60 15L60 16L59 16L59 15L57 15L57 13L56 13L56 11L55 11L55 13L54 13L54 14L53 14L53 12L54 12L54 10L53 10L53 12L50 12L50 13L49 13L49 12L47 12L47 11L49 11L49 10L50 10L50 11L52 11L52 9L49 9L49 10L47 10L47 11L46 11L46 10L45 10L45 11L46 11L46 14L44 14L44 13L43 13L43 12L44 12L44 11L43 11L43 12L41 12L41 10L42 10L42 9L41 9L41 8L43 8L43 9L45 9L45 8L46 8L46 6L45 6L45 8L44 8L44 6L43 6L43 7L42 7L42 5L45 5L45 4L42 4L42 5L38 5L38 6L37 6L37 7L38 7L38 9L39 9L39 10L38 10L38 11L37 11L37 9L36 9L36 13L31 13L31 14L32 14L32 15L29 15L29 16L28 16L28 15L27 15L27 14L30 14L30 13L29 13L29 12L30 12L30 11L29 11L29 12L27 12L27 11L28 11L28 9L26 9L26 10L25 10L25 12L26 12L26 13L23 13L23 11L24 11L24 9L23 9L23 8L24 8L24 6L23 6L23 5L22 5L22 3L23 3L23 2L22 2L22 3L21 3L21 4L20 4L20 5L19 5L19 7L18 7L18 5L17 5L17 7L18 7L18 9L22 9L22 10L21 10L21 11L20 11L20 10L17 10L17 9L16 9L16 10L15 10L15 11L16 11L16 12L15 12L15 13L14 13L14 11L13 11L13 10L14 10L14 8L12 8L12 6L13 6L13 7L14 7L14 5L13 5L13 4L12 4L12 2ZM30 2L30 3L29 3L29 5L30 5L30 6L29 6L29 7L30 7L30 6L31 6L31 8L30 8L30 9L29 9L29 10L31 10L31 11L32 11L32 12L33 12L33 10L35 10L35 8L33 8L33 7L34 7L34 6L33 6L33 4L32 4L32 3L31 3L31 2ZM35 2L35 3L37 3L37 2ZM41 2L41 3L39 3L39 4L41 4L41 3L42 3L42 2ZM9 3L9 4L10 4L10 3ZM30 4L30 5L31 5L31 6L32 6L32 7L33 7L33 6L32 6L32 5L31 5L31 4ZM25 5L25 8L28 8L28 5ZM47 5L47 8L50 8L50 5ZM58 5L58 7L59 7L59 5ZM64 5L64 6L65 6L65 7L66 7L66 5ZM15 6L15 7L16 7L16 6ZM20 6L20 7L19 7L19 8L21 8L21 6ZM22 6L22 7L23 7L23 6ZM26 6L26 7L27 7L27 6ZM38 6L38 7L39 7L39 8L40 8L40 7L41 7L41 6L40 6L40 7L39 7L39 6ZM48 6L48 7L49 7L49 6ZM51 6L51 7L52 7L52 6ZM68 6L68 8L69 8L69 10L70 10L70 9L71 9L71 10L72 10L72 8L69 8L69 6ZM11 8L11 9L10 9L10 10L12 10L12 8ZM31 8L31 9L32 9L32 10L33 10L33 9L32 9L32 8ZM55 9L55 10L56 10L56 9ZM74 9L74 11L75 11L75 9ZM6 10L6 11L7 11L7 12L5 12L5 11L3 11L3 12L5 12L5 13L7 13L7 12L8 12L8 13L9 13L9 14L10 14L10 15L8 15L8 16L6 16L6 17L4 17L4 18L3 18L3 19L5 19L5 20L6 20L6 21L7 21L7 20L6 20L6 19L8 19L8 18L6 18L6 17L11 17L11 18L14 18L14 19L13 19L13 21L14 21L14 22L12 22L12 20L11 20L11 19L10 19L10 18L9 18L9 19L10 19L10 20L8 20L8 22L9 22L9 21L10 21L10 23L11 23L11 22L12 22L12 24L10 24L10 27L11 27L11 29L12 29L12 30L13 30L13 29L12 29L12 28L13 28L13 26L11 26L11 25L14 25L14 26L15 26L15 25L17 25L17 24L16 24L16 23L18 23L18 19L19 19L19 21L21 21L21 22L20 22L20 23L21 23L21 22L22 22L22 23L23 23L23 24L22 24L22 25L24 25L24 27L23 27L23 26L20 26L20 27L21 27L21 28L22 28L22 29L23 29L23 28L24 28L24 29L25 29L25 31L28 31L28 30L26 30L26 29L29 29L29 28L30 28L30 27L29 27L29 25L30 25L30 26L31 26L31 29L30 29L30 30L31 30L31 32L30 32L30 33L29 33L29 34L30 34L30 35L32 35L32 34L33 34L33 36L32 36L32 39L33 39L33 38L34 38L34 37L36 37L36 38L37 38L37 40L38 40L38 39L39 39L39 40L40 40L40 39L39 39L39 38L37 38L37 37L38 37L38 36L37 36L37 35L38 35L38 33L35 33L35 32L36 32L36 31L37 31L37 30L39 30L39 29L40 29L40 27L39 27L39 26L42 26L42 27L41 27L41 28L42 28L42 29L41 29L41 30L40 30L40 33L39 33L39 34L40 34L40 33L42 33L42 34L41 34L41 36L42 36L42 37L43 37L43 39L42 39L42 38L41 38L41 37L40 37L40 35L39 35L39 37L40 37L40 38L41 38L41 42L40 42L40 41L39 41L39 42L38 42L38 44L37 44L37 45L38 45L38 46L39 46L39 47L44 47L44 48L43 48L43 49L42 49L42 48L41 48L41 49L42 49L42 50L43 50L43 51L42 51L42 52L41 52L41 53L42 53L42 52L43 52L43 53L45 53L45 52L46 52L46 54L48 54L48 55L50 55L50 56L47 56L47 55L46 55L46 56L47 56L47 57L46 57L46 58L47 58L47 57L49 57L49 58L48 58L48 59L45 59L45 57L44 57L44 56L43 56L43 57L42 57L42 58L41 58L41 56L42 56L42 55L45 55L45 54L42 54L42 55L41 55L41 56L39 56L39 55L38 55L38 54L37 54L37 53L39 53L39 51L40 51L40 49L38 49L38 48L35 48L35 47L34 47L34 50L33 50L33 51L34 51L34 50L36 50L36 49L38 49L38 50L37 50L37 52L36 52L36 51L35 51L35 53L36 53L36 54L37 54L37 56L35 56L35 54L33 54L33 55L34 55L34 56L32 56L32 55L31 55L31 56L32 56L32 58L33 58L33 57L34 57L34 58L35 58L35 59L34 59L34 60L35 60L35 61L36 61L36 62L34 62L34 61L33 61L33 60L32 60L32 62L31 62L31 61L30 61L30 60L31 60L31 59L30 59L30 58L29 58L29 59L26 59L26 57L27 57L27 58L28 58L28 57L27 57L27 56L30 56L30 55L25 55L25 53L19 53L19 51L18 51L18 53L19 53L19 55L18 55L18 57L19 57L19 58L16 58L16 60L17 60L17 59L20 59L20 57L21 57L21 58L22 58L22 61L23 61L23 63L21 63L21 62L20 62L20 61L21 61L21 60L20 60L20 61L19 61L19 60L18 60L18 61L19 61L19 62L20 62L20 63L21 63L21 65L23 65L23 63L24 63L24 64L27 64L27 65L26 65L26 67L27 67L27 66L28 66L28 67L29 67L29 66L30 66L30 65L32 65L32 62L34 62L34 63L33 63L33 64L35 64L35 65L33 65L33 66L35 66L35 67L33 67L33 69L34 69L34 68L35 68L35 67L36 67L36 69L38 69L38 64L40 64L40 66L42 66L42 65L41 65L41 64L44 64L44 62L45 62L45 64L46 64L46 62L45 62L45 61L44 61L44 60L47 60L47 61L48 61L48 62L47 62L47 64L48 64L48 62L49 62L49 61L51 61L51 62L52 62L52 63L53 63L53 65L56 65L56 67L55 67L55 66L52 66L52 69L53 69L53 71L56 71L56 70L57 70L57 69L58 69L58 70L59 70L59 68L58 68L58 67L59 67L59 66L60 66L60 70L61 70L61 71L62 71L62 72L64 72L64 71L62 71L62 70L61 70L61 69L62 69L62 68L61 68L61 66L62 66L62 67L63 67L63 68L64 68L64 67L63 67L63 66L62 66L62 63L61 63L61 62L58 62L58 61L60 61L60 59L59 59L59 58L58 58L58 59L57 59L57 58L55 58L55 60L56 60L56 59L57 59L57 61L55 61L55 62L58 62L58 63L57 63L57 64L58 64L58 63L61 63L61 64L60 64L60 65L56 65L56 63L55 63L55 64L54 64L54 63L53 63L53 62L54 62L54 60L49 60L49 58L50 58L50 59L51 59L51 58L50 58L50 56L53 56L53 54L52 54L52 55L50 55L50 54L51 54L51 53L49 53L49 51L51 51L51 52L52 52L52 53L56 53L56 55L55 55L55 54L54 54L54 55L55 55L55 56L56 56L56 55L57 55L57 57L60 57L60 56L61 56L61 55L58 55L58 54L57 54L57 53L59 53L59 54L61 54L61 52L63 52L63 53L64 53L64 54L65 54L65 53L66 53L66 51L65 51L65 50L64 50L64 49L63 49L63 46L62 46L62 44L60 44L60 43L59 43L59 41L60 41L60 42L61 42L61 40L62 40L62 42L63 42L63 38L62 38L62 39L60 39L60 38L59 38L59 36L58 36L58 35L56 35L56 34L55 34L55 32L56 32L56 31L57 31L57 33L58 33L58 31L57 31L57 30L58 30L58 29L59 29L59 30L63 30L63 29L59 29L59 28L64 28L64 29L66 29L66 27L65 27L65 28L64 28L64 26L63 26L63 27L61 27L61 24L62 24L62 23L63 23L63 21L62 21L62 20L59 20L59 19L56 19L56 20L57 20L57 21L56 21L56 22L55 22L55 24L56 24L56 23L57 23L57 25L55 25L55 26L57 26L57 28L55 28L55 27L53 27L53 25L54 25L54 24L52 24L52 27L53 27L53 28L52 28L52 32L51 32L51 30L50 30L50 33L52 33L52 32L54 32L54 33L53 33L53 34L52 34L52 35L53 35L53 34L55 34L55 35L56 35L56 36L53 36L53 37L55 37L55 38L57 38L57 39L55 39L55 40L54 40L54 38L52 38L52 39L50 39L50 38L51 38L51 36L50 36L50 35L51 35L51 34L50 34L50 35L49 35L49 30L48 30L48 29L51 29L51 23L49 23L49 22L50 22L50 21L51 21L51 20L52 20L52 22L53 22L53 20L54 20L54 21L55 21L55 20L54 20L54 19L51 19L51 20L49 20L49 18L50 18L50 17L49 17L49 16L53 16L53 17L52 17L52 18L54 18L54 17L56 17L56 18L57 18L57 17L59 17L59 18L62 18L62 19L63 19L63 20L64 20L64 19L65 19L65 20L67 20L67 19L65 19L65 18L64 18L64 19L63 19L63 16L64 16L64 15L61 15L61 16L62 16L62 17L59 17L59 16L57 16L57 17L56 17L56 15L55 15L55 14L56 14L56 13L55 13L55 14L54 14L54 15L53 15L53 14L52 14L52 15L51 15L51 14L50 14L50 15L49 15L49 14L48 14L48 13L47 13L47 15L45 15L45 16L43 16L43 15L44 15L44 14L43 14L43 13L42 13L42 14L41 14L41 13L40 13L40 12L39 12L39 11L40 11L40 10L39 10L39 11L38 11L38 13L36 13L36 14L37 14L37 15L38 15L38 14L39 14L39 15L40 15L40 16L41 16L41 17L44 17L44 19L42 19L42 18L41 18L41 19L42 19L42 20L40 20L40 21L39 21L39 19L40 19L40 17L39 17L39 16L37 16L37 17L36 17L36 18L37 18L37 19L38 19L38 21L37 21L37 24L36 24L36 23L35 23L35 21L36 21L36 20L34 20L34 19L32 19L32 18L31 18L31 17L30 17L30 16L29 16L29 17L28 17L28 16L27 16L27 15L24 15L24 14L23 14L23 15L24 15L24 16L23 16L23 17L21 17L21 16L22 16L22 15L20 15L20 14L21 14L21 13L22 13L22 11L21 11L21 12L19 12L19 11L18 11L18 13L19 13L19 15L20 15L20 16L19 16L19 17L18 17L18 16L17 16L17 15L18 15L18 14L17 14L17 13L16 13L16 15L11 15L11 14L13 14L13 13L12 13L12 11L10 11L10 12L8 12L8 11L7 11L7 10ZM16 10L16 11L17 11L17 10ZM26 10L26 11L27 11L27 10ZM10 12L10 14L11 14L11 12ZM26 13L26 14L27 14L27 13ZM39 13L39 14L40 14L40 15L41 15L41 16L42 16L42 15L41 15L41 14L40 14L40 13ZM4 14L4 16L5 16L5 14ZM6 14L6 15L7 15L7 14ZM33 14L33 15L35 15L35 14ZM47 15L47 17L46 17L46 18L45 18L45 19L44 19L44 20L43 20L43 21L42 21L42 22L43 22L43 24L44 24L44 25L42 25L42 24L41 24L41 25L42 25L42 26L44 26L44 28L43 28L43 27L42 27L42 28L43 28L43 29L42 29L42 30L43 30L43 32L42 32L42 31L41 31L41 32L42 32L42 33L46 33L46 34L45 34L45 38L44 38L44 40L45 40L45 41L42 41L42 42L47 42L47 43L45 43L45 44L44 44L44 43L41 43L41 44L40 44L40 42L39 42L39 44L40 44L40 45L41 45L41 46L42 46L42 45L41 45L41 44L43 44L43 45L46 45L46 44L47 44L47 45L49 45L49 46L50 46L50 44L51 44L51 47L52 47L52 48L51 48L51 49L53 49L53 50L51 50L51 51L52 51L52 52L53 52L53 50L54 50L54 49L56 49L56 50L55 50L55 51L54 51L54 52L57 52L57 51L58 51L58 52L59 52L59 51L58 51L58 50L60 50L60 51L61 51L61 50L62 50L62 49L58 49L58 50L57 50L57 49L56 49L56 47L52 47L52 45L54 45L54 46L59 46L59 47L58 47L58 48L59 48L59 47L60 47L60 44L59 44L59 43L58 43L58 42L57 42L57 41L56 41L56 40L55 40L55 41L54 41L54 42L52 42L52 41L53 41L53 40L50 40L50 41L49 41L49 38L48 38L48 41L47 41L47 40L45 40L45 38L46 38L46 36L48 36L48 37L50 37L50 36L49 36L49 35L48 35L48 34L47 34L47 33L48 33L48 32L47 32L47 31L48 31L48 30L47 30L47 29L46 29L46 30L45 30L45 26L46 26L46 25L45 25L45 23L46 23L46 24L47 24L47 21L46 21L46 22L45 22L45 19L46 19L46 20L48 20L48 19L47 19L47 17L48 17L48 15ZM54 15L54 16L55 16L55 15ZM76 15L76 16L77 16L77 15ZM12 16L12 17L13 17L13 16ZM14 16L14 18L15 18L15 19L14 19L14 20L15 20L15 22L16 22L16 20L17 20L17 19L16 19L16 17L17 17L17 18L18 18L18 17L17 17L17 16L16 16L16 17L15 17L15 16ZM24 16L24 17L23 17L23 18L22 18L22 19L20 19L20 20L23 20L23 18L24 18L24 20L25 20L25 17L27 17L27 19L26 19L26 21L25 21L25 22L26 22L26 23L27 23L27 24L28 24L28 23L29 23L29 24L30 24L30 25L31 25L31 24L32 24L32 25L33 25L33 24L34 24L34 25L35 25L35 26L34 26L34 29L35 29L35 28L36 28L36 30L37 30L37 29L38 29L38 28L39 28L39 27L38 27L38 26L37 26L37 25L36 25L36 24L34 24L34 23L33 23L33 22L31 22L31 21L30 21L30 17L29 17L29 22L28 22L28 23L27 23L27 22L26 22L26 21L28 21L28 20L27 20L27 19L28 19L28 17L27 17L27 16ZM32 16L32 17L33 17L33 18L35 18L35 17L33 17L33 16ZM19 17L19 18L21 18L21 17ZM37 17L37 18L39 18L39 17ZM5 18L5 19L6 19L6 18ZM31 19L31 20L32 20L32 21L33 21L33 20L32 20L32 19ZM68 19L68 20L69 20L69 19ZM10 20L10 21L11 21L11 20ZM22 21L22 22L23 22L23 23L24 23L24 24L25 24L25 23L24 23L24 22L23 22L23 21ZM43 21L43 22L44 22L44 23L45 23L45 22L44 22L44 21ZM58 21L58 26L60 26L60 23L61 23L61 22L62 22L62 21L61 21L61 22L60 22L60 21ZM0 22L0 23L1 23L1 22ZM3 22L3 23L4 23L4 24L5 24L5 23L4 23L4 22ZM29 22L29 23L30 23L30 24L31 24L31 22ZM40 22L40 23L39 23L39 24L38 24L38 25L40 25L40 23L41 23L41 22ZM32 23L32 24L33 24L33 23ZM14 24L14 25L15 25L15 24ZM18 24L18 26L17 26L17 27L18 27L18 26L19 26L19 24ZM20 24L20 25L21 25L21 24ZM5 25L5 28L8 28L8 25ZM25 25L25 28L28 28L28 25ZM44 25L44 26L45 26L45 25ZM47 25L47 28L50 28L50 25ZM69 25L69 28L72 28L72 25ZM6 26L6 27L7 27L7 26ZM26 26L26 27L27 27L27 26ZM35 26L35 27L37 27L37 28L38 28L38 27L37 27L37 26ZM48 26L48 27L49 27L49 26ZM70 26L70 27L71 27L71 26ZM22 27L22 28L23 28L23 27ZM32 27L32 28L33 28L33 27ZM58 27L58 28L59 28L59 27ZM74 27L74 28L75 28L75 29L76 29L76 28L75 28L75 27ZM54 28L54 29L53 29L53 30L54 30L54 32L55 32L55 31L56 31L56 29L55 29L55 28ZM32 29L32 33L30 33L30 34L32 34L32 33L33 33L33 34L34 34L34 35L36 35L36 34L34 34L34 33L33 33L33 31L34 31L34 30L33 30L33 29ZM43 29L43 30L44 30L44 32L45 32L45 30L44 30L44 29ZM6 30L6 31L7 31L7 30ZM46 30L46 31L47 31L47 30ZM64 30L64 31L65 31L65 30ZM74 30L74 31L76 31L76 30ZM3 31L3 32L4 32L4 31ZM11 31L11 32L12 32L12 31ZM18 31L18 32L19 32L19 33L16 33L16 34L15 34L15 33L13 33L13 34L15 34L15 36L16 36L16 37L17 37L17 36L16 36L16 35L17 35L17 34L18 34L18 35L20 35L20 34L19 34L19 33L21 33L21 32L20 32L20 31ZM59 31L59 34L60 34L60 35L61 35L61 36L60 36L60 37L62 37L62 35L63 35L63 34L62 34L62 33L63 33L63 31L62 31L62 33L61 33L61 34L60 34L60 31ZM27 32L27 33L28 33L28 32ZM46 32L46 33L47 33L47 32ZM75 32L75 33L76 33L76 32ZM9 33L9 34L11 34L11 33ZM2 34L2 35L3 35L3 34ZM26 34L26 35L27 35L27 36L26 36L26 37L27 37L27 38L26 38L26 39L25 39L25 40L24 40L24 41L25 41L25 40L29 40L29 39L31 39L31 38L30 38L30 37L31 37L31 36L28 36L28 35L27 35L27 34ZM42 34L42 36L43 36L43 34ZM9 36L9 37L10 37L10 36ZM20 36L20 37L21 37L21 36ZM36 36L36 37L37 37L37 36ZM56 36L56 37L57 37L57 36ZM65 36L65 38L64 38L64 39L65 39L65 40L64 40L64 41L65 41L65 42L66 42L66 38L67 38L67 37L66 37L66 36ZM75 36L75 37L76 37L76 36ZM27 38L27 39L28 39L28 38ZM58 39L58 41L59 41L59 39ZM71 39L71 40L70 40L70 41L71 41L71 40L72 40L72 39ZM0 40L0 41L1 41L1 40ZM35 41L35 42L36 42L36 41ZM68 41L68 43L69 43L69 41ZM76 41L76 42L77 42L77 41ZM50 42L50 43L51 43L51 44L52 44L52 43L51 43L51 42ZM55 42L55 44L54 44L54 43L53 43L53 44L54 44L54 45L55 45L55 44L56 44L56 45L58 45L58 43L57 43L57 42ZM1 43L1 44L0 44L0 45L1 45L1 46L0 46L0 47L1 47L1 46L2 46L2 45L1 45L1 44L2 44L2 43ZM47 43L47 44L49 44L49 43ZM56 43L56 44L57 44L57 43ZM34 45L34 46L36 46L36 47L37 47L37 46L36 46L36 45ZM17 46L17 47L18 47L18 46ZM45 46L45 48L46 48L46 46ZM61 46L61 47L62 47L62 46ZM5 47L5 50L8 50L8 47ZM9 47L9 48L12 48L12 47ZM15 47L15 50L14 50L14 49L13 49L13 51L12 51L12 50L11 50L11 51L9 51L9 52L11 52L11 53L12 53L12 55L13 55L13 52L14 52L14 55L15 55L15 56L16 56L16 57L17 57L17 55L15 55L15 53L16 53L16 52L17 52L17 51L16 51L16 47ZM25 47L25 50L28 50L28 47ZM47 47L47 50L50 50L50 47ZM65 47L65 48L66 48L66 49L67 49L67 48L66 48L66 47ZM69 47L69 50L72 50L72 47ZM6 48L6 49L7 49L7 48ZM17 48L17 50L18 50L18 49L19 49L19 48ZM26 48L26 49L27 49L27 48ZM48 48L48 49L49 49L49 48ZM53 48L53 49L54 49L54 48ZM70 48L70 49L71 49L71 48ZM43 49L43 50L44 50L44 51L43 51L43 52L44 52L44 51L46 51L46 49L45 49L45 50L44 50L44 49ZM63 50L63 52L64 52L64 53L65 53L65 52L64 52L64 50ZM3 51L3 52L4 52L4 51ZM11 51L11 52L12 52L12 51ZM14 51L14 52L15 52L15 51ZM21 51L21 52L22 52L22 51ZM30 51L30 54L32 54L32 53L34 53L34 52L32 52L32 51ZM47 51L47 52L48 52L48 51ZM6 52L6 53L7 53L7 52ZM31 52L31 53L32 53L32 52ZM20 54L20 55L19 55L19 57L20 57L20 55L21 55L21 56L22 56L22 57L23 57L23 56L25 56L25 57L26 57L26 56L25 56L25 55L24 55L24 54ZM22 55L22 56L23 56L23 55ZM37 56L37 59L35 59L35 60L37 60L37 64L38 64L38 63L40 63L40 64L41 64L41 63L43 63L43 62L44 62L44 61L43 61L43 60L44 60L44 57L43 57L43 58L42 58L42 59L41 59L41 58L40 58L40 57L39 57L39 56ZM74 56L74 57L75 57L75 56ZM76 56L76 57L77 57L77 56ZM35 57L35 58L36 58L36 57ZM38 57L38 58L39 58L39 57ZM52 57L52 58L53 58L53 57ZM23 58L23 61L24 61L24 62L25 62L25 63L26 63L26 62L27 62L27 60L25 60L25 58ZM6 59L6 60L7 60L7 59ZM11 59L11 60L12 60L12 59ZM29 59L29 60L28 60L28 61L29 61L29 60L30 60L30 59ZM37 59L37 60L39 60L39 59ZM58 59L58 60L59 60L59 59ZM24 60L24 61L25 61L25 60ZM40 60L40 61L41 61L41 62L40 62L40 63L41 63L41 62L42 62L42 60ZM69 60L69 61L70 61L70 60ZM38 61L38 62L39 62L39 61ZM52 61L52 62L53 62L53 61ZM71 61L71 62L72 62L72 61ZM73 61L73 63L72 63L72 64L73 64L73 63L74 63L74 62L75 62L75 63L76 63L76 62L75 62L75 61ZM28 62L28 63L27 63L27 64L29 64L29 65L30 65L30 64L31 64L31 62L30 62L30 63L29 63L29 62ZM10 64L10 65L12 65L12 64ZM14 65L14 66L15 66L15 67L16 67L16 70L17 70L17 67L16 67L16 66L15 66L15 65ZM36 65L36 66L37 66L37 65ZM43 65L43 67L42 67L42 68L43 68L43 67L44 67L44 65ZM60 65L60 66L61 66L61 65ZM57 66L57 67L56 67L56 68L55 68L55 67L54 67L54 68L53 68L53 69L54 69L54 70L56 70L56 68L57 68L57 67L58 67L58 66ZM67 66L67 68L68 68L68 66ZM39 67L39 69L40 69L40 68L41 68L41 67ZM65 67L65 68L66 68L66 67ZM54 68L54 69L55 69L55 68ZM11 69L11 70L10 70L10 71L11 71L11 70L12 70L12 69ZM25 69L25 72L28 72L28 69ZM47 69L47 72L50 72L50 69ZM69 69L69 72L72 72L72 69ZM26 70L26 71L27 71L27 70ZM36 70L36 71L37 71L37 70ZM48 70L48 71L49 71L49 70ZM70 70L70 71L71 71L71 70ZM23 71L23 72L22 72L22 73L23 73L23 76L25 76L25 75L26 75L26 74L28 74L28 73L25 73L25 75L24 75L24 71ZM33 71L33 72L30 72L30 73L32 73L32 74L33 74L33 75L35 75L35 74L33 74L33 72L34 72L34 71ZM59 72L59 73L60 73L60 72ZM37 73L37 74L38 74L38 73ZM69 73L69 74L68 74L68 75L70 75L70 76L71 76L71 75L70 75L70 74L71 74L71 73ZM59 75L59 76L60 76L60 75ZM16 76L16 77L18 77L18 76ZM30 76L30 77L31 77L31 76ZM40 76L40 77L42 77L42 76ZM55 76L55 77L56 77L56 76ZM0 0L0 7L7 7L7 0ZM1 1L1 6L6 6L6 1ZM2 2L2 5L5 5L5 2ZM70 0L70 7L77 7L77 0ZM71 1L71 6L76 6L76 1ZM72 2L72 5L75 5L75 2ZM0 70L0 77L7 77L7 70ZM1 71L1 76L6 76L6 71ZM2 72L2 75L5 75L5 72Z" fill="#000000"/></g></g></svg>
