<?xml version="1.0" encoding="UTF-8"?>
<svg xmlns="http://www.w3.org/2000/svg" version="1.1" width="400" height="400" viewBox="0 0 400 400"><rect x="0" y="0" width="400" height="400" fill="#fefefe"/><g transform="scale(4.706)"><g transform="translate(4,4)"><path fill-rule="evenodd" d="M12 0L12 1L11 1L11 2L10 2L10 3L8 3L8 5L10 5L10 7L11 7L11 8L12 8L12 9L10 9L10 11L9 11L9 10L8 10L8 9L9 9L9 6L8 6L8 9L7 9L7 8L3 8L3 9L4 9L4 10L3 10L3 11L1 11L1 9L2 9L2 8L1 8L1 9L0 9L0 14L1 14L1 16L2 16L2 14L3 14L3 13L4 13L4 14L5 14L5 16L4 16L4 15L3 15L3 16L4 16L4 17L3 17L3 19L2 19L2 18L1 18L1 17L0 17L0 22L1 22L1 23L0 23L0 24L2 24L2 23L3 23L3 24L4 24L4 29L3 29L3 30L2 30L2 29L1 29L1 28L2 28L2 26L3 26L3 25L2 25L2 26L1 26L1 25L0 25L0 27L1 27L1 28L0 28L0 30L1 30L1 31L0 31L0 33L1 33L1 34L2 34L2 35L4 35L4 36L3 36L3 37L2 37L2 38L3 38L3 39L4 39L4 37L5 37L5 35L7 35L7 36L6 36L6 37L7 37L7 38L5 38L5 39L8 39L8 42L10 42L10 43L7 43L7 42L6 42L6 41L7 41L7 40L6 40L6 41L4 41L4 42L3 42L3 43L1 43L1 42L2 42L2 41L3 41L3 40L2 40L2 41L0 41L0 45L1 45L1 46L0 46L0 49L1 49L1 50L0 50L0 56L2 56L2 55L1 55L1 54L2 54L2 53L3 53L3 54L5 54L5 53L7 53L7 54L6 54L6 55L4 55L4 56L5 56L5 58L6 58L6 59L8 59L8 60L11 60L11 61L10 61L10 62L9 62L9 61L8 61L8 62L9 62L9 64L10 64L10 65L11 65L11 67L12 67L12 63L13 63L13 64L15 64L15 65L16 65L16 63L17 63L17 62L16 62L16 63L14 63L14 62L15 62L15 60L16 60L16 59L15 59L15 60L14 60L14 59L12 59L12 57L13 57L13 58L14 58L14 57L15 57L15 58L18 58L18 59L21 59L21 60L17 60L17 61L21 61L21 60L22 60L22 61L23 61L23 62L21 62L21 65L20 65L20 64L17 64L17 66L15 66L15 67L13 67L13 68L9 68L9 67L8 67L8 66L9 66L9 65L8 65L8 63L7 63L7 62L6 62L6 61L7 61L7 60L6 60L6 61L4 61L4 60L5 60L5 59L3 59L3 58L4 58L4 57L2 57L2 59L1 59L1 58L0 58L0 60L1 60L1 61L0 61L0 62L1 62L1 63L0 63L0 66L1 66L1 67L2 67L2 66L1 66L1 65L2 65L2 63L3 63L3 64L4 64L4 63L3 63L3 62L1 62L1 61L4 61L4 62L6 62L6 63L5 63L5 64L6 64L6 65L5 65L5 66L4 66L4 65L3 65L3 66L4 66L4 68L1 68L1 69L5 69L5 67L8 67L8 68L9 68L9 69L8 69L8 70L9 70L9 71L8 71L8 74L9 74L9 75L8 75L8 76L9 76L9 77L11 77L11 76L9 76L9 75L11 75L11 74L9 74L9 71L10 71L10 72L11 72L11 70L12 70L12 69L13 69L13 68L16 68L16 67L19 67L19 68L17 68L17 69L15 69L15 70L16 70L16 71L18 71L18 70L19 70L19 68L20 68L20 67L21 67L21 68L22 68L22 69L20 69L20 71L19 71L19 72L20 72L20 71L21 71L21 73L20 73L20 74L17 74L17 75L16 75L16 76L17 76L17 77L18 77L18 75L19 75L19 76L20 76L20 77L21 77L21 76L22 76L22 77L23 77L23 76L24 76L24 77L27 77L27 75L30 75L30 74L31 74L31 75L32 75L32 76L29 76L29 77L33 77L33 76L34 76L34 75L35 75L35 76L36 76L36 77L41 77L41 76L42 76L42 75L43 75L43 76L45 76L45 77L47 77L47 75L48 75L48 77L49 77L49 76L50 76L50 77L51 77L51 76L52 76L52 77L53 77L53 75L52 75L52 72L54 72L54 71L55 71L55 73L56 73L56 74L54 74L54 76L55 76L55 75L57 75L57 72L56 72L56 71L57 71L57 70L58 70L58 69L59 69L59 71L58 71L58 72L59 72L59 74L60 74L60 75L58 75L58 77L59 77L59 76L60 76L60 77L62 77L62 76L60 76L60 75L62 75L62 74L63 74L63 75L64 75L64 76L63 76L63 77L64 77L64 76L65 76L65 75L66 75L66 76L67 76L67 74L68 74L68 73L71 73L71 74L70 74L70 76L68 76L68 77L71 77L71 75L74 75L74 76L76 76L76 75L77 75L77 74L76 74L76 73L77 73L77 72L76 72L76 73L75 73L75 71L73 71L73 69L74 69L74 70L77 70L77 65L75 65L75 64L76 64L76 63L77 63L77 62L76 62L76 63L75 63L75 61L73 61L73 59L72 59L72 58L75 58L75 57L74 57L74 56L73 56L73 55L74 55L74 53L75 53L75 54L76 54L76 57L77 57L77 53L76 53L76 51L77 51L77 50L75 50L75 49L77 49L77 48L74 48L74 46L75 46L75 47L76 47L76 46L75 46L75 45L77 45L77 42L75 42L75 43L76 43L76 44L74 44L74 43L73 43L73 42L72 42L72 43L70 43L70 42L71 42L71 41L76 41L76 40L75 40L75 39L77 39L77 36L75 36L75 37L74 37L74 36L73 36L73 35L74 35L74 34L75 34L75 33L76 33L76 35L77 35L77 28L75 28L75 29L76 29L76 30L75 30L75 31L74 31L74 30L72 30L72 29L73 29L73 26L74 26L74 27L75 27L75 25L77 25L77 24L75 24L75 23L76 23L76 22L75 22L75 21L74 21L74 20L73 20L73 19L74 19L74 18L73 18L73 16L72 16L72 15L73 15L73 14L74 14L74 17L75 17L75 15L77 15L77 14L76 14L76 13L77 13L77 12L76 12L76 13L74 13L74 12L75 12L75 11L76 11L76 10L77 10L77 9L76 9L76 8L75 8L75 9L74 9L74 8L72 8L72 10L71 10L71 11L70 11L70 10L68 10L68 9L67 9L67 8L69 8L69 9L71 9L71 8L69 8L69 6L68 6L68 7L67 7L67 5L69 5L69 1L68 1L68 4L66 4L66 3L65 3L65 2L67 2L67 1L66 1L66 0L64 0L64 2L63 2L63 1L62 1L62 0L61 0L61 1L60 1L60 0L58 0L58 1L57 1L57 0L56 0L56 1L55 1L55 0L53 0L53 1L51 1L51 0L50 0L50 1L46 1L46 0L45 0L45 1L44 1L44 0L43 0L43 1L44 1L44 2L42 2L42 3L44 3L44 4L41 4L41 2L40 2L40 1L39 1L39 0L38 0L38 1L36 1L36 0L35 0L35 1L36 1L36 2L35 2L35 3L34 3L34 2L33 2L33 4L31 4L31 5L33 5L33 6L32 6L32 7L33 7L33 8L30 8L30 7L31 7L31 6L30 6L30 7L29 7L29 5L30 5L30 4L29 4L29 3L31 3L31 2L30 2L30 1L31 1L31 0L26 0L26 1L25 1L25 0L15 0L15 1L14 1L14 0ZM33 0L33 1L34 1L34 0ZM8 1L8 2L9 2L9 1ZM13 1L13 2L14 2L14 1ZM15 1L15 3L18 3L18 2L19 2L19 3L22 3L22 4L23 4L23 3L22 3L22 2L24 2L24 4L25 4L25 3L26 3L26 4L27 4L27 2L28 2L28 3L29 3L29 1L27 1L27 2L25 2L25 1L22 1L22 2L21 2L21 1L18 1L18 2L17 2L17 1ZM38 1L38 2L36 2L36 3L35 3L35 4L33 4L33 5L34 5L34 6L33 6L33 7L34 7L34 6L35 6L35 8L34 8L34 9L35 9L35 10L33 10L33 9L31 9L31 10L30 10L30 11L29 11L29 9L28 9L28 12L29 12L29 14L26 14L26 12L27 12L27 11L26 11L26 10L27 10L27 9L25 9L25 11L26 11L26 12L25 12L25 13L24 13L24 12L23 12L23 11L24 11L24 10L23 10L23 9L24 9L24 5L23 5L23 7L22 7L22 5L21 5L21 4L20 4L20 6L19 6L19 9L18 9L18 10L16 10L16 9L15 9L15 8L17 8L17 7L18 7L18 4L17 4L17 5L16 5L16 6L15 6L15 8L14 8L14 5L15 5L15 4L14 4L14 5L13 5L13 3L12 3L12 5L11 5L11 7L12 7L12 5L13 5L13 11L10 11L10 12L9 12L9 11L8 11L8 12L9 12L9 14L10 14L10 15L11 15L11 13L12 13L12 15L13 15L13 16L12 16L12 19L11 19L11 16L10 16L10 20L7 20L7 19L6 19L6 18L8 18L8 19L9 19L9 18L8 18L8 16L7 16L7 15L6 15L6 16L5 16L5 18L4 18L4 20L1 20L1 22L2 22L2 21L3 21L3 23L4 23L4 22L8 22L8 23L5 23L5 24L8 24L8 23L9 23L9 24L10 24L10 25L13 25L13 24L14 24L14 26L15 26L15 27L14 27L14 28L13 28L13 27L12 27L12 28L9 28L9 29L8 29L8 30L7 30L7 29L6 29L6 30L4 30L4 31L3 31L3 32L4 32L4 33L3 33L3 34L5 34L5 33L6 33L6 34L9 34L9 35L8 35L8 36L7 36L7 37L8 37L8 39L9 39L9 37L10 37L10 36L11 36L11 34L9 34L9 33L8 33L8 32L7 32L7 31L8 31L8 30L9 30L9 32L12 32L12 31L13 31L13 32L14 32L14 33L15 33L15 32L14 32L14 31L16 31L16 35L14 35L14 34L13 34L13 35L14 35L14 36L13 36L13 37L11 37L11 38L12 38L12 39L13 39L13 37L14 37L14 36L16 36L16 38L15 38L15 40L13 40L13 41L14 41L14 42L13 42L13 43L12 43L12 42L11 42L11 43L10 43L10 44L9 44L9 45L8 45L8 46L10 46L10 47L9 47L9 48L10 48L10 50L11 50L11 48L10 48L10 47L11 47L11 45L12 45L12 44L15 44L15 42L16 42L16 44L17 44L17 45L13 45L13 48L14 48L14 46L16 46L16 47L15 47L15 49L13 49L13 51L12 51L12 52L11 52L11 51L10 51L10 53L11 53L11 54L12 54L12 55L11 55L11 57L10 57L10 56L9 56L9 57L8 57L8 55L6 55L6 56L7 56L7 57L6 57L6 58L10 58L10 59L11 59L11 57L12 57L12 55L13 55L13 57L14 57L14 55L15 55L15 57L16 57L16 56L17 56L17 57L18 57L18 58L20 58L20 57L21 57L21 58L22 58L22 60L23 60L23 61L25 61L25 62L23 62L23 63L22 63L22 64L23 64L23 63L24 63L24 64L25 64L25 65L23 65L23 66L25 66L25 67L24 67L24 68L23 68L23 69L22 69L22 70L23 70L23 71L22 71L22 73L21 73L21 75L22 75L22 76L23 76L23 74L22 74L22 73L23 73L23 71L24 71L24 70L23 70L23 69L24 69L24 68L26 68L26 67L27 67L27 68L29 68L29 73L30 73L30 69L31 69L31 72L32 72L32 75L34 75L34 74L35 74L35 73L37 73L37 74L36 74L36 76L37 76L37 74L38 74L38 73L37 73L37 72L35 72L35 73L34 73L34 71L35 71L35 69L36 69L36 71L37 71L37 70L38 70L38 68L39 68L39 67L42 67L42 66L43 66L43 67L45 67L45 69L44 69L44 68L43 68L43 69L42 69L42 68L40 68L40 70L39 70L39 71L38 71L38 72L40 72L40 70L41 70L41 69L42 69L42 70L43 70L43 71L44 71L44 72L45 72L45 71L44 71L44 70L46 70L46 67L45 67L45 66L44 66L44 65L45 65L45 64L46 64L46 66L49 66L49 68L50 68L50 67L51 67L51 68L54 68L54 69L55 69L55 68L54 68L54 67L55 67L55 66L54 66L54 67L51 67L51 66L50 66L50 64L52 64L52 63L51 63L51 62L50 62L50 63L48 63L48 62L49 62L49 61L48 61L48 62L47 62L47 57L49 57L49 58L48 58L48 60L51 60L51 59L49 59L49 58L51 58L51 55L50 55L50 54L51 54L51 53L52 53L52 54L53 54L53 53L54 53L54 57L55 57L55 58L54 58L54 59L55 59L55 60L52 60L52 61L53 61L53 62L54 62L54 63L53 63L53 65L55 65L55 64L56 64L56 66L57 66L57 65L58 65L58 67L56 67L56 68L57 68L57 69L56 69L56 70L55 70L55 71L56 71L56 70L57 70L57 69L58 69L58 67L59 67L59 66L60 66L60 68L61 68L61 69L60 69L60 70L61 70L61 69L62 69L62 68L61 68L61 66L63 66L63 65L60 65L60 63L61 63L61 64L62 64L62 63L63 63L63 64L64 64L64 67L63 67L63 68L64 68L64 71L63 71L63 70L62 70L62 71L61 71L61 72L60 72L60 71L59 71L59 72L60 72L60 74L61 74L61 72L62 72L62 73L63 73L63 72L64 72L64 75L65 75L65 74L67 74L67 73L68 73L68 72L67 72L67 71L68 71L68 69L67 69L67 68L69 68L69 67L68 67L68 66L66 66L66 65L68 65L68 64L67 64L67 63L66 63L66 62L68 62L68 63L70 63L70 65L69 65L69 66L70 66L70 65L71 65L71 68L72 68L72 67L73 67L73 66L74 66L74 67L75 67L75 69L76 69L76 67L75 67L75 65L74 65L74 62L73 62L73 61L72 61L72 60L71 60L71 58L72 58L72 57L73 57L73 56L71 56L71 58L70 58L70 54L69 54L69 53L70 53L70 52L71 52L71 54L72 54L72 55L73 55L73 53L74 53L74 52L73 52L73 53L72 53L72 52L71 52L71 51L69 51L69 53L68 53L68 52L67 52L67 53L68 53L68 54L67 54L67 56L68 56L68 55L69 55L69 57L63 57L63 56L66 56L66 54L65 54L65 53L66 53L66 51L65 51L65 53L64 53L64 55L63 55L63 56L61 56L61 55L62 55L62 54L63 54L63 53L61 53L61 52L62 52L62 51L61 51L61 52L59 52L59 51L60 51L60 50L59 50L59 48L60 48L60 47L59 47L59 48L58 48L58 45L59 45L59 44L58 44L58 43L59 43L59 42L60 42L60 43L61 43L61 42L62 42L62 43L63 43L63 44L64 44L64 47L66 47L66 45L65 45L65 44L66 44L66 42L67 42L67 44L69 44L69 42L70 42L70 41L69 41L69 40L70 40L70 39L71 39L71 38L73 38L73 37L72 37L72 35L71 35L71 37L70 37L70 36L68 36L68 35L67 35L67 36L64 36L64 37L65 37L65 39L63 39L63 38L61 38L61 37L60 37L60 36L62 36L62 37L63 37L63 36L62 36L62 35L57 35L57 34L58 34L58 33L59 33L59 34L62 34L62 33L59 33L59 32L61 32L61 30L62 30L62 32L63 32L63 33L65 33L65 32L66 32L66 30L67 30L67 31L68 31L68 32L69 32L69 33L71 33L71 34L74 34L74 33L72 33L72 32L73 32L73 31L72 31L72 30L69 30L69 29L67 29L67 28L66 28L66 24L64 24L64 23L65 23L65 22L66 22L66 23L67 23L67 25L68 25L68 24L69 24L69 23L72 23L72 21L73 21L73 20L72 20L72 19L73 19L73 18L72 18L72 17L71 17L71 14L70 14L70 16L69 16L69 15L68 15L68 14L69 14L69 13L70 13L70 11L67 11L67 12L65 12L65 13L64 13L64 14L65 14L65 16L64 16L64 15L63 15L63 14L61 14L61 13L62 13L62 12L63 12L63 11L61 11L61 10L62 10L62 9L63 9L63 7L64 7L64 8L66 8L66 6L65 6L65 5L66 5L66 4L65 4L65 5L64 5L64 3L62 3L62 4L61 4L61 7L60 7L60 6L59 6L59 7L58 7L58 6L57 6L57 4L56 4L56 2L57 2L57 1L56 1L56 2L55 2L55 3L54 3L54 1L53 1L53 2L52 2L52 3L51 3L51 1L50 1L50 4L51 4L51 7L52 7L52 8L51 8L51 9L53 9L53 10L52 10L52 11L51 11L51 10L49 10L49 9L46 9L46 5L45 5L45 4L44 4L44 5L42 5L42 6L41 6L41 7L40 7L40 6L39 6L39 7L38 7L38 5L39 5L39 3L40 3L40 2L39 2L39 1ZM59 1L59 2L60 2L60 1ZM61 1L61 2L62 2L62 1ZM44 2L44 3L45 3L45 2ZM48 2L48 3L46 3L46 4L48 4L48 3L49 3L49 2ZM10 3L10 4L11 4L11 3ZM52 3L52 7L53 7L53 3ZM59 3L59 4L58 4L58 5L60 5L60 3ZM35 4L35 5L36 5L36 4ZM37 4L37 5L38 5L38 4ZM40 4L40 5L41 5L41 4ZM54 4L54 10L53 10L53 12L54 12L54 14L53 14L53 13L52 13L52 12L50 12L50 14L48 14L48 15L47 15L47 17L49 17L49 18L48 18L48 19L47 19L47 18L44 18L44 17L45 17L45 15L46 15L46 13L45 13L45 12L43 12L43 13L45 13L45 15L44 15L44 14L42 14L42 12L41 12L41 11L42 11L42 10L43 10L43 11L46 11L46 12L47 12L47 13L49 13L49 10L48 10L48 12L47 12L47 11L46 11L46 10L44 10L44 9L42 9L42 8L45 8L45 6L44 6L44 7L43 7L43 6L42 6L42 8L39 8L39 9L42 9L42 10L38 10L38 7L37 7L37 6L36 6L36 7L37 7L37 10L35 10L35 11L34 11L34 12L33 12L33 14L32 14L32 11L33 11L33 10L32 10L32 11L30 11L30 14L29 14L29 15L28 15L28 16L26 16L26 17L23 17L23 18L22 18L22 17L20 17L20 16L19 16L19 17L18 17L18 16L17 16L17 15L18 15L18 14L15 14L15 13L16 13L16 12L14 12L14 11L13 11L13 13L14 13L14 14L15 14L15 16L14 16L14 17L13 17L13 19L14 19L14 21L15 21L15 19L14 19L14 18L17 18L17 19L16 19L16 22L17 22L17 23L16 23L16 26L17 26L17 27L16 27L16 28L14 28L14 29L11 29L11 30L10 30L10 31L11 31L11 30L13 30L13 31L14 31L14 30L15 30L15 29L16 29L16 30L17 30L17 29L18 29L18 30L19 30L19 28L21 28L21 29L22 29L22 30L21 30L21 31L19 31L19 32L20 32L20 33L18 33L18 32L17 32L17 33L18 33L18 34L17 34L17 35L16 35L16 36L17 36L17 37L18 37L18 38L16 38L16 39L18 39L18 40L15 40L15 41L16 41L16 42L17 42L17 43L18 43L18 44L19 44L19 46L20 46L20 47L19 47L19 48L18 48L18 46L17 46L17 48L16 48L16 49L15 49L15 50L14 50L14 52L13 52L13 53L12 53L12 54L14 54L14 52L15 52L15 53L16 53L16 51L18 51L18 52L17 52L17 53L18 53L18 54L17 54L17 56L21 56L21 55L20 55L20 54L21 54L21 51L23 51L23 53L22 53L22 54L23 54L23 53L24 53L24 55L25 55L25 54L27 54L27 55L28 55L28 56L23 56L23 55L22 55L22 57L23 57L23 59L24 59L24 57L27 57L27 58L25 58L25 60L27 60L27 61L26 61L26 62L25 62L25 64L27 64L27 65L29 65L29 67L30 67L30 66L32 66L32 67L31 67L31 68L34 68L34 69L35 69L35 67L36 67L36 66L35 66L35 67L34 67L34 66L33 66L33 65L32 65L32 64L36 64L36 65L37 65L37 66L38 66L38 67L39 67L39 66L42 66L42 64L41 64L41 65L40 65L40 63L42 63L42 62L41 62L41 61L42 61L42 60L40 60L40 58L42 58L42 56L43 56L43 60L44 60L44 59L46 59L46 57L47 57L47 56L46 56L46 55L48 55L48 56L49 56L49 57L50 57L50 55L49 55L49 54L47 54L47 53L46 53L46 52L47 52L47 51L48 51L48 52L49 52L49 53L51 53L51 52L52 52L52 51L53 51L53 50L51 50L51 49L52 49L52 48L54 48L54 49L56 49L56 50L54 50L54 51L57 51L57 49L58 49L58 48L57 48L57 47L56 47L56 48L54 48L54 47L55 47L55 46L57 46L57 45L58 45L58 44L57 44L57 41L56 41L56 40L55 40L55 39L57 39L57 38L58 38L58 37L57 37L57 38L55 38L55 37L53 37L53 36L56 36L56 35L55 35L55 34L56 34L56 33L55 33L55 31L56 31L56 30L57 30L57 31L58 31L58 32L59 32L59 31L60 31L60 30L59 30L59 29L60 29L60 28L58 28L58 29L55 29L55 28L57 28L57 27L56 27L56 26L57 26L57 21L56 21L56 20L57 20L57 18L56 18L56 16L57 16L57 14L55 14L55 10L56 10L56 13L57 13L57 11L58 11L58 13L59 13L59 14L58 14L58 16L59 16L59 17L58 17L58 19L60 19L60 18L59 18L59 17L60 17L60 15L61 15L61 14L60 14L60 13L61 13L61 12L60 12L60 10L61 10L61 9L59 9L59 8L60 8L60 7L59 7L59 8L58 8L58 9L59 9L59 11L58 11L58 10L57 10L57 9L56 9L56 8L57 8L57 6L56 6L56 7L55 7L55 5L56 5L56 4ZM62 4L62 7L61 7L61 8L62 8L62 7L63 7L63 4ZM25 5L25 8L28 8L28 5ZM47 5L47 8L50 8L50 5ZM16 6L16 7L17 7L17 6ZM20 6L20 7L21 7L21 6ZM26 6L26 7L27 7L27 6ZM48 6L48 7L49 7L49 6ZM64 6L64 7L65 7L65 6ZM21 8L21 9L19 9L19 10L18 10L18 11L17 11L17 13L19 13L19 15L21 15L21 13L19 13L19 12L20 12L20 11L19 11L19 10L21 10L21 9L22 9L22 8ZM35 8L35 9L36 9L36 8ZM5 9L5 10L7 10L7 9ZM64 9L64 11L66 11L66 9ZM15 10L15 11L16 11L16 10ZM37 10L37 11L36 11L36 13L34 13L34 14L33 14L33 16L36 16L36 17L35 17L35 19L34 19L34 17L32 17L32 16L31 16L31 17L30 17L30 15L32 15L32 14L30 14L30 15L29 15L29 17L26 17L26 18L25 18L25 19L26 19L26 18L28 18L28 19L29 19L29 17L30 17L30 21L31 21L31 22L30 22L30 23L28 23L28 24L29 24L29 26L30 26L30 27L29 27L29 29L30 29L30 30L32 30L32 31L31 31L31 32L30 32L30 33L29 33L29 31L27 31L27 33L28 33L28 34L27 34L27 35L28 35L28 36L27 36L27 37L25 37L25 36L26 36L26 35L25 35L25 33L26 33L26 31L25 31L25 33L23 33L23 34L21 34L21 33L22 33L22 32L24 32L24 31L22 31L22 32L21 32L21 33L20 33L20 34L19 34L19 35L18 35L18 37L19 37L19 38L18 38L18 39L19 39L19 38L20 38L20 37L19 37L19 36L21 36L21 37L22 37L22 38L21 38L21 40L22 40L22 42L21 42L21 43L20 43L20 41L19 41L19 44L20 44L20 45L23 45L23 47L24 47L24 46L26 46L26 45L27 45L27 46L28 46L28 45L29 45L29 44L30 44L30 40L29 40L29 43L28 43L28 42L26 42L26 40L24 40L24 39L27 39L27 41L28 41L28 39L27 39L27 37L28 37L28 36L29 36L29 35L28 35L28 34L30 34L30 36L31 36L31 33L32 33L32 34L33 34L33 37L32 37L32 38L29 38L29 39L31 39L31 41L33 41L33 40L32 40L32 39L33 39L33 38L34 38L34 40L35 40L35 41L34 41L34 42L35 42L35 43L33 43L33 42L31 42L31 44L32 44L32 43L33 43L33 44L36 44L36 45L35 45L35 46L34 46L34 45L31 45L31 46L30 46L30 48L29 48L29 50L31 50L31 52L32 52L32 53L31 53L31 54L30 54L30 55L29 55L29 58L28 58L28 60L30 60L30 59L29 59L29 58L30 58L30 55L31 55L31 58L32 58L32 59L31 59L31 60L32 60L32 61L30 61L30 62L32 62L32 61L34 61L34 62L35 62L35 63L36 63L36 62L38 62L38 61L39 61L39 59L38 59L38 58L39 58L39 57L41 57L41 56L42 56L42 54L43 54L43 55L44 55L44 54L43 54L43 53L44 53L44 52L45 52L45 50L46 50L46 47L45 47L45 48L44 48L44 47L43 47L43 44L42 44L42 42L41 42L41 44L40 44L40 45L39 45L39 43L38 43L38 42L36 42L36 41L39 41L39 40L40 40L40 41L44 41L44 39L45 39L45 40L46 40L46 41L50 41L50 43L51 43L51 44L50 44L50 46L51 46L51 44L52 44L52 46L53 46L53 44L54 44L54 45L55 45L55 44L56 44L56 45L57 45L57 44L56 44L56 43L53 43L53 42L52 42L52 43L51 43L51 40L50 40L50 39L51 39L51 37L48 37L48 36L52 36L52 35L51 35L51 34L49 34L49 33L47 33L47 32L50 32L50 33L52 33L52 34L55 34L55 33L52 33L52 32L54 32L54 30L55 30L55 29L54 29L54 27L53 27L53 28L52 28L52 29L53 29L53 31L51 31L51 30L50 30L50 31L48 31L48 29L47 29L47 32L46 32L46 33L45 33L45 32L44 32L44 34L43 34L43 35L41 35L41 32L40 32L40 30L39 30L39 29L35 29L35 27L34 27L34 26L35 26L35 25L36 25L36 26L37 26L37 28L38 28L38 27L40 27L40 26L42 26L42 25L45 25L45 24L46 24L46 23L44 23L44 22L47 22L47 24L50 24L50 23L51 23L51 24L52 24L52 26L54 26L54 24L55 24L55 26L56 26L56 22L55 22L55 23L54 23L54 21L55 21L55 20L56 20L56 19L55 19L55 20L54 20L54 18L55 18L55 16L56 16L56 15L55 15L55 16L54 16L54 15L51 15L51 16L50 16L50 15L48 15L48 16L50 16L50 19L51 19L51 20L52 20L52 21L51 21L51 22L50 22L50 23L48 23L48 22L49 22L49 21L50 21L50 20L49 20L49 19L48 19L48 20L47 20L47 19L45 19L45 20L44 20L44 21L43 21L43 20L42 20L42 19L43 19L43 18L42 18L42 17L39 17L39 18L40 18L40 19L41 19L41 20L42 20L42 21L41 21L41 22L40 22L40 23L41 23L41 22L42 22L42 25L41 25L41 24L40 24L40 25L39 25L39 26L38 26L38 24L39 24L39 23L37 23L37 21L36 21L36 20L35 20L35 19L37 19L37 16L39 16L39 14L40 14L40 15L41 15L41 16L43 16L43 17L44 17L44 16L43 16L43 15L42 15L42 14L41 14L41 13L39 13L39 11L38 11L38 10ZM73 10L73 11L72 11L72 12L71 12L71 13L73 13L73 11L75 11L75 10ZM3 11L3 12L4 12L4 11ZM6 11L6 12L5 12L5 13L6 13L6 14L7 14L7 13L6 13L6 12L7 12L7 11ZM18 11L18 12L19 12L19 11ZM1 12L1 14L2 14L2 12ZM10 12L10 13L11 13L11 12ZM22 12L22 14L23 14L23 16L25 16L25 15L26 15L26 14L23 14L23 12ZM67 12L67 14L68 14L68 12ZM35 14L35 15L36 15L36 14ZM37 14L37 15L38 15L38 14ZM59 14L59 15L60 15L60 14ZM62 15L62 16L61 16L61 20L58 20L58 22L59 22L59 23L58 23L58 24L59 24L59 25L58 25L58 26L60 26L60 27L62 27L62 28L61 28L61 29L62 29L62 28L63 28L63 31L65 31L65 30L66 30L66 29L65 29L65 28L63 28L63 27L65 27L65 26L64 26L64 24L63 24L63 23L64 23L64 21L66 21L66 20L65 20L65 19L66 19L66 17L64 17L64 16L63 16L63 15ZM66 15L66 16L67 16L67 15ZM6 16L6 17L7 17L7 16ZM16 16L16 17L17 17L17 18L18 18L18 17L17 17L17 16ZM68 16L68 17L69 17L69 16ZM19 17L19 18L20 18L20 17ZM31 17L31 18L32 18L32 17ZM51 17L51 19L53 19L53 18L54 18L54 17ZM62 17L62 19L63 19L63 20L64 20L64 19L63 19L63 17ZM70 17L70 18L69 18L69 20L70 20L70 21L71 21L71 19L72 19L72 18L71 18L71 17ZM21 18L21 19L22 19L22 20L21 20L21 22L20 22L20 23L21 23L21 24L20 24L20 25L19 25L19 26L18 26L18 25L17 25L17 26L18 26L18 27L17 27L17 28L19 28L19 27L21 27L21 28L22 28L22 29L23 29L23 28L24 28L24 26L23 26L23 27L22 27L22 26L20 26L20 25L24 25L24 24L22 24L22 21L23 21L23 22L26 22L26 24L27 24L27 22L29 22L29 20L28 20L28 21L27 21L27 20L26 20L26 21L23 21L23 20L24 20L24 19L22 19L22 18ZM75 18L75 20L76 20L76 21L77 21L77 18ZM5 19L5 21L7 21L7 20L6 20L6 19ZM18 19L18 20L19 20L19 21L20 21L20 19ZM32 19L32 20L33 20L33 19ZM67 19L67 20L68 20L68 19ZM11 20L11 21L8 21L8 22L11 22L11 21L12 21L12 20ZM38 20L38 22L39 22L39 21L40 21L40 20ZM48 20L48 21L49 21L49 20ZM53 20L53 21L54 21L54 20ZM61 20L61 21L60 21L60 23L61 23L61 25L60 25L60 26L61 26L61 25L62 25L62 22L61 22L61 21L62 21L62 20ZM17 21L17 22L18 22L18 23L17 23L17 24L19 24L19 22L18 22L18 21ZM26 21L26 22L27 22L27 21ZM35 21L35 22L32 22L32 23L30 23L30 26L31 26L31 27L32 27L32 28L34 28L34 27L33 27L33 26L34 26L34 25L35 25L35 24L36 24L36 23L35 23L35 22L36 22L36 21ZM42 21L42 22L43 22L43 21ZM13 22L13 23L12 23L12 24L13 24L13 23L14 23L14 22ZM51 22L51 23L52 23L52 24L54 24L54 23L52 23L52 22ZM67 22L67 23L68 23L68 22ZM74 22L74 23L75 23L75 22ZM10 23L10 24L11 24L11 23ZM32 23L32 24L31 24L31 26L32 26L32 24L33 24L33 25L34 25L34 24L35 24L35 23L34 23L34 24L33 24L33 23ZM43 23L43 24L44 24L44 23ZM73 24L73 25L74 25L74 24ZM5 25L5 28L8 28L8 25ZM25 25L25 28L28 28L28 25ZM47 25L47 28L50 28L50 25ZM69 25L69 28L72 28L72 25ZM6 26L6 27L7 27L7 26ZM9 26L9 27L11 27L11 26ZM26 26L26 27L27 27L27 26ZM43 26L43 27L44 27L44 29L42 29L42 27L41 27L41 28L40 28L40 29L42 29L42 30L41 30L41 31L42 31L42 33L43 33L43 31L44 31L44 29L45 29L45 30L46 30L46 29L45 29L45 28L46 28L46 27L45 27L45 26ZM48 26L48 27L49 27L49 26ZM62 26L62 27L63 27L63 26ZM70 26L70 27L71 27L71 26ZM76 26L76 27L77 27L77 26ZM30 28L30 29L31 29L31 28ZM25 29L25 30L26 30L26 29ZM27 29L27 30L28 30L28 29ZM64 29L64 30L65 30L65 29ZM6 30L6 31L7 31L7 30ZM36 30L36 31L37 31L37 30ZM38 30L38 32L39 32L39 30ZM42 30L42 31L43 31L43 30ZM58 30L58 31L59 31L59 30ZM68 30L68 31L69 31L69 30ZM4 31L4 32L5 32L5 31ZM34 31L34 34L35 34L35 35L34 35L34 38L35 38L35 37L37 37L37 36L38 36L38 35L39 35L39 36L40 36L40 37L38 37L38 38L40 38L40 37L41 37L41 35L39 35L39 34L40 34L40 33L38 33L38 34L36 34L36 33L37 33L37 32L35 32L35 31ZM50 31L50 32L51 32L51 31ZM6 32L6 33L7 33L7 32ZM46 33L46 34L44 34L44 36L45 36L45 38L46 38L46 39L47 39L47 38L46 38L46 37L47 37L47 36L48 36L48 35L46 35L46 34L47 34L47 33ZM66 33L66 34L65 34L65 35L66 35L66 34L67 34L67 33ZM35 35L35 36L37 36L37 35ZM0 36L0 39L1 39L1 36ZM8 36L8 37L9 37L9 36ZM22 36L22 37L23 37L23 38L25 38L25 37L23 37L23 36ZM42 37L42 38L44 38L44 37ZM59 37L59 38L60 38L60 39L58 39L58 40L59 40L59 41L60 41L60 42L61 42L61 41L62 41L62 42L63 42L63 43L65 43L65 42L66 42L66 41L65 41L65 40L63 40L63 41L62 41L62 40L61 40L61 38L60 38L60 37ZM68 37L68 38L69 38L69 39L68 39L68 40L69 40L69 39L70 39L70 38L69 38L69 37ZM75 37L75 38L74 38L74 39L72 39L72 40L74 40L74 39L75 39L75 38L76 38L76 37ZM48 38L48 40L49 40L49 39L50 39L50 38ZM53 38L53 40L52 40L52 41L54 41L54 42L55 42L55 41L54 41L54 39L55 39L55 38ZM36 39L36 40L39 40L39 39ZM40 39L40 40L42 40L42 39ZM66 39L66 40L67 40L67 39ZM10 40L10 41L11 41L11 40ZM23 40L23 41L24 41L24 40ZM60 40L60 41L61 41L61 40ZM17 41L17 42L18 42L18 41ZM64 41L64 42L65 42L65 41ZM67 41L67 42L68 42L68 41ZM24 42L24 43L25 43L25 45L26 45L26 43L25 43L25 42ZM45 42L45 43L44 43L44 46L45 46L45 45L46 45L46 42ZM6 43L6 44L3 44L3 45L2 45L2 47L3 47L3 46L4 46L4 45L5 45L5 46L7 46L7 45L6 45L6 44L7 44L7 43ZM11 43L11 44L10 44L10 45L11 45L11 44L12 44L12 43ZM22 43L22 44L23 44L23 45L24 45L24 44L23 44L23 43ZM27 43L27 44L28 44L28 43ZM37 43L37 44L38 44L38 43ZM47 43L47 44L49 44L49 43ZM52 43L52 44L53 44L53 43ZM60 44L60 46L61 46L61 49L62 49L62 50L63 50L63 49L62 49L62 46L63 46L63 45L62 45L62 44ZM38 45L38 46L37 46L37 49L36 49L36 46L35 46L35 49L36 49L36 53L34 53L34 50L33 50L33 49L32 49L32 51L33 51L33 53L34 53L34 54L35 54L35 55L36 55L36 58L34 58L34 57L33 57L33 58L34 58L34 61L35 61L35 62L36 62L36 60L38 60L38 59L37 59L37 55L38 55L38 54L39 54L39 56L38 56L38 57L39 57L39 56L40 56L40 54L41 54L41 53L43 53L43 52L44 52L44 50L43 50L43 49L44 49L44 48L43 48L43 47L42 47L42 46L40 46L40 47L39 47L39 45ZM47 45L47 46L49 46L49 45ZM61 45L61 46L62 46L62 45ZM72 45L72 46L73 46L73 45ZM21 46L21 47L20 47L20 48L22 48L22 46ZM32 46L32 47L31 47L31 48L32 48L32 47L34 47L34 46ZM67 46L67 47L68 47L68 46ZM5 47L5 50L8 50L8 47ZM25 47L25 50L28 50L28 47ZM38 47L38 48L39 48L39 47ZM40 47L40 48L41 48L41 49L39 49L39 53L40 53L40 52L41 52L41 49L43 49L43 48L42 48L42 47ZM47 47L47 50L50 50L50 47ZM51 47L51 48L52 48L52 47ZM69 47L69 50L72 50L72 47ZM1 48L1 49L2 49L2 50L1 50L1 51L2 51L2 52L3 52L3 51L4 51L4 49L3 49L3 48ZM6 48L6 49L7 49L7 48ZM17 48L17 49L16 49L16 50L19 50L19 49L18 49L18 48ZM23 48L23 49L20 49L20 51L21 51L21 50L23 50L23 51L24 51L24 53L25 53L25 51L24 51L24 48ZM26 48L26 49L27 49L27 48ZM48 48L48 49L49 49L49 48ZM56 48L56 49L57 49L57 48ZM64 48L64 50L66 50L66 48ZM70 48L70 49L71 49L71 48ZM37 49L37 50L38 50L38 49ZM73 49L73 51L74 51L74 49ZM42 50L42 52L43 52L43 50ZM6 51L6 52L7 52L7 53L9 53L9 51ZM26 51L26 52L27 52L27 51ZM29 51L29 52L28 52L28 53L27 53L27 54L28 54L28 53L30 53L30 51ZM37 51L37 52L38 52L38 51ZM49 51L49 52L51 52L51 51ZM63 51L63 52L64 52L64 51ZM4 52L4 53L5 53L5 52ZM18 52L18 53L19 53L19 52ZM56 52L56 53L55 53L55 55L57 55L57 52ZM58 52L58 53L59 53L59 52ZM36 53L36 55L37 55L37 54L38 54L38 53ZM60 53L60 54L58 54L58 55L60 55L60 54L61 54L61 53ZM15 54L15 55L16 55L16 54ZM18 54L18 55L19 55L19 54ZM31 54L31 55L33 55L33 56L34 56L34 55L33 55L33 54ZM52 55L52 57L53 57L53 55ZM44 56L44 58L45 58L45 56ZM58 56L58 57L59 57L59 59L58 59L58 61L57 61L57 62L58 62L58 65L59 65L59 62L60 62L60 61L61 61L61 60L60 60L60 58L61 58L61 59L63 59L63 60L62 60L62 61L63 61L63 63L64 63L64 61L63 61L63 60L66 60L66 59L67 59L67 61L68 61L68 62L70 62L70 63L72 63L72 66L73 66L73 62L70 62L70 61L71 61L71 60L69 60L69 59L68 59L68 58L65 58L65 59L64 59L64 58L62 58L62 57L59 57L59 56ZM56 59L56 60L55 60L55 61L54 61L54 62L55 62L55 63L54 63L54 64L55 64L55 63L56 63L56 64L57 64L57 63L56 63L56 62L55 62L55 61L56 61L56 60L57 60L57 59ZM12 60L12 61L11 61L11 62L10 62L10 64L11 64L11 63L12 63L12 62L14 62L14 60ZM45 60L45 63L44 63L44 64L43 64L43 65L44 65L44 64L45 64L45 63L46 63L46 64L47 64L47 65L48 65L48 64L47 64L47 63L46 63L46 60ZM59 60L59 61L60 61L60 60ZM76 60L76 61L77 61L77 60ZM28 61L28 62L29 62L29 61ZM43 61L43 62L44 62L44 61ZM65 61L65 62L66 62L66 61ZM26 62L26 63L27 63L27 64L29 64L29 65L31 65L31 63L27 63L27 62ZM6 63L6 64L7 64L7 63ZM37 63L37 64L38 64L38 66L39 66L39 64L38 64L38 63ZM6 65L6 66L8 66L8 65ZM13 65L13 66L14 66L14 65ZM18 65L18 66L19 66L19 67L20 67L20 65ZM25 65L25 66L26 66L26 65ZM21 66L21 67L22 67L22 66ZM64 67L64 68L65 68L65 69L66 69L66 70L65 70L65 71L64 71L64 72L66 72L66 73L67 73L67 72L66 72L66 70L67 70L67 69L66 69L66 68L67 68L67 67L66 67L66 68L65 68L65 67ZM6 68L6 69L7 69L7 68ZM36 68L36 69L37 69L37 68ZM17 69L17 70L18 70L18 69ZM25 69L25 72L28 72L28 69ZM47 69L47 72L50 72L50 69ZM69 69L69 72L72 72L72 69ZM13 70L13 71L12 71L12 72L14 72L14 70ZM26 70L26 71L27 71L27 70ZM33 70L33 71L32 71L32 72L33 72L33 71L34 71L34 70ZM48 70L48 71L49 71L49 70ZM52 70L52 71L51 71L51 72L52 72L52 71L53 71L53 70ZM70 70L70 71L71 71L71 70ZM62 71L62 72L63 72L63 71ZM41 72L41 74L42 74L42 72ZM15 73L15 74L16 74L16 73ZM24 73L24 75L25 75L25 76L26 76L26 74L28 74L28 73ZM33 73L33 74L34 74L34 73ZM39 73L39 76L40 76L40 73ZM47 73L47 74L46 74L46 75L47 75L47 74L48 74L48 73ZM50 73L50 75L51 75L51 73ZM12 74L12 76L13 76L13 74ZM43 74L43 75L45 75L45 74ZM14 76L14 77L15 77L15 76ZM56 76L56 77L57 77L57 76ZM72 76L72 77L73 77L73 76ZM0 0L0 7L7 7L7 0ZM1 1L1 6L6 6L6 1ZM2 2L2 5L5 5L5 2ZM70 0L70 7L77 7L77 0ZM71 1L71 6L76 6L76 1ZM72 2L72 5L75 5L75 2ZM0 70L0 77L7 77L7 70ZM1 71L1 76L6 76L6 71ZM2 72L2 75L5 75L5 72Z" fill="#000000"/></g></g></svg>
