<?xml version="1.0" encoding="UTF-8"?>
<svg xmlns="http://www.w3.org/2000/svg" version="1.1" width="400" height="400" viewBox="0 0 400 400"><rect x="0" y="0" width="400" height="400" fill="#fefefe"/><g transform="scale(4.706)"><g transform="translate(4,4)"><path fill-rule="evenodd" d="M9 0L9 1L8 1L8 2L10 2L10 1L11 1L11 5L10 5L10 7L11 7L11 6L12 6L12 8L13 8L13 10L12 10L12 9L11 9L11 8L10 8L10 9L11 9L11 10L9 10L9 6L8 6L8 10L6 10L6 9L7 9L7 8L3 8L3 9L5 9L5 12L4 12L4 10L3 10L3 12L4 12L4 13L2 13L2 15L3 15L3 14L4 14L4 15L5 15L5 17L3 17L3 16L2 16L2 17L1 17L1 16L0 16L0 18L1 18L1 19L0 19L0 24L1 24L1 25L2 25L2 26L3 26L3 27L4 27L4 29L5 29L5 30L3 30L3 29L0 29L0 31L2 31L2 32L4 32L4 33L5 33L5 34L4 34L4 38L5 38L5 39L3 39L3 41L2 41L2 38L3 38L3 37L2 37L2 38L1 38L1 36L2 36L2 33L1 33L1 32L0 32L0 35L1 35L1 36L0 36L0 40L1 40L1 41L0 41L0 45L1 45L1 41L2 41L2 42L3 42L3 43L2 43L2 46L1 46L1 47L3 47L3 46L4 46L4 48L3 48L3 50L4 50L4 51L3 51L3 52L2 52L2 53L4 53L4 54L2 54L2 55L1 55L1 53L0 53L0 59L1 59L1 60L2 60L2 63L1 63L1 64L0 64L0 66L1 66L1 67L2 67L2 66L1 66L1 64L2 64L2 65L3 65L3 66L4 66L4 68L1 68L1 69L5 69L5 67L7 67L7 68L6 68L6 69L7 69L7 68L8 68L8 67L9 67L9 69L8 69L8 70L9 70L9 71L8 71L8 74L9 74L9 73L10 73L10 72L12 72L12 71L13 71L13 72L14 72L14 73L16 73L16 74L15 74L15 75L12 75L12 73L11 73L11 76L13 76L13 77L16 77L16 75L17 75L17 77L18 77L18 75L19 75L19 77L21 77L21 75L19 75L19 74L22 74L22 75L23 75L23 74L24 74L24 77L26 77L26 76L27 76L27 75L28 75L28 76L29 76L29 77L30 77L30 76L31 76L31 75L28 75L28 73L29 73L29 74L30 74L30 71L29 71L29 69L30 69L30 67L29 67L29 68L28 68L28 67L27 67L27 68L26 68L26 67L24 67L24 66L25 66L25 64L27 64L27 65L26 65L26 66L27 66L27 65L28 65L28 66L29 66L29 65L31 65L31 64L32 64L32 66L33 66L33 64L34 64L34 68L35 68L35 69L34 69L34 71L36 71L36 72L33 72L33 73L32 73L32 72L31 72L31 73L32 73L32 76L34 76L34 77L35 77L35 75L36 75L36 74L38 74L38 72L39 72L39 70L40 70L40 71L41 71L41 73L42 73L42 72L43 72L43 73L44 73L44 72L45 72L45 73L47 73L47 74L46 74L46 75L44 75L44 74L43 74L43 75L40 75L40 76L39 76L39 75L37 75L37 77L38 77L38 76L39 76L39 77L40 77L40 76L43 76L43 77L49 77L49 76L50 76L50 77L51 77L51 76L50 76L50 75L52 75L52 74L55 74L55 75L56 75L56 72L55 72L55 73L54 73L54 71L55 71L55 70L56 70L56 71L57 71L57 69L58 69L58 73L57 73L57 75L58 75L58 74L60 74L60 76L56 76L56 77L63 77L63 75L64 75L64 76L65 76L65 75L64 75L64 74L65 74L65 72L66 72L66 76L67 76L67 77L69 77L69 76L71 76L71 75L72 75L72 77L75 77L75 76L76 76L76 75L77 75L77 74L76 74L76 73L77 73L77 72L76 72L76 71L77 71L77 65L76 65L76 62L77 62L77 59L75 59L75 60L74 60L74 59L71 59L71 60L70 60L70 61L69 61L69 62L70 62L70 64L71 64L71 65L69 65L69 64L68 64L68 63L67 63L67 64L68 64L68 66L67 66L67 65L66 65L66 64L64 64L64 65L63 65L63 67L61 67L61 68L60 68L60 66L57 66L57 65L58 65L58 64L59 64L59 62L60 62L60 63L64 63L64 62L65 62L65 61L64 61L64 60L63 60L63 59L64 59L64 57L65 57L65 58L67 58L67 59L65 59L65 60L67 60L67 61L66 61L66 62L68 62L68 60L67 60L67 59L69 59L69 58L72 58L72 57L73 57L73 58L75 58L75 57L76 57L76 58L77 58L77 56L75 56L75 57L73 57L73 56L74 56L74 55L76 55L76 54L74 54L74 52L75 52L75 53L76 53L76 51L77 51L77 48L76 48L76 49L75 49L75 48L74 48L74 47L73 47L73 46L76 46L76 47L77 47L77 46L76 46L76 45L77 45L77 44L76 44L76 43L77 43L77 42L76 42L76 41L75 41L75 40L76 40L76 39L77 39L77 36L74 36L74 37L73 37L73 36L72 36L72 35L74 35L74 34L75 34L75 35L76 35L76 34L77 34L77 28L75 28L75 25L77 25L77 24L76 24L76 23L77 23L77 17L76 17L76 16L75 16L75 15L77 15L77 14L75 14L75 13L74 13L74 12L72 12L72 10L73 10L73 11L76 11L76 13L77 13L77 11L76 11L76 10L77 10L77 9L76 9L76 8L75 8L75 9L74 9L74 8L72 8L72 10L70 10L70 9L71 9L71 8L68 8L68 7L69 7L69 6L68 6L68 7L67 7L67 5L69 5L69 1L68 1L68 4L66 4L66 2L67 2L67 1L66 1L66 0L65 0L65 1L64 1L64 2L62 2L62 1L63 1L63 0L60 0L60 2L61 2L61 3L59 3L59 0L58 0L58 2L56 2L56 1L57 1L57 0L56 0L56 1L55 1L55 0L53 0L53 1L54 1L54 3L53 3L53 4L54 4L54 5L52 5L52 7L51 7L51 4L46 4L46 9L45 9L45 6L44 6L44 5L45 5L45 3L43 3L43 1L44 1L44 2L46 2L46 1L48 1L48 2L47 2L47 3L50 3L50 1L51 1L51 2L52 2L52 1L51 1L51 0L50 0L50 1L49 1L49 0L45 0L45 1L44 1L44 0L43 0L43 1L42 1L42 0L40 0L40 1L41 1L41 2L39 2L39 1L38 1L38 3L40 3L40 7L39 7L39 6L38 6L38 5L39 5L39 4L37 4L37 3L36 3L36 2L37 2L37 1L36 1L36 0L30 0L30 1L31 1L31 4L32 4L32 5L30 5L30 4L26 4L26 2L27 2L27 1L29 1L29 0L27 0L27 1L26 1L26 2L25 2L25 0L24 0L24 1L23 1L23 0L20 0L20 1L19 1L19 2L17 2L17 1L18 1L18 0L17 0L17 1L16 1L16 0L15 0L15 2L16 2L16 3L15 3L15 5L14 5L14 7L13 7L13 4L14 4L14 3L12 3L12 2L14 2L14 1L11 1L11 0ZM21 1L21 2L20 2L20 3L17 3L17 4L18 4L18 5L15 5L15 8L14 8L14 10L15 10L15 13L14 13L14 12L13 12L13 11L12 11L12 12L11 12L11 13L13 13L13 14L12 14L12 16L11 16L11 15L10 15L10 12L9 12L9 11L6 11L6 12L5 12L5 13L4 13L4 14L5 14L5 13L6 13L6 14L7 14L7 15L6 15L6 16L7 16L7 17L6 17L6 18L7 18L7 19L6 19L6 20L5 20L5 18L4 18L4 19L1 19L1 20L2 20L2 21L3 21L3 22L4 22L4 23L2 23L2 22L1 22L1 24L4 24L4 23L5 23L5 24L7 24L7 23L8 23L8 24L9 24L9 27L10 27L10 28L9 28L9 32L8 32L8 33L6 33L6 32L7 32L7 31L8 31L8 29L6 29L6 30L7 30L7 31L4 31L4 32L5 32L5 33L6 33L6 34L9 34L9 35L12 35L12 36L14 36L14 37L11 37L11 36L10 36L10 37L9 37L9 36L8 36L8 35L6 35L6 36L8 36L8 41L6 41L6 42L5 42L5 40L4 40L4 41L3 41L3 42L5 42L5 43L4 43L4 44L3 44L3 45L4 45L4 44L7 44L7 43L6 43L6 42L9 42L9 41L10 41L10 40L9 40L9 39L10 39L10 38L12 38L12 39L11 39L11 41L12 41L12 42L11 42L11 44L10 44L10 43L8 43L8 45L5 45L5 46L9 46L9 47L11 47L11 48L9 48L9 49L10 49L10 50L9 50L9 52L8 52L8 51L4 51L4 53L6 53L6 54L7 54L7 53L8 53L8 54L9 54L9 55L5 55L5 54L4 54L4 56L2 56L2 57L1 57L1 58L2 58L2 59L3 59L3 62L4 62L4 64L3 64L3 65L6 65L6 66L8 66L8 65L6 65L6 64L7 64L7 63L8 63L8 64L10 64L10 63L11 63L11 62L10 62L10 63L9 63L9 61L11 61L11 59L12 59L12 60L13 60L13 59L12 59L12 58L17 58L17 57L16 57L16 56L18 56L18 57L19 57L19 55L18 55L18 54L19 54L19 53L21 53L21 54L20 54L20 55L21 55L21 56L22 56L22 55L23 55L23 56L25 56L25 57L24 57L24 59L25 59L25 60L24 60L24 61L23 61L23 60L22 60L22 59L23 59L23 57L22 57L22 58L21 58L21 57L20 57L20 58L18 58L18 59L17 59L17 61L12 61L12 64L11 64L11 65L10 65L10 66L11 66L11 67L10 67L10 68L13 68L13 69L12 69L12 70L10 70L10 71L9 71L9 72L10 72L10 71L12 71L12 70L13 70L13 69L14 69L14 67L13 67L13 66L14 66L14 65L13 65L13 62L14 62L14 64L15 64L15 65L16 65L16 64L15 64L15 62L16 62L16 63L19 63L19 66L24 66L24 64L23 64L23 65L22 65L22 64L20 64L20 62L21 62L21 60L22 60L22 61L23 61L23 63L26 63L26 62L27 62L27 63L29 63L29 64L28 64L28 65L29 65L29 64L31 64L31 63L29 63L29 62L30 62L30 60L31 60L31 58L32 58L32 57L34 57L34 59L33 59L33 61L31 61L31 62L32 62L32 64L33 64L33 63L34 63L34 64L36 64L36 66L37 66L37 67L36 67L36 69L37 69L37 70L36 70L36 71L37 71L37 72L36 72L36 73L34 73L34 74L33 74L33 75L35 75L35 74L36 74L36 73L37 73L37 72L38 72L38 69L39 69L39 66L40 66L40 69L41 69L41 70L42 70L42 71L43 71L43 72L44 72L44 70L45 70L45 72L46 72L46 69L45 69L45 68L44 68L44 70L42 70L42 68L41 68L41 66L42 66L42 65L43 65L43 67L46 67L46 68L50 68L50 67L51 67L51 69L52 69L52 72L51 72L51 74L52 74L52 72L53 72L53 70L54 70L54 69L56 69L56 68L58 68L58 69L60 69L60 72L59 72L59 73L61 73L61 74L62 74L62 73L63 73L63 74L64 74L64 73L63 73L63 72L64 72L64 71L63 71L63 72L61 72L61 70L65 70L65 69L62 69L62 68L61 68L61 69L60 69L60 68L58 68L58 67L57 67L57 66L56 66L56 65L57 65L57 64L58 64L58 62L59 62L59 61L61 61L61 62L63 62L63 61L62 61L62 58L63 58L63 56L61 56L61 58L60 58L60 60L58 60L58 58L59 58L59 57L60 57L60 55L59 55L59 54L61 54L61 55L63 55L63 53L64 53L64 52L65 52L65 54L64 54L64 56L66 56L66 57L67 57L67 56L68 56L68 57L71 57L71 56L69 56L69 54L72 54L72 55L73 55L73 54L72 54L72 53L73 53L73 52L74 52L74 51L76 51L76 50L74 50L74 49L73 49L73 50L74 50L74 51L73 51L73 52L72 52L72 53L68 53L68 52L69 52L69 51L68 51L68 49L67 49L67 48L68 48L68 47L66 47L66 46L68 46L68 45L67 45L67 42L69 42L69 43L70 43L70 44L71 44L71 43L72 43L72 45L71 45L71 46L73 46L73 45L76 45L76 44L75 44L75 41L73 41L73 40L74 40L74 39L75 39L75 38L74 38L74 39L73 39L73 40L72 40L72 39L71 39L71 38L73 38L73 37L72 37L72 36L70 36L70 35L71 35L71 34L72 34L72 33L73 33L73 34L74 34L74 33L75 33L75 34L76 34L76 33L75 33L75 32L76 32L76 31L75 31L75 32L73 32L73 31L72 31L72 30L73 30L73 29L74 29L74 30L76 30L76 29L74 29L74 28L73 28L73 29L71 29L71 30L70 30L70 31L71 31L71 34L69 34L69 35L68 35L68 34L67 34L67 35L68 35L68 37L67 37L67 36L66 36L66 37L65 37L65 35L63 35L63 34L66 34L66 33L64 33L64 32L66 32L66 31L64 31L64 32L60 32L60 31L61 31L61 30L62 30L62 31L63 31L63 30L62 30L62 29L63 29L63 28L62 28L62 27L63 27L63 26L64 26L64 24L65 24L65 25L66 25L66 26L67 26L67 25L66 25L66 24L70 24L70 23L71 23L71 24L72 24L72 23L71 23L71 22L72 22L72 21L73 21L73 24L74 24L74 25L73 25L73 27L74 27L74 25L75 25L75 24L74 24L74 21L76 21L76 20L74 20L74 19L75 19L75 18L76 18L76 17L75 17L75 16L74 16L74 14L72 14L72 13L70 13L70 12L71 12L71 11L69 11L69 10L68 10L68 9L67 9L67 7L66 7L66 6L65 6L65 5L66 5L66 4L65 4L65 2L64 2L64 4L63 4L63 5L62 5L62 4L59 4L59 5L58 5L58 4L57 4L57 3L56 3L56 4L57 4L57 5L54 5L54 6L53 6L53 7L52 7L52 9L53 9L53 10L55 10L55 11L54 11L54 13L53 13L53 11L51 11L51 9L46 9L46 11L45 11L45 13L44 13L44 12L43 12L43 11L42 11L42 10L39 10L39 11L41 11L41 12L37 12L37 11L38 11L38 8L35 8L35 9L37 9L37 11L36 11L36 10L35 10L35 11L34 11L34 12L33 12L33 13L34 13L34 12L35 12L35 13L36 13L36 14L35 14L35 15L34 15L34 14L32 14L32 15L30 15L30 14L29 14L29 15L28 15L28 16L29 16L29 17L26 17L26 18L25 18L25 17L24 17L24 15L25 15L25 14L28 14L28 13L30 13L30 12L31 12L31 13L32 13L32 12L31 12L31 11L33 11L33 10L34 10L34 6L33 6L33 5L34 5L34 2L33 2L33 3L32 3L32 4L33 4L33 5L32 5L32 6L31 6L31 7L32 7L32 6L33 6L33 10L32 10L32 9L31 9L31 10L30 10L30 8L29 8L29 11L30 11L30 12L28 12L28 10L27 10L27 11L26 11L26 9L25 9L25 10L24 10L24 11L21 11L21 10L23 10L23 9L21 9L21 10L20 10L20 9L19 9L19 10L18 10L18 6L19 6L19 8L21 8L21 7L22 7L22 8L24 8L24 6L23 6L23 7L22 7L22 6L21 6L21 7L20 7L20 5L21 5L21 4L20 4L20 3L21 3L21 2L23 2L23 1ZM28 2L28 3L30 3L30 2ZM41 2L41 3L42 3L42 4L41 4L41 7L40 7L40 9L41 9L41 8L42 8L42 9L43 9L43 10L45 10L45 9L44 9L44 6L43 6L43 5L44 5L44 4L43 4L43 3L42 3L42 2ZM8 3L8 5L9 5L9 3ZM22 3L22 4L23 4L23 5L24 5L24 3ZM35 3L35 4L36 4L36 3ZM54 3L54 4L55 4L55 3ZM42 4L42 5L43 5L43 4ZM25 5L25 8L28 8L28 5ZM29 5L29 7L30 7L30 5ZM47 5L47 8L50 8L50 5ZM59 5L59 6L58 6L58 10L57 10L57 6L56 6L56 7L55 7L55 6L54 6L54 9L55 9L55 10L56 10L56 11L58 11L58 13L59 13L59 14L57 14L57 16L56 16L56 12L55 12L55 14L52 14L52 13L50 13L50 12L49 12L49 13L50 13L50 16L49 16L49 17L50 17L50 18L48 18L48 19L49 19L49 20L48 20L48 21L49 21L49 22L48 22L48 23L50 23L50 22L51 22L51 24L47 24L47 23L46 23L46 24L43 24L43 23L42 23L42 25L41 25L41 22L44 22L44 23L45 23L45 22L44 22L44 19L46 19L46 18L47 18L47 17L48 17L48 15L49 15L49 14L47 14L47 13L48 13L48 12L47 12L47 13L46 13L46 14L45 14L45 15L44 15L44 14L42 14L42 12L41 12L41 13L40 13L40 14L42 14L42 15L38 15L38 13L37 13L37 15L35 15L35 17L36 17L36 18L33 18L33 16L34 16L34 15L32 15L32 16L30 16L30 17L29 17L29 18L30 18L30 17L32 17L32 19L31 19L31 20L29 20L29 19L28 19L28 18L27 18L27 19L23 19L23 18L24 18L24 17L23 17L23 15L24 15L24 14L25 14L25 11L24 11L24 12L23 12L23 13L22 13L22 14L23 14L23 15L21 15L21 13L19 13L19 12L16 12L16 13L17 13L17 14L16 14L16 16L15 16L15 14L14 14L14 16L13 16L13 18L12 18L12 17L11 17L11 16L10 16L10 15L9 15L9 16L8 16L8 15L7 15L7 16L8 16L8 17L9 17L9 16L10 16L10 19L13 19L13 18L14 18L14 17L15 17L15 18L16 18L16 17L17 17L17 18L19 18L19 17L20 17L20 19L16 19L16 20L17 20L17 22L18 22L18 23L16 23L16 22L14 22L14 21L15 21L15 19L14 19L14 21L13 21L13 20L12 20L12 22L10 22L10 21L9 21L9 20L8 20L8 21L7 21L7 20L6 20L6 21L7 21L7 22L6 22L6 23L7 23L7 22L9 22L9 23L11 23L11 25L12 25L12 23L15 23L15 24L16 24L16 25L14 25L14 24L13 24L13 25L14 25L14 26L11 26L11 27L12 27L12 30L13 30L13 31L12 31L12 32L11 32L11 29L10 29L10 32L9 32L9 33L10 33L10 34L11 34L11 33L13 33L13 34L12 34L12 35L14 35L14 36L15 36L15 35L18 35L18 33L17 33L17 34L16 34L16 31L17 31L17 32L20 32L20 34L19 34L19 35L20 35L20 36L21 36L21 39L17 39L17 36L16 36L16 39L17 39L17 40L16 40L16 41L17 41L17 40L20 40L20 42L22 42L22 43L21 43L21 45L20 45L20 46L22 46L22 44L23 44L23 45L24 45L24 44L26 44L26 46L23 46L23 47L22 47L22 49L21 49L21 48L20 48L20 47L19 47L19 48L18 48L18 51L17 51L17 48L16 48L16 49L15 49L15 51L16 51L16 52L13 52L13 48L14 48L14 47L15 47L15 46L16 46L16 47L17 47L17 45L18 45L18 46L19 46L19 42L17 42L17 43L16 43L16 42L15 42L15 41L13 41L13 42L12 42L12 45L10 45L10 44L9 44L9 45L10 45L10 46L13 46L13 44L15 44L15 46L14 46L14 47L12 47L12 51L11 51L11 52L13 52L13 53L9 53L9 54L10 54L10 55L13 55L13 56L12 56L12 57L13 57L13 56L14 56L14 57L15 57L15 56L16 56L16 55L17 55L17 53L18 53L18 51L19 51L19 50L20 50L20 51L21 51L21 50L22 50L22 53L23 53L23 52L24 52L24 53L25 53L25 54L26 54L26 53L27 53L27 51L29 51L29 52L28 52L28 54L27 54L27 55L29 55L29 57L28 57L28 56L26 56L26 57L25 57L25 59L26 59L26 60L25 60L25 61L24 61L24 62L26 62L26 61L29 61L29 58L31 58L31 57L30 57L30 55L31 55L31 54L32 54L32 56L33 56L33 55L34 55L34 53L33 53L33 54L32 54L32 53L31 53L31 54L30 54L30 55L29 55L29 52L32 52L32 51L30 51L30 50L31 50L31 49L32 49L32 48L29 48L29 47L32 47L32 45L34 45L34 46L33 46L33 47L34 47L34 49L35 49L35 50L33 50L33 52L34 52L34 51L37 51L37 49L35 49L35 46L36 46L36 47L38 47L38 48L39 48L39 47L40 47L40 45L41 45L41 46L44 46L44 47L43 47L43 48L42 48L42 49L40 49L40 50L38 50L38 52L39 52L39 51L40 51L40 52L41 52L41 54L39 54L39 55L38 55L38 53L37 53L37 54L35 54L35 55L38 55L38 57L42 57L42 58L44 58L44 60L43 60L43 62L42 62L42 63L44 63L44 64L43 64L43 65L44 65L44 66L45 66L45 65L46 65L46 67L48 67L48 64L47 64L47 65L46 65L46 64L45 64L45 63L46 63L46 60L45 60L45 58L46 58L46 59L47 59L47 60L48 60L48 58L49 58L49 61L47 61L47 62L48 62L48 63L50 63L50 62L51 62L51 63L52 63L52 64L50 64L50 66L49 66L49 67L50 67L50 66L51 66L51 67L52 67L52 66L53 66L53 67L54 67L54 66L53 66L53 62L55 62L55 64L54 64L54 65L55 65L55 64L57 64L57 63L56 63L56 62L58 62L58 60L55 60L55 59L54 59L54 58L56 58L56 59L57 59L57 55L58 55L58 57L59 57L59 55L58 55L58 53L57 53L57 54L56 54L56 52L55 52L55 51L58 51L58 52L59 52L59 53L60 53L60 52L59 52L59 50L61 50L61 49L60 49L60 48L61 48L61 46L62 46L62 45L60 45L60 44L59 44L59 43L60 43L60 42L59 42L59 41L62 41L62 40L64 40L64 39L65 39L65 38L64 38L64 37L62 37L62 40L54 40L54 42L59 42L59 43L58 43L58 44L59 44L59 45L57 45L57 44L56 44L56 43L54 43L54 44L51 44L51 43L52 43L52 42L53 42L53 41L52 41L52 42L50 42L50 44L49 44L49 39L50 39L50 38L49 38L49 37L51 37L51 40L53 40L53 37L52 37L52 36L54 36L54 35L55 35L55 36L56 36L56 37L54 37L54 39L56 39L56 37L57 37L57 39L58 39L58 38L61 38L61 37L59 37L59 35L60 35L60 36L61 36L61 34L62 34L62 33L60 33L60 34L59 34L59 32L56 32L56 30L58 30L58 31L60 31L60 29L61 29L61 27L62 27L62 26L63 26L63 23L65 23L65 24L66 24L66 21L72 21L72 19L73 19L73 18L74 18L74 17L72 17L72 19L71 19L71 20L70 20L70 19L69 19L69 18L70 18L70 15L71 15L71 14L70 14L70 13L68 13L68 12L69 12L69 11L68 11L68 10L67 10L67 9L66 9L66 8L64 8L64 9L62 9L62 11L64 11L64 13L63 13L63 12L62 12L62 13L63 13L63 14L61 14L61 13L59 13L59 12L60 12L60 10L59 10L59 9L61 9L61 8L63 8L63 6L62 6L62 7L61 7L61 6L60 6L60 5ZM16 6L16 7L17 7L17 6ZM26 6L26 7L27 7L27 6ZM35 6L35 7L36 7L36 6ZM37 6L37 7L38 7L38 6ZM42 6L42 8L43 8L43 6ZM48 6L48 7L49 7L49 6ZM59 6L59 8L61 8L61 7L60 7L60 6ZM64 6L64 7L65 7L65 6ZM1 8L1 9L0 9L0 10L1 10L1 12L2 12L2 10L1 10L1 9L2 9L2 8ZM15 8L15 10L16 10L16 8ZM64 9L64 10L66 10L66 12L65 12L65 14L64 14L64 15L61 15L61 16L62 16L62 17L61 17L61 18L62 18L62 20L61 20L61 22L60 22L60 24L59 24L59 25L61 25L61 24L62 24L62 23L63 23L63 22L65 22L65 21L64 21L64 20L63 20L63 18L62 18L62 17L64 17L64 16L66 16L66 17L65 17L65 20L66 20L66 19L68 19L68 20L69 20L69 19L68 19L68 18L66 18L66 17L69 17L69 15L68 15L68 14L67 14L67 12L68 12L68 11L67 11L67 10L66 10L66 9ZM19 10L19 11L20 11L20 12L21 12L21 11L20 11L20 10ZM47 10L47 11L49 11L49 10ZM58 10L58 11L59 11L59 10ZM6 12L6 13L7 13L7 12ZM26 12L26 13L28 13L28 12ZM8 13L8 14L9 14L9 13ZM18 13L18 14L17 14L17 15L18 15L18 16L17 16L17 17L18 17L18 16L19 16L19 15L20 15L20 14L19 14L19 13ZM0 14L0 15L1 15L1 14ZM18 14L18 15L19 15L19 14ZM46 14L46 15L45 15L45 16L46 16L46 15L47 15L47 14ZM59 14L59 15L60 15L60 14ZM66 14L66 16L67 16L67 14ZM26 15L26 16L27 16L27 15ZM51 15L51 16L50 16L50 17L51 17L51 16L52 16L52 15ZM53 15L53 18L52 18L52 19L51 19L51 18L50 18L50 19L51 19L51 21L52 21L52 22L55 22L55 24L54 24L54 26L52 26L52 25L51 25L51 26L52 26L52 27L51 27L51 29L50 29L50 30L49 30L49 31L50 31L50 32L52 32L52 31L53 31L53 33L51 33L51 34L49 34L49 36L50 36L50 35L51 35L51 34L52 34L52 35L53 35L53 33L56 33L56 32L55 32L55 29L56 29L56 28L58 28L58 29L60 29L60 27L61 27L61 26L58 26L58 27L54 27L54 26L55 26L55 24L57 24L57 25L56 25L56 26L57 26L57 25L58 25L58 22L55 22L55 21L56 21L56 20L58 20L58 21L60 21L60 19L59 19L59 18L58 18L58 19L57 19L57 18L56 18L56 17L54 17L54 15ZM72 15L72 16L73 16L73 15ZM20 16L20 17L21 17L21 18L22 18L22 17L21 17L21 16ZM36 16L36 17L37 17L37 19L38 19L38 21L36 21L36 22L35 22L35 20L36 20L36 19L33 19L33 20L31 20L31 21L29 21L29 23L27 23L27 22L28 22L28 20L27 20L27 21L25 21L25 20L23 20L23 21L21 21L21 19L20 19L20 22L19 22L19 24L17 24L17 27L16 27L16 28L15 28L15 27L13 27L13 29L16 29L16 30L17 30L17 31L18 31L18 30L17 30L17 29L18 29L18 28L19 28L19 29L20 29L20 31L21 31L21 28L22 28L22 31L24 31L24 32L25 32L25 33L23 33L23 34L25 34L25 33L26 33L26 32L29 32L29 33L30 33L30 34L31 34L31 35L29 35L29 34L27 34L27 35L26 35L26 38L25 38L25 37L22 37L22 38L23 38L23 39L25 39L25 41L27 41L27 40L28 40L28 39L27 39L27 40L26 40L26 38L28 38L28 37L30 37L30 38L29 38L29 39L30 39L30 41L29 41L29 46L31 46L31 45L32 45L32 44L31 44L31 43L34 43L34 44L36 44L36 43L34 43L34 42L36 42L36 41L33 41L33 42L32 42L32 41L31 41L31 39L32 39L32 40L33 40L33 39L35 39L35 40L36 40L36 39L35 39L35 38L34 38L34 37L37 37L37 36L38 36L38 39L37 39L37 40L38 40L38 39L39 39L39 40L40 40L40 44L41 44L41 45L44 45L44 46L45 46L45 45L46 45L46 42L47 42L47 43L48 43L48 42L47 42L47 41L46 41L46 38L48 38L48 36L47 36L47 37L46 37L46 38L43 38L43 36L42 36L42 34L43 34L43 33L45 33L45 34L46 34L46 35L47 35L47 34L48 34L48 33L45 33L45 32L41 32L41 33L42 33L42 34L41 34L41 36L39 36L39 35L38 35L38 34L39 34L39 33L40 33L40 31L42 31L42 30L41 30L41 29L43 29L43 31L44 31L44 29L43 29L43 28L42 28L42 27L41 27L41 25L40 25L40 24L36 24L36 23L38 23L38 22L39 22L39 23L40 23L40 22L41 22L41 20L42 20L42 21L43 21L43 20L42 20L42 19L43 19L43 18L42 18L42 19L41 19L41 16L40 16L40 17L39 17L39 16ZM43 16L43 17L44 17L44 18L46 18L46 17L44 17L44 16ZM57 16L57 17L58 17L58 16ZM59 16L59 17L60 17L60 16ZM38 18L38 19L40 19L40 18ZM53 18L53 19L52 19L52 21L54 21L54 20L53 20L53 19L54 19L54 18ZM55 18L55 20L56 20L56 18ZM3 20L3 21L4 21L4 20ZM18 20L18 21L19 21L19 20ZM33 20L33 21L31 21L31 22L30 22L30 23L31 23L31 24L30 24L30 25L29 25L29 24L26 24L26 22L25 22L25 21L23 21L23 22L25 22L25 24L22 24L22 22L20 22L20 25L21 25L21 24L22 24L22 25L24 25L24 29L23 29L23 30L24 30L24 31L25 31L25 30L24 30L24 29L30 29L30 30L31 30L31 29L32 29L32 30L33 30L33 31L34 31L34 30L35 30L35 28L36 28L36 29L37 29L37 28L38 28L38 29L39 29L39 28L40 28L40 29L41 29L41 28L40 28L40 27L39 27L39 26L37 26L37 25L36 25L36 24L35 24L35 23L34 23L34 22L33 22L33 21L34 21L34 20ZM45 20L45 21L46 21L46 20ZM62 20L62 22L63 22L63 20ZM32 22L32 25L30 25L30 26L29 26L29 27L30 27L30 28L31 28L31 27L34 27L34 28L32 28L32 29L34 29L34 28L35 28L35 27L36 27L36 26L35 26L35 24L34 24L34 23L33 23L33 22ZM69 22L69 23L70 23L70 22ZM75 22L75 23L76 23L76 22ZM52 23L52 24L53 24L53 23ZM5 25L5 28L8 28L8 25ZM18 25L18 27L17 27L17 28L16 28L16 29L17 29L17 28L18 28L18 27L22 27L22 28L23 28L23 26L19 26L19 25ZM25 25L25 28L28 28L28 25ZM33 25L33 26L34 26L34 25ZM42 25L42 26L44 26L44 28L45 28L45 30L46 30L46 26L45 26L45 25ZM47 25L47 28L50 28L50 25ZM69 25L69 28L72 28L72 25ZM0 26L0 27L1 27L1 28L2 28L2 27L1 27L1 26ZM6 26L6 27L7 27L7 26ZM26 26L26 27L27 27L27 26ZM30 26L30 27L31 27L31 26ZM48 26L48 27L49 27L49 26ZM70 26L70 27L71 27L71 26ZM76 26L76 27L77 27L77 26ZM38 27L38 28L39 28L39 27ZM65 27L65 29L64 29L64 30L65 30L65 29L66 29L66 30L69 30L69 29L67 29L67 28L66 28L66 27ZM52 28L52 29L51 29L51 31L52 31L52 30L53 30L53 31L54 31L54 30L53 30L53 28ZM54 28L54 29L55 29L55 28ZM47 29L47 30L48 30L48 29ZM2 30L2 31L3 31L3 30ZM14 30L14 32L13 32L13 33L15 33L15 30ZM26 30L26 31L27 31L27 30ZM28 30L28 31L29 31L29 32L30 32L30 33L32 33L32 35L33 35L33 36L30 36L30 37L31 37L31 38L30 38L30 39L31 39L31 38L32 38L32 37L33 37L33 36L34 36L34 35L35 35L35 36L37 36L37 34L38 34L38 33L37 33L37 32L39 32L39 31L38 31L38 30L37 30L37 32L36 32L36 31L35 31L35 32L33 32L33 33L32 33L32 31L29 31L29 30ZM47 31L47 32L48 32L48 31ZM68 31L68 32L67 32L67 33L68 33L68 32L69 32L69 33L70 33L70 32L69 32L69 31ZM10 32L10 33L11 33L11 32ZM21 33L21 34L22 34L22 33ZM14 34L14 35L15 35L15 34ZM35 34L35 35L36 35L36 34ZM55 34L55 35L57 35L57 37L58 37L58 35L59 35L59 34ZM23 35L23 36L24 36L24 35ZM28 35L28 36L29 36L29 35ZM44 35L44 36L45 36L45 35ZM62 35L62 36L63 36L63 35ZM18 36L18 38L20 38L20 37L19 37L19 36ZM41 36L41 38L40 38L40 37L39 37L39 39L40 39L40 40L42 40L42 41L41 41L41 42L43 42L43 43L44 43L44 45L45 45L45 40L44 40L44 39L43 39L43 40L42 40L42 36ZM5 37L5 38L7 38L7 37ZM66 37L66 38L67 38L67 37ZM68 37L68 38L69 38L69 40L71 40L71 39L70 39L70 37ZM13 38L13 39L14 39L14 40L15 40L15 39L14 39L14 38ZM6 39L6 40L7 40L7 39ZM66 39L66 41L68 41L68 39ZM43 40L43 41L44 41L44 40ZM22 41L22 42L23 42L23 43L25 43L25 42L24 42L24 41ZM30 41L30 43L31 43L31 41ZM37 41L37 42L38 42L38 43L37 43L37 44L38 44L38 47L39 47L39 44L38 44L38 43L39 43L39 42L38 42L38 41ZM69 41L69 42L70 42L70 43L71 43L71 42L72 42L72 43L73 43L73 41ZM14 42L14 43L15 43L15 42ZM27 42L27 43L28 43L28 42ZM61 42L61 44L62 44L62 43L63 43L63 44L64 44L64 43L66 43L66 42ZM41 43L41 44L42 44L42 43ZM16 44L16 45L17 45L17 44ZM27 44L27 46L28 46L28 44ZM47 44L47 46L48 46L48 44ZM50 44L50 45L51 45L51 46L53 46L53 45L51 45L51 44ZM65 44L65 45L63 45L63 47L62 47L62 49L63 49L63 51L62 51L62 52L63 52L63 51L64 51L64 50L65 50L65 51L66 51L66 53L67 53L67 55L68 55L68 53L67 53L67 52L68 52L68 51L67 51L67 50L65 50L65 48L66 48L66 47L65 47L65 45L66 45L66 44ZM54 45L54 48L52 48L52 47L51 47L51 48L52 48L52 49L51 49L51 50L56 50L56 46L57 46L57 45L56 45L56 46L55 46L55 45ZM69 45L69 46L70 46L70 45ZM5 47L5 50L8 50L8 47ZM25 47L25 50L28 50L28 47ZM44 47L44 48L43 48L43 49L42 49L42 50L40 50L40 51L42 51L42 53L43 53L43 52L44 52L44 51L46 51L46 53L45 53L45 54L48 54L48 55L47 55L47 57L49 57L49 58L51 58L51 57L49 57L49 55L50 55L50 56L52 56L52 57L53 57L53 55L50 55L50 53L51 53L51 52L52 52L52 53L53 53L53 54L55 54L55 52L54 52L54 51L53 51L53 52L52 52L52 51L50 51L50 52L49 52L49 51L48 51L48 52L47 52L47 51L46 51L46 48L45 48L45 47ZM47 47L47 50L50 50L50 47ZM57 47L57 50L58 50L58 47ZM69 47L69 50L72 50L72 47ZM1 48L1 49L2 49L2 48ZM6 48L6 49L7 49L7 48ZM23 48L23 49L24 49L24 48ZM26 48L26 49L27 49L27 48ZM44 48L44 49L43 49L43 50L45 50L45 48ZM48 48L48 49L49 49L49 48ZM54 48L54 49L55 49L55 48ZM70 48L70 49L71 49L71 48ZM20 49L20 50L21 50L21 49ZM0 50L0 52L1 52L1 50ZM24 51L24 52L25 52L25 53L26 53L26 51ZM70 51L70 52L71 52L71 51ZM6 52L6 53L7 53L7 52ZM16 52L16 53L17 53L17 52ZM35 52L35 53L36 53L36 52ZM48 52L48 53L49 53L49 52ZM15 54L15 55L16 55L16 54ZM23 54L23 55L24 55L24 54ZM41 54L41 56L42 56L42 54ZM43 54L43 55L44 55L44 56L46 56L46 55L44 55L44 54ZM65 54L65 55L66 55L66 54ZM39 55L39 56L40 56L40 55ZM54 55L54 57L55 57L55 55ZM4 56L4 57L2 57L2 58L6 58L6 59L7 59L7 60L6 60L6 61L5 61L5 64L6 64L6 63L7 63L7 62L6 62L6 61L7 61L7 60L9 60L9 59L8 59L8 58L9 58L9 56L8 56L8 57L7 57L7 56ZM34 56L34 57L35 57L35 56ZM36 56L36 58L37 58L37 59L35 59L35 61L36 61L36 62L37 62L37 63L39 63L39 64L37 64L37 65L38 65L38 66L39 66L39 65L40 65L40 64L41 64L41 65L42 65L42 64L41 64L41 63L39 63L39 62L41 62L41 61L40 61L40 60L41 60L41 58L39 58L39 60L37 60L37 59L38 59L38 58L37 58L37 56ZM6 57L6 58L7 58L7 57ZM26 57L26 59L27 59L27 60L28 60L28 59L27 59L27 58L28 58L28 57ZM44 57L44 58L45 58L45 57ZM18 59L18 60L19 60L19 59ZM20 59L20 60L21 60L21 59ZM50 59L50 61L52 61L52 62L53 62L53 59ZM36 60L36 61L37 61L37 60ZM44 60L44 61L45 61L45 60ZM54 60L54 61L55 61L55 62L56 62L56 61L55 61L55 60ZM71 60L71 61L70 61L70 62L72 62L72 61L74 61L74 60ZM75 60L75 62L76 62L76 60ZM0 61L0 62L1 62L1 61ZM18 61L18 62L19 62L19 61ZM38 61L38 62L39 62L39 61ZM44 62L44 63L45 63L45 62ZM73 62L73 64L72 64L72 63L71 63L71 64L72 64L72 65L73 65L73 64L74 64L74 67L73 67L73 66L71 66L71 68L72 68L72 67L73 67L73 68L76 68L76 67L75 67L75 66L76 66L76 65L75 65L75 64L74 64L74 62ZM17 64L17 66L18 66L18 64ZM44 64L44 65L45 65L45 64ZM60 64L60 65L61 65L61 66L62 66L62 64ZM11 65L11 66L12 66L12 65ZM15 66L15 67L16 67L16 68L17 68L17 69L15 69L15 71L14 71L14 72L16 72L16 71L18 71L18 72L21 72L21 71L22 71L22 70L21 70L21 69L18 69L18 68L22 68L22 69L24 69L24 68L22 68L22 67L16 67L16 66ZM55 66L55 68L56 68L56 66ZM64 66L64 67L63 67L63 68L64 68L64 67L65 67L65 68L69 68L69 66L68 66L68 67L67 67L67 66ZM31 67L31 68L32 68L32 67ZM37 67L37 69L38 69L38 67ZM53 68L53 69L54 69L54 68ZM25 69L25 72L28 72L28 69ZM31 69L31 71L32 71L32 69ZM47 69L47 72L50 72L50 69ZM66 69L66 72L67 72L67 74L68 74L68 75L67 75L67 76L68 76L68 75L69 75L69 74L71 74L71 73L68 73L68 72L67 72L67 71L68 71L68 70L67 70L67 69ZM69 69L69 72L72 72L72 69ZM73 69L73 70L74 70L74 71L76 71L76 70L74 70L74 69ZM23 70L23 72L24 72L24 70ZM26 70L26 71L27 71L27 70ZM48 70L48 71L49 71L49 70ZM70 70L70 71L71 71L71 70ZM73 72L73 74L72 74L72 75L73 75L73 74L74 74L74 72ZM18 73L18 74L17 74L17 75L18 75L18 74L19 74L19 73ZM24 73L24 74L26 74L26 75L27 75L27 73ZM48 74L48 75L47 75L47 76L49 76L49 74ZM8 75L8 76L10 76L10 75ZM61 75L61 76L62 76L62 75ZM22 76L22 77L23 77L23 76ZM52 76L52 77L53 77L53 76ZM54 76L54 77L55 77L55 76ZM0 0L0 7L7 7L7 0ZM1 1L1 6L6 6L6 1ZM2 2L2 5L5 5L5 2ZM70 0L70 7L77 7L77 0ZM71 1L71 6L76 6L76 1ZM72 2L72 5L75 5L75 2ZM0 70L0 77L7 77L7 70ZM1 71L1 76L6 76L6 71ZM2 72L2 75L5 75L5 72Z" fill="#000000"/></g></g></svg>
