<?xml version="1.0" encoding="UTF-8"?>
<svg xmlns="http://www.w3.org/2000/svg" version="1.1" width="400" height="400" viewBox="0 0 400 400"><rect x="0" y="0" width="400" height="400" fill="#fefefe"/><g transform="scale(6.557)"><g transform="translate(4,4)"><path fill-rule="evenodd" d="M11 0L11 1L8 1L8 2L9 2L9 3L8 3L8 4L9 4L9 3L11 3L11 4L10 4L10 5L8 5L8 7L9 7L9 8L6 8L6 9L7 9L7 10L6 10L6 11L7 11L7 12L4 12L4 11L3 11L3 13L2 13L2 14L1 14L1 13L0 13L0 16L1 16L1 17L2 17L2 14L3 14L3 13L4 13L4 14L6 14L6 15L5 15L5 16L4 16L4 15L3 15L3 20L0 20L0 21L2 21L2 25L1 25L1 26L0 26L0 27L1 27L1 26L3 26L3 28L2 28L2 30L3 30L3 32L4 32L4 33L3 33L3 34L5 34L5 35L3 35L3 36L0 36L0 37L2 37L2 38L5 38L5 39L4 39L4 40L5 40L5 41L4 41L4 42L3 42L3 39L1 39L1 38L0 38L0 39L1 39L1 40L0 40L0 43L1 43L1 44L3 44L3 45L4 45L4 44L3 44L3 43L7 43L7 44L6 44L6 45L7 45L7 44L8 44L8 42L9 42L9 41L11 41L11 42L10 42L10 44L11 44L11 47L10 47L10 45L8 45L8 47L10 47L10 48L11 48L11 49L9 49L9 48L8 48L8 53L12 53L12 52L14 52L14 51L13 51L13 50L11 50L11 49L14 49L14 50L16 50L16 49L17 49L17 48L18 48L18 49L19 49L19 50L20 50L20 51L18 51L18 50L17 50L17 51L16 51L16 52L15 52L15 53L17 53L17 51L18 51L18 53L22 53L22 52L23 52L23 53L25 53L25 52L26 52L26 53L28 53L28 52L29 52L29 53L31 53L31 51L30 51L30 52L29 52L29 50L32 50L32 48L33 48L33 49L34 49L34 47L35 47L35 46L36 46L36 47L37 47L37 46L38 46L38 47L40 47L40 48L42 48L42 49L41 49L41 50L43 50L43 51L42 51L42 53L49 53L49 50L52 50L52 51L51 51L51 52L50 52L50 53L51 53L51 52L52 52L52 51L53 51L53 49L52 49L52 47L51 47L51 48L50 48L50 46L53 46L53 45L52 45L52 44L53 44L53 43L51 43L51 42L50 42L50 43L51 43L51 44L50 44L50 45L49 45L49 43L48 43L48 44L45 44L45 43L44 43L44 50L43 50L43 47L42 47L42 46L43 46L43 43L42 43L42 44L41 44L41 43L40 43L40 41L39 41L39 40L41 40L41 39L42 39L42 40L44 40L44 41L45 41L45 42L46 42L46 41L45 41L45 40L47 40L47 42L49 42L49 41L48 41L48 40L50 40L50 41L51 41L51 40L50 40L50 38L49 38L49 37L48 37L48 36L49 36L49 34L51 34L51 35L52 35L52 36L50 36L50 37L51 37L51 39L52 39L52 38L53 38L53 35L52 35L52 34L53 34L53 33L52 33L52 32L53 32L53 31L52 31L52 30L53 30L53 29L52 29L52 28L53 28L53 27L51 27L51 28L50 28L50 27L49 27L49 26L53 26L53 23L52 23L52 22L53 22L53 21L51 21L51 20L53 20L53 19L51 19L51 20L50 20L50 17L52 17L52 18L53 18L53 17L52 17L52 16L53 16L53 15L51 15L51 16L50 16L50 15L48 15L48 16L47 16L47 17L49 17L49 18L48 18L48 19L47 19L47 18L46 18L46 19L47 19L47 22L44 22L44 21L45 21L45 20L43 20L43 19L42 19L42 20L43 20L43 21L42 21L42 22L41 22L41 21L40 21L40 20L41 20L41 19L40 19L40 20L38 20L38 21L37 21L37 20L36 20L36 19L37 19L37 18L36 18L36 19L35 19L35 18L34 18L34 16L35 16L35 17L37 17L37 16L38 16L38 15L39 15L39 16L41 16L41 17L42 17L42 18L44 18L44 19L45 19L45 18L44 18L44 17L46 17L46 16L44 16L44 13L45 13L45 12L44 12L44 11L42 11L42 10L44 10L44 9L46 9L46 8L45 8L45 6L44 6L44 7L43 7L43 3L44 3L44 4L45 4L45 3L44 3L44 1L43 1L43 0L41 0L41 1L42 1L42 2L43 2L43 3L41 3L41 2L39 2L39 1L38 1L38 0L35 0L35 1L33 1L33 0L27 0L27 3L25 3L25 2L26 2L26 1L25 1L25 0L21 0L21 1L20 1L20 2L21 2L21 1L24 1L24 3L23 3L23 2L22 2L22 3L18 3L18 4L17 4L17 3L16 3L16 2L19 2L19 1L18 1L18 0L17 0L17 1L15 1L15 0ZM11 1L11 2L12 2L12 3L14 3L14 4L15 4L15 7L14 7L14 6L13 6L13 4L11 4L11 5L12 5L12 6L11 6L11 7L10 7L10 6L9 6L9 7L10 7L10 9L8 9L8 11L9 11L9 10L10 10L10 9L11 9L11 13L10 13L10 12L8 12L8 13L6 13L6 14L9 14L9 15L8 15L8 16L7 16L7 15L6 15L6 16L7 16L7 17L6 17L6 18L7 18L7 19L6 19L6 20L5 20L5 21L4 21L4 20L3 20L3 21L4 21L4 22L7 22L7 21L6 21L6 20L7 20L7 19L8 19L8 18L7 18L7 17L8 17L8 16L9 16L9 18L10 18L10 17L12 17L12 15L13 15L13 16L14 16L14 15L13 15L13 14L12 14L12 15L11 15L11 16L9 16L9 15L10 15L10 14L11 14L11 13L13 13L13 12L14 12L14 14L15 14L15 17L13 17L13 18L11 18L11 19L9 19L9 20L11 20L11 19L13 19L13 18L15 18L15 17L16 17L16 20L17 20L17 21L15 21L15 20L14 20L14 21L15 21L15 22L12 22L12 21L13 21L13 20L12 20L12 21L11 21L11 23L10 23L10 25L9 25L9 26L10 26L10 27L9 27L9 28L10 28L10 29L9 29L9 31L8 31L8 29L6 29L6 30L7 30L7 31L6 31L6 32L8 32L8 34L7 34L7 33L5 33L5 34L7 34L7 35L5 35L5 38L7 38L7 37L8 37L8 38L9 38L9 36L13 36L13 35L14 35L14 37L15 37L15 38L13 38L13 37L10 37L10 40L11 40L11 41L12 41L12 42L11 42L11 44L13 44L13 46L12 46L12 48L14 48L14 49L16 49L16 48L17 48L17 47L16 47L16 48L15 48L15 46L20 46L20 47L19 47L19 48L20 48L20 50L21 50L21 49L23 49L23 50L22 50L22 51L21 51L21 52L22 52L22 51L23 51L23 52L24 52L24 50L25 50L25 51L26 51L26 50L27 50L27 51L28 51L28 50L27 50L27 49L24 49L24 47L23 47L23 48L22 48L22 45L23 45L23 46L24 46L24 45L23 45L23 44L24 44L24 43L26 43L26 44L29 44L29 46L30 46L30 47L33 47L33 46L35 46L35 43L34 43L34 42L35 42L35 41L33 41L33 40L32 40L32 37L33 37L33 39L34 39L34 40L37 40L37 41L38 41L38 42L36 42L36 44L37 44L37 43L38 43L38 44L40 44L40 47L41 47L41 46L42 46L42 45L41 45L41 44L40 44L40 43L38 43L38 42L39 42L39 41L38 41L38 40L39 40L39 39L38 39L38 38L39 38L39 36L40 36L40 39L41 39L41 38L42 38L42 39L47 39L47 40L48 40L48 39L49 39L49 38L48 38L48 37L44 37L44 36L42 36L42 35L43 35L43 34L44 34L44 32L43 32L43 31L47 31L47 33L50 33L50 32L51 32L51 31L50 31L50 30L48 30L48 29L47 29L47 30L44 30L44 29L43 29L43 28L44 28L44 27L43 27L43 26L42 26L42 25L43 25L43 24L42 24L42 23L43 23L43 22L42 22L42 23L41 23L41 24L40 24L40 22L39 22L39 21L38 21L38 22L39 22L39 23L36 23L36 22L35 22L35 21L34 21L34 19L33 19L33 20L31 20L31 22L30 22L30 19L31 19L31 18L32 18L32 17L33 17L33 16L34 16L34 15L35 15L35 16L37 16L37 15L38 15L38 14L39 14L39 12L40 12L40 15L41 15L41 16L42 16L42 17L43 17L43 16L42 16L42 15L43 15L43 14L42 14L42 12L40 12L40 10L41 10L41 8L43 8L43 9L44 9L44 8L43 8L43 7L42 7L42 6L41 6L41 3L40 3L40 6L39 6L39 7L40 7L40 6L41 6L41 8L39 8L39 9L38 9L38 8L37 8L37 7L38 7L38 5L39 5L39 4L38 4L38 3L39 3L39 2L38 2L38 1L35 1L35 3L37 3L37 5L35 5L35 4L34 4L34 2L33 2L33 3L31 3L31 5L30 5L30 4L29 4L29 9L31 9L31 10L28 10L28 9L25 9L25 10L24 10L24 8L23 8L23 7L24 7L24 4L25 4L25 3L24 3L24 4L23 4L23 3L22 3L22 4L18 4L18 5L17 5L17 4L15 4L15 3L14 3L14 2L12 2L12 1ZM28 1L28 2L29 2L29 1ZM30 1L30 2L31 2L31 1ZM22 4L22 5L19 5L19 6L18 6L18 7L19 7L19 8L18 8L18 9L19 9L19 8L20 8L20 9L21 9L21 6L22 6L22 7L23 7L23 4ZM32 4L32 5L33 5L33 6L32 6L32 7L31 7L31 6L30 6L30 8L31 8L31 9L32 9L32 7L33 7L33 8L34 8L34 7L35 7L35 5L33 5L33 4ZM25 5L25 8L28 8L28 5ZM12 6L12 8L11 8L11 9L12 9L12 8L14 8L14 7L13 7L13 6ZM16 6L16 7L17 7L17 6ZM19 6L19 7L20 7L20 6ZM26 6L26 7L27 7L27 6ZM33 6L33 7L34 7L34 6ZM36 6L36 7L37 7L37 6ZM0 8L0 12L1 12L1 10L3 10L3 9L4 9L4 10L5 10L5 8ZM15 8L15 10L16 10L16 9L17 9L17 8ZM35 8L35 10L33 10L33 11L32 11L32 10L31 10L31 12L30 12L30 11L28 11L28 10L26 10L26 11L24 11L24 10L23 10L23 9L22 9L22 10L23 10L23 12L24 12L24 13L25 13L25 12L26 12L26 11L27 11L27 13L28 13L28 14L27 14L27 16L25 16L25 15L24 15L24 14L23 14L23 13L22 13L22 11L21 11L21 13L22 13L22 14L21 14L21 16L20 16L20 10L19 10L19 11L17 11L17 12L16 12L16 11L15 11L15 13L17 13L17 14L18 14L18 15L19 15L19 16L18 16L18 17L17 17L17 15L16 15L16 17L17 17L17 18L18 18L18 19L19 19L19 20L18 20L18 21L17 21L17 22L18 22L18 23L20 23L20 22L18 22L18 21L22 21L22 22L21 22L21 23L22 23L22 22L23 22L23 25L22 25L22 26L23 26L23 27L22 27L22 28L19 28L19 27L20 27L20 25L21 25L21 24L18 24L18 25L17 25L17 23L15 23L15 24L16 24L16 25L15 25L15 26L16 26L16 25L17 25L17 26L18 26L18 27L16 27L16 29L17 29L17 30L18 30L18 33L17 33L17 32L16 32L16 31L15 31L15 29L14 29L14 28L13 28L13 27L14 27L14 25L13 25L13 24L14 24L14 23L13 23L13 24L12 24L12 25L13 25L13 27L12 27L12 28L13 28L13 30L11 30L11 31L10 31L10 32L9 32L9 34L8 34L8 36L9 36L9 34L10 34L10 35L11 35L11 34L12 34L12 35L13 35L13 33L15 33L15 34L14 34L14 35L15 35L15 34L16 34L16 35L18 35L18 37L22 37L22 38L18 38L18 39L23 39L23 38L24 38L24 39L25 39L25 38L28 38L28 39L26 39L26 40L23 40L23 41L21 41L21 40L20 40L20 41L19 41L19 40L18 40L18 41L17 41L17 40L16 40L16 38L15 38L15 40L16 40L16 41L15 41L15 44L16 44L16 45L17 45L17 44L16 44L16 41L17 41L17 42L18 42L18 43L19 43L19 44L18 44L18 45L22 45L22 44L21 44L21 42L23 42L23 41L26 41L26 40L27 40L27 42L26 42L26 43L29 43L29 42L32 42L32 43L30 43L30 46L31 46L31 44L33 44L33 45L32 45L32 46L33 46L33 45L34 45L34 44L33 44L33 42L32 42L32 40L31 40L31 39L30 39L30 38L31 38L31 36L30 36L30 34L31 34L31 35L32 35L32 36L34 36L34 35L35 35L35 37L36 37L36 38L34 38L34 39L37 39L37 38L38 38L38 35L40 35L40 36L41 36L41 35L40 35L40 34L38 34L38 35L37 35L37 36L36 36L36 34L37 34L37 32L35 32L35 30L33 30L33 29L34 29L34 28L33 28L33 27L39 27L39 28L38 28L38 29L37 29L37 28L35 28L35 29L37 29L37 30L36 30L36 31L37 31L37 30L38 30L38 33L39 33L39 31L40 31L40 32L42 32L42 34L43 34L43 32L42 32L42 31L40 31L40 28L41 28L41 27L40 27L40 26L41 26L41 25L39 25L39 24L38 24L38 25L39 25L39 26L37 26L37 24L36 24L36 23L35 23L35 22L33 22L33 21L32 21L32 22L33 22L33 23L32 23L32 24L31 24L31 23L30 23L30 22L29 22L29 21L26 21L26 23L28 23L28 22L29 22L29 24L25 24L25 20L26 20L26 18L27 18L27 19L28 19L28 20L29 20L29 19L28 19L28 18L31 18L31 17L32 17L32 16L33 16L33 15L30 15L30 14L31 14L31 12L33 12L33 13L36 13L36 14L35 14L35 15L37 15L37 12L39 12L39 10L38 10L38 9L37 9L37 8ZM47 8L47 10L45 10L45 11L46 11L46 12L47 12L47 14L45 14L45 15L47 15L47 14L53 14L53 13L51 13L51 12L50 12L50 11L51 11L51 10L53 10L53 9L52 9L52 8L51 8L51 10L50 10L50 8L49 8L49 9L48 9L48 8ZM36 9L36 10L35 10L35 12L37 12L37 11L36 11L36 10L37 10L37 9ZM13 10L13 11L12 11L12 12L13 12L13 11L14 11L14 10ZM47 10L47 12L49 12L49 11L50 11L50 10L49 10L49 11L48 11L48 10ZM33 11L33 12L34 12L34 11ZM17 12L17 13L18 13L18 14L19 14L19 13L18 13L18 12ZM43 12L43 13L44 13L44 12ZM29 13L29 14L28 14L28 15L29 15L29 14L30 14L30 13ZM22 14L22 15L23 15L23 16L21 16L21 17L20 17L20 16L19 16L19 17L18 17L18 18L19 18L19 19L20 19L20 20L21 20L21 17L23 17L23 16L24 16L24 19L25 19L25 16L24 16L24 15L23 15L23 14ZM28 16L28 17L27 17L27 18L28 18L28 17L29 17L29 16ZM49 16L49 17L50 17L50 16ZM4 17L4 18L5 18L5 17ZM19 17L19 18L20 18L20 17ZM39 17L39 18L38 18L38 19L39 19L39 18L40 18L40 17ZM22 19L22 21L23 21L23 19ZM48 19L48 20L49 20L49 21L50 21L50 20L49 20L49 19ZM8 21L8 24L9 24L9 22L10 22L10 21ZM47 22L47 23L46 23L46 24L49 24L49 25L50 25L50 24L51 24L51 22L49 22L49 23L48 23L48 22ZM3 23L3 26L4 26L4 24L7 24L7 23ZM34 23L34 24L35 24L35 23ZM49 23L49 24L50 24L50 23ZM29 24L29 25L31 25L31 24ZM32 24L32 27L33 27L33 24ZM5 25L5 28L8 28L8 25ZM10 25L10 26L11 26L11 25ZM18 25L18 26L19 26L19 25ZM25 25L25 28L28 28L28 25ZM34 25L34 26L35 26L35 25ZM45 25L45 28L48 28L48 25ZM6 26L6 27L7 27L7 26ZM26 26L26 27L27 27L27 26ZM29 26L29 27L31 27L31 26ZM46 26L46 27L47 27L47 26ZM10 27L10 28L11 28L11 27ZM23 27L23 28L22 28L22 29L18 29L18 28L17 28L17 29L18 29L18 30L21 30L21 31L20 31L20 32L19 32L19 33L18 33L18 34L19 34L19 35L20 35L20 36L22 36L22 37L23 37L23 35L24 35L24 36L25 36L25 37L28 37L28 38L30 38L30 37L28 37L28 36L29 36L29 35L27 35L27 33L28 33L28 34L29 34L29 31L31 31L31 32L32 32L32 34L33 34L33 32L34 32L34 34L35 34L35 32L34 32L34 31L33 31L33 30L32 30L32 29L33 29L33 28L29 28L29 29L27 29L27 31L28 31L28 32L26 32L26 34L25 34L25 33L24 33L24 32L23 32L23 31L24 31L24 30L25 30L25 29L24 29L24 27ZM3 28L3 29L4 29L4 28ZM49 28L49 29L50 29L50 28ZM0 29L0 31L1 31L1 29ZM22 29L22 30L24 30L24 29ZM30 29L30 30L31 30L31 29ZM38 29L38 30L39 30L39 29ZM42 29L42 30L43 30L43 29ZM51 29L51 30L52 30L52 29ZM28 30L28 31L29 31L29 30ZM11 31L11 33L12 33L12 32L14 32L14 31ZM21 31L21 32L20 32L20 33L19 33L19 34L20 34L20 33L21 33L21 35L23 35L23 33L21 33L21 32L22 32L22 31ZM32 31L32 32L33 32L33 31ZM49 31L49 32L50 32L50 31ZM1 32L1 33L0 33L0 35L1 35L1 33L2 33L2 32ZM45 32L45 33L46 33L46 32ZM16 33L16 34L17 34L17 33ZM24 34L24 35L25 35L25 34ZM45 34L45 36L46 36L46 35L47 35L47 36L48 36L48 34ZM26 35L26 36L27 36L27 35ZM6 36L6 37L7 37L7 36ZM15 36L15 37L17 37L17 36ZM42 37L42 38L44 38L44 37ZM12 38L12 39L13 39L13 40L12 40L12 41L13 41L13 42L14 42L14 41L13 41L13 40L14 40L14 39L13 39L13 38ZM5 39L5 40L7 40L7 41L6 41L6 42L7 42L7 41L8 41L8 40L9 40L9 39L8 39L8 40L7 40L7 39ZM28 39L28 42L29 42L29 41L31 41L31 40L30 40L30 39ZM1 41L1 42L2 42L2 43L3 43L3 42L2 42L2 41ZM18 41L18 42L19 42L19 41ZM20 41L20 42L21 42L21 41ZM41 41L41 42L43 42L43 41ZM52 41L52 42L53 42L53 41ZM14 45L14 46L15 46L15 45ZM25 45L25 48L28 48L28 45ZM36 45L36 46L37 46L37 45ZM38 45L38 46L39 46L39 45ZM45 45L45 48L48 48L48 45ZM26 46L26 47L27 47L27 46ZM46 46L46 47L47 47L47 46ZM20 47L20 48L21 48L21 47ZM35 48L35 50L33 50L33 51L32 51L32 52L33 52L33 51L35 51L35 53L38 53L38 52L39 52L39 53L40 53L40 52L41 52L41 51L40 51L40 52L39 52L39 50L38 50L38 49L39 49L39 48ZM49 48L49 49L46 49L46 50L44 50L44 51L46 51L46 52L47 52L47 51L48 51L48 50L49 50L49 49L50 49L50 48ZM36 49L36 52L38 52L38 50L37 50L37 49ZM9 50L9 51L10 51L10 52L11 52L11 50ZM0 0L0 7L7 7L7 0ZM1 1L1 6L6 6L6 1ZM2 2L2 5L5 5L5 2ZM46 0L46 7L53 7L53 0ZM47 1L47 6L52 6L52 1ZM48 2L48 5L51 5L51 2ZM0 46L0 53L7 53L7 46ZM1 47L1 52L6 52L6 47ZM2 48L2 51L5 51L5 48Z" fill="#000000"/></g></g></svg>
