<?xml version="1.0" encoding="UTF-8"?>
<svg xmlns="http://www.w3.org/2000/svg" version="1.1" width="400" height="400" viewBox="0 0 400 400"><rect x="0" y="0" width="400" height="400" fill="#fefefe"/><g transform="scale(6.557)"><g transform="translate(4,4)"><path fill-rule="evenodd" d="M12 0L12 1L10 1L10 2L11 2L11 3L8 3L8 4L9 4L9 5L8 5L8 7L9 7L9 8L6 8L6 9L8 9L8 10L5 10L5 8L0 8L0 9L3 9L3 11L5 11L5 12L4 12L4 13L8 13L8 14L6 14L6 15L5 15L5 14L4 14L4 16L2 16L2 17L1 17L1 16L0 16L0 17L1 17L1 19L2 19L2 20L1 20L1 21L0 21L0 22L2 22L2 21L3 21L3 22L5 22L5 23L4 23L4 25L3 25L3 23L2 23L2 24L1 24L1 25L0 25L0 30L1 30L1 31L0 31L0 33L2 33L2 32L1 32L1 31L2 31L2 30L3 30L3 32L5 32L5 31L7 31L7 30L5 30L5 29L8 29L8 30L10 30L10 31L8 31L8 32L6 32L6 33L7 33L7 34L6 34L6 35L5 35L5 34L4 34L4 33L3 33L3 34L4 34L4 35L1 35L1 34L0 34L0 36L3 36L3 38L2 38L2 37L1 37L1 38L0 38L0 40L1 40L1 41L0 41L0 43L1 43L1 44L3 44L3 45L4 45L4 44L3 44L3 43L7 43L7 42L5 42L5 41L2 41L2 40L6 40L6 41L7 41L7 40L8 40L8 41L9 41L9 40L11 40L11 41L10 41L10 42L9 42L9 43L8 43L8 44L6 44L6 45L8 45L8 47L9 47L9 45L10 45L10 48L8 48L8 53L9 53L9 52L10 52L10 53L12 53L12 52L13 52L13 53L14 53L14 51L16 51L16 52L15 52L15 53L19 53L19 52L20 52L20 53L22 53L22 52L23 52L23 53L26 53L26 52L29 52L29 51L28 51L28 50L32 50L32 51L30 51L30 52L33 52L33 53L34 53L34 51L36 51L36 50L38 50L38 51L37 51L37 52L35 52L35 53L37 53L37 52L38 52L38 51L39 51L39 52L41 52L41 53L42 53L42 52L43 52L43 51L42 51L42 50L45 50L45 49L46 49L46 50L47 50L47 49L49 49L49 50L48 50L48 51L47 51L47 52L46 52L46 51L45 51L45 53L51 53L51 52L52 52L52 51L53 51L53 50L52 50L52 51L51 51L51 49L52 49L52 47L51 47L51 48L50 48L50 46L53 46L53 45L51 45L51 44L53 44L53 43L51 43L51 44L50 44L50 42L51 42L51 41L52 41L52 42L53 42L53 41L52 41L52 40L50 40L50 38L49 38L49 37L48 37L48 35L46 35L46 34L45 34L45 35L42 35L42 36L45 36L45 37L46 37L46 36L47 36L47 37L48 37L48 38L49 38L49 39L48 39L48 40L50 40L50 41L47 41L47 43L46 43L46 40L47 40L47 39L45 39L45 38L44 38L44 37L40 37L40 38L38 38L38 37L37 37L37 36L38 36L38 35L40 35L40 36L41 36L41 35L40 35L40 34L43 34L43 33L39 33L39 32L38 32L38 33L37 33L37 32L36 32L36 31L35 31L35 30L34 30L34 27L35 27L35 26L34 26L34 24L35 24L35 25L37 25L37 24L35 24L35 22L34 22L34 21L31 21L31 20L33 20L33 19L34 19L34 20L36 20L36 21L37 21L37 22L36 22L36 23L38 23L38 25L39 25L39 26L38 26L38 27L37 27L37 26L36 26L36 27L37 27L37 28L36 28L36 29L37 29L37 30L38 30L38 31L39 31L39 30L40 30L40 29L39 29L39 26L40 26L40 25L39 25L39 24L42 24L42 26L43 26L43 27L42 27L42 28L43 28L43 29L41 29L41 31L40 31L40 32L41 32L41 31L42 31L42 32L44 32L44 30L47 30L47 29L48 29L48 30L50 30L50 31L49 31L49 32L50 32L50 33L51 33L51 35L52 35L52 36L50 36L50 34L49 34L49 33L48 33L48 32L47 32L47 31L45 31L45 33L46 33L46 32L47 32L47 34L49 34L49 36L50 36L50 37L52 37L52 38L53 38L53 35L52 35L52 34L53 34L53 32L50 32L50 31L51 31L51 30L53 30L53 29L52 29L52 28L53 28L53 27L51 27L51 26L53 26L53 24L52 24L52 25L51 25L51 24L50 24L50 23L49 23L49 22L53 22L53 21L50 21L50 19L49 19L49 18L50 18L50 17L51 17L51 16L50 16L50 15L49 15L49 14L53 14L53 13L51 13L51 12L50 12L50 11L51 11L51 10L53 10L53 9L52 9L52 8L51 8L51 9L50 9L50 8L49 8L49 9L48 9L48 8L47 8L47 10L46 10L46 11L45 11L45 10L44 10L44 9L46 9L46 8L44 8L44 9L43 9L43 3L44 3L44 4L45 4L45 3L44 3L44 1L43 1L43 0L42 0L42 2L43 2L43 3L42 3L42 4L41 4L41 5L42 5L42 7L41 7L41 6L40 6L40 7L39 7L39 5L40 5L40 4L39 4L39 5L38 5L38 3L41 3L41 0L39 0L39 1L38 1L38 0L35 0L35 1L33 1L33 0L32 0L32 1L33 1L33 2L27 2L27 1L28 1L28 0L27 0L27 1L26 1L26 2L25 2L25 0L24 0L24 1L23 1L23 0L21 0L21 3L20 3L20 2L19 2L19 1L17 1L17 0L16 0L16 1L13 1L13 0ZM29 0L29 1L31 1L31 0ZM8 1L8 2L9 2L9 1ZM35 1L35 2L34 2L34 3L35 3L35 4L34 4L34 5L33 5L33 3L28 3L28 4L29 4L29 5L30 5L30 6L29 6L29 7L30 7L30 6L31 6L31 7L32 7L32 6L33 6L33 8L32 8L32 9L33 9L33 8L34 8L34 10L35 10L35 11L33 11L33 12L31 12L31 10L28 10L28 9L27 9L27 10L26 10L26 12L25 12L25 14L24 14L24 15L23 15L23 16L22 16L22 17L25 17L25 16L24 16L24 15L25 15L25 14L26 14L26 16L27 16L27 12L29 12L29 14L28 14L28 15L29 15L29 14L30 14L30 15L32 15L32 17L31 17L31 16L29 16L29 17L31 17L31 18L27 18L27 19L26 19L26 22L24 22L24 21L23 21L23 18L22 18L22 19L21 19L21 17L19 17L19 18L20 18L20 19L21 19L21 20L22 20L22 21L20 21L20 23L19 23L19 22L18 22L18 23L16 23L16 24L15 24L15 22L17 22L17 21L15 21L15 20L16 20L16 19L15 19L15 18L16 18L16 17L17 17L17 18L18 18L18 16L17 16L17 15L15 15L15 16L16 16L16 17L13 17L13 16L14 16L14 15L13 15L13 14L14 14L14 13L15 13L15 14L17 14L17 13L16 13L16 12L19 12L19 13L18 13L18 15L19 15L19 16L20 16L20 15L21 15L21 14L22 14L22 13L24 13L24 12L23 12L23 11L25 11L25 9L24 9L24 4L26 4L26 3L27 3L27 2L26 2L26 3L24 3L24 4L23 4L23 2L22 2L22 4L20 4L20 3L19 3L19 4L15 4L15 3L16 3L16 2L12 2L12 4L10 4L10 6L9 6L9 7L10 7L10 6L11 6L11 7L12 7L12 9L11 9L11 8L9 8L9 10L8 10L8 11L6 11L6 12L8 12L8 13L9 13L9 14L8 14L8 15L6 15L6 16L4 16L4 17L2 17L2 19L4 19L4 20L3 20L3 21L4 21L4 20L5 20L5 21L6 21L6 22L7 22L7 23L6 23L6 24L8 24L8 22L10 22L10 23L9 23L9 24L11 24L11 22L10 22L10 21L13 21L13 23L14 23L14 24L12 24L12 28L11 28L11 27L9 27L9 28L11 28L11 31L10 31L10 33L9 33L9 32L8 32L8 33L9 33L9 34L10 34L10 33L11 33L11 32L12 32L12 28L13 28L13 30L14 30L14 29L15 29L15 27L16 27L16 28L17 28L17 26L18 26L18 28L19 28L19 29L18 29L18 30L17 30L17 29L16 29L16 30L17 30L17 31L18 31L18 30L19 30L19 32L21 32L21 30L22 30L22 31L23 31L23 32L22 32L22 33L19 33L19 36L22 36L22 37L20 37L20 38L19 38L19 37L18 37L18 39L16 39L16 40L15 40L15 38L12 38L12 36L14 36L14 37L16 37L16 38L17 38L17 37L16 37L16 35L15 35L15 34L16 34L16 33L18 33L18 32L16 32L16 33L13 33L13 34L12 34L12 36L10 36L10 35L8 35L8 36L9 36L9 37L6 37L6 36L7 36L7 35L6 35L6 36L5 36L5 37L4 37L4 38L3 38L3 39L4 39L4 38L5 38L5 39L6 39L6 40L7 40L7 39L6 39L6 38L9 38L9 37L11 37L11 38L10 38L10 39L12 39L12 41L11 41L11 42L10 42L10 43L9 43L9 44L10 44L10 45L11 45L11 47L14 47L14 48L13 48L13 49L12 49L12 48L11 48L11 49L12 49L12 50L13 50L13 51L14 51L14 50L13 50L13 49L14 49L14 48L16 48L16 49L15 49L15 50L16 50L16 49L18 49L18 48L17 48L17 47L18 47L18 46L19 46L19 47L21 47L21 45L20 45L20 44L19 44L19 45L18 45L18 46L17 46L17 45L16 45L16 46L14 46L14 45L15 45L15 43L16 43L16 44L17 44L17 43L19 43L19 42L20 42L20 43L21 43L21 42L22 42L22 45L23 45L23 43L24 43L24 44L25 44L25 43L24 43L24 42L29 42L29 43L27 43L27 44L29 44L29 47L30 47L30 48L29 48L29 49L31 49L31 48L32 48L32 50L33 50L33 51L34 51L34 50L35 50L35 48L37 48L37 47L34 47L34 46L35 46L35 45L36 45L36 44L38 44L38 46L41 46L41 47L43 47L43 49L44 49L44 43L45 43L45 44L46 44L46 43L45 43L45 39L44 39L44 40L43 40L43 42L41 42L41 41L42 41L42 40L40 40L40 39L43 39L43 38L40 38L40 39L38 39L38 38L37 38L37 37L36 37L36 36L37 36L37 35L38 35L38 34L39 34L39 33L38 33L38 34L37 34L37 35L36 35L36 36L35 36L35 35L34 35L34 34L35 34L35 33L33 33L33 32L32 32L32 31L34 31L34 32L35 32L35 31L34 31L34 30L33 30L33 28L30 28L30 29L28 29L28 30L26 30L26 29L24 29L24 27L23 27L23 26L24 26L24 23L26 23L26 24L27 24L27 22L28 22L28 23L29 23L29 22L30 22L30 23L33 23L33 24L32 24L32 25L31 25L31 26L30 26L30 27L31 27L31 26L32 26L32 25L33 25L33 24L34 24L34 22L30 22L30 21L29 21L29 20L30 20L30 19L31 19L31 18L32 18L32 19L33 19L33 15L32 15L32 13L34 13L34 14L35 14L35 15L34 15L34 16L37 16L37 17L36 17L36 18L35 18L35 17L34 17L34 18L35 18L35 19L36 19L36 20L37 20L37 21L38 21L38 23L39 23L39 21L41 21L41 22L40 22L40 23L42 23L42 24L43 24L43 23L44 23L44 22L45 22L45 23L46 23L46 24L49 24L49 25L50 25L50 24L49 24L49 23L46 23L46 22L48 22L48 20L49 20L49 19L48 19L48 18L49 18L49 17L50 17L50 16L49 16L49 17L44 17L44 16L48 16L48 14L49 14L49 13L48 13L48 12L49 12L49 11L50 11L50 10L49 10L49 11L48 11L48 10L47 10L47 11L48 11L48 12L47 12L47 13L46 13L46 14L47 14L47 15L45 15L45 13L43 13L43 12L45 12L45 11L43 11L43 10L42 10L42 9L41 9L41 8L39 8L39 7L38 7L38 5L37 5L37 7L36 7L36 3L38 3L38 2L36 2L36 1ZM39 1L39 2L40 2L40 1ZM35 2L35 3L36 3L36 2ZM13 3L13 4L14 4L14 5L15 5L15 4L14 4L14 3ZM19 4L19 5L18 5L18 7L19 7L19 8L17 8L17 11L18 11L18 9L22 9L22 10L21 10L21 11L22 11L22 10L23 10L23 9L22 9L22 8L23 8L23 6L22 6L22 5L23 5L23 4L22 4L22 5L21 5L21 6L20 6L20 4ZM30 4L30 5L32 5L32 4ZM11 5L11 6L12 6L12 7L13 7L13 8L14 8L14 7L15 7L15 6L14 6L14 7L13 7L13 5ZM25 5L25 8L28 8L28 5ZM34 5L34 8L35 8L35 10L37 10L37 8L38 8L38 7L37 7L37 8L35 8L35 5ZM16 6L16 7L17 7L17 6ZM19 6L19 7L20 7L20 6ZM21 6L21 7L22 7L22 6ZM26 6L26 7L27 7L27 6ZM44 6L44 7L45 7L45 6ZM10 9L10 11L9 11L9 12L10 12L10 13L11 13L11 14L12 14L12 12L13 12L13 11L15 11L15 12L16 12L16 11L15 11L15 10L16 10L16 9L15 9L15 10L14 10L14 9L12 9L12 12L11 12L11 9ZM38 10L38 11L37 11L37 12L36 12L36 11L35 11L35 12L36 12L36 13L37 13L37 14L36 14L36 15L37 15L37 14L38 14L38 15L39 15L39 16L38 16L38 17L39 17L39 16L41 16L41 15L40 15L40 14L38 14L38 13L39 13L39 10ZM0 11L0 15L3 15L3 14L2 14L2 13L3 13L3 12L2 12L2 13L1 13L1 11ZM40 11L40 12L41 12L41 11ZM42 11L42 12L43 12L43 11ZM20 12L20 13L19 13L19 15L20 15L20 13L22 13L22 12ZM30 13L30 14L31 14L31 13ZM42 13L42 14L43 14L43 13ZM11 15L11 16L10 16L10 17L11 17L11 18L12 18L12 19L13 19L13 17L11 17L11 16L13 16L13 15ZM42 15L42 16L43 16L43 15ZM6 16L6 17L5 17L5 18L4 18L4 19L5 19L5 20L6 20L6 21L7 21L7 22L8 22L8 20L9 20L9 21L10 21L10 19L9 19L9 17L8 17L8 16ZM6 17L6 18L5 18L5 19L6 19L6 20L7 20L7 19L8 19L8 17ZM42 17L42 18L43 18L43 19L44 19L44 20L42 20L42 19L41 19L41 18L40 18L40 19L39 19L39 18L36 18L36 19L37 19L37 20L38 20L38 21L39 21L39 20L42 20L42 22L43 22L43 21L45 21L45 22L46 22L46 21L47 21L47 20L46 20L46 19L47 19L47 18L46 18L46 19L44 19L44 17ZM52 17L52 18L53 18L53 17ZM6 18L6 19L7 19L7 18ZM24 18L24 19L25 19L25 18ZM14 19L14 20L15 20L15 19ZM17 19L17 20L18 20L18 19ZM27 19L27 21L28 21L28 22L29 22L29 21L28 21L28 19ZM51 19L51 20L53 20L53 19ZM14 21L14 22L15 22L15 21ZM22 21L22 22L21 22L21 24L20 24L20 25L22 25L22 26L19 26L19 25L18 25L18 24L17 24L17 25L18 25L18 26L19 26L19 28L20 28L20 29L19 29L19 30L20 30L20 29L22 29L22 30L24 30L24 31L25 31L25 30L24 30L24 29L22 29L22 26L23 26L23 25L22 25L22 24L23 24L23 23L24 23L24 22L23 22L23 21ZM22 22L22 23L23 23L23 22ZM5 25L5 28L8 28L8 25ZM13 25L13 27L15 27L15 26L16 26L16 25L15 25L15 26L14 26L14 25ZM25 25L25 28L28 28L28 25ZM45 25L45 28L48 28L48 25ZM1 26L1 27L2 27L2 26ZM6 26L6 27L7 27L7 26ZM26 26L26 27L27 27L27 26ZM46 26L46 27L47 27L47 26ZM20 27L20 28L21 28L21 27ZM40 27L40 28L41 28L41 27ZM43 27L43 28L44 28L44 27ZM50 27L50 28L49 28L49 29L50 29L50 28L51 28L51 27ZM1 28L1 29L3 29L3 30L4 30L4 28ZM30 29L30 30L32 30L32 29ZM38 29L38 30L39 30L39 29ZM28 30L28 31L29 31L29 30ZM42 30L42 31L43 31L43 30ZM13 31L13 32L14 32L14 31ZM26 31L26 32L25 32L25 33L22 33L22 34L21 34L21 35L22 35L22 34L25 34L25 33L26 33L26 32L27 32L27 34L26 34L26 35L25 35L25 36L24 36L24 35L23 35L23 36L24 36L24 37L22 37L22 38L20 38L20 39L21 39L21 40L19 40L19 41L18 41L18 40L17 40L17 41L18 41L18 42L19 42L19 41L22 41L22 42L23 42L23 41L26 41L26 40L27 40L27 37L26 37L26 35L27 35L27 36L28 36L28 35L29 35L29 34L31 34L31 35L30 35L30 36L33 36L33 39L32 39L32 40L31 40L31 39L29 39L29 38L28 38L28 39L29 39L29 42L31 42L31 43L32 43L32 44L33 44L33 43L34 43L34 44L35 44L35 43L36 43L36 42L38 42L38 43L40 43L40 44L41 44L41 46L43 46L43 43L40 43L40 42L38 42L38 41L39 41L39 40L35 40L35 42L32 42L32 40L33 40L33 41L34 41L34 39L35 39L35 38L34 38L34 37L35 37L35 36L33 36L33 35L32 35L32 32L31 32L31 31L30 31L30 32L31 32L31 33L28 33L28 32L27 32L27 31ZM14 35L14 36L15 36L15 35ZM17 35L17 36L18 36L18 35ZM45 35L45 36L46 36L46 35ZM5 37L5 38L6 38L6 37ZM24 37L24 38L22 38L22 41L23 41L23 39L24 39L24 40L26 40L26 39L25 39L25 38L26 38L26 37ZM30 37L30 38L31 38L31 37ZM36 38L36 39L37 39L37 38ZM13 39L13 40L14 40L14 39ZM12 41L12 42L11 42L11 43L10 43L10 44L11 44L11 45L12 45L12 43L13 43L13 44L14 44L14 43L15 43L15 42L16 42L16 41L15 41L15 42L14 42L14 41ZM2 42L2 43L3 43L3 42ZM29 43L29 44L30 44L30 46L31 46L31 47L32 47L32 48L34 48L34 47L32 47L32 46L31 46L31 44L30 44L30 43ZM49 44L49 45L50 45L50 44ZM25 45L25 48L28 48L28 45ZM33 45L33 46L34 46L34 45ZM45 45L45 48L48 48L48 45ZM22 46L22 47L24 47L24 46ZM26 46L26 47L27 47L27 46ZM46 46L46 47L47 47L47 46ZM19 48L19 50L20 50L20 52L21 52L21 50L22 50L22 51L23 51L23 52L24 52L24 51L25 51L25 52L26 52L26 50L28 50L28 49L26 49L26 50L25 50L25 49L24 49L24 48L22 48L22 49L20 49L20 48ZM39 48L39 49L38 49L38 50L39 50L39 49L40 49L40 51L41 51L41 48ZM49 48L49 49L50 49L50 48ZM22 49L22 50L23 50L23 51L24 51L24 50L23 50L23 49ZM17 50L17 52L18 52L18 50ZM11 51L11 52L12 52L12 51ZM50 51L50 52L51 52L51 51ZM0 0L0 7L7 7L7 0ZM1 1L1 6L6 6L6 1ZM2 2L2 5L5 5L5 2ZM46 0L46 7L53 7L53 0ZM47 1L47 6L52 6L52 1ZM48 2L48 5L51 5L51 2ZM0 46L0 53L7 53L7 46ZM1 47L1 52L6 52L6 47ZM2 48L2 51L5 51L5 48Z" fill="#000000"/></g></g></svg>
