<?xml version="1.0" encoding="UTF-8"?>
<svg xmlns="http://www.w3.org/2000/svg" version="1.1" width="400" height="400" viewBox="0 0 400 400"><rect x="0" y="0" width="400" height="400" fill="#fefefe"/><g transform="scale(6.557)"><g transform="translate(4,4)"><path fill-rule="evenodd" d="M9 0L9 1L8 1L8 2L9 2L9 3L8 3L8 4L9 4L9 5L8 5L8 7L9 7L9 6L10 6L10 7L11 7L11 6L10 6L10 5L11 5L11 4L9 4L9 3L10 3L10 0ZM11 0L11 2L12 2L12 4L14 4L14 5L12 5L12 8L11 8L11 9L10 9L10 8L6 8L6 9L7 9L7 10L6 10L6 11L7 11L7 12L5 12L5 8L0 8L0 9L1 9L1 10L2 10L2 11L0 11L0 12L1 12L1 13L0 13L0 14L1 14L1 15L0 15L0 19L1 19L1 20L0 20L0 26L1 26L1 28L0 28L0 29L1 29L1 30L0 30L0 31L1 31L1 32L0 32L0 33L1 33L1 35L3 35L3 36L2 36L2 37L0 37L0 41L2 41L2 42L0 42L0 43L1 43L1 44L3 44L3 45L4 45L4 44L3 44L3 43L7 43L7 44L6 44L6 45L7 45L7 44L8 44L8 47L9 47L9 44L8 44L8 43L7 43L7 42L5 42L5 41L8 41L8 40L9 40L9 39L8 39L8 37L9 37L9 38L11 38L11 40L10 40L10 42L9 42L9 43L10 43L10 45L11 45L11 44L14 44L14 45L17 45L17 47L18 47L18 45L19 45L19 44L20 44L20 45L22 45L22 46L20 46L20 47L21 47L21 48L19 48L19 49L18 49L18 48L17 48L17 49L18 49L18 50L19 50L19 49L22 49L22 50L20 50L20 51L22 51L22 52L20 52L20 53L22 53L22 52L23 52L23 53L25 53L25 52L26 52L26 53L28 53L28 52L30 52L30 53L31 53L31 52L33 52L33 51L34 51L34 52L35 52L35 53L38 53L38 52L36 52L36 49L37 49L37 50L38 50L38 51L39 51L39 52L41 52L41 53L43 53L43 51L39 51L39 50L38 50L38 49L39 49L39 48L35 48L35 50L33 50L33 51L31 51L31 52L30 52L30 51L29 51L29 50L32 50L32 48L33 48L33 49L34 49L34 47L37 47L37 46L38 46L38 47L39 47L39 46L38 46L38 45L37 45L37 44L38 44L38 43L39 43L39 44L41 44L41 43L40 43L40 41L39 41L39 40L41 40L41 39L42 39L42 40L44 40L44 39L45 39L45 38L46 38L46 36L47 36L47 37L48 37L48 38L49 38L49 39L48 39L48 40L47 40L47 39L46 39L46 40L45 40L45 41L46 41L46 40L47 40L47 43L46 43L46 42L44 42L44 43L42 43L42 44L44 44L44 45L40 45L40 46L44 46L44 47L40 47L40 48L42 48L42 49L41 49L41 50L45 50L45 51L46 51L46 50L45 50L45 49L49 49L49 50L48 50L48 51L47 51L47 52L45 52L45 53L49 53L49 52L50 52L50 53L51 53L51 52L52 52L52 51L53 51L53 50L52 50L52 51L51 51L51 52L50 52L50 50L51 50L51 49L52 49L52 48L53 48L53 47L51 47L51 48L50 48L50 46L51 46L51 44L50 44L50 42L49 42L49 41L48 41L48 40L50 40L50 41L52 41L52 42L53 42L53 41L52 41L52 39L51 39L51 40L50 40L50 38L49 38L49 37L48 37L48 36L50 36L50 37L51 37L51 38L53 38L53 35L52 35L52 34L53 34L53 33L52 33L52 32L50 32L50 31L51 31L51 29L52 29L52 30L53 30L53 29L52 29L52 28L53 28L53 27L51 27L51 29L50 29L50 27L49 27L49 26L50 26L50 25L51 25L51 26L53 26L53 24L50 24L50 23L49 23L49 24L44 24L44 25L42 25L42 26L43 26L43 27L44 27L44 31L43 31L43 32L42 32L42 31L40 31L40 30L41 30L41 29L40 29L40 30L39 30L39 31L38 31L38 29L39 29L39 27L40 27L40 28L42 28L42 30L43 30L43 28L42 28L42 27L40 27L40 26L41 26L41 25L39 25L39 24L38 24L38 25L39 25L39 26L37 26L37 24L36 24L36 23L35 23L35 22L34 22L34 21L33 21L33 23L32 23L32 24L31 24L31 23L30 23L30 22L31 22L31 21L30 21L30 22L29 22L29 20L28 20L28 19L27 19L27 23L28 23L28 22L29 22L29 24L26 24L26 22L25 22L25 20L26 20L26 18L27 18L27 17L28 17L28 18L31 18L31 20L33 20L33 19L35 19L35 18L34 18L34 16L35 16L35 17L37 17L37 16L38 16L38 15L39 15L39 16L41 16L41 15L40 15L40 14L41 14L41 13L39 13L39 14L38 14L38 12L41 12L41 10L40 10L40 11L39 11L39 10L38 10L38 9L39 9L39 8L41 8L41 9L42 9L42 10L44 10L44 11L42 11L42 14L43 14L43 13L45 13L45 14L44 14L44 15L42 15L42 18L43 18L43 19L42 19L42 20L43 20L43 19L44 19L44 21L45 21L45 23L48 23L48 22L46 22L46 21L49 21L49 22L53 22L53 21L51 21L51 20L53 20L53 19L51 19L51 16L50 16L50 15L49 15L49 14L53 14L53 13L51 13L51 12L50 12L50 8L49 8L49 9L48 9L48 8L47 8L47 9L48 9L48 11L49 11L49 12L48 12L48 14L46 14L46 13L47 13L47 12L46 12L46 11L47 11L47 10L44 10L44 9L46 9L46 8L44 8L44 9L42 9L42 8L43 8L43 3L44 3L44 4L45 4L45 3L44 3L44 1L43 1L43 0L42 0L42 2L43 2L43 3L42 3L42 4L41 4L41 6L40 6L40 5L38 5L38 4L37 4L37 3L38 3L38 2L39 2L39 1L38 1L38 0L35 0L35 1L33 1L33 0L26 0L26 1L25 1L25 0L21 0L21 2L23 2L23 4L22 4L22 3L20 3L20 4L19 4L19 2L18 2L18 0L17 0L17 3L16 3L16 2L15 2L15 3L16 3L16 4L19 4L19 5L15 5L15 4L14 4L14 0L13 0L13 1L12 1L12 0ZM15 0L15 1L16 1L16 0ZM23 1L23 2L24 2L24 1ZM26 1L26 3L27 3L27 1ZM28 1L28 2L29 2L29 5L30 5L30 6L29 6L29 9L31 9L31 10L27 10L27 9L25 9L25 10L24 10L24 11L26 11L26 12L25 12L25 14L24 14L24 13L23 13L23 10L21 10L21 9L18 9L18 8L20 8L20 6L21 6L21 8L22 8L22 9L24 9L24 8L23 8L23 7L24 7L24 4L25 4L25 3L24 3L24 4L23 4L23 5L22 5L22 4L20 4L20 6L19 6L19 7L18 7L18 6L17 6L17 7L16 7L16 6L15 6L15 8L16 8L16 9L11 9L11 11L9 11L9 12L7 12L7 13L5 13L5 14L4 14L4 15L3 15L3 14L2 14L2 13L1 13L1 14L2 14L2 15L3 15L3 16L4 16L4 19L3 19L3 20L4 20L4 22L3 22L3 21L2 21L2 20L1 20L1 21L2 21L2 22L3 22L3 23L2 23L2 26L3 26L3 23L4 23L4 24L8 24L8 22L9 22L9 23L10 23L10 22L9 22L9 21L8 21L8 20L9 20L9 18L10 18L10 17L9 17L9 18L7 18L7 17L8 17L8 16L11 16L11 19L10 19L10 20L11 20L11 21L13 21L13 22L11 22L11 24L10 24L10 28L11 28L11 27L12 27L12 30L13 30L13 31L12 31L12 33L14 33L14 34L15 34L15 35L11 35L11 36L9 36L9 34L8 34L8 33L9 33L9 32L10 32L10 33L11 33L11 32L10 32L10 31L9 31L9 29L8 29L8 31L4 31L4 32L3 32L3 33L2 33L2 32L1 32L1 33L2 33L2 34L3 34L3 33L4 33L4 36L5 36L5 33L4 33L4 32L7 32L7 33L6 33L6 34L8 34L8 36L9 36L9 37L12 37L12 42L14 42L14 43L15 43L15 44L16 44L16 43L15 43L15 42L16 42L16 41L18 41L18 40L17 40L17 39L18 39L18 38L19 38L19 39L21 39L21 38L22 38L22 39L24 39L24 40L26 40L26 41L23 41L23 40L22 40L22 41L20 41L20 40L19 40L19 42L20 42L20 44L21 44L21 42L22 42L22 43L23 43L23 44L22 44L22 45L23 45L23 46L22 46L22 49L24 49L24 51L23 51L23 50L22 50L22 51L23 51L23 52L24 52L24 51L26 51L26 50L27 50L27 51L28 51L28 50L27 50L27 49L26 49L26 50L25 50L25 49L24 49L24 48L23 48L23 46L24 46L24 45L23 45L23 44L24 44L24 43L26 43L26 44L29 44L29 47L33 47L33 44L37 44L37 43L38 43L38 42L39 42L39 41L38 41L38 40L39 40L39 39L38 39L38 38L41 38L41 37L44 37L44 38L42 38L42 39L44 39L44 38L45 38L45 37L44 37L44 36L42 36L42 35L44 35L44 34L45 34L45 31L44 31L44 32L43 32L43 34L42 34L42 32L40 32L40 31L39 31L39 33L38 33L38 31L36 31L36 30L37 30L37 29L38 29L38 28L37 28L37 27L36 27L36 28L34 28L34 27L33 27L33 24L32 24L32 27L33 27L33 28L31 28L31 30L30 30L30 27L31 27L31 26L29 26L29 29L27 29L27 32L26 32L26 35L24 35L24 34L25 34L25 33L23 33L23 32L22 32L22 33L19 33L19 32L21 32L21 31L20 31L20 30L22 30L22 31L24 31L24 32L25 32L25 29L24 29L24 27L23 27L23 26L21 26L21 25L19 25L19 28L22 28L22 29L20 29L20 30L18 30L18 31L16 31L16 32L15 32L15 30L14 30L14 29L16 29L16 30L17 30L17 29L16 29L16 27L15 27L15 26L16 26L16 25L17 25L17 26L18 26L18 24L16 24L16 25L12 25L12 24L14 24L14 23L13 23L13 22L14 22L14 21L15 21L15 19L16 19L16 20L19 20L19 21L18 21L18 23L19 23L19 24L21 24L21 22L22 22L22 21L24 21L24 20L22 20L22 19L25 19L25 18L22 18L22 17L24 17L24 15L26 15L26 16L25 16L25 17L26 17L26 16L27 16L27 15L26 15L26 14L28 14L28 15L29 15L29 14L30 14L30 15L31 15L31 14L32 14L32 15L33 15L33 16L32 16L32 17L31 17L31 18L32 18L32 17L33 17L33 16L34 16L34 14L35 14L35 16L37 16L37 15L38 15L38 14L37 14L37 13L36 13L36 12L38 12L38 11L36 11L36 10L37 10L37 9L38 9L38 8L37 8L37 7L38 7L38 5L37 5L37 4L36 4L36 3L37 3L37 2L38 2L38 1L35 1L35 2L34 2L34 5L33 5L33 7L32 7L32 4L33 4L33 3L31 3L31 5L30 5L30 2L31 2L31 1L30 1L30 2L29 2L29 1ZM35 2L35 3L36 3L36 2ZM40 2L40 3L41 3L41 2ZM25 5L25 8L28 8L28 5ZM34 5L34 7L33 7L33 8L34 8L34 7L35 7L35 5ZM36 5L36 7L37 7L37 5ZM13 6L13 8L14 8L14 6ZM22 6L22 7L23 7L23 6ZM26 6L26 7L27 7L27 6ZM30 6L30 8L31 8L31 9L32 9L32 7L31 7L31 6ZM39 6L39 7L40 7L40 6ZM41 6L41 7L42 7L42 6ZM44 6L44 7L45 7L45 6ZM35 8L35 10L33 10L33 11L32 11L32 10L31 10L31 11L29 11L29 13L28 13L28 11L27 11L27 10L26 10L26 11L27 11L27 13L28 13L28 14L29 14L29 13L30 13L30 14L31 14L31 13L30 13L30 12L33 12L33 14L34 14L34 13L35 13L35 12L36 12L36 11L35 11L35 10L36 10L36 9L37 9L37 8ZM51 8L51 10L53 10L53 9L52 9L52 8ZM2 9L2 10L3 10L3 9ZM9 9L9 10L10 10L10 9ZM16 9L16 10L12 10L12 11L11 11L11 13L12 13L12 14L13 14L13 13L14 13L14 14L15 14L15 16L16 16L16 15L17 15L17 14L15 14L15 13L19 13L19 14L18 14L18 15L20 15L20 13L22 13L22 14L21 14L21 16L20 16L20 17L22 17L22 16L23 16L23 15L24 15L24 14L23 14L23 13L22 13L22 11L20 11L20 10L17 10L17 9ZM2 11L2 12L4 12L4 11ZM13 11L13 12L12 12L12 13L13 13L13 12L14 12L14 13L15 13L15 12L16 12L16 11ZM34 11L34 12L35 12L35 11ZM9 12L9 13L8 13L8 14L5 14L5 15L4 15L4 16L5 16L5 15L9 15L9 14L10 14L10 15L11 15L11 16L12 16L12 17L13 17L13 19L12 19L12 20L13 20L13 19L15 19L15 18L16 18L16 17L15 17L15 18L14 18L14 17L13 17L13 16L14 16L14 15L13 15L13 16L12 16L12 15L11 15L11 14L10 14L10 12ZM49 12L49 13L50 13L50 12ZM22 14L22 15L23 15L23 14ZM36 14L36 15L37 15L37 14ZM45 14L45 16L46 16L46 17L44 17L44 16L43 16L43 17L44 17L44 19L45 19L45 18L47 18L47 19L48 19L48 20L49 20L49 19L50 19L50 20L51 20L51 19L50 19L50 18L49 18L49 17L50 17L50 16L49 16L49 15L48 15L48 16L49 16L49 17L47 17L47 15L46 15L46 14ZM1 16L1 19L2 19L2 18L3 18L3 17L2 17L2 16ZM6 16L6 17L7 17L7 16ZM17 16L17 19L18 19L18 17L19 17L19 16ZM28 16L28 17L29 17L29 16ZM52 16L52 18L53 18L53 16ZM39 17L39 18L38 18L38 19L37 19L37 18L36 18L36 19L37 19L37 20L36 20L36 21L37 21L37 22L38 22L38 23L39 23L39 22L40 22L40 21L39 21L39 18L40 18L40 17ZM6 18L6 19L5 19L5 21L7 21L7 20L8 20L8 19L7 19L7 18ZM19 18L19 20L20 20L20 21L19 21L19 22L20 22L20 21L22 21L22 20L20 20L20 19L22 19L22 18ZM48 18L48 19L49 19L49 18ZM6 19L6 20L7 20L7 19ZM40 19L40 20L41 20L41 19ZM16 21L16 22L17 22L17 21ZM38 21L38 22L39 22L39 21ZM42 21L42 22L43 22L43 21ZM5 22L5 23L7 23L7 22ZM24 22L24 23L23 23L23 24L22 24L22 25L23 25L23 24L24 24L24 23L25 23L25 22ZM34 23L34 24L35 24L35 23ZM40 23L40 24L41 24L41 23ZM42 23L42 24L43 24L43 23ZM29 24L29 25L31 25L31 24ZM49 24L49 25L50 25L50 24ZM5 25L5 28L8 28L8 25ZM11 25L11 26L12 26L12 27L13 27L13 26L12 26L12 25ZM25 25L25 28L28 28L28 25ZM34 25L34 26L35 26L35 25ZM45 25L45 28L48 28L48 25ZM6 26L6 27L7 27L7 26ZM26 26L26 27L27 27L27 26ZM46 26L46 27L47 27L47 26ZM3 27L3 28L1 28L1 29L2 29L2 30L3 30L3 29L4 29L4 30L7 30L7 29L4 29L4 27ZM14 27L14 28L15 28L15 27ZM17 27L17 28L18 28L18 27ZM22 27L22 28L23 28L23 27ZM36 28L36 29L37 29L37 28ZM10 29L10 30L11 30L11 29ZM22 29L22 30L24 30L24 29ZM33 29L33 30L34 30L34 32L33 32L33 31L32 31L32 32L31 32L31 31L30 31L30 30L28 30L28 31L29 31L29 34L27 34L27 35L29 35L29 36L28 36L28 37L26 37L26 36L25 36L25 37L26 37L26 38L27 38L27 39L26 39L26 40L27 40L27 42L26 42L26 43L29 43L29 42L32 42L32 43L30 43L30 44L33 44L33 42L32 42L32 40L33 40L33 41L35 41L35 42L34 42L34 43L36 43L36 42L38 42L38 41L37 41L37 40L34 40L34 39L37 39L37 38L38 38L38 37L39 37L39 35L40 35L40 36L41 36L41 35L40 35L40 34L38 34L38 35L37 35L37 36L36 36L36 37L35 37L35 38L34 38L34 35L36 35L36 34L37 34L37 32L35 32L35 30L34 30L34 29ZM47 29L47 30L46 30L46 31L47 31L47 32L46 32L46 33L50 33L50 32L49 32L49 31L50 31L50 30L48 30L48 29ZM13 31L13 32L14 32L14 31ZM17 32L17 33L18 33L18 34L17 34L17 36L16 36L16 35L15 35L15 37L14 37L14 38L13 38L13 39L14 39L14 40L13 40L13 41L16 41L16 40L15 40L15 38L16 38L16 37L17 37L17 38L18 38L18 37L19 37L19 36L20 36L20 37L22 37L22 38L23 38L23 37L24 37L24 35L22 35L22 36L21 36L21 35L20 35L20 34L19 34L19 33L18 33L18 32ZM32 32L32 34L33 34L33 32ZM34 32L34 34L35 34L35 32ZM15 33L15 34L16 34L16 33ZM22 33L22 34L23 34L23 33ZM18 34L18 36L19 36L19 34ZM30 34L30 35L31 35L31 36L29 36L29 37L28 37L28 38L29 38L29 39L27 39L27 40L29 40L29 41L28 41L28 42L29 42L29 41L31 41L31 40L32 40L32 39L34 39L34 38L32 38L32 37L33 37L33 36L32 36L32 35L31 35L31 34ZM46 34L46 35L45 35L45 36L46 36L46 35L47 35L47 34ZM6 35L6 36L7 36L7 35ZM50 35L50 36L52 36L52 35ZM22 36L22 37L23 37L23 36ZM2 37L2 39L1 39L1 40L8 40L8 39L3 39L3 37ZM6 37L6 38L7 38L7 37ZM30 37L30 38L31 38L31 39L30 39L30 40L31 40L31 39L32 39L32 38L31 38L31 37ZM24 38L24 39L25 39L25 38ZM22 41L22 42L23 42L23 41ZM41 41L41 42L43 42L43 41ZM2 42L2 43L3 43L3 42ZM48 42L48 44L49 44L49 45L50 45L50 44L49 44L49 42ZM17 43L17 44L18 44L18 43ZM45 43L45 44L46 44L46 43ZM52 43L52 44L53 44L53 43ZM12 45L12 47L11 47L11 51L10 51L10 53L12 53L12 52L11 52L11 51L12 51L12 50L13 50L13 49L14 49L14 51L15 51L15 52L13 52L13 53L15 53L15 52L16 52L16 53L19 53L19 51L17 51L17 52L16 52L16 51L15 51L15 50L16 50L16 49L14 49L14 47L15 47L15 48L16 48L16 46L13 46L13 45ZM25 45L25 48L28 48L28 45ZM30 45L30 46L31 46L31 45ZM34 45L34 46L36 46L36 45ZM45 45L45 48L48 48L48 45ZM52 45L52 46L53 46L53 45ZM26 46L26 47L27 47L27 46ZM46 46L46 47L47 47L47 46ZM8 48L8 53L9 53L9 49L10 49L10 48ZM43 48L43 49L44 49L44 48ZM49 48L49 49L50 49L50 48ZM0 0L0 7L7 7L7 0ZM1 1L1 6L6 6L6 1ZM2 2L2 5L5 5L5 2ZM46 0L46 7L53 7L53 0ZM47 1L47 6L52 6L52 1ZM48 2L48 5L51 5L51 2ZM0 46L0 53L7 53L7 46ZM1 47L1 52L6 52L6 47ZM2 48L2 51L5 51L5 48Z" fill="#000000"/></g></g></svg>
