<?xml version="1.0" encoding="UTF-8"?>
<svg xmlns="http://www.w3.org/2000/svg" version="1.1" width="400" height="400" viewBox="0 0 400 400"><rect x="0" y="0" width="400" height="400" fill="#fefefe"/><g transform="scale(4.706)"><g transform="translate(4,4)"><path fill-rule="evenodd" d="M11 0L11 3L12 3L12 4L15 4L15 5L12 5L12 8L11 8L11 10L10 10L10 9L9 9L9 8L10 8L10 7L11 7L11 5L10 5L10 7L9 7L9 6L8 6L8 9L7 9L7 8L3 8L3 9L2 9L2 8L1 8L1 9L0 9L0 10L1 10L1 9L2 9L2 12L1 12L1 11L0 11L0 12L1 12L1 15L0 15L0 16L1 16L1 17L0 17L0 19L3 19L3 18L4 18L4 19L8 19L8 20L9 20L9 22L8 22L8 23L9 23L9 24L5 24L5 23L4 23L4 22L6 22L6 23L7 23L7 22L6 22L6 21L7 21L7 20L4 20L4 22L2 22L2 20L0 20L0 24L1 24L1 25L0 25L0 26L1 26L1 27L0 27L0 28L1 28L1 27L2 27L2 29L0 29L0 30L1 30L1 31L0 31L0 32L2 32L2 31L3 31L3 33L0 33L0 34L1 34L1 35L0 35L0 41L2 41L2 39L3 39L3 41L4 41L4 37L7 37L7 38L5 38L5 42L6 42L6 43L5 43L5 44L4 44L4 42L3 42L3 43L2 43L2 42L1 42L1 43L0 43L0 44L1 44L1 45L0 45L0 55L1 55L1 57L2 57L2 55L3 55L3 59L2 59L2 58L1 58L1 60L6 60L6 61L7 61L7 62L6 62L6 63L4 63L4 65L7 65L7 66L4 66L4 68L1 68L1 69L5 69L5 67L7 67L7 68L6 68L6 69L8 69L8 70L9 70L9 69L10 69L10 68L9 68L9 67L13 67L13 69L12 69L12 68L11 68L11 70L10 70L10 71L8 71L8 74L9 74L9 73L10 73L10 72L11 72L11 71L12 71L12 72L13 72L13 71L12 71L12 70L14 70L14 73L17 73L17 74L18 74L18 75L20 75L20 76L19 76L19 77L21 77L21 75L20 75L20 74L21 74L21 73L23 73L23 74L22 74L22 75L23 75L23 76L22 76L22 77L26 77L26 76L29 76L29 77L30 77L30 76L29 76L29 74L30 74L30 75L31 75L31 77L34 77L34 76L35 76L35 75L38 75L38 77L39 77L39 76L41 76L41 77L42 77L42 76L41 76L41 75L42 75L42 74L43 74L43 75L44 75L44 74L43 74L43 73L45 73L45 76L44 76L44 77L45 77L45 76L47 76L47 77L49 77L49 76L50 76L50 77L51 77L51 76L50 76L50 75L52 75L52 74L54 74L54 75L56 75L56 74L57 74L57 75L58 75L58 74L60 74L60 76L58 76L58 77L65 77L65 75L66 75L66 76L67 76L67 77L69 77L69 76L72 76L72 77L73 77L73 76L74 76L74 77L75 77L75 76L76 76L76 75L77 75L77 74L76 74L76 73L77 73L77 72L76 72L76 71L77 71L77 65L76 65L76 66L75 66L75 67L74 67L74 68L75 68L75 69L74 69L74 72L73 72L73 67L72 67L72 68L71 68L71 66L74 66L74 65L75 65L75 62L76 62L76 63L77 63L77 62L76 62L76 61L77 61L77 59L76 59L76 61L74 61L74 60L73 60L73 59L75 59L75 58L77 58L77 55L75 55L75 54L77 54L77 53L76 53L76 51L77 51L77 48L76 48L76 50L75 50L75 48L74 48L74 47L73 47L73 46L76 46L76 47L77 47L77 44L76 44L76 45L73 45L73 46L72 46L72 45L70 45L70 44L71 44L71 42L72 42L72 43L73 43L73 41L75 41L75 42L76 42L76 43L77 43L77 41L75 41L75 39L76 39L76 37L77 37L77 36L76 36L76 35L75 35L75 36L73 36L73 34L72 34L72 33L74 33L74 34L75 34L75 33L76 33L76 34L77 34L77 28L75 28L75 25L77 25L77 24L76 24L76 23L77 23L77 20L76 20L76 21L75 21L75 20L74 20L74 21L72 21L72 19L74 19L74 17L75 17L75 18L77 18L77 17L75 17L75 13L74 13L74 12L76 12L76 14L77 14L77 11L75 11L75 9L76 9L76 10L77 10L77 9L76 9L76 8L75 8L75 9L74 9L74 8L72 8L72 11L73 11L73 9L74 9L74 12L70 12L70 13L69 13L69 12L67 12L67 11L68 11L68 10L69 10L69 11L70 11L70 9L71 9L71 8L69 8L69 9L68 9L68 10L66 10L66 11L65 11L65 10L64 10L64 9L66 9L66 8L68 8L68 7L69 7L69 6L68 6L68 7L67 7L67 5L69 5L69 1L68 1L68 4L66 4L66 3L65 3L65 5L64 5L64 7L63 7L63 6L62 6L62 4L64 4L64 2L65 2L65 1L66 1L66 2L67 2L67 1L66 1L66 0L65 0L65 1L64 1L64 2L63 2L63 0L60 0L60 1L62 1L62 2L61 2L61 5L59 5L59 2L56 2L56 1L58 1L58 0L56 0L56 1L55 1L55 0L54 0L54 1L55 1L55 2L54 2L54 3L53 3L53 2L51 2L51 1L53 1L53 0L51 0L51 1L50 1L50 0L49 0L49 3L48 3L48 4L46 4L46 9L47 9L47 11L48 11L48 10L49 10L49 9L51 9L51 11L53 11L53 13L54 13L54 12L55 12L55 13L56 13L56 14L52 14L52 13L50 13L50 12L49 12L49 13L50 13L50 16L49 16L49 17L50 17L50 18L48 18L48 19L49 19L49 21L48 21L48 22L47 22L47 20L45 20L45 19L43 19L43 18L39 18L39 17L44 17L44 18L46 18L46 19L47 19L47 17L48 17L48 15L49 15L49 14L47 14L47 15L46 15L46 16L45 16L45 15L44 15L44 14L43 14L43 11L44 11L44 13L45 13L45 14L46 14L46 13L45 13L45 9L44 9L44 8L45 8L45 6L44 6L44 5L45 5L45 3L44 3L44 2L46 2L46 1L48 1L48 0L45 0L45 1L44 1L44 0L42 0L42 1L41 1L41 0L40 0L40 1L38 1L38 0L37 0L37 1L38 1L38 2L39 2L39 6L38 6L38 3L37 3L37 5L36 5L36 4L35 4L35 2L36 2L36 1L35 1L35 0L32 0L32 1L34 1L34 5L33 5L33 4L32 4L32 3L33 3L33 2L31 2L31 0L30 0L30 1L29 1L29 0L28 0L28 2L27 2L27 3L26 3L26 4L25 4L25 3L24 3L24 2L23 2L23 3L24 3L24 4L23 4L23 6L22 6L22 5L21 5L21 4L22 4L22 1L23 1L23 0L21 0L21 1L20 1L20 0L18 0L18 1L17 1L17 0L14 0L14 1L12 1L12 0ZM24 0L24 1L26 1L26 0ZM8 1L8 2L10 2L10 1ZM16 1L16 4L17 4L17 5L15 5L15 7L16 7L16 9L14 9L14 8L13 8L13 9L14 9L14 11L16 11L16 10L19 10L19 12L20 12L20 14L19 14L19 13L17 13L17 14L16 14L16 15L13 15L13 14L15 14L15 13L14 13L14 12L10 12L10 10L9 10L9 9L8 9L8 11L5 11L5 10L4 10L4 9L3 9L3 10L4 10L4 11L3 11L3 12L2 12L2 16L8 16L8 17L10 17L10 16L11 16L11 18L9 18L9 20L11 20L11 19L12 19L12 17L14 17L14 18L13 18L13 20L12 20L12 22L11 22L11 21L10 21L10 22L9 22L9 23L11 23L11 24L9 24L9 25L16 25L16 24L13 24L13 22L14 22L14 23L16 23L16 22L17 22L17 21L16 21L16 19L19 19L19 20L18 20L18 21L19 21L19 20L20 20L20 19L21 19L21 18L20 18L20 16L21 16L21 14L22 14L22 13L21 13L21 11L22 11L22 12L23 12L23 13L25 13L25 14L27 14L27 15L26 15L26 17L24 17L24 16L23 16L23 17L22 17L22 20L21 20L21 21L20 21L20 22L19 22L19 23L17 23L17 24L19 24L19 25L18 25L18 26L13 26L13 27L12 27L12 26L9 26L9 27L10 27L10 28L13 28L13 33L14 33L14 32L15 32L15 35L13 35L13 34L12 34L12 37L11 37L11 36L10 36L10 38L8 38L8 41L6 41L6 42L9 42L9 41L10 41L10 40L11 40L11 41L12 41L12 43L11 43L11 42L10 42L10 43L9 43L9 45L10 45L10 46L9 46L9 47L11 47L11 48L9 48L9 49L10 49L10 50L9 50L9 51L3 51L3 50L4 50L4 49L2 49L2 48L1 48L1 49L2 49L2 50L1 50L1 51L2 51L2 52L1 52L1 53L2 53L2 54L3 54L3 52L9 52L9 53L11 53L11 55L10 55L10 54L9 54L9 55L8 55L8 56L11 56L11 55L12 55L12 54L13 54L13 57L12 57L12 58L11 58L11 60L8 60L8 59L6 59L6 58L8 58L8 57L6 57L6 56L7 56L7 55L6 55L6 56L5 56L5 57L4 57L4 58L5 58L5 59L6 59L6 60L8 60L8 62L7 62L7 63L6 63L6 64L7 64L7 65L8 65L8 66L9 66L9 65L10 65L10 66L11 66L11 65L12 65L12 62L14 62L14 63L13 63L13 67L14 67L14 69L15 69L15 70L16 70L16 71L15 71L15 72L16 72L16 71L17 71L17 70L18 70L18 71L20 71L20 72L21 72L21 69L18 69L18 68L19 68L19 67L20 67L20 68L23 68L23 66L22 66L22 65L24 65L24 66L25 66L25 65L26 65L26 66L27 66L27 67L28 67L28 68L31 68L31 65L32 65L32 69L31 69L31 72L30 72L30 70L29 70L29 73L30 73L30 74L31 74L31 75L32 75L32 74L31 74L31 73L32 73L32 69L33 69L33 71L34 71L34 70L35 70L35 72L33 72L33 76L34 76L34 75L35 75L35 74L34 74L34 73L35 73L35 72L36 72L36 74L38 74L38 75L40 75L40 74L41 74L41 73L39 73L39 72L40 72L40 71L41 71L41 70L42 70L42 72L43 72L43 71L44 71L44 72L46 72L46 69L45 69L45 68L46 68L46 67L47 67L47 68L48 68L48 67L49 67L49 68L50 68L50 67L51 67L51 68L53 68L53 69L52 69L52 70L54 70L54 71L56 71L56 72L54 72L54 74L55 74L55 73L56 73L56 72L57 72L57 73L58 73L58 69L60 69L60 72L59 72L59 73L61 73L61 72L62 72L62 71L63 71L63 72L64 72L64 71L65 71L65 69L63 69L63 70L62 70L62 68L64 68L64 67L65 67L65 68L66 68L66 67L67 67L67 68L69 68L69 67L67 67L67 66L68 66L68 65L69 65L69 66L71 66L71 65L72 65L72 63L71 63L71 65L69 65L69 64L70 64L70 63L67 63L67 64L66 64L66 62L68 62L68 61L69 61L69 62L70 62L70 61L69 61L69 60L68 60L68 59L70 59L70 60L71 60L71 59L73 59L73 57L75 57L75 56L73 56L73 57L72 57L72 58L66 58L66 57L67 57L67 56L69 56L69 57L71 57L71 56L69 56L69 55L67 55L67 54L68 54L68 53L69 53L69 54L70 54L70 53L71 53L71 54L72 54L72 55L73 55L73 54L72 54L72 53L71 53L71 52L72 52L72 51L70 51L70 52L69 52L69 51L68 51L68 50L67 50L67 51L66 51L66 50L64 50L64 51L60 51L60 50L59 50L59 49L58 49L58 47L57 47L57 48L56 48L56 46L57 46L57 45L59 45L59 44L60 44L60 45L62 45L62 46L60 46L60 47L61 47L61 48L60 48L60 49L64 49L64 48L65 48L65 49L68 49L68 44L70 44L70 43L69 43L69 42L70 42L70 41L69 41L69 38L68 38L68 37L69 37L69 35L68 35L68 37L67 37L67 36L66 36L66 37L65 37L65 35L63 35L63 32L66 32L66 31L63 31L63 30L62 30L62 29L64 29L64 30L67 30L67 32L68 32L68 33L69 33L69 32L71 32L71 33L72 33L72 32L71 32L71 31L72 31L72 30L74 30L74 31L76 31L76 30L75 30L75 28L74 28L74 25L75 25L75 23L76 23L76 22L75 22L75 23L73 23L73 22L72 22L72 21L70 21L70 20L71 20L71 19L72 19L72 17L73 17L73 16L74 16L74 14L73 14L73 16L72 16L72 17L71 17L71 15L70 15L70 18L69 18L69 19L68 19L68 18L67 18L67 19L68 19L68 20L69 20L69 21L66 21L66 24L65 24L65 26L64 26L64 25L63 25L63 24L64 24L64 23L61 23L61 22L65 22L65 21L64 21L64 20L63 20L63 21L62 21L62 20L61 20L61 19L62 19L62 18L63 18L63 17L64 17L64 16L65 16L65 17L66 17L66 16L67 16L67 17L69 17L69 14L67 14L67 12L64 12L64 13L66 13L66 14L64 14L64 15L61 15L61 14L63 14L63 13L62 13L62 12L63 12L63 10L62 10L62 11L61 11L61 10L60 10L60 12L59 12L59 11L56 11L56 10L54 10L54 11L55 11L55 12L57 12L57 13L58 13L58 12L59 12L59 13L61 13L61 14L59 14L59 15L61 15L61 16L60 16L60 17L59 17L59 16L58 16L58 14L56 14L56 15L57 15L57 16L55 16L55 17L54 17L54 15L53 15L53 18L52 18L52 19L51 19L51 21L52 21L52 24L51 24L51 26L52 26L52 27L51 27L51 29L50 29L50 30L48 30L48 31L50 31L50 32L51 32L51 33L47 33L47 34L48 34L48 36L47 36L47 35L46 35L46 33L45 33L45 32L46 32L46 31L45 31L45 32L44 32L44 29L43 29L43 30L41 30L41 29L42 29L42 27L43 27L43 26L44 26L44 27L45 27L45 28L46 28L46 27L45 27L45 24L46 24L46 23L47 23L47 22L45 22L45 20L44 20L44 22L40 22L40 23L39 23L39 22L38 22L38 23L37 23L37 22L36 22L36 21L38 21L38 17L39 17L39 16L40 16L40 15L39 15L39 13L41 13L41 14L42 14L42 12L41 12L41 10L42 10L42 11L43 11L43 10L44 10L44 9L43 9L43 8L44 8L44 6L43 6L43 8L42 8L42 5L40 5L40 6L39 6L39 7L38 7L38 6L37 6L37 8L36 8L36 5L35 5L35 7L34 7L34 6L33 6L33 5L32 5L32 4L31 4L31 2L28 2L28 4L29 4L29 8L30 8L30 9L28 9L28 10L27 10L27 9L26 9L26 10L24 10L24 11L25 11L25 12L23 12L23 10L22 10L22 9L23 9L23 8L22 8L22 9L21 9L21 7L22 7L22 6L21 6L21 7L20 7L20 6L19 6L19 7L18 7L18 6L17 6L17 5L18 5L18 4L19 4L19 5L20 5L20 4L21 4L21 2L20 2L20 3L18 3L18 2L19 2L19 1L18 1L18 2L17 2L17 1ZM42 1L42 2L41 2L41 3L40 3L40 4L41 4L41 3L42 3L42 4L43 4L43 3L42 3L42 2L44 2L44 1ZM14 2L14 3L15 3L15 2ZM8 3L8 5L9 5L9 3ZM49 3L49 4L51 4L51 8L52 8L52 9L53 9L53 7L54 7L54 9L55 9L55 7L56 7L56 6L57 6L57 10L58 10L58 9L60 9L60 6L59 6L59 5L58 5L58 4L57 4L57 3L56 3L56 4L57 4L57 5L55 5L55 3L54 3L54 6L53 6L53 7L52 7L52 5L53 5L53 4L52 4L52 3ZM30 4L30 5L31 5L31 6L30 6L30 7L31 7L31 6L32 6L32 7L33 7L33 6L32 6L32 5L31 5L31 4ZM25 5L25 8L28 8L28 5ZM47 5L47 8L50 8L50 5ZM65 5L65 8L66 8L66 5ZM13 6L13 7L14 7L14 6ZM16 6L16 7L17 7L17 9L18 9L18 7L17 7L17 6ZM23 6L23 7L24 7L24 6ZM26 6L26 7L27 7L27 6ZM40 6L40 7L39 7L39 9L38 9L38 8L37 8L37 10L34 10L34 8L33 8L33 9L32 9L32 8L31 8L31 9L30 9L30 11L29 11L29 12L30 12L30 14L29 14L29 15L28 15L28 16L27 16L27 18L25 18L25 19L26 19L26 20L24 20L24 22L25 22L25 23L26 23L26 24L23 24L23 23L21 23L21 24L20 24L20 23L19 23L19 24L20 24L20 25L19 25L19 26L20 26L20 27L22 27L22 28L21 28L21 31L20 31L20 29L19 29L19 28L17 28L17 29L15 29L15 28L16 28L16 27L14 27L14 29L15 29L15 32L16 32L16 33L17 33L17 34L16 34L16 35L15 35L15 36L16 36L16 39L17 39L17 40L16 40L16 41L17 41L17 44L18 44L18 43L19 43L19 42L20 42L20 41L23 41L23 42L25 42L25 43L28 43L28 42L27 42L27 41L29 41L29 43L30 43L30 42L34 42L34 41L35 41L35 43L31 43L31 44L32 44L32 47L31 47L31 46L28 46L28 44L27 44L27 46L25 46L25 45L26 45L26 44L25 44L25 45L24 45L24 49L23 49L23 50L20 50L20 49L21 49L21 48L20 48L20 47L22 47L22 46L23 46L23 43L21 43L21 45L20 45L20 44L19 44L19 45L18 45L18 47L19 47L19 48L16 48L16 46L17 46L17 45L16 45L16 44L15 44L15 41L14 41L14 39L15 39L15 38L14 38L14 37L13 37L13 38L12 38L12 39L13 39L13 40L12 40L12 41L13 41L13 42L14 42L14 43L12 43L12 45L11 45L11 44L10 44L10 45L11 45L11 46L13 46L13 47L12 47L12 49L13 49L13 48L14 48L14 49L15 49L15 50L14 50L14 51L11 51L11 50L10 50L10 51L11 51L11 52L13 52L13 53L14 53L14 52L16 52L16 50L19 50L19 51L18 51L18 52L17 52L17 53L15 53L15 54L14 54L14 57L13 57L13 59L12 59L12 61L15 61L15 63L17 63L17 64L16 64L16 65L17 65L17 67L16 67L16 66L15 66L15 69L17 69L17 67L18 67L18 65L17 65L17 64L19 64L19 62L18 62L18 61L21 61L21 59L24 59L24 60L23 60L23 61L22 61L22 62L23 62L23 63L21 63L21 62L20 62L20 63L21 63L21 65L22 65L22 64L25 64L25 63L26 63L26 62L27 62L27 63L28 63L28 62L29 62L29 63L30 63L30 64L29 64L29 66L28 66L28 65L27 65L27 64L26 64L26 65L27 65L27 66L28 66L28 67L29 67L29 66L30 66L30 65L31 65L31 64L32 64L32 65L34 65L34 67L33 67L33 69L35 69L35 70L38 70L38 69L39 69L39 70L40 70L40 69L41 69L41 68L42 68L42 70L44 70L44 71L45 71L45 70L44 70L44 67L46 67L46 65L47 65L47 67L48 67L48 65L49 65L49 64L52 64L52 63L53 63L53 62L55 62L55 64L54 64L54 65L56 65L56 66L55 66L55 68L56 68L56 69L54 69L54 70L56 70L56 71L57 71L57 69L58 69L58 68L56 68L56 66L57 66L57 67L58 67L58 66L59 66L59 67L60 67L60 69L61 69L61 68L62 68L62 66L63 66L63 67L64 67L64 66L65 66L65 65L66 65L66 66L67 66L67 65L66 65L66 64L64 64L64 65L62 65L62 64L59 64L59 62L61 62L61 63L64 63L64 62L65 62L65 60L66 60L66 58L64 58L64 57L66 57L66 56L65 56L65 55L66 55L66 54L65 54L65 52L64 52L64 53L63 53L63 52L60 52L60 51L58 51L58 49L56 49L56 48L54 48L54 45L55 45L55 43L56 43L56 44L57 44L57 43L58 43L58 44L59 44L59 43L60 43L60 42L59 42L59 40L60 40L60 41L62 41L62 40L63 40L63 41L64 41L64 37L63 37L63 38L62 38L62 37L61 37L61 38L60 38L60 36L61 36L61 35L60 35L60 36L59 36L59 35L58 35L58 37L57 37L57 35L53 35L53 34L60 34L60 33L61 33L61 34L62 34L62 33L61 33L61 32L63 32L63 31L62 31L62 30L60 30L60 29L61 29L61 27L64 27L64 28L65 28L65 27L64 27L64 26L63 26L63 25L62 25L62 24L61 24L61 25L59 25L59 24L60 24L60 21L61 21L61 20L60 20L60 19L61 19L61 18L62 18L62 17L61 17L61 18L57 18L57 17L58 17L58 16L57 16L57 17L56 17L56 18L55 18L55 20L54 20L54 21L53 21L53 22L54 22L54 23L53 23L53 24L52 24L52 26L53 26L53 25L54 25L54 27L56 27L56 29L55 29L55 28L54 28L54 29L55 29L55 32L56 32L56 33L53 33L53 31L54 31L54 30L53 30L53 28L52 28L52 29L51 29L51 31L52 31L52 33L53 33L53 34L50 34L50 35L49 35L49 36L48 36L48 37L50 37L50 36L51 36L51 40L53 40L53 37L54 37L54 36L56 36L56 37L55 37L55 38L54 38L54 41L52 41L52 42L51 42L51 43L50 43L50 41L49 41L49 40L48 40L48 39L47 39L47 38L46 38L46 41L47 41L47 42L46 42L46 45L45 45L45 40L44 40L44 41L43 41L43 40L42 40L42 41L43 41L43 43L44 43L44 45L42 45L42 44L41 44L41 43L42 43L42 42L41 42L41 43L40 43L40 44L39 44L39 42L38 42L38 43L37 43L37 42L36 42L36 40L37 40L37 41L38 41L38 40L41 40L41 39L42 39L42 38L43 38L43 39L44 39L44 38L45 38L45 37L44 37L44 36L45 36L45 33L44 33L44 32L41 32L41 33L40 33L40 34L42 34L42 35L44 35L44 36L43 36L43 37L42 37L42 38L40 38L40 37L39 37L39 38L38 38L38 40L37 40L37 37L36 37L36 40L34 40L34 41L33 41L33 39L32 39L32 38L34 38L34 37L35 37L35 36L34 36L34 35L35 35L35 34L34 34L34 32L36 32L36 36L38 36L38 35L37 35L37 33L38 33L38 32L40 32L40 30L39 30L39 29L40 29L40 26L42 26L42 24L41 24L41 25L40 25L40 26L39 26L39 24L37 24L37 23L36 23L36 22L35 22L35 23L36 23L36 26L37 26L37 25L38 25L38 28L36 28L36 31L33 31L33 33L32 33L32 34L33 34L33 35L31 35L31 34L30 34L30 36L29 36L29 38L30 38L30 39L29 39L29 40L27 40L27 41L26 41L26 40L25 40L25 39L24 39L24 38L23 38L23 39L22 39L22 38L21 38L21 39L19 39L19 40L18 40L18 38L17 38L17 36L16 36L16 35L17 35L17 34L19 34L19 33L20 33L20 35L19 35L19 36L18 36L18 37L19 37L19 38L20 38L20 37L23 37L23 35L24 35L24 36L25 36L25 38L26 38L26 39L28 39L28 36L27 36L27 37L26 37L26 35L27 35L27 34L28 34L28 33L29 33L29 32L30 32L30 30L34 30L34 28L33 28L33 27L32 27L32 28L33 28L33 29L31 29L31 28L29 28L29 27L31 27L31 26L29 26L29 24L30 24L30 25L32 25L32 26L35 26L35 24L33 24L33 23L31 23L31 24L30 24L30 23L29 23L29 22L28 22L28 21L30 21L30 22L34 22L34 21L36 21L36 20L35 20L35 19L36 19L36 18L37 18L37 17L38 17L38 13L37 13L37 14L36 14L36 13L35 13L35 12L39 12L39 9L40 9L40 10L41 10L41 9L42 9L42 10L43 10L43 9L42 9L42 8L41 8L41 6ZM48 6L48 7L49 7L49 6ZM54 6L54 7L55 7L55 6ZM58 6L58 8L59 8L59 6ZM61 6L61 7L62 7L62 6ZM19 8L19 9L20 9L20 10L21 10L21 9L20 9L20 8ZM35 8L35 9L36 9L36 8ZM40 8L40 9L41 9L41 8ZM63 8L63 9L64 9L64 8ZM6 9L6 10L7 10L7 9ZM31 9L31 10L32 10L32 9ZM12 10L12 11L13 11L13 10ZM26 10L26 11L27 11L27 10ZM8 11L8 12L9 12L9 11ZM17 11L17 12L18 12L18 11ZM34 11L34 12L35 12L35 11ZM3 12L3 13L4 13L4 14L3 14L3 15L5 15L5 13L4 13L4 12ZM6 12L6 13L7 13L7 14L6 14L6 15L7 15L7 14L9 14L9 15L8 15L8 16L10 16L10 15L11 15L11 14L13 14L13 13L10 13L10 14L9 14L9 13L7 13L7 12ZM26 12L26 13L27 13L27 14L28 14L28 13L27 13L27 12ZM32 12L32 14L30 14L30 16L31 16L31 15L32 15L32 14L34 14L34 15L35 15L35 18L36 18L36 17L37 17L37 15L35 15L35 14L34 14L34 13L33 13L33 12ZM47 12L47 13L48 13L48 12ZM70 13L70 14L71 14L71 13ZM17 14L17 15L16 15L16 16L15 16L15 18L14 18L14 20L15 20L15 19L16 19L16 17L19 17L19 16L17 16L17 15L19 15L19 14ZM66 14L66 15L67 15L67 14ZM41 15L41 16L42 16L42 15ZM43 15L43 16L44 16L44 17L45 17L45 16L44 16L44 15ZM51 15L51 16L50 16L50 17L51 17L51 16L52 16L52 15ZM28 16L28 18L29 18L29 20L30 20L30 21L31 21L31 20L33 20L33 18L34 18L34 17L32 17L32 19L31 19L31 17L30 17L30 18L29 18L29 16ZM46 16L46 17L47 17L47 16ZM4 17L4 18L5 18L5 17ZM6 17L6 18L7 18L7 17ZM23 17L23 19L24 19L24 17ZM53 18L53 19L54 19L54 18ZM56 18L56 20L55 20L55 21L56 21L56 20L58 20L58 21L59 21L59 20L58 20L58 19L57 19L57 18ZM27 19L27 21L25 21L25 22L27 22L27 21L28 21L28 19ZM41 19L41 20L42 20L42 21L43 21L43 20L42 20L42 19ZM65 19L65 20L66 20L66 19ZM69 19L69 20L70 20L70 19ZM21 21L21 22L23 22L23 21ZM49 21L49 22L48 22L48 23L49 23L49 24L50 24L50 23L51 23L51 22L50 22L50 21ZM1 22L1 24L2 24L2 25L1 25L1 26L2 26L2 27L3 27L3 28L4 28L4 27L3 27L3 26L4 26L4 24L3 24L3 23L2 23L2 22ZM44 22L44 24L43 24L43 25L44 25L44 24L45 24L45 22ZM55 22L55 24L54 24L54 25L55 25L55 24L56 24L56 26L57 26L57 25L58 25L58 22L57 22L57 23L56 23L56 22ZM71 22L71 23L72 23L72 22ZM27 23L27 24L29 24L29 23ZM69 23L69 24L67 24L67 25L66 25L66 26L67 26L67 27L66 27L66 28L67 28L67 29L70 29L70 30L68 30L68 32L69 32L69 31L70 31L70 30L72 30L72 29L74 29L74 28L73 28L73 24L70 24L70 23ZM32 24L32 25L33 25L33 24ZM5 25L5 28L8 28L8 25ZM20 25L20 26L22 26L22 27L23 27L23 28L22 28L22 31L23 31L23 29L24 29L24 25ZM25 25L25 28L28 28L28 25ZM47 25L47 28L50 28L50 25ZM61 25L61 26L58 26L58 27L57 27L57 30L56 30L56 32L58 32L58 31L59 31L59 32L61 32L61 31L59 31L59 30L58 30L58 28L59 28L59 29L60 29L60 27L61 27L61 26L62 26L62 25ZM69 25L69 28L72 28L72 25ZM6 26L6 27L7 27L7 26ZM26 26L26 27L27 27L27 26ZM48 26L48 27L49 27L49 26ZM70 26L70 27L71 27L71 26ZM76 26L76 27L77 27L77 26ZM2 29L2 30L3 30L3 31L4 31L4 34L5 34L5 33L6 33L6 34L7 34L7 35L6 35L6 36L7 36L7 37L8 37L8 36L7 36L7 35L8 35L8 34L7 34L7 33L9 33L9 35L11 35L11 32L12 32L12 30L11 30L11 29L10 29L10 30L9 30L9 29L6 29L6 30L3 30L3 29ZM28 29L28 30L26 30L26 31L27 31L27 32L28 32L28 30L30 30L30 29ZM45 29L45 30L46 30L46 29ZM6 30L6 31L5 31L5 32L6 32L6 33L7 33L7 32L9 32L9 33L10 33L10 31L7 31L7 30ZM24 30L24 32L25 32L25 30ZM52 30L52 31L53 31L53 30ZM57 30L57 31L58 31L58 30ZM6 31L6 32L7 32L7 31ZM16 31L16 32L17 32L17 33L18 33L18 32L19 32L19 31ZM37 31L37 32L38 32L38 31ZM20 32L20 33L21 33L21 34L22 34L22 35L20 35L20 36L19 36L19 37L20 37L20 36L22 36L22 35L23 35L23 33L22 33L22 32ZM74 32L74 33L75 33L75 32ZM24 33L24 35L26 35L26 34L27 34L27 33L26 33L26 34L25 34L25 33ZM43 33L43 34L44 34L44 33ZM65 33L65 34L67 34L67 33ZM2 34L2 35L3 35L3 34ZM70 34L70 36L71 36L71 37L70 37L70 39L71 39L71 38L73 38L73 37L72 37L72 35L71 35L71 34ZM39 35L39 36L41 36L41 35ZM51 35L51 36L53 36L53 35ZM62 35L62 36L63 36L63 35ZM1 36L1 37L4 37L4 36ZM31 36L31 38L32 38L32 37L34 37L34 36ZM56 37L56 38L57 38L57 37ZM66 37L66 38L67 38L67 37ZM58 38L58 39L57 39L57 40L56 40L56 39L55 39L55 41L54 41L54 42L57 42L57 40L59 40L59 39L60 39L60 40L62 40L62 39L60 39L60 38ZM74 38L74 39L73 39L73 40L72 40L72 41L73 41L73 40L74 40L74 39L75 39L75 38ZM6 39L6 40L7 40L7 39ZM21 39L21 40L22 40L22 39ZM23 39L23 41L24 41L24 39ZM30 39L30 40L31 40L31 39ZM66 39L66 41L68 41L68 39ZM47 40L47 41L48 41L48 40ZM25 41L25 42L26 42L26 41ZM47 42L47 43L48 43L48 42ZM52 42L52 43L51 43L51 44L50 44L50 45L51 45L51 46L52 46L52 47L51 47L51 49L52 49L52 48L53 48L53 50L51 50L51 51L50 51L50 52L49 52L49 51L45 51L45 50L43 50L43 49L44 49L44 48L45 48L45 49L46 49L46 48L45 48L45 47L44 47L44 46L45 46L45 45L44 45L44 46L42 46L42 47L41 47L41 45L40 45L40 46L39 46L39 44L38 44L38 47L36 47L36 46L35 46L35 48L34 48L34 49L35 49L35 48L36 48L36 49L37 49L37 52L36 52L36 51L35 51L35 50L34 50L34 52L33 52L33 50L31 50L31 49L33 49L33 47L32 47L32 48L31 48L31 47L29 47L29 51L28 51L28 52L26 52L26 51L25 51L25 53L24 53L24 52L23 52L23 53L22 53L22 54L20 54L20 55L17 55L17 54L19 54L19 53L20 53L20 52L21 52L21 51L19 51L19 53L17 53L17 54L15 54L15 57L14 57L14 58L15 58L15 60L19 60L19 58L20 58L20 59L21 59L21 57L23 57L23 56L24 56L24 57L25 57L25 55L26 55L26 56L28 56L28 57L27 57L27 58L25 58L25 60L24 60L24 61L25 61L25 62L26 62L26 61L27 61L27 58L28 58L28 57L29 57L29 55L30 55L30 58L32 58L32 59L30 59L30 60L28 60L28 61L30 61L30 62L31 62L31 60L32 60L32 61L34 61L34 62L33 62L33 63L32 63L32 64L34 64L34 65L35 65L35 64L39 64L39 63L37 63L37 61L36 61L36 60L39 60L39 59L37 59L37 58L36 58L36 57L37 57L37 56L38 56L38 55L39 55L39 58L40 58L40 60L41 60L41 62L43 62L43 61L42 61L42 60L44 60L44 61L45 61L45 60L46 60L46 63L48 63L48 64L47 64L47 65L48 65L48 64L49 64L49 63L50 63L50 61L52 61L52 62L53 62L53 59L51 59L51 60L50 60L50 59L49 59L49 58L50 58L50 57L51 57L51 55L50 55L50 53L52 53L52 54L54 54L54 55L52 55L52 57L53 57L53 58L55 58L55 59L54 59L54 61L55 61L55 62L59 62L59 61L61 61L61 62L63 62L63 61L62 61L62 60L64 60L64 59L62 59L62 57L63 57L63 56L64 56L64 55L65 55L65 54L64 54L64 55L63 55L63 56L60 56L60 57L61 57L61 58L60 58L60 60L59 60L59 61L58 61L58 59L59 59L59 58L58 58L58 55L59 55L59 52L58 52L58 51L55 51L55 52L54 52L54 48L53 48L53 45L51 45L51 44L54 44L54 43L53 43L53 42ZM58 42L58 43L59 43L59 42ZM62 42L62 43L61 43L61 44L62 44L62 43L64 43L64 44L63 44L63 47L62 47L62 48L64 48L64 45L65 45L65 43L66 43L66 42L65 42L65 43L64 43L64 42ZM67 42L67 44L68 44L68 42ZM6 43L6 44L8 44L8 43ZM35 43L35 44L33 44L33 46L34 46L34 45L35 45L35 44L36 44L36 43ZM3 44L3 47L4 47L4 46L8 46L8 45L4 45L4 44ZM47 44L47 46L49 46L49 45L48 45L48 44ZM1 45L1 46L2 46L2 45ZM14 45L14 48L15 48L15 46L16 46L16 45ZM19 45L19 47L20 47L20 45ZM21 45L21 46L22 46L22 45ZM66 45L66 47L65 47L65 48L66 48L66 47L67 47L67 45ZM5 47L5 50L8 50L8 47ZM25 47L25 50L28 50L28 47ZM38 47L38 49L39 49L39 48L40 48L40 50L38 50L38 51L39 51L39 52L37 52L37 53L39 53L39 52L41 52L41 53L42 53L42 54L40 54L40 55L41 55L41 56L40 56L40 58L41 58L41 59L43 59L43 58L44 58L44 60L45 60L45 58L46 58L46 59L47 59L47 60L48 60L48 58L49 58L49 57L48 57L48 56L50 56L50 55L48 55L48 54L47 54L47 53L49 53L49 52L47 52L47 53L46 53L46 52L45 52L45 51L43 51L43 52L42 52L42 51L41 51L41 49L43 49L43 47L42 47L42 48L40 48L40 47ZM47 47L47 50L50 50L50 47ZM69 47L69 50L72 50L72 47ZM6 48L6 49L7 49L7 48ZM19 48L19 49L20 49L20 48ZM26 48L26 49L27 49L27 48ZM30 48L30 49L31 49L31 48ZM48 48L48 49L49 49L49 48ZM70 48L70 49L71 49L71 48ZM73 48L73 51L74 51L74 48ZM55 49L55 50L56 50L56 49ZM30 50L30 51L29 51L29 53L28 53L28 54L27 54L27 55L29 55L29 54L30 54L30 52L32 52L32 51L31 51L31 50ZM52 51L52 53L53 53L53 51ZM35 52L35 56L36 56L36 52ZM44 52L44 53L43 53L43 54L42 54L42 55L44 55L44 56L48 56L48 55L44 55L44 53L45 53L45 52ZM55 52L55 53L54 53L54 54L55 54L55 55L54 55L54 57L55 57L55 58L56 58L56 61L57 61L57 59L58 59L58 58L57 58L57 55L58 55L58 53L57 53L57 54L56 54L56 52ZM66 52L66 53L67 53L67 52ZM73 52L73 53L74 53L74 54L75 54L75 53L74 53L74 52ZM6 53L6 54L7 54L7 53ZM23 53L23 55L25 55L25 54L26 54L26 53L25 53L25 54L24 54L24 53ZM31 53L31 54L32 54L32 55L34 55L34 53L33 53L33 54L32 54L32 53ZM60 53L60 54L63 54L63 53ZM4 54L4 55L5 55L5 54ZM37 54L37 55L38 55L38 54ZM16 56L16 59L17 59L17 57L18 57L18 56ZM19 56L19 57L20 57L20 56ZM32 56L32 58L33 58L33 57L34 57L34 58L35 58L35 59L34 59L34 60L36 60L36 58L35 58L35 57L34 57L34 56ZM5 57L5 58L6 58L6 57ZM9 57L9 58L10 58L10 57ZM42 57L42 58L43 58L43 57ZM44 57L44 58L45 58L45 57ZM32 59L32 60L33 60L33 59ZM49 60L49 61L47 61L47 62L48 62L48 63L49 63L49 61L50 61L50 60ZM67 60L67 61L68 61L68 60ZM0 61L0 66L1 66L1 67L2 67L2 66L1 66L1 65L3 65L3 63L2 63L2 64L1 64L1 61ZM3 61L3 62L5 62L5 61ZM9 61L9 62L11 62L11 61ZM35 61L35 63L36 63L36 61ZM38 61L38 62L40 62L40 61ZM17 62L17 63L18 63L18 62ZM44 62L44 63L45 63L45 62ZM73 62L73 63L74 63L74 62ZM8 63L8 65L9 65L9 63ZM10 63L10 65L11 65L11 63ZM40 63L40 64L41 64L41 63ZM42 63L42 65L44 65L44 66L45 66L45 65L44 65L44 64L43 64L43 63ZM56 63L56 64L57 64L57 65L58 65L58 64L57 64L57 63ZM14 64L14 65L15 65L15 64ZM19 65L19 66L20 66L20 65ZM36 65L36 66L35 66L35 69L36 69L36 67L37 67L37 68L38 68L38 67L40 67L40 68L39 68L39 69L40 69L40 68L41 68L41 67L42 67L42 66L41 66L41 67L40 67L40 66L39 66L39 65L38 65L38 67L37 67L37 65ZM51 65L51 67L52 67L52 66L53 66L53 67L54 67L54 66L53 66L53 65ZM59 65L59 66L60 66L60 67L61 67L61 66L62 66L62 65ZM49 66L49 67L50 67L50 66ZM24 67L24 68L26 68L26 67ZM75 67L75 68L76 68L76 67ZM8 68L8 69L9 69L9 68ZM22 69L22 70L23 70L23 69ZM25 69L25 72L28 72L28 69ZM47 69L47 72L50 72L50 69ZM66 69L66 72L65 72L65 73L64 73L64 74L65 74L65 73L66 73L66 74L68 74L68 75L67 75L67 76L68 76L68 75L69 75L69 74L70 74L70 75L72 75L72 73L71 73L71 74L70 74L70 73L68 73L68 72L67 72L67 71L68 71L68 70L67 70L67 69ZM69 69L69 72L72 72L72 69ZM26 70L26 71L27 71L27 70ZM48 70L48 71L49 71L49 70ZM63 70L63 71L64 71L64 70ZM70 70L70 71L71 71L71 70ZM75 70L75 71L76 71L76 70ZM22 71L22 72L23 72L23 73L24 73L24 71ZM38 71L38 72L37 72L37 73L38 73L38 72L39 72L39 71ZM51 71L51 74L52 74L52 71ZM66 72L66 73L67 73L67 72ZM74 72L74 73L73 73L73 75L74 75L74 73L75 73L75 72ZM11 73L11 74L10 74L10 75L8 75L8 76L11 76L11 77L13 77L13 76L14 76L14 77L16 77L16 76L14 76L14 75L13 75L13 73ZM18 73L18 74L20 74L20 73ZM25 73L25 74L26 74L26 75L28 75L28 73ZM46 73L46 74L48 74L48 75L47 75L47 76L49 76L49 74L48 74L48 73ZM15 74L15 75L16 75L16 74ZM23 74L23 75L24 75L24 76L25 76L25 75L24 75L24 74ZM62 74L62 75L61 75L61 76L62 76L62 75L63 75L63 76L64 76L64 75L63 75L63 74ZM12 75L12 76L13 76L13 75ZM17 76L17 77L18 77L18 76ZM52 76L52 77L53 77L53 76ZM54 76L54 77L55 77L55 76ZM56 76L56 77L57 77L57 76ZM0 0L0 7L7 7L7 0ZM1 1L1 6L6 6L6 1ZM2 2L2 5L5 5L5 2ZM70 0L70 7L77 7L77 0ZM71 1L71 6L76 6L76 1ZM72 2L72 5L75 5L75 2ZM0 70L0 77L7 77L7 70ZM1 71L1 76L6 76L6 71ZM2 72L2 75L5 75L5 72Z" fill="#000000"/></g></g></svg>
