<?xml version="1.0" encoding="UTF-8"?>
<svg xmlns="http://www.w3.org/2000/svg" version="1.1" width="400" height="400" viewBox="0 0 400 400"><rect x="0" y="0" width="400" height="400" fill="#fefefe"/><g transform="scale(4.706)"><g transform="translate(4,4)"><path fill-rule="evenodd" d="M12 0L12 1L11 1L11 2L10 2L10 1L8 1L8 3L9 3L9 5L10 5L10 7L11 7L11 8L10 8L10 9L9 9L9 10L8 10L8 9L7 9L7 8L5 8L5 10L4 10L4 11L5 11L5 12L3 12L3 11L1 11L1 9L4 9L4 8L1 8L1 9L0 9L0 15L4 15L4 13L7 13L7 14L6 14L6 15L7 15L7 16L6 16L6 17L8 17L8 16L9 16L9 15L10 15L10 14L11 14L11 15L12 15L12 17L11 17L11 20L9 20L9 19L10 19L10 18L5 18L5 16L4 16L4 18L2 18L2 17L3 17L3 16L0 16L0 17L1 17L1 21L0 21L0 23L2 23L2 25L0 25L0 27L2 27L2 26L3 26L3 25L4 25L4 29L3 29L3 28L2 28L2 29L1 29L1 30L0 30L0 31L2 31L2 33L1 33L1 32L0 32L0 36L1 36L1 34L2 34L2 35L3 35L3 34L4 34L4 36L5 36L5 35L7 35L7 36L6 36L6 37L5 37L5 38L4 38L4 37L3 37L3 40L4 40L4 41L2 41L2 42L4 42L4 44L6 44L6 45L3 45L3 47L2 47L2 45L1 45L1 46L0 46L0 48L4 48L4 49L3 49L3 50L4 50L4 51L3 51L3 52L1 52L1 53L0 53L0 54L2 54L2 55L0 55L0 56L3 56L3 54L4 54L4 56L5 56L5 55L7 55L7 56L6 56L6 57L5 57L5 59L4 59L4 62L2 62L2 60L0 60L0 61L1 61L1 62L0 62L0 64L1 64L1 67L2 67L2 65L3 65L3 64L4 64L4 65L5 65L5 66L4 66L4 68L1 68L1 69L5 69L5 67L9 67L9 68L8 68L8 70L9 70L9 69L10 69L10 71L8 71L8 72L10 72L10 74L11 74L11 75L9 75L9 73L8 73L8 76L10 76L10 77L11 77L11 76L12 76L12 75L13 75L13 77L15 77L15 76L16 76L16 77L18 77L18 76L17 76L17 74L16 74L16 73L17 73L17 72L20 72L20 71L22 71L22 69L21 69L21 68L22 68L22 67L23 67L23 68L24 68L24 73L25 73L25 74L24 74L24 76L26 76L26 75L27 75L27 77L28 77L28 75L29 75L29 74L28 74L28 73L30 73L30 74L32 74L32 73L33 73L33 74L37 74L37 75L36 75L36 76L35 76L35 77L36 77L36 76L37 76L37 77L38 77L38 76L37 76L37 75L39 75L39 76L40 76L40 77L41 77L41 76L42 76L42 75L43 75L43 74L44 74L44 73L43 73L43 72L45 72L45 73L47 73L47 74L45 74L45 75L44 75L44 76L43 76L43 77L44 77L44 76L45 76L45 75L48 75L48 73L51 73L51 74L52 74L52 75L55 75L55 76L54 76L54 77L55 77L55 76L56 76L56 77L59 77L59 76L60 76L60 75L59 75L59 71L60 71L60 68L61 68L61 67L58 67L58 66L57 66L57 67L55 67L55 68L54 68L54 67L53 67L53 68L52 68L52 66L54 66L54 65L51 65L51 63L50 63L50 62L49 62L49 60L51 60L51 62L52 62L52 63L54 63L54 64L55 64L55 65L56 65L56 64L55 64L55 63L56 63L56 61L55 61L55 62L54 62L54 60L53 60L53 59L55 59L55 60L57 60L57 59L55 59L55 58L56 58L56 57L55 57L55 56L56 56L56 55L55 55L55 53L56 53L56 54L57 54L57 55L59 55L59 54L63 54L63 55L62 55L62 56L63 56L63 55L64 55L64 56L66 56L66 57L67 57L67 58L68 58L68 59L69 59L69 61L67 61L67 62L66 62L66 64L68 64L68 65L69 65L69 64L68 64L68 62L69 62L69 61L70 61L70 59L69 59L69 58L71 58L71 59L73 59L73 60L74 60L74 62L73 62L73 61L72 61L72 60L71 60L71 61L72 61L72 62L73 62L73 63L72 63L72 64L71 64L71 62L70 62L70 65L73 65L73 67L75 67L75 68L72 68L72 67L67 67L67 66L66 66L66 67L65 67L65 66L64 66L64 64L65 64L65 63L63 63L63 62L61 62L61 61L64 61L64 62L65 62L65 61L66 61L66 60L65 60L65 57L64 57L64 59L63 59L63 60L62 60L62 59L60 59L60 58L59 58L59 57L57 57L57 58L59 58L59 59L58 59L58 60L59 60L59 61L60 61L60 63L63 63L63 64L61 64L61 65L60 65L60 64L59 64L59 66L63 66L63 67L64 67L64 68L65 68L65 69L64 69L64 72L60 72L60 73L61 73L61 75L63 75L63 76L64 76L64 77L65 77L65 75L63 75L63 73L65 73L65 74L66 74L66 73L67 73L67 72L68 72L68 73L69 73L69 75L68 75L68 77L69 77L69 76L70 76L70 77L71 77L71 76L70 76L70 75L75 75L75 74L76 74L76 76L74 76L74 77L76 77L76 76L77 76L77 74L76 74L76 73L75 73L75 71L76 71L76 70L75 70L75 71L74 71L74 70L73 70L73 69L77 69L77 67L75 67L75 66L74 66L74 65L73 65L73 63L76 63L76 64L75 64L75 65L76 65L76 66L77 66L77 65L76 65L76 64L77 64L77 62L75 62L75 60L74 60L74 59L73 59L73 56L75 56L75 59L77 59L77 58L76 58L76 57L77 57L77 55L76 55L76 52L77 52L77 50L76 50L76 52L75 52L75 54L74 54L74 55L73 55L73 56L72 56L72 58L71 58L71 55L70 55L70 54L69 54L69 53L71 53L71 54L73 54L73 53L74 53L74 52L73 52L73 50L74 50L74 51L75 51L75 49L74 49L74 48L73 48L73 46L74 46L74 45L75 45L75 48L76 48L76 45L77 45L77 43L76 43L76 41L75 41L75 40L73 40L73 39L74 39L74 38L75 38L75 39L76 39L76 40L77 40L77 38L75 38L75 37L74 37L74 36L75 36L75 34L74 34L74 33L77 33L77 32L74 32L74 31L76 31L76 30L77 30L77 26L75 26L75 25L76 25L76 24L74 24L74 23L73 23L73 21L75 21L75 22L77 22L77 17L76 17L76 16L77 16L77 14L76 14L76 13L74 13L74 12L73 12L73 14L72 14L72 13L69 13L69 14L72 14L72 17L73 17L73 18L74 18L74 20L73 20L73 19L72 19L72 18L71 18L71 17L70 17L70 16L71 16L71 15L70 15L70 16L69 16L69 15L68 15L68 16L65 16L65 19L64 19L64 15L62 15L62 16L61 16L61 15L59 15L59 16L57 16L57 14L58 14L58 13L57 13L57 14L56 14L56 12L57 12L57 10L58 10L58 9L59 9L59 11L58 11L58 12L59 12L59 11L60 11L60 12L61 12L61 13L60 13L60 14L61 14L61 13L63 13L63 14L66 14L66 15L67 15L67 14L68 14L68 11L67 11L67 9L68 9L68 8L66 8L66 7L67 7L67 5L69 5L69 1L68 1L68 4L62 4L62 3L63 3L63 1L64 1L64 2L65 2L65 3L66 3L66 2L67 2L67 1L66 1L66 0L63 0L63 1L62 1L62 0L57 0L57 1L59 1L59 2L58 2L58 4L60 4L60 7L61 7L61 6L62 6L62 8L63 8L63 9L62 9L62 11L60 11L60 10L61 10L61 8L60 8L60 9L59 9L59 5L58 5L58 8L57 8L57 6L56 6L56 3L57 3L57 2L56 2L56 3L53 3L53 2L52 2L52 1L53 1L53 0L52 0L52 1L51 1L51 2L52 2L52 3L50 3L50 2L49 2L49 1L50 1L50 0L47 0L47 1L46 1L46 0L44 0L44 2L47 2L47 3L48 3L48 2L49 2L49 4L46 4L46 8L44 8L44 10L43 10L43 8L42 8L42 7L43 7L43 6L42 6L42 7L41 7L41 6L40 6L40 7L39 7L39 5L38 5L38 3L37 3L37 2L36 2L36 7L35 7L35 4L34 4L34 7L33 7L33 5L32 5L32 4L31 4L31 3L30 3L30 2L32 2L32 3L35 3L35 1L36 1L36 0L33 0L33 2L32 2L32 1L31 1L31 0L30 0L30 2L29 2L29 0L28 0L28 2L29 2L29 3L28 3L28 4L25 4L25 3L27 3L27 0L26 0L26 1L25 1L25 2L23 2L23 0L21 0L21 1L22 1L22 2L23 2L23 4L24 4L24 5L23 5L23 6L22 6L22 4L21 4L21 3L20 3L20 4L21 4L21 6L20 6L20 7L21 7L21 6L22 6L22 8L23 8L23 9L22 9L22 10L24 10L24 11L25 11L25 10L26 10L26 9L28 9L28 10L27 10L27 11L26 11L26 12L24 12L24 13L29 13L29 11L30 11L30 12L31 12L31 13L30 13L30 14L29 14L29 16L27 16L27 15L26 15L26 14L24 14L24 15L26 15L26 16L25 16L25 18L26 18L26 17L28 17L28 18L30 18L30 17L29 17L29 16L30 16L30 15L31 15L31 13L33 13L33 12L34 12L34 11L32 11L32 10L30 10L30 8L29 8L29 6L30 6L30 7L31 7L31 9L32 9L32 8L33 8L33 10L34 10L34 7L35 7L35 8L36 8L36 9L35 9L35 10L36 10L36 11L37 11L37 10L38 10L38 12L36 12L36 13L34 13L34 15L32 15L32 17L31 17L31 18L32 18L32 19L33 19L33 16L34 16L34 15L35 15L35 16L36 16L36 17L35 17L35 18L36 18L36 20L34 20L34 22L35 22L35 23L36 23L36 24L34 24L34 23L32 23L32 22L33 22L33 20L32 20L32 21L31 21L31 19L30 19L30 20L29 20L29 21L28 21L28 20L27 20L27 19L23 19L23 18L22 18L22 19L23 19L23 20L22 20L22 22L21 22L21 21L20 21L20 20L19 20L19 21L17 21L17 20L18 20L18 18L19 18L19 19L21 19L21 17L24 17L24 16L22 16L22 14L21 14L21 15L20 15L20 14L19 14L19 13L22 13L22 12L21 12L21 8L20 8L20 9L19 9L19 13L18 13L18 15L16 15L16 14L17 14L17 13L16 13L16 12L14 12L14 13L15 13L15 15L13 15L13 13L12 13L12 11L11 11L11 9L12 9L12 10L13 10L13 9L15 9L15 10L14 10L14 11L15 11L15 10L16 10L16 11L17 11L17 12L18 12L18 11L17 11L17 10L18 10L18 9L17 9L17 8L19 8L19 5L18 5L18 7L17 7L17 6L16 6L16 4L17 4L17 3L16 3L16 2L18 2L18 4L19 4L19 2L20 2L20 0L19 0L19 1L18 1L18 0L17 0L17 1L16 1L16 2L15 2L15 3L16 3L16 4L14 4L14 8L13 8L13 9L12 9L12 7L13 7L13 3L14 3L14 1L15 1L15 0ZM39 0L39 3L40 3L40 4L42 4L42 1L43 1L43 0L42 0L42 1L40 1L40 0ZM54 0L54 1L56 1L56 0ZM12 1L12 2L13 2L13 1ZM47 1L47 2L48 2L48 1ZM61 1L61 2L59 2L59 3L60 3L60 4L61 4L61 5L62 5L62 6L63 6L63 8L65 8L65 9L66 9L66 8L65 8L65 7L66 7L66 5L62 5L62 4L61 4L61 2L62 2L62 1ZM65 1L65 2L66 2L66 1ZM9 2L9 3L10 3L10 2ZM11 3L11 4L10 4L10 5L11 5L11 7L12 7L12 5L11 5L11 4L12 4L12 3ZM29 3L29 5L30 5L30 6L31 6L31 7L32 7L32 6L31 6L31 5L30 5L30 3ZM43 3L43 4L44 4L44 3ZM52 3L52 5L51 5L51 9L50 9L50 10L49 10L49 11L50 11L50 12L51 12L51 13L52 13L52 14L51 14L51 15L48 15L48 14L50 14L50 13L48 13L48 12L47 12L47 13L46 13L46 10L47 10L47 9L45 9L45 11L43 11L43 10L42 10L42 8L40 8L40 9L39 9L39 8L38 8L38 5L37 5L37 9L36 9L36 10L37 10L37 9L38 9L38 10L39 10L39 11L40 11L40 13L39 13L39 14L40 14L40 13L41 13L41 15L40 15L40 17L39 17L39 15L38 15L38 13L37 13L37 14L35 14L35 15L38 15L38 17L37 17L37 18L38 18L38 20L37 20L37 21L35 21L35 22L37 22L37 21L40 21L40 22L38 22L38 23L37 23L37 24L39 24L39 26L40 26L40 25L41 25L41 23L40 23L40 22L41 22L41 21L43 21L43 20L44 20L44 21L45 21L45 20L46 20L46 21L47 21L47 23L46 23L46 22L45 22L45 23L44 23L44 22L43 22L43 23L42 23L42 27L38 27L38 26L37 26L37 25L35 25L35 26L37 26L37 27L36 27L36 29L35 29L35 28L34 28L34 29L31 29L31 27L32 27L32 26L33 26L33 27L34 27L34 26L33 26L33 25L32 25L32 23L31 23L31 22L30 22L30 21L29 21L29 22L30 22L30 23L28 23L28 22L27 22L27 20L24 20L24 23L23 23L23 22L22 22L22 23L21 23L21 22L20 22L20 21L19 21L19 23L21 23L21 24L22 24L22 25L21 25L21 26L19 26L19 25L20 25L20 24L18 24L18 23L17 23L17 24L18 24L18 25L14 25L14 24L13 24L13 23L15 23L15 24L16 24L16 22L17 22L17 21L16 21L16 22L11 22L11 21L9 21L9 20L7 20L7 19L5 19L5 18L4 18L4 19L2 19L2 20L4 20L4 21L3 21L3 22L2 22L2 21L1 21L1 22L2 22L2 23L4 23L4 21L5 21L5 24L8 24L8 22L9 22L9 23L10 23L10 22L11 22L11 25L12 25L12 26L13 26L13 27L10 27L10 28L9 28L9 29L8 29L8 30L7 30L7 29L4 29L4 30L7 30L7 31L6 31L6 32L7 32L7 33L6 33L6 34L9 34L9 35L8 35L8 38L7 38L7 37L6 37L6 38L7 38L7 39L5 39L5 40L9 40L9 41L10 41L10 42L9 42L9 46L10 46L10 47L9 47L9 48L10 48L10 49L11 49L11 51L10 51L10 50L9 50L9 51L5 51L5 52L4 52L4 54L5 54L5 53L6 53L6 54L10 54L10 53L11 53L11 56L12 56L12 59L10 59L10 62L12 62L12 63L13 63L13 64L14 64L14 65L13 65L13 66L14 66L14 68L13 68L13 69L11 69L11 68L10 68L10 69L11 69L11 71L10 71L10 72L11 72L11 73L12 73L12 74L13 74L13 75L14 75L14 74L15 74L15 73L14 73L14 72L13 72L13 71L14 71L14 70L15 70L15 72L17 72L17 71L19 71L19 70L18 70L18 69L20 69L20 70L21 70L21 69L20 69L20 67L21 67L21 66L20 66L20 62L21 62L21 65L22 65L22 66L23 66L23 67L24 67L24 68L25 68L25 67L24 67L24 66L26 66L26 65L25 65L25 64L26 64L26 63L28 63L28 64L27 64L27 65L28 65L28 66L27 66L27 67L28 67L28 66L29 66L29 67L31 67L31 68L29 68L29 71L30 71L30 69L32 69L32 68L34 68L34 69L33 69L33 70L32 70L32 71L33 71L33 70L34 70L34 72L33 72L33 73L34 73L34 72L35 72L35 70L34 70L34 69L35 69L35 68L36 68L36 72L38 72L38 71L39 71L39 72L40 72L40 71L41 71L41 72L42 72L42 70L39 70L39 69L42 69L42 68L44 68L44 69L45 69L45 68L44 68L44 67L41 67L41 66L42 66L42 65L41 65L41 66L39 66L39 65L38 65L38 66L37 66L37 64L38 64L38 62L37 62L37 63L36 63L36 61L35 61L35 59L36 59L36 60L37 60L37 61L39 61L39 62L40 62L40 63L39 63L39 64L40 64L40 63L41 63L41 64L42 64L42 63L43 63L43 64L44 64L44 65L46 65L46 66L45 66L45 67L47 67L47 68L49 68L49 67L48 67L48 66L49 66L49 65L50 65L50 63L49 63L49 62L48 62L48 59L47 59L47 58L46 58L46 56L45 56L45 54L44 54L44 55L43 55L43 54L42 54L42 55L41 55L41 56L40 56L40 57L39 57L39 56L38 56L38 54L41 54L41 53L44 53L44 52L45 52L45 53L46 53L46 55L47 55L47 57L49 57L49 58L51 58L51 59L53 59L53 57L52 57L52 56L55 56L55 55L53 55L53 54L54 54L54 53L55 53L55 52L57 52L57 51L58 51L58 52L60 52L60 53L63 53L63 51L64 51L64 52L65 52L65 53L64 53L64 55L66 55L66 54L67 54L67 53L69 53L69 52L68 52L68 51L67 51L67 50L68 50L68 49L67 49L67 48L68 48L68 46L73 46L73 44L75 44L75 43L73 43L73 44L71 44L71 43L69 43L69 44L68 44L68 46L66 46L66 45L67 45L67 44L66 44L66 45L65 45L65 46L64 46L64 45L62 45L62 43L60 43L60 42L61 42L61 41L60 41L60 42L59 42L59 40L62 40L62 41L64 41L64 40L65 40L65 41L66 41L66 42L64 42L64 43L63 43L63 44L64 44L64 43L66 43L66 42L70 42L70 40L71 40L71 41L72 41L72 40L71 40L71 39L73 39L73 38L74 38L74 37L73 37L73 36L74 36L74 34L73 34L73 33L74 33L74 32L73 32L73 33L72 33L72 32L70 32L70 29L68 29L68 27L66 27L66 26L65 26L65 28L64 28L64 30L65 30L65 28L67 28L67 29L66 29L66 30L67 30L67 31L62 31L62 30L63 30L63 28L62 28L62 27L63 27L63 25L65 25L65 24L66 24L66 23L65 23L65 22L66 22L66 21L65 21L65 22L64 22L64 19L63 19L63 18L62 18L62 17L61 17L61 16L60 16L60 18L59 18L59 19L57 19L57 20L59 20L59 21L58 21L58 23L56 23L56 22L54 22L54 21L50 21L50 18L51 18L51 17L49 17L49 16L51 16L51 15L53 15L53 17L52 17L52 19L51 19L51 20L52 20L52 19L53 19L53 18L55 18L55 19L54 19L54 20L55 20L55 21L56 21L56 20L55 20L55 19L56 19L56 18L57 18L57 16L54 16L54 15L55 15L55 13L54 13L54 15L53 15L53 13L52 13L52 12L51 12L51 11L53 11L53 12L54 12L54 11L55 11L55 12L56 12L56 10L57 10L57 9L56 9L56 10L55 10L55 8L56 8L56 6L55 6L55 5L53 5L53 3ZM25 5L25 8L28 8L28 5ZM47 5L47 8L50 8L50 5ZM8 6L8 7L9 7L9 6ZM15 6L15 7L16 7L16 8L15 8L15 9L16 9L16 10L17 10L17 9L16 9L16 8L17 8L17 7L16 7L16 6ZM23 6L23 8L24 8L24 6ZM26 6L26 7L27 7L27 6ZM44 6L44 7L45 7L45 6ZM48 6L48 7L49 7L49 6ZM52 6L52 10L53 10L53 11L54 11L54 10L53 10L53 8L54 8L54 7L55 7L55 6L54 6L54 7L53 7L53 6ZM64 6L64 7L65 7L65 6ZM68 6L68 7L69 7L69 6ZM74 8L74 9L70 9L70 10L69 10L69 12L71 12L71 11L73 11L73 10L74 10L74 9L76 9L76 10L77 10L77 9L76 9L76 8ZM6 9L6 10L5 10L5 11L6 11L6 12L7 12L7 13L8 13L8 15L9 15L9 13L8 13L8 12L9 12L9 11L10 11L10 10L9 10L9 11L8 11L8 12L7 12L7 11L6 11L6 10L7 10L7 9ZM24 9L24 10L25 10L25 9ZM63 9L63 11L62 11L62 12L63 12L63 13L65 13L65 12L66 12L66 13L67 13L67 12L66 12L66 10L65 10L65 11L64 11L64 9ZM28 10L28 11L29 11L29 10ZM40 10L40 11L41 11L41 12L43 12L43 11L42 11L42 10ZM31 11L31 12L32 12L32 11ZM63 11L63 12L64 12L64 11ZM75 11L75 12L76 12L76 11ZM10 12L10 13L11 13L11 14L12 14L12 13L11 13L11 12ZM44 12L44 13L42 13L42 14L44 14L44 13L45 13L45 14L46 14L46 13L45 13L45 12ZM1 13L1 14L2 14L2 13ZM47 13L47 14L48 14L48 13ZM15 15L15 16L14 16L14 17L15 17L15 19L14 19L14 20L13 20L13 17L12 17L12 20L13 20L13 21L15 21L15 19L16 19L16 18L17 18L17 17L16 17L16 15ZM43 15L43 16L44 16L44 17L46 17L46 18L45 18L45 19L44 19L44 20L45 20L45 19L48 19L48 20L49 20L49 17L48 17L48 15L45 15L45 16L44 16L44 15ZM74 15L74 16L76 16L76 15ZM18 16L18 17L19 17L19 18L20 18L20 17L21 17L21 16ZM41 16L41 17L42 17L42 19L41 19L41 18L39 18L39 20L40 20L40 21L41 21L41 20L42 20L42 19L43 19L43 17L42 17L42 16ZM66 17L66 20L67 20L67 22L68 22L68 24L67 24L67 26L68 26L68 24L70 24L70 23L71 23L71 24L73 24L73 26L74 26L74 24L73 24L73 23L71 23L71 22L70 22L70 21L69 21L69 19L67 19L67 17ZM69 17L69 18L70 18L70 17ZM74 17L74 18L75 18L75 20L76 20L76 18L75 18L75 17ZM61 18L61 19L59 19L59 20L61 20L61 19L62 19L62 21L61 21L61 22L60 22L60 21L59 21L59 23L58 23L58 25L59 25L59 26L58 26L58 27L57 27L57 26L56 26L56 25L57 25L57 24L56 24L56 23L54 23L54 22L53 22L53 23L52 23L52 24L51 24L51 23L50 23L50 21L49 21L49 23L47 23L47 24L46 24L46 25L45 25L45 26L46 26L46 29L45 29L45 28L44 28L44 27L43 27L43 29L41 29L41 28L37 28L37 30L36 30L36 31L37 31L37 32L38 32L38 33L36 33L36 32L35 32L35 30L34 30L34 31L33 31L33 30L31 30L31 31L30 31L30 29L29 29L29 28L30 28L30 27L29 27L29 25L30 25L30 26L31 26L31 24L28 24L28 23L27 23L27 22L26 22L26 21L25 21L25 22L26 22L26 24L25 24L25 23L24 23L24 26L23 26L23 27L22 27L22 26L21 26L21 27L19 27L19 26L15 26L15 27L14 27L14 28L13 28L13 30L12 30L12 32L11 32L11 33L12 33L12 32L13 32L13 33L14 33L14 34L13 34L13 36L12 36L12 34L11 34L11 37L9 37L9 38L8 38L8 39L9 39L9 40L10 40L10 41L11 41L11 42L10 42L10 43L11 43L11 45L10 45L10 46L12 46L12 47L14 47L14 46L16 46L16 47L15 47L15 49L16 49L16 50L15 50L15 51L14 51L14 50L12 50L12 52L11 52L11 53L12 53L12 56L13 56L13 58L14 58L14 57L15 57L15 56L18 56L18 57L17 57L17 59L16 59L16 60L14 60L14 59L12 59L12 60L11 60L11 61L12 61L12 60L14 60L14 61L13 61L13 62L14 62L14 61L15 61L15 62L16 62L16 63L18 63L18 64L17 64L17 66L16 66L16 67L15 67L15 68L14 68L14 69L13 69L13 70L12 70L12 71L11 71L11 72L12 72L12 71L13 71L13 70L14 70L14 69L16 69L16 67L18 67L18 68L17 68L17 69L18 69L18 68L19 68L19 67L20 67L20 66L19 66L19 67L18 67L18 65L19 65L19 63L18 63L18 60L19 60L19 61L20 61L20 60L19 60L19 59L23 59L23 57L22 57L22 58L20 58L20 57L21 57L21 55L22 55L22 56L24 56L24 57L25 57L25 58L24 58L24 59L28 59L28 60L26 60L26 61L27 61L27 62L28 62L28 63L29 63L29 64L30 64L30 63L29 63L29 61L28 61L28 60L30 60L30 62L32 62L32 61L33 61L33 62L34 62L34 59L35 59L35 58L34 58L34 57L37 57L37 60L40 60L40 59L41 59L41 58L42 58L42 61L45 61L45 62L46 62L46 63L47 63L47 66L48 66L48 64L49 64L49 63L47 63L47 62L46 62L46 61L47 61L47 60L43 60L43 59L45 59L45 57L44 57L44 56L43 56L43 55L42 55L42 56L41 56L41 58L40 58L40 59L39 59L39 58L38 58L38 57L37 57L37 55L36 55L36 54L35 54L35 55L33 55L33 56L31 56L31 55L30 55L30 56L29 56L29 57L30 57L30 58L29 58L29 59L28 59L28 58L26 58L26 57L28 57L28 55L29 55L29 53L28 53L28 55L27 55L27 56L26 56L26 57L25 57L25 55L26 55L26 52L25 52L25 51L28 51L28 52L29 52L29 51L30 51L30 53L31 53L31 50L32 50L32 47L33 47L33 49L36 49L36 50L35 50L35 51L34 51L34 50L33 50L33 51L32 51L32 52L33 52L33 53L32 53L32 54L33 54L33 53L34 53L34 52L35 52L35 53L36 53L36 52L37 52L37 51L36 51L36 50L37 50L37 49L38 49L38 48L39 48L39 47L42 47L42 43L44 43L44 42L47 42L47 43L46 43L46 45L48 45L48 43L50 43L50 42L47 42L47 41L49 41L49 40L50 40L50 41L51 41L51 43L52 43L52 44L53 44L53 45L52 45L52 48L51 48L51 46L50 46L50 44L49 44L49 46L46 46L46 47L45 47L45 44L44 44L44 46L43 46L43 47L45 47L45 48L46 48L46 49L45 49L45 50L46 50L46 51L45 51L45 52L47 52L47 54L48 54L48 55L49 55L49 57L50 57L50 55L51 55L51 56L52 56L52 54L53 54L53 51L51 51L51 49L56 49L56 48L57 48L57 47L55 47L55 46L56 46L56 45L58 45L58 44L59 44L59 43L58 43L58 44L57 44L57 43L56 43L56 42L57 42L57 41L58 41L58 39L59 39L59 38L57 38L57 39L56 39L56 37L57 37L57 36L55 36L55 34L57 34L57 33L59 33L59 32L60 32L60 34L58 34L58 36L59 36L59 35L60 35L60 36L61 36L61 38L60 38L60 39L62 39L62 40L64 40L64 39L63 39L63 38L66 38L66 41L68 41L68 40L67 40L67 39L69 39L69 40L70 40L70 39L69 39L69 37L70 37L70 35L72 35L72 36L73 36L73 35L72 35L72 33L71 33L71 34L70 34L70 33L69 33L69 30L68 30L68 29L67 29L67 30L68 30L68 32L65 32L65 34L64 34L64 36L65 36L65 37L63 37L63 36L62 36L62 35L63 35L63 32L62 32L62 34L61 34L61 32L60 32L60 31L59 31L59 32L57 32L57 33L56 33L56 32L55 32L55 34L54 34L54 36L53 36L53 35L51 35L51 36L50 36L50 31L49 31L49 30L48 30L48 29L50 29L50 30L51 30L51 31L52 31L52 32L53 32L53 33L52 33L52 34L53 34L53 33L54 33L54 31L55 31L55 30L53 30L53 31L52 31L52 29L51 29L51 28L53 28L53 27L51 27L51 26L52 26L52 25L54 25L54 24L56 24L56 25L55 25L55 27L54 27L54 28L55 28L55 29L56 29L56 31L57 31L57 29L59 29L59 30L62 30L62 28L59 28L59 26L61 26L61 27L62 27L62 26L61 26L61 24L63 24L63 19L62 19L62 18ZM5 20L5 21L7 21L7 20ZM68 21L68 22L69 22L69 23L70 23L70 22L69 22L69 21ZM6 22L6 23L7 23L7 22ZM61 22L61 23L60 23L60 24L59 24L59 25L60 25L60 24L61 24L61 23L62 23L62 22ZM53 23L53 24L54 24L54 23ZM12 24L12 25L13 25L13 26L14 26L14 25L13 25L13 24ZM5 25L5 28L8 28L8 25ZM9 25L9 26L10 26L10 25ZM25 25L25 28L28 28L28 25ZM47 25L47 28L50 28L50 25ZM69 25L69 28L72 28L72 25ZM6 26L6 27L7 27L7 26ZM26 26L26 27L27 27L27 26ZM48 26L48 27L49 27L49 26ZM70 26L70 27L71 27L71 26ZM16 27L16 28L15 28L15 29L14 29L14 31L13 31L13 32L14 32L14 33L15 33L15 32L16 32L16 33L19 33L19 34L17 34L17 36L16 36L16 34L14 34L14 38L13 38L13 37L11 37L11 38L10 38L10 39L14 39L14 38L15 38L15 39L16 39L16 40L15 40L15 41L14 41L14 40L11 40L11 41L13 41L13 42L14 42L14 43L12 43L12 42L11 42L11 43L12 43L12 45L13 45L13 44L14 44L14 45L15 45L15 44L16 44L16 46L17 46L17 45L20 45L20 47L19 47L19 46L18 46L18 47L19 47L19 48L20 48L20 49L22 49L22 50L24 50L24 46L23 46L23 44L24 44L24 45L26 45L26 43L25 43L25 42L23 42L23 40L25 40L25 41L26 41L26 42L27 42L27 41L28 41L28 39L29 39L29 38L30 38L30 37L28 37L28 36L31 36L31 35L33 35L33 36L34 36L34 38L33 38L33 37L31 37L31 39L30 39L30 40L29 40L29 41L31 41L31 42L32 42L32 44L33 44L33 42L32 42L32 41L34 41L34 46L35 46L35 43L36 43L36 45L37 45L37 47L36 47L36 49L37 49L37 48L38 48L38 45L39 45L39 44L41 44L41 43L42 43L42 42L44 42L44 41L43 41L43 40L45 40L45 41L47 41L47 40L45 40L45 35L47 35L47 36L46 36L46 38L47 38L47 36L48 36L48 39L49 39L49 37L50 37L50 36L48 36L48 35L49 35L49 34L48 34L48 33L49 33L49 32L48 32L48 33L47 33L47 32L44 32L44 31L45 31L45 30L44 30L44 31L43 31L43 32L42 32L42 31L41 31L41 32L42 32L42 33L47 33L47 34L45 34L45 35L43 35L43 34L42 34L42 35L41 35L41 34L37 34L37 35L35 35L35 34L36 34L36 33L33 33L33 32L32 32L32 31L31 31L31 32L29 32L29 30L28 30L28 29L17 29L17 27ZM21 27L21 28L22 28L22 27ZM23 27L23 28L24 28L24 27ZM55 27L55 28L57 28L57 27ZM10 28L10 31L11 31L11 29L12 29L12 28ZM73 28L73 31L74 31L74 30L75 30L75 29L76 29L76 28L75 28L75 29L74 29L74 28ZM38 29L38 30L37 30L37 31L38 31L38 32L39 32L39 31L40 31L40 30L41 30L41 29L40 29L40 30L39 30L39 29ZM71 29L71 31L72 31L72 29ZM2 30L2 31L3 31L3 30ZM8 30L8 32L9 32L9 30ZM16 30L16 31L17 31L17 32L19 32L19 33L21 33L21 34L22 34L22 33L27 33L27 34L28 34L28 35L29 35L29 33L27 33L27 32L26 32L26 31L27 31L27 30L25 30L25 31L24 31L24 30L20 30L20 31L17 31L17 30ZM46 30L46 31L47 31L47 30ZM4 31L4 32L5 32L5 31ZM20 31L20 32L21 32L21 33L22 33L22 32L23 32L23 31ZM31 32L31 33L32 33L32 32ZM2 33L2 34L3 34L3 33ZM67 33L67 35L65 35L65 36L66 36L66 37L67 37L67 38L68 38L68 37L67 37L67 35L68 35L68 36L69 36L69 35L70 35L70 34L69 34L69 33ZM30 34L30 35L31 35L31 34ZM33 34L33 35L34 35L34 36L35 36L35 39L36 39L36 40L34 40L34 39L33 39L33 40L34 40L34 41L36 41L36 42L37 42L37 43L38 43L38 44L37 44L37 45L38 45L38 44L39 44L39 42L41 42L41 41L38 41L38 40L39 40L39 39L40 39L40 38L42 38L42 39L41 39L41 40L43 40L43 38L44 38L44 36L43 36L43 35L42 35L42 36L41 36L41 35L40 35L40 36L41 36L41 37L39 37L39 38L37 38L37 39L36 39L36 37L37 37L37 36L35 36L35 35L34 35L34 34ZM47 34L47 35L48 35L48 34ZM60 34L60 35L61 35L61 34ZM76 34L76 35L77 35L77 34ZM18 35L18 36L19 36L19 37L18 37L18 39L20 39L20 35ZM22 35L22 36L23 36L23 37L25 37L25 35L24 35L24 36L23 36L23 35ZM26 35L26 36L27 36L27 35ZM15 36L15 37L16 37L16 36ZM52 36L52 38L50 38L50 40L51 40L51 41L53 41L53 43L54 43L54 44L55 44L55 43L54 43L54 41L55 41L55 42L56 42L56 41L55 41L55 40L56 40L56 39L55 39L55 40L54 40L54 38L53 38L53 36ZM54 36L54 37L55 37L55 36ZM1 37L1 38L0 38L0 40L2 40L2 37ZM21 37L21 40L20 40L20 41L19 41L19 42L18 42L18 43L21 43L21 42L22 42L22 43L23 43L23 42L22 42L22 41L21 41L21 40L22 40L22 37ZM26 37L26 39L27 39L27 37ZM72 37L72 38L73 38L73 37ZM16 38L16 39L17 39L17 38ZM24 38L24 39L25 39L25 38ZM52 38L52 39L53 39L53 38ZM37 39L37 40L38 40L38 39ZM16 40L16 41L15 41L15 43L16 43L16 44L17 44L17 43L16 43L16 41L17 41L17 40ZM26 40L26 41L27 41L27 40ZM4 41L4 42L7 42L7 43L6 43L6 44L8 44L8 41ZM20 41L20 42L21 42L21 41ZM37 41L37 42L38 42L38 41ZM74 41L74 42L75 42L75 41ZM0 42L0 43L1 43L1 42ZM29 42L29 43L28 43L28 44L29 44L29 45L27 45L27 46L29 46L29 47L30 47L30 48L29 48L29 50L31 50L31 49L30 49L30 48L31 48L31 47L32 47L32 45L31 45L31 44L30 44L30 42ZM2 43L2 44L3 44L3 43ZM24 43L24 44L25 44L25 43ZM20 44L20 45L22 45L22 44ZM60 44L60 45L59 45L59 46L58 46L58 47L60 47L60 45L61 45L61 44ZM6 45L6 46L8 46L8 45ZM30 45L30 47L31 47L31 45ZM22 46L22 47L21 47L21 48L22 48L22 49L23 49L23 48L22 48L22 47L23 47L23 46ZM53 46L53 48L55 48L55 47L54 47L54 46ZM5 47L5 50L8 50L8 47ZM25 47L25 50L28 50L28 47ZM34 47L34 48L35 48L35 47ZM47 47L47 50L50 50L50 47ZM61 47L61 48L62 48L62 49L61 49L61 50L60 50L60 52L61 52L61 50L62 50L62 51L63 51L63 48L64 48L64 47ZM69 47L69 50L72 50L72 47ZM6 48L6 49L7 49L7 48ZM11 48L11 49L13 49L13 48ZM26 48L26 49L27 49L27 48ZM42 48L42 50L40 50L40 49L39 49L39 50L38 50L38 51L42 51L42 50L43 50L43 48ZM48 48L48 49L49 49L49 48ZM65 48L65 49L64 49L64 50L65 50L65 51L66 51L66 48ZM70 48L70 49L71 49L71 48ZM0 49L0 50L1 50L1 49ZM58 49L58 51L59 51L59 49ZM16 50L16 52L14 52L14 51L13 51L13 52L12 52L12 53L13 53L13 54L14 54L14 55L13 55L13 56L15 56L15 54L14 54L14 53L16 53L16 52L17 52L17 51L18 51L18 50ZM19 50L19 52L18 52L18 53L17 53L17 54L18 54L18 53L20 53L20 54L19 54L19 55L20 55L20 54L22 54L22 55L25 55L25 53L23 53L23 51L22 51L22 52L21 52L21 51L20 51L20 50ZM54 50L54 52L55 52L55 51L57 51L57 50ZM9 51L9 52L10 52L10 51ZM33 51L33 52L34 52L34 51ZM43 51L43 52L44 52L44 51ZM47 51L47 52L48 52L48 53L49 53L49 52L51 52L51 53L50 53L50 54L51 54L51 53L52 53L52 52L51 52L51 51L49 51L49 52L48 52L48 51ZM70 51L70 52L72 52L72 51ZM6 52L6 53L7 53L7 52ZM13 52L13 53L14 53L14 52ZM20 52L20 53L21 53L21 52ZM38 52L38 53L37 53L37 54L38 54L38 53L39 53L39 52ZM40 52L40 53L41 53L41 52ZM66 52L66 53L67 53L67 52ZM2 53L2 54L3 54L3 53ZM57 53L57 54L59 54L59 53ZM68 54L68 55L67 55L67 56L68 56L68 58L69 58L69 57L70 57L70 55L69 55L69 54ZM35 55L35 56L36 56L36 55ZM60 55L60 56L61 56L61 55ZM75 55L75 56L76 56L76 55ZM7 56L7 57L6 57L6 58L7 58L7 59L5 59L5 64L7 64L7 65L6 65L6 66L7 66L7 65L8 65L8 64L10 64L10 63L9 63L9 61L8 61L8 59L9 59L9 58L7 58L7 57L10 57L10 58L11 58L11 57L10 57L10 56ZM33 56L33 57L34 57L34 56ZM18 57L18 59L19 59L19 57ZM42 57L42 58L43 58L43 57ZM61 57L61 58L62 58L62 57ZM0 58L0 59L1 59L1 58ZM2 58L2 59L3 59L3 58ZM30 58L30 59L31 59L31 58ZM32 58L32 59L34 59L34 58ZM6 60L6 61L7 61L7 62L6 62L6 63L7 63L7 64L8 64L8 61L7 61L7 60ZM22 60L22 61L21 61L21 62L22 62L22 61L23 61L23 60ZM31 60L31 61L32 61L32 60ZM52 60L52 62L53 62L53 60ZM64 60L64 61L65 61L65 60ZM24 61L24 62L23 62L23 65L24 65L24 62L25 62L25 61ZM40 61L40 62L41 62L41 61ZM58 62L58 63L57 63L57 64L58 64L58 63L59 63L59 62ZM1 63L1 64L2 64L2 63ZM31 63L31 64L32 64L32 63ZM35 63L35 64L36 64L36 63ZM33 64L33 67L35 67L35 66L36 66L36 65L34 65L34 64ZM10 65L10 66L9 66L9 67L11 67L11 66L12 66L12 65ZM14 65L14 66L15 66L15 65ZM29 65L29 66L30 66L30 65ZM38 66L38 69L39 69L39 68L41 68L41 67L39 67L39 66ZM36 67L36 68L37 68L37 67ZM57 67L57 68L58 68L58 67ZM66 67L66 68L67 68L67 67ZM6 68L6 69L7 69L7 68ZM51 68L51 72L52 72L52 70L53 70L53 69L52 69L52 68ZM55 68L55 69L56 69L56 70L55 70L55 71L53 71L53 72L54 72L54 73L52 73L52 74L55 74L55 73L57 73L57 74L58 74L58 71L59 71L59 70L58 70L58 69L56 69L56 68ZM25 69L25 72L28 72L28 69ZM47 69L47 72L50 72L50 69ZM65 69L65 72L66 72L66 69ZM69 69L69 72L72 72L72 69ZM16 70L16 71L17 71L17 70ZM26 70L26 71L27 71L27 70ZM37 70L37 71L38 71L38 70ZM43 70L43 71L44 71L44 70ZM48 70L48 71L49 71L49 70ZM56 70L56 71L58 71L58 70ZM62 70L62 71L63 71L63 70ZM67 70L67 71L68 71L68 70ZM70 70L70 71L71 71L71 70ZM21 72L21 74L22 74L22 75L20 75L20 74L19 74L19 73L18 73L18 74L19 74L19 76L22 76L22 77L23 77L23 74L22 74L22 73L23 73L23 72ZM30 72L30 73L32 73L32 72ZM73 72L73 74L74 74L74 72ZM26 73L26 74L27 74L27 75L28 75L28 74L27 74L27 73ZM37 73L37 74L38 74L38 73ZM42 73L42 74L43 74L43 73ZM39 74L39 75L40 75L40 76L41 76L41 75L40 75L40 74ZM49 74L49 76L46 76L46 77L49 77L49 76L50 76L50 77L51 77L51 75L50 75L50 74ZM30 75L30 76L29 76L29 77L31 77L31 76L32 76L32 77L33 77L33 76L32 76L32 75ZM56 75L56 76L57 76L57 75ZM66 75L66 77L67 77L67 75ZM52 76L52 77L53 77L53 76ZM61 76L61 77L62 77L62 76ZM0 0L0 7L7 7L7 0ZM1 1L1 6L6 6L6 1ZM2 2L2 5L5 5L5 2ZM70 0L70 7L77 7L77 0ZM71 1L71 6L76 6L76 1ZM72 2L72 5L75 5L75 2ZM0 70L0 77L7 77L7 70ZM1 71L1 76L6 76L6 71ZM2 72L2 75L5 75L5 72Z" fill="#000000"/></g></g></svg>
