<?xml version="1.0" encoding="UTF-8"?>
<svg xmlns="http://www.w3.org/2000/svg" version="1.1" width="400" height="400" viewBox="0 0 400 400"><rect x="0" y="0" width="400" height="400" fill="#fefefe"/><g transform="scale(4.706)"><g transform="translate(4,4)"><path fill-rule="evenodd" d="M8 0L8 5L9 5L9 6L8 6L8 8L6 8L6 9L8 9L8 10L6 10L6 11L9 11L9 9L10 9L10 11L11 11L11 10L12 10L12 9L13 9L13 11L14 11L14 12L9 12L9 14L8 14L8 15L7 15L7 14L6 14L6 13L8 13L8 12L6 12L6 13L5 13L5 12L4 12L4 11L1 11L1 10L0 10L0 11L1 11L1 12L0 12L0 16L1 16L1 17L2 17L2 16L1 16L1 12L2 12L2 15L3 15L3 13L4 13L4 16L3 16L3 18L4 18L4 16L5 16L5 17L7 17L7 18L6 18L6 19L3 19L3 21L4 21L4 22L3 22L3 23L1 23L1 22L0 22L0 23L1 23L1 24L2 24L2 25L3 25L3 29L2 29L2 30L4 30L4 31L5 31L5 30L4 30L4 29L7 29L7 30L6 30L6 31L7 31L7 32L6 32L6 33L4 33L4 32L1 32L1 30L0 30L0 33L2 33L2 34L0 34L0 37L1 37L1 38L0 38L0 40L1 40L1 43L0 43L0 45L1 45L1 46L0 46L0 48L1 48L1 49L0 49L0 51L1 51L1 53L0 53L0 55L1 55L1 54L2 54L2 51L3 51L3 52L4 52L4 53L3 53L3 55L4 55L4 56L3 56L3 57L4 57L4 58L2 58L2 57L1 57L1 56L0 56L0 59L1 59L1 58L2 58L2 59L5 59L5 60L6 60L6 61L7 61L7 60L8 60L8 59L9 59L9 61L8 61L8 62L6 62L6 63L4 63L4 65L1 65L1 64L2 64L2 63L3 63L3 62L5 62L5 61L3 61L3 60L2 60L2 63L1 63L1 64L0 64L0 65L1 65L1 67L2 67L2 66L4 66L4 68L1 68L1 69L5 69L5 67L8 67L8 71L10 71L10 72L8 72L8 73L10 73L10 74L11 74L11 75L10 75L10 76L9 76L9 74L8 74L8 76L9 76L9 77L12 77L12 74L13 74L13 73L14 73L14 75L13 75L13 76L14 76L14 77L15 77L15 74L16 74L16 77L17 77L17 72L20 72L20 71L17 71L17 72L16 72L16 73L15 73L15 72L12 72L12 73L10 73L10 72L11 72L11 71L16 71L16 70L13 70L13 69L14 69L14 68L12 68L12 67L13 67L13 66L14 66L14 64L15 64L15 65L16 65L16 66L17 66L17 63L18 63L18 60L19 60L19 62L20 62L20 61L21 61L21 60L22 60L22 61L23 61L23 60L25 60L25 61L24 61L24 62L26 62L26 63L28 63L28 64L29 64L29 65L28 65L28 66L27 66L27 64L26 64L26 66L25 66L25 67L26 67L26 68L24 68L24 70L23 70L23 69L22 69L22 70L21 70L21 69L19 69L19 66L20 66L20 68L21 68L21 67L23 67L23 66L22 66L22 65L25 65L25 64L22 64L22 62L21 62L21 64L22 64L22 65L21 65L21 66L20 66L20 65L18 65L18 67L17 67L17 68L18 68L18 69L17 69L17 70L21 70L21 71L22 71L22 72L21 72L21 74L19 74L19 75L18 75L18 76L19 76L19 77L22 77L22 76L23 76L23 77L24 77L24 76L25 76L25 77L26 77L26 76L25 76L25 75L24 75L24 74L25 74L25 73L26 73L26 75L27 75L27 76L29 76L29 75L30 75L30 74L31 74L31 75L32 75L32 77L34 77L34 76L33 76L33 75L36 75L36 77L39 77L39 76L40 76L40 77L42 77L42 76L40 76L40 72L41 72L41 75L45 75L45 77L46 77L46 75L47 75L47 76L48 76L48 77L49 77L49 75L48 75L48 74L46 74L46 73L49 73L49 74L50 74L50 73L51 73L51 74L53 74L53 72L56 72L56 71L57 71L57 73L55 73L55 74L56 74L56 75L50 75L50 77L52 77L52 76L53 76L53 77L55 77L55 76L56 76L56 77L57 77L57 76L60 76L60 77L63 77L63 76L65 76L65 77L71 77L71 76L68 76L68 75L71 75L71 74L72 74L72 77L77 77L77 74L76 74L76 76L75 76L75 75L74 75L74 73L73 73L73 70L74 70L74 69L75 69L75 68L76 68L76 69L77 69L77 66L76 66L76 65L77 65L77 63L76 63L76 65L75 65L75 66L76 66L76 67L75 67L75 68L74 68L74 67L73 67L73 68L71 68L71 67L72 67L72 66L73 66L73 65L74 65L74 61L75 61L75 62L77 62L77 60L73 60L73 61L72 61L72 62L70 62L70 65L69 65L69 66L68 66L68 65L66 65L66 64L67 64L67 63L68 63L68 64L69 64L69 61L70 61L70 60L72 60L72 58L73 58L73 57L75 57L75 59L77 59L77 58L76 58L76 57L77 57L77 56L76 56L76 55L75 55L75 54L77 54L77 51L76 51L76 53L75 53L75 54L74 54L74 55L73 55L73 56L71 56L71 55L72 55L72 53L71 53L71 54L70 54L70 57L69 57L69 55L68 55L68 57L69 57L69 58L67 58L67 60L66 60L66 58L65 58L65 57L66 57L66 56L67 56L67 55L65 55L65 56L64 56L64 58L65 58L65 59L57 59L57 58L58 58L58 56L60 56L60 57L62 57L62 56L63 56L63 53L64 53L64 52L65 52L65 53L66 53L66 54L67 54L67 52L66 52L66 51L69 51L69 52L68 52L68 53L70 53L70 52L71 52L71 51L73 51L73 53L74 53L74 51L75 51L75 50L74 50L74 51L73 51L73 45L75 45L75 46L76 46L76 47L75 47L75 48L74 48L74 49L75 49L75 48L76 48L76 49L77 49L77 46L76 46L76 45L77 45L77 42L76 42L76 41L77 41L77 39L76 39L76 38L74 38L74 37L75 37L75 36L76 36L76 37L77 37L77 35L76 35L76 33L77 33L77 30L75 30L75 31L76 31L76 32L74 32L74 31L73 31L73 30L74 30L74 29L75 29L75 28L77 28L77 26L76 26L76 25L77 25L77 23L76 23L76 22L75 22L75 23L76 23L76 25L75 25L75 24L74 24L74 21L77 21L77 20L76 20L76 19L77 19L77 18L76 18L76 19L75 19L75 18L72 18L72 16L73 16L73 17L75 17L75 16L76 16L76 17L77 17L77 14L76 14L76 13L77 13L77 12L76 12L76 11L77 11L77 10L76 10L76 11L75 11L75 10L72 10L72 9L77 9L77 8L72 8L72 9L71 9L71 8L70 8L70 9L69 9L69 10L70 10L70 11L69 11L69 12L68 12L68 9L67 9L67 11L65 11L65 10L66 10L66 8L69 8L69 6L68 6L68 7L67 7L67 5L69 5L69 1L68 1L68 4L65 4L65 3L66 3L66 2L67 2L67 1L66 1L66 2L65 2L65 1L64 1L64 0L62 0L62 1L60 1L60 0L59 0L59 1L56 1L56 0L54 0L54 1L51 1L51 0L50 0L50 1L49 1L49 0L48 0L48 1L47 1L47 0L46 0L46 1L47 1L47 3L46 3L46 2L44 2L44 0L43 0L43 2L42 2L42 5L43 5L43 6L42 6L42 7L43 7L43 8L42 8L42 9L41 9L41 4L40 4L40 3L41 3L41 2L38 2L38 4L39 4L39 5L40 5L40 8L39 8L39 6L38 6L38 5L37 5L37 4L35 4L35 5L37 5L37 6L36 6L36 7L35 7L35 6L34 6L34 7L35 7L35 8L34 8L34 9L35 9L35 10L34 10L34 12L33 12L33 11L30 11L30 9L31 9L31 10L33 10L33 6L32 6L32 7L31 7L31 6L30 6L30 7L31 7L31 8L30 8L30 9L29 9L29 4L31 4L31 3L30 3L30 2L31 2L31 1L32 1L32 2L33 2L33 3L32 3L32 5L34 5L34 3L37 3L37 0L35 0L35 1L34 1L34 0L31 0L31 1L30 1L30 0L29 0L29 1L30 1L30 2L28 2L28 0L26 0L26 2L27 2L27 3L24 3L24 8L21 8L21 9L20 9L20 8L18 8L18 7L19 7L19 6L20 6L20 7L21 7L21 6L22 6L22 7L23 7L23 6L22 6L22 5L23 5L23 4L21 4L21 2L23 2L23 1L24 1L24 0L22 0L22 1L21 1L21 0L19 0L19 2L18 2L18 3L15 3L15 2L16 2L16 1L18 1L18 0L16 0L16 1L14 1L14 0L12 0L12 1L13 1L13 2L11 2L11 3L10 3L10 2L9 2L9 1L11 1L11 0ZM38 0L38 1L40 1L40 0ZM41 0L41 1L42 1L42 0ZM33 1L33 2L34 2L34 1ZM35 1L35 2L36 2L36 1ZM48 1L48 2L49 2L49 3L51 3L51 4L52 4L52 6L51 6L51 7L52 7L52 8L51 8L51 10L49 10L49 11L50 11L50 12L48 12L48 10L46 10L46 11L47 11L47 12L45 12L45 13L46 13L46 16L47 16L47 18L48 18L48 17L49 17L49 16L48 16L48 15L47 15L47 13L49 13L49 14L50 14L50 17L52 17L52 15L53 15L53 13L59 13L59 15L58 15L58 14L57 14L57 15L58 15L58 16L61 16L61 15L62 15L62 19L63 19L63 20L64 20L64 18L66 18L66 20L65 20L65 22L67 22L67 23L66 23L66 24L65 24L65 23L64 23L64 22L63 22L63 23L64 23L64 24L63 24L63 27L62 27L62 28L61 28L61 24L60 24L60 25L59 25L59 26L58 26L58 25L57 25L57 26L55 26L55 27L60 27L60 28L61 28L61 29L63 29L63 30L61 30L61 31L60 31L60 30L59 30L59 29L58 29L58 28L57 28L57 30L56 30L56 28L55 28L55 30L54 30L54 29L53 29L53 28L52 28L52 29L49 29L49 30L47 30L47 31L48 31L48 33L52 33L52 32L49 32L49 30L50 30L50 31L57 31L57 30L59 30L59 31L58 31L58 32L56 32L56 33L55 33L55 32L53 32L53 35L52 35L52 34L50 34L50 35L49 35L49 34L46 34L46 31L44 31L44 29L45 29L45 28L46 28L46 25L45 25L45 27L44 27L44 26L43 26L43 25L44 25L44 24L45 24L45 23L48 23L48 24L49 24L49 23L48 23L48 22L50 22L50 24L51 24L51 25L52 25L52 23L54 23L54 24L53 24L53 26L51 26L51 27L54 27L54 25L56 25L56 24L57 24L57 22L58 22L58 24L59 24L59 23L62 23L62 22L60 22L60 21L61 21L61 17L60 17L60 18L59 18L59 20L56 20L56 21L55 21L55 20L54 20L54 21L55 21L55 23L54 23L54 22L52 22L52 20L51 20L51 19L58 19L58 18L54 18L54 17L53 17L53 18L49 18L49 19L50 19L50 20L49 20L49 21L48 21L48 20L47 20L47 21L48 21L48 22L46 22L46 21L45 21L45 23L44 23L44 22L43 22L43 21L44 21L44 20L45 20L45 19L46 19L46 18L44 18L44 20L43 20L43 15L44 15L44 17L45 17L45 15L44 15L44 13L42 13L42 14L43 14L43 15L42 15L42 16L41 16L41 15L38 15L38 14L36 14L36 13L35 13L35 14L36 14L36 15L35 15L35 19L34 19L34 18L33 18L33 17L32 17L32 16L30 16L30 17L29 17L29 18L28 18L28 16L29 16L29 15L30 15L30 14L29 14L29 13L31 13L31 15L32 15L32 13L31 13L31 12L30 12L30 11L29 11L29 9L28 9L28 10L27 10L27 11L26 11L26 10L25 10L25 9L21 9L21 10L19 10L19 9L18 9L18 8L14 8L14 6L15 6L15 7L16 7L16 6L17 6L17 7L18 7L18 6L19 6L19 5L20 5L20 6L21 6L21 4L19 4L19 5L18 5L18 6L17 6L17 5L16 5L16 4L14 4L14 6L13 6L13 7L12 7L12 5L10 5L10 6L9 6L9 8L8 8L8 9L9 9L9 8L14 8L14 9L15 9L15 11L16 11L16 12L15 12L15 14L14 14L14 13L13 13L13 14L14 14L14 16L13 16L13 15L12 15L12 14L11 14L11 16L10 16L10 15L9 15L9 16L10 16L10 18L12 18L12 19L11 19L11 20L10 20L10 19L9 19L9 20L7 20L7 19L8 19L8 18L9 18L9 17L8 17L8 18L7 18L7 19L6 19L6 20L7 20L7 21L5 21L5 20L4 20L4 21L5 21L5 22L7 22L7 23L6 23L6 24L9 24L9 25L10 25L10 23L11 23L11 20L12 20L12 24L11 24L11 26L9 26L9 29L10 29L10 31L8 31L8 32L7 32L7 33L6 33L6 34L4 34L4 36L5 36L5 37L6 37L6 38L5 38L5 39L3 39L3 40L2 40L2 39L1 39L1 40L2 40L2 41L3 41L3 40L5 40L5 39L6 39L6 40L8 40L8 42L7 42L7 41L6 41L6 42L7 42L7 43L6 43L6 44L7 44L7 45L6 45L6 46L8 46L8 45L9 45L9 48L10 48L10 47L11 47L11 49L9 49L9 50L12 50L12 52L11 52L11 53L6 53L6 54L5 54L5 53L4 53L4 55L6 55L6 56L7 56L7 55L6 55L6 54L9 54L9 57L5 57L5 58L7 58L7 59L6 59L6 60L7 60L7 59L8 59L8 58L9 58L9 57L10 57L10 58L11 58L11 60L10 60L10 61L9 61L9 63L8 63L8 64L9 64L9 65L8 65L8 67L9 67L9 70L10 70L10 71L11 71L11 70L12 70L12 69L10 69L10 65L12 65L12 63L13 63L13 64L14 64L14 59L12 59L12 58L13 58L13 57L14 57L14 58L15 58L15 61L17 61L17 59L16 59L16 58L15 58L15 57L19 57L19 54L22 54L22 55L23 55L23 57L24 57L24 58L22 58L22 56L21 56L21 55L20 55L20 58L19 58L19 59L20 59L20 58L21 58L21 59L22 59L22 60L23 60L23 59L24 59L24 58L25 58L25 59L26 59L26 60L28 60L28 58L30 58L30 59L29 59L29 61L30 61L30 60L31 60L31 64L30 64L30 66L29 66L29 67L28 67L28 68L29 68L29 67L30 67L30 68L31 68L31 67L33 67L33 65L32 65L32 66L31 66L31 64L34 64L34 66L35 66L35 64L34 64L34 63L35 63L35 62L36 62L36 63L38 63L38 64L39 64L39 63L40 63L40 64L41 64L41 65L40 65L40 66L39 66L39 69L38 69L38 68L37 68L37 67L38 67L38 66L37 66L37 65L36 65L36 67L34 67L34 68L33 68L33 69L31 69L31 70L32 70L32 73L33 73L33 74L32 74L32 75L33 75L33 74L34 74L34 73L33 73L33 72L34 72L34 70L35 70L35 71L36 71L36 72L35 72L35 74L36 74L36 73L39 73L39 72L37 72L37 71L38 71L38 70L39 70L39 71L40 71L40 70L41 70L41 72L46 72L46 70L45 70L45 71L44 71L44 69L45 69L45 68L43 68L43 67L44 67L44 66L45 66L45 67L49 67L49 68L51 68L51 72L52 72L52 69L53 69L53 67L57 67L57 66L54 66L54 65L53 65L53 67L52 67L52 66L46 66L46 64L45 64L45 63L48 63L48 62L49 62L49 64L47 64L47 65L51 65L51 64L52 64L52 62L53 62L53 63L55 63L55 65L57 65L57 63L60 63L60 62L61 62L61 63L67 63L67 62L64 62L64 61L65 61L65 60L60 60L60 61L59 61L59 60L57 60L57 59L56 59L56 57L57 57L57 56L55 56L55 55L56 55L56 54L57 54L57 55L60 55L60 56L61 56L61 55L62 55L62 53L61 53L61 51L60 51L60 49L59 49L59 48L60 48L60 47L63 47L63 51L62 51L62 52L63 52L63 51L65 51L65 50L64 50L64 48L65 48L65 46L62 46L62 45L61 45L61 43L62 43L62 42L63 42L63 44L64 44L64 45L66 45L66 46L71 46L71 44L72 44L72 45L73 45L73 44L74 44L74 43L75 43L75 45L76 45L76 42L75 42L75 41L76 41L76 39L74 39L74 38L73 38L73 39L72 39L72 42L73 42L73 39L74 39L74 40L75 40L75 41L74 41L74 43L73 43L73 44L72 44L72 43L71 43L71 41L70 41L70 45L69 45L69 43L67 43L67 42L66 42L66 41L64 41L64 42L63 42L63 40L65 40L65 39L66 39L66 40L67 40L67 41L68 41L68 42L69 42L69 41L68 41L68 40L67 40L67 39L69 39L69 40L71 40L71 35L72 35L72 33L73 33L73 37L74 37L74 35L75 35L75 33L74 33L74 32L73 32L73 31L71 31L71 30L72 30L72 29L68 29L68 30L69 30L69 31L66 31L66 30L67 30L67 29L66 29L66 30L65 30L65 27L64 27L64 26L68 26L68 24L71 24L71 22L67 22L67 21L69 21L69 20L71 20L71 19L72 19L72 22L73 22L73 21L74 21L74 20L75 20L75 19L74 19L74 20L73 20L73 19L72 19L72 18L70 18L70 14L71 14L71 13L68 13L68 12L67 12L67 13L68 13L68 14L69 14L69 16L66 16L66 17L65 17L65 16L64 16L64 17L63 17L63 15L66 15L66 14L64 14L64 13L65 13L65 11L64 11L64 9L63 9L63 7L64 7L64 8L65 8L65 7L66 7L66 6L65 6L65 7L64 7L64 6L63 6L63 7L62 7L62 5L63 5L63 4L64 4L64 3L65 3L65 2L61 2L61 7L62 7L62 8L61 8L61 9L62 9L62 10L57 10L57 7L58 7L58 9L59 9L59 7L60 7L60 6L59 6L59 5L56 5L56 6L55 6L55 8L56 8L56 9L55 9L55 11L54 11L54 10L53 10L53 9L52 9L52 8L53 8L53 7L54 7L54 6L53 6L53 5L54 5L54 4L53 4L53 3L55 3L55 4L56 4L56 3L58 3L58 4L59 4L59 3L60 3L60 2L53 2L53 3L52 3L52 2L51 2L51 1L50 1L50 2L49 2L49 1ZM43 2L43 3L44 3L44 6L43 6L43 7L44 7L44 9L45 9L45 7L46 7L46 6L45 6L45 3L44 3L44 2ZM11 3L11 4L12 4L12 3ZM27 3L27 4L28 4L28 3ZM15 5L15 6L16 6L16 5ZM25 5L25 8L28 8L28 5ZM47 5L47 8L50 8L50 5ZM10 6L10 7L11 7L11 6ZM26 6L26 7L27 7L27 6ZM37 6L37 7L36 7L36 8L37 8L37 9L36 9L36 10L35 10L35 12L36 12L36 10L37 10L37 12L38 12L38 13L40 13L40 12L38 12L38 11L42 11L42 12L44 12L44 11L43 11L43 10L40 10L40 9L39 9L39 8L37 8L37 7L38 7L38 6ZM44 6L44 7L45 7L45 6ZM48 6L48 7L49 7L49 6ZM52 6L52 7L53 7L53 6ZM56 6L56 7L57 7L57 6ZM58 6L58 7L59 7L59 6ZM1 8L1 9L2 9L2 10L5 10L5 8L4 8L4 9L3 9L3 8ZM31 8L31 9L32 9L32 8ZM17 9L17 10L18 10L18 11L19 11L19 12L18 12L18 14L17 14L17 13L16 13L16 14L15 14L15 15L16 15L16 14L17 14L17 15L20 15L20 14L21 14L21 15L22 15L22 16L21 16L21 17L20 17L20 16L19 16L19 18L18 18L18 17L17 17L17 16L15 16L15 17L17 17L17 19L15 19L15 18L13 18L13 19L15 19L15 21L14 21L14 20L13 20L13 21L14 21L14 22L13 22L13 24L14 24L14 23L17 23L17 21L18 21L18 20L17 20L17 19L19 19L19 20L20 20L20 23L19 23L19 22L18 22L18 24L20 24L20 23L22 23L22 24L21 24L21 26L20 26L20 25L18 25L18 28L17 28L17 24L15 24L15 25L16 25L16 28L15 28L15 27L13 27L13 26L12 26L12 27L10 27L10 29L11 29L11 28L12 28L12 27L13 27L13 28L15 28L15 29L14 29L14 30L13 30L13 29L12 29L12 30L11 30L11 34L10 34L10 35L11 35L11 36L12 36L12 37L11 37L11 39L10 39L10 38L9 38L9 37L10 37L10 36L9 36L9 37L8 37L8 36L6 36L6 35L9 35L9 33L10 33L10 32L8 32L8 33L7 33L7 34L6 34L6 35L5 35L5 36L6 36L6 37L7 37L7 38L6 38L6 39L7 39L7 38L8 38L8 40L9 40L9 42L10 42L10 43L8 43L8 44L10 44L10 46L11 46L11 47L12 47L12 48L13 48L13 49L14 49L14 51L15 51L15 49L16 49L16 50L17 50L17 51L16 51L16 52L15 52L15 53L14 53L14 52L13 52L13 53L11 53L11 54L10 54L10 57L11 57L11 58L12 58L12 57L13 57L13 56L12 56L12 54L13 54L13 53L14 53L14 54L16 54L16 52L17 52L17 51L18 51L18 50L19 50L19 49L20 49L20 50L21 50L21 49L20 49L20 48L21 48L21 47L22 47L22 46L23 46L23 45L25 45L25 46L24 46L24 48L23 48L23 49L22 49L22 50L23 50L23 51L21 51L21 52L20 52L20 51L19 51L19 52L20 52L20 53L22 53L22 54L23 54L23 53L24 53L24 52L23 52L23 51L25 51L25 53L26 53L26 52L27 52L27 51L28 51L28 53L27 53L27 54L26 54L26 55L27 55L27 56L26 56L26 57L27 57L27 58L28 58L28 57L27 57L27 56L28 56L28 55L30 55L30 56L29 56L29 57L30 57L30 56L32 56L32 57L31 57L31 59L32 59L32 61L33 61L33 63L34 63L34 60L35 60L35 61L36 61L36 62L39 62L39 60L40 60L40 59L41 59L41 58L42 58L42 60L41 60L41 61L42 61L42 63L43 63L43 62L44 62L44 63L45 63L45 62L44 62L44 61L42 61L42 60L47 60L47 61L48 61L48 60L49 60L49 62L50 62L50 61L52 61L52 60L54 60L54 59L55 59L55 56L54 56L54 55L55 55L55 53L56 53L56 52L57 52L57 53L58 53L58 54L59 54L59 52L58 52L58 50L57 50L57 49L58 49L58 47L57 47L57 46L61 46L61 45L59 45L59 43L58 43L58 42L56 42L56 43L57 43L57 44L54 44L54 43L55 43L55 42L54 42L54 41L56 41L56 40L55 40L55 38L56 38L56 39L57 39L57 40L59 40L59 39L57 39L57 37L58 37L58 38L59 38L59 36L60 36L60 37L61 37L61 38L64 38L64 39L65 39L65 38L66 38L66 37L65 37L65 36L66 36L66 35L68 35L68 36L67 36L67 38L68 38L68 36L69 36L69 37L70 37L70 35L71 35L71 34L68 34L68 32L66 32L66 31L63 31L63 32L62 32L62 31L61 31L61 32L60 32L60 31L59 31L59 32L58 32L58 33L59 33L59 32L60 32L60 33L62 33L62 34L63 34L63 32L64 32L64 34L66 34L66 35L65 35L65 36L64 36L64 35L61 35L61 34L60 34L60 35L59 35L59 34L57 34L57 35L56 35L56 36L55 36L55 34L54 34L54 35L53 35L53 37L52 37L52 39L53 39L53 40L50 40L50 41L49 41L49 39L50 39L50 38L49 38L49 37L48 37L48 36L49 36L49 35L46 35L46 34L45 34L45 33L44 33L44 31L43 31L43 30L42 30L42 25L43 25L43 24L44 24L44 23L43 23L43 24L42 24L42 22L40 22L40 20L41 20L41 21L42 21L42 19L41 19L41 17L40 17L40 16L39 16L39 17L40 17L40 19L39 19L39 18L37 18L37 19L36 19L36 21L35 21L35 20L34 20L34 19L33 19L33 18L31 18L31 19L32 19L32 21L31 21L31 20L30 20L30 18L29 18L29 19L27 19L27 20L28 20L28 22L29 22L29 23L33 23L33 25L34 25L34 27L35 27L35 24L34 24L34 23L33 23L33 22L35 22L35 23L37 23L37 22L38 22L38 24L36 24L36 26L37 26L37 25L38 25L38 26L39 26L39 27L40 27L40 28L38 28L38 30L37 30L37 29L36 29L36 30L35 30L35 29L33 29L33 26L32 26L32 24L31 24L31 25L30 25L30 26L29 26L29 24L25 24L25 23L26 23L26 22L27 22L27 21L25 21L25 23L24 23L24 22L22 22L22 20L21 20L21 19L22 19L22 16L23 16L23 19L25 19L25 20L26 20L26 18L27 18L27 16L28 16L28 15L29 15L29 14L28 14L28 12L29 12L29 11L27 11L27 12L26 12L26 11L25 11L25 12L24 12L24 13L26 13L26 14L25 14L25 15L26 15L26 14L28 14L28 15L27 15L27 16L24 16L24 14L23 14L23 13L22 13L22 12L23 12L23 11L22 11L22 10L21 10L21 11L19 11L19 10L18 10L18 9ZM38 9L38 10L39 10L39 9ZM56 10L56 11L55 11L55 12L58 12L58 11L57 11L57 10ZM62 10L62 11L59 11L59 13L60 13L60 12L63 12L63 10ZM71 10L71 11L70 11L70 12L71 12L71 11L72 11L72 14L73 14L73 13L74 13L74 15L73 15L73 16L75 16L75 15L76 15L76 14L75 14L75 11L74 11L74 12L73 12L73 11L72 11L72 10ZM21 11L21 12L20 12L20 13L19 13L19 14L20 14L20 13L21 13L21 14L22 14L22 13L21 13L21 12L22 12L22 11ZM51 11L51 13L52 13L52 12L54 12L54 11ZM33 13L33 14L34 14L34 13ZM61 13L61 14L60 14L60 15L61 15L61 14L63 14L63 13ZM55 14L55 15L54 15L54 16L56 16L56 14ZM5 15L5 16L7 16L7 15ZM33 15L33 16L34 16L34 15ZM71 15L71 16L72 16L72 15ZM11 16L11 17L13 17L13 16ZM37 16L37 17L38 17L38 16ZM25 17L25 18L26 18L26 17ZM68 17L68 18L67 18L67 20L66 20L66 21L67 21L67 20L69 20L69 19L70 19L70 18L69 18L69 17ZM1 19L1 20L0 20L0 21L2 21L2 19ZM9 20L9 22L10 22L10 20ZM23 20L23 21L24 21L24 20ZM29 20L29 22L30 22L30 20ZM33 20L33 21L32 21L32 22L33 22L33 21L34 21L34 20ZM37 20L37 21L36 21L36 22L37 22L37 21L38 21L38 20ZM7 21L7 22L8 22L8 21ZM15 21L15 22L16 22L16 21ZM39 22L39 24L38 24L38 25L39 25L39 24L41 24L41 23L40 23L40 22ZM3 23L3 25L4 25L4 23ZM23 23L23 24L22 24L22 25L24 25L24 23ZM55 23L55 24L56 24L56 23ZM67 23L67 24L66 24L66 25L67 25L67 24L68 24L68 23ZM73 24L73 25L74 25L74 27L73 27L73 28L74 28L74 27L75 27L75 25L74 25L74 24ZM5 25L5 28L8 28L8 25ZM25 25L25 28L28 28L28 25ZM40 25L40 27L41 27L41 25ZM47 25L47 28L50 28L50 25ZM69 25L69 28L72 28L72 25ZM1 26L1 27L2 27L2 26ZM6 26L6 27L7 27L7 26ZM19 26L19 27L20 27L20 26ZM21 26L21 27L22 27L22 28L19 28L19 29L18 29L18 30L19 30L19 31L16 31L16 29L17 29L17 28L16 28L16 29L15 29L15 30L14 30L14 31L13 31L13 30L12 30L12 32L14 32L14 33L13 33L13 35L15 35L15 36L16 36L16 34L14 34L14 33L17 33L17 35L19 35L19 34L20 34L20 32L19 32L19 31L21 31L21 30L22 30L22 32L21 32L21 33L22 33L22 34L21 34L21 37L20 37L20 36L19 36L19 37L18 37L18 36L17 36L17 37L18 37L18 39L16 39L16 40L13 40L13 38L12 38L12 40L10 40L10 39L9 39L9 40L10 40L10 42L12 42L12 43L10 43L10 44L11 44L11 46L12 46L12 47L13 47L13 45L12 45L12 44L14 44L14 46L15 46L15 47L14 47L14 49L15 49L15 48L16 48L16 49L17 49L17 50L18 50L18 49L17 49L17 47L19 47L19 46L20 46L20 47L21 47L21 46L20 46L20 44L22 44L22 45L23 45L23 44L26 44L26 45L27 45L27 44L28 44L28 43L27 43L27 44L26 44L26 43L25 43L25 42L26 42L26 41L27 41L27 42L30 42L30 43L31 43L31 41L29 41L29 40L30 40L30 38L29 38L29 39L28 39L28 38L25 38L25 37L27 37L27 36L26 36L26 35L27 35L27 33L26 33L26 35L23 35L23 33L24 33L24 32L23 32L23 30L22 30L22 28L23 28L23 27L24 27L24 26ZM26 26L26 27L27 27L27 26ZM31 26L31 31L29 31L29 33L30 33L30 34L28 34L28 37L30 37L30 36L29 36L29 35L31 35L31 33L32 33L32 36L31 36L31 37L32 37L32 38L31 38L31 40L32 40L32 38L33 38L33 37L32 37L32 36L35 36L35 34L37 34L37 33L38 33L38 34L39 34L39 35L38 35L38 36L37 36L37 35L36 35L36 37L35 37L35 38L39 38L39 40L40 40L40 41L41 41L41 42L40 42L40 43L41 43L41 44L38 44L38 43L39 43L39 41L38 41L38 43L36 43L36 44L38 44L38 45L40 45L40 46L39 46L39 47L38 47L38 46L37 46L37 45L35 45L35 46L32 46L32 45L34 45L34 44L35 44L35 43L33 43L33 42L34 42L34 40L33 40L33 42L32 42L32 45L31 45L31 44L29 44L29 45L31 45L31 46L32 46L32 47L30 47L30 46L29 46L29 47L30 47L30 48L31 48L31 50L29 50L29 52L30 52L30 53L29 53L29 54L30 54L30 53L31 53L31 54L33 54L33 55L32 55L32 56L33 56L33 57L32 57L32 59L33 59L33 57L34 57L34 56L33 56L33 55L36 55L36 56L35 56L35 58L34 58L34 59L35 59L35 60L36 60L36 59L38 59L38 60L37 60L37 61L38 61L38 60L39 60L39 59L38 59L38 58L39 58L39 57L42 57L42 58L43 58L43 59L44 59L44 57L45 57L45 58L46 58L46 59L49 59L49 56L52 56L52 57L50 57L50 59L54 59L54 58L53 58L53 55L54 55L54 53L55 53L55 51L57 51L57 50L56 50L56 49L57 49L57 47L56 47L56 46L57 46L57 45L56 45L56 46L54 46L54 45L53 45L53 47L52 47L52 46L51 46L51 45L52 45L52 44L53 44L53 43L54 43L54 42L53 42L53 41L52 41L52 42L51 42L51 43L52 43L52 44L51 44L51 45L50 45L50 43L48 43L48 42L49 42L49 41L48 41L48 42L47 42L47 43L48 43L48 44L49 44L49 45L48 45L48 46L51 46L51 47L52 47L52 48L51 48L51 51L52 51L52 52L50 52L50 51L48 51L48 52L47 52L47 55L48 55L48 56L47 56L47 57L46 57L46 56L43 56L43 54L44 54L44 53L43 53L43 52L41 52L41 51L40 51L40 50L37 50L37 51L39 51L39 54L40 54L40 52L41 52L41 56L38 56L38 54L36 54L36 53L37 53L37 52L36 52L36 49L37 49L37 47L38 47L38 48L39 48L39 49L41 49L41 50L42 50L42 51L43 51L43 50L42 50L42 49L41 49L41 48L40 48L40 47L42 47L42 48L46 48L46 46L47 46L47 45L45 45L45 43L44 43L44 41L45 41L45 39L44 39L44 40L43 40L43 41L42 41L42 40L41 40L41 39L40 39L40 38L41 38L41 37L42 37L42 36L43 36L43 35L44 35L44 37L45 37L45 35L44 35L44 34L43 34L43 35L40 35L40 31L41 31L41 34L42 34L42 33L43 33L43 31L41 31L41 30L40 30L40 31L39 31L39 33L38 33L38 31L37 31L37 30L36 30L36 31L35 31L35 32L34 32L34 30L33 30L33 29L32 29L32 26ZM48 26L48 27L49 27L49 26ZM70 26L70 27L71 27L71 26ZM36 27L36 28L37 28L37 27ZM66 27L66 28L67 28L67 27ZM40 28L40 29L41 29L41 28ZM43 28L43 29L44 29L44 28ZM63 28L63 29L64 29L64 28ZM24 29L24 31L25 31L25 29ZM26 29L26 30L28 30L28 29ZM29 29L29 30L30 30L30 29ZM32 30L32 32L33 32L33 30ZM14 31L14 32L15 32L15 31ZM36 31L36 32L35 32L35 33L33 33L33 34L35 34L35 33L37 33L37 31ZM70 31L70 32L69 32L69 33L71 33L71 31ZM22 32L22 33L23 33L23 32ZM18 33L18 34L19 34L19 33ZM66 33L66 34L67 34L67 33ZM2 34L2 35L1 35L1 36L2 36L2 38L3 38L3 34ZM50 35L50 36L51 36L51 35ZM58 35L58 36L59 36L59 35ZM60 35L60 36L61 36L61 35ZM22 36L22 37L23 37L23 38L22 38L22 39L24 39L24 40L23 40L23 41L22 41L22 42L20 42L20 40L21 40L21 38L19 38L19 39L20 39L20 40L19 40L19 42L18 42L18 44L17 44L17 41L15 41L15 42L13 42L13 40L12 40L12 42L13 42L13 43L15 43L15 44L16 44L16 45L15 45L15 46L16 46L16 47L17 47L17 45L18 45L18 44L20 44L20 43L23 43L23 41L26 41L26 40L28 40L28 39L25 39L25 38L24 38L24 36ZM38 36L38 37L40 37L40 36ZM46 36L46 38L47 38L47 39L46 39L46 41L47 41L47 40L48 40L48 39L49 39L49 38L47 38L47 36ZM54 36L54 37L53 37L53 39L54 39L54 37L55 37L55 36ZM62 36L62 37L64 37L64 36ZM14 37L14 39L15 39L15 37ZM42 38L42 39L43 39L43 38ZM35 39L35 42L37 42L37 40L36 40L36 39ZM61 39L61 41L60 41L60 42L62 42L62 39ZM2 42L2 43L1 43L1 44L2 44L2 46L1 46L1 48L2 48L2 46L3 46L3 44L5 44L5 43L4 43L4 42ZM15 42L15 43L16 43L16 42ZM19 42L19 43L20 43L20 42ZM41 42L41 43L42 43L42 44L41 44L41 46L42 46L42 47L43 47L43 45L44 45L44 47L45 47L45 45L44 45L44 44L43 44L43 43L42 43L42 42ZM64 43L64 44L67 44L67 43ZM4 45L4 46L5 46L5 45ZM35 46L35 47L34 47L34 48L33 48L33 49L32 49L32 50L31 50L31 51L32 51L32 52L33 52L33 53L34 53L34 54L35 54L35 53L36 53L36 52L35 52L35 51L34 51L34 52L33 52L33 50L35 50L35 49L36 49L36 47L37 47L37 46ZM3 47L3 49L2 49L2 50L1 50L1 51L2 51L2 50L4 50L4 47ZM5 47L5 50L8 50L8 47ZM25 47L25 50L28 50L28 47ZM47 47L47 50L50 50L50 47ZM53 47L53 48L52 48L52 49L53 49L53 50L52 50L52 51L53 51L53 53L52 53L52 55L53 55L53 53L54 53L54 51L53 51L53 50L54 50L54 48L55 48L55 47ZM67 47L67 48L66 48L66 49L67 49L67 48L68 48L68 47ZM69 47L69 50L72 50L72 47ZM6 48L6 49L7 49L7 48ZM26 48L26 49L27 49L27 48ZM48 48L48 49L49 49L49 48ZM70 48L70 49L71 49L71 48ZM44 49L44 50L45 50L45 49ZM61 49L61 50L62 50L62 49ZM6 51L6 52L7 52L7 51ZM44 51L44 52L45 52L45 53L46 53L46 51ZM22 52L22 53L23 53L23 52ZM48 52L48 53L49 53L49 54L51 54L51 53L49 53L49 52ZM17 53L17 55L16 55L16 56L18 56L18 54L19 54L19 53ZM42 53L42 54L43 54L43 53ZM24 54L24 56L25 56L25 54ZM27 54L27 55L28 55L28 54ZM45 54L45 55L46 55L46 54ZM60 54L60 55L61 55L61 54ZM14 55L14 57L15 57L15 55ZM11 56L11 57L12 57L12 56ZM36 56L36 57L37 57L37 58L38 58L38 56ZM42 56L42 57L43 57L43 56ZM75 56L75 57L76 57L76 56ZM70 57L70 58L69 58L69 59L68 59L68 60L67 60L67 61L69 61L69 60L70 60L70 58L72 58L72 57ZM0 60L0 62L1 62L1 60ZM11 60L11 61L10 61L10 62L12 62L12 60ZM55 60L55 62L56 62L56 63L57 63L57 62L56 62L56 61L57 61L57 60ZM26 61L26 62L28 62L28 61ZM61 61L61 62L62 62L62 61ZM29 62L29 63L30 63L30 62ZM6 63L6 64L7 64L7 63ZM9 63L9 64L10 64L10 63ZM72 63L72 64L73 64L73 63ZM44 64L44 65L45 65L45 64ZM62 64L62 65L61 65L61 66L60 66L60 65L59 65L59 67L58 67L58 68L56 68L56 69L55 69L55 68L54 68L54 70L53 70L53 71L54 71L54 70L55 70L55 71L56 71L56 70L57 70L57 69L58 69L58 72L59 72L59 71L62 71L62 72L63 72L63 74L61 74L61 72L60 72L60 73L59 73L59 74L58 74L58 73L57 73L57 75L60 75L60 76L61 76L61 75L65 75L65 73L67 73L67 75L66 75L66 76L67 76L67 75L68 75L68 73L67 73L67 72L68 72L68 66L65 66L65 64L64 64L64 65L63 65L63 64ZM5 65L5 66L7 66L7 65ZM41 65L41 66L40 66L40 67L41 67L41 66L42 66L42 67L43 67L43 65ZM30 66L30 67L31 67L31 66ZM62 66L62 67L61 67L61 68L60 68L60 67L59 67L59 69L60 69L60 70L62 70L62 71L63 71L63 70L64 70L64 71L65 71L65 72L66 72L66 71L65 71L65 70L66 70L66 69L65 69L65 68L66 68L66 67L63 67L63 66ZM69 66L69 68L70 68L70 66ZM51 67L51 68L52 68L52 67ZM6 68L6 69L7 69L7 68ZM34 68L34 69L35 69L35 68ZM36 68L36 69L37 69L37 70L36 70L36 71L37 71L37 70L38 70L38 69L37 69L37 68ZM40 68L40 69L39 69L39 70L40 70L40 69L41 69L41 70L42 70L42 69L43 69L43 68L42 68L42 69L41 69L41 68ZM63 68L63 69L64 69L64 68ZM25 69L25 72L28 72L28 69ZM47 69L47 72L50 72L50 69ZM69 69L69 72L72 72L72 69ZM22 70L22 71L23 71L23 72L22 72L22 74L23 74L23 73L24 73L24 71L23 71L23 70ZM26 70L26 71L27 71L27 70ZM48 70L48 71L49 71L49 70ZM70 70L70 71L71 71L71 70ZM75 70L75 71L74 71L74 72L75 72L75 71L76 71L76 73L77 73L77 71L76 71L76 70ZM30 71L30 72L29 72L29 73L28 73L28 74L27 74L27 75L29 75L29 74L30 74L30 72L31 72L31 71ZM70 73L70 74L71 74L71 73ZM45 74L45 75L46 75L46 74ZM60 74L60 75L61 75L61 74ZM19 75L19 76L21 76L21 75ZM73 75L73 76L74 76L74 75ZM30 76L30 77L31 77L31 76ZM43 76L43 77L44 77L44 76ZM0 0L0 7L7 7L7 0ZM1 1L1 6L6 6L6 1ZM2 2L2 5L5 5L5 2ZM70 0L70 7L77 7L77 0ZM71 1L71 6L76 6L76 1ZM72 2L72 5L75 5L75 2ZM0 70L0 77L7 77L7 70ZM1 71L1 76L6 76L6 71ZM2 72L2 75L5 75L5 72Z" fill="#000000"/></g></g></svg>
