<?xml version="1.0" encoding="UTF-8"?>
<svg xmlns="http://www.w3.org/2000/svg" version="1.1" width="400" height="400" viewBox="0 0 400 400"><rect x="0" y="0" width="400" height="400" fill="#fefefe"/><g transform="scale(4.706)"><g transform="translate(4,4)"><path fill-rule="evenodd" d="M10 0L10 1L8 1L8 3L9 3L9 6L8 6L8 7L9 7L9 6L10 6L10 8L11 8L11 6L12 6L12 10L13 10L13 11L14 11L14 12L12 12L12 13L13 13L13 14L10 14L10 13L11 13L11 12L10 12L10 11L11 11L11 9L9 9L9 10L8 10L8 11L9 11L9 12L10 12L10 13L9 13L9 14L10 14L10 16L11 16L11 17L10 17L10 18L13 18L13 20L12 20L12 19L11 19L11 22L10 22L10 20L9 20L9 19L8 19L8 18L9 18L9 17L8 17L8 18L6 18L6 17L7 17L7 16L8 16L8 15L7 15L7 14L6 14L6 15L5 15L5 14L4 14L4 12L5 12L5 13L8 13L8 12L5 12L5 11L7 11L7 10L6 10L6 9L7 9L7 8L5 8L5 11L4 11L4 8L1 8L1 9L0 9L0 11L3 11L3 13L2 13L2 12L0 12L0 13L1 13L1 16L0 16L0 17L1 17L1 16L2 16L2 15L3 15L3 16L4 16L4 17L5 17L5 18L3 18L3 21L5 21L5 23L3 23L3 22L2 22L2 20L1 20L1 19L0 19L0 20L1 20L1 21L0 21L0 22L2 22L2 23L1 23L1 24L3 24L3 25L1 25L1 26L0 26L0 28L1 28L1 29L3 29L3 32L2 32L2 34L0 34L0 36L1 36L1 37L2 37L2 38L3 38L3 41L1 41L1 42L0 42L0 43L1 43L1 42L2 42L2 45L4 45L4 46L2 46L2 47L1 47L1 46L0 46L0 48L1 48L1 49L0 49L0 53L2 53L2 55L4 55L4 53L5 53L5 52L4 52L4 53L3 53L3 52L2 52L2 51L7 51L7 52L6 52L6 53L7 53L7 52L8 52L8 53L9 53L9 57L7 57L7 56L8 56L8 54L6 54L6 55L5 55L5 57L3 57L3 56L2 56L2 57L1 57L1 56L0 56L0 60L1 60L1 61L0 61L0 64L3 64L3 62L4 62L4 61L3 61L3 60L6 60L6 61L5 61L5 62L6 62L6 63L7 63L7 62L6 62L6 61L7 61L7 60L6 60L6 59L8 59L8 58L9 58L9 57L10 57L10 54L13 54L13 55L11 55L11 57L12 57L12 56L15 56L15 57L14 57L14 58L13 58L13 59L12 59L12 58L11 58L11 59L12 59L12 60L11 60L11 61L12 61L12 63L9 63L9 61L10 61L10 59L9 59L9 61L8 61L8 63L9 63L9 64L5 64L5 63L4 63L4 64L5 64L5 65L7 65L7 66L4 66L4 65L1 65L1 67L2 67L2 66L4 66L4 68L1 68L1 69L5 69L5 67L7 67L7 66L8 66L8 68L6 68L6 69L8 69L8 70L9 70L9 71L8 71L8 72L9 72L9 71L16 71L16 72L15 72L15 73L12 73L12 72L11 72L11 73L10 73L10 74L11 74L11 73L12 73L12 75L9 75L9 73L8 73L8 76L11 76L11 77L12 77L12 75L13 75L13 77L15 77L15 76L14 76L14 75L15 75L15 74L16 74L16 72L17 72L17 73L18 73L18 74L17 74L17 75L18 75L18 77L23 77L23 76L24 76L24 73L25 73L25 77L26 77L26 73L30 73L30 72L29 72L29 68L30 68L30 67L31 67L31 65L30 65L30 64L29 64L29 62L28 62L28 66L26 66L26 67L25 67L25 66L24 66L24 64L27 64L27 63L26 63L26 60L27 60L27 61L29 61L29 59L30 59L30 62L31 62L31 64L34 64L34 62L35 62L35 64L36 64L36 65L37 65L37 63L39 63L39 62L36 62L36 61L37 61L37 60L38 60L38 59L36 59L36 58L37 58L37 57L38 57L38 58L40 58L40 59L41 59L41 61L43 61L43 60L44 60L44 62L43 62L43 64L42 64L42 62L40 62L40 63L41 63L41 64L40 64L40 65L41 65L41 66L39 66L39 65L38 65L38 66L37 66L37 68L36 68L36 67L35 67L35 68L33 68L33 67L34 67L34 65L33 65L33 67L32 67L32 68L33 68L33 69L31 69L31 71L32 71L32 72L31 72L31 73L32 73L32 74L33 74L33 73L34 73L34 75L33 75L33 77L34 77L34 76L35 76L35 77L36 77L36 76L37 76L37 77L38 77L38 76L39 76L39 77L41 77L41 76L43 76L43 77L44 77L44 74L41 74L41 72L44 72L44 71L45 71L45 72L46 72L46 73L47 73L47 74L46 74L46 75L45 75L45 77L48 77L48 76L46 76L46 75L49 75L49 76L50 76L50 77L53 77L53 75L51 75L51 74L52 74L52 73L53 73L53 74L54 74L54 73L53 73L53 72L51 72L51 70L53 70L53 71L54 71L54 72L55 72L55 73L56 73L56 74L55 74L55 75L56 75L56 77L60 77L60 76L61 76L61 77L63 77L63 75L62 75L62 74L61 74L61 75L60 75L60 76L59 76L59 75L56 75L56 74L59 74L59 73L60 73L60 72L61 72L61 73L62 73L62 72L63 72L63 74L64 74L64 73L65 73L65 75L64 75L64 77L65 77L65 75L66 75L66 74L67 74L67 75L68 75L68 73L71 73L71 74L70 74L70 75L71 75L71 74L72 74L72 73L73 73L73 72L74 72L74 74L73 74L73 75L74 75L74 76L75 76L75 77L76 77L76 76L77 76L77 74L76 74L76 71L77 71L77 70L74 70L74 71L73 71L73 69L75 69L75 68L74 68L74 67L76 67L76 69L77 69L77 67L76 67L76 66L77 66L77 65L76 65L76 64L77 64L77 63L76 63L76 62L77 62L77 61L76 61L76 62L75 62L75 59L76 59L76 60L77 60L77 59L76 59L76 57L77 57L77 53L75 53L75 54L76 54L76 55L74 55L74 54L73 54L73 57L74 57L74 56L76 56L76 57L75 57L75 58L74 58L74 59L73 59L73 58L72 58L72 56L70 56L70 57L71 57L71 58L72 58L72 59L73 59L73 60L72 60L72 62L70 62L70 61L69 61L69 59L70 59L70 58L69 58L69 57L68 57L68 55L67 55L67 54L66 54L66 52L65 52L65 51L62 51L62 53L63 53L63 55L62 55L62 54L61 54L61 52L59 52L59 53L60 53L60 54L61 54L61 55L59 55L59 54L58 54L58 49L60 49L60 46L63 46L63 45L61 45L61 43L62 43L62 40L64 40L64 41L63 41L63 43L64 43L64 41L65 41L65 42L67 42L67 43L65 43L65 44L66 44L66 46L68 46L68 47L66 47L66 48L65 48L65 49L64 49L64 48L63 48L63 47L61 47L61 49L62 49L62 50L65 50L65 49L66 49L66 48L68 48L68 51L67 51L67 50L66 50L66 51L67 51L67 52L68 52L68 54L69 54L69 52L70 52L70 53L71 53L71 52L70 52L70 51L72 51L72 52L73 52L73 46L74 46L74 45L73 45L73 46L70 46L70 45L71 45L71 44L72 44L72 43L73 43L73 44L74 44L74 43L75 43L75 44L76 44L76 45L77 45L77 43L76 43L76 42L77 42L77 41L76 41L76 42L74 42L74 41L75 41L75 40L73 40L73 39L74 39L74 38L75 38L75 39L76 39L76 40L77 40L77 39L76 39L76 35L75 35L75 36L74 36L74 34L73 34L73 35L72 35L72 33L71 33L71 35L72 35L72 37L73 37L73 36L74 36L74 38L73 38L73 39L72 39L72 38L71 38L71 41L70 41L70 40L68 40L68 38L70 38L70 37L69 37L69 36L68 36L68 37L67 37L67 38L66 38L66 37L65 37L65 38L66 38L66 40L67 40L67 41L65 41L65 39L63 39L63 38L62 38L62 40L61 40L61 41L60 41L60 40L59 40L59 39L57 39L57 41L58 41L58 42L57 42L57 43L56 43L56 44L55 44L55 46L54 46L54 43L55 43L55 42L54 42L54 43L53 43L53 41L52 41L52 40L51 40L51 39L50 39L50 41L52 41L52 42L51 42L51 43L53 43L53 44L52 44L52 45L51 45L51 46L50 46L50 44L49 44L49 43L50 43L50 42L48 42L48 43L46 43L46 44L45 44L45 43L43 43L43 42L42 42L42 43L41 43L41 42L40 42L40 41L41 41L41 40L42 40L42 41L43 41L43 38L40 38L40 37L41 37L41 36L43 36L43 35L42 35L42 33L43 33L43 30L42 30L42 32L41 32L41 30L40 30L40 29L41 29L41 28L40 28L40 27L41 27L41 26L40 26L40 23L41 23L41 22L42 22L42 24L41 24L41 25L42 25L42 27L43 27L43 29L44 29L44 30L45 30L45 29L46 29L46 30L47 30L47 29L51 29L51 30L48 30L48 31L47 31L47 33L45 33L45 32L44 32L44 35L47 35L47 36L46 36L46 37L47 37L47 38L45 38L45 40L44 40L44 42L45 42L45 41L47 41L47 40L48 40L48 39L49 39L49 38L50 38L50 37L49 37L49 35L48 35L48 34L50 34L50 33L51 33L51 34L53 34L53 33L54 33L54 32L55 32L55 31L53 31L53 30L56 30L56 31L57 31L57 30L56 30L56 29L59 29L59 27L57 27L57 28L56 28L56 26L59 26L59 25L60 25L60 24L61 24L61 25L62 25L62 26L60 26L60 28L61 28L61 27L62 27L62 26L64 26L64 27L63 27L63 28L64 28L64 27L65 27L65 26L64 26L64 25L66 25L66 24L67 24L67 25L68 25L68 26L67 26L67 29L66 29L66 31L64 31L64 30L65 30L65 29L60 29L60 31L61 31L61 30L62 30L62 32L63 32L63 31L64 31L64 32L65 32L65 33L64 33L64 34L65 34L65 35L61 35L61 36L60 36L60 34L63 34L63 33L61 33L61 32L60 32L60 33L59 33L59 34L58 34L58 36L59 36L59 37L57 37L57 38L60 38L60 39L61 39L61 38L60 38L60 37L63 37L63 36L65 36L65 35L66 35L66 34L65 34L65 33L66 33L66 32L67 32L67 30L68 30L68 31L70 31L70 30L71 30L71 32L72 32L72 31L73 31L73 32L75 32L75 31L76 31L76 33L75 33L75 34L77 34L77 31L76 31L76 30L77 30L77 26L75 26L75 25L76 25L76 23L77 23L77 22L74 22L74 23L73 23L73 24L72 24L72 22L73 22L73 21L71 21L71 20L70 20L70 19L71 19L71 18L72 18L72 19L73 19L73 20L75 20L75 21L77 21L77 20L75 20L75 19L76 19L76 16L77 16L77 14L75 14L75 13L74 13L74 12L75 12L75 11L76 11L76 12L77 12L77 11L76 11L76 10L75 10L75 11L74 11L74 10L73 10L73 9L72 9L72 10L73 10L73 11L74 11L74 12L73 12L73 13L74 13L74 15L76 15L76 16L74 16L74 17L75 17L75 18L74 18L74 19L73 19L73 18L72 18L72 17L71 17L71 18L70 18L70 17L68 17L68 18L67 18L67 19L64 19L64 18L66 18L66 17L67 17L67 15L66 15L66 17L65 17L65 15L63 15L63 14L67 14L67 12L68 12L68 9L69 9L69 11L70 11L70 12L71 12L71 14L70 14L70 13L68 13L68 14L70 14L70 16L71 16L71 14L72 14L72 16L73 16L73 14L72 14L72 12L71 12L71 9L69 9L69 8L67 8L67 5L69 5L69 1L68 1L68 4L65 4L65 3L66 3L66 2L67 2L67 1L66 1L66 0L64 0L64 2L65 2L65 3L64 3L64 4L63 4L63 5L64 5L64 7L63 7L63 6L62 6L62 5L61 5L61 4L62 4L62 0L59 0L59 2L58 2L58 3L59 3L59 4L57 4L57 2L55 2L55 0L53 0L53 1L52 1L52 0L51 0L51 1L50 1L50 2L48 2L48 4L47 4L47 3L46 3L46 0L43 0L43 1L44 1L44 2L43 2L43 3L44 3L44 2L45 2L45 5L46 5L46 8L45 8L45 6L44 6L44 4L43 4L43 6L42 6L42 7L43 7L43 8L42 8L42 9L41 9L41 5L42 5L42 3L41 3L41 2L38 2L38 1L39 1L39 0L38 0L38 1L37 1L37 0L35 0L35 1L34 1L34 2L33 2L33 1L32 1L32 0L26 0L26 1L25 1L25 3L24 3L24 0L19 0L19 1L18 1L18 0L15 0L15 2L17 2L17 1L18 1L18 2L19 2L19 4L18 4L18 3L17 3L17 4L16 4L16 3L15 3L15 6L14 6L14 5L13 5L13 6L12 6L12 5L10 5L10 4L11 4L11 3L12 3L12 2L11 2L11 3L10 3L10 1L11 1L11 0ZM12 0L12 1L13 1L13 2L14 2L14 1L13 1L13 0ZM41 0L41 1L42 1L42 0ZM47 0L47 1L48 1L48 0ZM56 0L56 1L58 1L58 0ZM19 1L19 2L21 2L21 3L20 3L20 4L19 4L19 5L18 5L18 4L17 4L17 7L16 7L16 6L15 6L15 7L16 7L16 10L15 10L15 9L14 9L14 6L13 6L13 9L14 9L14 10L15 10L15 11L16 11L16 14L15 14L15 12L14 12L14 14L15 14L15 16L14 16L14 15L11 15L11 16L12 16L12 17L14 17L14 18L15 18L15 19L16 19L16 20L19 20L19 21L20 21L20 22L21 22L21 23L20 23L20 25L19 25L19 24L17 24L17 23L16 23L16 24L15 24L15 25L14 25L14 26L13 26L13 24L14 24L14 21L15 21L15 22L16 22L16 21L15 21L15 20L13 20L13 23L12 23L12 22L11 22L11 25L10 25L10 24L9 24L9 23L10 23L10 22L9 22L9 21L8 21L8 20L7 20L7 19L6 19L6 20L5 20L5 21L6 21L6 22L8 22L8 24L9 24L9 25L10 25L10 26L12 26L12 27L9 27L9 29L6 29L6 30L9 30L9 31L10 31L10 32L9 32L9 33L8 33L8 32L7 32L7 31L5 31L5 30L4 30L4 31L5 31L5 32L4 32L4 33L5 33L5 34L8 34L8 35L5 35L5 36L2 36L2 35L1 35L1 36L2 36L2 37L3 37L3 38L4 38L4 37L6 37L6 38L5 38L5 44L4 44L4 45L6 45L6 46L9 46L9 48L10 48L10 51L11 51L11 50L13 50L13 49L15 49L15 50L14 50L14 53L15 53L15 56L17 56L17 57L16 57L16 61L15 61L15 60L14 60L14 59L15 59L15 58L14 58L14 59L13 59L13 60L12 60L12 61L14 61L14 62L13 62L13 63L14 63L14 66L15 66L15 67L13 67L13 65L12 65L12 66L9 66L9 65L8 65L8 66L9 66L9 67L11 67L11 68L12 68L12 69L10 69L10 70L13 70L13 68L14 68L14 70L17 70L17 71L18 71L18 73L19 73L19 74L18 74L18 75L20 75L20 76L21 76L21 74L20 74L20 70L21 70L21 71L22 71L22 72L23 72L23 73L22 73L22 74L23 74L23 73L24 73L24 72L23 72L23 70L24 70L24 68L25 68L25 67L22 67L22 66L23 66L23 65L22 65L22 66L21 66L21 65L19 65L19 61L18 61L18 59L20 59L20 58L21 58L21 62L23 62L23 63L24 63L24 62L23 62L23 61L25 61L25 60L26 60L26 59L27 59L27 57L28 57L28 59L29 59L29 58L32 58L32 60L31 60L31 61L32 61L32 62L34 62L34 61L32 61L32 60L34 60L34 59L33 59L33 58L36 58L36 57L35 57L35 56L36 56L36 55L37 55L37 56L38 56L38 55L37 55L37 54L36 54L36 55L34 55L34 56L33 56L33 52L34 52L34 54L35 54L35 53L37 53L37 51L36 51L36 50L38 50L38 53L39 53L39 55L41 55L41 53L39 53L39 52L40 52L40 51L41 51L41 50L42 50L42 49L43 49L43 50L44 50L44 52L45 52L45 54L44 54L44 55L43 55L43 54L42 54L42 55L43 55L43 56L45 56L45 58L47 58L47 57L48 57L48 55L49 55L49 58L51 58L51 60L50 60L50 59L49 59L49 60L48 60L48 59L45 59L45 60L48 60L48 61L46 61L46 64L45 64L45 62L44 62L44 64L43 64L43 65L42 65L42 67L39 67L39 66L38 66L38 68L37 68L37 70L38 70L38 71L36 71L36 69L33 69L33 70L35 70L35 72L37 72L37 73L36 73L36 74L37 74L37 75L39 75L39 74L38 74L38 72L39 72L39 73L40 73L40 71L41 71L41 70L42 70L42 69L46 69L46 68L49 68L49 67L50 67L50 66L51 66L51 65L52 65L52 64L53 64L53 65L55 65L55 66L52 66L52 67L55 67L55 69L56 69L56 70L55 70L55 72L56 72L56 73L59 73L59 72L60 72L60 71L59 71L59 72L58 72L58 71L56 71L56 70L57 70L57 69L58 69L58 70L59 70L59 69L60 69L60 70L61 70L61 71L65 71L65 72L66 72L66 73L67 73L67 72L68 72L68 70L67 70L67 69L66 69L66 68L65 68L65 70L63 70L63 69L64 69L64 67L63 67L63 66L62 66L62 67L61 67L61 68L60 68L60 66L59 66L59 65L61 65L61 64L62 64L62 65L63 65L63 64L62 64L62 63L61 63L61 64L60 64L60 62L61 62L61 60L60 60L60 59L59 59L59 58L58 58L58 57L57 57L57 56L58 56L58 55L56 55L56 54L57 54L57 52L56 52L56 51L55 51L55 49L57 49L57 48L58 48L58 47L59 47L59 46L57 46L57 47L56 47L56 46L55 46L55 47L56 47L56 48L54 48L54 47L52 47L52 46L51 46L51 51L53 51L53 52L49 52L49 51L47 51L47 53L46 53L46 52L45 52L45 50L46 50L46 48L45 48L45 47L46 47L46 46L48 46L48 45L49 45L49 44L48 44L48 45L45 45L45 47L44 47L44 46L43 46L43 45L44 45L44 44L43 44L43 45L40 45L40 44L41 44L41 43L39 43L39 40L38 40L38 39L40 39L40 40L41 40L41 39L40 39L40 38L39 38L39 37L40 37L40 36L39 36L39 37L38 37L38 39L36 39L36 40L35 40L35 39L34 39L34 38L33 38L33 37L34 37L34 36L33 36L33 35L34 35L34 34L33 34L33 31L35 31L35 32L37 32L37 31L36 31L36 28L37 28L37 30L38 30L38 29L39 29L39 27L38 27L38 26L36 26L36 27L35 27L35 30L34 30L34 26L35 26L35 23L38 23L38 24L39 24L39 22L41 22L41 20L40 20L40 16L39 16L39 17L38 17L38 15L41 15L41 14L39 14L39 13L41 13L41 12L43 12L43 13L42 13L42 15L43 15L43 16L44 16L44 17L45 17L45 18L46 18L46 19L42 19L42 20L43 20L43 22L44 22L44 20L47 20L47 22L48 22L48 20L47 20L47 15L46 15L46 14L47 14L47 13L50 13L50 12L51 12L51 13L52 13L52 14L51 14L51 15L50 15L50 14L48 14L48 16L50 16L50 18L49 18L49 20L51 20L51 21L50 21L50 22L49 22L49 23L46 23L46 21L45 21L45 24L43 24L43 25L44 25L44 29L45 29L45 28L46 28L46 26L45 26L45 24L49 24L49 23L51 23L51 24L53 24L53 25L52 25L52 26L51 26L51 27L53 27L53 29L55 29L55 28L54 28L54 27L55 27L55 26L56 26L56 25L59 25L59 24L60 24L60 23L59 23L59 24L58 24L58 23L56 23L56 22L59 22L59 20L60 20L60 22L61 22L61 23L62 23L62 22L63 22L63 24L62 24L62 25L63 25L63 24L66 24L66 23L64 23L64 22L63 22L63 21L61 21L61 20L63 20L63 19L62 19L62 18L63 18L63 16L62 16L62 15L61 15L61 16L60 16L60 14L61 14L61 12L60 12L60 11L59 11L59 12L60 12L60 13L57 13L57 14L56 14L56 16L54 16L54 15L55 15L55 14L54 14L54 15L52 15L52 14L53 14L53 13L55 13L55 12L58 12L58 10L59 10L59 8L61 8L61 9L62 9L62 14L63 14L63 12L64 12L64 13L65 13L65 12L66 12L66 11L65 11L65 12L64 12L64 9L65 9L65 10L66 10L66 9L65 9L65 7L66 7L66 6L65 6L65 7L64 7L64 8L63 8L63 9L62 9L62 6L61 6L61 5L60 5L60 4L61 4L61 2L59 2L59 3L60 3L60 4L59 4L59 5L56 5L56 6L55 6L55 3L54 3L54 2L53 2L53 3L54 3L54 4L53 4L53 7L52 7L52 5L51 5L51 10L50 10L50 9L47 9L47 10L46 10L46 9L45 9L45 11L44 11L44 12L43 12L43 10L40 10L40 8L39 8L39 7L40 7L40 6L39 6L39 7L38 7L38 5L40 5L40 4L41 4L41 3L40 3L40 4L39 4L39 3L38 3L38 2L37 2L37 4L38 4L38 5L37 5L37 7L36 7L36 4L35 4L35 3L36 3L36 1L35 1L35 3L34 3L34 4L35 4L35 7L36 7L36 9L35 9L35 10L36 10L36 9L37 9L37 12L38 12L38 10L39 10L39 11L40 11L40 12L39 12L39 13L37 13L37 14L36 14L36 15L35 15L35 14L33 14L33 13L34 13L34 12L36 12L36 11L33 11L33 10L34 10L34 9L33 9L33 7L34 7L34 6L33 6L33 5L32 5L32 4L31 4L31 3L30 3L30 1L29 1L29 3L30 3L30 4L31 4L31 5L30 5L30 6L29 6L29 7L30 7L30 8L29 8L29 10L28 10L28 11L26 11L26 10L25 10L25 9L23 9L23 8L21 8L21 9L23 9L23 10L22 10L22 11L21 11L21 10L20 10L20 8L19 8L19 7L20 7L20 4L21 4L21 3L22 3L22 4L23 4L23 5L24 5L24 3L22 3L22 2L23 2L23 1ZM26 1L26 2L27 2L27 1ZM31 1L31 2L32 2L32 1ZM51 1L51 2L50 2L50 3L49 3L49 4L50 4L50 3L51 3L51 2L52 2L52 1ZM13 3L13 4L14 4L14 3ZM26 3L26 4L28 4L28 3ZM64 4L64 5L65 5L65 4ZM21 5L21 7L22 7L22 5ZM25 5L25 8L28 8L28 5ZM47 5L47 8L50 8L50 5ZM18 6L18 7L19 7L19 6ZM23 6L23 7L24 7L24 6ZM26 6L26 7L27 7L27 6ZM30 6L30 7L31 7L31 8L32 8L32 7L33 7L33 6L32 6L32 7L31 7L31 6ZM43 6L43 7L44 7L44 6ZM48 6L48 7L49 7L49 6ZM54 6L54 7L53 7L53 8L52 8L52 9L54 9L54 10L52 10L52 11L54 11L54 10L55 10L55 9L54 9L54 8L56 8L56 7L57 7L57 6L56 6L56 7L55 7L55 6ZM58 6L58 8L57 8L57 9L56 9L56 11L57 11L57 10L58 10L58 8L59 8L59 6ZM60 6L60 7L61 7L61 6ZM68 6L68 7L69 7L69 6ZM37 7L37 9L39 9L39 8L38 8L38 7ZM17 8L17 9L18 9L18 8ZM74 8L74 9L76 9L76 8ZM1 9L1 10L2 10L2 9ZM31 9L31 10L32 10L32 9ZM16 10L16 11L17 11L17 13L18 13L18 14L17 14L17 15L16 15L16 16L15 16L15 18L16 18L16 19L18 19L18 17L16 17L16 16L21 16L21 15L25 15L25 16L22 16L22 17L21 17L21 18L22 18L22 17L23 17L23 19L22 19L22 20L21 20L21 19L20 19L20 21L22 21L22 25L21 25L21 26L22 26L22 27L20 27L20 26L18 26L18 25L17 25L17 26L16 26L16 27L17 27L17 26L18 26L18 27L19 27L19 28L22 28L22 27L23 27L23 26L24 26L24 29L25 29L25 31L23 31L23 30L22 30L22 29L21 29L21 30L20 30L20 31L23 31L23 32L19 32L19 33L18 33L18 31L17 31L17 32L16 32L16 31L14 31L14 32L16 32L16 33L18 33L18 34L20 34L20 33L22 33L22 35L21 35L21 37L22 37L22 36L24 36L24 37L26 37L26 35L29 35L29 36L27 36L27 37L29 37L29 36L30 36L30 35L31 35L31 34L30 34L30 35L29 35L29 34L26 34L26 33L27 33L27 32L26 32L26 31L27 31L27 30L26 30L26 29L29 29L29 30L28 30L28 32L29 32L29 33L32 33L32 32L29 32L29 31L33 31L33 27L32 27L32 28L30 28L30 29L29 29L29 25L31 25L31 26L32 26L32 25L34 25L34 24L33 24L33 23L35 23L35 22L36 22L36 20L37 20L37 21L38 21L38 20L39 20L39 18L38 18L38 20L37 20L37 16L34 16L34 19L33 19L33 18L30 18L30 16L29 16L29 15L28 15L28 13L27 13L27 14L26 14L26 11L25 11L25 10L23 10L23 11L24 11L24 12L22 12L22 13L19 13L19 12L18 12L18 11L20 11L20 12L21 12L21 11L20 11L20 10ZM47 10L47 11L46 11L46 12L50 12L50 11L49 11L49 10ZM30 11L30 12L29 12L29 14L30 14L30 15L31 15L31 16L32 16L32 17L33 17L33 16L32 16L32 15L31 15L31 14L32 14L32 13L33 13L33 12L31 12L31 11ZM24 12L24 13L22 13L22 14L25 14L25 15L26 15L26 14L25 14L25 12ZM30 12L30 13L31 13L31 12ZM52 12L52 13L53 13L53 12ZM43 13L43 15L44 15L44 13ZM20 14L20 15L21 15L21 14ZM37 14L37 15L38 15L38 14ZM4 15L4 16L5 16L5 17L6 17L6 16L7 16L7 15L6 15L6 16L5 16L5 15ZM27 15L27 16L25 16L25 17L27 17L27 19L26 19L26 18L25 18L25 19L24 19L24 20L22 20L22 21L24 21L24 20L25 20L25 19L26 19L26 22L25 22L25 24L26 24L26 22L28 22L28 23L27 23L27 24L28 24L28 23L29 23L29 22L30 22L30 21L31 21L31 23L30 23L30 24L31 24L31 23L32 23L32 21L34 21L34 20L33 20L33 19L31 19L31 20L29 20L29 21L28 21L28 17L29 17L29 16L28 16L28 15ZM45 15L45 17L46 17L46 15ZM51 15L51 16L52 16L52 17L51 17L51 19L52 19L52 20L54 20L54 22L53 22L53 21L52 21L52 23L55 23L55 22L56 22L56 21L57 21L57 20L56 20L56 21L55 21L55 19L53 19L53 18L55 18L55 17L53 17L53 16L52 16L52 15ZM57 15L57 18L56 18L56 19L57 19L57 18L58 18L58 16L59 16L59 18L62 18L62 16L61 16L61 17L60 17L60 16L59 16L59 15ZM68 15L68 16L69 16L69 15ZM27 16L27 17L28 17L28 16ZM41 16L41 17L42 17L42 16ZM19 17L19 18L20 18L20 17ZM35 17L35 18L36 18L36 17ZM68 18L68 19L67 19L67 20L69 20L69 19L70 19L70 18ZM35 19L35 20L36 20L36 19ZM60 19L60 20L61 20L61 19ZM6 20L6 21L7 21L7 20ZM31 20L31 21L32 21L32 20ZM65 20L65 22L66 22L66 20ZM67 21L67 23L68 23L68 24L71 24L71 22L70 22L70 21L69 21L69 22L68 22L68 21ZM18 22L18 23L19 23L19 22ZM23 22L23 23L24 23L24 22ZM5 23L5 24L7 24L7 23ZM23 24L23 25L22 25L22 26L23 26L23 25L24 25L24 24ZM55 24L55 25L53 25L53 26L55 26L55 25L56 25L56 24ZM73 24L73 27L74 27L74 24ZM5 25L5 28L8 28L8 25ZM25 25L25 28L28 28L28 25ZM47 25L47 28L50 28L50 25ZM69 25L69 28L72 28L72 25ZM6 26L6 27L7 27L7 26ZM26 26L26 27L27 27L27 26ZM48 26L48 27L49 27L49 26ZM70 26L70 27L71 27L71 26ZM2 27L2 28L3 28L3 29L4 29L4 27ZM12 27L12 28L10 28L10 29L11 29L11 30L10 30L10 31L11 31L11 32L10 32L10 33L9 33L9 35L10 35L10 36L9 36L9 37L7 37L7 36L6 36L6 37L7 37L7 38L6 38L6 39L7 39L7 40L6 40L6 41L7 41L7 42L6 42L6 43L7 43L7 42L8 42L8 43L9 43L9 44L8 44L8 45L9 45L9 46L10 46L10 45L11 45L11 46L12 46L12 47L10 47L10 48L12 48L12 47L13 47L13 48L14 48L14 47L13 47L13 45L14 45L14 46L15 46L15 49L16 49L16 48L17 48L17 49L18 49L18 50L20 50L20 53L21 53L21 51L23 51L23 54L21 54L21 55L19 55L19 51L17 51L17 50L16 50L16 51L17 51L17 52L16 52L16 53L17 53L17 54L16 54L16 55L17 55L17 56L20 56L20 57L22 57L22 56L24 56L24 57L25 57L25 58L22 58L22 60L24 60L24 59L25 59L25 58L26 58L26 57L27 57L27 55L28 55L28 54L30 54L30 55L29 55L29 57L32 57L32 54L31 54L31 52L33 52L33 51L32 51L32 50L36 50L36 49L37 49L37 48L36 48L36 47L35 47L35 48L34 48L34 47L32 47L32 46L33 46L33 44L34 44L34 46L37 46L37 47L38 47L38 46L37 46L37 45L38 45L38 43L37 43L37 42L38 42L38 41L37 41L37 42L36 42L36 41L35 41L35 40L33 40L33 39L32 39L32 40L31 40L31 38L25 38L25 40L26 40L26 41L25 41L25 42L26 42L26 44L25 44L25 43L24 43L24 42L22 42L22 41L23 41L23 40L24 40L24 38L23 38L23 39L22 39L22 41L20 41L20 40L21 40L21 39L20 39L20 40L19 40L19 38L20 38L20 35L19 35L19 36L18 36L18 35L17 35L17 34L15 34L15 35L17 35L17 36L18 36L18 40L19 40L19 42L18 42L18 41L16 41L16 40L17 40L17 37L16 37L16 38L15 38L15 39L13 39L13 38L14 38L14 37L15 37L15 36L14 36L14 34L13 34L13 31L12 31L12 29L13 29L13 27ZM14 27L14 28L15 28L15 27ZM37 27L37 28L38 28L38 27ZM16 28L16 29L14 29L14 30L19 30L19 29L17 29L17 28ZM75 28L75 29L74 29L74 30L76 30L76 28ZM30 29L30 30L31 30L31 29ZM68 29L68 30L69 30L69 29ZM1 30L1 31L2 31L2 30ZM39 30L39 32L38 32L38 33L40 33L40 34L39 34L39 35L41 35L41 32L40 32L40 30ZM48 31L48 33L47 33L47 34L48 34L48 33L49 33L49 32L52 32L52 33L53 33L53 31ZM0 32L0 33L1 33L1 32ZM5 32L5 33L7 33L7 32ZM11 32L11 33L12 33L12 32ZM23 32L23 35L24 35L24 36L25 36L25 35L24 35L24 32ZM56 32L56 33L55 33L55 34L56 34L56 33L58 33L58 32ZM68 32L68 33L70 33L70 32ZM3 34L3 35L4 35L4 34ZM12 34L12 35L11 35L11 36L10 36L10 39L11 39L11 42L10 42L10 40L8 40L8 42L9 42L9 43L10 43L10 44L9 44L9 45L10 45L10 44L11 44L11 45L13 45L13 44L14 44L14 45L16 45L16 46L17 46L17 48L18 48L18 49L20 49L20 48L19 48L19 47L18 47L18 46L21 46L21 47L22 47L22 49L21 49L21 50L23 50L23 49L24 49L24 48L23 48L23 47L24 47L24 46L23 46L23 45L21 45L21 44L20 44L20 45L19 45L19 43L21 43L21 42L19 42L19 43L17 43L17 42L16 42L16 43L15 43L15 42L14 42L14 41L15 41L15 40L14 40L14 41L13 41L13 42L12 42L12 39L11 39L11 36L12 36L12 37L13 37L13 36L12 36L12 35L13 35L13 34ZM67 34L67 35L68 35L68 34ZM36 35L36 37L35 37L35 38L37 38L37 35ZM50 35L50 36L51 36L51 38L52 38L52 39L53 39L53 38L54 38L54 37L56 37L56 36L57 36L57 35L56 35L56 36L55 36L55 35L54 35L54 36L53 36L53 35L52 35L52 36L51 36L51 35ZM31 36L31 37L33 37L33 36ZM0 38L0 39L1 39L1 40L2 40L2 39L1 39L1 38ZM7 38L7 39L9 39L9 38ZM47 38L47 39L46 39L46 40L47 40L47 39L48 39L48 38ZM55 38L55 39L54 39L54 40L55 40L55 39L56 39L56 38ZM27 39L27 40L28 40L28 41L27 41L27 42L28 42L28 43L27 43L27 44L26 44L26 45L27 45L27 46L30 46L30 47L31 47L31 49L29 49L29 51L24 51L24 53L25 53L25 54L23 54L23 55L24 55L24 56L26 56L26 55L27 55L27 54L26 54L26 53L25 53L25 52L27 52L27 53L29 53L29 51L30 51L30 52L31 52L31 50L32 50L32 49L34 49L34 48L32 48L32 47L31 47L31 46L32 46L32 44L33 44L33 43L32 43L32 42L33 42L33 41L30 41L30 40L28 40L28 39ZM58 40L58 41L59 41L59 40ZM72 40L72 41L71 41L71 42L73 42L73 40ZM3 41L3 42L4 42L4 41ZM28 41L28 42L30 42L30 43L28 43L28 44L30 44L30 45L31 45L31 44L32 44L32 43L31 43L31 42L30 42L30 41ZM67 41L67 42L68 42L68 43L67 43L67 44L68 44L68 46L69 46L69 45L70 45L70 44L71 44L71 43L70 43L70 41ZM11 42L11 44L12 44L12 42ZM34 42L34 43L36 43L36 45L37 45L37 43L36 43L36 42ZM58 42L58 43L57 43L57 44L58 44L58 45L59 45L59 43L61 43L61 42ZM14 43L14 44L15 44L15 43ZM23 43L23 44L24 44L24 43ZM68 43L68 44L69 44L69 43ZM0 44L0 45L1 45L1 44ZM6 44L6 45L7 45L7 44ZM16 44L16 45L17 45L17 44ZM22 46L22 47L23 47L23 46ZM39 46L39 47L40 47L40 50L41 50L41 48L44 48L44 47L43 47L43 46L42 46L42 47L41 47L41 46ZM64 46L64 47L65 47L65 46ZM75 46L75 47L74 47L74 48L75 48L75 47L77 47L77 46ZM2 47L2 48L3 48L3 49L4 49L4 47ZM5 47L5 50L8 50L8 47ZM25 47L25 50L28 50L28 47ZM47 47L47 50L50 50L50 47ZM69 47L69 50L72 50L72 47ZM6 48L6 49L7 49L7 48ZM26 48L26 49L27 49L27 48ZM48 48L48 49L49 49L49 48ZM53 48L53 49L52 49L52 50L54 50L54 48ZM70 48L70 49L71 49L71 48ZM74 49L74 52L75 52L75 49ZM1 50L1 51L2 51L2 50ZM76 50L76 52L77 52L77 50ZM34 51L34 52L36 52L36 51ZM42 51L42 52L43 52L43 51ZM68 51L68 52L69 52L69 51ZM10 52L10 53L12 53L12 52ZM54 52L54 54L52 54L52 53L47 53L47 54L45 54L45 55L46 55L46 57L47 57L47 54L49 54L49 55L50 55L50 54L51 54L51 55L53 55L53 56L54 56L54 58L53 58L53 57L52 57L52 56L51 56L51 57L52 57L52 59L54 59L54 60L57 60L57 59L58 59L58 61L57 61L57 62L56 62L56 61L55 61L55 62L54 62L54 63L57 63L57 65L58 65L58 63L59 63L59 61L60 61L60 60L59 60L59 59L58 59L58 58L57 58L57 57L56 57L56 55L55 55L55 53L56 53L56 52ZM0 54L0 55L1 55L1 54ZM17 54L17 55L18 55L18 54ZM25 54L25 55L26 55L26 54ZM6 55L6 56L7 56L7 55ZM21 55L21 56L22 56L22 55ZM54 55L54 56L55 56L55 55ZM61 55L61 56L59 56L59 57L60 57L60 58L61 58L61 59L62 59L62 62L63 62L63 63L65 63L65 65L66 65L66 67L68 67L68 68L70 68L70 67L71 67L71 66L72 66L72 68L73 68L73 67L74 67L74 66L76 66L76 65L74 65L74 64L75 64L75 63L74 63L74 60L73 60L73 62L72 62L72 63L71 63L71 64L70 64L70 62L69 62L69 61L68 61L68 60L67 60L67 58L68 58L68 57L65 57L65 58L64 58L64 55L63 55L63 58L62 58L62 55ZM66 55L66 56L67 56L67 55ZM41 56L41 59L42 59L42 58L43 58L43 59L44 59L44 58L43 58L43 57L42 57L42 56ZM6 57L6 58L7 58L7 57ZM17 57L17 58L19 58L19 57ZM55 57L55 58L54 58L54 59L57 59L57 58L56 58L56 57ZM1 58L1 59L2 59L2 60L3 60L3 59L4 59L4 58L3 58L3 59L2 59L2 58ZM63 59L63 62L68 62L68 61L67 61L67 60L65 60L65 59ZM35 60L35 61L36 61L36 60ZM39 60L39 61L40 61L40 60ZM49 60L49 62L48 62L48 63L49 63L49 64L50 64L50 63L51 63L51 64L52 64L52 63L51 63L51 62L52 62L52 61L53 61L53 60L52 60L52 61L50 61L50 60ZM1 61L1 62L2 62L2 61ZM15 62L15 66L16 66L16 65L17 65L17 66L18 66L18 67L17 67L17 68L20 68L20 66L18 66L18 65L17 65L17 64L18 64L18 63L16 63L16 62ZM49 62L49 63L50 63L50 62ZM57 62L57 63L58 63L58 62ZM20 63L20 64L22 64L22 63ZM66 63L66 65L67 65L67 66L69 66L69 67L70 67L70 66L69 66L69 65L67 65L67 64L69 64L69 63ZM72 63L72 64L71 64L71 65L72 65L72 66L73 66L73 65L72 65L72 64L73 64L73 63ZM44 64L44 65L45 65L45 64ZM46 64L46 65L48 65L48 67L49 67L49 66L50 66L50 65L48 65L48 64ZM29 65L29 66L30 66L30 65ZM45 66L45 67L43 67L43 68L45 68L45 67L47 67L47 66ZM56 66L56 67L58 67L58 66ZM12 67L12 68L13 68L13 67ZM15 67L15 68L16 68L16 67ZM26 67L26 68L27 68L27 67ZM28 67L28 68L29 68L29 67ZM62 67L62 68L61 68L61 70L62 70L62 69L63 69L63 67ZM21 68L21 70L23 70L23 69L22 69L22 68ZM40 68L40 69L38 69L38 70L41 70L41 68ZM51 68L51 69L52 69L52 68ZM56 68L56 69L57 69L57 68ZM19 69L19 70L18 70L18 71L19 71L19 70L20 70L20 69ZM25 69L25 72L28 72L28 69ZM47 69L47 72L50 72L50 69ZM53 69L53 70L54 70L54 69ZM69 69L69 72L72 72L72 69ZM26 70L26 71L27 71L27 70ZM45 70L45 71L46 71L46 70ZM48 70L48 71L49 71L49 70ZM70 70L70 71L71 71L71 70ZM33 71L33 72L32 72L32 73L33 73L33 72L34 72L34 71ZM66 71L66 72L67 72L67 71ZM49 73L49 74L50 74L50 73ZM27 74L27 75L28 75L28 76L27 76L27 77L28 77L28 76L29 76L29 77L30 77L30 76L31 76L31 74L29 74L29 75L28 75L28 74ZM74 74L74 75L75 75L75 76L76 76L76 74ZM29 75L29 76L30 76L30 75ZM40 75L40 76L41 76L41 75ZM61 75L61 76L62 76L62 75ZM16 76L16 77L17 77L17 76ZM67 76L67 77L70 77L70 76ZM71 76L71 77L72 77L72 76ZM0 0L0 7L7 7L7 0ZM1 1L1 6L6 6L6 1ZM2 2L2 5L5 5L5 2ZM70 0L70 7L77 7L77 0ZM71 1L71 6L76 6L76 1ZM72 2L72 5L75 5L75 2ZM0 70L0 77L7 77L7 70ZM1 71L1 76L6 76L6 71ZM2 72L2 75L5 75L5 72Z" fill="#000000"/></g></g></svg>
