<?xml version="1.0" encoding="UTF-8"?>
<svg xmlns="http://www.w3.org/2000/svg" version="1.1" width="400" height="400" viewBox="0 0 400 400"><rect x="0" y="0" width="400" height="400" fill="#fefefe"/><g transform="scale(4.494)"><g transform="translate(4,4)"><path fill-rule="evenodd" d="M11 0L11 2L12 2L12 3L11 3L11 4L12 4L12 5L11 5L11 6L10 6L10 8L9 8L9 9L7 9L7 8L5 8L5 9L4 9L4 8L1 8L1 9L0 9L0 12L1 12L1 13L0 13L0 15L4 15L4 16L3 16L3 17L4 17L4 19L3 19L3 20L6 20L6 21L4 21L4 22L3 22L3 21L1 21L1 23L0 23L0 24L1 24L1 23L2 23L2 22L3 22L3 23L4 23L4 22L6 22L6 23L8 23L8 22L9 22L9 24L4 24L4 27L2 27L2 26L3 26L3 24L2 24L2 25L0 25L0 28L2 28L2 30L0 30L0 33L1 33L1 34L0 34L0 35L1 35L1 34L2 34L2 33L1 33L1 31L2 31L2 32L3 32L3 35L2 35L2 36L1 36L1 37L0 37L0 40L2 40L2 41L3 41L3 42L4 42L4 44L3 44L3 45L2 45L2 47L3 47L3 48L1 48L1 47L0 47L0 48L1 48L1 49L0 49L0 50L1 50L1 49L3 49L3 48L4 48L4 50L2 50L2 51L1 51L1 52L0 52L0 53L1 53L1 52L2 52L2 53L4 53L4 54L5 54L5 55L4 55L4 56L5 56L5 57L3 57L3 56L2 56L2 57L3 57L3 60L2 60L2 59L1 59L1 58L0 58L0 59L1 59L1 60L0 60L0 62L1 62L1 63L2 63L2 64L3 64L3 63L2 63L2 61L3 61L3 62L4 62L4 61L5 61L5 63L7 63L7 62L6 62L6 61L7 61L7 60L6 60L6 59L8 59L8 60L9 60L9 61L10 61L10 58L11 58L11 60L12 60L12 61L13 61L13 62L12 62L12 63L11 63L11 64L12 64L12 66L13 66L13 67L11 67L11 68L10 68L10 67L9 67L9 65L10 65L10 64L8 64L8 72L6 72L6 71L7 71L7 70L6 70L6 71L5 71L5 72L6 72L6 73L8 73L8 74L9 74L9 75L8 75L8 76L9 76L9 75L10 75L10 73L11 73L11 72L12 72L12 74L11 74L11 77L10 77L10 78L9 78L9 77L8 77L8 80L9 80L9 81L10 81L10 78L11 78L11 79L13 79L13 80L12 80L12 81L14 81L14 79L15 79L15 78L13 78L13 77L16 77L16 79L17 79L17 77L18 77L18 80L17 80L17 81L18 81L18 80L19 80L19 81L20 81L20 79L19 79L19 78L20 78L20 77L22 77L22 78L25 78L25 77L27 77L27 78L26 78L26 79L25 79L25 80L22 80L22 79L21 79L21 80L22 80L22 81L26 81L26 80L28 80L28 79L27 79L27 78L28 78L28 77L29 77L29 80L30 80L30 77L32 77L32 78L31 78L31 79L32 79L32 81L34 81L34 79L33 79L33 78L34 78L34 77L36 77L36 78L37 78L37 79L38 79L38 80L36 80L36 79L35 79L35 81L38 81L38 80L39 80L39 81L45 81L45 79L46 79L46 78L47 78L47 79L48 79L48 81L51 81L51 80L50 80L50 78L51 78L51 79L52 79L52 78L53 78L53 73L54 73L54 72L55 72L55 74L54 74L54 75L55 75L55 76L54 76L54 78L57 78L57 81L58 81L58 80L59 80L59 81L60 81L60 80L61 80L61 78L60 78L60 77L62 77L62 78L63 78L63 79L64 79L64 81L71 81L71 80L73 80L73 79L74 79L74 81L75 81L75 80L76 80L76 81L79 81L79 80L80 80L80 79L79 79L79 78L78 78L78 77L77 77L77 74L78 74L78 73L79 73L79 72L77 72L77 70L76 70L76 69L77 69L77 68L78 68L78 66L77 66L77 64L80 64L80 66L79 66L79 67L80 67L80 68L81 68L81 62L79 62L79 63L77 63L77 64L75 64L75 63L76 63L76 60L77 60L77 61L80 61L80 59L81 59L81 58L80 58L80 57L78 57L78 56L79 56L79 55L78 55L78 54L76 54L76 53L77 53L77 48L79 48L79 50L80 50L80 51L78 51L78 52L80 52L80 53L81 53L81 49L80 49L80 47L81 47L81 46L80 46L80 45L79 45L79 43L80 43L80 42L79 42L79 43L78 43L78 42L77 42L77 43L76 43L76 42L75 42L75 43L74 43L74 42L72 42L72 41L75 41L75 40L76 40L76 39L78 39L78 40L77 40L77 41L81 41L81 39L78 39L78 38L77 38L77 37L79 37L79 38L81 38L81 37L80 37L80 35L81 35L81 34L79 34L79 33L80 33L80 31L81 31L81 30L78 30L78 29L81 29L81 27L80 27L80 26L81 26L81 25L79 25L79 24L80 24L80 23L79 23L79 21L80 21L80 22L81 22L81 21L80 21L80 19L78 19L78 20L79 20L79 21L78 21L78 22L77 22L77 23L79 23L79 24L78 24L78 25L79 25L79 26L78 26L78 29L77 29L77 24L76 24L76 21L74 21L74 20L73 20L73 19L76 19L76 18L78 18L78 17L77 17L77 16L78 16L78 15L79 15L79 14L78 14L78 13L79 13L79 12L80 12L80 16L79 16L79 18L81 18L81 17L80 17L80 16L81 16L81 10L79 10L79 9L80 9L80 8L78 8L78 9L76 9L76 13L77 13L77 14L76 14L76 15L74 15L74 16L73 16L73 12L74 12L74 10L75 10L75 9L74 9L74 10L73 10L73 11L72 11L72 12L71 12L71 14L70 14L70 15L71 15L71 14L72 14L72 16L69 16L69 12L68 12L68 13L67 13L67 15L68 15L68 18L69 18L69 19L68 19L68 20L67 20L67 22L66 22L66 19L67 19L67 18L66 18L66 16L65 16L65 15L66 15L66 12L65 12L65 10L66 10L66 11L69 11L69 9L70 9L70 8L69 8L69 9L67 9L67 6L68 6L68 7L69 7L69 6L68 6L68 5L66 5L66 7L65 7L65 6L64 6L64 7L65 7L65 8L64 8L64 9L63 9L63 5L64 5L64 4L66 4L66 3L70 3L70 4L71 4L71 2L72 2L72 4L73 4L73 1L70 1L70 0L69 0L69 1L68 1L68 0L67 0L67 1L66 1L66 0L64 0L64 2L66 2L66 3L64 3L64 4L63 4L63 5L61 5L61 4L62 4L62 2L63 2L63 0L62 0L62 1L61 1L61 0L59 0L59 2L58 2L58 5L59 5L59 2L60 2L60 3L61 3L61 4L60 4L60 7L59 7L59 6L58 6L58 8L59 8L59 11L60 11L60 10L61 10L61 6L62 6L62 9L63 9L63 10L62 10L62 11L61 11L61 13L62 13L62 12L63 12L63 14L60 14L60 15L63 15L63 16L61 16L61 17L59 17L59 13L58 13L58 12L56 12L56 11L55 11L55 10L53 10L53 9L56 9L56 10L58 10L58 9L56 9L56 7L57 7L57 6L56 6L56 5L57 5L57 2L55 2L55 1L58 1L58 0L53 0L53 1L52 1L52 0L50 0L50 1L51 1L51 2L50 2L50 4L48 4L48 1L47 1L47 2L44 2L44 3L42 3L42 2L43 2L43 1L44 1L44 0L43 0L43 1L42 1L42 2L35 2L35 1L36 1L36 0L34 0L34 1L33 1L33 0L31 0L31 1L32 1L32 3L30 3L30 4L29 4L29 3L28 3L28 0L27 0L27 1L26 1L26 3L25 3L25 2L24 2L24 1L25 1L25 0L24 0L24 1L23 1L23 3L22 3L22 1L21 1L21 0L20 0L20 2L19 2L19 3L20 3L20 4L21 4L21 5L22 5L22 7L23 7L23 8L24 8L24 9L28 9L28 11L29 11L29 12L27 12L27 11L26 11L26 12L24 12L24 10L23 10L23 9L22 9L22 8L21 8L21 6L20 6L20 8L21 8L21 12L22 12L22 11L23 11L23 12L24 12L24 13L26 13L26 14L27 14L27 15L32 15L32 16L31 16L31 17L32 17L32 18L31 18L31 19L32 19L32 24L30 24L30 22L31 22L31 20L29 20L29 19L28 19L28 18L30 18L30 17L28 17L28 16L27 16L27 17L26 17L26 16L25 16L25 15L23 15L23 14L22 14L22 13L19 13L19 14L21 14L21 15L20 15L20 16L19 16L19 17L18 17L18 18L17 18L17 19L18 19L18 18L20 18L20 19L19 19L19 20L20 20L20 21L19 21L19 22L18 22L18 21L16 21L16 22L15 22L15 20L16 20L16 19L15 19L15 17L17 17L17 16L16 16L16 15L18 15L18 14L17 14L17 12L19 12L19 11L20 11L20 10L18 10L18 8L19 8L19 6L18 6L18 8L17 8L17 6L16 6L16 7L15 7L15 6L14 6L14 5L16 5L16 4L14 4L14 3L17 3L17 4L18 4L18 5L19 5L19 4L18 4L18 2L17 2L17 0L16 0L16 2L13 2L13 0ZM14 0L14 1L15 1L15 0ZM29 0L29 2L30 2L30 0ZM40 0L40 1L41 1L41 0ZM45 0L45 1L46 1L46 0ZM8 1L8 3L9 3L9 2L10 2L10 1ZM53 1L53 2L51 2L51 3L52 3L52 4L53 4L53 3L54 3L54 4L55 4L55 2L54 2L54 1ZM60 1L60 2L61 2L61 1ZM67 1L67 2L68 2L68 1ZM20 2L20 3L21 3L21 2ZM34 2L34 3L33 3L33 4L32 4L32 5L33 5L33 4L34 4L34 3L35 3L35 2ZM24 3L24 4L22 4L22 5L23 5L23 7L24 7L24 4L25 4L25 3ZM36 3L36 4L37 4L37 5L35 5L35 8L34 8L34 6L33 6L33 8L32 8L32 6L31 6L31 7L30 7L30 5L29 5L29 7L30 7L30 8L29 8L29 10L30 10L30 11L31 11L31 13L30 13L30 12L29 12L29 14L31 14L31 13L34 13L34 16L32 16L32 17L33 17L33 18L32 18L32 19L33 19L33 20L34 20L34 19L35 19L35 20L37 20L37 19L38 19L38 22L37 22L37 23L35 23L35 22L36 22L36 21L35 21L35 22L33 22L33 25L32 25L32 26L33 26L33 27L32 27L32 28L31 28L31 27L29 27L29 28L31 28L31 30L30 30L30 29L29 29L29 30L30 30L30 33L29 33L29 31L28 31L28 29L25 29L25 30L27 30L27 31L23 31L23 30L24 30L24 28L22 28L22 27L21 27L21 28L20 28L20 26L19 26L19 28L18 28L18 29L17 29L17 27L15 27L15 26L16 26L16 25L15 25L15 24L16 24L16 23L17 23L17 22L16 22L16 23L15 23L15 24L13 24L13 23L12 23L12 22L11 22L11 25L12 25L12 24L13 24L13 29L12 29L12 26L11 26L11 27L9 27L9 29L8 29L8 30L7 30L7 29L4 29L4 28L3 28L3 31L4 31L4 30L7 30L7 31L5 31L5 32L7 32L7 31L9 31L9 29L10 29L10 28L11 28L11 29L12 29L12 30L11 30L11 31L12 31L12 32L11 32L11 34L10 34L10 33L9 33L9 34L8 34L8 35L6 35L6 34L7 34L7 33L6 33L6 34L4 34L4 35L3 35L3 36L4 36L4 35L5 35L5 37L3 37L3 38L4 38L4 39L3 39L3 40L4 40L4 39L5 39L5 41L4 41L4 42L7 42L7 43L5 43L5 44L7 44L7 45L5 45L5 46L7 46L7 47L6 47L6 48L7 48L7 47L8 47L8 48L9 48L9 47L11 47L11 48L12 48L12 49L9 49L9 51L10 51L10 52L9 52L9 53L8 53L8 54L9 54L9 55L11 55L11 56L10 56L10 57L11 57L11 58L12 58L12 60L13 60L13 58L15 58L15 61L16 61L16 58L17 58L17 56L16 56L16 58L15 58L15 56L14 56L14 55L17 55L17 53L18 53L18 54L19 54L19 55L20 55L20 57L21 57L21 58L23 58L23 57L22 57L22 55L21 55L21 54L19 54L19 53L21 53L21 52L23 52L23 53L24 53L24 55L23 55L23 56L24 56L24 59L23 59L23 60L22 60L22 62L20 62L20 61L21 61L21 60L20 60L20 58L18 58L18 60L20 60L20 61L18 61L18 62L20 62L20 63L21 63L21 64L19 64L19 63L15 63L15 62L13 62L13 63L12 63L12 64L14 64L14 65L13 65L13 66L14 66L14 67L15 67L15 68L14 68L14 69L10 69L10 70L13 70L13 71L12 71L12 72L13 72L13 71L17 71L17 72L18 72L18 73L17 73L17 75L16 75L16 74L15 74L15 73L14 73L14 74L13 74L13 75L14 75L14 74L15 74L15 75L16 75L16 77L17 77L17 76L18 76L18 77L19 77L19 76L20 76L20 75L18 75L18 74L19 74L19 73L21 73L21 72L22 72L22 70L23 70L23 71L24 71L24 70L25 70L25 72L28 72L28 71L29 71L29 67L30 67L30 72L29 72L29 75L30 75L30 76L32 76L32 77L34 77L34 76L32 76L32 75L33 75L33 74L34 74L34 75L36 75L36 77L37 77L37 78L38 78L38 74L37 74L37 73L39 73L39 72L37 72L37 73L36 73L36 72L35 72L35 71L37 71L37 70L38 70L38 71L40 71L40 67L41 67L41 68L43 68L43 67L41 67L41 65L45 65L45 67L44 67L44 69L41 69L41 70L42 70L42 71L41 71L41 73L40 73L40 74L41 74L41 73L42 73L42 74L43 74L43 75L42 75L42 77L41 77L41 75L39 75L39 77L41 77L41 78L42 78L42 79L39 79L39 80L42 80L42 79L44 79L44 78L45 78L45 77L44 77L44 74L43 74L43 73L42 73L42 72L43 72L43 71L44 71L44 73L47 73L47 74L46 74L46 75L47 75L47 78L49 78L49 77L48 77L48 75L47 75L47 74L48 74L48 72L45 72L45 71L46 71L46 69L47 69L47 70L48 70L48 69L47 69L47 68L45 68L45 67L49 67L49 68L50 68L50 69L49 69L49 70L50 70L50 69L51 69L51 68L53 68L53 67L55 67L55 68L56 68L56 69L57 69L57 70L54 70L54 71L52 71L52 70L51 70L51 71L52 71L52 72L54 72L54 71L57 71L57 73L58 73L58 76L57 76L57 77L58 77L58 76L59 76L59 77L60 77L60 76L62 76L62 77L63 77L63 78L65 78L65 77L64 77L64 76L66 76L66 78L67 78L67 79L66 79L66 80L68 80L68 78L69 78L69 80L71 80L71 77L69 77L69 75L70 75L70 76L72 76L72 74L71 74L71 73L72 73L72 72L74 72L74 70L75 70L75 71L76 71L76 70L75 70L75 68L74 68L74 67L76 67L76 68L77 68L77 66L76 66L76 65L75 65L75 64L73 64L73 63L72 63L72 62L74 62L74 63L75 63L75 59L77 59L77 60L78 60L78 58L76 58L76 56L78 56L78 55L76 55L76 54L75 54L75 53L72 53L72 54L74 54L74 55L72 55L72 56L71 56L71 55L70 55L70 54L69 54L69 53L70 53L70 52L72 52L72 51L70 51L70 52L69 52L69 50L70 50L70 49L69 49L69 50L68 50L68 52L69 52L69 53L68 53L68 54L67 54L67 55L68 55L68 56L66 56L66 58L65 58L65 57L64 57L64 56L65 56L65 54L66 54L66 51L67 51L67 50L66 50L66 51L65 51L65 50L62 50L62 49L63 49L63 48L62 48L62 49L61 49L61 48L60 48L60 47L59 47L59 46L61 46L61 47L64 47L64 49L65 49L65 48L66 48L66 47L64 47L64 46L66 46L66 45L65 45L65 43L67 43L67 44L68 44L68 45L69 45L69 46L67 46L67 47L69 47L69 48L71 48L71 50L72 50L72 48L74 48L74 47L75 47L75 45L74 45L74 43L73 43L73 46L71 46L71 47L70 47L70 45L69 45L69 44L70 44L70 43L68 43L68 42L70 42L70 41L69 41L69 39L72 39L72 38L73 38L73 37L72 37L72 35L71 35L71 34L72 34L72 33L73 33L73 32L71 32L71 31L74 31L74 34L73 34L73 35L74 35L74 36L75 36L75 37L77 37L77 36L76 36L76 35L78 35L78 33L79 33L79 32L78 32L78 33L75 33L75 32L77 32L77 31L78 31L78 30L77 30L77 29L76 29L76 31L74 31L74 30L75 30L75 29L72 29L72 30L71 30L71 31L70 31L70 30L69 30L69 29L70 29L70 28L68 28L68 27L67 27L67 28L66 28L66 27L65 27L65 28L64 28L64 26L65 26L65 25L64 25L64 24L66 24L66 26L69 26L69 27L71 27L71 28L72 28L72 27L71 27L71 26L72 26L72 25L71 25L71 24L72 24L72 22L73 22L73 21L72 21L72 20L71 20L71 19L69 19L69 20L68 20L68 22L67 22L67 24L66 24L66 23L64 23L64 22L65 22L65 16L63 16L63 18L64 18L64 21L62 21L62 20L63 20L63 19L62 19L62 17L61 17L61 18L58 18L58 19L56 19L56 18L57 18L57 17L58 17L58 16L57 16L57 15L58 15L58 13L57 13L57 14L56 14L56 12L55 12L55 11L51 11L51 10L52 10L52 9L50 9L50 10L48 10L48 11L47 11L47 9L48 9L48 8L47 8L47 7L48 7L48 6L47 6L47 7L46 7L46 5L48 5L48 4L46 4L46 3L45 3L45 4L46 4L46 5L45 5L45 9L44 9L44 10L45 10L45 11L47 11L47 12L44 12L44 11L43 11L43 12L41 12L41 11L42 11L42 9L41 9L41 7L42 7L42 6L41 6L41 7L40 7L40 3L38 3L38 4L37 4L37 3ZM41 3L41 4L42 4L42 5L43 5L43 7L44 7L44 4L42 4L42 3ZM9 4L9 5L10 5L10 4ZM25 5L25 8L28 8L28 5ZM37 5L37 6L36 6L36 10L37 10L37 11L36 11L36 12L35 12L35 11L34 11L34 13L35 13L35 14L36 14L36 16L34 16L34 18L35 18L35 19L36 19L36 18L38 18L38 19L39 19L39 20L40 20L40 22L41 22L41 23L40 23L40 24L41 24L41 23L42 23L42 21L41 21L41 19L43 19L43 18L41 18L41 19L40 19L40 18L39 18L39 17L38 17L38 16L39 16L39 13L37 13L37 14L36 14L36 12L40 12L40 17L42 17L42 16L43 16L43 17L44 17L44 18L46 18L46 17L47 17L47 18L48 18L48 19L49 19L49 18L50 18L50 19L52 19L52 21L51 21L51 22L54 22L54 20L55 20L55 22L56 22L56 23L57 23L57 21L58 21L58 23L59 23L59 24L58 24L58 25L60 25L60 27L61 27L61 25L62 25L62 24L63 24L63 22L62 22L62 21L61 21L61 19L60 19L60 21L59 21L59 19L58 19L58 20L57 20L57 21L56 21L56 20L55 20L55 19L53 19L53 18L56 18L56 17L57 17L57 16L56 16L56 17L53 17L53 18L51 18L51 17L52 17L52 15L53 15L53 14L54 14L54 16L55 16L55 15L56 15L56 14L55 14L55 13L53 13L53 12L51 12L51 11L49 11L49 12L47 12L47 13L49 13L49 12L51 12L51 17L50 17L50 14L49 14L49 15L47 15L47 14L46 14L46 13L45 13L45 14L44 14L44 12L43 12L43 14L44 14L44 15L42 15L42 16L41 16L41 12L40 12L40 10L39 10L39 9L37 9L37 6L38 6L38 7L39 7L39 5ZM49 5L49 8L52 8L52 5ZM53 5L53 7L54 7L54 8L55 8L55 7L56 7L56 6L55 6L55 7L54 7L54 5ZM71 5L71 6L70 6L70 7L71 7L71 8L72 8L72 9L71 9L71 10L72 10L72 9L73 9L73 6L72 6L72 5ZM8 6L8 7L9 7L9 6ZM11 6L11 8L12 8L12 9L11 9L11 10L10 10L10 9L9 9L9 10L10 10L10 11L8 11L8 10L7 10L7 9L5 9L5 10L4 10L4 12L3 12L3 9L1 9L1 12L2 12L2 13L1 13L1 14L2 14L2 13L4 13L4 14L5 14L5 15L6 15L6 16L5 16L5 19L6 19L6 20L7 20L7 21L6 21L6 22L8 22L8 20L7 20L7 19L9 19L9 22L10 22L10 20L11 20L11 21L12 21L12 20L13 20L13 22L14 22L14 19L12 19L12 20L11 20L11 19L10 19L10 18L9 18L9 17L8 17L8 16L10 16L10 15L11 15L11 14L12 14L12 13L11 13L11 11L12 11L12 12L13 12L13 13L14 13L14 15L12 15L12 16L14 16L14 17L15 17L15 16L14 16L14 15L16 15L16 12L15 12L15 10L13 10L13 9L14 9L14 6L13 6L13 8L12 8L12 6ZM26 6L26 7L27 7L27 6ZM50 6L50 7L51 7L51 6ZM71 6L71 7L72 7L72 6ZM33 8L33 9L32 9L32 10L31 10L31 11L32 11L32 12L33 12L33 10L34 10L34 8ZM45 9L45 10L46 10L46 9ZM5 10L5 12L4 12L4 13L5 13L5 14L6 14L6 15L7 15L7 16L6 16L6 17L7 17L7 18L6 18L6 19L7 19L7 18L8 18L8 17L7 17L7 16L8 16L8 13L9 13L9 15L10 15L10 14L11 14L11 13L10 13L10 12L6 12L6 11L7 11L7 10ZM12 10L12 11L13 11L13 10ZM16 10L16 11L17 11L17 10ZM38 10L38 11L39 11L39 10ZM63 10L63 11L64 11L64 10ZM78 10L78 11L77 11L77 12L78 12L78 11L79 11L79 10ZM5 12L5 13L6 13L6 14L7 14L7 13L6 13L6 12ZM26 12L26 13L27 13L27 12ZM32 14L32 15L33 15L33 14ZM37 14L37 15L38 15L38 14ZM45 14L45 15L44 15L44 16L45 16L45 15L46 15L46 16L47 16L47 15L46 15L46 14ZM63 14L63 15L64 15L64 14ZM1 16L1 17L2 17L2 16ZM20 16L20 18L21 18L21 21L20 21L20 22L19 22L19 24L17 24L17 25L19 25L19 24L20 24L20 25L21 25L21 23L22 23L22 22L21 22L21 21L22 21L22 16ZM24 16L24 17L23 17L23 20L24 20L24 21L25 21L25 22L26 22L26 21L27 21L27 22L28 22L28 23L29 23L29 22L30 22L30 21L27 21L27 18L26 18L26 17L25 17L25 16ZM36 16L36 17L37 17L37 16ZM48 16L48 18L49 18L49 16ZM72 16L72 17L71 17L71 18L73 18L73 16ZM12 17L12 18L13 18L13 17ZM24 17L24 18L25 18L25 19L24 19L24 20L25 20L25 21L26 21L26 18L25 18L25 17ZM74 17L74 18L75 18L75 17ZM1 18L1 19L0 19L0 20L2 20L2 18ZM45 19L45 21L47 21L47 20L46 20L46 19ZM43 20L43 22L44 22L44 20ZM49 20L49 21L48 21L48 25L47 25L47 23L43 23L43 25L39 25L39 22L38 22L38 23L37 23L37 27L36 27L36 25L35 25L35 24L34 24L34 25L33 25L33 26L35 26L35 27L34 27L34 28L35 28L35 29L33 29L33 28L32 28L32 31L33 31L33 32L34 32L34 30L35 30L35 33L36 33L36 32L37 32L37 31L38 31L38 32L39 32L39 33L41 33L41 34L42 34L42 35L44 35L44 36L43 36L43 37L42 37L42 38L43 38L43 40L42 40L42 39L41 39L41 38L40 38L40 37L41 37L41 35L40 35L40 34L38 34L38 35L37 35L37 36L36 36L36 35L35 35L35 34L34 34L34 33L32 33L32 32L31 32L31 33L30 33L30 34L28 34L28 31L27 31L27 32L25 32L25 33L22 33L22 32L21 32L21 31L22 31L22 30L21 30L21 31L17 31L17 29L16 29L16 28L14 28L14 29L15 29L15 32L14 32L14 33L13 33L13 32L12 32L12 34L11 34L11 35L10 35L10 36L9 36L9 35L8 35L8 36L6 36L6 37L5 37L5 39L7 39L7 38L6 38L6 37L8 37L8 36L9 36L9 37L10 37L10 38L8 38L8 42L9 42L9 43L7 43L7 44L10 44L10 45L8 45L8 47L9 47L9 46L11 46L11 43L10 43L10 41L9 41L9 39L15 39L15 40L13 40L13 41L14 41L14 42L12 42L12 43L14 43L14 42L16 42L16 44L13 44L13 46L12 46L12 47L13 47L13 46L14 46L14 48L15 48L15 50L13 50L13 49L12 49L12 50L13 50L13 53L14 53L14 54L13 54L13 55L14 55L14 54L16 54L16 53L15 53L15 52L14 52L14 51L16 51L16 52L18 52L18 53L19 53L19 52L20 52L20 51L24 51L24 53L27 53L27 54L25 54L25 57L26 57L26 58L25 58L25 59L24 59L24 60L23 60L23 61L24 61L24 62L22 62L22 64L23 64L23 65L24 65L24 66L25 66L25 69L26 69L26 71L28 71L28 68L27 68L27 67L29 67L29 66L31 66L31 67L32 67L32 69L31 69L31 70L32 70L32 71L31 71L31 73L30 73L30 75L31 75L31 73L32 73L32 74L33 74L33 73L34 73L34 72L32 72L32 71L35 71L35 70L32 70L32 69L38 69L38 70L39 70L39 69L38 69L38 68L39 68L39 67L40 67L40 65L41 65L41 61L42 61L42 63L43 63L43 62L44 62L44 64L45 64L45 65L46 65L46 66L48 66L48 64L49 64L49 65L50 65L50 66L49 66L49 67L50 67L50 66L51 66L51 67L52 67L52 66L55 66L55 65L52 65L52 66L51 66L51 63L55 63L55 64L56 64L56 61L55 61L55 62L51 62L51 63L50 63L50 64L49 64L49 63L48 63L48 60L49 60L49 62L50 62L50 56L51 56L51 61L52 61L52 60L53 60L53 59L55 59L55 60L56 60L56 59L55 59L55 56L56 56L56 55L55 55L55 56L53 56L53 55L52 55L52 54L54 54L54 53L56 53L56 52L57 52L57 53L58 53L58 54L57 54L57 55L58 55L58 56L57 56L57 57L56 57L56 58L60 58L60 56L61 56L61 60L60 60L60 61L61 61L61 63L57 63L57 65L56 65L56 67L58 67L58 68L57 68L57 69L58 69L58 70L59 70L59 71L58 71L58 73L59 73L59 72L60 72L60 71L61 71L61 73L60 73L60 75L61 75L61 73L62 73L62 72L63 72L63 71L61 71L61 67L59 67L59 64L61 64L61 65L60 65L60 66L61 66L61 65L62 65L62 67L64 67L64 71L66 71L66 72L64 72L64 73L63 73L63 74L64 74L64 75L63 75L63 76L64 76L64 75L65 75L65 74L66 74L66 75L69 75L69 74L70 74L70 73L69 73L69 71L70 71L70 72L72 72L72 71L73 71L73 70L74 70L74 69L73 69L73 68L72 68L72 67L71 67L71 68L70 68L70 69L71 69L71 68L72 68L72 69L73 69L73 70L71 70L71 71L70 71L70 70L69 70L69 71L67 71L67 70L68 70L68 69L69 69L69 68L68 68L68 69L67 69L67 70L66 70L66 68L67 68L67 67L65 67L65 65L67 65L67 64L64 64L64 65L63 65L63 63L62 63L62 61L64 61L64 62L67 62L67 63L69 63L69 64L68 64L68 67L69 67L69 66L71 66L71 65L73 65L73 67L74 67L74 66L75 66L75 65L73 65L73 64L71 64L71 65L69 65L69 64L70 64L70 61L71 61L71 58L73 58L73 61L74 61L74 59L75 59L75 55L74 55L74 57L71 57L71 58L70 58L70 60L69 60L69 62L68 62L68 61L67 61L67 60L68 60L68 59L67 59L67 60L66 60L66 61L65 61L65 59L64 59L64 60L62 60L62 59L63 59L63 58L62 58L62 56L61 56L61 54L62 54L62 55L64 55L64 54L65 54L65 51L63 51L63 54L62 54L62 52L61 52L61 51L62 51L62 50L61 50L61 51L60 51L60 52L59 52L59 49L60 49L60 48L59 48L59 49L58 49L58 50L56 50L56 49L55 49L55 48L57 48L57 47L58 47L58 44L60 44L60 43L59 43L59 42L62 42L62 44L63 44L63 43L64 43L64 42L67 42L67 41L65 41L65 40L63 40L63 39L62 39L62 38L61 38L61 37L59 37L59 36L60 36L60 35L61 35L61 36L62 36L62 35L64 35L64 36L63 36L63 38L64 38L64 39L66 39L66 40L67 40L67 39L69 39L69 38L68 38L68 36L69 36L69 35L70 35L70 34L69 34L69 33L70 33L70 32L69 32L69 33L68 33L68 31L69 31L69 30L68 30L68 31L67 31L67 33L66 33L66 30L67 30L67 29L68 29L68 28L67 28L67 29L66 29L66 30L65 30L65 31L64 31L64 30L63 30L63 31L62 31L62 32L63 32L63 33L62 33L62 35L61 35L61 34L59 34L59 33L60 33L60 32L61 32L61 31L58 31L58 30L60 30L60 29L61 29L61 30L62 30L62 29L64 29L64 28L60 28L60 29L59 29L59 28L58 28L58 27L57 27L57 29L56 29L56 31L58 31L58 32L56 32L56 33L54 33L54 31L53 31L53 27L55 27L55 28L54 28L54 30L55 30L55 28L56 28L56 26L57 26L57 24L51 24L51 23L49 23L49 21L50 21L50 20ZM69 21L69 22L68 22L68 23L69 23L69 22L70 22L70 24L71 24L71 21ZM20 22L20 23L21 23L21 22ZM23 22L23 24L24 24L24 22ZM60 22L60 23L62 23L62 22ZM74 22L74 23L73 23L73 24L75 24L75 22ZM26 23L26 24L27 24L27 23ZM9 24L9 26L10 26L10 24ZM29 24L29 26L30 26L30 24ZM44 24L44 26L43 26L43 27L42 27L42 26L39 26L39 27L37 27L37 28L36 28L36 29L35 29L35 30L36 30L36 29L38 29L38 31L39 31L39 29L38 29L38 28L39 28L39 27L40 27L40 29L41 29L41 30L42 30L42 31L41 31L41 32L42 32L42 34L44 34L44 35L45 35L45 37L46 37L46 34L44 34L44 32L43 32L43 30L45 30L45 33L46 33L46 32L47 32L47 38L48 38L48 39L45 39L45 38L44 38L44 37L43 37L43 38L44 38L44 40L43 40L43 41L42 41L42 40L41 40L41 42L40 42L40 44L39 44L39 43L38 43L38 42L39 42L39 41L38 41L38 40L37 40L37 37L36 37L36 36L35 36L35 35L34 35L34 36L33 36L33 35L32 35L32 34L31 34L31 36L30 36L30 35L29 35L29 37L28 37L28 34L26 34L26 33L25 33L25 34L24 34L24 36L23 36L23 35L21 35L21 34L22 34L22 33L20 33L20 32L19 32L19 33L18 33L18 37L14 37L14 38L15 38L15 39L17 39L17 40L18 40L18 42L19 42L19 43L18 43L18 44L17 44L17 45L16 45L16 46L15 46L15 45L14 45L14 46L15 46L15 48L16 48L16 49L17 49L17 51L18 51L18 48L16 48L16 46L17 46L17 45L18 45L18 46L19 46L19 48L20 48L20 49L19 49L19 50L20 50L20 49L21 49L21 50L22 50L22 48L23 48L23 50L24 50L24 47L27 47L27 48L28 48L28 47L27 47L27 45L29 45L29 44L28 44L28 41L30 41L30 42L29 42L29 43L32 43L32 44L30 44L30 47L29 47L29 51L30 51L30 52L29 52L29 55L27 55L27 56L26 56L26 57L27 57L27 58L30 58L30 59L29 59L29 61L28 61L28 60L27 60L27 61L26 61L26 62L24 62L24 63L23 63L23 64L25 64L25 65L27 65L27 66L26 66L26 67L27 67L27 66L28 66L28 65L27 65L27 64L28 64L28 63L26 63L26 62L29 62L29 61L30 61L30 62L31 62L31 63L29 63L29 65L31 65L31 63L33 63L33 64L34 64L34 63L35 63L35 65L33 65L33 66L32 66L32 67L34 67L34 68L36 68L36 67L37 67L37 68L38 68L38 67L39 67L39 66L38 66L38 64L37 64L37 65L36 65L36 63L35 63L35 62L33 62L33 61L32 61L32 60L33 60L33 59L34 59L34 58L38 58L38 59L39 59L39 58L40 58L40 60L38 60L38 61L37 61L37 59L36 59L36 60L35 60L35 61L37 61L37 63L38 63L38 62L39 62L39 64L40 64L40 62L39 62L39 61L41 61L41 59L42 59L42 58L44 58L44 57L45 57L45 62L47 62L47 60L46 60L46 59L49 59L49 58L46 58L46 57L49 57L49 56L50 56L50 55L51 55L51 56L52 56L52 55L51 55L51 54L52 54L52 53L48 53L48 52L47 52L47 53L46 53L46 50L47 50L47 49L48 49L48 46L46 46L46 44L47 44L47 45L48 45L48 44L47 44L47 43L48 43L48 42L49 42L49 45L53 45L53 46L54 46L54 47L53 47L53 48L54 48L54 47L57 47L57 45L56 45L56 46L55 46L55 44L54 44L54 45L53 45L53 44L51 44L51 43L50 43L50 41L49 41L49 40L51 40L51 42L52 42L52 43L57 43L57 44L58 44L58 43L57 43L57 42L56 42L56 41L54 41L54 40L55 40L55 39L54 39L54 37L53 37L53 38L52 38L52 37L51 37L51 36L50 36L50 37L49 37L49 36L48 36L48 35L50 35L50 34L51 34L51 35L52 35L52 34L53 34L53 36L55 36L55 37L56 37L56 36L58 36L58 34L57 34L57 33L56 33L56 34L55 34L55 35L54 35L54 34L53 34L53 33L52 33L52 32L53 32L53 31L51 31L51 33L49 33L49 32L50 32L50 30L48 30L48 29L46 29L46 28L48 28L48 26L47 26L47 25L46 25L46 24ZM68 24L68 25L69 25L69 26L71 26L71 25L69 25L69 24ZM5 25L5 28L8 28L8 25ZM14 25L14 26L15 26L15 25ZM25 25L25 28L28 28L28 25ZM49 25L49 28L52 28L52 25ZM63 25L63 26L64 26L64 25ZM73 25L73 28L76 28L76 25ZM6 26L6 27L7 27L7 26ZM26 26L26 27L27 27L27 26ZM46 26L46 27L47 27L47 26ZM50 26L50 27L51 27L51 26ZM74 26L74 27L75 27L75 26ZM43 27L43 29L42 29L42 28L41 28L41 29L42 29L42 30L43 30L43 29L44 29L44 27ZM79 27L79 28L80 28L80 27ZM19 28L19 29L20 29L20 28ZM45 29L45 30L46 30L46 31L47 31L47 32L48 32L48 31L47 31L47 30L46 30L46 29ZM51 29L51 30L52 30L52 29ZM57 29L57 30L58 30L58 29ZM13 30L13 31L14 31L14 30ZM16 31L16 32L15 32L15 33L14 33L14 34L12 34L12 35L11 35L11 36L15 36L15 35L17 35L17 34L15 34L15 33L17 33L17 31ZM63 31L63 32L64 32L64 31ZM58 32L58 33L59 33L59 32ZM19 33L19 34L20 34L20 33ZM48 33L48 34L49 34L49 33ZM63 33L63 34L64 34L64 35L65 35L65 37L64 37L64 38L67 38L67 35L68 35L68 33L67 33L67 34L66 34L66 33L65 33L65 34L64 34L64 33ZM14 34L14 35L15 35L15 34ZM25 34L25 35L26 35L26 34ZM56 34L56 35L55 35L55 36L56 36L56 35L57 35L57 34ZM65 34L65 35L66 35L66 34ZM75 34L75 35L76 35L76 34ZM19 36L19 37L18 37L18 40L19 40L19 39L20 39L20 40L22 40L22 41L21 41L21 44L20 44L20 43L19 43L19 44L20 44L20 45L21 45L21 46L22 46L22 45L23 45L23 47L24 47L24 46L25 46L25 45L26 45L26 44L27 44L27 43L25 43L25 42L26 42L26 41L24 41L24 42L23 42L23 38L24 38L24 40L28 40L28 39L27 39L27 38L28 38L28 37L27 37L27 36L26 36L26 37L23 37L23 36L22 36L22 39L20 39L20 38L19 38L19 37L21 37L21 36ZM32 36L32 37L29 37L29 40L30 40L30 39L31 39L31 40L32 40L32 42L33 42L33 41L34 41L34 43L33 43L33 44L32 44L32 45L31 45L31 46L33 46L33 45L34 45L34 46L35 46L35 47L34 47L34 48L35 48L35 47L36 47L36 49L33 49L33 48L32 48L32 47L31 47L31 48L30 48L30 51L31 51L31 52L30 52L30 54L31 54L31 55L32 55L32 56L31 56L31 57L32 57L32 56L33 56L33 58L32 58L32 59L33 59L33 58L34 58L34 57L38 57L38 55L41 55L41 53L40 53L40 50L41 50L41 51L42 51L42 53L43 53L43 56L42 56L42 57L41 57L41 56L40 56L40 58L42 58L42 57L44 57L44 55L45 55L45 56L47 56L47 55L46 55L46 53L45 53L45 54L44 54L44 53L43 53L43 52L45 52L45 49L47 49L47 47L46 47L46 46L45 46L45 47L46 47L46 48L43 48L43 47L44 47L44 45L45 45L45 44L46 44L46 43L45 43L45 44L43 44L43 43L44 43L44 41L45 41L45 42L46 42L46 41L45 41L45 40L44 40L44 41L43 41L43 42L42 42L42 44L40 44L40 45L41 45L41 47L40 47L40 46L39 46L39 45L38 45L38 47L40 47L40 48L37 48L37 47L36 47L36 46L37 46L37 42L36 42L36 41L35 41L35 40L36 40L36 37L33 37L33 36ZM38 36L38 38L39 38L39 36ZM70 36L70 37L71 37L71 38L72 38L72 37L71 37L71 36ZM12 37L12 38L13 38L13 37ZM26 37L26 38L25 38L25 39L26 39L26 38L27 38L27 37ZM32 37L32 38L31 38L31 39L32 39L32 40L33 40L33 37ZM48 37L48 38L49 38L49 39L48 39L48 40L49 40L49 39L50 39L50 38L49 38L49 37ZM57 37L57 38L56 38L56 39L59 39L59 40L58 40L58 42L59 42L59 40L60 40L60 39L61 39L61 41L63 41L63 40L62 40L62 39L61 39L61 38L59 38L59 37ZM73 39L73 40L74 40L74 39ZM6 40L6 41L7 41L7 40ZM15 40L15 41L16 41L16 40ZM71 40L71 41L72 41L72 40ZM19 41L19 42L20 42L20 41ZM47 41L47 42L48 42L48 41ZM1 42L1 43L0 43L0 45L1 45L1 44L2 44L2 42ZM22 42L22 44L23 44L23 45L24 45L24 44L23 44L23 42ZM35 42L35 43L34 43L34 44L36 44L36 42ZM75 43L75 44L76 44L76 47L77 47L77 45L78 45L78 44L76 44L76 43ZM71 44L71 45L72 45L72 44ZM35 45L35 46L36 46L36 45ZM42 45L42 46L43 46L43 45ZM61 45L61 46L63 46L63 45ZM3 46L3 47L4 47L4 46ZM73 46L73 47L74 47L74 46ZM20 47L20 48L21 48L21 47ZM41 47L41 48L40 48L40 49L39 49L39 50L40 50L40 49L41 49L41 50L42 50L42 51L43 51L43 50L44 50L44 49L42 49L42 47ZM50 47L50 48L51 48L51 47ZM71 47L71 48L72 48L72 47ZM5 49L5 52L8 52L8 49ZM25 49L25 52L28 52L28 49ZM31 49L31 50L32 50L32 54L33 54L33 56L34 56L34 54L35 54L35 53L36 53L36 54L38 54L38 53L37 53L37 52L35 52L35 50L34 50L34 51L33 51L33 50L32 50L32 49ZM36 49L36 51L37 51L37 50L38 50L38 49ZM49 49L49 52L52 52L52 49ZM54 49L54 50L53 50L53 51L55 51L55 52L56 52L56 51L55 51L55 49ZM73 49L73 52L76 52L76 49ZM6 50L6 51L7 51L7 50ZM10 50L10 51L11 51L11 50ZM26 50L26 51L27 51L27 50ZM50 50L50 51L51 51L51 50ZM74 50L74 51L75 51L75 50ZM2 51L2 52L3 52L3 51ZM11 52L11 54L12 54L12 52ZM33 52L33 53L34 53L34 52ZM53 52L53 53L54 53L54 52ZM60 52L60 54L59 54L59 55L60 55L60 54L61 54L61 52ZM6 53L6 54L7 54L7 53ZM9 53L9 54L10 54L10 53ZM39 53L39 54L40 54L40 53ZM47 53L47 54L48 54L48 53ZM2 54L2 55L3 55L3 54ZM0 55L0 57L1 57L1 55ZM6 55L6 56L7 56L7 57L6 57L6 58L8 58L8 59L9 59L9 58L8 58L8 57L9 57L9 56L8 56L8 55ZM29 55L29 57L30 57L30 55ZM36 55L36 56L37 56L37 55ZM80 55L80 56L81 56L81 55ZM11 56L11 57L12 57L12 58L13 58L13 57L12 57L12 56ZM69 56L69 57L67 57L67 58L69 58L69 57L70 57L70 56ZM52 57L52 59L53 59L53 57ZM79 58L79 59L80 59L80 58ZM30 59L30 60L31 60L31 59ZM58 59L58 60L59 60L59 59ZM1 60L1 61L2 61L2 60ZM5 60L5 61L6 61L6 60ZM24 60L24 61L25 61L25 60ZM42 60L42 61L44 61L44 60ZM61 60L61 61L62 61L62 60ZM31 61L31 62L32 62L32 61ZM57 61L57 62L59 62L59 61ZM9 62L9 63L10 63L10 62ZM46 63L46 65L47 65L47 63ZM61 63L61 64L62 64L62 63ZM4 64L4 65L3 65L3 66L2 66L2 67L3 67L3 69L2 69L2 68L1 68L1 69L0 69L0 70L1 70L1 73L4 73L4 72L2 72L2 71L4 71L4 70L3 70L3 69L5 69L5 68L4 68L4 67L5 67L5 65L7 65L7 64ZM15 64L15 67L17 67L17 68L15 68L15 69L16 69L16 70L18 70L18 69L19 69L19 71L18 71L18 72L19 72L19 71L20 71L20 69L19 69L19 67L20 67L20 68L21 68L21 69L24 69L24 68L23 68L23 66L22 66L22 65L18 65L18 67L17 67L17 66L16 66L16 64ZM35 65L35 66L34 66L34 67L35 67L35 66L36 66L36 65ZM57 65L57 66L58 66L58 65ZM6 66L6 67L7 67L7 66ZM37 66L37 67L38 67L38 66ZM6 68L6 69L7 69L7 68ZM17 68L17 69L18 69L18 68ZM26 68L26 69L27 69L27 68ZM59 68L59 69L60 69L60 68ZM62 68L62 69L63 69L63 68ZM1 69L1 70L2 70L2 69ZM44 69L44 70L45 70L45 69ZM78 69L78 70L79 70L79 71L80 71L80 72L81 72L81 71L80 71L80 69ZM9 71L9 72L11 72L11 71ZM23 72L23 73L22 73L22 74L21 74L21 76L22 76L22 75L23 75L23 77L24 77L24 72ZM66 72L66 74L69 74L69 73L68 73L68 72ZM25 73L25 76L28 76L28 73ZM35 73L35 74L36 74L36 75L37 75L37 74L36 74L36 73ZM49 73L49 76L52 76L52 73ZM64 73L64 74L65 74L65 73ZM73 73L73 76L76 76L76 73ZM80 73L80 74L81 74L81 73ZM26 74L26 75L27 75L27 74ZM50 74L50 75L51 75L51 74ZM56 74L56 75L57 75L57 74ZM74 74L74 75L75 75L75 74ZM78 75L78 76L79 76L79 77L81 77L81 76L80 76L80 75ZM42 77L42 78L44 78L44 77ZM67 77L67 78L68 78L68 77ZM73 77L73 78L74 78L74 79L76 79L76 78L74 78L74 77ZM59 78L59 79L60 79L60 78ZM77 78L77 80L78 80L78 78ZM53 79L53 80L52 80L52 81L54 81L54 80L55 80L55 79ZM0 0L0 7L7 7L7 0ZM1 1L1 6L6 6L6 1ZM2 2L2 5L5 5L5 2ZM74 0L74 7L81 7L81 0ZM75 1L75 6L80 6L80 1ZM76 2L76 5L79 5L79 2ZM0 74L0 81L7 81L7 74ZM1 75L1 80L6 80L6 75ZM2 76L2 79L5 79L5 76Z" fill="#000000"/></g></g></svg>
