<?xml version="1.0" encoding="UTF-8"?>
<svg xmlns="http://www.w3.org/2000/svg" version="1.1" width="400" height="400" viewBox="0 0 400 400"><rect x="0" y="0" width="400" height="400" fill="#fefefe"/><g transform="scale(4.706)"><g transform="translate(4,4)"><path fill-rule="evenodd" d="M8 0L8 1L9 1L9 0ZM12 0L12 2L11 2L11 3L10 3L10 2L9 2L9 3L10 3L10 4L11 4L11 3L12 3L12 4L13 4L13 3L12 3L12 2L16 2L16 3L17 3L17 2L18 2L18 3L19 3L19 2L20 2L20 4L18 4L18 7L19 7L19 5L21 5L21 4L22 4L22 3L23 3L23 4L24 4L24 5L23 5L23 6L22 6L22 7L21 7L21 6L20 6L20 8L18 8L18 9L16 9L16 8L17 8L17 4L15 4L15 5L13 5L13 6L12 6L12 8L11 8L11 9L10 9L10 10L9 10L9 9L8 9L8 8L1 8L1 9L0 9L0 10L1 10L1 9L5 9L5 10L4 10L4 11L5 11L5 10L6 10L6 11L7 11L7 12L6 12L6 13L7 13L7 14L6 14L6 15L7 15L7 16L6 16L6 17L8 17L8 18L5 18L5 20L4 20L4 17L5 17L5 14L4 14L4 16L1 16L1 17L0 17L0 18L1 18L1 19L0 19L0 20L2 20L2 21L1 21L1 22L2 22L2 21L3 21L3 20L4 20L4 23L3 23L3 24L2 24L2 23L1 23L1 24L2 24L2 25L1 25L1 27L2 27L2 29L1 29L1 30L2 30L2 31L3 31L3 32L2 32L2 33L0 33L0 35L1 35L1 34L2 34L2 36L3 36L3 37L0 37L0 38L1 38L1 39L2 39L2 38L3 38L3 37L4 37L4 36L5 36L5 38L6 38L6 39L7 39L7 40L6 40L6 41L5 41L5 40L2 40L2 42L1 42L1 43L0 43L0 44L1 44L1 45L0 45L0 48L1 48L1 51L0 51L0 52L1 52L1 53L0 53L0 55L1 55L1 56L0 56L0 57L2 57L2 55L3 55L3 58L2 58L2 59L0 59L0 62L2 62L2 63L3 63L3 64L4 64L4 68L1 68L1 69L5 69L5 67L10 67L10 68L13 68L13 67L14 67L14 69L13 69L13 70L14 70L14 71L12 71L12 72L14 72L14 71L15 71L15 68L16 68L16 69L17 69L17 72L18 72L18 73L17 73L17 74L18 74L18 75L20 75L20 76L17 76L17 75L16 75L16 74L15 74L15 73L16 73L16 72L15 72L15 73L12 73L12 74L11 74L11 73L10 73L10 71L11 71L11 70L12 70L12 69L11 69L11 70L10 70L10 71L9 71L9 69L8 69L8 68L6 68L6 69L8 69L8 76L9 76L9 73L10 73L10 76L11 76L11 77L13 77L13 76L14 76L14 77L15 77L15 76L14 76L14 74L15 74L15 75L16 75L16 77L20 77L20 76L21 76L21 75L22 75L22 74L18 74L18 73L20 73L20 71L21 71L21 73L25 73L25 74L24 74L24 75L26 75L26 77L27 77L27 76L30 76L30 77L31 77L31 76L30 76L30 75L28 75L28 74L27 74L27 73L29 73L29 74L30 74L30 71L31 71L31 73L32 73L32 71L31 71L31 70L30 70L30 69L29 69L29 67L30 67L30 68L32 68L32 69L33 69L33 68L34 68L34 69L36 69L36 74L35 74L35 71L33 71L33 73L34 73L34 74L35 74L35 75L32 75L32 74L31 74L31 75L32 75L32 76L33 76L33 77L35 77L35 76L36 76L36 75L37 75L37 76L38 76L38 75L37 75L37 74L40 74L40 76L39 76L39 77L42 77L42 76L43 76L43 77L44 77L44 74L45 74L45 75L46 75L46 74L45 74L45 73L43 73L43 72L42 72L42 70L46 70L46 73L50 73L50 74L51 74L51 75L49 75L49 76L48 76L48 77L49 77L49 76L51 76L51 77L52 77L52 76L53 76L53 77L54 77L54 76L53 76L53 75L54 75L54 74L56 74L56 75L57 75L57 76L58 76L58 77L66 77L66 76L65 76L65 74L64 74L64 73L67 73L67 74L66 74L66 75L68 75L68 76L69 76L69 77L73 77L73 76L70 76L70 75L68 75L68 74L69 74L69 73L70 73L70 74L71 74L71 75L72 75L72 74L71 74L71 73L75 73L75 72L77 72L77 71L75 71L75 70L74 70L74 69L75 69L75 68L77 68L77 67L75 67L75 66L74 66L74 67L75 67L75 68L74 68L74 69L73 69L73 67L72 67L72 68L71 68L71 67L70 67L70 68L68 68L68 67L67 67L67 66L68 66L68 65L67 65L67 64L69 64L69 66L71 66L71 63L70 63L70 62L72 62L72 64L73 64L73 63L74 63L74 65L75 65L75 63L76 63L76 64L77 64L77 63L76 63L76 62L77 62L77 61L76 61L76 62L72 62L72 60L73 60L73 59L72 59L72 60L71 60L71 59L70 59L70 58L71 58L71 57L70 57L70 56L71 56L71 55L70 55L70 56L69 56L69 54L68 54L68 53L66 53L66 52L65 52L65 50L66 50L66 51L67 51L67 52L70 52L70 51L72 51L72 52L73 52L73 51L74 51L74 53L75 53L75 54L74 54L74 55L72 55L72 56L75 56L75 57L76 57L76 56L77 56L77 55L76 55L76 54L77 54L77 53L75 53L75 52L77 52L77 51L75 51L75 50L73 50L73 48L74 48L74 47L75 47L75 49L76 49L76 48L77 48L77 47L76 47L76 46L77 46L77 45L76 45L76 44L77 44L77 43L76 43L76 42L77 42L77 41L76 41L76 40L77 40L77 38L76 38L76 37L75 37L75 38L76 38L76 39L75 39L75 42L72 42L72 43L74 43L74 45L73 45L73 44L72 44L72 45L73 45L73 46L68 46L68 45L66 45L66 44L65 44L65 47L64 47L64 46L63 46L63 45L64 45L64 42L63 42L63 44L61 44L61 43L62 43L62 42L61 42L61 41L62 41L62 40L63 40L63 41L66 41L66 40L68 40L68 41L67 41L67 42L68 42L68 43L67 43L67 44L69 44L69 45L71 45L71 44L69 44L69 43L70 43L70 42L68 42L68 41L69 41L69 40L68 40L68 38L67 38L67 39L66 39L66 40L64 40L64 38L65 38L65 37L66 37L66 36L67 36L67 37L70 37L70 35L71 35L71 37L72 37L72 38L71 38L71 39L70 39L70 38L69 38L69 39L70 39L70 41L71 41L71 39L73 39L73 37L74 37L74 36L77 36L77 34L75 34L75 35L73 35L73 34L74 34L74 33L75 33L75 32L76 32L76 30L74 30L74 29L73 29L73 24L72 24L72 23L71 23L71 21L70 21L70 20L71 20L71 19L70 19L70 17L68 17L68 16L67 16L67 15L66 15L66 16L65 16L65 17L66 17L66 20L65 20L65 19L64 19L64 18L63 18L63 17L64 17L64 14L67 14L67 13L68 13L68 12L69 12L69 8L68 8L68 10L67 10L67 9L64 9L64 8L65 8L65 4L66 4L66 7L67 7L67 5L69 5L69 1L68 1L68 4L66 4L66 2L67 2L67 1L66 1L66 0L63 0L63 1L61 1L61 0L57 0L57 2L55 2L55 1L56 1L56 0L54 0L54 1L53 1L53 0L52 0L52 1L53 1L53 2L54 2L54 3L53 3L53 4L55 4L55 5L54 5L54 9L55 9L55 10L54 10L54 11L55 11L55 10L56 10L56 9L57 9L57 11L56 11L56 13L55 13L55 12L53 12L53 13L54 13L54 14L53 14L53 15L52 15L52 14L51 14L51 13L52 13L52 12L48 12L48 11L49 11L49 10L50 10L50 11L52 11L52 10L53 10L53 9L52 9L52 8L53 8L53 5L51 5L51 4L52 4L52 2L51 2L51 1L50 1L50 0L48 0L48 2L47 2L47 0L41 0L41 1L40 1L40 0L39 0L39 1L38 1L38 2L37 2L37 1L36 1L36 0L31 0L31 1L30 1L30 2L29 2L29 0L28 0L28 1L27 1L27 0L26 0L26 1L25 1L25 2L24 2L24 1L23 1L23 0L22 0L22 1L21 1L21 0L20 0L20 1L15 1L15 0ZM20 1L20 2L21 2L21 1ZM22 1L22 2L23 2L23 3L24 3L24 4L28 4L28 3L26 3L26 2L27 2L27 1L26 1L26 2L25 2L25 3L24 3L24 2L23 2L23 1ZM31 1L31 2L30 2L30 3L29 3L29 7L30 7L30 4L31 4L31 5L32 5L32 6L31 6L31 7L32 7L32 8L30 8L30 9L29 9L29 10L28 10L28 9L26 9L26 10L25 10L25 11L24 11L24 10L23 10L23 9L18 9L18 10L20 10L20 11L19 11L19 12L17 12L17 10L16 10L16 9L14 9L14 8L15 8L15 7L16 7L16 5L15 5L15 7L14 7L14 6L13 6L13 11L15 11L15 12L14 12L14 13L13 13L13 12L11 12L11 10L12 10L12 9L11 9L11 10L10 10L10 11L9 11L9 10L8 10L8 11L9 11L9 12L7 12L7 13L9 13L9 15L8 15L8 16L9 16L9 19L11 19L11 20L9 20L9 21L8 21L8 22L11 22L11 20L12 20L12 25L13 25L13 26L12 26L12 27L11 27L11 24L10 24L10 26L9 26L9 29L10 29L10 30L8 30L8 29L5 29L5 30L8 30L8 32L9 32L9 33L8 33L8 34L9 34L9 33L10 33L10 34L11 34L11 35L13 35L13 36L12 36L12 37L11 37L11 38L14 38L14 39L11 39L11 40L14 40L14 41L11 41L11 42L13 42L13 43L15 43L15 42L16 42L16 43L18 43L18 42L21 42L21 43L19 43L19 44L17 44L17 45L16 45L16 44L15 44L15 45L14 45L14 44L13 44L13 45L11 45L11 46L10 46L10 45L9 45L9 47L11 47L11 48L10 48L10 49L9 49L9 50L10 50L10 51L11 51L11 53L10 53L10 52L9 52L9 51L5 51L5 52L3 52L3 50L4 50L4 46L8 46L8 44L9 44L9 43L10 43L10 44L12 44L12 43L10 43L10 41L9 41L9 43L8 43L8 41L6 41L6 42L7 42L7 43L6 43L6 44L7 44L7 45L4 45L4 46L3 46L3 48L2 48L2 47L1 47L1 48L2 48L2 49L3 49L3 50L2 50L2 51L1 51L1 52L2 52L2 54L3 54L3 55L5 55L5 56L4 56L4 58L3 58L3 60L2 60L2 61L3 61L3 62L4 62L4 63L5 63L5 64L7 64L7 65L6 65L6 66L9 66L9 64L10 64L10 66L11 66L11 67L12 67L12 66L11 66L11 65L13 65L13 64L15 64L15 66L16 66L16 68L17 68L17 67L18 67L18 70L19 70L19 71L20 71L20 70L21 70L21 71L23 71L23 69L24 69L24 68L25 68L25 67L24 67L24 66L25 66L25 64L26 64L26 65L27 65L27 67L26 67L26 68L28 68L28 65L29 65L29 66L30 66L30 67L35 67L35 68L36 68L36 69L37 69L37 71L38 71L38 72L37 72L37 73L39 73L39 71L38 71L38 70L39 70L39 69L41 69L41 70L42 70L42 69L46 69L46 68L45 68L45 67L41 67L41 68L39 68L39 66L38 66L38 67L37 67L37 66L36 66L36 65L39 65L39 64L38 64L38 63L40 63L40 66L44 66L44 65L43 65L43 64L45 64L45 62L46 62L46 61L45 61L45 62L44 62L44 61L43 61L43 62L44 62L44 63L43 63L43 64L42 64L42 62L41 62L41 63L40 63L40 62L37 62L37 63L36 63L36 61L37 61L37 60L39 60L39 61L40 61L40 60L41 60L41 61L42 61L42 60L43 60L43 58L44 58L44 60L47 60L47 61L48 61L48 62L47 62L47 63L48 63L48 64L46 64L46 65L45 65L45 66L46 66L46 65L48 65L48 66L47 66L47 68L49 68L49 67L48 67L48 66L50 66L50 65L51 65L51 66L52 66L52 67L53 67L53 68L51 68L51 67L50 67L50 68L51 68L51 70L53 70L53 72L54 72L54 73L55 73L55 72L56 72L56 73L58 73L58 74L57 74L57 75L58 75L58 76L59 76L59 75L60 75L60 76L63 76L63 75L62 75L62 74L63 74L63 73L62 73L62 74L61 74L61 73L60 73L60 74L59 74L59 72L60 72L60 71L62 71L62 72L63 72L63 70L64 70L64 69L63 69L63 66L64 66L64 65L63 65L63 64L66 64L66 63L69 63L69 64L70 64L70 63L69 63L69 61L68 61L68 60L67 60L67 59L69 59L69 60L70 60L70 61L71 61L71 60L70 60L70 59L69 59L69 57L68 57L68 54L64 54L64 53L65 53L65 52L64 52L64 53L61 53L61 52L63 52L63 50L62 50L62 49L65 49L65 48L66 48L66 49L67 49L67 50L68 50L68 49L67 49L67 48L68 48L68 47L67 47L67 46L66 46L66 47L65 47L65 48L64 48L64 47L62 47L62 45L60 45L60 43L61 43L61 42L59 42L59 43L58 43L58 44L57 44L57 42L56 42L56 44L55 44L55 45L56 45L56 46L55 46L55 48L56 48L56 49L55 49L55 50L53 50L53 49L52 49L52 50L53 50L53 52L54 52L54 51L56 51L56 49L57 49L57 51L58 51L58 52L56 52L56 53L57 53L57 54L55 54L55 53L51 53L51 51L50 51L50 53L48 53L48 54L46 54L46 53L47 53L47 52L49 52L49 51L47 51L47 52L46 52L46 53L45 53L45 50L46 50L46 47L45 47L45 46L44 46L44 45L46 45L46 46L50 46L50 45L51 45L51 46L52 46L52 45L51 45L51 42L52 42L52 41L53 41L53 42L54 42L54 41L53 41L53 40L54 40L54 39L53 39L53 40L52 40L52 41L50 41L50 40L51 40L51 38L54 38L54 37L53 37L53 36L55 36L55 35L56 35L56 36L57 36L57 38L55 38L55 40L56 40L56 41L61 41L61 40L62 40L62 38L64 38L64 37L61 37L61 36L62 36L62 35L60 35L60 33L61 33L61 34L62 34L62 30L64 30L64 31L63 31L63 32L65 32L65 30L64 30L64 29L67 29L67 32L66 32L66 33L67 33L67 34L65 34L65 33L63 33L63 34L65 34L65 35L63 35L63 36L66 36L66 35L67 35L67 34L68 34L68 36L69 36L69 35L70 35L70 34L71 34L71 35L72 35L72 34L73 34L73 33L72 33L72 32L73 32L73 31L74 31L74 30L73 30L73 31L71 31L71 30L72 30L72 29L68 29L68 24L69 24L69 23L67 23L67 22L68 22L68 21L69 21L69 22L70 22L70 21L69 21L69 20L70 20L70 19L69 19L69 20L68 20L68 19L67 19L67 20L66 20L66 21L65 21L65 20L64 20L64 21L63 21L63 22L61 22L61 21L60 21L60 20L59 20L59 19L61 19L61 20L63 20L63 18L62 18L62 19L61 19L61 18L59 18L59 17L60 17L60 16L59 16L59 15L60 15L60 14L59 14L59 11L60 11L60 10L59 10L59 9L61 9L61 8L62 8L62 10L61 10L61 12L60 12L60 13L61 13L61 16L62 16L62 17L63 17L63 15L62 15L62 13L61 13L61 12L63 12L63 14L64 14L64 13L65 13L65 12L66 12L66 13L67 13L67 12L68 12L68 11L67 11L67 10L66 10L66 11L65 11L65 12L63 12L63 11L62 11L62 10L64 10L64 9L63 9L63 7L64 7L64 6L63 6L63 5L64 5L64 4L65 4L65 3L64 3L64 2L65 2L65 1L64 1L64 2L63 2L63 5L62 5L62 2L61 2L61 1L58 1L58 3L56 3L56 4L58 4L58 3L61 3L61 4L60 4L60 5L59 5L59 7L58 7L58 6L57 6L57 5L55 5L55 9L56 9L56 8L57 8L57 9L58 9L58 12L57 12L57 14L59 14L59 15L57 15L57 17L56 17L56 16L55 16L55 17L56 17L56 18L55 18L55 19L56 19L56 20L55 20L55 21L56 21L56 20L57 20L57 21L58 21L58 22L57 22L57 23L58 23L58 24L56 24L56 25L58 25L58 26L59 26L59 29L58 29L58 28L56 28L56 27L57 27L57 26L55 26L55 24L54 24L54 23L52 23L52 24L51 24L51 22L54 22L54 21L53 21L53 20L54 20L54 19L53 19L53 18L54 18L54 17L53 17L53 16L54 16L54 15L53 15L53 16L51 16L51 14L50 14L50 13L49 13L49 14L47 14L47 13L48 13L48 12L47 12L47 11L48 11L48 9L46 9L46 8L45 8L45 7L46 7L46 6L45 6L45 5L44 5L44 6L43 6L43 8L42 8L42 5L41 5L41 3L40 3L40 4L39 4L39 2L40 2L40 1L39 1L39 2L38 2L38 4L39 4L39 5L40 5L40 6L39 6L39 7L38 7L38 6L37 6L37 4L36 4L36 3L37 3L37 2L35 2L35 4L36 4L36 5L35 5L35 9L34 9L34 11L35 11L35 9L36 9L36 11L39 11L39 10L40 10L40 8L39 8L39 7L40 7L40 6L41 6L41 11L40 11L40 12L41 12L41 13L42 13L42 14L40 14L40 13L39 13L39 12L38 12L38 13L39 13L39 15L41 15L41 17L40 17L40 18L41 18L41 19L42 19L42 20L40 20L40 22L39 22L39 20L35 20L35 19L34 19L34 21L31 21L31 20L32 20L32 17L33 17L33 16L32 16L32 15L34 15L34 16L35 16L35 17L36 17L36 18L37 18L37 19L39 19L39 17L38 17L38 18L37 18L37 16L35 16L35 15L36 15L36 14L37 14L37 15L38 15L38 14L37 14L37 12L36 12L36 13L35 13L35 12L33 12L33 14L32 14L32 13L31 13L31 12L29 12L29 11L31 11L31 10L33 10L33 8L34 8L34 5L33 5L33 4L31 4L31 3L32 3L32 1ZM33 1L33 3L34 3L34 1ZM41 1L41 2L42 2L42 1ZM43 1L43 2L45 2L45 3L42 3L42 4L46 4L46 3L47 3L47 4L49 4L49 3L51 3L51 2L50 2L50 1L49 1L49 2L48 2L48 3L47 3L47 2L46 2L46 1ZM8 4L8 7L9 7L9 8L10 8L10 7L11 7L11 6L10 6L10 5L9 5L9 4ZM25 5L25 8L28 8L28 5ZM47 5L47 8L50 8L50 5ZM60 5L60 7L59 7L59 8L61 8L61 5ZM9 6L9 7L10 7L10 6ZM23 6L23 7L22 7L22 8L23 8L23 7L24 7L24 6ZM26 6L26 7L27 7L27 6ZM32 6L32 7L33 7L33 6ZM36 6L36 7L37 7L37 6ZM44 6L44 7L45 7L45 6ZM48 6L48 7L49 7L49 6ZM51 6L51 7L52 7L52 6ZM56 6L56 7L57 7L57 8L58 8L58 7L57 7L57 6ZM62 6L62 7L63 7L63 6ZM68 6L68 7L69 7L69 6ZM37 8L37 10L38 10L38 8ZM43 8L43 9L42 9L42 11L41 11L41 12L42 12L42 11L44 11L44 10L46 10L46 9L44 9L44 8ZM71 8L71 9L70 9L70 11L71 11L71 10L73 10L73 11L72 11L72 12L73 12L73 11L74 11L74 13L75 13L75 14L74 14L74 15L75 15L75 16L74 16L74 17L75 17L75 18L73 18L73 17L72 17L72 16L73 16L73 13L72 13L72 16L71 16L71 13L70 13L70 14L68 14L68 15L70 15L70 16L71 16L71 17L72 17L72 18L73 18L73 19L72 19L72 20L73 20L73 19L74 19L74 21L75 21L75 22L73 22L73 21L72 21L72 22L73 22L73 23L74 23L74 25L75 25L75 26L74 26L74 27L75 27L75 29L77 29L77 27L75 27L75 26L76 26L76 24L77 24L77 23L76 23L76 22L77 22L77 21L75 21L75 20L77 20L77 17L76 17L76 16L77 16L77 15L76 15L76 14L77 14L77 13L75 13L75 10L73 10L73 8ZM76 8L76 9L77 9L77 8ZM6 9L6 10L7 10L7 9ZM30 9L30 10L31 10L31 9ZM50 9L50 10L52 10L52 9ZM2 10L2 12L0 12L0 13L2 13L2 15L3 15L3 13L2 13L2 12L3 12L3 10ZM22 10L22 12L23 12L23 13L20 13L20 12L21 12L21 11L20 11L20 12L19 12L19 13L20 13L20 14L19 14L19 15L16 15L16 14L18 14L18 13L14 13L14 14L15 14L15 15L13 15L13 14L10 14L10 15L11 15L11 16L10 16L10 17L11 17L11 18L12 18L12 20L13 20L13 21L16 21L16 19L17 19L17 18L18 18L18 17L19 17L19 20L18 20L18 21L19 21L19 22L20 22L20 20L21 20L21 21L22 21L22 22L23 22L23 21L24 21L24 22L25 22L25 23L24 23L24 24L23 24L23 23L21 23L21 25L20 25L20 23L16 23L16 22L14 22L14 23L13 23L13 24L14 24L14 25L15 25L15 26L13 26L13 27L12 27L12 28L13 28L13 29L14 29L14 28L15 28L15 31L16 31L16 32L15 32L15 33L14 33L14 30L13 30L13 31L12 31L12 30L11 30L11 31L12 31L12 32L10 32L10 33L13 33L13 35L14 35L14 36L15 36L15 37L14 37L14 38L15 38L15 39L17 39L17 38L21 38L21 41L22 41L22 40L23 40L23 41L24 41L24 42L22 42L22 43L21 43L21 45L22 45L22 44L24 44L24 45L23 45L23 46L22 46L22 47L19 47L19 48L18 48L18 47L17 47L17 46L18 46L18 45L17 45L17 46L16 46L16 45L15 45L15 47L17 47L17 48L15 48L15 49L14 49L14 50L16 50L16 51L14 51L14 52L13 52L13 51L12 51L12 53L13 53L13 54L12 54L12 55L10 55L10 53L9 53L9 52L8 52L8 53L7 53L7 52L6 52L6 53L4 53L4 54L6 54L6 55L7 55L7 56L5 56L5 58L4 58L4 60L3 60L3 61L4 61L4 62L5 62L5 59L7 59L7 60L6 60L6 61L7 61L7 60L8 60L8 61L9 61L9 62L8 62L8 63L7 63L7 62L6 62L6 63L7 63L7 64L8 64L8 63L10 63L10 64L11 64L11 63L10 63L10 61L11 61L11 62L12 62L12 64L13 64L13 63L16 63L16 64L17 64L17 63L18 63L18 64L20 64L20 65L17 65L17 66L19 66L19 67L20 67L20 68L19 68L19 70L20 70L20 69L21 69L21 70L22 70L22 69L23 69L23 68L24 68L24 67L23 67L23 66L24 66L24 65L22 65L22 64L20 64L20 63L23 63L23 64L24 64L24 63L26 63L26 64L27 64L27 65L28 65L28 62L29 62L29 61L30 61L30 60L29 60L29 61L28 61L28 59L27 59L27 60L26 60L26 57L28 57L28 56L29 56L29 59L32 59L32 61L31 61L31 62L30 62L30 63L31 63L31 64L30 64L30 65L31 65L31 66L32 66L32 65L33 65L33 66L34 66L34 64L32 64L32 62L34 62L34 63L35 63L35 64L36 64L36 63L35 63L35 61L36 61L36 60L37 60L37 59L38 59L38 56L37 56L37 58L33 58L33 57L36 57L36 54L37 54L37 51L39 51L39 54L38 54L38 55L39 55L39 54L40 54L40 53L42 53L42 55L41 55L41 56L39 56L39 60L40 60L40 59L42 59L42 55L43 55L43 57L44 57L44 58L45 58L45 59L46 59L46 58L49 58L49 59L50 59L50 60L51 60L51 59L52 59L52 58L51 58L51 59L50 59L50 58L49 58L49 56L51 56L51 57L52 57L52 56L51 56L51 55L52 55L52 54L48 54L48 55L49 55L49 56L47 56L47 55L45 55L45 56L44 56L44 54L45 54L45 53L44 53L44 50L45 50L45 49L43 49L43 48L45 48L45 47L44 47L44 46L43 46L43 45L44 45L44 42L45 42L45 41L46 41L46 40L47 40L47 41L48 41L48 42L50 42L50 41L48 41L48 40L47 40L47 39L45 39L45 40L44 40L44 38L45 38L45 37L46 37L46 36L45 36L45 35L46 35L46 34L47 34L47 33L48 33L48 35L49 35L49 36L50 36L50 35L49 35L49 34L50 34L50 33L49 33L49 32L50 32L50 31L52 31L52 30L53 30L53 29L54 29L54 30L57 30L57 31L56 31L56 32L53 32L53 34L54 34L54 35L55 35L55 34L56 34L56 35L57 35L57 36L58 36L58 38L61 38L61 37L59 37L59 36L58 36L58 34L59 34L59 31L58 31L58 30L57 30L57 29L56 29L56 28L55 28L55 27L54 27L54 28L53 28L53 26L51 26L51 24L48 24L48 23L50 23L50 22L51 22L51 21L52 21L52 20L51 20L51 19L52 19L52 18L51 18L51 16L48 16L48 15L47 15L47 14L46 14L46 15L45 15L45 16L46 16L46 17L45 17L45 20L46 20L46 21L47 21L47 20L48 20L48 21L49 21L49 22L46 22L46 23L45 23L45 24L46 24L46 26L45 26L45 25L44 25L44 26L43 26L43 25L40 25L40 24L39 24L39 23L38 23L38 22L37 22L37 21L34 21L34 22L33 22L33 24L32 24L32 25L33 25L33 26L34 26L34 25L36 25L36 26L35 26L35 27L36 27L36 28L35 28L35 29L36 29L36 32L35 32L35 31L34 31L34 30L33 30L33 29L34 29L34 28L32 28L32 31L31 31L31 32L30 32L30 33L33 33L33 31L34 31L34 32L35 32L35 34L32 34L32 35L30 35L30 34L28 34L28 35L30 35L30 36L29 36L29 37L27 37L27 31L28 31L28 32L29 32L29 31L30 31L30 30L29 30L29 28L30 28L30 27L32 27L32 26L31 26L31 25L30 25L30 24L29 24L29 21L30 21L30 19L31 19L31 16L30 16L30 15L32 15L32 14L31 14L31 13L29 13L29 12L28 12L28 13L26 13L26 15L29 15L29 16L30 16L30 19L27 19L27 18L29 18L29 17L26 17L26 16L25 16L25 14L23 14L23 13L25 13L25 12L27 12L27 10L26 10L26 11L25 11L25 12L24 12L24 11L23 11L23 10ZM76 10L76 12L77 12L77 10ZM45 11L45 12L46 12L46 13L47 13L47 12L46 12L46 11ZM66 11L66 12L67 12L67 11ZM9 12L9 13L10 13L10 12ZM43 13L43 14L42 14L42 15L43 15L43 16L42 16L42 17L43 17L43 18L42 18L42 19L43 19L43 18L44 18L44 17L43 17L43 16L44 16L44 14L45 14L45 13ZM21 14L21 15L22 15L22 16L19 16L19 17L20 17L20 19L22 19L22 21L23 21L23 20L27 20L27 19L25 19L25 18L26 18L26 17L25 17L25 16L23 16L23 15L22 15L22 14ZM29 14L29 15L30 15L30 14ZM34 14L34 15L35 15L35 14ZM55 14L55 15L56 15L56 14ZM12 15L12 16L11 16L11 17L12 17L12 16L13 16L13 18L14 18L14 19L13 19L13 20L15 20L15 19L16 19L16 18L17 18L17 17L18 17L18 16L16 16L16 15L15 15L15 16L16 16L16 18L14 18L14 16L13 16L13 15ZM22 16L22 17L21 17L21 18L22 18L22 19L24 19L24 18L25 18L25 17L23 17L23 16ZM47 16L47 17L46 17L46 19L47 19L47 17L48 17L48 18L50 18L50 19L48 19L48 20L50 20L50 21L51 21L51 20L50 20L50 19L51 19L51 18L50 18L50 17L48 17L48 16ZM58 16L58 17L59 17L59 16ZM1 17L1 18L2 18L2 20L3 20L3 18L2 18L2 17ZM67 17L67 18L68 18L68 17ZM57 18L57 20L58 20L58 19L59 19L59 18ZM75 18L75 19L76 19L76 18ZM6 19L6 20L8 20L8 19ZM28 20L28 21L25 21L25 22L26 22L26 24L27 24L27 23L28 23L28 21L29 21L29 20ZM42 20L42 21L41 21L41 22L40 22L40 23L41 23L41 22L42 22L42 24L44 24L44 23L43 23L43 22L45 22L45 21L43 21L43 20ZM67 20L67 21L66 21L66 22L65 22L65 21L64 21L64 22L63 22L63 23L62 23L62 24L65 24L65 25L64 25L64 26L65 26L65 25L66 25L66 28L67 28L67 24L65 24L65 23L66 23L66 22L67 22L67 21L68 21L68 20ZM5 21L5 22L7 22L7 21ZM59 21L59 22L60 22L60 21ZM55 22L55 23L56 23L56 22ZM64 22L64 23L65 23L65 22ZM4 23L4 24L3 24L3 26L2 26L2 27L3 27L3 28L4 28L4 24L7 24L7 23ZM8 23L8 24L9 24L9 23ZM34 23L34 24L33 24L33 25L34 25L34 24L36 24L36 25L38 25L38 26L36 26L36 27L37 27L37 28L36 28L36 29L37 29L37 28L38 28L38 30L39 30L39 31L41 31L41 33L40 33L40 32L39 32L39 33L37 33L37 32L36 32L36 35L38 35L38 37L39 37L39 39L38 39L38 38L37 38L37 36L35 36L35 35L34 35L34 36L33 36L33 35L32 35L32 36L31 36L31 37L30 37L30 40L31 40L31 39L32 39L32 40L33 40L33 39L32 39L32 38L31 38L31 37L32 37L32 36L33 36L33 37L35 37L35 39L34 39L34 40L36 40L36 41L37 41L37 42L39 42L39 43L38 43L38 44L39 44L39 45L37 45L37 44L35 44L35 42L34 42L34 41L32 41L32 43L33 43L33 45L32 45L32 44L31 44L31 45L30 45L30 44L29 44L29 43L30 43L30 42L31 42L31 41L30 41L30 42L29 42L29 43L28 43L28 41L27 41L27 40L28 40L28 39L29 39L29 38L28 38L28 39L27 39L27 38L22 38L22 39L23 39L23 40L26 40L26 41L25 41L25 42L24 42L24 44L25 44L25 45L26 45L26 46L29 46L29 48L30 48L30 49L31 49L31 48L32 48L32 49L33 49L33 48L34 48L34 46L35 46L35 47L37 47L37 46L39 46L39 47L40 47L40 46L39 46L39 45L41 45L41 48L38 48L38 49L37 49L37 48L36 48L36 50L38 50L38 49L39 49L39 51L40 51L40 52L41 52L41 51L42 51L42 52L43 52L43 51L42 51L42 50L43 50L43 49L41 49L41 48L43 48L43 47L42 47L42 45L43 45L43 43L42 43L42 42L41 42L41 41L44 41L44 40L43 40L43 39L42 39L42 38L44 38L44 37L41 37L41 36L40 36L40 35L39 35L39 33L40 33L40 34L41 34L41 35L42 35L42 36L44 36L44 35L45 35L45 34L44 34L44 33L45 33L45 32L46 32L46 31L47 31L47 32L49 32L49 31L50 31L50 30L49 30L49 31L47 31L47 29L45 29L45 28L46 28L46 27L45 27L45 26L44 26L44 27L43 27L43 30L42 30L42 31L41 31L41 30L39 30L39 26L40 26L40 29L42 29L42 27L41 27L41 26L40 26L40 25L38 25L38 23ZM46 23L46 24L47 24L47 23ZM59 23L59 24L58 24L58 25L59 25L59 26L60 26L60 27L61 27L61 26L60 26L60 25L59 25L59 24L61 24L61 23ZM16 24L16 27L15 27L15 28L16 28L16 30L17 30L17 31L21 31L21 32L22 32L22 33L23 33L23 34L22 34L22 36L25 36L25 35L23 35L23 34L26 34L26 33L25 33L25 32L26 32L26 31L27 31L27 30L28 30L28 31L29 31L29 30L28 30L28 29L27 29L27 30L26 30L26 29L25 29L25 30L24 30L24 26L23 26L23 24L22 24L22 26L21 26L21 27L22 27L22 26L23 26L23 30L24 30L24 31L23 31L23 32L22 32L22 31L21 31L21 28L19 28L19 27L20 27L20 26L17 26L17 24ZM18 24L18 25L19 25L19 24ZM52 24L52 25L54 25L54 24ZM5 25L5 28L8 28L8 25ZM25 25L25 28L28 28L28 25ZM29 25L29 27L30 27L30 25ZM47 25L47 28L50 28L50 25ZM62 25L62 26L63 26L63 25ZM69 25L69 28L72 28L72 25ZM6 26L6 27L7 27L7 26ZM26 26L26 27L27 27L27 26ZM48 26L48 27L49 27L49 26ZM70 26L70 27L71 27L71 26ZM10 27L10 29L11 29L11 27ZM62 27L62 28L61 28L61 29L63 29L63 28L65 28L65 27ZM18 28L18 29L17 29L17 30L18 30L18 29L19 29L19 28ZM52 28L52 29L51 29L51 30L52 30L52 29L53 29L53 28ZM54 28L54 29L55 29L55 28ZM44 29L44 30L45 30L45 31L46 31L46 30L45 30L45 29ZM59 29L59 30L60 30L60 29ZM3 30L3 31L4 31L4 32L3 32L3 35L6 35L6 36L7 36L7 37L6 37L6 38L7 38L7 37L8 37L8 39L10 39L10 38L9 38L9 37L10 37L10 36L9 36L9 35L6 35L6 34L7 34L7 33L6 33L6 34L5 34L5 32L7 32L7 31L4 31L4 30ZM25 30L25 31L26 31L26 30ZM68 30L68 31L69 31L69 32L68 32L68 33L69 33L69 32L70 32L70 30ZM0 31L0 32L1 32L1 31ZM42 31L42 34L43 34L43 35L44 35L44 34L43 34L43 33L44 33L44 31ZM60 31L60 32L61 32L61 31ZM16 32L16 33L15 33L15 34L14 34L14 35L15 35L15 36L16 36L16 35L17 35L17 37L18 37L18 36L20 36L20 37L21 37L21 35L20 35L20 34L21 34L21 33L20 33L20 32L19 32L19 35L17 35L17 33L18 33L18 32ZM23 32L23 33L24 33L24 32ZM51 32L51 33L52 33L52 32ZM56 32L56 34L57 34L57 33L58 33L58 32ZM54 33L54 34L55 34L55 33ZM51 34L51 35L52 35L52 34ZM47 36L47 37L48 37L48 36ZM51 36L51 37L49 37L49 38L51 38L51 37L52 37L52 36ZM72 36L72 37L73 37L73 36ZM40 38L40 39L41 39L41 40L42 40L42 39L41 39L41 38ZM36 39L36 40L37 40L37 41L38 41L38 39ZM56 39L56 40L60 40L60 39ZM15 40L15 41L16 41L16 42L18 42L18 41L17 41L17 40ZM39 40L39 41L40 41L40 40ZM72 40L72 41L74 41L74 40ZM4 42L4 43L2 43L2 45L3 45L3 44L4 44L4 43L5 43L5 42ZM25 42L25 43L26 43L26 44L27 44L27 45L28 45L28 44L27 44L27 42ZM33 42L33 43L34 43L34 42ZM39 43L39 44L40 44L40 43ZM46 43L46 44L47 44L47 45L48 45L48 44L50 44L50 43L48 43L48 44L47 44L47 43ZM53 43L53 44L54 44L54 43ZM19 44L19 46L20 46L20 44ZM34 44L34 45L33 45L33 46L34 46L34 45L35 45L35 44ZM41 44L41 45L42 45L42 44ZM56 44L56 45L57 45L57 46L56 46L56 48L59 48L59 46L60 46L60 48L61 48L61 49L59 49L59 50L58 50L58 51L59 51L59 50L61 50L61 51L60 51L60 52L58 52L58 53L59 53L59 54L60 54L60 56L59 56L59 55L58 55L58 54L57 54L57 56L56 56L56 57L54 57L54 56L55 56L55 54L53 54L53 58L56 58L56 57L57 57L57 59L54 59L54 60L52 60L52 61L54 61L54 62L51 62L51 61L50 61L50 62L51 62L51 63L50 63L50 64L52 64L52 66L53 66L53 65L54 65L54 66L56 66L56 65L57 65L57 68L61 68L61 69L62 69L62 68L61 68L61 65L62 65L62 66L63 66L63 65L62 65L62 64L59 64L59 65L58 65L58 61L56 61L56 60L58 60L58 58L60 58L60 59L59 59L59 60L60 60L60 61L59 61L59 62L60 62L60 63L62 63L62 62L63 62L63 63L65 63L65 62L68 62L68 61L66 61L66 60L65 60L65 58L66 58L66 59L67 59L67 57L65 57L65 55L64 55L64 54L63 54L63 55L62 55L62 56L61 56L61 54L60 54L60 52L61 52L61 51L62 51L62 50L61 50L61 49L62 49L62 48L61 48L61 46L60 46L60 45L59 45L59 44L58 44L58 45L57 45L57 44ZM13 45L13 46L11 46L11 47L12 47L12 48L11 48L11 49L10 49L10 50L13 50L13 48L14 48L14 45ZM29 45L29 46L30 46L30 45ZM36 45L36 46L37 46L37 45ZM53 45L53 46L54 46L54 45ZM58 45L58 46L59 46L59 45ZM74 45L74 46L75 46L75 45ZM5 47L5 50L8 50L8 47ZM22 47L22 49L21 49L21 48L19 48L19 49L20 49L20 50L19 50L19 51L18 51L18 50L17 50L17 51L18 51L18 52L20 52L20 51L21 51L21 54L22 54L22 55L17 55L17 54L20 54L20 53L17 53L17 52L16 52L16 53L17 53L17 54L16 54L16 55L17 55L17 56L16 56L16 58L15 58L15 57L14 57L14 55L15 55L15 54L14 54L14 55L12 55L12 56L13 56L13 57L12 57L12 58L11 58L11 57L10 57L10 58L9 58L9 59L8 59L8 58L7 58L7 57L6 57L6 58L7 58L7 59L8 59L8 60L10 60L10 59L11 59L11 61L12 61L12 58L13 58L13 57L14 57L14 58L15 58L15 59L14 59L14 61L13 61L13 62L15 62L15 60L16 60L16 58L17 58L17 59L18 59L18 61L17 61L17 62L16 62L16 63L17 63L17 62L18 62L18 61L20 61L20 62L19 62L19 63L20 63L20 62L22 62L22 61L23 61L23 62L24 62L24 61L25 61L25 62L26 62L26 63L27 63L27 62L28 62L28 61L27 61L27 62L26 62L26 60L25 60L25 57L24 57L24 55L26 55L26 56L28 56L28 53L27 53L27 54L26 54L26 51L24 51L24 48L23 48L23 47ZM25 47L25 50L28 50L28 47ZM32 47L32 48L33 48L33 47ZM47 47L47 50L50 50L50 47ZM52 47L52 48L54 48L54 47ZM69 47L69 50L72 50L72 47ZM6 48L6 49L7 49L7 48ZM26 48L26 49L27 49L27 48ZM48 48L48 49L49 49L49 48ZM70 48L70 49L71 49L71 48ZM22 49L22 50L23 50L23 49ZM34 49L34 50L33 50L33 51L32 51L32 50L31 50L31 51L32 51L32 52L31 52L31 53L29 53L29 55L31 55L31 56L30 56L30 58L31 58L31 57L32 57L32 55L31 55L31 54L32 54L32 52L33 52L33 56L35 56L35 55L34 55L34 53L35 53L35 54L36 54L36 52L35 52L35 51L34 51L34 50L35 50L35 49ZM29 50L29 51L28 51L28 52L29 52L29 51L30 51L30 50ZM22 52L22 54L23 54L23 55L22 55L22 56L20 56L20 57L22 57L22 59L20 59L20 60L21 60L21 61L22 61L22 59L23 59L23 58L24 58L24 57L23 57L23 55L24 55L24 54L25 54L25 52L24 52L24 54L23 54L23 52ZM6 53L6 54L7 54L7 53ZM8 53L8 54L9 54L9 53ZM70 53L70 54L71 54L71 53ZM72 53L72 54L73 54L73 53ZM8 55L8 57L9 57L9 56L10 56L10 55ZM63 55L63 56L62 56L62 57L61 57L61 56L60 56L60 57L61 57L61 60L63 60L63 62L64 62L64 61L65 61L65 60L63 60L63 58L64 58L64 57L63 57L63 56L64 56L64 55ZM46 56L46 57L45 57L45 58L46 58L46 57L47 57L47 56ZM17 57L17 58L18 58L18 59L19 59L19 58L18 58L18 57ZM40 57L40 58L41 58L41 57ZM62 57L62 58L63 58L63 57ZM72 57L72 58L73 58L73 57ZM74 58L74 59L75 59L75 60L74 60L74 61L75 61L75 60L77 60L77 59L75 59L75 58ZM23 60L23 61L24 61L24 60ZM33 60L33 61L34 61L34 60ZM48 60L48 61L49 61L49 60ZM54 60L54 61L55 61L55 60ZM61 61L61 62L62 62L62 61ZM48 62L48 63L49 63L49 62ZM54 62L54 63L53 63L53 64L54 64L54 65L56 65L56 64L57 64L57 63L56 63L56 62ZM0 63L0 66L1 66L1 67L2 67L2 66L1 66L1 65L2 65L2 64L1 64L1 63ZM54 63L54 64L55 64L55 63ZM31 64L31 65L32 65L32 64ZM48 64L48 65L49 65L49 64ZM20 65L20 66L22 66L22 65ZM65 65L65 68L66 68L66 69L68 69L68 68L67 68L67 67L66 67L66 66L67 66L67 65ZM72 65L72 66L73 66L73 65ZM58 66L58 67L60 67L60 66ZM21 67L21 68L23 68L23 67ZM54 67L54 68L53 68L53 70L56 70L56 69L55 69L55 68L56 68L56 67ZM37 68L37 69L38 69L38 68ZM41 68L41 69L42 69L42 68ZM25 69L25 72L28 72L28 69ZM47 69L47 72L50 72L50 69ZM58 69L58 70L60 70L60 69ZM69 69L69 72L72 72L72 69ZM26 70L26 71L27 71L27 70ZM48 70L48 71L49 71L49 70ZM65 70L65 71L64 71L64 72L68 72L68 70L67 70L67 71L66 71L66 70ZM70 70L70 71L71 71L71 70ZM44 71L44 72L45 72L45 71ZM51 71L51 72L52 72L52 71ZM54 71L54 72L55 72L55 71ZM57 71L57 72L58 72L58 71ZM73 71L73 72L74 72L74 71ZM40 72L40 74L41 74L41 75L42 75L42 73L41 73L41 72ZM51 73L51 74L52 74L52 75L51 75L51 76L52 76L52 75L53 75L53 73ZM12 74L12 75L11 75L11 76L12 76L12 75L13 75L13 74ZM26 74L26 75L27 75L27 74ZM47 74L47 75L48 75L48 74ZM60 74L60 75L61 75L61 74ZM73 74L73 75L76 75L76 76L77 76L77 75L76 75L76 74ZM45 76L45 77L47 77L47 76ZM74 76L74 77L75 77L75 76ZM0 0L0 7L7 7L7 0ZM1 1L1 6L6 6L6 1ZM2 2L2 5L5 5L5 2ZM70 0L70 7L77 7L77 0ZM71 1L71 6L76 6L76 1ZM72 2L72 5L75 5L75 2ZM0 70L0 77L7 77L7 70ZM1 71L1 76L6 76L6 71ZM2 72L2 75L5 75L5 72Z" fill="#000000"/></g></g></svg>
