<?xml version="1.0" encoding="UTF-8"?>
<svg xmlns="http://www.w3.org/2000/svg" version="1.1" width="400" height="400" viewBox="0 0 400 400"><rect x="0" y="0" width="400" height="400" fill="#fefefe"/><g transform="scale(6.557)"><g transform="translate(4,4)"><path fill-rule="evenodd" d="M8 0L8 1L10 1L10 2L11 2L11 1L12 1L12 2L13 2L13 3L15 3L15 4L18 4L18 5L15 5L15 6L14 6L14 4L12 4L12 8L13 8L13 9L11 9L11 5L10 5L10 3L9 3L9 2L8 2L8 5L9 5L9 6L8 6L8 7L9 7L9 6L10 6L10 8L8 8L8 9L7 9L7 8L6 8L6 9L5 9L5 10L3 10L3 9L4 9L4 8L0 8L0 11L1 11L1 12L0 12L0 14L1 14L1 15L0 15L0 19L1 19L1 18L3 18L3 19L2 19L2 22L1 22L1 23L5 23L5 22L6 22L6 23L7 23L7 24L2 24L2 25L1 25L1 24L0 24L0 29L1 29L1 31L0 31L0 34L3 34L3 33L5 33L5 35L4 35L4 37L7 37L7 38L6 38L6 39L4 39L4 38L3 38L3 37L2 37L2 38L1 38L1 35L0 35L0 38L1 38L1 39L0 39L0 41L1 41L1 42L0 42L0 43L1 43L1 44L3 44L3 45L4 45L4 44L3 44L3 43L9 43L9 41L8 41L8 37L7 37L7 36L8 36L8 35L9 35L9 37L10 37L10 36L11 36L11 37L14 37L14 36L12 36L12 34L13 34L13 35L15 35L15 36L16 36L16 37L15 37L15 39L16 39L16 40L14 40L14 38L12 38L12 40L11 40L11 42L10 42L10 44L11 44L11 43L15 43L15 42L13 42L13 41L12 41L12 40L14 40L14 41L16 41L16 42L17 42L17 43L19 43L19 42L20 42L20 45L21 45L21 42L22 42L22 41L21 41L21 42L20 42L20 40L19 40L19 41L16 41L16 40L17 40L17 39L16 39L16 37L17 37L17 38L19 38L19 37L20 37L20 39L21 39L21 40L23 40L23 41L24 41L24 43L23 43L23 44L22 44L22 47L23 47L23 48L24 48L24 49L25 49L25 51L23 51L23 49L22 49L22 48L18 48L18 47L20 47L20 46L18 46L18 47L14 47L14 48L13 48L13 47L12 47L12 48L11 48L11 47L10 47L10 46L9 46L9 44L6 44L6 45L8 45L8 46L9 46L9 47L10 47L10 48L9 48L9 49L8 49L8 53L9 53L9 52L10 52L10 53L11 53L11 52L10 52L10 51L11 51L11 49L13 49L13 50L12 50L12 51L14 51L14 52L13 52L13 53L17 53L17 51L21 51L21 52L26 52L26 51L27 51L27 49L28 49L28 52L32 52L32 53L34 53L34 52L41 52L41 53L42 53L42 51L44 51L44 53L47 53L47 52L49 52L49 53L50 53L50 51L51 51L51 53L52 53L52 49L53 49L53 47L52 47L52 46L53 46L53 45L51 45L51 43L50 43L50 42L48 42L48 41L46 41L46 40L47 40L47 38L48 38L48 40L50 40L50 39L49 39L49 38L48 38L48 36L49 36L49 35L51 35L51 36L50 36L50 38L51 38L51 37L52 37L52 39L51 39L51 42L52 42L52 41L53 41L53 40L52 40L52 39L53 39L53 36L52 36L52 35L51 35L51 34L53 34L53 31L52 31L52 30L51 30L51 29L50 29L50 31L46 31L46 32L45 32L45 30L47 30L47 29L49 29L49 28L50 28L50 27L49 27L49 23L48 23L48 22L50 22L50 23L51 23L51 22L53 22L53 19L52 19L52 20L51 20L51 19L50 19L50 17L48 17L48 19L47 19L47 17L45 17L45 18L43 18L43 19L42 19L42 23L41 23L41 25L43 25L43 24L42 24L42 23L43 23L43 20L44 20L44 21L47 21L47 22L46 22L46 23L45 23L45 22L44 22L44 23L45 23L45 24L44 24L44 29L43 29L43 30L44 30L44 31L42 31L42 30L41 30L41 29L42 29L42 28L43 28L43 26L42 26L42 28L41 28L41 26L39 26L39 25L38 25L38 24L39 24L39 23L40 23L40 22L41 22L41 19L40 19L40 20L39 20L39 18L42 18L42 15L44 15L44 14L45 14L45 15L46 15L46 13L49 13L49 14L47 14L47 15L48 15L48 16L50 16L50 13L51 13L51 16L53 16L53 13L51 13L51 12L53 12L53 11L52 11L52 10L53 10L53 8L52 8L52 9L51 9L51 8L48 8L48 9L47 9L47 10L46 10L46 11L45 11L45 10L44 10L44 9L46 9L46 8L45 8L45 6L44 6L44 8L43 8L43 9L42 9L42 7L43 7L43 3L44 3L44 4L45 4L45 3L44 3L44 1L43 1L43 0L42 0L42 1L41 1L41 2L43 2L43 3L42 3L42 5L41 5L41 4L37 4L37 2L38 2L38 0L35 0L35 1L34 1L34 2L35 2L35 3L33 3L33 2L32 2L32 1L33 1L33 0L32 0L32 1L31 1L31 0L27 0L27 1L26 1L26 0L21 0L21 1L20 1L20 2L18 2L18 0L16 0L16 2L15 2L15 1L14 1L14 2L13 2L13 0ZM23 1L23 2L22 2L22 3L21 3L21 2L20 2L20 3L19 3L19 5L18 5L18 6L17 6L17 7L16 7L16 6L15 6L15 7L16 7L16 8L17 8L17 9L16 9L16 11L15 11L15 8L14 8L14 10L13 10L13 11L12 11L12 10L11 10L11 11L12 11L12 12L11 12L11 14L8 14L8 13L5 13L5 12L7 12L7 11L5 11L5 12L4 12L4 13L3 13L3 10L2 10L2 14L4 14L4 15L3 15L3 16L2 16L2 15L1 15L1 16L2 16L2 17L3 17L3 18L4 18L4 19L3 19L3 20L4 20L4 21L6 21L6 22L8 22L8 23L9 23L9 24L11 24L11 26L10 26L10 25L9 25L9 29L8 29L8 30L9 30L9 31L10 31L10 32L11 32L11 31L12 31L12 33L13 33L13 34L15 34L15 35L16 35L16 36L17 36L17 35L18 35L18 36L19 36L19 35L20 35L20 36L21 36L21 35L22 35L22 37L23 37L23 40L24 40L24 41L25 41L25 38L24 38L24 35L23 35L23 34L25 34L25 36L26 36L26 40L27 40L27 39L28 39L28 40L29 40L29 36L27 36L27 35L28 35L28 34L29 34L29 32L30 32L30 33L32 33L32 34L31 34L31 35L30 35L30 36L31 36L31 37L30 37L30 38L31 38L31 40L32 40L32 39L33 39L33 38L34 38L34 40L33 40L33 41L32 41L32 42L31 42L31 41L30 41L30 42L29 42L29 43L28 43L28 44L29 44L29 47L30 47L30 48L32 48L32 49L29 49L29 50L32 50L32 51L33 51L33 52L34 52L34 51L37 51L37 50L38 50L38 49L39 49L39 51L40 51L40 49L42 49L42 50L41 50L41 51L42 51L42 50L43 50L43 48L41 48L41 46L42 46L42 44L43 44L43 42L44 42L44 44L46 44L46 43L47 43L47 44L49 44L49 43L48 43L48 42L46 42L46 41L44 41L44 40L45 40L45 38L46 38L46 36L47 36L47 35L48 35L48 34L46 34L46 36L45 36L45 35L44 35L44 34L45 34L45 32L44 32L44 34L43 34L43 35L41 35L41 34L39 34L39 32L40 32L40 31L41 31L41 30L39 30L39 29L38 29L38 28L39 28L39 27L38 27L38 28L37 28L37 26L36 26L36 25L35 25L35 24L36 24L36 23L37 23L37 24L38 24L38 23L39 23L39 22L40 22L40 21L39 21L39 20L38 20L38 18L39 18L39 17L38 17L38 16L40 16L40 17L41 17L41 16L40 16L40 15L42 15L42 14L44 14L44 13L42 13L42 12L44 12L44 10L43 10L43 11L41 11L41 9L40 9L40 10L39 10L39 9L38 9L38 12L37 12L37 13L36 13L36 11L35 11L35 13L33 13L33 12L34 12L34 10L35 10L35 8L33 8L33 7L34 7L34 6L35 6L35 7L36 7L36 6L37 6L37 8L36 8L36 9L37 9L37 8L38 8L38 5L35 5L35 4L36 4L36 3L35 3L35 4L33 4L33 3L32 3L32 2L30 2L30 1L27 1L27 2L25 2L25 3L27 3L27 4L30 4L30 5L32 5L32 6L31 6L31 7L30 7L30 6L29 6L29 9L32 9L32 10L33 10L33 12L31 12L31 10L28 10L28 11L27 11L27 9L24 9L24 10L23 10L23 11L21 11L21 12L22 12L22 13L23 13L23 15L22 15L22 14L21 14L21 15L19 15L19 16L18 16L18 17L20 17L20 19L21 19L21 16L22 16L22 20L21 20L21 21L19 21L19 19L18 19L18 18L17 18L17 15L16 15L16 14L17 14L17 13L16 13L16 14L15 14L15 12L16 12L16 11L17 11L17 12L19 12L19 14L20 14L20 11L19 11L19 10L21 10L21 9L20 9L20 8L24 8L24 3L23 3L23 2L24 2L24 1ZM35 1L35 2L37 2L37 1ZM16 2L16 3L18 3L18 2ZM27 2L27 3L29 3L29 2ZM39 2L39 3L40 3L40 2ZM20 3L20 5L19 5L19 6L18 6L18 7L17 7L17 8L20 8L20 7L21 7L21 6L22 6L22 7L23 7L23 5L21 5L21 3ZM32 4L32 5L33 5L33 4ZM20 5L20 6L19 6L19 7L20 7L20 6L21 6L21 5ZM25 5L25 8L28 8L28 5ZM39 5L39 8L40 8L40 5ZM13 6L13 7L14 7L14 6ZM26 6L26 7L27 7L27 6ZM32 6L32 7L33 7L33 6ZM41 6L41 7L42 7L42 6ZM6 9L6 10L7 10L7 9ZM9 9L9 10L10 10L10 9ZM49 9L49 10L48 10L48 11L46 11L46 12L45 12L45 13L46 13L46 12L48 12L48 11L49 11L49 13L50 13L50 12L51 12L51 11L50 11L50 10L51 10L51 9ZM17 10L17 11L18 11L18 10ZM9 11L9 13L10 13L10 11ZM13 11L13 12L15 12L15 11ZM23 11L23 12L24 12L24 11ZM25 11L25 13L24 13L24 14L25 14L25 15L23 15L23 18L26 18L26 20L22 20L22 22L21 22L21 23L22 23L22 24L24 24L24 28L23 28L23 25L22 25L22 26L21 26L21 24L19 24L19 23L20 23L20 22L19 22L19 23L18 23L18 20L17 20L17 18L16 18L16 17L15 17L15 21L14 21L14 23L16 23L16 22L15 22L15 21L16 21L16 20L17 20L17 23L18 23L18 27L17 27L17 26L15 26L15 25L13 25L13 26L12 26L12 27L13 27L13 26L15 26L15 27L14 27L14 28L11 28L11 27L10 27L10 29L9 29L9 30L10 30L10 29L12 29L12 30L13 30L13 31L15 31L15 32L14 32L14 33L15 33L15 32L16 32L16 35L17 35L17 32L18 32L18 31L17 31L17 32L16 32L16 30L17 30L17 28L19 28L19 29L18 29L18 30L20 30L20 33L21 33L21 34L20 34L20 35L21 35L21 34L23 34L23 33L25 33L25 32L24 32L24 31L23 31L23 32L22 32L22 31L21 31L21 30L22 30L22 29L21 29L21 30L20 30L20 28L19 28L19 27L21 27L21 28L23 28L23 30L27 30L27 31L30 31L30 30L28 30L28 29L29 29L29 24L24 24L24 21L27 21L27 22L26 22L26 23L28 23L28 22L29 22L29 21L28 21L28 20L27 20L27 19L28 19L28 18L27 18L27 17L26 17L26 14L25 14L25 13L28 13L28 14L27 14L27 15L28 15L28 16L30 16L30 17L29 17L29 20L30 20L30 23L31 23L31 26L30 26L30 28L32 28L32 29L33 29L33 28L34 28L34 25L32 25L32 24L35 24L35 22L34 22L34 21L32 21L32 19L35 19L35 21L36 21L36 22L37 22L37 23L38 23L38 21L36 21L36 20L37 20L37 17L35 17L35 16L34 16L34 14L33 14L33 13L32 13L32 14L30 14L30 13L31 13L31 12L30 12L30 13L28 13L28 12L26 12L26 11ZM39 11L39 12L38 12L38 13L37 13L37 16L38 16L38 15L39 15L39 14L40 14L40 13L39 13L39 12L40 12L40 11ZM4 13L4 14L5 14L5 15L4 15L4 16L3 16L3 17L4 17L4 18L6 18L6 19L5 19L5 20L6 20L6 21L7 21L7 20L6 20L6 19L9 19L9 18L11 18L11 16L13 16L13 18L14 18L14 16L16 16L16 15L15 15L15 14L14 14L14 16L13 16L13 14L11 14L11 15L8 15L8 16L6 16L6 15L7 15L7 14L5 14L5 13ZM41 13L41 14L42 14L42 13ZM35 14L35 15L36 15L36 14ZM30 15L30 16L32 16L32 15ZM5 16L5 17L6 17L6 18L9 18L9 16L8 16L8 17L6 17L6 16ZM30 17L30 19L31 19L31 18L33 18L33 17ZM51 17L51 18L52 18L52 17ZM35 18L35 19L36 19L36 18ZM10 19L10 20L11 20L11 19ZM44 19L44 20L45 20L45 19ZM46 19L46 20L47 20L47 19ZM8 20L8 22L9 22L9 23L12 23L12 22L11 22L11 21L10 21L10 22L9 22L9 20ZM12 20L12 21L13 21L13 20ZM48 20L48 21L50 21L50 20ZM31 21L31 23L32 23L32 21ZM22 22L22 23L23 23L23 22ZM47 23L47 24L48 24L48 23ZM52 23L52 26L51 26L51 28L53 28L53 23ZM50 24L50 25L51 25L51 24ZM2 25L2 27L1 27L1 28L2 28L2 27L3 27L3 26L4 26L4 25ZM5 25L5 28L8 28L8 25ZM19 25L19 26L20 26L20 25ZM25 25L25 28L28 28L28 25ZM45 25L45 28L48 28L48 25ZM6 26L6 27L7 27L7 26ZM26 26L26 27L27 27L27 26ZM46 26L46 27L47 27L47 26ZM16 27L16 28L17 28L17 27ZM35 27L35 28L36 28L36 27ZM40 28L40 29L41 29L41 28ZM2 29L2 31L3 31L3 32L2 32L2 33L3 33L3 32L5 32L5 33L6 33L6 34L9 34L9 33L8 33L8 31L6 31L6 30L7 30L7 29L5 29L5 31L4 31L4 30L3 30L3 29ZM13 29L13 30L14 30L14 29ZM34 29L34 31L35 31L35 30L36 30L36 32L35 32L35 33L36 33L36 32L39 32L39 30L38 30L38 31L37 31L37 30L36 30L36 29ZM44 29L44 30L45 30L45 29ZM31 30L31 32L32 32L32 31L33 31L33 30ZM51 31L51 33L52 33L52 31ZM6 32L6 33L7 33L7 32ZM21 32L21 33L22 33L22 32ZM33 32L33 34L32 34L32 35L31 35L31 36L33 36L33 37L31 37L31 38L33 38L33 37L35 37L35 39L36 39L36 37L37 37L37 40L41 40L41 38L42 38L42 40L44 40L44 39L43 39L43 38L42 38L42 37L43 37L43 36L42 36L42 37L40 37L40 39L39 39L39 37L38 37L38 36L39 36L39 35L36 35L36 34L34 34L34 32ZM46 32L46 33L48 33L48 32ZM27 33L27 34L28 34L28 33ZM37 33L37 34L38 34L38 33ZM10 34L10 35L11 35L11 34ZM18 34L18 35L19 35L19 34ZM33 34L33 36L34 36L34 34ZM6 35L6 36L7 36L7 35ZM35 35L35 36L36 36L36 35ZM44 36L44 38L45 38L45 36ZM27 37L27 38L28 38L28 37ZM9 38L9 39L10 39L10 38ZM21 38L21 39L22 39L22 38ZM6 39L6 40L5 40L5 41L4 41L4 40L3 40L3 42L2 42L2 43L3 43L3 42L5 42L5 41L6 41L6 42L7 42L7 41L6 41L6 40L7 40L7 39ZM1 40L1 41L2 41L2 40ZM34 40L34 42L33 42L33 46L32 46L32 48L33 48L33 49L34 49L34 47L35 47L35 48L36 48L36 49L35 49L35 50L37 50L37 46L38 46L38 45L39 45L39 46L41 46L41 44L42 44L42 43L41 43L41 42L42 42L42 41L40 41L40 43L39 43L39 42L37 42L37 41L36 41L36 40ZM26 41L26 42L25 42L25 44L27 44L27 42L28 42L28 41ZM35 41L35 43L34 43L34 44L35 44L35 43L37 43L37 42L36 42L36 41ZM45 42L45 43L46 43L46 42ZM29 43L29 44L30 44L30 47L31 47L31 45L32 45L32 43ZM38 43L38 44L36 44L36 46L35 46L35 45L34 45L34 46L33 46L33 47L34 47L34 46L35 46L35 47L36 47L36 46L37 46L37 45L38 45L38 44L39 44L39 43ZM52 43L52 44L53 44L53 43ZM12 44L12 45L14 45L14 46L15 46L15 45L18 45L18 44L15 44L15 45L14 45L14 44ZM23 44L23 45L24 45L24 44ZM25 45L25 48L28 48L28 45ZM45 45L45 48L48 48L48 45ZM23 46L23 47L24 47L24 46ZM26 46L26 47L27 47L27 46ZM43 46L43 47L44 47L44 46ZM46 46L46 47L47 47L47 46ZM49 47L49 49L50 49L50 50L51 50L51 49L52 49L52 47ZM14 48L14 51L15 51L15 52L16 52L16 51L17 51L17 50L15 50L15 48ZM16 48L16 49L18 49L18 50L20 50L20 49L18 49L18 48ZM39 48L39 49L40 49L40 48ZM50 48L50 49L51 49L51 48ZM21 49L21 51L22 51L22 49ZM44 49L44 51L45 51L45 52L47 52L47 51L49 51L49 50L47 50L47 51L45 51L45 50L46 50L46 49ZM19 52L19 53L20 53L20 52ZM0 0L0 7L7 7L7 0ZM1 1L1 6L6 6L6 1ZM2 2L2 5L5 5L5 2ZM46 0L46 7L53 7L53 0ZM47 1L47 6L52 6L52 1ZM48 2L48 5L51 5L51 2ZM0 46L0 53L7 53L7 46ZM1 47L1 52L6 52L6 47ZM2 48L2 51L5 51L5 48Z" fill="#000000"/></g></g></svg>
