<?xml version="1.0" encoding="UTF-8"?>
<svg xmlns="http://www.w3.org/2000/svg" version="1.1" width="400" height="400" viewBox="0 0 400 400"><rect x="0" y="0" width="400" height="400" fill="#fefefe"/><g transform="scale(4.706)"><g transform="translate(4,4)"><path fill-rule="evenodd" d="M10 0L10 1L8 1L8 2L10 2L10 1L11 1L11 5L9 5L9 3L8 3L8 5L9 5L9 6L8 6L8 9L7 9L7 8L3 8L3 9L2 9L2 8L1 8L1 11L0 11L0 12L1 12L1 11L2 11L2 10L4 10L4 11L3 11L3 12L4 12L4 11L5 11L5 9L7 9L7 10L6 10L6 11L7 11L7 12L5 12L5 14L3 14L3 13L1 13L1 14L0 14L0 15L1 15L1 16L2 16L2 17L0 17L0 19L1 19L1 20L0 20L0 24L1 24L1 25L2 25L2 24L1 24L1 22L2 22L2 23L3 23L3 25L4 25L4 29L8 29L8 31L7 31L7 30L5 30L5 31L7 31L7 32L5 32L5 34L4 34L4 38L3 38L3 37L1 37L1 36L2 36L2 33L1 33L1 32L0 32L0 35L1 35L1 36L0 36L0 38L1 38L1 41L0 41L0 43L1 43L1 42L2 42L2 41L5 41L5 42L3 42L3 43L2 43L2 46L4 46L4 47L3 47L3 48L2 48L2 47L1 47L1 48L2 48L2 51L0 51L0 53L4 53L4 55L2 55L2 54L1 54L1 55L0 55L0 56L1 56L1 55L2 55L2 56L3 56L3 57L1 57L1 59L0 59L0 60L1 60L1 59L2 59L2 60L3 60L3 61L2 61L2 64L4 64L4 68L1 68L1 69L5 69L5 67L8 67L8 70L9 70L9 69L12 69L12 68L13 68L13 67L14 67L14 69L13 69L13 70L12 70L12 71L11 71L11 70L10 70L10 71L8 71L8 74L9 74L9 72L10 72L10 74L11 74L11 73L12 73L12 72L14 72L14 73L16 73L16 74L15 74L15 76L14 76L14 77L16 77L16 75L17 75L17 77L18 77L18 75L20 75L20 76L19 76L19 77L21 77L21 74L22 74L22 73L24 73L24 74L23 74L23 75L24 75L24 76L25 76L25 77L26 77L26 76L27 76L27 77L29 77L29 76L30 76L30 77L32 77L32 76L33 76L33 77L34 77L34 75L32 75L32 74L29 74L29 72L30 72L30 73L31 73L31 71L33 71L33 72L34 72L34 73L33 73L33 74L34 74L34 73L35 73L35 72L34 72L34 71L33 71L33 70L35 70L35 69L34 69L34 68L36 68L36 67L35 67L35 65L36 65L36 66L37 66L37 69L36 69L36 70L37 70L37 69L38 69L38 72L37 72L37 71L36 71L36 73L37 73L37 74L36 74L36 76L37 76L37 74L38 74L38 72L39 72L39 71L42 71L42 70L44 70L44 71L43 71L43 73L45 73L45 76L44 76L44 74L42 74L42 72L41 72L41 74L42 74L42 75L40 75L40 76L38 76L38 77L40 77L40 76L43 76L43 77L49 77L49 76L50 76L50 77L51 77L51 76L50 76L50 75L52 75L52 74L55 74L55 75L56 75L56 72L55 72L55 73L54 73L54 71L55 71L55 70L56 70L56 71L57 71L57 69L58 69L58 73L57 73L57 75L58 75L58 74L60 74L60 76L56 76L56 77L65 77L65 75L66 75L66 76L67 76L67 77L69 77L69 76L71 76L71 77L73 77L73 75L72 75L72 76L71 76L71 74L69 74L69 75L68 75L68 74L67 74L67 73L66 73L66 69L67 69L67 70L68 70L68 71L67 71L67 72L68 72L68 73L73 73L73 72L74 72L74 76L76 76L76 75L77 75L77 74L76 74L76 73L77 73L77 72L76 72L76 71L77 71L77 65L76 65L76 62L77 62L77 59L75 59L75 60L74 60L74 59L71 59L71 60L70 60L70 61L72 61L72 62L70 62L70 63L69 63L69 65L68 65L68 67L69 67L69 68L67 68L67 67L66 67L66 68L65 68L65 67L64 67L64 66L65 66L65 65L66 65L66 66L67 66L67 65L66 65L66 64L68 64L68 63L67 63L67 62L68 62L68 60L67 60L67 59L69 59L69 58L72 58L72 57L73 57L73 58L75 58L75 57L76 57L76 58L77 58L77 56L75 56L75 57L73 57L73 56L74 56L74 55L76 55L76 54L74 54L74 52L75 52L75 53L76 53L76 51L77 51L77 50L75 50L75 48L76 48L76 49L77 49L77 48L76 48L76 47L75 47L75 48L74 48L74 50L73 50L73 46L77 46L77 44L75 44L75 45L73 45L73 46L71 46L71 45L72 45L72 43L73 43L73 41L75 41L75 40L76 40L76 39L77 39L77 38L76 38L76 39L74 39L74 38L75 38L75 37L74 37L74 36L72 36L72 35L74 35L74 34L75 34L75 36L76 36L76 37L77 37L77 35L76 35L76 34L77 34L77 28L75 28L75 25L77 25L77 24L76 24L76 23L77 23L77 20L76 20L76 21L75 21L75 20L73 20L73 21L72 21L72 19L74 19L74 17L75 17L75 19L76 19L76 16L73 16L73 14L74 14L74 15L77 15L77 14L75 14L75 13L74 13L74 12L73 12L73 11L76 11L76 13L77 13L77 11L76 11L76 10L77 10L77 9L76 9L76 8L75 8L75 9L74 9L74 8L72 8L72 12L71 12L71 11L70 11L70 9L71 9L71 8L68 8L68 7L69 7L69 6L68 6L68 7L67 7L67 5L69 5L69 1L68 1L68 4L66 4L66 2L67 2L67 1L66 1L66 0L65 0L65 1L64 1L64 2L62 2L62 1L63 1L63 0L60 0L60 2L61 2L61 3L59 3L59 2L56 2L56 1L58 1L58 0L56 0L56 1L54 1L54 0L51 0L51 1L50 1L50 0L45 0L45 1L44 1L44 4L40 4L40 3L41 3L41 2L42 2L42 3L43 3L43 2L42 2L42 1L43 1L43 0L40 0L40 1L39 1L39 0L37 0L37 1L38 1L38 3L39 3L39 4L38 4L38 5L39 5L39 6L38 6L38 7L37 7L37 6L36 6L36 5L37 5L37 3L35 3L35 2L36 2L36 0L35 0L35 2L34 2L34 0L33 0L33 1L31 1L31 0L30 0L30 2L29 2L29 3L30 3L30 2L31 2L31 4L32 4L32 5L30 5L30 4L28 4L28 3L26 3L26 2L25 2L25 1L27 1L27 0L25 0L25 1L24 1L24 0L22 0L22 3L23 3L23 2L25 2L25 3L24 3L24 7L23 7L23 5L21 5L21 0L20 0L20 3L19 3L19 0L17 0L17 1L18 1L18 3L19 3L19 5L18 5L18 4L17 4L17 5L15 5L15 6L14 6L14 8L13 8L13 5L12 5L12 2L14 2L14 1L15 1L15 0L14 0L14 1L11 1L11 0ZM46 1L46 2L45 2L45 5L44 5L44 6L43 6L43 8L42 8L42 6L41 6L41 5L40 5L40 6L39 6L39 8L37 8L37 9L39 9L39 8L41 8L41 9L40 9L40 10L42 10L42 9L43 9L43 10L45 10L45 9L46 9L46 11L44 11L44 12L46 12L46 11L47 11L47 12L48 12L48 13L46 13L46 14L45 14L45 13L43 13L43 14L44 14L44 15L42 15L42 17L43 17L43 20L42 20L42 18L41 18L41 20L42 20L42 21L44 21L44 22L39 22L39 19L40 19L40 18L39 18L39 19L38 19L38 21L37 21L37 19L36 19L36 21L35 21L35 19L34 19L34 22L33 22L33 21L32 21L32 18L31 18L31 17L33 17L33 18L35 18L35 17L36 17L36 18L38 18L38 16L37 16L37 17L36 17L36 14L37 14L37 13L38 13L38 15L40 15L40 14L42 14L42 12L41 12L41 13L40 13L40 11L39 11L39 10L38 10L38 11L39 11L39 12L37 12L37 10L36 10L36 9L35 9L35 8L33 8L33 9L35 9L35 10L36 10L36 12L35 12L35 11L34 11L34 10L33 10L33 11L32 11L32 10L30 10L30 8L29 8L29 9L27 9L27 10L29 10L29 11L26 11L26 9L25 9L25 10L24 10L24 11L23 11L23 10L22 10L22 9L23 9L23 7L22 7L22 6L21 6L21 7L20 7L20 5L19 5L19 7L18 7L18 5L17 5L17 7L18 7L18 8L15 8L15 9L12 9L12 8L10 8L10 6L9 6L9 9L8 9L8 10L7 10L7 11L8 11L8 12L7 12L7 13L6 13L6 14L5 14L5 15L2 15L2 14L1 14L1 15L2 15L2 16L5 16L5 15L6 15L6 16L7 16L7 15L6 15L6 14L8 14L8 15L10 15L10 16L9 16L9 18L7 18L7 17L6 17L6 18L7 18L7 19L5 19L5 17L4 17L4 19L3 19L3 17L2 17L2 20L1 20L1 21L2 21L2 20L4 20L4 19L5 19L5 21L6 21L6 22L5 22L5 23L4 23L4 24L7 24L7 23L8 23L8 24L11 24L11 23L13 23L13 24L12 24L12 25L11 25L11 26L10 26L10 25L9 25L9 26L10 26L10 27L11 27L11 28L10 28L10 29L9 29L9 32L8 32L8 33L6 33L6 34L8 34L8 37L5 37L5 39L6 39L6 40L5 40L5 41L6 41L6 42L5 42L5 43L4 43L4 44L3 44L3 45L4 45L4 44L7 44L7 43L6 43L6 42L8 42L8 43L9 43L9 45L12 45L12 44L11 44L11 42L12 42L12 43L13 43L13 44L15 44L15 46L14 46L14 47L13 47L13 46L11 46L11 48L12 48L12 49L13 49L13 50L11 50L11 49L9 49L9 51L3 51L3 52L4 52L4 53L6 53L6 54L7 54L7 55L5 55L5 56L7 56L7 55L8 55L8 54L7 54L7 53L8 53L8 52L9 52L9 53L11 53L11 52L12 52L12 54L11 54L11 55L10 55L10 54L9 54L9 56L8 56L8 57L3 57L3 58L7 58L7 59L5 59L5 60L7 60L7 61L6 61L6 62L4 62L4 64L7 64L7 65L6 65L6 66L7 66L7 65L8 65L8 66L9 66L9 68L11 68L11 67L13 67L13 66L14 66L14 67L17 67L17 68L15 68L15 71L14 71L14 72L15 72L15 71L17 71L17 72L19 72L19 74L20 74L20 73L21 73L21 72L20 72L20 71L22 71L22 72L24 72L24 70L23 70L23 69L24 69L24 68L23 68L23 69L18 69L18 68L22 68L22 67L23 67L23 66L24 66L24 67L25 67L25 66L24 66L24 64L23 64L23 65L22 65L22 64L19 64L19 63L20 63L20 58L19 58L19 57L21 57L21 58L22 58L22 59L21 59L21 60L22 60L22 62L21 62L21 63L25 63L25 62L26 62L26 60L27 60L27 61L29 61L29 60L30 60L30 62L28 62L28 64L26 64L26 65L27 65L27 66L26 66L26 67L29 67L29 66L28 66L28 65L29 65L29 64L30 64L30 63L31 63L31 64L32 64L32 63L34 63L34 64L33 64L33 67L32 67L32 66L30 66L30 68L29 68L29 70L30 70L30 71L31 71L31 67L32 67L32 68L34 68L34 64L36 64L36 63L37 63L37 62L35 62L35 61L37 61L37 60L39 60L39 59L40 59L40 63L39 63L39 65L40 65L40 63L41 63L41 62L42 62L42 63L43 63L43 61L41 61L41 60L44 60L44 61L45 61L45 60L46 60L46 64L48 64L48 67L44 67L44 70L45 70L45 71L44 71L44 72L45 72L45 73L46 73L46 74L47 74L47 73L46 73L46 68L50 68L50 67L51 67L51 69L52 69L52 72L51 72L51 74L52 74L52 72L53 72L53 70L54 70L54 69L56 69L56 68L58 68L58 69L60 69L60 72L59 72L59 73L61 73L61 72L63 72L63 73L62 73L62 75L61 75L61 76L63 76L63 74L64 74L64 72L65 72L65 71L61 71L61 69L62 69L62 70L65 70L65 69L63 69L63 68L64 68L64 67L63 67L63 65L64 65L64 64L66 64L66 63L65 63L65 61L66 61L66 62L67 62L67 61L66 61L66 60L65 60L65 61L64 61L64 63L60 63L60 62L58 62L58 61L61 61L61 62L63 62L63 61L62 61L62 60L64 60L64 59L67 59L67 58L65 58L65 57L64 57L64 59L62 59L62 58L63 58L63 54L62 54L62 53L64 53L64 52L65 52L65 54L64 54L64 56L66 56L66 57L67 57L67 56L68 56L68 57L71 57L71 56L69 56L69 54L70 54L70 53L73 53L73 52L74 52L74 51L75 51L75 50L74 50L74 51L73 51L73 52L71 52L71 51L68 51L68 50L67 50L67 48L68 48L68 46L67 46L67 44L68 44L68 45L69 45L69 46L70 46L70 43L72 43L72 42L69 42L69 41L73 41L73 40L74 40L74 39L73 39L73 40L72 40L72 39L71 39L71 38L73 38L73 37L72 37L72 36L70 36L70 35L72 35L72 34L67 34L67 35L66 35L66 37L65 37L65 35L63 35L63 32L64 32L64 34L66 34L66 33L68 33L68 32L67 32L67 31L65 31L65 30L66 30L66 29L67 29L67 30L69 30L69 29L67 29L67 28L68 28L68 27L67 27L67 28L66 28L66 24L69 24L69 22L72 22L72 24L73 24L73 26L74 26L74 24L73 24L73 22L74 22L74 23L76 23L76 22L74 22L74 21L73 21L73 22L72 22L72 21L70 21L70 20L71 20L71 19L72 19L72 17L73 17L73 16L72 16L72 17L71 17L71 15L70 15L70 18L69 18L69 19L68 19L68 18L65 18L65 20L67 20L67 19L68 19L68 20L69 20L69 21L66 21L66 24L65 24L65 25L63 25L63 24L64 24L64 23L65 23L65 21L64 21L64 20L63 20L63 21L62 21L62 20L61 20L61 19L63 19L63 17L64 17L64 16L66 16L66 17L69 17L69 15L68 15L68 13L67 13L67 12L68 12L68 11L69 11L69 13L70 13L70 14L71 14L71 13L70 13L70 11L69 11L69 10L68 10L68 9L67 9L67 7L66 7L66 6L65 6L65 5L66 5L66 4L65 4L65 2L64 2L64 4L63 4L63 3L61 3L61 4L59 4L59 5L58 5L58 4L57 4L57 3L56 3L56 4L57 4L57 5L55 5L55 3L54 3L54 2L53 2L53 1L51 1L51 2L52 2L52 3L54 3L54 4L51 4L51 3L47 3L47 2L48 2L48 1ZM33 2L33 3L32 3L32 4L33 4L33 5L32 5L32 6L31 6L31 7L32 7L32 6L33 6L33 7L34 7L34 6L33 6L33 5L34 5L34 2ZM39 2L39 3L40 3L40 2ZM13 3L13 4L14 4L14 3ZM15 3L15 4L16 4L16 3ZM35 4L35 5L36 5L36 4ZM46 4L46 9L51 9L51 11L53 11L53 13L54 13L54 12L55 12L55 13L57 13L57 14L58 14L58 16L56 16L56 14L52 14L52 13L50 13L50 12L49 12L49 13L50 13L50 16L49 16L49 17L50 17L50 18L48 18L48 19L49 19L49 21L48 21L48 22L47 22L47 21L46 21L46 22L44 22L44 23L43 23L43 24L42 24L42 23L39 23L39 22L38 22L38 23L37 23L37 22L36 22L36 23L33 23L33 22L32 22L32 21L31 21L31 20L29 20L29 19L24 19L24 22L25 22L25 24L23 24L23 23L22 23L22 24L21 24L21 22L20 22L20 19L21 19L21 17L20 17L20 16L21 16L21 15L24 15L24 17L22 17L22 18L24 18L24 17L25 17L25 18L28 18L28 17L27 17L27 16L29 16L29 17L30 17L30 16L29 16L29 15L30 15L30 13L29 13L29 12L28 12L28 14L25 14L25 11L24 11L24 12L22 12L22 10L21 10L21 8L18 8L18 9L20 9L20 10L21 10L21 11L19 11L19 13L18 13L18 12L16 12L16 11L17 11L17 9L16 9L16 10L15 10L15 11L14 11L14 10L12 10L12 9L11 9L11 11L10 11L10 10L9 10L9 12L8 12L8 13L9 13L9 12L10 12L10 15L11 15L11 13L13 13L13 12L14 12L14 13L15 13L15 14L14 14L14 15L13 15L13 14L12 14L12 15L13 15L13 17L12 17L12 19L11 19L11 16L10 16L10 19L8 19L8 21L7 21L7 20L6 20L6 21L7 21L7 22L6 22L6 23L7 23L7 22L9 22L9 23L11 23L11 22L10 22L10 20L11 20L11 21L12 21L12 19L13 19L13 17L14 17L14 16L15 16L15 17L16 17L16 19L17 19L17 20L16 20L16 21L17 21L17 22L18 22L18 24L17 24L17 23L16 23L16 22L14 22L14 21L15 21L15 18L14 18L14 21L13 21L13 23L16 23L16 25L14 25L14 24L13 24L13 25L12 25L12 26L13 26L13 27L15 27L15 28L16 28L16 29L14 29L14 28L13 28L13 29L11 29L11 31L10 31L10 32L11 32L11 33L9 33L9 34L10 34L10 35L9 35L9 37L10 37L10 38L9 38L9 42L11 42L11 41L12 41L12 40L14 40L14 41L13 41L13 43L16 43L16 42L14 42L14 41L15 41L15 40L14 40L14 39L15 39L15 38L14 38L14 37L13 37L13 36L14 36L14 35L16 35L16 34L15 34L15 33L14 33L14 32L13 32L13 31L12 31L12 30L14 30L14 31L15 31L15 32L19 32L19 34L20 34L20 35L21 35L21 37L20 37L20 38L19 38L19 37L18 37L18 36L19 36L19 35L17 35L17 36L16 36L16 41L17 41L17 39L18 39L18 40L19 40L19 41L21 41L21 42L20 42L20 44L17 44L17 45L16 45L16 46L17 46L17 47L16 47L16 48L15 48L15 47L14 47L14 50L13 50L13 53L15 53L15 52L14 52L14 51L16 51L16 50L17 50L17 49L18 49L18 48L17 48L17 47L19 47L19 46L20 46L20 49L19 49L19 50L20 50L20 51L17 51L17 52L18 52L18 53L17 53L17 54L16 54L16 56L17 56L17 57L18 57L18 56L19 56L19 55L21 55L21 53L22 53L22 55L24 55L24 54L27 54L27 55L26 55L26 57L25 57L25 58L24 58L24 59L28 59L28 60L29 60L29 59L28 59L28 58L31 58L31 59L30 59L30 60L31 60L31 61L32 61L32 60L33 60L33 59L34 59L34 58L35 58L35 59L37 59L37 58L40 58L40 59L42 59L42 58L41 58L41 57L43 57L43 58L44 58L44 60L45 60L45 58L46 58L46 59L47 59L47 60L48 60L48 58L49 58L49 59L53 59L53 62L52 62L52 61L51 61L51 60L49 60L49 61L47 61L47 62L48 62L48 63L49 63L49 64L51 64L51 67L52 67L52 69L54 69L54 68L53 68L53 67L54 67L54 66L53 66L53 62L55 62L55 64L54 64L54 65L55 65L55 64L58 64L58 65L56 65L56 66L55 66L55 68L56 68L56 66L57 66L57 67L58 67L58 66L59 66L59 68L62 68L62 66L61 66L61 67L60 67L60 66L59 66L59 64L58 64L58 62L57 62L57 63L56 63L56 60L55 60L55 61L54 61L54 59L55 59L55 58L56 58L56 59L58 59L58 60L60 60L60 58L61 58L61 56L62 56L62 54L59 54L59 55L58 55L58 53L57 53L57 54L56 54L56 52L55 52L55 51L58 51L58 52L59 52L59 50L60 50L60 51L61 51L61 48L60 48L60 47L61 47L61 46L62 46L62 45L60 45L60 44L59 44L59 43L60 43L60 42L61 42L61 44L62 44L62 43L66 43L66 42L65 42L65 41L64 41L64 40L65 40L65 38L64 38L64 37L61 37L61 34L62 34L62 33L61 33L61 32L63 32L63 31L64 31L64 32L65 32L65 31L64 31L64 28L63 28L63 27L64 27L64 26L63 26L63 25L62 25L62 26L61 26L61 25L59 25L59 24L60 24L60 21L61 21L61 20L60 20L60 21L58 21L58 20L59 20L59 19L60 19L60 18L62 18L62 16L61 16L61 15L64 15L64 14L65 14L65 12L66 12L66 10L67 10L67 11L68 11L68 10L67 10L67 9L66 9L66 8L64 8L64 9L63 9L63 10L62 10L62 13L64 13L64 14L61 14L61 13L59 13L59 14L58 14L58 12L60 12L60 10L57 10L57 9L54 9L54 7L55 7L55 5L53 5L53 6L52 6L52 8L51 8L51 4ZM62 4L62 5L61 5L61 6L60 6L60 5L59 5L59 6L58 6L58 9L61 9L61 8L63 8L63 4ZM11 5L11 7L12 7L12 5ZM25 5L25 8L28 8L28 5ZM29 5L29 7L30 7L30 5ZM47 5L47 8L50 8L50 5ZM15 6L15 7L16 7L16 6ZM26 6L26 7L27 7L27 6ZM35 6L35 7L36 7L36 6ZM40 6L40 7L41 7L41 6ZM44 6L44 7L45 7L45 6ZM48 6L48 7L49 7L49 6ZM53 6L53 7L54 7L54 6ZM56 6L56 7L57 7L57 6ZM59 6L59 8L61 8L61 7L62 7L62 6L61 6L61 7L60 7L60 6ZM64 6L64 7L65 7L65 6ZM31 8L31 9L32 9L32 8ZM44 8L44 9L45 9L45 8ZM52 8L52 9L53 9L53 8ZM64 9L64 10L66 10L66 9ZM47 10L47 11L49 11L49 10ZM54 10L54 11L55 11L55 12L58 12L58 11L57 11L57 10ZM11 11L11 12L13 12L13 11ZM30 11L30 12L31 12L31 14L34 14L34 15L32 15L32 16L34 16L34 15L35 15L35 14L36 14L36 13L37 13L37 12L36 12L36 13L35 13L35 12L34 12L34 11L33 11L33 12L34 12L34 13L32 13L32 11ZM26 12L26 13L27 13L27 12ZM17 13L17 14L18 14L18 16L17 16L17 15L15 15L15 16L17 16L17 19L18 19L18 16L19 16L19 15L20 15L20 14L21 14L21 13L20 13L20 14L18 14L18 13ZM22 13L22 14L23 14L23 13ZM39 13L39 14L40 14L40 13ZM66 13L66 14L67 14L67 13ZM24 14L24 15L25 15L25 14ZM46 14L46 16L45 16L45 15L44 15L44 16L43 16L43 17L44 17L44 18L45 18L45 19L44 19L44 20L45 20L45 19L46 19L46 20L47 20L47 17L48 17L48 15L49 15L49 14ZM59 14L59 15L60 15L60 14ZM26 15L26 16L25 16L25 17L26 17L26 16L27 16L27 15ZM53 15L53 16L50 16L50 17L51 17L51 18L50 18L50 19L51 19L51 20L52 20L52 19L53 19L53 20L54 20L54 21L52 21L52 22L55 22L55 24L54 24L54 26L52 26L52 25L51 25L51 26L52 26L52 27L51 27L51 29L50 29L50 30L49 30L49 31L48 31L48 30L47 30L47 29L45 29L45 28L42 28L42 27L43 27L43 26L44 26L44 27L46 27L46 26L45 26L45 25L44 25L44 24L47 24L47 23L44 23L44 24L43 24L43 25L40 25L40 24L37 24L37 23L36 23L36 24L37 24L37 26L36 26L36 25L35 25L35 30L36 30L36 32L37 32L37 34L38 34L38 37L40 37L40 38L41 38L41 39L39 39L39 40L38 40L38 38L37 38L37 39L35 39L35 41L34 41L34 40L33 40L33 39L34 39L34 38L35 38L35 37L37 37L37 36L35 36L35 35L36 35L36 34L33 34L33 37L32 37L32 36L28 36L28 37L27 37L27 36L26 36L26 34L25 34L25 35L23 35L23 36L24 36L24 37L25 37L25 36L26 36L26 38L28 38L28 37L29 37L29 41L30 41L30 43L29 43L29 45L28 45L28 44L26 44L26 43L28 43L28 42L27 42L27 40L28 40L28 39L25 39L25 41L24 41L24 38L23 38L23 37L22 37L22 38L23 38L23 41L22 41L22 42L23 42L23 45L24 45L24 46L31 46L31 45L32 45L32 47L30 47L30 48L31 48L31 49L30 49L30 51L31 51L31 50L32 50L32 49L33 49L33 50L34 50L34 52L33 52L33 51L32 51L32 52L29 52L29 53L28 53L28 54L29 54L29 55L27 55L27 56L28 56L28 57L26 57L26 58L28 58L28 57L29 57L29 55L30 55L30 57L31 57L31 58L32 58L32 59L33 59L33 58L32 58L32 57L31 57L31 55L32 55L32 56L33 56L33 57L35 57L35 51L39 51L39 52L37 52L37 53L36 53L36 57L41 57L41 56L42 56L42 54L43 54L43 55L44 55L44 56L46 56L46 55L44 55L44 54L43 54L43 52L44 52L44 51L46 51L46 53L45 53L45 54L48 54L48 55L50 55L50 54L51 54L51 53L49 53L49 51L46 51L46 48L45 48L45 47L44 47L44 46L45 46L45 45L46 45L46 42L47 42L47 41L46 41L46 38L48 38L48 36L49 36L49 35L50 35L50 37L49 37L49 39L47 39L47 40L48 40L48 41L49 41L49 42L48 42L48 43L47 43L47 46L48 46L48 45L49 45L49 46L50 46L50 45L51 45L51 46L52 46L52 47L51 47L51 49L52 49L52 48L53 48L53 51L52 51L52 50L51 50L51 52L53 52L53 53L54 53L54 50L56 50L56 49L54 49L54 48L57 48L57 50L58 50L58 47L59 47L59 46L58 46L58 43L59 43L59 42L60 42L60 41L59 41L59 42L57 42L57 40L60 40L60 38L58 38L58 39L57 39L57 40L56 40L56 39L54 39L54 38L55 38L55 37L56 37L56 38L57 38L57 37L58 37L58 35L60 35L60 34L61 34L61 33L60 33L60 34L55 34L55 35L54 35L54 36L52 36L52 37L54 37L54 38L53 38L53 40L51 40L51 34L52 34L52 35L53 35L53 33L56 33L56 32L61 32L61 31L58 31L58 30L56 30L56 32L55 32L55 29L56 29L56 28L58 28L58 29L60 29L60 30L62 30L62 31L63 31L63 30L62 30L62 29L63 29L63 28L62 28L62 27L61 27L61 26L58 26L58 27L54 27L54 26L55 26L55 24L57 24L57 25L56 25L56 26L57 26L57 25L58 25L58 22L55 22L55 21L56 21L56 20L58 20L58 19L57 19L57 18L59 18L59 17L60 17L60 16L58 16L58 17L57 17L57 18L56 18L56 17L54 17L54 15ZM39 16L39 17L40 17L40 16ZM44 16L44 17L45 17L45 18L46 18L46 17L45 17L45 16ZM19 17L19 19L20 19L20 17ZM52 17L52 18L51 18L51 19L52 19L52 18L53 18L53 19L54 19L54 18L53 18L53 17ZM30 18L30 19L31 19L31 18ZM55 18L55 20L56 20L56 18ZM69 19L69 20L70 20L70 19ZM18 20L18 21L19 21L19 20ZM21 20L21 21L22 21L22 22L23 22L23 21L22 21L22 20ZM27 20L27 21L25 21L25 22L26 22L26 24L27 24L27 21L28 21L28 22L29 22L29 23L28 23L28 24L29 24L29 27L30 27L30 26L31 26L31 23L32 23L32 25L34 25L34 24L33 24L33 23L32 23L32 22L31 22L31 21L28 21L28 20ZM3 21L3 22L4 22L4 21ZM19 22L19 25L17 25L17 27L16 27L16 28L17 28L17 29L16 29L16 30L17 30L17 31L18 31L18 30L17 30L17 29L18 29L18 28L19 28L19 29L20 29L20 31L21 31L21 28L22 28L22 31L24 31L24 32L21 32L21 33L20 33L20 34L21 34L21 33L24 33L24 32L25 32L25 31L26 31L26 30L27 30L27 29L25 29L25 31L24 31L24 30L23 30L23 29L24 29L24 25L23 25L23 24L22 24L22 25L21 25L21 26L22 26L22 27L20 27L20 26L19 26L19 25L20 25L20 22ZM30 22L30 23L31 23L31 22ZM48 22L48 23L49 23L49 24L51 24L51 22L50 22L50 23L49 23L49 22ZM61 22L61 24L63 24L63 23L64 23L64 22ZM52 23L52 24L53 24L53 23ZM5 25L5 28L8 28L8 25ZM13 25L13 26L14 26L14 25ZM22 25L22 26L23 26L23 25ZM25 25L25 28L28 28L28 25ZM47 25L47 28L50 28L50 25ZM69 25L69 28L72 28L72 25ZM0 26L0 28L1 28L1 26ZM2 26L2 27L3 27L3 26ZM6 26L6 27L7 27L7 26ZM26 26L26 27L27 27L27 26ZM33 26L33 27L31 27L31 28L30 28L30 29L29 29L29 30L31 30L31 29L32 29L32 28L33 28L33 31L32 31L32 33L31 33L31 32L30 32L30 33L31 33L31 35L32 35L32 33L33 33L33 31L34 31L34 28L33 28L33 27L34 27L34 26ZM37 26L37 27L39 27L39 28L38 28L38 29L39 29L39 28L40 28L40 29L41 29L41 30L42 30L42 31L41 31L41 32L43 32L43 29L41 29L41 28L40 28L40 27L39 27L39 26ZM48 26L48 27L49 27L49 26ZM70 26L70 27L71 27L71 26ZM76 26L76 27L77 27L77 26ZM17 27L17 28L18 28L18 27ZM19 27L19 28L20 28L20 27ZM22 27L22 28L23 28L23 27ZM60 27L60 29L61 29L61 27ZM2 28L2 29L0 29L0 31L2 31L2 32L4 32L4 30L3 30L3 31L2 31L2 29L3 29L3 28ZM36 28L36 29L37 29L37 28ZM52 28L52 29L51 29L51 31L52 31L52 32L50 32L50 31L49 31L49 32L47 32L47 30L45 30L45 29L44 29L44 32L45 32L45 33L44 33L44 34L42 34L42 33L40 33L40 32L39 32L39 33L40 33L40 34L42 34L42 35L39 35L39 36L41 36L41 38L42 38L42 39L41 39L41 40L42 40L42 39L43 39L43 42L42 42L42 41L38 41L38 40L36 40L36 41L35 41L35 43L34 43L34 41L33 41L33 40L32 40L32 37L31 37L31 38L30 38L30 40L31 40L31 41L32 41L32 42L33 42L33 43L31 43L31 44L32 44L32 45L33 45L33 47L34 47L34 48L33 48L33 49L35 49L35 47L34 47L34 45L33 45L33 44L35 44L35 46L36 46L36 48L37 48L37 49L36 49L36 50L39 50L39 51L40 51L40 53L41 53L41 52L42 52L42 48L44 48L44 49L43 49L43 50L45 50L45 48L44 48L44 47L43 47L43 46L44 46L44 45L45 45L45 40L44 40L44 39L43 39L43 38L44 38L44 37L43 37L43 36L44 36L44 35L45 35L45 33L46 33L46 35L47 35L47 36L48 36L48 35L49 35L49 34L51 34L51 33L53 33L53 31L54 31L54 30L53 30L53 28ZM54 28L54 29L55 29L55 28ZM71 29L71 30L70 30L70 31L71 31L71 32L72 32L72 31L71 31L71 30L73 30L73 29ZM74 29L74 30L75 30L75 29ZM37 30L37 31L38 31L38 30ZM52 30L52 31L53 31L53 30ZM11 31L11 32L12 32L12 31ZM27 31L27 32L26 32L26 33L27 33L27 34L29 34L29 32L28 32L28 31ZM73 31L73 34L74 34L74 33L75 33L75 34L76 34L76 33L75 33L75 31ZM27 32L27 33L28 33L28 32ZM69 32L69 33L70 33L70 32ZM11 33L11 35L12 35L12 36L13 36L13 35L14 35L14 34L13 34L13 33ZM17 33L17 34L18 34L18 33ZM47 33L47 34L49 34L49 33ZM12 34L12 35L13 35L13 34ZM6 35L6 36L7 36L7 35ZM42 35L42 36L43 36L43 35ZM55 35L55 36L56 36L56 37L57 37L57 35ZM62 35L62 36L63 36L63 35ZM68 35L68 36L69 36L69 35ZM11 37L11 38L12 38L12 39L11 39L11 40L12 40L12 39L13 39L13 37ZM17 37L17 38L18 38L18 37ZM66 37L66 38L69 38L69 40L71 40L71 39L70 39L70 37ZM2 38L2 39L3 39L3 40L4 40L4 39L3 39L3 38ZM6 38L6 39L7 39L7 40L6 40L6 41L8 41L8 38ZM20 38L20 39L21 39L21 38ZM62 38L62 39L61 39L61 40L62 40L62 41L61 41L61 42L63 42L63 40L64 40L64 39L63 39L63 38ZM49 39L49 40L50 40L50 41L51 41L51 40L50 40L50 39ZM66 39L66 41L68 41L68 39ZM54 40L54 41L52 41L52 42L50 42L50 44L49 44L49 43L48 43L48 44L49 44L49 45L50 45L50 44L51 44L51 45L53 45L53 48L54 48L54 45L55 45L55 46L56 46L56 47L58 47L58 46L56 46L56 45L55 45L55 44L56 44L56 43L57 43L57 42L54 42L54 41L55 41L55 40ZM25 41L25 43L26 43L26 41ZM37 41L37 42L36 42L36 43L35 43L35 44L36 44L36 43L38 43L38 44L37 44L37 45L38 45L38 46L43 46L43 45L44 45L44 43L43 43L43 44L42 44L42 43L41 43L41 45L40 45L40 43L38 43L38 41ZM52 42L52 43L51 43L51 44L54 44L54 43L53 43L53 42ZM67 42L67 43L68 43L68 42ZM75 42L75 43L76 43L76 42ZM21 43L21 44L20 44L20 45L22 45L22 43ZM0 44L0 45L1 45L1 44ZM24 44L24 45L25 45L25 44ZM63 44L63 47L62 47L62 49L63 49L63 51L62 51L62 52L60 52L60 53L62 53L62 52L63 52L63 51L64 51L64 50L65 50L65 51L66 51L66 53L67 53L67 55L68 55L68 53L70 53L70 52L68 52L68 51L67 51L67 50L65 50L65 48L67 48L67 46L66 46L66 47L65 47L65 45L66 45L66 44ZM5 45L5 46L7 46L7 45ZM18 45L18 46L19 46L19 45ZM5 47L5 50L8 50L8 47ZM9 47L9 48L10 48L10 47ZM12 47L12 48L13 48L13 47ZM22 47L22 48L23 48L23 47ZM25 47L25 50L28 50L28 47ZM37 47L37 48L40 48L40 51L41 51L41 48L42 48L42 47L41 47L41 48L40 48L40 47ZM47 47L47 50L50 50L50 47ZM69 47L69 50L72 50L72 47ZM6 48L6 49L7 49L7 48ZM16 48L16 49L15 49L15 50L16 50L16 49L17 49L17 48ZM26 48L26 49L27 49L27 48ZM48 48L48 49L49 49L49 48ZM59 48L59 49L60 49L60 48ZM70 48L70 49L71 49L71 48ZM3 49L3 50L4 50L4 49ZM22 49L22 50L21 50L21 51L20 51L20 52L21 52L21 51L22 51L22 50L23 50L23 52L24 52L24 50L23 50L23 49ZM25 51L25 52L26 52L26 53L27 53L27 52L28 52L28 51L27 51L27 52L26 52L26 51ZM6 52L6 53L7 53L7 52ZM47 52L47 53L48 53L48 52ZM67 52L67 53L68 53L68 52ZM19 53L19 54L20 54L20 53ZM31 53L31 54L30 54L30 55L31 55L31 54L32 54L32 55L33 55L33 56L34 56L34 53L33 53L33 54L32 54L32 53ZM38 53L38 55L37 55L37 56L40 56L40 54L39 54L39 53ZM12 54L12 55L11 55L11 56L9 56L9 57L8 57L8 58L9 58L9 57L11 57L11 58L10 58L10 59L12 59L12 60L11 60L11 61L9 61L9 63L8 63L8 64L9 64L9 66L10 66L10 67L11 67L11 66L10 66L10 65L11 65L11 64L12 64L12 66L13 66L13 64L14 64L14 66L15 66L15 64L14 64L14 63L13 63L13 64L12 64L12 63L10 63L10 62L13 62L13 61L15 61L15 63L16 63L16 64L17 64L17 65L16 65L16 66L17 66L17 67L22 67L22 65L21 65L21 66L18 66L18 65L19 65L19 64L17 64L17 63L16 63L16 61L18 61L18 58L17 58L17 60L16 60L16 59L15 59L15 58L12 58L12 57L11 57L11 56L12 56L12 55L13 55L13 54ZM14 54L14 55L15 55L15 54ZM65 54L65 55L66 55L66 54ZM71 54L71 55L73 55L73 54ZM17 55L17 56L18 56L18 55ZM52 55L52 57L53 57L53 58L55 58L55 57L54 57L54 55ZM57 55L57 57L58 57L58 55ZM59 55L59 57L60 57L60 55ZM13 56L13 57L15 57L15 56ZM21 56L21 57L22 57L22 58L23 58L23 57L24 57L24 56ZM47 56L47 57L49 57L49 58L50 58L50 57L51 57L51 56L50 56L50 57L49 57L49 56ZM44 57L44 58L45 58L45 57ZM3 59L3 60L4 60L4 59ZM8 59L8 60L9 60L9 59ZM15 60L15 61L16 61L16 60ZM23 60L23 62L25 62L25 60ZM72 60L72 61L74 61L74 60ZM75 60L75 62L74 62L74 63L73 63L73 64L72 64L72 63L70 63L70 64L72 64L72 66L71 66L71 68L72 68L72 67L73 67L73 68L74 68L74 69L73 69L73 70L74 70L74 71L76 71L76 70L74 70L74 69L75 69L75 68L76 68L76 67L75 67L75 66L76 66L76 65L75 65L75 62L76 62L76 60ZM38 61L38 62L39 62L39 61ZM49 61L49 63L50 63L50 61ZM6 62L6 63L7 63L7 62ZM18 62L18 63L19 63L19 62ZM31 62L31 63L32 63L32 62ZM44 62L44 63L45 63L45 62ZM0 63L0 66L1 66L1 67L2 67L2 66L1 66L1 63ZM9 63L9 64L10 64L10 63ZM51 63L51 64L52 64L52 63ZM37 64L37 66L38 66L38 64ZM42 64L42 65L41 65L41 67L42 67L42 66L43 66L43 65L44 65L44 66L47 66L47 65L44 65L44 64ZM60 64L60 65L62 65L62 64ZM69 65L69 66L70 66L70 65ZM73 65L73 66L74 66L74 65ZM39 66L39 67L38 67L38 69L39 69L39 70L40 70L40 69L41 69L41 70L42 70L42 68L40 68L40 66ZM49 66L49 67L50 67L50 66ZM52 66L52 67L53 67L53 66ZM74 67L74 68L75 68L75 67ZM6 68L6 69L7 69L7 68ZM25 69L25 72L28 72L28 69ZM32 69L32 70L33 70L33 69ZM47 69L47 72L50 72L50 69ZM69 69L69 72L72 72L72 69ZM17 70L17 71L18 71L18 70ZM22 70L22 71L23 71L23 70ZM26 70L26 71L27 71L27 70ZM48 70L48 71L49 71L49 70ZM70 70L70 71L71 71L71 70ZM25 73L25 74L24 74L24 75L25 75L25 74L26 74L26 75L27 75L27 74L28 74L28 73ZM17 74L17 75L18 75L18 74ZM48 74L48 75L47 75L47 76L49 76L49 74ZM8 75L8 76L10 76L10 75ZM11 75L11 77L13 77L13 76L12 76L12 75ZM67 75L67 76L68 76L68 75ZM22 76L22 77L23 77L23 76ZM52 76L52 77L53 77L53 76ZM54 76L54 77L55 77L55 76ZM0 0L0 7L7 7L7 0ZM1 1L1 6L6 6L6 1ZM2 2L2 5L5 5L5 2ZM70 0L70 7L77 7L77 0ZM71 1L71 6L76 6L76 1ZM72 2L72 5L75 5L75 2ZM0 70L0 77L7 77L7 70ZM1 71L1 76L6 76L6 71ZM2 72L2 75L5 75L5 72Z" fill="#000000"/></g></g></svg>
