<?xml version="1.0" encoding="UTF-8"?>
<svg xmlns="http://www.w3.org/2000/svg" version="1.1" width="400" height="400" viewBox="0 0 400 400"><rect x="0" y="0" width="400" height="400" fill="#fefefe"/><g transform="scale(4.706)"><g transform="translate(4,4)"><path fill-rule="evenodd" d="M10 0L10 1L12 1L12 2L10 2L10 3L12 3L12 4L9 4L9 3L8 3L8 5L10 5L10 7L11 7L11 6L12 6L12 8L9 8L9 6L8 6L8 9L7 9L7 8L3 8L3 9L4 9L4 10L3 10L3 11L4 11L4 12L3 12L3 13L1 13L1 11L2 11L2 8L1 8L1 11L0 11L0 13L1 13L1 15L2 15L2 16L1 16L1 17L0 17L0 18L1 18L1 17L2 17L2 16L3 16L3 18L5 18L5 17L7 17L7 16L8 16L8 15L7 15L7 14L8 14L8 13L9 13L9 14L10 14L10 15L9 15L9 16L11 16L11 14L10 14L10 13L9 13L9 12L11 12L11 11L12 11L12 12L13 12L13 11L15 11L15 13L14 13L14 15L12 15L12 16L13 16L13 17L12 17L12 18L11 18L11 19L13 19L13 20L10 20L10 19L9 19L9 20L8 20L8 21L7 21L7 20L5 20L5 21L7 21L7 22L6 22L6 23L5 23L5 22L3 22L3 21L4 21L4 19L3 19L3 20L1 20L1 19L0 19L0 22L1 22L1 23L0 23L0 24L1 24L1 25L4 25L4 26L1 26L1 27L2 27L2 28L4 28L4 29L5 29L5 30L6 30L6 31L7 31L7 30L6 30L6 29L9 29L9 30L10 30L10 32L9 32L9 33L7 33L7 32L4 32L4 31L3 31L3 30L2 30L2 31L3 31L3 33L5 33L5 37L7 37L7 36L6 36L6 35L7 35L7 34L8 34L8 35L9 35L9 33L11 33L11 35L10 35L10 37L9 37L9 36L8 36L8 37L9 37L9 38L8 38L8 39L7 39L7 38L4 38L4 36L3 36L3 35L2 35L2 33L0 33L0 36L1 36L1 37L3 37L3 38L4 38L4 39L7 39L7 40L3 40L3 39L2 39L2 38L1 38L1 41L0 41L0 45L1 45L1 46L0 46L0 49L1 49L1 48L2 48L2 49L3 49L3 51L2 51L2 50L1 50L1 51L0 51L0 53L1 53L1 51L2 51L2 53L3 53L3 54L1 54L1 55L0 55L0 56L1 56L1 55L2 55L2 56L5 56L5 55L7 55L7 54L8 54L8 53L7 53L7 52L6 52L6 51L8 51L8 52L9 52L9 51L11 51L11 50L13 50L13 51L12 51L12 52L10 52L10 53L11 53L11 55L10 55L10 54L9 54L9 55L8 55L8 56L6 56L6 57L3 57L3 58L2 58L2 57L1 57L1 60L0 60L0 62L1 62L1 63L0 63L0 66L1 66L1 67L2 67L2 66L3 66L3 65L5 65L5 62L4 62L4 59L3 59L3 58L5 58L5 59L7 59L7 60L6 60L6 61L7 61L7 60L8 60L8 62L6 62L6 63L8 63L8 64L9 64L9 65L11 65L11 64L13 64L13 65L12 65L12 66L9 66L9 67L8 67L8 66L4 66L4 68L1 68L1 69L5 69L5 67L8 67L8 70L9 70L9 71L8 71L8 74L9 74L9 75L8 75L8 76L9 76L9 77L10 77L10 76L11 76L11 77L12 77L12 76L13 76L13 77L14 77L14 76L15 76L15 75L16 75L16 74L18 74L18 75L19 75L19 76L23 76L23 74L25 74L25 75L24 75L24 77L25 77L25 76L26 76L26 75L27 75L27 76L28 76L28 75L27 75L27 73L29 73L29 74L30 74L30 73L31 73L31 72L32 72L32 73L33 73L33 71L31 71L31 72L30 72L30 73L29 73L29 68L31 68L31 67L30 67L30 66L29 66L29 68L27 68L27 67L26 67L26 68L25 68L25 67L24 67L24 69L22 69L22 67L23 67L23 66L28 66L28 64L31 64L31 66L33 66L33 65L35 65L35 66L34 66L34 67L38 67L38 68L35 68L35 69L34 69L34 68L32 68L32 69L31 69L31 70L36 70L36 71L37 71L37 70L38 70L38 76L39 76L39 77L42 77L42 74L43 74L43 73L45 73L45 75L44 75L44 77L48 77L48 76L47 76L47 75L49 75L49 76L50 76L50 77L52 77L52 76L53 76L53 74L54 74L54 77L55 77L55 76L56 76L56 77L57 77L57 75L58 75L58 73L57 73L57 70L58 70L58 69L59 69L59 71L58 71L58 72L59 72L59 74L60 74L60 75L59 75L59 76L58 76L58 77L59 77L59 76L60 76L60 77L62 77L62 76L63 76L63 77L65 77L65 76L63 76L63 75L64 75L64 74L63 74L63 73L64 73L64 72L66 72L66 73L67 73L67 74L66 74L66 75L67 75L67 74L68 74L68 73L69 73L69 74L70 74L70 76L68 76L68 77L71 77L71 75L72 75L72 74L71 74L71 73L73 73L73 74L74 74L74 76L76 76L76 75L77 75L77 74L76 74L76 73L77 73L77 72L76 72L76 73L73 73L73 71L74 71L74 72L75 72L75 71L74 71L74 70L77 70L77 65L76 65L76 67L75 67L75 68L74 68L74 67L72 67L72 66L73 66L73 65L72 65L72 64L73 64L73 63L74 63L74 64L76 64L76 63L77 63L77 62L76 62L76 63L75 63L75 60L74 60L74 59L72 59L72 58L75 58L75 59L76 59L76 58L77 58L77 55L76 55L76 57L75 57L75 55L72 55L72 54L70 54L70 55L69 55L69 54L68 54L68 53L69 53L69 52L68 52L68 53L67 53L67 54L66 54L66 53L65 53L65 54L64 54L64 52L65 52L65 51L64 51L64 50L66 50L66 52L67 52L67 51L70 51L70 53L72 53L72 52L73 52L73 54L74 54L74 52L76 52L76 51L77 51L77 50L75 50L75 48L76 48L76 49L77 49L77 48L76 48L76 47L75 47L75 48L74 48L74 47L73 47L73 46L75 46L75 45L76 45L76 46L77 46L77 42L75 42L75 43L76 43L76 44L74 44L74 43L73 43L73 42L72 42L72 41L76 41L76 40L75 40L75 39L74 39L74 38L75 38L75 35L77 35L77 32L76 32L76 33L75 33L75 32L74 32L74 33L73 33L73 34L72 34L72 33L70 33L70 32L71 32L71 31L74 31L74 29L75 29L75 31L77 31L77 28L75 28L75 25L77 25L77 24L75 24L75 23L76 23L76 22L75 22L75 19L74 19L74 18L73 18L73 17L75 17L75 18L77 18L77 17L75 17L75 16L76 16L76 15L77 15L77 14L76 14L76 13L77 13L77 12L76 12L76 13L74 13L74 14L73 14L73 13L72 13L72 12L73 12L73 11L72 11L72 10L75 10L75 9L76 9L76 11L77 11L77 9L76 9L76 8L75 8L75 9L74 9L74 8L72 8L72 9L71 9L71 8L68 8L68 7L69 7L69 6L68 6L68 7L67 7L67 5L69 5L69 1L68 1L68 4L64 4L64 3L65 3L65 2L67 2L67 1L66 1L66 0L65 0L65 1L64 1L64 0L62 0L62 1L64 1L64 2L63 2L63 3L62 3L62 2L60 2L60 3L59 3L59 2L57 2L57 1L58 1L58 0L56 0L56 1L55 1L55 0L53 0L53 2L52 2L52 1L51 1L51 0L50 0L50 1L49 1L49 0L48 0L48 2L47 2L47 0L45 0L45 1L42 1L42 0L40 0L40 1L42 1L42 2L41 2L41 3L40 3L40 2L39 2L39 1L38 1L38 0L37 0L37 1L34 1L34 0L29 0L29 1L28 1L28 2L27 2L27 1L26 1L26 0L22 0L22 2L25 2L25 3L26 3L26 4L24 4L24 10L28 10L28 11L29 11L29 12L28 12L28 13L27 13L27 11L26 11L26 12L25 12L25 11L24 11L24 12L23 12L23 9L21 9L21 8L22 8L22 7L23 7L23 6L22 6L22 7L21 7L21 6L20 6L20 3L21 3L21 2L20 2L20 3L19 3L19 2L17 2L17 3L19 3L19 4L15 4L15 3L14 3L14 2L15 2L15 1L16 1L16 0L14 0L14 2L13 2L13 0ZM17 0L17 1L18 1L18 0ZM19 0L19 1L20 1L20 0ZM60 0L60 1L61 1L61 0ZM8 1L8 2L9 2L9 1ZM25 1L25 2L26 2L26 1ZM30 1L30 2L28 2L28 3L27 3L27 4L28 4L28 3L30 3L30 4L29 4L29 8L32 8L32 9L30 9L30 10L29 10L29 9L28 9L28 10L29 10L29 11L30 11L30 12L31 12L31 13L32 13L32 14L30 14L30 13L29 13L29 14L26 14L26 15L25 15L25 14L24 14L24 13L23 13L23 12L22 12L22 11L20 11L20 10L19 10L19 8L17 8L17 9L16 9L16 6L17 6L17 7L18 7L18 6L19 6L19 7L20 7L20 6L19 6L19 5L16 5L16 6L15 6L15 11L16 11L16 13L17 13L17 12L18 12L18 14L17 14L17 15L16 15L16 16L17 16L17 15L19 15L19 17L17 17L17 18L18 18L18 19L17 19L17 22L18 22L18 24L17 24L17 23L16 23L16 22L14 22L14 21L13 21L13 23L12 23L12 21L11 21L11 23L12 23L12 24L13 24L13 23L14 23L14 24L16 24L16 25L19 25L19 26L18 26L18 27L20 27L20 28L19 28L19 29L20 29L20 30L18 30L18 29L17 29L17 28L16 28L16 27L15 27L15 26L14 26L14 25L13 25L13 26L12 26L12 25L11 25L11 26L10 26L10 25L9 25L9 27L10 27L10 29L13 29L13 27L14 27L14 28L16 28L16 29L14 29L14 30L11 30L11 31L13 31L13 32L11 32L11 33L12 33L12 35L15 35L15 36L11 36L11 37L10 37L10 38L9 38L9 39L8 39L8 40L7 40L7 41L6 41L6 42L7 42L7 43L5 43L5 45L4 45L4 43L3 43L3 42L2 42L2 41L3 41L3 40L2 40L2 41L1 41L1 45L2 45L2 47L4 47L4 46L9 46L9 48L11 48L11 49L12 49L12 47L13 47L13 49L14 49L14 50L16 50L16 52L15 52L15 51L13 51L13 52L14 52L14 53L16 53L16 54L15 54L15 55L14 55L14 54L13 54L13 53L12 53L12 54L13 54L13 55L14 55L14 56L15 56L15 55L17 55L17 56L16 56L16 57L15 57L15 58L14 58L14 59L15 59L15 60L16 60L16 62L14 62L14 60L13 60L13 61L12 61L12 60L10 60L10 59L9 59L9 58L10 58L10 57L9 57L9 56L8 56L8 57L6 57L6 58L7 58L7 59L8 59L8 60L9 60L9 64L10 64L10 62L11 62L11 63L12 63L12 62L13 62L13 64L14 64L14 65L15 65L15 66L16 66L16 67L13 67L13 69L14 69L14 70L17 70L17 72L16 72L16 71L14 71L14 72L15 72L15 74L16 74L16 73L17 73L17 72L18 72L18 74L19 74L19 72L22 72L22 74L23 74L23 71L24 71L24 70L22 70L22 69L20 69L20 66L21 66L21 65L19 65L19 64L28 64L28 63L27 63L27 60L28 60L28 59L29 59L29 60L30 60L30 61L31 61L31 62L29 62L29 63L32 63L32 64L33 64L33 63L34 63L34 64L35 64L35 63L36 63L36 66L38 66L38 67L39 67L39 65L37 65L37 64L42 64L42 66L41 66L41 65L40 65L40 68L38 68L38 70L40 70L40 71L39 71L39 73L40 73L40 74L39 74L39 76L40 76L40 75L41 75L41 74L42 74L42 72L44 72L44 70L45 70L45 71L46 71L46 68L44 68L44 70L43 70L43 68L42 68L42 69L41 69L41 70L40 70L40 68L41 68L41 67L42 67L42 66L43 66L43 67L46 67L46 66L49 66L49 68L50 68L50 67L51 67L51 66L50 66L50 64L51 64L51 65L52 65L52 66L54 66L54 67L52 67L52 68L54 68L54 69L55 69L55 68L56 68L56 69L58 69L58 67L57 67L57 68L56 68L56 67L55 67L55 66L54 66L54 63L55 63L55 65L56 65L56 66L60 66L60 67L59 67L59 68L61 68L61 69L60 69L60 70L61 70L61 71L62 71L62 72L61 72L61 74L62 74L62 73L63 73L63 72L64 72L64 71L62 71L62 69L63 69L63 68L64 68L64 70L65 70L65 68L66 68L66 69L67 69L67 68L68 68L68 67L67 67L67 68L66 68L66 67L65 67L65 65L66 65L66 63L67 63L67 62L68 62L68 63L69 63L69 62L70 62L70 61L69 61L69 62L68 62L68 61L67 61L67 58L70 58L70 60L71 60L71 61L72 61L72 62L71 62L71 63L70 63L70 64L72 64L72 62L73 62L73 61L74 61L74 60L71 60L71 58L72 58L72 57L74 57L74 56L71 56L71 57L69 57L69 56L68 56L68 55L67 55L67 56L66 56L66 55L63 55L63 56L61 56L61 55L60 55L60 56L61 56L61 57L59 57L59 56L58 56L58 55L57 55L57 56L58 56L58 57L57 57L57 58L54 58L54 59L55 59L55 60L51 60L51 61L50 61L50 63L49 63L49 61L48 61L48 62L47 62L47 61L46 61L46 62L47 62L47 63L48 63L48 64L46 64L46 66L44 66L44 65L45 65L45 64L44 64L44 63L45 63L45 59L44 59L44 60L43 60L43 58L42 58L42 57L43 57L43 55L44 55L44 58L45 58L45 55L46 55L46 56L47 56L47 57L46 57L46 58L47 58L47 57L48 57L48 56L47 56L47 54L49 54L49 56L50 56L50 57L49 57L49 58L50 58L50 57L51 57L51 54L50 54L50 53L51 53L51 52L53 52L53 53L54 53L54 54L53 54L53 55L52 55L52 56L53 56L53 55L54 55L54 54L55 54L55 53L54 53L54 51L55 51L55 50L53 50L53 49L54 49L54 48L52 48L52 47L51 47L51 48L52 48L52 49L51 49L51 50L52 50L52 51L51 51L51 52L49 52L49 53L47 53L47 52L48 52L48 51L45 51L45 49L46 49L46 48L45 48L45 49L44 49L44 47L43 47L43 46L45 46L45 44L46 44L46 42L45 42L45 44L44 44L44 42L42 42L42 43L43 43L43 44L42 44L42 45L40 45L40 44L41 44L41 43L40 43L40 42L39 42L39 41L38 41L38 42L39 42L39 43L38 43L38 44L39 44L39 45L38 45L38 46L35 46L35 47L34 47L34 45L35 45L35 44L36 44L36 43L37 43L37 40L36 40L36 37L37 37L37 36L40 36L40 39L41 39L41 37L42 37L42 36L43 36L43 38L42 38L42 40L44 40L44 39L45 39L45 40L46 40L46 41L50 41L50 42L51 42L51 41L50 41L50 40L48 40L48 38L50 38L50 39L51 39L51 38L50 38L50 37L51 37L51 34L50 34L50 35L48 35L48 36L47 36L47 37L46 37L46 38L45 38L45 37L44 37L44 36L45 36L45 35L44 35L44 36L43 36L43 34L46 34L46 35L47 35L47 34L48 34L48 33L47 33L47 32L49 32L49 31L48 31L48 29L47 29L47 32L46 32L46 33L45 33L45 32L44 32L44 31L43 31L43 30L41 30L41 31L43 31L43 34L41 34L41 33L42 33L42 32L41 32L41 33L40 33L40 32L39 32L39 31L40 31L40 29L41 29L41 28L43 28L43 29L44 29L44 28L45 28L45 25L46 25L46 24L52 24L52 26L53 26L53 29L52 29L52 31L53 31L53 32L56 32L56 31L57 31L57 33L56 33L56 34L55 34L55 33L52 33L52 32L51 32L51 31L50 31L50 32L51 32L51 33L52 33L52 35L54 35L54 36L53 36L53 37L52 37L52 38L53 38L53 40L52 40L52 41L54 41L54 39L55 39L55 40L57 40L57 45L60 45L60 46L61 46L61 48L60 48L60 49L61 49L61 50L59 50L59 49L58 49L58 48L59 48L59 47L57 47L57 46L55 46L55 49L56 49L56 50L57 50L57 51L56 51L56 52L57 52L57 53L58 53L58 51L59 51L59 52L60 52L60 51L61 51L61 53L59 53L59 54L62 54L62 53L63 53L63 52L64 52L64 51L63 51L63 50L64 50L64 49L66 49L66 50L68 50L68 49L67 49L67 48L68 48L68 46L67 46L67 48L64 48L64 49L63 49L63 48L62 48L62 47L63 47L63 46L61 46L61 45L62 45L62 44L61 44L61 45L60 45L60 43L62 43L62 41L63 41L63 40L65 40L65 41L68 41L68 42L67 42L67 43L65 43L65 44L68 44L68 45L69 45L69 44L70 44L70 45L71 45L71 46L73 46L73 45L72 45L72 44L73 44L73 43L72 43L72 42L70 42L70 41L69 41L69 40L71 40L71 41L72 41L72 40L71 40L71 39L72 39L72 38L73 38L73 37L74 37L74 36L73 36L73 35L74 35L74 34L73 34L73 35L72 35L72 36L73 36L73 37L70 37L70 36L71 36L71 35L70 35L70 34L69 34L69 35L68 35L68 36L64 36L64 37L65 37L65 38L64 38L64 39L61 39L61 38L62 38L62 37L63 37L63 36L62 36L62 35L63 35L63 34L62 34L62 32L63 32L63 29L64 29L64 30L65 30L65 31L64 31L64 33L65 33L65 31L66 31L66 29L67 29L67 30L68 30L68 31L69 31L69 32L70 32L70 31L71 31L71 30L70 30L70 29L68 29L68 27L67 27L67 28L66 28L66 24L70 24L70 23L71 23L71 22L72 22L72 23L73 23L73 24L74 24L74 25L75 25L75 24L74 24L74 23L75 23L75 22L74 22L74 21L73 21L73 20L72 20L72 19L73 19L73 18L72 18L72 19L71 19L71 18L70 18L70 17L73 17L73 16L72 16L72 13L71 13L71 14L70 14L70 16L68 16L68 15L69 15L69 13L70 13L70 12L69 12L69 11L70 11L70 10L71 10L71 9L70 9L70 10L68 10L68 9L67 9L67 8L66 8L66 5L64 5L64 4L63 4L63 5L62 5L62 4L61 4L61 3L60 3L60 4L59 4L59 3L58 3L58 4L59 4L59 5L57 5L57 4L56 4L56 5L55 5L55 4L54 4L54 5L55 5L55 7L56 7L56 6L57 6L57 10L58 10L58 11L57 11L57 13L56 13L56 12L55 12L55 11L56 11L56 10L55 10L55 9L54 9L54 6L53 6L53 4L52 4L52 3L51 3L51 1L50 1L50 4L51 4L51 8L52 8L52 6L53 6L53 9L52 9L52 11L53 11L53 10L55 10L55 11L54 11L54 12L53 12L53 13L52 13L52 14L54 14L54 12L55 12L55 14L56 14L56 15L55 15L55 17L56 17L56 18L57 18L57 17L58 17L58 16L56 16L56 15L57 15L57 13L58 13L58 15L59 15L59 16L62 16L62 15L60 15L60 14L61 14L61 13L62 13L62 14L63 14L63 13L64 13L64 12L65 12L65 14L64 14L64 15L63 15L63 17L64 17L64 18L65 18L65 20L66 20L66 21L64 21L64 23L63 23L63 22L62 22L62 20L61 20L61 19L62 19L62 18L61 18L61 17L59 17L59 18L58 18L58 19L57 19L57 23L56 23L56 22L55 22L55 23L54 23L54 24L52 24L52 23L53 23L53 22L54 22L54 21L56 21L56 19L55 19L55 20L54 20L54 18L53 18L53 20L54 20L54 21L53 21L53 22L52 22L52 23L51 23L51 21L52 21L52 19L51 19L51 17L54 17L54 15L51 15L51 17L50 17L50 19L51 19L51 21L50 21L50 20L49 20L49 19L48 19L48 18L49 18L49 17L47 17L47 19L48 19L48 20L46 20L46 19L45 19L45 20L44 20L44 22L43 22L43 19L41 19L41 20L40 20L40 21L41 21L41 20L42 20L42 22L40 22L40 24L39 24L39 25L38 25L38 27L37 27L37 26L36 26L36 25L37 25L37 24L38 24L38 23L39 23L39 22L38 22L38 21L39 21L39 20L38 20L38 21L35 21L35 19L36 19L36 20L37 20L37 19L38 19L38 18L40 18L40 17L41 17L41 16L43 16L43 17L42 17L42 18L43 18L43 17L44 17L44 18L46 18L46 16L47 16L47 15L48 15L48 16L50 16L50 15L49 15L49 14L48 14L48 13L47 13L47 12L49 12L49 13L51 13L51 10L48 10L48 11L47 11L47 12L46 12L46 11L44 11L44 13L43 13L43 11L41 11L41 12L40 12L40 13L39 13L39 14L38 14L38 12L39 12L39 11L40 11L40 10L39 10L39 11L38 11L38 10L37 10L37 9L39 9L39 8L40 8L40 5L42 5L42 4L44 4L44 6L43 6L43 7L44 7L44 8L42 8L42 6L41 6L41 10L42 10L42 9L43 9L43 10L45 10L45 9L46 9L46 4L49 4L49 3L45 3L45 4L44 4L44 2L43 2L43 3L42 3L42 4L38 4L38 5L39 5L39 8L37 8L37 9L36 9L36 6L37 6L37 7L38 7L38 6L37 6L37 4L36 4L36 3L39 3L39 2L38 2L38 1L37 1L37 2L33 2L33 1ZM12 2L12 3L13 3L13 4L12 4L12 6L13 6L13 7L14 7L14 6L13 6L13 5L14 5L14 3L13 3L13 2ZM30 2L30 3L31 3L31 4L30 4L30 7L31 7L31 6L32 6L32 8L34 8L34 7L35 7L35 6L36 6L36 5L34 5L34 7L33 7L33 4L35 4L35 3L33 3L33 4L32 4L32 2ZM53 2L53 3L54 3L54 2ZM55 2L55 3L56 3L56 2ZM22 3L22 4L21 4L21 5L23 5L23 3ZM25 5L25 8L28 8L28 5ZM47 5L47 8L50 8L50 5ZM59 5L59 6L58 6L58 7L59 7L59 8L58 8L58 10L59 10L59 11L58 11L58 13L59 13L59 14L60 14L60 13L61 13L61 12L60 12L60 13L59 13L59 11L61 11L61 10L63 10L63 12L64 12L64 11L65 11L65 12L66 12L66 10L67 10L67 9L65 9L65 8L64 8L64 9L61 9L61 8L63 8L63 6L62 6L62 7L61 7L61 6L60 6L60 5ZM26 6L26 7L27 7L27 6ZM44 6L44 7L45 7L45 6ZM48 6L48 7L49 7L49 6ZM59 6L59 7L60 7L60 8L59 8L59 10L61 10L61 9L60 9L60 8L61 8L61 7L60 7L60 6ZM64 6L64 7L65 7L65 6ZM12 8L12 11L13 11L13 10L14 10L14 9L13 9L13 8ZM44 8L44 9L45 9L45 8ZM6 9L6 10L7 10L7 11L6 11L6 12L7 12L7 13L4 13L4 14L7 14L7 13L8 13L8 11L10 11L10 10L11 10L11 9L9 9L9 10L7 10L7 9ZM17 9L17 10L16 10L16 11L17 11L17 10L18 10L18 12L19 12L19 15L20 15L20 17L19 17L19 19L20 19L20 20L19 20L19 21L21 21L21 22L22 22L22 21L23 21L23 23L24 23L24 26L23 26L23 27L24 27L24 28L22 28L22 26L21 26L21 25L23 25L23 24L21 24L21 23L20 23L20 22L19 22L19 25L20 25L20 26L21 26L21 31L23 31L23 30L25 30L25 32L26 32L26 33L27 33L27 34L26 34L26 35L27 35L27 36L24 36L24 35L25 35L25 34L24 34L24 35L23 35L23 36L22 36L22 34L23 34L23 33L24 33L24 32L20 32L20 31L18 31L18 30L17 30L17 29L16 29L16 30L17 30L17 31L18 31L18 32L17 32L17 34L15 34L15 35L18 35L18 39L20 39L20 41L19 41L19 40L18 40L18 42L20 42L20 43L17 43L17 42L16 42L16 41L17 41L17 36L15 36L15 37L14 37L14 38L15 38L15 37L16 37L16 40L15 40L15 41L14 41L14 40L13 40L13 39L11 39L11 40L12 40L12 41L13 41L13 42L11 42L11 43L13 43L13 44L14 44L14 45L12 45L12 46L13 46L13 47L15 47L15 48L14 48L14 49L16 49L16 50L18 50L18 52L16 52L16 53L18 53L18 54L19 54L19 53L21 53L21 52L22 52L22 54L21 54L21 55L19 55L19 56L18 56L18 57L17 57L17 58L15 58L15 59L18 59L18 58L19 58L19 57L20 57L20 56L21 56L21 55L22 55L22 56L23 56L23 55L22 55L22 54L24 54L24 55L25 55L25 57L24 57L24 60L25 60L25 61L23 61L23 60L22 60L22 58L23 58L23 57L22 57L22 58L20 58L20 59L19 59L19 60L20 60L20 59L21 59L21 62L20 62L20 63L23 63L23 62L26 62L26 59L27 59L27 58L29 58L29 59L32 59L32 60L31 60L31 61L32 61L32 60L33 60L33 61L34 61L34 63L35 63L35 62L36 62L36 63L41 63L41 62L42 62L42 64L43 64L43 65L44 65L44 64L43 64L43 62L44 62L44 61L43 61L43 60L42 60L42 59L41 59L41 58L39 58L39 57L40 57L40 56L39 56L39 55L42 55L42 54L41 54L41 53L43 53L43 52L44 52L44 55L45 55L45 54L47 54L47 53L46 53L46 52L45 52L45 51L43 51L43 52L41 52L41 50L42 50L42 49L43 49L43 50L44 50L44 49L43 49L43 47L42 47L42 46L43 46L43 45L42 45L42 46L40 46L40 48L42 48L42 49L40 49L40 52L41 52L41 53L39 53L39 49L38 49L38 48L39 48L39 46L38 46L38 47L36 47L36 48L37 48L37 50L36 50L36 49L35 49L35 53L34 53L34 52L33 52L33 53L31 53L31 54L30 54L30 52L32 52L32 51L30 51L30 50L31 50L31 47L30 47L30 46L32 46L32 47L33 47L33 48L32 48L32 49L34 49L34 47L33 47L33 46L32 46L32 45L33 45L33 44L34 44L34 43L36 43L36 40L35 40L35 42L34 42L34 40L33 40L33 38L32 38L32 37L33 37L33 36L34 36L34 35L33 35L33 34L35 34L35 32L36 32L36 30L37 30L37 31L38 31L38 30L39 30L39 28L37 28L37 29L36 29L36 28L34 28L34 29L35 29L35 30L32 30L32 28L33 28L33 27L32 27L32 26L31 26L31 27L30 27L30 25L32 25L32 23L34 23L34 21L32 21L32 20L31 20L31 18L32 18L32 19L33 19L33 20L34 20L34 18L32 18L32 17L33 17L33 16L34 16L34 17L37 17L37 18L38 18L38 16L39 16L39 15L38 15L38 14L37 14L37 12L38 12L38 11L37 11L37 12L36 12L36 14L37 14L37 15L35 15L35 16L34 16L34 14L35 14L35 12L34 12L34 10L35 10L35 11L36 11L36 10L35 10L35 9L34 9L34 10L33 10L33 9L32 9L32 10L31 10L31 12L33 12L33 13L34 13L34 14L33 14L33 15L31 15L31 16L30 16L30 15L27 15L27 16L25 16L25 15L24 15L24 14L22 14L22 13L21 13L21 12L20 12L20 11L19 11L19 10L18 10L18 9ZM64 9L64 10L65 10L65 9ZM4 10L4 11L5 11L5 10ZM32 10L32 11L33 11L33 10ZM41 12L41 14L40 14L40 15L41 15L41 14L42 14L42 15L43 15L43 16L44 16L44 17L45 17L45 15L46 15L46 13L45 13L45 15L43 15L43 14L42 14L42 12ZM68 12L68 13L69 13L69 12ZM20 13L20 15L22 15L22 16L23 16L23 17L21 17L21 18L20 18L20 19L21 19L21 20L25 20L25 21L24 21L24 22L26 22L26 23L25 23L25 24L27 24L27 20L26 20L26 19L25 19L25 18L27 18L27 19L28 19L28 18L29 18L29 19L30 19L30 18L31 18L31 17L32 17L32 16L31 16L31 17L30 17L30 16L29 16L29 17L25 17L25 18L24 18L24 16L23 16L23 15L22 15L22 14L21 14L21 13ZM66 13L66 15L67 15L67 13ZM75 14L75 15L76 15L76 14ZM3 15L3 16L4 16L4 15ZM6 15L6 16L7 16L7 15ZM14 15L14 17L13 17L13 19L15 19L15 21L16 21L16 17L15 17L15 15ZM64 15L64 16L65 16L65 17L66 17L66 18L68 18L68 17L66 17L66 16L65 16L65 15ZM8 17L8 18L9 18L9 17ZM14 17L14 18L15 18L15 17ZM29 17L29 18L30 18L30 17ZM6 18L6 19L7 19L7 18ZM23 18L23 19L24 19L24 18ZM59 18L59 19L60 19L60 18ZM63 19L63 20L64 20L64 19ZM66 19L66 20L68 20L68 19ZM69 19L69 20L70 20L70 21L69 21L69 22L70 22L70 21L71 21L71 20L70 20L70 19ZM76 19L76 21L77 21L77 19ZM9 20L9 21L8 21L8 22L9 22L9 23L10 23L10 20ZM48 20L48 21L49 21L49 20ZM58 20L58 22L59 22L59 23L58 23L58 24L59 24L59 25L58 25L58 29L60 29L60 28L59 28L59 25L61 25L61 26L60 26L60 27L62 27L62 25L63 25L63 26L64 26L64 27L63 27L63 28L64 28L64 27L65 27L65 24L66 24L66 23L65 23L65 24L64 24L64 25L63 25L63 23L62 23L62 24L61 24L61 23L60 23L60 21L61 21L61 20L60 20L60 21L59 21L59 20ZM29 21L29 23L28 23L28 24L29 24L29 25L30 25L30 24L31 24L31 22L30 22L30 21ZM45 21L45 22L44 22L44 23L42 23L42 24L43 24L43 25L42 25L42 26L40 26L40 25L41 25L41 24L40 24L40 25L39 25L39 27L40 27L40 28L41 28L41 27L43 27L43 26L44 26L44 25L45 25L45 24L44 24L44 23L46 23L46 21ZM66 21L66 22L67 22L67 23L68 23L68 22L67 22L67 21ZM72 21L72 22L73 22L73 23L74 23L74 22L73 22L73 21ZM2 22L2 23L1 23L1 24L3 24L3 22ZM35 22L35 24L33 24L33 25L34 25L34 27L35 27L35 25L36 25L36 24L37 24L37 23L36 23L36 22ZM48 22L48 23L49 23L49 22ZM6 23L6 24L7 24L7 23ZM29 23L29 24L30 24L30 23ZM55 23L55 25L56 25L56 26L54 26L54 28L55 28L55 30L54 30L54 31L56 31L56 30L57 30L57 24L56 24L56 23ZM20 24L20 25L21 25L21 24ZM5 25L5 28L8 28L8 25ZM25 25L25 28L28 28L28 25ZM47 25L47 28L50 28L50 25ZM69 25L69 28L72 28L72 25ZM6 26L6 27L7 27L7 26ZM26 26L26 27L27 27L27 26ZM48 26L48 27L49 27L49 26ZM70 26L70 27L71 27L71 26ZM76 26L76 27L77 27L77 26ZM11 27L11 28L12 28L12 27ZM29 27L29 28L30 28L30 27ZM31 27L31 28L32 28L32 27ZM55 27L55 28L56 28L56 27ZM73 27L73 29L72 29L72 30L73 30L73 29L74 29L74 27ZM61 28L61 29L62 29L62 28ZM65 28L65 29L66 29L66 28ZM26 30L26 32L27 32L27 33L29 33L29 35L31 35L31 36L33 36L33 35L32 35L32 32L33 32L33 33L34 33L34 32L35 32L35 31L32 31L32 32L31 32L31 31L30 31L30 30L29 30L29 31L28 31L28 32L27 32L27 30ZM58 30L58 31L60 31L60 32L62 32L62 30L61 30L61 31L60 31L60 30ZM15 31L15 32L13 32L13 34L14 34L14 33L15 33L15 32L16 32L16 31ZM29 31L29 32L30 32L30 31ZM38 32L38 34L37 34L37 33L36 33L36 36L37 36L37 35L38 35L38 34L39 34L39 35L40 35L40 34L39 34L39 32ZM58 32L58 34L59 34L59 35L58 35L58 36L59 36L59 37L58 37L58 38L57 38L57 39L58 39L58 40L59 40L59 39L58 39L58 38L61 38L61 37L60 37L60 36L61 36L61 35L60 35L60 34L61 34L61 33L60 33L60 34L59 34L59 32ZM66 32L66 33L67 33L67 34L66 34L66 35L67 35L67 34L68 34L68 33L67 33L67 32ZM6 33L6 34L7 34L7 33ZM19 33L19 38L20 38L20 39L22 39L22 40L24 40L24 37L22 37L22 36L21 36L21 34L22 34L22 33L21 33L21 34L20 34L20 33ZM54 34L54 35L55 35L55 36L56 36L56 35L55 35L55 34ZM69 35L69 36L70 36L70 35ZM20 36L20 37L21 37L21 36ZM27 36L27 37L28 37L28 38L26 38L26 39L27 39L27 40L26 40L26 41L27 41L27 42L25 42L25 43L24 43L24 41L22 41L22 42L21 42L21 43L20 43L20 44L18 44L18 46L17 46L17 47L16 47L16 49L17 49L17 47L18 47L18 46L19 46L19 45L22 45L22 46L21 46L21 47L20 47L20 48L23 48L23 47L22 47L22 46L27 46L27 45L26 45L26 44L28 44L28 43L27 43L27 42L32 42L32 41L33 41L33 40L32 40L32 39L31 39L31 37L30 37L30 36ZM49 36L49 37L50 37L50 36ZM76 36L76 37L77 37L77 36ZM12 37L12 38L13 38L13 37ZM29 37L29 38L28 38L28 39L29 39L29 40L27 40L27 41L29 41L29 40L30 40L30 41L31 41L31 40L30 40L30 37ZM38 37L38 38L39 38L39 37ZM67 37L67 38L69 38L69 37ZM34 38L34 39L35 39L35 38ZM46 38L46 39L47 39L47 38ZM55 38L55 39L56 39L56 38ZM60 39L60 40L61 40L61 41L60 41L60 42L58 42L58 43L60 43L60 42L61 42L61 41L62 41L62 40L61 40L61 39ZM66 39L66 40L69 40L69 39ZM73 39L73 40L74 40L74 39ZM40 40L40 41L41 41L41 40ZM4 41L4 42L5 42L5 41ZM14 42L14 44L15 44L15 45L14 45L14 46L16 46L16 45L17 45L17 44L16 44L16 43L15 43L15 42ZM33 42L33 43L31 43L31 44L29 44L29 46L30 46L30 45L32 45L32 44L33 44L33 43L34 43L34 42ZM48 42L48 43L47 43L47 44L48 44L48 45L47 45L47 46L51 46L51 44L52 44L52 46L53 46L53 47L54 47L54 45L53 45L53 44L54 44L54 42L52 42L52 43L51 43L51 44L50 44L50 43L49 43L49 42ZM55 42L55 44L56 44L56 42ZM69 42L69 43L68 43L68 44L69 44L69 43L70 43L70 42ZM7 43L7 44L6 44L6 45L9 45L9 46L10 46L10 44L9 44L9 43ZM21 43L21 44L22 44L22 45L24 45L24 44L22 44L22 43ZM25 43L25 44L26 44L26 43ZM48 43L48 44L49 44L49 45L50 45L50 44L49 44L49 43ZM52 43L52 44L53 44L53 43ZM64 45L64 47L66 47L66 45ZM5 47L5 50L8 50L8 47ZM25 47L25 50L28 50L28 47ZM29 47L29 48L30 48L30 47ZM47 47L47 50L50 50L50 47ZM56 47L56 49L57 49L57 50L58 50L58 49L57 49L57 47ZM69 47L69 50L72 50L72 47ZM3 48L3 49L4 49L4 48ZM6 48L6 49L7 49L7 48ZM18 48L18 50L21 50L21 51L22 51L22 52L23 52L23 53L24 53L24 52L25 52L25 54L26 54L26 55L27 55L27 56L28 56L28 57L29 57L29 58L30 58L30 57L31 57L31 55L32 55L32 56L33 56L33 55L32 55L32 54L31 54L31 55L30 55L30 54L28 54L28 53L29 53L29 51L28 51L28 53L27 53L27 54L26 54L26 52L27 52L27 51L26 51L26 52L25 52L25 51L24 51L24 52L23 52L23 49L22 49L22 50L21 50L21 49L19 49L19 48ZM26 48L26 49L27 49L27 48ZM48 48L48 49L49 49L49 48ZM61 48L61 49L62 49L62 50L61 50L61 51L62 51L62 50L63 50L63 49L62 49L62 48ZM70 48L70 49L71 49L71 48ZM73 48L73 52L74 52L74 48ZM37 50L37 54L35 54L35 55L36 55L36 56L35 56L35 59L34 59L34 60L35 60L35 61L36 61L36 60L35 60L35 59L36 59L36 56L37 56L37 57L39 57L39 56L37 56L37 54L38 54L38 55L39 55L39 53L38 53L38 50ZM3 51L3 53L4 53L4 51ZM19 51L19 52L20 52L20 51ZM71 51L71 52L72 52L72 51ZM5 53L5 54L7 54L7 53ZM3 54L3 55L4 55L4 54ZM28 55L28 56L29 56L29 57L30 57L30 55ZM54 56L54 57L55 57L55 56ZM63 56L63 58L61 58L61 59L63 59L63 61L64 61L64 62L63 62L63 63L62 63L62 64L59 64L59 62L60 62L60 61L61 61L61 62L62 62L62 61L61 61L61 60L60 60L60 58L59 58L59 57L58 57L58 58L57 58L57 59L56 59L56 60L55 60L55 61L54 61L54 62L53 62L53 63L54 63L54 62L55 62L55 63L56 63L56 64L57 64L57 65L58 65L58 64L59 64L59 65L62 65L62 66L61 66L61 68L62 68L62 67L64 67L64 68L65 68L65 67L64 67L64 65L63 65L63 64L64 64L64 63L65 63L65 62L67 62L67 61L65 61L65 60L66 60L66 59L65 59L65 58L67 58L67 57L68 57L68 56L67 56L67 57L65 57L65 58L64 58L64 56ZM8 57L8 58L9 58L9 57ZM11 57L11 58L12 58L12 59L13 59L13 57ZM25 57L25 59L26 59L26 57ZM32 57L32 59L33 59L33 58L34 58L34 57ZM52 58L52 59L53 59L53 58ZM58 58L58 59L57 59L57 61L55 61L55 62L59 62L59 61L58 61L58 60L59 60L59 58ZM37 59L37 60L38 60L38 61L37 61L37 62L40 62L40 61L41 61L41 59L40 59L40 61L39 61L39 59ZM47 59L47 60L50 60L50 59ZM68 59L68 60L69 60L69 59ZM1 60L1 62L2 62L2 63L1 63L1 64L2 64L2 65L1 65L1 66L2 66L2 65L3 65L3 64L4 64L4 62L3 62L3 61L2 61L2 60ZM76 60L76 61L77 61L77 60ZM18 61L18 62L17 62L17 63L14 63L14 64L15 64L15 65L16 65L16 66L17 66L17 67L16 67L16 68L14 68L14 69L16 69L16 68L17 68L17 67L18 67L18 66L19 66L19 65L18 65L18 64L19 64L19 61ZM51 61L51 63L52 63L52 61ZM2 63L2 64L3 64L3 63ZM17 63L17 64L18 64L18 63ZM57 63L57 64L58 64L58 63ZM6 64L6 65L7 65L7 64ZM48 64L48 65L49 65L49 64ZM52 64L52 65L53 65L53 64ZM67 64L67 65L68 65L68 66L69 66L69 67L70 67L70 66L71 66L71 65L68 65L68 64ZM17 65L17 66L18 66L18 65ZM22 65L22 66L23 66L23 65ZM10 67L10 70L11 70L11 71L12 71L12 72L11 72L11 74L10 74L10 75L11 75L11 74L12 74L12 75L13 75L13 74L14 74L14 73L13 73L13 74L12 74L12 72L13 72L13 70L12 70L12 67ZM54 67L54 68L55 68L55 67ZM71 67L71 68L72 68L72 67ZM6 68L6 69L7 69L7 68ZM75 68L75 69L76 69L76 68ZM17 69L17 70L18 70L18 69ZM25 69L25 72L28 72L28 69ZM36 69L36 70L37 70L37 69ZM47 69L47 72L50 72L50 69ZM69 69L69 72L72 72L72 69ZM20 70L20 71L21 71L21 70ZM26 70L26 71L27 71L27 70ZM41 70L41 72L40 72L40 73L41 73L41 72L42 72L42 70ZM48 70L48 71L49 71L49 70ZM54 70L54 71L55 71L55 72L53 72L53 71L52 71L52 74L53 74L53 73L55 73L55 74L56 74L56 70ZM67 70L67 71L66 71L66 72L67 72L67 71L68 71L68 70ZM70 70L70 71L71 71L71 70ZM9 72L9 73L10 73L10 72ZM34 72L34 73L35 73L35 74L33 74L33 77L34 77L34 75L37 75L37 74L36 74L36 73L35 73L35 72ZM45 72L45 73L46 73L46 74L48 74L48 73L46 73L46 72ZM20 73L20 75L21 75L21 73ZM50 73L50 76L51 76L51 73ZM31 75L31 76L29 76L29 77L31 77L31 76L32 76L32 75ZM45 75L45 76L46 76L46 75ZM60 75L60 76L62 76L62 75ZM17 76L17 77L18 77L18 76ZM35 76L35 77L37 77L37 76ZM72 76L72 77L73 77L73 76ZM0 0L0 7L7 7L7 0ZM1 1L1 6L6 6L6 1ZM2 2L2 5L5 5L5 2ZM70 0L70 7L77 7L77 0ZM71 1L71 6L76 6L76 1ZM72 2L72 5L75 5L75 2ZM0 70L0 77L7 77L7 70ZM1 71L1 76L6 76L6 71ZM2 72L2 75L5 75L5 72Z" fill="#000000"/></g></g></svg>
