<?xml version="1.0" encoding="UTF-8"?>
<svg xmlns="http://www.w3.org/2000/svg" version="1.1" width="400" height="400" viewBox="0 0 400 400"><rect x="0" y="0" width="400" height="400" fill="#fefefe"/><g transform="scale(4.706)"><g transform="translate(4,4)"><path fill-rule="evenodd" d="M14 0L14 2L13 2L13 1L11 1L11 5L10 5L10 7L9 7L9 6L8 6L8 9L7 9L7 8L3 8L3 9L2 9L2 8L1 8L1 10L0 10L0 11L1 11L1 10L2 10L2 11L4 11L4 12L2 12L2 14L4 14L4 15L2 15L2 16L1 16L1 13L0 13L0 16L1 16L1 17L0 17L0 24L1 24L1 26L0 26L0 27L1 27L1 28L3 28L3 29L1 29L1 32L0 32L0 34L1 34L1 32L3 32L3 33L4 33L4 32L5 32L5 31L4 31L4 32L3 32L3 30L4 30L4 29L5 29L5 30L6 30L6 31L7 31L7 32L6 32L6 33L5 33L5 34L3 34L3 35L2 35L2 37L3 37L3 38L4 38L4 41L8 41L8 39L7 39L7 38L9 38L9 37L13 37L13 38L12 38L12 39L11 39L11 38L10 38L10 39L11 39L11 40L12 40L12 42L13 42L13 43L12 43L12 45L11 45L11 43L10 43L10 42L9 42L9 43L8 43L8 42L5 42L5 43L4 43L4 42L3 42L3 43L2 43L2 42L1 42L1 43L0 43L0 44L1 44L1 45L2 45L2 46L1 46L1 47L0 47L0 49L2 49L2 50L3 50L3 51L0 51L0 54L1 54L1 56L0 56L0 57L1 57L1 58L0 58L0 62L1 62L1 60L2 60L2 59L3 59L3 60L4 60L4 61L3 61L3 63L2 63L2 66L1 66L1 64L0 64L0 66L1 66L1 67L2 67L2 66L3 66L3 65L4 65L4 64L5 64L5 63L8 63L8 62L9 62L9 65L8 65L8 66L9 66L9 65L11 65L11 66L10 66L10 67L9 67L9 69L8 69L8 70L11 70L11 71L10 71L10 72L9 72L9 71L8 71L8 74L9 74L9 75L8 75L8 76L9 76L9 77L13 77L13 75L12 75L12 76L11 76L11 75L10 75L10 74L9 74L9 73L10 73L10 72L11 72L11 71L12 71L12 69L11 69L11 66L12 66L12 65L11 65L11 64L13 64L13 67L12 67L12 68L14 68L14 69L13 69L13 70L14 70L14 71L13 71L13 72L12 72L12 73L11 73L11 74L12 74L12 73L13 73L13 74L14 74L14 73L13 73L13 72L14 72L14 71L16 71L16 72L15 72L15 73L16 73L16 74L15 74L15 75L14 75L14 76L16 76L16 74L17 74L17 75L18 75L18 76L19 76L19 77L21 77L21 74L20 74L20 73L21 73L21 72L22 72L22 73L24 73L24 74L23 74L23 75L25 75L25 77L26 77L26 76L27 76L27 77L30 77L30 76L31 76L31 77L34 77L34 76L33 76L33 75L35 75L35 77L37 77L37 76L36 76L36 75L38 75L38 73L39 73L39 75L42 75L42 74L43 74L43 73L44 73L44 74L45 74L45 75L44 75L44 76L42 76L42 77L45 77L45 76L46 76L46 77L49 77L49 76L50 76L50 77L51 77L51 76L50 76L50 75L52 75L52 71L53 71L53 73L54 73L54 72L55 72L55 70L57 70L57 69L58 69L58 73L57 73L57 71L56 71L56 73L55 73L55 75L54 75L54 77L55 77L55 75L58 75L58 74L60 74L60 76L58 76L58 77L63 77L63 76L64 76L64 77L65 77L65 72L66 72L66 69L67 69L67 70L68 70L68 71L67 71L67 72L68 72L68 73L72 73L72 75L71 75L71 74L70 74L70 75L68 75L68 74L67 74L67 73L66 73L66 74L67 74L67 75L68 75L68 76L66 76L66 77L69 77L69 76L72 76L72 77L73 77L73 76L72 76L72 75L73 75L73 74L74 74L74 75L75 75L75 76L76 76L76 75L77 75L77 74L76 74L76 73L77 73L77 72L76 72L76 71L77 71L77 65L76 65L76 64L73 64L73 61L74 61L74 63L77 63L77 62L75 62L75 61L74 61L74 60L73 60L73 59L74 59L74 58L75 58L75 56L74 56L74 55L75 55L75 54L73 54L73 53L74 53L74 52L75 52L75 53L76 53L76 52L77 52L77 51L76 51L76 50L77 50L77 48L76 48L76 47L75 47L75 48L73 48L73 47L74 47L74 46L75 46L75 45L76 45L76 46L77 46L77 43L75 43L75 45L73 45L73 46L71 46L71 44L73 44L73 42L71 42L71 40L73 40L73 41L75 41L75 42L77 42L77 41L75 41L75 39L74 39L74 38L76 38L76 39L77 39L77 38L76 38L76 37L77 37L77 35L76 35L76 37L75 37L75 36L73 36L73 35L74 35L74 34L77 34L77 31L76 31L76 30L75 30L75 33L74 33L74 31L73 31L73 30L74 30L74 29L77 29L77 28L75 28L75 25L77 25L77 24L76 24L76 23L77 23L77 20L76 20L76 21L75 21L75 20L74 20L74 19L73 19L73 17L72 17L72 16L74 16L74 17L75 17L75 19L77 19L77 17L75 17L75 16L77 16L77 11L76 11L76 8L75 8L75 9L74 9L74 8L72 8L72 11L70 11L70 10L69 10L69 9L71 9L71 8L69 8L69 9L68 9L68 10L67 10L67 9L66 9L66 8L64 8L64 7L65 7L65 6L66 6L66 7L67 7L67 8L68 8L68 7L69 7L69 6L68 6L68 7L67 7L67 5L69 5L69 1L68 1L68 4L66 4L66 2L67 2L67 1L66 1L66 0L65 0L65 1L64 1L64 0L62 0L62 1L61 1L61 0L60 0L60 3L61 3L61 5L60 5L60 4L59 4L59 0L58 0L58 1L57 1L57 0L56 0L56 1L55 1L55 3L53 3L53 2L52 2L52 3L53 3L53 4L55 4L55 5L52 5L52 7L51 7L51 4L49 4L49 3L51 3L51 1L54 1L54 0L51 0L51 1L50 1L50 0L49 0L49 3L48 3L48 4L47 4L47 2L46 2L46 3L45 3L45 5L46 5L46 9L47 9L47 10L48 10L48 11L49 11L49 10L48 10L48 9L51 9L51 11L53 11L53 12L51 12L51 13L50 13L50 12L49 12L49 13L50 13L50 16L49 16L49 18L48 18L48 19L49 19L49 21L48 21L48 22L47 22L47 24L45 24L45 25L43 25L43 24L44 24L44 23L45 23L45 22L44 22L44 20L45 20L45 19L44 19L44 20L43 20L43 19L42 19L42 17L41 17L41 16L40 16L40 17L34 17L34 16L35 16L35 15L36 15L36 12L35 12L35 13L34 13L34 11L33 11L33 10L36 10L36 11L37 11L37 12L39 12L39 15L38 15L38 13L37 13L37 15L38 15L38 16L39 16L39 15L40 15L40 13L41 13L41 12L42 12L42 14L41 14L41 15L44 15L44 16L43 16L43 17L44 17L44 18L45 18L45 17L48 17L48 15L49 15L49 14L47 14L47 16L45 16L45 15L46 15L46 13L45 13L45 11L46 11L46 12L47 12L47 13L48 13L48 12L47 12L47 11L46 11L46 10L43 10L43 9L42 9L42 8L44 8L44 9L45 9L45 8L44 8L44 7L45 7L45 6L44 6L44 7L43 7L43 6L42 6L42 4L43 4L43 5L44 5L44 3L43 3L43 2L42 2L42 4L40 4L40 7L39 7L39 6L38 6L38 8L39 8L39 9L42 9L42 10L41 10L41 12L39 12L39 11L40 11L40 10L37 10L37 8L34 8L34 7L35 7L35 5L37 5L37 3L38 3L38 4L39 4L39 2L40 2L40 3L41 3L41 1L43 1L43 0L41 0L41 1L39 1L39 2L38 2L38 1L37 1L37 2L36 2L36 0L33 0L33 1L35 1L35 2L34 2L34 5L33 5L33 4L32 4L32 3L33 3L33 2L32 2L32 0L31 0L31 1L29 1L29 0L27 0L27 2L28 2L28 4L23 4L23 3L26 3L26 2L24 2L24 1L26 1L26 0L24 0L24 1L23 1L23 3L22 3L22 2L21 2L21 0L17 0L17 4L18 4L18 5L16 5L16 7L17 7L17 9L20 9L20 7L21 7L21 11L20 11L20 13L18 13L18 12L19 12L19 11L18 11L18 10L15 10L15 9L16 9L16 8L14 8L14 7L15 7L15 4L16 4L16 2L15 2L15 1L16 1L16 0ZM45 0L45 1L44 1L44 2L45 2L45 1L48 1L48 0ZM8 1L8 2L10 2L10 1ZM56 1L56 2L57 2L57 1ZM62 1L62 2L64 2L64 4L63 4L63 3L62 3L62 4L63 4L63 7L64 7L64 5L66 5L66 4L65 4L65 2L64 2L64 1ZM14 2L14 3L12 3L12 5L11 5L11 9L12 9L12 8L13 8L13 7L14 7L14 5L13 5L13 4L15 4L15 2ZM29 2L29 9L28 9L28 10L27 10L27 11L26 11L26 10L25 10L25 14L24 14L24 15L22 15L22 14L23 14L23 13L22 13L22 14L21 14L21 13L20 13L20 14L18 14L18 17L19 17L19 18L17 18L17 17L16 17L16 15L17 15L17 14L16 14L16 15L15 15L15 17L14 17L14 18L13 18L13 17L12 17L12 16L14 16L14 14L15 14L15 13L14 13L14 12L11 12L11 10L10 10L10 11L9 11L9 10L7 10L7 9L6 9L6 10L7 10L7 11L5 11L5 12L4 12L4 14L5 14L5 15L6 15L6 16L4 16L4 17L3 17L3 16L2 16L2 18L3 18L3 19L4 19L4 20L5 20L5 22L7 22L7 23L6 23L6 24L9 24L9 23L8 23L8 22L7 22L7 21L8 21L8 20L9 20L9 19L10 19L10 21L9 21L9 22L10 22L10 23L11 23L11 22L12 22L12 21L13 21L13 20L12 20L12 19L14 19L14 20L16 20L16 21L15 21L15 22L13 22L13 23L12 23L12 24L14 24L14 25L12 25L12 26L9 26L9 28L10 28L10 29L12 29L12 30L13 30L13 31L11 31L11 30L10 30L10 31L8 31L8 34L7 34L7 33L6 33L6 34L7 34L7 35L6 35L6 36L7 36L7 37L4 37L4 38L5 38L5 40L7 40L7 39L6 39L6 38L7 38L7 37L8 37L8 36L9 36L9 35L10 35L10 36L13 36L13 35L14 35L14 37L15 37L15 38L13 38L13 39L12 39L12 40L13 40L13 39L15 39L15 40L14 40L14 41L13 41L13 42L14 42L14 43L15 43L15 44L13 44L13 46L10 46L10 48L9 48L9 52L8 52L8 53L13 53L13 54L12 54L12 55L8 55L8 56L7 56L7 55L6 55L6 54L7 54L7 53L6 53L6 52L7 52L7 51L5 51L5 53L3 53L3 54L4 54L4 55L2 55L2 58L3 58L3 56L4 56L4 55L6 55L6 56L5 56L5 57L6 57L6 58L8 58L8 60L7 60L7 59L6 59L6 60L5 60L5 58L4 58L4 60L5 60L5 61L4 61L4 62L5 62L5 61L6 61L6 62L8 62L8 60L10 60L10 61L9 61L9 62L10 62L10 64L11 64L11 63L12 63L12 62L11 62L11 61L12 61L12 59L11 59L11 58L10 58L10 57L11 57L11 56L12 56L12 58L14 58L14 59L15 59L15 60L17 60L17 59L16 59L16 58L20 58L20 59L21 59L21 60L20 60L20 61L17 61L17 62L18 62L18 63L17 63L17 64L16 64L16 63L15 63L15 61L13 61L13 62L14 62L14 63L13 63L13 64L14 64L14 63L15 63L15 65L14 65L14 66L17 66L17 65L20 65L20 66L21 66L21 67L20 67L20 68L19 68L19 67L15 67L15 69L16 69L16 70L17 70L17 71L20 71L20 72L21 72L21 71L20 71L20 70L22 70L22 72L23 72L23 71L24 71L24 70L23 70L23 69L24 69L24 68L23 68L23 66L25 66L25 67L26 67L26 66L27 66L27 68L29 68L29 69L31 69L31 70L30 70L30 71L29 71L29 73L28 73L28 75L27 75L27 73L25 73L25 74L26 74L26 75L27 75L27 76L30 76L30 75L29 75L29 74L30 74L30 73L31 73L31 71L32 71L32 72L33 72L33 74L32 74L32 75L33 75L33 74L34 74L34 73L35 73L35 74L36 74L36 70L34 70L34 69L37 69L37 67L38 67L38 68L39 68L39 69L38 69L38 70L37 70L37 72L38 72L38 71L39 71L39 73L40 73L40 74L41 74L41 73L43 73L43 72L46 72L46 71L44 71L44 70L46 70L46 68L44 68L44 69L43 69L43 70L42 70L42 68L41 68L41 65L40 65L40 67L38 67L38 66L39 66L39 65L36 65L36 66L37 66L37 67L35 67L35 66L34 66L34 63L35 63L35 61L34 61L34 60L36 60L36 58L37 58L37 60L40 60L40 62L39 62L39 61L38 61L38 62L39 62L39 64L40 64L40 62L41 62L41 61L42 61L42 65L44 65L44 66L45 66L45 67L46 67L46 66L47 66L47 64L49 64L49 65L48 65L48 67L47 67L47 68L50 68L50 67L51 67L51 66L54 66L54 67L53 67L53 68L54 68L54 69L52 69L52 68L51 68L51 69L52 69L52 70L53 70L53 71L54 71L54 70L55 70L55 69L56 69L56 68L58 68L58 69L60 69L60 72L59 72L59 73L61 73L61 72L62 72L62 71L63 71L63 73L62 73L62 75L61 75L61 76L63 76L63 75L64 75L64 74L63 74L63 73L64 73L64 72L65 72L65 69L62 69L62 68L59 68L59 66L58 66L58 67L57 67L57 66L56 66L56 65L54 65L54 64L55 64L55 62L56 62L56 64L57 64L57 65L58 65L58 64L57 64L57 62L59 62L59 64L60 64L60 67L61 67L61 64L63 64L63 65L62 65L62 67L63 67L63 68L64 68L64 67L65 67L65 68L72 68L72 67L73 67L73 66L74 66L74 67L75 67L75 68L74 68L74 69L73 69L73 70L74 70L74 71L76 71L76 70L74 70L74 69L75 69L75 68L76 68L76 67L75 67L75 66L76 66L76 65L73 65L73 66L71 66L71 64L72 64L72 63L70 63L70 61L71 61L71 62L72 62L72 61L71 61L71 60L70 60L70 59L73 59L73 57L72 57L72 58L69 58L69 57L71 57L71 56L69 56L69 55L67 55L67 53L68 53L68 54L69 54L69 53L70 53L70 54L71 54L71 55L73 55L73 54L71 54L71 52L70 52L70 51L69 51L69 52L67 52L67 51L68 51L68 49L67 49L67 47L68 47L68 46L67 46L67 47L66 47L66 48L65 48L65 49L64 49L64 51L62 51L62 49L63 49L63 48L64 48L64 47L65 47L65 46L66 46L66 45L67 45L67 44L68 44L68 45L70 45L70 44L71 44L71 42L70 42L70 44L69 44L69 38L68 38L68 37L70 37L70 40L71 40L71 38L73 38L73 37L72 37L72 34L74 34L74 33L72 33L72 30L70 30L70 32L69 32L69 35L68 35L68 36L66 36L66 37L65 37L65 35L63 35L63 32L65 32L65 34L66 34L66 32L68 32L68 30L69 30L69 29L68 29L68 25L67 25L67 24L68 24L68 23L69 23L69 22L72 22L72 23L71 23L71 24L73 24L73 26L74 26L74 24L73 24L73 22L74 22L74 23L76 23L76 22L74 22L74 21L73 21L73 19L72 19L72 18L71 18L71 16L72 16L72 14L71 14L71 13L70 13L70 11L69 11L69 10L68 10L68 11L67 11L67 10L66 10L66 9L65 9L65 10L66 10L66 12L65 12L65 11L61 11L61 10L64 10L64 8L61 8L61 7L62 7L62 5L61 5L61 7L60 7L60 6L59 6L59 5L58 5L58 4L57 4L57 3L56 3L56 4L57 4L57 5L55 5L55 7L54 7L54 6L53 6L53 7L52 7L52 8L51 8L51 9L53 9L53 7L54 7L54 9L55 9L55 10L54 10L54 11L55 11L55 12L54 12L54 13L53 13L53 14L52 14L52 15L51 15L51 16L50 16L50 20L52 20L52 22L54 22L54 21L56 21L56 20L58 20L58 21L59 21L59 22L60 22L60 24L59 24L59 25L61 25L61 26L58 26L58 27L57 27L57 25L58 25L58 22L55 22L55 23L54 23L54 25L55 25L55 24L56 24L56 23L57 23L57 25L56 25L56 27L55 27L55 26L54 26L54 27L53 27L53 23L51 23L51 22L50 22L50 21L49 21L49 22L48 22L48 23L49 23L49 24L52 24L52 27L51 27L51 29L50 29L50 30L49 30L49 31L48 31L48 30L47 30L47 32L49 32L49 31L50 31L50 32L55 32L55 33L53 33L53 34L52 34L52 35L51 35L51 34L48 34L48 33L47 33L47 35L46 35L46 34L45 34L45 33L46 33L46 32L45 32L45 33L44 33L44 29L43 29L43 27L45 27L45 28L46 28L46 27L45 27L45 26L43 26L43 25L42 25L42 23L44 23L44 22L41 22L41 21L39 21L39 20L40 20L40 19L41 19L41 20L42 20L42 21L43 21L43 20L42 20L42 19L41 19L41 18L39 18L39 19L36 19L36 18L35 18L35 19L36 19L36 20L34 20L34 22L35 22L35 25L34 25L34 23L32 23L32 22L33 22L33 18L34 18L34 17L33 17L33 18L31 18L31 17L32 17L32 16L33 16L33 15L35 15L35 14L33 14L33 12L30 12L30 14L31 14L31 15L29 15L29 12L27 12L27 11L28 11L28 10L30 10L30 11L32 11L32 10L33 10L33 9L34 9L34 8L33 8L33 9L31 9L31 8L32 8L32 6L33 6L33 7L34 7L34 6L33 6L33 5L32 5L32 4L31 4L31 5L30 5L30 2ZM35 2L35 4L36 4L36 2ZM8 3L8 5L9 5L9 3ZM20 3L20 4L19 4L19 5L20 5L20 6L19 6L19 7L20 7L20 6L21 6L21 7L22 7L22 8L23 8L23 9L22 9L22 11L21 11L21 12L22 12L22 11L23 11L23 12L24 12L24 11L23 11L23 10L24 10L24 8L23 8L23 7L24 7L24 5L23 5L23 4L21 4L21 3ZM22 5L22 7L23 7L23 5ZM25 5L25 8L28 8L28 5ZM31 5L31 6L30 6L30 7L31 7L31 6L32 6L32 5ZM47 5L47 8L50 8L50 5ZM12 6L12 7L13 7L13 6ZM17 6L17 7L18 7L18 6ZM26 6L26 7L27 7L27 6ZM36 6L36 7L37 7L37 6ZM41 6L41 7L40 7L40 8L42 8L42 6ZM48 6L48 7L49 7L49 6ZM56 6L56 8L57 8L57 6ZM58 6L58 9L61 9L61 8L60 8L60 7L59 7L59 6ZM9 8L9 9L10 9L10 8ZM56 9L56 10L57 10L57 9ZM12 10L12 11L13 11L13 10ZM14 10L14 11L15 11L15 12L16 12L16 13L17 13L17 12L18 12L18 11L17 11L17 12L16 12L16 11L15 11L15 10ZM42 10L42 11L43 11L43 12L44 12L44 11L43 11L43 10ZM59 10L59 11L58 11L58 12L60 12L60 10ZM73 10L73 11L72 11L72 13L73 13L73 15L75 15L75 14L74 14L74 12L75 12L75 13L76 13L76 12L75 12L75 10ZM56 11L56 13L57 13L57 11ZM73 11L73 12L74 12L74 11ZM5 12L5 13L7 13L7 12ZM9 12L9 13L8 13L8 14L6 14L6 15L7 15L7 16L6 16L6 17L7 17L7 18L4 18L4 19L5 19L5 20L6 20L6 21L7 21L7 20L8 20L8 19L7 19L7 18L8 18L8 17L9 17L9 18L10 18L10 19L12 19L12 18L10 18L10 17L11 17L11 16L12 16L12 14L13 14L13 13L12 13L12 14L11 14L11 15L10 15L10 14L9 14L9 13L11 13L11 12ZM26 12L26 13L27 13L27 12ZM62 12L62 13L63 13L63 14L61 14L61 13L59 13L59 14L61 14L61 15L60 15L60 16L59 16L59 18L57 18L57 17L58 17L58 16L56 16L56 15L58 15L58 14L53 14L53 15L52 15L52 16L51 16L51 17L52 17L52 16L53 16L53 15L54 15L54 17L55 17L55 16L56 16L56 18L55 18L55 20L56 20L56 18L57 18L57 19L58 19L58 20L59 20L59 21L60 21L60 22L61 22L61 24L62 24L62 23L64 23L64 24L63 24L63 25L62 25L62 26L61 26L61 27L60 27L60 29L59 29L59 28L57 28L57 27L56 27L56 28L57 28L57 29L55 29L55 27L54 27L54 29L55 29L55 32L56 32L56 33L55 33L55 34L53 34L53 36L54 36L54 35L55 35L55 36L56 36L56 37L54 37L54 38L55 38L55 39L56 39L56 40L57 40L57 43L56 43L56 42L55 42L55 40L53 40L53 37L52 37L52 36L51 36L51 35L49 35L49 36L48 36L48 35L47 35L47 36L48 36L48 37L49 37L49 38L48 38L48 39L47 39L47 38L46 38L46 41L47 41L47 42L46 42L46 45L45 45L45 46L42 46L42 47L39 47L39 48L38 48L38 47L37 47L37 45L38 45L38 46L39 46L39 45L38 45L38 44L39 44L39 40L40 40L40 39L43 39L43 38L42 38L42 37L43 37L43 36L44 36L44 37L45 37L45 36L44 36L44 35L45 35L45 34L44 34L44 33L43 33L43 32L42 32L42 31L43 31L43 29L42 29L42 27L43 27L43 26L42 26L42 27L41 27L41 33L40 33L40 32L38 32L38 31L37 31L37 33L36 33L36 34L35 34L35 33L34 33L34 32L36 32L36 28L38 28L38 29L37 29L37 30L38 30L38 29L39 29L39 28L40 28L40 27L38 27L38 25L39 25L39 24L41 24L41 22L40 22L40 23L39 23L39 24L38 24L38 25L37 25L37 24L36 24L36 25L35 25L35 27L34 27L34 25L32 25L32 24L29 24L29 23L28 23L28 20L29 20L29 19L28 19L28 18L26 18L26 17L27 17L27 16L28 16L28 15L27 15L27 14L25 14L25 17L24 17L24 18L23 18L23 20L22 20L22 19L20 19L20 18L21 18L21 17L20 17L20 16L22 16L22 15L21 15L21 14L20 14L20 16L19 16L19 17L20 17L20 18L19 18L19 19L17 19L17 21L16 21L16 22L15 22L15 23L14 23L14 24L15 24L15 25L14 25L14 26L13 26L13 27L12 27L12 29L13 29L13 30L16 30L16 31L13 31L13 32L11 32L11 33L10 33L10 32L9 32L9 34L11 34L11 35L12 35L12 34L11 34L11 33L14 33L14 35L15 35L15 36L16 36L16 39L17 39L17 41L16 41L16 40L15 40L15 43L16 43L16 44L15 44L15 45L16 45L16 46L15 46L15 47L14 47L14 48L13 48L13 49L12 49L12 48L10 48L10 49L11 49L11 50L10 50L10 51L11 51L11 52L12 52L12 51L11 51L11 50L13 50L13 51L14 51L14 52L13 52L13 53L14 53L14 52L16 52L16 53L15 53L15 54L16 54L16 55L14 55L14 54L13 54L13 55L12 55L12 56L13 56L13 55L14 55L14 58L16 58L16 57L15 57L15 56L16 56L16 55L17 55L17 56L18 56L18 57L20 57L20 56L21 56L21 59L22 59L22 58L23 58L23 57L24 57L24 59L23 59L23 60L21 60L21 61L20 61L20 63L18 63L18 64L20 64L20 65L21 65L21 64L22 64L22 62L23 62L23 63L25 63L25 62L26 62L26 63L27 63L27 64L25 64L25 66L26 66L26 65L27 65L27 66L28 66L28 67L29 67L29 66L30 66L30 67L31 67L31 66L30 66L30 65L31 65L31 61L32 61L32 64L33 64L33 62L34 62L34 61L33 61L33 59L34 59L34 58L33 58L33 56L34 56L34 57L35 57L35 58L36 58L36 56L37 56L37 58L38 58L38 59L40 59L40 60L42 60L42 58L44 58L44 60L43 60L43 64L44 64L44 65L45 65L45 66L46 66L46 64L47 64L47 63L46 63L46 61L47 61L47 62L49 62L49 61L50 61L50 63L49 63L49 64L51 64L51 65L52 65L52 64L51 64L51 63L53 63L53 62L55 62L55 61L54 61L54 59L55 59L55 58L57 58L57 59L58 59L58 61L59 61L59 62L60 62L60 64L61 64L61 63L64 63L64 62L66 62L66 65L65 65L65 64L64 64L64 65L63 65L63 67L64 67L64 66L65 66L65 67L66 67L66 65L67 65L67 64L68 64L68 67L69 67L69 65L70 65L70 63L69 63L69 64L68 64L68 63L67 63L67 61L70 61L70 60L68 60L68 58L66 58L66 57L69 57L69 56L65 56L65 58L64 58L64 54L65 54L65 55L66 55L66 54L65 54L65 52L64 52L64 53L63 53L63 55L61 55L61 53L62 53L62 52L61 52L61 49L62 49L62 48L63 48L63 47L64 47L64 45L65 45L65 44L63 44L63 43L64 43L64 42L65 42L65 43L66 43L66 42L65 42L65 41L63 41L63 39L65 39L65 38L64 38L64 37L63 37L63 39L62 39L62 41L61 41L61 38L62 38L62 37L61 37L61 36L60 36L60 37L59 37L59 36L58 36L58 37L57 37L57 35L58 35L58 32L56 32L56 30L57 30L57 31L58 31L58 30L59 30L59 31L61 31L61 32L59 32L59 34L60 34L60 35L61 35L61 34L62 34L62 33L61 33L61 32L63 32L63 31L65 31L65 30L66 30L66 31L67 31L67 30L68 30L68 29L67 29L67 30L66 30L66 29L64 29L64 28L65 28L65 27L66 27L66 28L67 28L67 27L66 27L66 26L67 26L67 25L65 25L65 26L63 26L63 25L64 25L64 24L66 24L66 21L69 21L69 20L70 20L70 21L72 21L72 22L73 22L73 21L72 21L72 19L71 19L71 20L70 20L70 19L69 19L69 18L70 18L70 15L71 15L71 14L70 14L70 13L69 13L69 12L66 12L66 17L65 17L65 16L64 16L64 17L63 17L63 16L61 16L61 15L64 15L64 14L65 14L65 12ZM31 13L31 14L32 14L32 15L33 15L33 14L32 14L32 13ZM43 13L43 14L44 14L44 15L45 15L45 13ZM8 14L8 16L10 16L10 15L9 15L9 14ZM67 14L67 17L69 17L69 14ZM26 15L26 16L27 16L27 15ZM44 16L44 17L45 17L45 16ZM60 17L60 18L62 18L62 19L63 19L63 18L62 18L62 17ZM14 18L14 19L15 19L15 18ZM46 18L46 20L47 20L47 18ZM51 18L51 19L52 19L52 20L53 20L53 21L54 21L54 20L53 20L53 19L54 19L54 18ZM67 18L67 19L68 19L68 20L69 20L69 19L68 19L68 18ZM6 19L6 20L7 20L7 19ZM26 19L26 21L27 21L27 19ZM65 19L65 20L66 20L66 19ZM11 20L11 21L10 21L10 22L11 22L11 21L12 21L12 20ZM18 20L18 21L19 21L19 20ZM20 20L20 21L21 21L21 20ZM23 20L23 21L22 21L22 22L23 22L23 23L22 23L22 26L23 26L23 28L22 28L22 27L20 27L20 28L18 28L18 27L19 27L19 26L20 26L20 24L19 24L19 23L18 23L18 22L17 22L17 24L16 24L16 25L15 25L15 27L14 27L14 28L15 28L15 27L16 27L16 25L17 25L17 28L16 28L16 29L18 29L18 30L17 30L17 32L14 32L14 33L16 33L16 34L15 34L15 35L16 35L16 36L17 36L17 39L18 39L18 38L19 38L19 40L20 40L20 41L21 41L21 42L23 42L23 41L24 41L24 40L21 40L21 39L20 39L20 38L19 38L19 37L18 37L18 36L20 36L20 37L21 37L21 38L22 38L22 39L26 39L26 38L25 38L25 37L26 37L26 36L28 36L28 37L27 37L27 41L26 41L26 40L25 40L25 43L24 43L24 45L23 45L23 43L21 43L21 44L20 44L20 43L19 43L19 42L16 42L16 43L17 43L17 44L18 44L18 45L17 45L17 48L16 48L16 47L15 47L15 48L14 48L14 51L15 51L15 50L18 50L18 51L19 51L19 52L21 52L21 51L22 51L22 52L23 52L23 53L22 53L22 54L21 54L21 53L19 53L19 55L20 55L20 54L21 54L21 55L22 55L22 57L23 57L23 56L24 56L24 57L25 57L25 60L24 60L24 62L25 62L25 60L31 60L31 58L32 58L32 59L33 59L33 58L32 58L32 57L31 57L31 56L32 56L32 54L33 54L33 53L34 53L34 56L35 56L35 55L37 55L37 56L38 56L38 58L40 58L40 57L41 57L41 58L42 58L42 57L41 57L41 56L40 56L40 55L39 55L39 54L40 54L40 53L42 53L42 51L43 51L43 53L45 53L45 54L47 54L47 52L48 52L48 51L45 51L45 50L43 50L43 47L42 47L42 48L41 48L41 49L40 49L40 48L39 48L39 49L36 49L36 48L34 48L34 47L36 47L36 46L34 46L34 45L35 45L35 44L36 44L36 43L37 43L37 42L38 42L38 39L39 39L39 38L38 38L38 36L39 36L39 37L40 37L40 38L41 38L41 36L39 36L39 35L38 35L38 34L40 34L40 35L42 35L42 34L43 34L43 35L44 35L44 34L43 34L43 33L41 33L41 34L40 34L40 33L38 33L38 34L37 34L37 35L34 35L34 34L33 34L33 31L35 31L35 30L34 30L34 29L35 29L35 28L36 28L36 27L35 27L35 28L34 28L34 27L33 27L33 26L32 26L32 27L30 27L30 25L29 25L29 29L28 29L28 30L27 30L27 29L26 29L26 31L24 31L24 32L23 32L23 33L25 33L25 34L24 34L24 36L23 36L23 35L22 35L22 37L21 37L21 34L20 34L20 35L18 35L18 34L19 34L19 33L18 33L18 34L17 34L17 32L18 32L18 31L19 31L19 29L20 29L20 31L21 31L21 32L20 32L20 33L22 33L22 31L23 31L23 29L24 29L24 25L23 25L23 24L28 24L28 23L25 23L25 22L23 22L23 21L25 21L25 20ZM31 20L31 22L32 22L32 20ZM36 20L36 21L37 21L37 22L36 22L36 23L38 23L38 22L39 22L39 21L37 21L37 20ZM63 20L63 22L65 22L65 21L64 21L64 20ZM2 21L2 22L1 22L1 24L2 24L2 25L3 25L3 26L1 26L1 27L3 27L3 28L4 28L4 27L3 27L3 26L4 26L4 24L3 24L3 23L4 23L4 22L3 22L3 21ZM2 22L2 23L3 23L3 22ZM5 25L5 28L8 28L8 25ZM18 25L18 26L19 26L19 25ZM25 25L25 28L28 28L28 25ZM47 25L47 28L50 28L50 25ZM69 25L69 28L72 28L72 25ZM6 26L6 27L7 27L7 26ZM26 26L26 27L27 27L27 26ZM48 26L48 27L49 27L49 26ZM70 26L70 27L71 27L71 26ZM76 26L76 27L77 27L77 26ZM10 27L10 28L11 28L11 27ZM32 27L32 29L34 29L34 28L33 28L33 27ZM61 27L61 29L60 29L60 30L62 30L62 31L63 31L63 30L62 30L62 29L63 29L63 28L64 28L64 27L63 27L63 28L62 28L62 27ZM21 28L21 30L22 30L22 28ZM52 28L52 29L51 29L51 31L54 31L54 30L53 30L53 28ZM73 28L73 29L74 29L74 28ZM6 29L6 30L9 30L9 29ZM30 29L30 31L29 31L29 32L28 32L28 31L26 31L26 32L28 32L28 34L27 34L27 35L29 35L29 34L30 34L30 33L29 33L29 32L30 32L30 31L31 31L31 29ZM45 29L45 30L46 30L46 29ZM57 29L57 30L58 30L58 29ZM31 32L31 33L32 33L32 32ZM70 32L70 35L69 35L69 36L70 36L70 37L71 37L71 36L70 36L70 35L71 35L71 34L72 34L72 33L71 33L71 32ZM60 33L60 34L61 34L61 33ZM31 34L31 36L30 36L30 37L29 37L29 38L28 38L28 39L30 39L30 38L31 38L31 40L30 40L30 41L29 41L29 40L28 40L28 41L27 41L27 43L25 43L25 45L24 45L24 48L23 48L23 47L21 47L21 48L23 48L23 49L24 49L24 50L23 50L23 51L24 51L24 53L23 53L23 54L22 54L22 55L24 55L24 56L25 56L25 57L26 57L26 55L29 55L29 57L28 57L28 56L27 56L27 57L28 57L28 58L29 58L29 59L30 59L30 58L31 58L31 57L30 57L30 56L31 56L31 54L32 54L32 53L30 53L30 52L32 52L32 51L30 51L30 50L32 50L32 48L33 48L33 52L34 52L34 48L33 48L33 47L34 47L34 46L32 46L32 45L34 45L34 42L35 42L35 43L36 43L36 41L35 41L35 40L37 40L37 39L38 39L38 38L37 38L37 36L38 36L38 35L37 35L37 36L36 36L36 39L35 39L35 40L33 40L33 44L31 44L31 46L29 46L29 45L27 45L27 44L28 44L28 42L30 42L30 43L32 43L32 39L34 39L34 38L32 38L32 37L33 37L33 36L34 36L34 37L35 37L35 36L34 36L34 35L32 35L32 34ZM55 34L55 35L57 35L57 34ZM62 35L62 36L63 36L63 35ZM0 36L0 39L1 39L1 40L0 40L0 41L1 41L1 40L2 40L2 38L1 38L1 36ZM24 36L24 37L22 37L22 38L24 38L24 37L25 37L25 36ZM50 36L50 37L51 37L51 36ZM56 37L56 38L57 38L57 37ZM60 37L60 38L58 38L58 39L57 39L57 40L60 40L60 38L61 38L61 37ZM66 37L66 38L67 38L67 37ZM49 38L49 39L51 39L51 38ZM44 39L44 40L42 40L42 42L43 42L43 43L42 43L42 44L41 44L41 41L40 41L40 44L41 44L41 45L43 45L43 43L44 43L44 44L45 44L45 39ZM66 39L66 41L68 41L68 39ZM73 39L73 40L74 40L74 39ZM47 40L47 41L48 41L48 43L47 43L47 46L49 46L49 44L48 44L48 43L49 43L49 42L50 42L50 46L52 46L52 47L51 47L51 49L52 49L52 48L53 48L53 52L52 52L52 50L51 50L51 52L50 52L50 51L49 51L49 52L50 52L50 53L48 53L48 55L44 55L44 56L46 56L46 57L44 57L44 58L47 58L47 57L49 57L49 58L48 58L48 60L47 60L47 61L49 61L49 60L50 60L50 59L49 59L49 58L51 58L51 56L52 56L52 57L53 57L53 58L52 58L52 59L53 59L53 58L55 58L55 57L54 57L54 55L55 55L55 54L54 54L54 48L53 48L53 47L54 47L54 46L53 46L53 45L54 45L54 41L53 41L53 40L51 40L51 42L50 42L50 40ZM30 41L30 42L31 42L31 41ZM52 41L52 42L51 42L51 43L52 43L52 42L53 42L53 41ZM59 41L59 42L60 42L60 43L59 43L59 44L58 44L58 43L57 43L57 46L58 46L58 47L56 47L56 46L55 46L55 47L56 47L56 49L55 49L55 50L56 50L56 49L57 49L57 50L58 50L58 48L59 48L59 46L58 46L58 45L59 45L59 44L60 44L60 45L62 45L62 46L61 46L61 48L60 48L60 49L61 49L61 48L62 48L62 47L63 47L63 44L61 44L61 43L62 43L62 42L63 42L63 41L62 41L62 42L60 42L60 41ZM67 42L67 43L68 43L68 42ZM1 43L1 44L2 44L2 43ZM5 43L5 44L3 44L3 46L2 46L2 47L3 47L3 48L2 48L2 49L3 49L3 50L4 50L4 45L5 45L5 46L9 46L9 45L10 45L10 44L9 44L9 45L8 45L8 43ZM18 43L18 44L19 44L19 43ZM5 44L5 45L7 45L7 44ZM51 44L51 45L53 45L53 44ZM25 45L25 46L26 46L26 45ZM31 46L31 47L32 47L32 46ZM5 47L5 50L8 50L8 47ZM25 47L25 50L28 50L28 47ZM29 47L29 49L31 49L31 48L30 48L30 47ZM44 47L44 49L46 49L46 48L45 48L45 47ZM47 47L47 50L50 50L50 47ZM69 47L69 50L72 50L72 47ZM6 48L6 49L7 49L7 48ZM19 48L19 49L18 49L18 50L19 50L19 51L21 51L21 50L20 50L20 48ZM26 48L26 49L27 49L27 48ZM48 48L48 49L49 49L49 48ZM70 48L70 49L71 49L71 48ZM75 48L75 50L76 50L76 48ZM35 49L35 50L36 50L36 52L35 52L35 53L37 53L37 52L38 52L38 50L36 50L36 49ZM39 49L39 51L42 51L42 50L40 50L40 49ZM66 49L66 50L67 50L67 49ZM73 49L73 50L74 50L74 49ZM59 50L59 52L58 52L58 51L55 51L55 52L56 52L56 54L57 54L57 53L58 53L58 55L57 55L57 58L58 58L58 59L59 59L59 58L60 58L60 60L59 60L59 61L61 61L61 62L63 62L63 61L65 61L65 60L64 60L64 59L62 59L62 58L63 58L63 56L59 56L59 57L58 57L58 55L59 55L59 54L60 54L60 53L59 53L59 52L60 52L60 50ZM3 51L3 52L4 52L4 51ZM16 51L16 52L17 52L17 51ZM25 51L25 55L26 55L26 53L27 53L27 54L28 54L28 53L27 53L27 52L28 52L28 51L27 51L27 52L26 52L26 51ZM73 51L73 52L72 52L72 53L73 53L73 52L74 52L74 51ZM75 51L75 52L76 52L76 51ZM39 52L39 53L40 53L40 52ZM45 52L45 53L46 53L46 52ZM51 52L51 53L50 53L50 55L48 55L48 56L49 56L49 57L50 57L50 55L52 55L52 54L53 54L53 55L54 55L54 54L53 54L53 53L52 53L52 52ZM66 52L66 53L67 53L67 52ZM1 53L1 54L2 54L2 53ZM5 53L5 54L6 54L6 53ZM42 54L42 56L43 56L43 54ZM76 54L76 61L77 61L77 54ZM6 56L6 57L7 57L7 56ZM9 56L9 57L10 57L10 56ZM29 57L29 58L30 58L30 57ZM9 58L9 59L10 59L10 60L11 60L11 59L10 59L10 58ZM26 58L26 59L27 59L27 58ZM65 58L65 59L66 59L66 58ZM6 60L6 61L7 61L7 60ZM44 60L44 61L45 61L45 60ZM52 60L52 61L51 61L51 62L52 62L52 61L53 61L53 60ZM62 60L62 61L63 61L63 60ZM66 60L66 61L67 61L67 60ZM26 61L26 62L29 62L29 63L28 63L28 66L29 66L29 65L30 65L30 62L29 62L29 61ZM44 62L44 63L45 63L45 64L46 64L46 63L45 63L45 62ZM6 64L6 65L7 65L7 64ZM22 65L22 66L23 66L23 65ZM32 65L32 66L33 66L33 65ZM4 66L4 68L1 68L1 69L5 69L5 67L7 67L7 66ZM42 66L42 67L43 67L43 66ZM49 66L49 67L50 67L50 66ZM55 66L55 68L56 68L56 66ZM70 66L70 67L71 67L71 66ZM21 67L21 68L20 68L20 69L23 69L23 68L22 68L22 67ZM33 67L33 68L31 68L31 69L32 69L32 71L33 71L33 68L34 68L34 67ZM6 68L6 69L7 69L7 68ZM18 68L18 69L19 69L19 68ZM40 68L40 69L39 69L39 70L40 70L40 71L41 71L41 72L40 72L40 73L41 73L41 72L43 72L43 71L42 71L42 70L41 70L41 68ZM25 69L25 72L28 72L28 69ZM47 69L47 72L50 72L50 69ZM69 69L69 72L72 72L72 69ZM26 70L26 71L27 71L27 70ZM48 70L48 71L49 71L49 70ZM63 70L63 71L64 71L64 70ZM70 70L70 71L71 71L71 70ZM17 72L17 73L18 73L18 72ZM73 72L73 73L74 73L74 72ZM45 73L45 74L46 74L46 75L47 75L47 76L49 76L49 74L48 74L48 73L47 73L47 74L46 74L46 73ZM56 73L56 74L57 74L57 73ZM18 74L18 75L20 75L20 74ZM47 74L47 75L48 75L48 74ZM9 75L9 76L10 76L10 75ZM22 76L22 77L24 77L24 76ZM38 76L38 77L39 77L39 76ZM52 76L52 77L53 77L53 76ZM56 76L56 77L57 77L57 76ZM0 0L0 7L7 7L7 0ZM1 1L1 6L6 6L6 1ZM2 2L2 5L5 5L5 2ZM70 0L70 7L77 7L77 0ZM71 1L71 6L76 6L76 1ZM72 2L72 5L75 5L75 2ZM0 70L0 77L7 77L7 70ZM1 71L1 76L6 76L6 71ZM2 72L2 75L5 75L5 72Z" fill="#000000"/></g></g></svg>
