<?xml version="1.0" encoding="UTF-8"?>
<svg xmlns="http://www.w3.org/2000/svg" version="1.1" width="400" height="400" viewBox="0 0 400 400"><rect x="0" y="0" width="400" height="400" fill="#fefefe"/><g transform="scale(4.706)"><g transform="translate(4,4)"><path fill-rule="evenodd" d="M9 0L9 1L11 1L11 2L8 2L8 3L10 3L10 4L8 4L8 7L9 7L9 8L8 8L8 10L5 10L5 8L4 8L4 10L3 10L3 9L2 9L2 8L1 8L1 10L2 10L2 11L3 11L3 12L2 12L2 13L3 13L3 14L4 14L4 15L2 15L2 14L1 14L1 13L0 13L0 16L1 16L1 15L2 15L2 16L3 16L3 17L0 17L0 19L1 19L1 20L0 20L0 21L1 21L1 23L0 23L0 24L1 24L1 25L0 25L0 27L1 27L1 28L0 28L0 29L1 29L1 30L3 30L3 29L7 29L7 30L6 30L6 31L5 31L5 30L4 30L4 33L3 33L3 31L2 31L2 33L3 33L3 34L1 34L1 33L0 33L0 34L1 34L1 37L2 37L2 38L0 38L0 39L1 39L1 40L0 40L0 43L1 43L1 45L2 45L2 42L1 42L1 41L3 41L3 40L4 40L4 41L5 41L5 38L3 38L3 37L4 37L4 35L5 35L5 36L6 36L6 37L7 37L7 38L6 38L6 39L7 39L7 38L8 38L8 39L9 39L9 40L6 40L6 41L7 41L7 42L4 42L4 43L5 43L5 44L4 44L4 45L3 45L3 46L0 46L0 49L2 49L2 50L1 50L1 51L0 51L0 53L2 53L2 52L3 52L3 53L5 53L5 54L4 54L4 55L3 55L3 57L2 57L2 54L0 54L0 55L1 55L1 56L0 56L0 57L2 57L2 59L4 59L4 60L3 60L3 62L4 62L4 63L2 63L2 60L1 60L1 59L0 59L0 60L1 60L1 61L0 61L0 63L1 63L1 64L0 64L0 66L1 66L1 67L2 67L2 66L4 66L4 68L1 68L1 69L5 69L5 67L7 67L7 68L6 68L6 69L8 69L8 70L9 70L9 72L8 72L8 73L9 73L9 72L10 72L10 73L11 73L11 72L13 72L13 73L12 73L12 75L11 75L11 74L10 74L10 76L9 76L9 75L8 75L8 76L9 76L9 77L11 77L11 76L12 76L12 77L14 77L14 75L15 75L15 77L16 77L16 76L17 76L17 77L19 77L19 76L21 76L21 75L22 75L22 76L23 76L23 77L27 77L27 76L28 76L28 77L29 77L29 76L28 76L28 75L29 75L29 74L32 74L32 76L31 76L31 75L30 75L30 76L31 76L31 77L32 77L32 76L33 76L33 77L35 77L35 76L36 76L36 77L41 77L41 75L39 75L39 74L40 74L40 70L39 70L39 69L38 69L38 68L40 68L40 67L41 67L41 66L42 66L42 67L44 67L44 68L42 68L42 69L46 69L46 70L45 70L45 71L46 71L46 73L47 73L47 74L50 74L50 73L51 73L51 75L52 75L52 76L53 76L53 77L61 77L61 75L60 75L60 73L61 73L61 72L62 72L62 71L63 71L63 72L65 72L65 73L67 73L67 75L68 75L68 76L66 76L66 75L65 75L65 74L63 74L63 73L62 73L62 75L64 75L64 76L65 76L65 77L69 77L69 76L70 76L70 77L76 77L76 76L74 76L74 75L77 75L77 74L76 74L76 71L77 71L77 70L76 70L76 68L74 68L74 67L77 67L77 66L75 66L75 65L76 65L76 63L77 63L77 62L76 62L76 59L77 59L77 58L76 58L76 55L75 55L75 53L76 53L76 54L77 54L77 53L76 53L76 52L74 52L74 51L75 51L75 49L76 49L76 48L75 48L75 49L74 49L74 48L73 48L73 47L75 47L75 46L76 46L76 47L77 47L77 46L76 46L76 44L75 44L75 41L76 41L76 39L77 39L77 38L76 38L76 35L77 35L77 34L76 34L76 33L75 33L75 32L74 32L74 31L77 31L77 30L75 30L75 28L76 28L76 29L77 29L77 28L76 28L76 27L77 27L77 26L76 26L76 27L75 27L75 24L76 24L76 23L77 23L77 21L76 21L76 19L77 19L77 18L76 18L76 16L75 16L75 13L76 13L76 11L75 11L75 8L74 8L74 11L75 11L75 13L74 13L74 14L73 14L73 13L70 13L70 12L71 12L71 11L70 11L70 12L69 12L69 13L68 13L68 14L67 14L67 11L68 11L68 10L69 10L69 9L70 9L70 8L68 8L68 9L65 9L65 8L66 8L66 7L67 7L67 5L69 5L69 1L68 1L68 4L66 4L66 2L67 2L67 1L65 1L65 0L64 0L64 2L63 2L63 3L60 3L60 2L61 2L61 0L59 0L59 1L58 1L58 0L57 0L57 1L56 1L56 0L55 0L55 1L54 1L54 2L52 2L52 1L53 1L53 0L50 0L50 1L49 1L49 0L47 0L47 1L44 1L44 0L43 0L43 1L44 1L44 2L43 2L43 3L42 3L42 5L44 5L44 7L43 7L43 6L42 6L42 7L41 7L41 2L40 2L40 1L42 1L42 0L39 0L39 1L37 1L37 0L36 0L36 2L35 2L35 4L37 4L37 3L36 3L36 2L38 2L38 3L39 3L39 6L38 6L38 8L37 8L37 5L36 5L36 7L35 7L35 6L34 6L34 5L33 5L33 6L32 6L32 4L33 4L33 1L35 1L35 0L32 0L32 1L31 1L31 3L30 3L30 1L28 1L28 2L27 2L27 0L26 0L26 1L24 1L24 0L23 0L23 2L24 2L24 3L25 3L25 2L26 2L26 4L24 4L24 5L23 5L23 4L21 4L21 5L23 5L23 6L22 6L22 7L23 7L23 6L24 6L24 8L23 8L23 10L24 10L24 11L25 11L25 12L24 12L24 14L22 14L22 15L21 15L21 14L20 14L20 13L21 13L21 12L22 12L22 10L20 10L20 9L21 9L21 8L20 8L20 9L19 9L19 8L18 8L18 10L17 10L17 9L16 9L16 8L14 8L14 7L15 7L15 6L14 6L14 7L13 7L13 4L12 4L12 3L11 3L11 2L13 2L13 3L14 3L14 5L15 5L15 4L16 4L16 5L17 5L17 6L16 6L16 7L17 7L17 6L18 6L18 7L19 7L19 6L20 6L20 7L21 7L21 6L20 6L20 5L17 5L17 4L18 4L18 3L19 3L19 1L20 1L20 2L22 2L22 1L20 1L20 0L15 0L15 1L14 1L14 0L13 0L13 1L12 1L12 0ZM62 0L62 1L63 1L63 0ZM13 1L13 2L14 2L14 1ZM17 1L17 2L16 2L16 4L17 4L17 2L18 2L18 1ZM47 1L47 3L46 3L46 4L47 4L47 3L48 3L48 4L49 4L49 3L52 3L52 5L51 5L51 7L52 7L52 10L54 10L54 11L55 11L55 14L54 14L54 13L53 13L53 11L50 11L50 9L49 9L49 10L48 10L48 11L46 11L46 13L44 13L44 14L43 14L43 12L44 12L44 11L45 11L45 10L46 10L46 9L45 9L45 8L43 8L43 7L42 7L42 9L41 9L41 8L40 8L40 6L39 6L39 8L38 8L38 11L37 11L37 8L36 8L36 9L34 9L34 8L31 8L31 9L30 9L30 10L29 10L29 9L28 9L28 10L27 10L27 9L26 9L26 10L25 10L25 11L26 11L26 10L27 10L27 12L26 12L26 13L25 13L25 14L24 14L24 15L23 15L23 16L24 16L24 17L23 17L23 18L26 18L26 17L28 17L28 18L30 18L30 19L29 19L29 20L31 20L31 19L33 19L33 18L34 18L34 21L33 21L33 22L34 22L34 24L32 24L32 23L31 23L31 22L32 22L32 21L31 21L31 22L30 22L30 21L28 21L28 19L27 19L27 21L26 21L26 20L25 20L25 19L22 19L22 20L21 20L21 21L22 21L22 20L25 20L25 22L27 22L27 21L28 21L28 22L29 22L29 24L30 24L30 26L29 26L29 27L30 27L30 28L29 28L29 29L28 29L28 30L29 30L29 32L27 32L27 31L26 31L26 30L27 30L27 29L25 29L25 30L24 30L24 28L23 28L23 26L22 26L22 25L24 25L24 23L23 23L23 24L22 24L22 23L21 23L21 25L20 25L20 23L19 23L19 25L18 25L18 26L17 26L17 27L16 27L16 28L15 28L15 26L14 26L14 25L13 25L13 27L12 27L12 25L11 25L11 24L10 24L10 25L9 25L9 27L10 27L10 26L11 26L11 27L12 27L12 28L11 28L11 29L9 29L9 30L10 30L10 31L6 31L6 32L10 32L10 33L4 33L4 34L3 34L3 35L2 35L2 37L3 37L3 35L4 35L4 34L5 34L5 35L6 35L6 36L7 36L7 37L10 37L10 36L11 36L11 35L9 35L9 34L10 34L10 33L12 33L12 34L14 34L14 35L12 35L12 36L13 36L13 37L11 37L11 38L9 38L9 39L11 39L11 41L14 41L14 40L15 40L15 41L17 41L17 40L18 40L18 39L15 39L15 38L14 38L14 37L15 37L15 32L16 32L16 31L17 31L17 30L19 30L19 26L20 26L20 28L22 28L22 29L21 29L21 32L22 32L22 33L20 33L20 32L19 32L19 31L18 31L18 32L19 32L19 33L20 33L20 34L18 34L18 35L22 35L22 36L24 36L24 35L25 35L25 33L26 33L26 34L28 34L28 36L29 36L29 34L30 34L30 35L31 35L31 37L30 37L30 38L29 38L29 37L28 37L28 38L27 38L27 37L26 37L26 38L25 38L25 37L23 37L23 39L22 39L22 37L21 37L21 36L20 36L20 37L19 37L19 36L16 36L16 38L17 38L17 37L19 37L19 39L20 39L20 40L19 40L19 41L18 41L18 42L17 42L17 43L18 43L18 44L16 44L16 42L13 42L13 43L14 43L14 44L16 44L16 47L17 47L17 48L19 48L19 47L20 47L20 46L21 46L21 47L22 47L22 45L24 45L24 46L25 46L25 45L26 45L26 46L28 46L28 45L26 45L26 44L25 44L25 42L26 42L26 43L27 43L27 44L28 44L28 43L27 43L27 42L26 42L26 40L27 40L27 41L28 41L28 40L29 40L29 43L30 43L30 44L29 44L29 48L33 48L33 50L30 50L30 52L32 52L32 51L33 51L33 50L34 50L34 51L36 51L36 50L35 50L35 49L34 49L34 48L33 48L33 47L30 47L30 45L31 45L31 43L33 43L33 44L35 44L35 43L36 43L36 42L37 42L37 44L36 44L36 46L38 46L38 47L40 47L40 46L41 46L41 47L42 47L42 48L40 48L40 49L42 49L42 48L43 48L43 49L44 49L44 51L43 51L43 50L42 50L42 51L43 51L43 52L38 52L38 54L37 54L37 53L35 53L35 54L33 54L33 53L31 53L31 54L30 54L30 53L29 53L29 56L28 56L28 57L29 57L29 58L26 58L26 60L25 60L25 61L23 61L23 60L24 60L24 59L23 59L23 57L24 57L24 58L25 58L25 57L24 57L24 55L21 55L21 54L24 54L24 53L25 53L25 51L24 51L24 50L22 50L22 48L21 48L21 53L19 53L19 52L20 52L20 49L18 49L18 50L17 50L17 51L15 51L15 49L16 49L16 48L15 48L15 47L13 47L13 46L15 46L15 45L12 45L12 44L11 44L11 43L10 43L10 45L11 45L11 46L9 46L9 44L7 44L7 43L9 43L9 42L7 42L7 43L6 43L6 44L7 44L7 45L6 45L6 46L9 46L9 48L10 48L10 50L9 50L9 53L8 53L8 54L7 54L7 53L6 53L6 52L7 52L7 51L5 51L5 53L6 53L6 54L7 54L7 55L5 55L5 56L4 56L4 57L3 57L3 58L4 58L4 59L6 59L6 60L4 60L4 62L8 62L8 61L11 61L11 60L13 60L13 61L14 61L14 62L13 62L13 63L11 63L11 64L12 64L12 65L11 65L11 66L12 66L12 67L10 67L10 64L8 64L8 63L4 63L4 65L5 65L5 66L7 66L7 67L9 67L9 68L12 68L12 69L13 69L13 67L15 67L15 68L14 68L14 69L15 69L15 70L14 70L14 72L15 72L15 70L16 70L16 71L17 71L17 74L16 74L16 73L15 73L15 74L16 74L16 75L17 75L17 76L18 76L18 74L20 74L20 75L21 75L21 73L23 73L23 74L22 74L22 75L25 75L25 76L26 76L26 75L28 75L28 74L26 74L26 73L24 73L24 72L23 72L23 70L24 70L24 68L25 68L25 67L24 67L24 64L23 64L23 66L22 66L22 65L21 65L21 66L20 66L20 67L21 67L21 69L20 69L20 68L19 68L19 67L17 67L17 65L20 65L20 64L19 64L19 63L21 63L21 62L20 62L20 61L19 61L19 60L21 60L21 61L23 61L23 62L22 62L22 63L23 63L23 62L25 62L25 63L26 63L26 64L27 64L27 63L28 63L28 64L29 64L29 63L31 63L31 64L30 64L30 65L29 65L29 69L31 69L31 70L30 70L30 73L31 73L31 71L32 71L32 73L33 73L33 74L35 74L35 75L34 75L34 76L35 76L35 75L36 75L36 74L38 74L38 71L39 71L39 70L38 70L38 71L37 71L37 68L36 68L36 65L35 65L35 67L34 67L34 64L36 64L36 63L37 63L37 64L38 64L38 65L37 65L37 67L40 67L40 66L41 66L41 65L42 65L42 66L43 66L43 65L44 65L44 66L45 66L45 65L47 65L47 64L48 64L48 63L47 63L47 64L46 64L46 63L45 63L45 61L46 61L46 62L47 62L47 61L48 61L48 62L49 62L49 64L50 64L50 63L51 63L51 60L52 60L52 61L53 61L53 63L54 63L54 65L52 65L52 64L51 64L51 65L50 65L50 66L51 66L51 65L52 65L52 66L54 66L54 65L55 65L55 67L54 67L54 69L53 69L53 67L50 67L50 68L52 68L52 69L53 69L53 70L54 70L54 69L55 69L55 72L54 72L54 73L55 73L55 74L54 74L54 76L56 76L56 71L58 71L58 70L56 70L56 69L55 69L55 67L56 67L56 68L57 68L57 66L58 66L58 65L60 65L60 66L61 66L61 67L58 67L58 69L59 69L59 70L61 70L61 71L60 71L60 72L59 72L59 73L57 73L57 74L59 74L59 73L60 73L60 72L61 72L61 71L62 71L62 69L64 69L64 68L65 68L65 67L66 67L66 65L67 65L67 63L66 63L66 61L67 61L67 62L68 62L68 61L67 61L67 60L64 60L64 59L63 59L63 57L67 57L67 55L68 55L68 56L69 56L69 57L68 57L68 60L69 60L69 63L68 63L68 66L67 66L67 67L69 67L69 66L70 66L70 65L69 65L69 63L70 63L70 64L71 64L71 63L72 63L72 64L75 64L75 63L73 63L73 62L74 62L74 60L75 60L75 59L74 59L74 57L75 57L75 55L72 55L72 54L71 54L71 55L69 55L69 54L70 54L70 52L71 52L71 53L72 53L72 52L73 52L73 54L74 54L74 52L73 52L73 51L68 51L68 52L69 52L69 54L68 54L68 53L67 53L67 52L66 52L66 53L65 53L65 52L62 52L62 51L63 51L63 50L64 50L64 51L65 51L65 50L66 50L66 51L67 51L67 50L68 50L68 49L67 49L67 47L68 47L68 46L67 46L67 44L68 44L68 45L69 45L69 46L71 46L71 45L72 45L72 46L74 46L74 45L75 45L75 44L74 44L74 43L73 43L73 41L74 41L74 40L75 40L75 39L76 39L76 38L73 38L73 37L72 37L72 36L71 36L71 35L73 35L73 36L75 36L75 35L74 35L74 34L73 34L73 33L70 33L70 32L69 32L69 31L68 31L68 28L67 28L67 26L68 26L68 25L65 25L65 23L66 23L66 24L68 24L68 23L67 23L67 22L66 22L66 21L65 21L65 19L66 19L66 20L67 20L67 21L68 21L68 22L69 22L69 24L70 24L70 23L71 23L71 22L72 22L72 21L73 21L73 23L72 23L72 24L73 24L73 25L74 25L74 24L75 24L75 23L74 23L74 21L75 21L75 22L76 22L76 21L75 21L75 20L74 20L74 21L73 21L73 19L74 19L74 15L73 15L73 14L72 14L72 15L71 15L71 14L70 14L70 15L67 15L67 14L66 14L66 13L64 13L64 14L65 14L65 15L66 15L66 16L63 16L63 17L64 17L64 18L65 18L65 19L64 19L64 20L63 20L63 18L61 18L61 17L62 17L62 15L61 15L61 17L60 17L60 16L59 16L59 17L58 17L58 19L59 19L59 20L58 20L58 21L57 21L57 18L56 18L56 17L57 17L57 16L58 16L58 15L56 15L56 14L59 14L59 12L60 12L60 11L61 11L61 13L60 13L60 14L61 14L61 13L63 13L63 12L64 12L64 11L63 11L63 10L61 10L61 9L62 9L62 8L63 8L63 9L64 9L64 8L65 8L65 7L66 7L66 6L65 6L65 5L66 5L66 4L65 4L65 3L63 3L63 4L65 4L65 5L62 5L62 4L59 4L59 3L57 3L57 4L56 4L56 2L54 2L54 3L52 3L52 2L51 2L51 1L50 1L50 2L48 2L48 1ZM57 1L57 2L58 2L58 1ZM59 1L59 2L60 2L60 1ZM44 2L44 3L43 3L43 4L44 4L44 5L45 5L45 7L46 7L46 5L45 5L45 2ZM27 3L27 4L28 4L28 3ZM31 3L31 4L32 4L32 3ZM10 4L10 5L9 5L9 7L10 7L10 5L11 5L11 7L12 7L12 4ZM29 4L29 5L30 5L30 6L29 6L29 7L30 7L30 6L31 6L31 7L32 7L32 6L31 6L31 5L30 5L30 4ZM54 4L54 7L53 7L53 6L52 6L52 7L53 7L53 8L54 8L54 9L56 9L56 13L58 13L58 11L60 11L60 10L59 10L59 9L58 9L58 8L59 8L59 4L58 4L58 7L57 7L57 5L55 5L55 4ZM25 5L25 8L28 8L28 5ZM47 5L47 8L50 8L50 5ZM61 5L61 6L60 6L60 9L61 9L61 6L62 6L62 7L63 7L63 8L64 8L64 7L65 7L65 6L64 6L64 7L63 7L63 6L62 6L62 5ZM26 6L26 7L27 7L27 6ZM33 6L33 7L34 7L34 6ZM48 6L48 7L49 7L49 6ZM55 6L55 7L54 7L54 8L56 8L56 9L57 9L57 10L58 10L58 9L57 9L57 7L56 7L56 6ZM68 6L68 7L69 7L69 6ZM6 8L6 9L7 9L7 8ZM10 8L10 9L9 9L9 10L8 10L8 11L6 11L6 12L5 12L5 10L4 10L4 12L5 12L5 13L6 13L6 14L5 14L5 15L4 15L4 17L3 17L3 18L4 18L4 19L3 19L3 21L2 21L2 20L1 20L1 21L2 21L2 23L1 23L1 24L2 24L2 25L1 25L1 26L2 26L2 27L4 27L4 26L2 26L2 25L3 25L3 24L5 24L5 23L6 23L6 24L7 24L7 23L6 23L6 22L8 22L8 23L14 23L14 24L15 24L15 25L16 25L16 24L18 24L18 23L17 23L17 22L20 22L20 21L14 21L14 20L15 20L15 19L16 19L16 18L17 18L17 20L18 20L18 19L20 19L20 18L21 18L21 17L19 17L19 16L21 16L21 15L19 15L19 14L17 14L17 13L16 13L16 12L17 12L17 11L16 11L16 10L12 10L12 8ZM13 8L13 9L14 9L14 8ZM71 8L71 10L72 10L72 12L73 12L73 8ZM10 9L10 11L8 11L8 12L6 12L6 13L8 13L8 15L7 15L7 14L6 14L6 15L5 15L5 17L7 17L7 18L6 18L6 19L4 19L4 21L3 21L3 22L4 22L4 23L5 23L5 22L6 22L6 21L7 21L7 20L10 20L10 19L9 19L9 17L10 17L10 18L11 18L11 19L12 19L12 20L14 20L14 18L16 18L16 17L15 17L15 14L16 14L16 15L17 15L17 14L16 14L16 13L14 13L14 12L16 12L16 11L14 11L14 12L13 12L13 13L12 13L12 14L14 14L14 15L12 15L12 16L13 16L13 18L12 18L12 17L10 17L10 16L11 16L11 13L10 13L10 16L9 16L9 12L10 12L10 11L11 11L11 12L12 12L12 10L11 10L11 9ZM42 9L42 10L40 10L40 11L39 11L39 13L38 13L38 12L36 12L36 17L35 17L35 16L33 16L33 15L32 15L32 13L35 13L35 12L33 12L33 10L30 10L30 11L32 11L32 12L30 12L30 13L29 13L29 10L28 10L28 13L27 13L27 14L26 14L26 15L25 15L25 16L26 16L26 15L27 15L27 14L29 14L29 16L28 16L28 17L29 17L29 16L30 16L30 18L31 18L31 17L32 17L32 18L33 18L33 17L34 17L34 18L36 18L36 19L35 19L35 20L36 20L36 21L34 21L34 22L36 22L36 21L37 21L37 23L38 23L38 24L36 24L36 23L35 23L35 25L36 25L36 26L34 26L34 28L33 28L33 27L32 27L32 30L30 30L30 31L32 31L32 33L31 33L31 32L29 32L29 33L30 33L30 34L31 34L31 35L32 35L32 36L33 36L33 37L31 37L31 38L33 38L33 39L35 39L35 41L34 41L34 40L33 40L33 43L35 43L35 41L37 41L37 42L38 42L38 41L37 41L37 40L39 40L39 39L38 39L38 37L37 37L37 38L36 38L36 39L35 39L35 38L33 38L33 37L34 37L34 36L33 36L33 35L35 35L35 37L36 37L36 35L35 35L35 34L34 34L34 33L35 33L35 30L36 30L36 32L37 32L37 31L38 31L38 33L36 33L36 34L39 34L39 35L38 35L38 36L39 36L39 38L40 38L40 41L41 41L41 42L40 42L40 44L41 44L41 46L43 46L43 47L44 47L44 49L45 49L45 51L46 51L46 53L45 53L45 52L44 52L44 53L45 53L45 54L46 54L46 53L47 53L47 55L46 55L46 56L49 56L49 55L50 55L50 54L51 54L51 55L52 55L52 56L53 56L53 61L54 61L54 63L55 63L55 65L56 65L56 66L57 66L57 65L56 65L56 63L57 63L57 64L59 64L59 63L60 63L60 64L61 64L61 63L60 63L60 61L61 61L61 58L62 58L62 57L63 57L63 56L62 56L62 57L61 57L61 55L60 55L60 54L61 54L61 52L60 52L60 50L61 50L61 49L62 49L62 50L63 50L63 49L62 49L62 48L63 48L63 47L64 47L64 50L65 50L65 48L66 48L66 47L67 47L67 46L65 46L65 45L66 45L66 44L67 44L67 41L66 41L66 39L68 39L68 40L70 40L70 41L73 41L73 40L70 40L70 39L69 39L69 37L70 37L70 36L69 36L69 37L67 37L67 38L65 38L65 37L66 37L66 36L67 36L67 34L68 34L68 35L69 35L69 34L70 34L70 33L68 33L68 32L67 32L67 34L66 34L66 31L65 31L65 32L64 32L64 30L66 30L66 29L67 29L67 28L66 28L66 26L65 26L65 25L64 25L64 23L65 23L65 21L63 21L63 22L62 22L62 21L61 21L61 20L60 20L60 21L59 21L59 22L58 22L58 23L57 23L57 24L56 24L56 23L53 23L53 21L54 21L54 22L55 22L55 21L54 21L54 20L56 20L56 19L55 19L55 17L56 17L56 15L55 15L55 17L54 17L54 15L53 15L53 13L52 13L52 12L50 12L50 13L49 13L49 12L48 12L48 13L47 13L47 14L46 14L46 15L45 15L45 16L44 16L44 15L42 15L42 13L41 13L41 14L40 14L40 11L42 11L42 12L43 12L43 11L44 11L44 9ZM42 10L42 11L43 11L43 10ZM0 11L0 12L1 12L1 11ZM18 12L18 13L19 13L19 12ZM37 13L37 16L38 16L38 17L39 17L39 18L37 18L37 17L36 17L36 18L37 18L37 21L39 21L39 22L40 22L40 23L39 23L39 24L40 24L40 26L41 26L41 28L42 28L42 26L41 26L41 25L43 25L43 23L44 23L44 28L43 28L43 29L39 29L39 28L38 28L38 27L39 27L39 25L38 25L38 26L37 26L37 29L36 29L36 28L34 28L34 29L33 29L33 30L32 30L32 31L34 31L34 29L36 29L36 30L38 30L38 29L39 29L39 31L40 31L40 35L42 35L42 36L41 36L41 37L40 37L40 38L41 38L41 37L42 37L42 38L43 38L43 37L44 37L44 39L43 39L43 41L44 41L44 42L42 42L42 43L44 43L44 44L43 44L43 45L44 45L44 47L45 47L45 48L46 48L46 47L45 47L45 46L48 46L48 45L49 45L49 46L50 46L50 45L49 45L49 44L48 44L48 43L46 43L46 42L49 42L49 43L50 43L50 44L51 44L51 45L52 45L52 44L53 44L53 43L54 43L54 45L55 45L55 46L54 46L54 47L55 47L55 48L53 48L53 49L52 49L52 48L51 48L51 50L53 50L53 49L55 49L55 52L57 52L57 51L56 51L56 49L55 49L55 48L57 48L57 46L59 46L59 45L60 45L60 48L59 48L59 47L58 47L58 49L57 49L57 50L58 50L58 49L61 49L61 48L62 48L62 45L64 45L64 44L65 44L65 43L66 43L66 41L65 41L65 39L63 39L63 38L62 38L62 39L61 39L61 37L62 37L62 35L63 35L63 34L62 34L62 35L60 35L60 39L59 39L59 38L58 38L58 37L57 37L57 35L58 35L58 34L60 34L60 33L61 33L61 32L62 32L62 33L64 33L64 36L63 36L63 37L65 37L65 33L64 33L64 32L62 32L62 30L61 30L61 29L63 29L63 30L64 30L64 29L65 29L65 28L64 28L64 26L63 26L63 25L62 25L62 26L61 26L61 24L62 24L62 22L61 22L61 21L60 21L60 22L61 22L61 23L59 23L59 25L60 25L60 27L61 27L61 28L59 28L59 29L58 29L58 30L59 30L59 29L60 29L60 30L61 30L61 31L60 31L60 32L59 32L59 31L58 31L58 33L56 33L56 32L55 32L55 33L53 33L53 31L57 31L57 29L56 29L56 28L55 28L55 27L57 27L57 26L58 26L58 27L59 27L59 26L58 26L58 25L57 25L57 26L56 26L56 25L55 25L55 24L54 24L54 25L52 25L52 23L50 23L50 22L51 22L51 21L52 21L52 20L53 20L53 19L52 19L52 20L51 20L51 18L50 18L50 19L49 19L49 17L50 17L50 16L51 16L51 17L52 17L52 18L54 18L54 17L52 17L52 16L51 16L51 14L50 14L50 15L49 15L49 14L48 14L48 15L47 15L47 16L46 16L46 19L47 19L47 20L46 20L46 21L45 21L45 20L44 20L44 19L45 19L45 18L44 18L44 17L43 17L43 16L42 16L42 15L40 15L40 14L39 14L39 15L40 15L40 17L39 17L39 16L38 16L38 13ZM30 14L30 16L31 16L31 14ZM76 14L76 15L77 15L77 14ZM6 15L6 16L7 16L7 15ZM72 15L72 16L73 16L73 15ZM8 16L8 17L9 17L9 16ZM17 16L17 18L18 18L18 16ZM32 16L32 17L33 17L33 16ZM41 16L41 17L40 17L40 18L39 18L39 19L38 19L38 20L39 20L39 21L40 21L40 22L41 22L41 24L42 24L42 22L43 22L43 21L44 21L44 20L43 20L43 17L42 17L42 16ZM48 16L48 17L47 17L47 18L48 18L48 17L49 17L49 16ZM67 16L67 17L65 17L65 18L66 18L66 19L68 19L68 21L70 21L70 22L71 22L71 21L70 21L70 20L72 20L72 19L73 19L73 17L72 17L72 18L71 18L71 19L70 19L70 20L69 20L69 17L70 17L70 16L69 16L69 17L68 17L68 16ZM59 17L59 19L61 19L61 18L60 18L60 17ZM1 18L1 19L2 19L2 18ZM40 18L40 19L41 19L41 18ZM6 19L6 20L5 20L5 21L6 21L6 20L7 20L7 19ZM48 19L48 21L49 21L49 22L50 22L50 21L49 21L49 19ZM41 20L41 22L42 22L42 20ZM9 21L9 22L10 22L10 21ZM11 21L11 22L14 22L14 21ZM56 21L56 22L57 22L57 21ZM15 22L15 24L16 24L16 22ZM46 22L46 23L45 23L45 26L46 26L46 29L47 29L47 30L45 30L45 31L47 31L47 33L50 33L50 35L52 35L52 37L50 37L50 36L49 36L49 37L48 37L48 35L49 35L49 34L46 34L46 33L45 33L45 32L44 32L44 33L43 33L43 32L42 32L42 33L41 33L41 34L42 34L42 35L43 35L43 36L42 36L42 37L43 37L43 36L44 36L44 33L45 33L45 35L46 35L46 36L47 36L47 37L48 37L48 38L49 38L49 37L50 37L50 38L51 38L51 40L50 40L50 39L48 39L48 40L47 40L47 41L50 41L50 42L51 42L51 44L52 44L52 42L54 42L54 43L56 43L56 46L57 46L57 45L59 45L59 44L58 44L58 43L61 43L61 41L60 41L60 40L59 40L59 39L58 39L58 38L57 38L57 39L56 39L56 41L57 41L57 43L56 43L56 42L55 42L55 37L54 37L54 35L52 35L52 34L53 34L53 33L52 33L52 32L51 32L51 31L52 31L52 30L54 30L54 26L52 26L52 25L51 25L51 24L49 24L49 23L48 23L48 24L47 24L47 22ZM25 23L25 24L27 24L27 23ZM73 23L73 24L74 24L74 23ZM31 24L31 25L32 25L32 26L33 26L33 25L32 25L32 24ZM5 25L5 28L8 28L8 25ZM25 25L25 28L28 28L28 25ZM47 25L47 28L50 28L50 25ZM69 25L69 28L72 28L72 25ZM6 26L6 27L7 27L7 26ZM21 26L21 27L22 27L22 26ZM26 26L26 27L27 27L27 26ZM48 26L48 27L49 27L49 26ZM70 26L70 27L71 27L71 26ZM73 26L73 28L75 28L75 27L74 27L74 26ZM17 27L17 28L16 28L16 29L15 29L15 30L14 30L14 28L13 28L13 29L12 29L12 31L10 31L10 32L12 32L12 31L13 31L13 33L14 33L14 31L15 31L15 30L17 30L17 29L18 29L18 27ZM51 27L51 29L49 29L49 30L48 30L48 32L50 32L50 33L51 33L51 32L50 32L50 31L51 31L51 29L52 29L52 27ZM62 27L62 28L63 28L63 29L64 29L64 28L63 28L63 27ZM1 28L1 29L3 29L3 28ZM44 28L44 29L45 29L45 28ZM22 29L22 30L23 30L23 31L22 31L22 32L23 32L23 31L24 31L24 30L23 30L23 29ZM69 29L69 30L70 30L70 31L71 31L71 32L73 32L73 30L74 30L74 29ZM13 30L13 31L14 31L14 30ZM40 30L40 31L41 31L41 30ZM43 30L43 31L44 31L44 30ZM71 30L71 31L72 31L72 30ZM25 31L25 32L26 32L26 33L27 33L27 32L26 32L26 31ZM33 32L33 33L32 33L32 35L33 35L33 33L34 33L34 32ZM22 33L22 35L23 35L23 33ZM6 34L6 35L8 35L8 34ZM16 34L16 35L17 35L17 34ZM56 34L56 35L55 35L55 36L56 36L56 35L57 35L57 34ZM45 37L45 38L46 38L46 39L45 39L45 40L46 40L46 39L47 39L47 38L46 38L46 37ZM53 37L53 38L52 38L52 39L53 39L53 38L54 38L54 37ZM2 38L2 40L3 40L3 38ZM11 38L11 39L12 39L12 38ZM24 38L24 39L25 39L25 40L26 40L26 39L25 39L25 38ZM28 38L28 39L27 39L27 40L28 40L28 39L29 39L29 38ZM71 38L71 39L72 39L72 38ZM30 39L30 40L31 40L31 41L30 41L30 43L31 43L31 42L32 42L32 40L31 40L31 39ZM36 39L36 40L37 40L37 39ZM41 39L41 40L42 40L42 39ZM9 40L9 41L10 41L10 40ZM22 40L22 41L19 41L19 42L20 42L20 43L21 43L21 44L20 44L20 45L21 45L21 44L23 44L23 43L24 43L24 42L25 42L25 41L24 41L24 40ZM51 40L51 41L53 41L53 40ZM58 40L58 41L59 41L59 40ZM63 40L63 41L62 41L62 42L63 42L63 43L62 43L62 44L64 44L64 42L65 42L65 41L64 41L64 40ZM45 41L45 42L46 42L46 41ZM63 41L63 42L64 42L64 41ZM68 41L68 43L69 43L69 44L70 44L70 45L71 45L71 43L70 43L70 42L69 42L69 41ZM21 42L21 43L23 43L23 42ZM76 42L76 43L77 43L77 42ZM45 43L45 44L44 44L44 45L46 45L46 43ZM72 43L72 45L74 45L74 44L73 44L73 43ZM18 44L18 45L19 45L19 44ZM37 44L37 45L38 45L38 46L40 46L40 45L38 45L38 44ZM47 44L47 45L48 45L48 44ZM32 45L32 46L33 46L33 45ZM11 46L11 47L10 47L10 48L11 48L11 49L12 49L12 48L11 48L11 47L12 47L12 46ZM18 46L18 47L19 47L19 46ZM34 46L34 47L35 47L35 46ZM52 46L52 47L53 47L53 46ZM2 47L2 48L3 48L3 47ZM5 47L5 50L8 50L8 47ZM23 47L23 48L24 48L24 47ZM25 47L25 50L28 50L28 47ZM36 47L36 48L37 48L37 50L38 50L38 51L39 51L39 50L38 50L38 49L39 49L39 48L37 48L37 47ZM47 47L47 50L50 50L50 47ZM69 47L69 50L72 50L72 47ZM6 48L6 49L7 49L7 48ZM14 48L14 49L13 49L13 50L14 50L14 49L15 49L15 48ZM26 48L26 49L27 49L27 48ZM48 48L48 49L49 49L49 48ZM70 48L70 49L71 49L71 48ZM66 49L66 50L67 50L67 49ZM73 49L73 50L74 50L74 49ZM2 50L2 51L3 51L3 50ZM11 50L11 51L12 51L12 52L10 52L10 53L9 53L9 55L10 55L10 56L8 56L8 55L7 55L7 56L6 56L6 57L4 57L4 58L6 58L6 59L7 59L7 58L8 58L8 57L9 57L9 58L10 58L10 59L9 59L9 60L10 60L10 59L14 59L14 57L15 57L15 58L16 58L16 59L17 59L17 60L15 60L15 61L16 61L16 62L15 62L15 63L13 63L13 65L12 65L12 66L16 66L16 65L17 65L17 64L18 64L18 63L19 63L19 61L17 61L17 60L19 60L19 59L22 59L22 58L21 58L21 57L23 57L23 56L20 56L20 55L19 55L19 53L18 53L18 52L17 52L17 54L18 54L18 55L17 55L17 56L19 56L19 57L18 57L18 58L16 58L16 55L15 55L15 56L14 56L14 53L15 53L15 54L16 54L16 53L15 53L15 51L14 51L14 52L13 52L13 51L12 51L12 50ZM18 50L18 51L19 51L19 50ZM40 50L40 51L41 51L41 50ZM76 50L76 51L77 51L77 50ZM49 51L49 53L50 53L50 52L51 52L51 53L52 53L52 54L53 54L53 56L54 56L54 57L55 57L55 59L54 59L54 61L55 61L55 63L56 63L56 62L58 62L58 63L59 63L59 62L58 62L58 61L60 61L60 60L58 60L58 61L57 61L57 59L56 59L56 57L57 57L57 58L58 58L58 59L59 59L59 58L61 58L61 57L59 57L59 56L60 56L60 55L59 55L59 56L58 56L58 57L57 57L57 55L58 55L58 53L52 53L52 52L51 52L51 51ZM22 52L22 53L23 53L23 52ZM27 52L27 54L25 54L25 56L26 56L26 57L27 57L27 56L26 56L26 55L28 55L28 52ZM59 52L59 53L60 53L60 52ZM10 53L10 54L11 54L11 53ZM12 53L12 54L13 54L13 53ZM62 53L62 55L64 55L64 56L66 56L66 54L65 54L65 53ZM31 54L31 55L30 55L30 56L29 56L29 57L30 57L30 58L29 58L29 59L30 59L30 58L31 58L31 59L33 59L33 58L32 58L32 56L33 56L33 57L35 57L35 58L34 58L34 59L35 59L35 58L36 58L36 59L39 59L39 60L36 60L36 61L34 61L34 60L30 60L30 61L31 61L31 62L32 62L32 63L33 63L33 61L34 61L34 63L35 63L35 62L38 62L38 63L40 63L40 64L43 64L43 63L44 63L44 61L43 61L43 63L40 63L40 61L41 61L41 62L42 62L42 61L41 61L41 60L40 60L40 59L41 59L41 57L40 57L40 55L41 55L41 54L39 54L39 55L38 55L38 56L39 56L39 57L38 57L38 58L37 58L37 57L35 57L35 56L36 56L36 55L37 55L37 54L36 54L36 55L35 55L35 56L33 56L33 54ZM42 54L42 55L43 55L43 56L44 56L44 57L43 57L43 59L42 59L42 60L44 60L44 57L45 57L45 59L46 59L46 60L47 60L47 59L48 59L48 61L49 61L49 62L50 62L50 60L51 60L51 59L52 59L52 57L51 57L51 56L50 56L50 57L45 57L45 56L44 56L44 54ZM64 54L64 55L65 55L65 54ZM11 55L11 56L10 56L10 58L11 58L11 56L12 56L12 57L14 57L14 56L12 56L12 55ZM30 56L30 57L31 57L31 56ZM55 56L55 57L56 57L56 56ZM70 56L70 58L69 58L69 60L70 60L70 59L71 59L71 61L72 61L72 62L73 62L73 60L74 60L74 59L73 59L73 57L72 57L72 58L71 58L71 56ZM6 57L6 58L7 58L7 57ZM19 57L19 58L18 58L18 59L19 59L19 58L20 58L20 57ZM39 57L39 58L40 58L40 57ZM58 57L58 58L59 58L59 57ZM46 58L46 59L47 59L47 58ZM48 58L48 59L49 59L49 60L50 60L50 59L51 59L51 58L50 58L50 59L49 59L49 58ZM65 58L65 59L66 59L66 58ZM62 59L62 60L63 60L63 59ZM72 59L72 60L73 60L73 59ZM6 60L6 61L8 61L8 60ZM26 60L26 62L27 62L27 60ZM39 60L39 61L40 61L40 60ZM28 61L28 62L29 62L29 61ZM62 61L62 62L63 62L63 63L62 63L62 65L61 65L61 66L62 66L62 65L63 65L63 67L62 67L62 68L64 68L64 66L65 66L65 65L63 65L63 64L64 64L64 61ZM9 62L9 63L10 63L10 62ZM16 62L16 64L17 64L17 62ZM70 62L70 63L71 63L71 62ZM65 63L65 64L66 64L66 63ZM2 64L2 65L3 65L3 64ZM5 64L5 65L7 65L7 66L9 66L9 65L8 65L8 64ZM31 64L31 65L30 65L30 68L32 68L32 69L34 69L34 68L32 68L32 66L33 66L33 65L32 65L32 64ZM25 65L25 66L26 66L26 67L27 67L27 66L26 66L26 65ZM31 65L31 66L32 66L32 65ZM48 65L48 67L49 67L49 65ZM71 65L71 66L72 66L72 67L70 67L70 68L73 68L73 66L74 66L74 65L73 65L73 66L72 66L72 65ZM21 66L21 67L22 67L22 66ZM15 68L15 69L16 69L16 68ZM18 68L18 69L19 69L19 71L18 71L18 70L17 70L17 71L18 71L18 73L21 73L21 71L22 71L22 70L21 70L21 71L20 71L20 69L19 69L19 68ZM22 68L22 69L23 69L23 68ZM66 68L66 69L65 69L65 71L66 71L66 72L67 72L67 71L68 71L68 69L67 69L67 68ZM10 69L10 70L11 70L11 69ZM25 69L25 72L28 72L28 69ZM47 69L47 72L50 72L50 69ZM69 69L69 72L72 72L72 69ZM73 69L73 70L74 70L74 69ZM26 70L26 71L27 71L27 70ZM32 70L32 71L33 71L33 73L34 73L34 72L35 72L35 70ZM48 70L48 71L49 71L49 70ZM70 70L70 71L71 71L71 70ZM75 70L75 71L73 71L73 73L75 73L75 71L76 71L76 70ZM10 71L10 72L11 72L11 71ZM36 71L36 72L37 72L37 71ZM41 71L41 72L42 72L42 73L41 73L41 74L43 74L43 75L42 75L42 77L44 77L44 76L45 76L45 75L46 75L46 76L48 76L48 75L46 75L46 74L45 74L45 75L44 75L44 74L43 74L43 73L45 73L45 72L42 72L42 71ZM51 71L51 73L52 73L52 74L53 74L53 73L52 73L52 72L53 72L53 71ZM13 73L13 75L12 75L12 76L13 76L13 75L14 75L14 73ZM68 73L68 75L69 75L69 74L70 74L70 75L71 75L71 73ZM25 74L25 75L26 75L26 74ZM38 75L38 76L39 76L39 75ZM43 75L43 76L44 76L44 75ZM49 75L49 76L50 76L50 77L51 77L51 76L50 76L50 75ZM58 75L58 76L60 76L60 75ZM0 0L0 7L7 7L7 0ZM1 1L1 6L6 6L6 1ZM2 2L2 5L5 5L5 2ZM70 0L70 7L77 7L77 0ZM71 1L71 6L76 6L76 1ZM72 2L72 5L75 5L75 2ZM0 70L0 77L7 77L7 70ZM1 71L1 76L6 76L6 71ZM2 72L2 75L5 75L5 72Z" fill="#000000"/></g></g></svg>
