<?xml version="1.0" encoding="UTF-8"?>
<svg xmlns="http://www.w3.org/2000/svg" version="1.1" width="400" height="400" viewBox="0 0 400 400"><rect x="0" y="0" width="400" height="400" fill="#fefefe"/><g transform="scale(4.706)"><g transform="translate(4,4)"><path fill-rule="evenodd" d="M8 0L8 1L10 1L10 2L8 2L8 4L9 4L9 5L8 5L8 8L5 8L5 10L3 10L3 9L4 9L4 8L3 8L3 9L2 9L2 8L1 8L1 9L0 9L0 10L1 10L1 11L0 11L0 12L3 12L3 13L5 13L5 14L6 14L6 15L7 15L7 16L5 16L5 17L3 17L3 16L4 16L4 14L3 14L3 15L2 15L2 18L3 18L3 19L4 19L4 20L2 20L2 21L3 21L3 22L0 22L0 23L1 23L1 24L0 24L0 27L1 27L1 28L2 28L2 29L0 29L0 32L1 32L1 33L0 33L0 35L2 35L2 34L3 34L3 36L0 36L0 37L1 37L1 38L0 38L0 39L2 39L2 40L1 40L1 41L0 41L0 43L1 43L1 42L4 42L4 44L2 44L2 45L3 45L3 46L4 46L4 47L2 47L2 46L1 46L1 45L0 45L0 46L1 46L1 47L0 47L0 51L2 51L2 52L1 52L1 54L0 54L0 59L1 59L1 60L0 60L0 61L2 61L2 62L4 62L4 63L3 63L3 64L2 64L2 63L0 63L0 65L1 65L1 67L2 67L2 65L3 65L3 64L4 64L4 63L5 63L5 66L4 66L4 68L1 68L1 69L5 69L5 67L7 67L7 68L6 68L6 69L8 69L8 72L9 72L9 73L8 73L8 74L10 74L10 77L11 77L11 74L12 74L12 75L14 75L14 74L15 74L15 75L16 75L16 76L14 76L14 77L16 77L16 76L17 76L17 77L19 77L19 75L21 75L21 76L20 76L20 77L23 77L23 76L24 76L24 77L25 77L25 75L22 75L22 73L23 73L23 74L24 74L24 73L25 73L25 74L28 74L28 75L31 75L31 74L29 74L29 72L31 72L31 73L32 73L32 74L33 74L33 73L32 73L32 71L33 71L33 72L34 72L34 69L35 69L35 74L34 74L34 75L32 75L32 76L31 76L31 77L32 77L32 76L33 76L33 77L39 77L39 73L40 73L40 76L41 76L41 73L42 73L42 72L43 72L43 71L41 71L41 70L42 70L42 69L43 69L43 70L44 70L44 72L45 72L45 70L46 70L46 73L43 73L43 74L42 74L42 75L44 75L44 74L46 74L46 75L45 75L45 77L47 77L47 76L48 76L48 77L52 77L52 75L51 75L51 74L50 74L50 76L49 76L49 75L47 75L47 73L51 73L51 72L52 72L52 73L53 73L53 76L55 76L55 77L57 77L57 76L58 76L58 77L59 77L59 76L60 76L60 77L61 77L61 76L62 76L62 77L63 77L63 76L64 76L64 75L65 75L65 77L67 77L67 76L68 76L68 77L70 77L70 76L68 76L68 75L67 75L67 74L69 74L69 75L71 75L71 76L72 76L72 77L73 77L73 75L74 75L74 77L76 77L76 76L77 76L77 70L75 70L75 71L73 71L73 70L74 70L74 69L73 69L73 68L69 68L69 67L72 67L72 65L73 65L73 66L76 66L76 67L75 67L75 68L76 68L76 69L77 69L77 68L76 68L76 67L77 67L77 66L76 66L76 65L75 65L75 63L74 63L74 65L73 65L73 64L72 64L72 61L73 61L73 62L74 62L74 61L75 61L75 62L76 62L76 61L77 61L77 58L76 58L76 59L75 59L75 60L72 60L72 61L70 61L70 60L71 60L71 59L72 59L72 58L74 58L74 55L73 55L73 56L72 56L72 58L71 58L71 59L70 59L70 60L69 60L69 61L68 61L68 62L67 62L67 63L68 63L68 64L67 64L67 65L69 65L69 66L67 66L67 67L65 67L65 68L64 68L64 67L62 67L62 66L63 66L63 65L66 65L66 63L63 63L63 61L62 61L62 63L61 63L61 61L59 61L59 60L58 60L58 59L59 59L59 57L58 57L58 56L61 56L61 55L59 55L59 54L60 54L60 53L59 53L59 54L57 54L57 53L56 53L56 54L57 54L57 55L56 55L56 58L55 58L55 56L54 56L54 55L55 55L55 54L54 54L54 53L55 53L55 52L60 52L60 51L61 51L61 52L62 52L62 53L61 53L61 54L62 54L62 56L63 56L63 54L66 54L66 55L64 55L64 58L65 58L65 56L66 56L66 58L67 58L67 59L66 59L66 60L68 60L68 57L67 57L67 56L68 56L68 52L71 52L71 51L73 51L73 52L72 52L72 53L71 53L71 54L70 54L70 55L71 55L71 54L73 54L73 52L74 52L74 51L73 51L73 50L74 50L74 49L75 49L75 50L76 50L76 49L77 49L77 46L76 46L76 45L77 45L77 44L76 44L76 45L75 45L75 47L74 47L74 46L73 46L73 45L74 45L74 44L75 44L75 43L74 43L74 42L76 42L76 43L77 43L77 41L75 41L75 40L74 40L74 39L73 39L73 37L72 37L72 35L73 35L73 36L74 36L74 35L75 35L75 34L76 34L76 38L75 38L75 39L76 39L76 40L77 40L77 39L76 39L76 38L77 38L77 34L76 34L76 33L77 33L77 32L76 32L76 31L77 31L77 30L76 30L76 29L77 29L77 22L75 22L75 23L73 23L73 22L74 22L74 21L77 21L77 19L76 19L76 18L75 18L75 16L77 16L77 11L76 11L76 10L77 10L77 8L76 8L76 9L75 9L75 8L73 8L73 10L74 10L74 9L75 9L75 11L76 11L76 12L73 12L73 13L75 13L75 14L74 14L74 15L73 15L73 14L72 14L72 12L70 12L70 11L71 11L71 9L72 9L72 8L69 8L69 6L68 6L68 9L67 9L67 5L69 5L69 1L68 1L68 4L66 4L66 2L67 2L67 1L66 1L66 0L63 0L63 1L62 1L62 0L61 0L61 1L60 1L60 0L57 0L57 1L56 1L56 0L55 0L55 1L56 1L56 5L55 5L55 2L53 2L53 0L51 0L51 2L52 2L52 4L51 4L51 3L48 3L48 1L49 1L49 0L48 0L48 1L46 1L46 2L45 2L45 3L44 3L44 4L43 4L43 2L40 2L40 3L39 3L39 2L37 2L37 3L36 3L36 0L35 0L35 1L33 1L33 2L32 2L32 4L31 4L31 5L32 5L32 7L31 7L31 6L30 6L30 7L29 7L29 5L30 5L30 3L31 3L31 2L29 2L29 4L28 4L28 3L27 3L27 2L26 2L26 0L25 0L25 1L24 1L24 0L20 0L20 1L19 1L19 0L17 0L17 1L16 1L16 2L17 2L17 1L18 1L18 2L21 2L21 3L18 3L18 4L17 4L17 6L16 6L16 4L15 4L15 5L13 5L13 3L10 3L10 2L13 2L13 1L14 1L14 3L15 3L15 0L13 0L13 1L12 1L12 0L11 0L11 1L10 1L10 0ZM27 0L27 1L29 1L29 0ZM31 0L31 1L32 1L32 0ZM38 0L38 1L40 1L40 0ZM41 0L41 1L42 1L42 0ZM43 0L43 1L44 1L44 0ZM21 1L21 2L22 2L22 1ZM23 1L23 2L24 2L24 1ZM58 1L58 2L57 2L57 3L60 3L60 2L59 2L59 1ZM61 1L61 4L62 4L62 5L61 5L61 8L59 8L59 7L60 7L60 5L58 5L58 4L57 4L57 7L58 7L58 9L59 9L59 10L58 10L58 11L59 11L59 13L57 13L57 12L56 12L56 14L55 14L55 15L54 15L54 14L53 14L53 15L52 15L52 13L55 13L55 11L53 11L53 12L52 12L52 13L51 13L51 12L47 12L47 13L45 13L45 14L44 14L44 13L42 13L42 14L41 14L41 12L44 12L44 10L41 10L41 9L45 9L45 8L46 8L46 6L45 6L45 7L44 7L44 6L43 6L43 7L42 7L42 3L40 3L40 5L41 5L41 7L42 7L42 8L40 8L40 6L39 6L39 8L38 8L38 5L37 5L37 4L36 4L36 5L33 5L33 7L34 7L34 8L33 8L33 10L31 10L31 9L32 9L32 8L31 8L31 7L30 7L30 8L29 8L29 9L28 9L28 10L29 10L29 11L32 11L32 12L34 12L34 11L33 11L33 10L36 10L36 8L35 8L35 7L36 7L36 6L37 6L37 11L35 11L35 14L36 14L36 15L35 15L35 16L37 16L37 17L39 17L39 18L38 18L38 19L39 19L39 21L38 21L38 20L37 20L37 21L36 21L36 23L35 23L35 22L34 22L34 21L35 21L35 19L37 19L37 18L36 18L36 17L35 17L35 19L34 19L34 17L33 17L33 16L32 16L32 17L33 17L33 19L29 19L29 20L28 20L28 21L27 21L27 20L26 20L26 19L25 19L25 18L26 18L26 17L27 17L27 18L29 18L29 17L28 17L28 15L29 15L29 16L30 16L30 14L28 14L28 12L27 12L27 16L26 16L26 14L25 14L25 15L23 15L23 14L24 14L24 13L23 13L23 14L22 14L22 13L21 13L21 11L22 11L22 10L24 10L24 3L21 3L21 4L19 4L19 5L18 5L18 6L17 6L17 9L16 9L16 8L14 8L14 9L13 9L13 11L12 11L12 12L11 12L11 11L10 11L10 12L9 12L9 13L8 13L8 11L6 11L6 10L8 10L8 9L6 9L6 10L5 10L5 11L4 11L4 12L7 12L7 13L6 13L6 14L7 14L7 15L8 15L8 17L9 17L9 15L10 15L10 18L11 18L11 19L12 19L12 20L11 20L11 21L10 21L10 20L9 20L9 18L8 18L8 20L7 20L7 19L6 19L6 20L7 20L7 21L6 21L6 22L3 22L3 23L4 23L4 24L3 24L3 25L2 25L2 24L1 24L1 26L2 26L2 27L3 27L3 29L2 29L2 30L1 30L1 31L2 31L2 30L3 30L3 29L4 29L4 30L5 30L5 31L6 31L6 32L5 32L5 35L4 35L4 36L5 36L5 37L3 37L3 38L2 38L2 39L3 39L3 41L4 41L4 42L5 42L5 44L7 44L7 43L8 43L8 42L7 42L7 41L9 41L9 43L10 43L10 44L9 44L9 46L10 46L10 47L11 47L11 46L12 46L12 47L13 47L13 48L14 48L14 49L15 49L15 50L14 50L14 51L15 51L15 53L14 53L14 54L13 54L13 53L12 53L12 52L10 52L10 53L8 53L8 51L5 51L5 52L7 52L7 53L3 53L3 52L4 52L4 49L2 49L2 48L1 48L1 49L2 49L2 51L3 51L3 52L2 52L2 54L1 54L1 59L3 59L3 60L4 60L4 61L6 61L6 62L7 62L7 61L10 61L10 62L9 62L9 64L8 64L8 63L6 63L6 64L7 64L7 65L6 65L6 66L7 66L7 65L8 65L8 66L9 66L9 68L8 68L8 69L9 69L9 72L10 72L10 74L11 74L11 72L10 72L10 71L11 71L11 70L10 70L10 68L11 68L11 69L12 69L12 71L13 71L13 74L14 74L14 70L15 70L15 69L16 69L16 71L15 71L15 73L16 73L16 75L17 75L17 73L18 73L18 74L21 74L21 73L22 73L22 72L24 72L24 70L23 70L23 69L24 69L24 67L23 67L23 68L22 68L22 66L24 66L24 65L23 65L23 64L24 64L24 63L25 63L25 65L26 65L26 62L27 62L27 63L29 63L29 60L30 60L30 65L31 65L31 62L32 62L32 61L33 61L33 60L34 60L34 61L35 61L35 62L33 62L33 63L32 63L32 65L33 65L33 64L34 64L34 66L30 66L30 67L29 67L29 64L27 64L27 65L28 65L28 67L27 67L27 66L26 66L26 67L27 67L27 68L29 68L29 71L30 71L30 69L31 69L31 68L33 68L33 69L32 69L32 70L31 70L31 71L32 71L32 70L33 70L33 69L34 69L34 68L33 68L33 67L35 67L35 69L36 69L36 70L37 70L37 69L36 69L36 68L38 68L38 67L35 67L35 66L36 66L36 64L38 64L38 66L39 66L39 65L40 65L40 64L42 64L42 66L40 66L40 67L41 67L41 68L40 68L40 69L38 69L38 70L39 70L39 71L37 71L37 73L39 73L39 71L40 71L40 73L41 73L41 71L40 71L40 69L41 69L41 68L43 68L43 67L44 67L44 69L46 69L46 68L45 68L45 67L46 67L46 66L47 66L47 67L50 67L50 68L51 68L51 69L54 69L54 70L53 70L53 72L54 72L54 73L57 73L57 74L54 74L54 75L59 75L59 74L61 74L61 75L60 75L60 76L61 76L61 75L62 75L62 76L63 76L63 75L64 75L64 73L63 73L63 74L62 74L62 73L61 73L61 72L60 72L60 71L62 71L62 69L64 69L64 68L62 68L62 67L61 67L61 66L59 66L59 63L58 63L58 62L57 62L57 60L55 60L55 59L53 59L53 60L52 60L52 61L50 61L50 60L51 60L51 59L52 59L52 56L53 56L53 58L54 58L54 56L53 56L53 55L52 55L52 54L51 54L51 53L54 53L54 52L50 52L50 51L49 51L49 52L50 52L50 54L51 54L51 55L48 55L48 54L47 54L47 56L46 56L46 53L48 53L48 52L46 52L46 51L45 51L45 50L44 50L44 52L43 52L43 53L42 53L42 52L41 52L41 55L43 55L43 58L44 58L44 55L43 55L43 54L45 54L45 58L47 58L47 59L48 59L48 60L49 60L49 61L48 61L48 62L50 62L50 64L53 64L53 63L52 63L52 61L53 61L53 62L54 62L54 63L56 63L56 62L57 62L57 63L58 63L58 66L56 66L56 65L57 65L57 64L55 64L55 66L53 66L53 65L51 65L51 66L49 66L49 65L48 65L48 64L49 64L49 63L48 63L48 64L46 64L46 63L45 63L45 62L47 62L47 60L45 60L45 59L44 59L44 60L43 60L43 59L42 59L42 57L40 57L40 56L39 56L39 55L40 55L40 53L38 53L38 52L40 52L40 50L37 50L37 48L36 48L36 47L34 47L34 45L33 45L33 44L34 44L34 43L32 43L32 44L30 44L30 45L33 45L33 48L32 48L32 46L31 46L31 48L30 48L30 50L31 50L31 49L36 49L36 50L35 50L35 51L36 51L36 52L34 52L34 51L33 51L33 50L32 50L32 51L31 51L31 52L30 52L30 51L29 51L29 53L27 53L27 54L26 54L26 55L28 55L28 54L30 54L30 55L29 55L29 56L26 56L26 57L25 57L25 55L24 55L24 56L22 56L22 55L23 55L23 54L21 54L21 53L24 53L24 54L25 54L25 52L27 52L27 51L24 51L24 48L22 48L22 47L23 47L23 46L22 46L22 47L20 47L20 45L23 45L23 44L24 44L24 46L27 46L27 45L28 45L28 46L29 46L29 47L30 47L30 46L29 46L29 45L28 45L28 43L31 43L31 42L33 42L33 41L34 41L34 42L35 42L35 43L36 43L36 44L35 44L35 46L37 46L37 47L38 47L38 46L37 46L37 45L36 45L36 44L38 44L38 45L39 45L39 47L40 47L40 48L39 48L39 49L40 49L40 48L41 48L41 50L43 50L43 46L44 46L44 45L43 45L43 42L42 42L42 44L41 44L41 45L40 45L40 43L41 43L41 41L42 41L42 40L41 40L41 39L40 39L40 37L42 37L42 39L43 39L43 40L44 40L44 39L45 39L45 38L46 38L46 37L51 37L51 39L50 39L50 38L48 38L48 39L46 39L46 40L48 40L48 39L50 39L50 40L52 40L52 42L51 42L51 41L50 41L50 42L51 42L51 43L54 43L54 44L53 44L53 46L51 46L51 45L52 45L52 44L49 44L49 42L48 42L48 41L47 41L47 42L48 42L48 45L49 45L49 46L51 46L51 47L52 47L52 48L51 48L51 51L53 51L53 50L52 50L52 49L53 49L53 48L54 48L54 51L56 51L56 50L55 50L55 49L56 49L56 48L57 48L57 46L56 46L56 48L54 48L54 47L55 47L55 46L54 46L54 44L55 44L55 45L57 45L57 43L58 43L58 44L59 44L59 43L61 43L61 46L59 46L59 48L58 48L58 49L57 49L57 50L58 50L58 51L59 51L59 50L58 50L58 49L60 49L60 48L61 48L61 47L64 47L64 46L63 46L63 45L64 45L64 44L65 44L65 45L66 45L66 46L65 46L65 48L64 48L64 49L63 49L63 51L66 51L66 52L64 52L64 53L67 53L67 51L68 51L68 50L67 50L67 51L66 51L66 50L64 50L64 49L65 49L65 48L66 48L66 49L67 49L67 48L68 48L68 47L67 47L67 46L71 46L71 45L73 45L73 44L72 44L72 42L73 42L73 41L74 41L74 40L70 40L70 39L71 39L71 38L72 38L72 37L71 37L71 36L69 36L69 35L71 35L71 33L72 33L72 34L75 34L75 33L76 33L76 32L72 32L72 31L71 31L71 29L69 29L69 30L66 30L66 29L64 29L64 28L65 28L65 26L66 26L66 27L68 27L68 24L67 24L67 23L65 23L65 22L67 22L67 21L68 21L68 19L67 19L67 18L70 18L70 19L69 19L69 20L70 20L70 19L71 19L71 20L72 20L72 22L68 22L68 23L69 23L69 24L73 24L73 26L75 26L75 25L76 25L76 23L75 23L75 25L74 25L74 24L73 24L73 23L72 23L72 22L73 22L73 21L74 21L74 20L75 20L75 18L74 18L74 17L73 17L73 16L72 16L72 14L71 14L71 16L70 16L70 13L68 13L68 12L69 12L69 9L68 9L68 10L66 10L66 8L65 8L65 11L64 11L64 9L63 9L63 10L62 10L62 11L64 11L64 12L61 12L61 11L60 11L60 10L61 10L61 8L63 8L63 7L64 7L64 6L63 6L63 7L62 7L62 5L64 5L64 4L65 4L65 7L66 7L66 4L65 4L65 1L64 1L64 2L63 2L63 3L62 3L62 1ZM46 2L46 3L47 3L47 2ZM26 3L26 4L27 4L27 3ZM34 3L34 4L35 4L35 3ZM63 3L63 4L64 4L64 3ZM10 4L10 5L9 5L9 9L11 9L11 10L12 10L12 9L11 9L11 8L13 8L13 7L14 7L14 6L13 6L13 5L12 5L12 6L11 6L11 4ZM21 4L21 5L19 5L19 6L18 6L18 7L19 7L19 8L20 8L20 9L19 9L19 10L18 10L18 13L17 13L17 12L16 12L16 11L17 11L17 10L16 10L16 11L15 11L15 10L14 10L14 11L15 11L15 12L13 12L13 13L11 13L11 14L10 14L10 15L11 15L11 14L12 14L12 15L13 15L13 16L14 16L14 15L15 15L15 14L16 14L16 16L15 16L15 17L16 17L16 18L15 18L15 19L13 19L13 18L12 18L12 16L11 16L11 18L12 18L12 19L13 19L13 20L12 20L12 21L13 21L13 22L10 22L10 24L11 24L11 25L9 25L9 22L8 22L8 21L7 21L7 22L6 22L6 23L5 23L5 24L4 24L4 25L3 25L3 27L4 27L4 29L8 29L8 30L6 30L6 31L7 31L7 32L6 32L6 33L7 33L7 34L6 34L6 35L7 35L7 36L6 36L6 37L5 37L5 38L4 38L4 39L5 39L5 38L6 38L6 39L7 39L7 38L6 38L6 37L7 37L7 36L8 36L8 38L9 38L9 37L10 37L10 38L11 38L11 39L12 39L12 40L13 40L13 39L12 39L12 34L11 34L11 32L13 32L13 34L14 34L14 35L15 35L15 36L14 36L14 40L16 40L16 42L17 42L17 43L18 43L18 45L17 45L17 44L16 44L16 43L14 43L14 44L15 44L15 45L17 45L17 47L18 47L18 48L15 48L15 47L16 47L16 46L14 46L14 45L13 45L13 44L12 44L12 43L13 43L13 42L14 42L14 41L11 41L11 44L10 44L10 45L13 45L13 46L14 46L14 48L15 48L15 49L19 49L19 50L16 50L16 54L17 54L17 56L18 56L18 57L15 57L15 56L16 56L16 55L14 55L14 57L15 57L15 58L16 58L16 60L14 60L14 61L13 61L13 60L12 60L12 59L13 59L13 58L12 58L12 59L11 59L11 58L10 58L10 56L11 56L11 55L13 55L13 54L12 54L12 53L11 53L11 54L10 54L10 55L9 55L9 54L8 54L8 56L6 56L6 55L7 55L7 54L5 54L5 55L4 55L4 54L3 54L3 55L2 55L2 58L4 58L4 60L5 60L5 59L8 59L8 60L11 60L11 62L10 62L10 64L11 64L11 65L10 65L10 66L11 66L11 68L12 68L12 64L13 64L13 68L14 68L14 69L15 69L15 68L16 68L16 67L14 67L14 66L19 66L19 67L17 67L17 71L16 71L16 73L17 73L17 72L19 72L19 71L20 71L20 72L22 72L22 71L21 71L21 70L19 70L19 68L20 68L20 69L21 69L21 66L22 66L22 65L21 65L21 66L20 66L20 64L21 64L21 61L20 61L20 60L22 60L22 64L23 64L23 62L25 62L25 57L22 57L22 56L21 56L21 54L20 54L20 53L21 53L21 52L22 52L22 51L23 51L23 52L24 52L24 51L23 51L23 49L22 49L22 48L21 48L21 49L20 49L20 47L19 47L19 45L20 45L20 44L23 44L23 42L22 42L22 39L23 39L23 41L24 41L24 42L26 42L26 43L25 43L25 44L27 44L27 41L28 41L28 42L29 42L29 40L30 40L30 42L31 42L31 41L33 41L33 40L30 40L30 39L31 39L31 37L32 37L32 38L33 38L33 36L35 36L35 37L34 37L34 38L35 38L35 37L37 37L37 36L39 36L39 37L38 37L38 38L39 38L39 37L40 37L40 36L39 36L39 34L40 34L40 35L41 35L41 36L45 36L45 37L46 37L46 34L49 34L49 36L50 36L50 35L51 35L51 32L50 32L50 31L49 31L49 30L50 30L50 29L51 29L51 30L53 30L53 29L52 29L52 28L54 28L54 26L56 26L56 27L55 27L55 29L57 29L57 28L59 28L59 29L60 29L60 31L61 31L61 30L62 30L62 26L63 26L63 24L64 24L64 26L65 26L65 25L66 25L66 26L67 26L67 24L64 24L64 23L63 23L63 22L65 22L65 21L67 21L67 19L65 19L65 18L66 18L66 16L67 16L67 17L68 17L68 16L69 16L69 14L68 14L68 13L67 13L67 14L65 14L65 15L61 15L61 14L58 14L58 15L57 15L57 16L56 16L56 17L55 17L55 16L54 16L54 15L53 15L53 18L56 18L56 21L52 21L52 20L55 20L55 19L51 19L51 21L50 21L50 20L49 20L49 18L50 18L50 17L47 17L47 16L46 16L46 15L47 15L47 14L48 14L48 16L50 16L50 15L51 15L51 16L52 16L52 15L51 15L51 14L50 14L50 13L47 13L47 14L45 14L45 16L46 16L46 17L47 17L47 19L46 19L46 18L45 18L45 19L44 19L44 17L43 17L43 16L44 16L44 14L42 14L42 15L41 15L41 16L42 16L42 17L43 17L43 18L41 18L41 19L40 19L40 18L39 18L39 19L40 19L40 21L41 21L41 20L42 20L42 19L43 19L43 20L45 20L45 21L44 21L44 23L43 23L43 24L44 24L44 26L45 26L45 25L46 25L46 27L45 27L45 28L46 28L46 29L48 29L48 31L49 31L49 32L50 32L50 34L49 34L49 33L47 33L47 32L46 32L46 33L44 33L44 31L47 31L47 30L44 30L44 31L43 31L43 32L42 32L42 30L43 30L43 29L42 29L42 28L43 28L43 26L42 26L42 24L41 24L41 27L42 27L42 28L39 28L39 29L38 29L38 28L37 28L37 27L38 27L38 25L39 25L39 24L38 24L38 21L37 21L37 23L36 23L36 24L37 24L37 25L35 25L35 24L33 24L33 25L32 25L32 23L33 23L33 22L32 22L32 21L29 21L29 22L28 22L28 23L26 23L26 22L27 22L27 21L26 21L26 20L25 20L25 19L24 19L24 18L25 18L25 17L24 17L24 16L22 16L22 17L24 17L24 18L22 18L22 20L21 20L21 19L19 19L19 16L20 16L20 18L21 18L21 16L20 16L20 15L22 15L22 14L21 14L21 13L20 13L20 14L19 14L19 16L18 16L18 15L17 15L17 14L18 14L18 13L19 13L19 11L21 11L21 10L22 10L22 9L23 9L23 4ZM44 4L44 5L45 5L45 4ZM25 5L25 8L28 8L28 5ZM47 5L47 8L50 8L50 5ZM52 5L52 6L51 6L51 8L52 8L52 9L51 9L51 10L50 10L50 11L52 11L52 10L53 10L53 9L54 9L54 8L52 8L52 6L53 6L53 7L54 7L54 5ZM10 6L10 8L11 8L11 6ZM12 6L12 7L13 7L13 6ZM15 6L15 7L16 7L16 6ZM19 6L19 7L20 7L20 8L21 8L21 9L20 9L20 10L21 10L21 9L22 9L22 6L21 6L21 7L20 7L20 6ZM26 6L26 7L27 7L27 6ZM34 6L34 7L35 7L35 6ZM48 6L48 7L49 7L49 6ZM55 6L55 7L56 7L56 6ZM58 6L58 7L59 7L59 6ZM43 7L43 8L44 8L44 7ZM30 8L30 9L29 9L29 10L30 10L30 9L31 9L31 8ZM39 8L39 9L40 9L40 8ZM56 8L56 9L55 9L55 10L56 10L56 11L57 11L57 10L56 10L56 9L57 9L57 8ZM1 9L1 10L2 10L2 11L3 11L3 10L2 10L2 9ZM25 9L25 10L27 10L27 9ZM46 9L46 10L45 10L45 11L46 11L46 10L47 10L47 11L48 11L48 10L47 10L47 9ZM39 10L39 11L40 11L40 12L39 12L39 13L38 13L38 12L37 12L37 13L36 13L36 14L37 14L37 13L38 13L38 14L39 14L39 15L40 15L40 14L39 14L39 13L40 13L40 12L41 12L41 10ZM23 11L23 12L24 12L24 11ZM66 11L66 12L68 12L68 11ZM15 12L15 13L16 13L16 14L17 14L17 13L16 13L16 12ZM60 12L60 13L61 13L61 12ZM64 12L64 13L63 13L63 14L64 14L64 13L65 13L65 12ZM0 13L0 15L1 15L1 14L2 14L2 13ZM31 13L31 14L32 14L32 13ZM33 13L33 14L34 14L34 13ZM8 14L8 15L9 15L9 14ZM13 14L13 15L14 15L14 14ZM75 14L75 15L74 15L74 16L75 16L75 15L76 15L76 14ZM37 15L37 16L38 16L38 15ZM59 15L59 16L58 16L58 17L59 17L59 18L57 18L57 19L58 19L58 20L57 20L57 22L56 22L56 23L57 23L57 22L59 22L59 23L58 23L58 24L60 24L60 25L57 25L57 27L59 27L59 26L60 26L60 28L61 28L61 26L62 26L62 25L61 25L61 24L60 24L60 23L62 23L62 22L60 22L60 21L61 21L61 20L62 20L62 21L63 21L63 20L65 20L65 19L64 19L64 18L65 18L65 17L63 17L63 16L61 16L61 15ZM16 16L16 17L17 17L17 18L18 18L18 16ZM39 16L39 17L40 17L40 16ZM59 16L59 17L61 17L61 18L63 18L63 17L61 17L61 16ZM71 16L71 17L70 17L70 18L71 18L71 17L72 17L72 16ZM0 17L0 18L1 18L1 17ZM5 17L5 18L7 18L7 17ZM30 17L30 18L31 18L31 17ZM16 19L16 20L13 20L13 21L14 21L14 22L13 22L13 23L12 23L12 25L15 25L15 27L14 27L14 26L9 26L9 27L10 27L10 28L9 28L9 29L10 29L10 28L11 28L11 27L13 27L13 28L12 28L12 30L13 30L13 29L15 29L15 28L18 28L18 29L16 29L16 30L18 30L18 33L17 33L17 32L16 32L16 33L14 33L14 34L18 34L18 35L19 35L19 36L21 36L21 38L20 38L20 37L18 37L18 36L17 36L17 37L16 37L16 38L17 38L17 39L16 39L16 40L17 40L17 41L18 41L18 43L19 43L19 42L20 42L20 43L21 43L21 38L22 38L22 35L23 35L23 37L25 37L25 38L23 38L23 39L25 39L25 40L24 40L24 41L27 41L27 40L29 40L29 39L27 39L27 38L28 38L28 35L29 35L29 38L30 38L30 35L29 35L29 34L30 34L30 33L32 33L32 34L31 34L31 35L32 35L32 36L33 36L33 35L35 35L35 36L37 36L37 35L36 35L36 34L37 34L37 33L41 33L41 32L38 32L38 31L35 31L35 32L34 32L34 30L37 30L37 29L35 29L35 28L36 28L36 26L35 26L35 25L34 25L34 26L35 26L35 27L33 27L33 28L34 28L34 30L33 30L33 29L32 29L32 30L30 30L30 31L33 31L33 33L32 33L32 32L29 32L29 31L28 31L28 30L29 30L29 29L28 29L28 30L27 30L27 31L26 31L26 30L25 30L25 31L23 31L23 30L22 30L22 29L23 29L23 28L24 28L24 27L23 27L23 25L24 25L24 24L23 24L23 25L21 25L21 23L20 23L20 25L21 25L21 26L19 26L19 27L18 27L18 26L17 26L17 25L19 25L19 23L17 23L17 22L20 22L20 21L19 21L19 19ZM23 19L23 22L24 22L24 23L25 23L25 21L24 21L24 19ZM62 19L62 20L63 20L63 19ZM72 19L72 20L74 20L74 19ZM0 20L0 21L1 21L1 20ZM33 20L33 21L34 21L34 20ZM48 20L48 22L47 22L47 24L48 24L48 22L49 22L49 23L50 23L50 21L49 21L49 20ZM59 20L59 21L60 21L60 20ZM16 21L16 22L15 22L15 23L13 23L13 24L16 24L16 25L17 25L17 23L16 23L16 22L17 22L17 21ZM21 21L21 22L22 22L22 21ZM45 21L45 23L46 23L46 21ZM51 21L51 27L52 27L52 26L53 26L53 25L52 25L52 23L53 23L53 24L54 24L54 25L56 25L56 24L55 24L55 23L54 23L54 22L52 22L52 21ZM7 22L7 23L6 23L6 24L7 24L7 23L8 23L8 22ZM29 22L29 23L28 23L28 24L30 24L30 23L32 23L32 22ZM39 22L39 23L40 23L40 22ZM41 22L41 23L42 23L42 22ZM5 25L5 28L8 28L8 25ZM25 25L25 28L28 28L28 25ZM30 25L30 26L31 26L31 27L30 27L30 28L31 28L31 27L32 27L32 25ZM47 25L47 28L50 28L50 25ZM69 25L69 28L72 28L72 25ZM6 26L6 27L7 27L7 26ZM16 26L16 27L17 27L17 26ZM26 26L26 27L27 27L27 26ZM48 26L48 27L49 27L49 26ZM70 26L70 27L71 27L71 26ZM20 27L20 28L19 28L19 29L18 29L18 30L19 30L19 29L20 29L20 30L21 30L21 31L22 31L22 30L21 30L21 29L20 29L20 28L22 28L22 27ZM63 27L63 28L64 28L64 27ZM73 27L73 29L72 29L72 30L73 30L73 31L76 31L76 30L73 30L73 29L74 29L74 27ZM67 28L67 29L68 29L68 28ZM75 28L75 29L76 29L76 28ZM39 29L39 30L41 30L41 29ZM8 30L8 31L9 31L9 30ZM14 30L14 31L13 31L13 32L14 32L14 31L15 31L15 30ZM54 30L54 31L52 31L52 32L53 32L53 33L52 33L52 34L53 34L53 35L56 35L56 34L55 34L55 33L57 33L57 36L54 36L54 37L56 37L56 39L55 39L55 38L54 38L54 39L53 39L53 38L52 38L52 39L53 39L53 41L54 41L54 42L55 42L55 41L56 41L56 42L57 42L57 41L58 41L58 42L62 42L62 45L63 45L63 41L64 41L64 42L67 42L67 43L65 43L65 44L67 44L67 45L69 45L69 44L71 44L71 42L69 42L69 41L70 41L70 40L69 40L69 41L67 41L67 40L68 40L68 39L67 39L67 40L66 40L66 37L65 37L65 35L66 35L66 36L67 36L67 37L68 37L68 36L67 36L67 35L66 35L66 34L68 34L68 35L69 35L69 34L70 34L70 33L71 33L71 32L67 32L67 31L65 31L65 30L64 30L64 32L66 32L66 33L62 33L62 32L61 32L61 33L62 33L62 34L61 34L61 37L62 37L62 38L61 38L61 40L60 40L60 38L59 38L59 37L57 37L57 36L59 36L59 35L58 35L58 34L59 34L59 33L60 33L60 32L59 32L59 30L57 30L57 31L56 31L56 32L55 32L55 30ZM25 31L25 32L26 32L26 33L23 33L23 32L22 32L22 34L21 34L21 32L20 32L20 34L21 34L21 35L22 35L22 34L23 34L23 35L25 35L25 34L26 34L26 35L27 35L27 34L26 34L26 33L27 33L27 32L28 32L28 33L29 33L29 32L28 32L28 31L27 31L27 32L26 32L26 31ZM2 32L2 33L1 33L1 34L2 34L2 33L3 33L3 32ZM8 32L8 33L9 33L9 32ZM36 32L36 33L37 33L37 32ZM54 32L54 33L55 33L55 32ZM57 32L57 33L59 33L59 32ZM18 33L18 34L19 34L19 33ZM34 33L34 34L35 34L35 33ZM42 33L42 34L41 34L41 35L42 35L42 34L44 34L44 33ZM68 33L68 34L69 34L69 33ZM8 34L8 35L9 35L9 36L10 36L10 37L11 37L11 36L10 36L10 35L11 35L11 34ZM62 34L62 37L64 37L64 38L62 38L62 40L61 40L61 41L63 41L63 40L64 40L64 41L65 41L65 40L64 40L64 38L65 38L65 37L64 37L64 36L63 36L63 35L65 35L65 34ZM47 35L47 36L48 36L48 35ZM26 36L26 38L25 38L25 39L26 39L26 38L27 38L27 36ZM17 37L17 38L18 38L18 37ZM69 37L69 39L70 39L70 38L71 38L71 37ZM19 38L19 39L18 39L18 40L20 40L20 38ZM36 38L36 39L35 39L35 40L34 40L34 41L35 41L35 40L36 40L36 41L37 41L37 42L36 42L36 43L37 43L37 42L38 42L38 41L39 41L39 42L40 42L40 41L41 41L41 40L40 40L40 39L38 39L38 40L37 40L37 38ZM43 38L43 39L44 39L44 38ZM57 38L57 39L56 39L56 41L57 41L57 39L58 39L58 41L59 41L59 38ZM8 39L8 40L9 40L9 41L10 41L10 40L9 40L9 39ZM54 39L54 41L55 41L55 39ZM5 40L5 41L7 41L7 40ZM44 41L44 42L45 42L45 41ZM6 42L6 43L7 43L7 42ZM38 43L38 44L39 44L39 43ZM44 43L44 44L45 44L45 43ZM46 43L46 44L47 44L47 43ZM67 43L67 44L68 44L68 43ZM5 45L5 46L7 46L7 45ZM45 45L45 48L46 48L46 46L47 46L47 45ZM40 46L40 47L41 47L41 48L42 48L42 46ZM5 47L5 50L8 50L8 47ZM25 47L25 50L28 50L28 47ZM47 47L47 50L50 50L50 47ZM66 47L66 48L67 48L67 47ZM69 47L69 50L72 50L72 47ZM73 47L73 48L74 48L74 47ZM6 48L6 49L7 49L7 48ZM10 48L10 49L11 49L11 50L10 50L10 51L11 51L11 50L12 50L12 51L13 51L13 49L12 49L12 48ZM26 48L26 49L27 49L27 48ZM48 48L48 49L49 49L49 48ZM70 48L70 49L71 49L71 48ZM19 50L19 51L17 51L17 54L18 54L18 53L20 53L20 51L21 51L21 50ZM61 50L61 51L62 51L62 50ZM32 51L32 52L31 52L31 53L32 53L32 54L31 54L31 55L30 55L30 57L29 57L29 58L30 58L30 57L31 57L31 58L33 58L33 59L34 59L34 58L33 58L33 57L31 57L31 56L32 56L32 55L33 55L33 53L34 53L34 54L36 54L36 55L35 55L35 56L36 56L36 57L35 57L35 58L36 58L36 57L37 57L37 58L38 58L38 57L39 57L39 59L35 59L35 60L38 60L38 63L41 63L41 62L39 62L39 60L40 60L40 59L41 59L41 61L42 61L42 59L41 59L41 58L40 58L40 57L39 57L39 56L38 56L38 55L39 55L39 54L38 54L38 55L37 55L37 54L36 54L36 53L34 53L34 52L33 52L33 51ZM76 51L76 52L77 52L77 51ZM32 52L32 53L33 53L33 52ZM44 52L44 53L45 53L45 52ZM62 53L62 54L63 54L63 53ZM74 53L74 54L75 54L75 55L76 55L76 54L75 54L75 53ZM19 55L19 58L17 58L17 59L19 59L19 60L17 60L17 61L16 61L16 62L19 62L19 64L18 64L18 63L17 63L17 65L19 65L19 64L20 64L20 61L19 61L19 60L20 60L20 59L22 59L22 57L20 57L20 55ZM51 55L51 56L52 56L52 55ZM3 56L3 57L4 57L4 58L8 58L8 59L10 59L10 58L8 58L8 57L9 57L9 56L8 56L8 57L4 57L4 56ZM12 56L12 57L13 57L13 56ZM47 56L47 57L48 57L48 59L49 59L49 60L50 60L50 59L49 59L49 58L50 58L50 57L48 57L48 56ZM70 56L70 57L69 57L69 58L70 58L70 57L71 57L71 56ZM76 56L76 57L77 57L77 56ZM26 57L26 58L27 58L27 59L26 59L26 60L27 60L27 62L28 62L28 60L29 60L29 59L28 59L28 57ZM57 58L57 59L58 59L58 58ZM60 58L60 60L64 60L64 62L65 62L65 60L64 60L64 59L63 59L63 58L62 58L62 59L61 59L61 58ZM23 59L23 61L24 61L24 59ZM30 59L30 60L31 60L31 61L32 61L32 59ZM6 60L6 61L7 61L7 60ZM12 61L12 62L11 62L11 63L13 63L13 64L14 64L14 65L15 65L15 64L16 64L16 63L15 63L15 62L13 62L13 61ZM36 61L36 62L35 62L35 63L36 63L36 62L37 62L37 61ZM55 61L55 62L56 62L56 61ZM69 61L69 62L68 62L68 63L69 63L69 65L70 65L70 66L71 66L71 64L70 64L70 61ZM14 63L14 64L15 64L15 63ZM42 63L42 64L43 64L43 66L44 66L44 67L45 67L45 64L44 64L44 63ZM62 63L62 64L61 64L61 65L63 65L63 63ZM76 63L76 64L77 64L77 63ZM47 65L47 66L48 66L48 65ZM52 66L52 67L51 67L51 68L52 68L52 67L53 67L53 68L55 68L55 67L53 67L53 66ZM58 66L58 67L56 67L56 68L60 68L60 70L61 70L61 69L62 69L62 68L61 68L61 67L59 67L59 66ZM30 67L30 68L31 68L31 67ZM67 68L67 69L65 69L65 70L63 70L63 71L65 71L65 75L66 75L66 76L67 76L67 75L66 75L66 74L67 74L67 73L66 73L66 72L68 72L68 71L65 71L65 70L68 70L68 68ZM25 69L25 72L28 72L28 69ZM47 69L47 72L50 72L50 69ZM55 69L55 70L54 70L54 72L56 72L56 71L57 71L57 73L60 73L60 72L58 72L58 71L59 71L59 70L58 70L58 69ZM69 69L69 72L72 72L72 69ZM18 70L18 71L19 71L19 70ZM26 70L26 71L27 71L27 70ZM48 70L48 71L49 71L49 70ZM51 70L51 71L52 71L52 70ZM70 70L70 71L71 71L71 70ZM75 71L75 73L74 73L74 72L73 72L73 73L72 73L72 74L75 74L75 76L76 76L76 71ZM70 73L70 74L71 74L71 73ZM35 74L35 76L38 76L38 75L36 75L36 74ZM8 75L8 76L9 76L9 75ZM46 75L46 76L47 76L47 75ZM29 76L29 77L30 77L30 76ZM42 76L42 77L43 77L43 76ZM0 0L0 7L7 7L7 0ZM1 1L1 6L6 6L6 1ZM2 2L2 5L5 5L5 2ZM70 0L70 7L77 7L77 0ZM71 1L71 6L76 6L76 1ZM72 2L72 5L75 5L75 2ZM0 70L0 77L7 77L7 70ZM1 71L1 76L6 76L6 71ZM2 72L2 75L5 75L5 72Z" fill="#000000"/></g></g></svg>
