<?xml version="1.0" encoding="UTF-8"?>
<svg xmlns="http://www.w3.org/2000/svg" version="1.1" width="400" height="400" viewBox="0 0 400 400"><rect x="0" y="0" width="400" height="400" fill="#fefefe"/><g transform="scale(6.557)"><g transform="translate(4,4)"><path fill-rule="evenodd" d="M9 0L9 1L8 1L8 2L9 2L9 1L10 1L10 3L8 3L8 4L9 4L9 5L8 5L8 7L9 7L9 5L10 5L10 7L11 7L11 8L10 8L10 9L11 9L11 8L12 8L12 9L16 9L16 10L13 10L13 11L16 11L16 12L15 12L15 13L14 13L14 14L15 14L15 15L16 15L16 16L17 16L17 17L18 17L18 18L17 18L17 19L18 19L18 20L16 20L16 19L14 19L14 20L12 20L12 21L11 21L11 22L12 22L12 23L11 23L11 24L8 24L8 22L6 22L6 21L7 21L7 20L5 20L5 21L4 21L4 20L2 20L2 19L4 19L4 18L2 18L2 14L1 14L1 13L0 13L0 14L1 14L1 15L0 15L0 16L1 16L1 18L0 18L0 20L2 20L2 22L3 22L3 23L0 23L0 29L1 29L1 26L2 26L2 27L3 27L3 26L2 26L2 25L3 25L3 24L4 24L4 30L5 30L5 31L4 31L4 32L3 32L3 33L7 33L7 32L6 32L6 31L7 31L7 30L5 30L5 29L8 29L8 30L9 30L9 31L10 31L10 32L11 32L11 33L9 33L9 32L8 32L8 34L6 34L6 35L5 35L5 34L4 34L4 35L3 35L3 37L4 37L4 38L3 38L3 39L2 39L2 40L0 40L0 41L2 41L2 40L3 40L3 41L4 41L4 38L6 38L6 39L5 39L5 42L3 42L3 43L2 43L2 42L0 42L0 43L1 43L1 44L3 44L3 45L4 45L4 44L3 44L3 43L7 43L7 44L6 44L6 45L8 45L8 47L9 47L9 48L8 48L8 53L10 53L10 52L9 52L9 51L10 51L10 49L11 49L11 51L12 51L12 53L13 53L13 52L14 52L14 51L15 51L15 52L16 52L16 53L17 53L17 52L16 52L16 51L15 51L15 50L16 50L16 49L15 49L15 50L13 50L13 49L11 49L11 48L17 48L17 49L18 49L18 51L19 51L19 52L18 52L18 53L21 53L21 52L24 52L24 53L27 53L27 52L29 52L29 51L28 51L28 50L29 50L29 49L30 49L30 50L31 50L31 51L30 51L30 53L31 53L31 52L34 52L34 51L35 51L35 50L38 50L38 53L39 53L39 51L40 51L40 52L42 52L42 53L51 53L51 52L52 52L52 51L53 51L53 50L52 50L52 51L51 51L51 49L53 49L53 48L50 48L50 46L53 46L53 45L52 45L52 44L53 44L53 43L52 43L52 44L50 44L50 41L51 41L51 40L50 40L50 38L49 38L49 37L51 37L51 38L53 38L53 35L52 35L52 34L53 34L53 33L51 33L51 32L50 32L50 31L51 31L51 30L53 30L53 29L52 29L52 28L53 28L53 27L51 27L51 28L50 28L50 26L53 26L53 23L51 23L51 24L50 24L50 23L49 23L49 24L46 24L46 23L47 23L47 22L46 22L46 21L47 21L47 20L46 20L46 19L47 19L47 18L46 18L46 19L45 19L45 20L44 20L44 17L46 17L46 15L47 15L47 14L46 14L46 13L45 13L45 12L44 12L44 13L45 13L45 14L46 14L46 15L42 15L42 16L43 16L43 17L42 17L42 18L43 18L43 19L41 19L41 18L40 18L40 19L39 19L39 18L37 18L37 16L36 16L36 15L37 15L37 14L38 14L38 15L39 15L39 16L38 16L38 17L39 17L39 16L41 16L41 14L43 14L43 13L40 13L40 15L39 15L39 14L38 14L38 13L37 13L37 12L38 12L38 11L39 11L39 12L41 12L41 11L39 11L39 10L38 10L38 11L37 11L37 10L36 10L36 9L37 9L37 8L38 8L38 7L39 7L39 8L41 8L41 9L42 9L42 10L44 10L44 11L45 11L45 10L44 10L44 9L46 9L46 8L43 8L43 3L44 3L44 4L45 4L45 3L44 3L44 1L43 1L43 0L39 0L39 1L38 1L38 0L37 0L37 1L36 1L36 2L35 2L35 1L34 1L34 0L32 0L32 1L31 1L31 0L29 0L29 1L31 1L31 3L29 3L29 2L28 2L28 4L27 4L27 3L26 3L26 1L27 1L27 0L26 0L26 1L25 1L25 0L24 0L24 1L25 1L25 2L24 2L24 3L23 3L23 4L22 4L22 1L23 1L23 0L22 0L22 1L21 1L21 0L18 0L18 1L17 1L17 2L18 2L18 3L16 3L16 2L14 2L14 3L15 3L15 4L14 4L14 5L13 5L13 4L12 4L12 5L11 5L11 4L10 4L10 3L13 3L13 1L14 1L14 0L13 0L13 1L12 1L12 2L11 2L11 0ZM15 0L15 1L16 1L16 0ZM19 1L19 2L20 2L20 1ZM32 1L32 2L33 2L33 1ZM39 1L39 4L38 4L38 5L36 5L36 6L35 6L35 8L34 8L34 5L35 5L35 4L36 4L36 3L37 3L37 2L36 2L36 3L35 3L35 2L34 2L34 5L33 5L33 3L31 3L31 5L30 5L30 4L29 4L29 7L30 7L30 6L31 6L31 8L32 8L32 11L33 11L33 12L30 12L30 11L31 11L31 10L30 10L30 11L29 11L29 10L27 10L27 9L25 9L25 10L24 10L24 8L22 8L22 9L21 9L21 8L19 8L19 10L18 10L18 12L19 12L19 13L18 13L18 15L17 15L17 13L15 13L15 14L16 14L16 15L17 15L17 16L18 16L18 17L19 17L19 13L20 13L20 16L21 16L21 14L22 14L22 17L20 17L20 18L19 18L19 21L18 21L18 22L17 22L17 21L15 21L15 20L14 20L14 21L15 21L15 23L16 23L16 25L13 25L13 24L14 24L14 23L12 23L12 24L11 24L11 26L9 26L9 28L10 28L10 27L11 27L11 26L13 26L13 28L14 28L14 29L9 29L9 30L13 30L13 31L11 31L11 32L12 32L12 33L11 33L11 35L10 35L10 34L8 34L8 35L6 35L6 36L5 36L5 35L4 35L4 37L6 37L6 38L7 38L7 39L6 39L6 40L7 40L7 39L8 39L8 37L12 37L12 36L13 36L13 35L14 35L14 37L15 37L15 38L17 38L17 39L16 39L16 41L13 41L13 40L14 40L14 39L12 39L12 38L11 38L11 39L12 39L12 42L13 42L13 43L14 43L14 44L12 44L12 43L11 43L11 40L9 40L9 41L10 41L10 42L8 42L8 41L6 41L6 42L8 42L8 44L9 44L9 43L11 43L11 44L12 44L12 45L14 45L14 47L15 47L15 45L14 45L14 44L16 44L16 43L15 43L15 42L16 42L16 41L18 41L18 40L17 40L17 39L18 39L18 38L19 38L19 37L15 37L15 35L16 35L16 36L18 36L18 33L19 33L19 34L20 34L20 35L19 35L19 36L21 36L21 33L19 33L19 32L20 32L20 31L21 31L21 32L22 32L22 33L25 33L25 34L22 34L22 35L24 35L24 36L22 36L22 37L24 37L24 38L23 38L23 39L22 39L22 38L21 38L21 37L20 37L20 39L19 39L19 40L22 40L22 41L19 41L19 42L20 42L20 43L22 43L22 45L24 45L24 43L25 43L25 44L27 44L27 43L28 43L28 44L29 44L29 45L30 45L30 44L31 44L31 45L33 45L33 44L31 44L31 42L32 42L32 41L33 41L33 42L35 42L35 40L39 40L39 41L38 41L38 42L37 42L37 43L36 43L36 44L35 44L35 43L34 43L34 46L30 46L30 47L31 47L31 48L32 48L32 51L33 51L33 50L35 50L35 48L39 48L39 49L38 49L38 50L39 50L39 49L40 49L40 51L41 51L41 48L39 48L39 47L36 47L36 46L39 46L39 45L41 45L41 44L42 44L42 45L43 45L43 46L42 46L42 47L43 47L43 49L44 49L44 43L45 43L45 39L47 39L47 40L46 40L46 43L48 43L48 41L50 41L50 40L48 40L48 39L49 39L49 38L48 38L48 37L49 37L49 36L48 36L48 35L49 35L49 34L48 34L48 33L50 33L50 32L49 32L49 31L50 31L50 30L48 30L48 29L47 29L47 30L45 30L45 29L43 29L43 28L44 28L44 27L43 27L43 26L42 26L42 24L43 24L43 25L44 25L44 24L45 24L45 23L46 23L46 22L45 22L45 21L44 21L44 20L43 20L43 22L41 22L41 20L39 20L39 19L36 19L36 20L34 20L34 18L35 18L35 17L33 17L33 16L32 16L32 13L33 13L33 12L35 12L35 13L34 13L34 14L35 14L35 13L36 13L36 12L37 12L37 11L36 11L36 10L35 10L35 9L36 9L36 8L37 8L37 7L38 7L38 5L39 5L39 7L40 7L40 5L39 5L39 4L41 4L41 3L43 3L43 2L42 2L42 1L41 1L41 2L40 2L40 1ZM24 3L24 4L23 4L23 5L22 5L22 4L20 4L20 5L19 5L19 7L20 7L20 5L22 5L22 6L21 6L21 7L22 7L22 6L23 6L23 7L24 7L24 4L26 4L26 3ZM16 4L16 5L17 5L17 7L16 7L16 6L15 6L15 8L16 8L16 9L18 9L18 8L17 8L17 7L18 7L18 5L17 5L17 4ZM25 5L25 8L28 8L28 5ZM31 5L31 6L32 6L32 8L33 8L33 11L35 11L35 10L34 10L34 8L33 8L33 6L32 6L32 5ZM11 6L11 7L12 7L12 8L14 8L14 6L13 6L13 7L12 7L12 6ZM26 6L26 7L27 7L27 6ZM36 6L36 7L37 7L37 6ZM41 6L41 8L42 8L42 9L43 9L43 8L42 8L42 6ZM44 6L44 7L45 7L45 6ZM0 8L0 9L2 9L2 10L0 10L0 12L2 12L2 10L3 10L3 11L4 11L4 12L3 12L3 13L4 13L4 12L5 12L5 14L6 14L6 15L8 15L8 16L5 16L5 15L4 15L4 14L3 14L3 17L4 17L4 16L5 16L5 17L9 17L9 19L8 19L8 20L9 20L9 23L10 23L10 20L11 20L11 18L12 18L12 17L13 17L13 18L14 18L14 17L13 17L13 16L14 16L14 15L12 15L12 14L13 14L13 13L12 13L12 14L11 14L11 13L9 13L9 12L10 12L10 11L8 11L8 10L9 10L9 8L6 8L6 9L7 9L7 10L6 10L6 11L4 11L4 10L5 10L5 8ZM47 8L47 10L46 10L46 11L47 11L47 12L48 12L48 13L49 13L49 14L48 14L48 16L47 16L47 17L49 17L49 16L50 16L50 17L51 17L51 16L52 16L52 15L51 15L51 16L50 16L50 15L49 15L49 14L51 14L51 12L50 12L50 11L51 11L51 10L53 10L53 9L52 9L52 8L51 8L51 9L50 9L50 8L49 8L49 9L48 9L48 8ZM3 9L3 10L4 10L4 9ZM22 9L22 10L21 10L21 11L20 11L20 10L19 10L19 12L20 12L20 13L22 13L22 14L23 14L23 15L24 15L24 16L23 16L23 17L22 17L22 18L23 18L23 19L24 19L24 20L26 20L26 19L27 19L27 16L26 16L26 15L27 15L27 14L28 14L28 13L25 13L25 15L24 15L24 14L23 14L23 13L22 13L22 10L23 10L23 9ZM26 10L26 11L24 11L24 12L26 12L26 11L27 11L27 12L28 12L28 11L27 11L27 10ZM47 10L47 11L48 11L48 12L49 12L49 13L50 13L50 12L49 12L49 11L48 11L48 10ZM6 11L6 12L7 12L7 13L6 13L6 14L8 14L8 15L9 15L9 16L10 16L10 18L11 18L11 16L12 16L12 15L11 15L11 14L10 14L10 15L9 15L9 13L8 13L8 11ZM11 11L11 12L12 12L12 11ZM42 11L42 12L43 12L43 11ZM30 13L30 14L31 14L31 13ZM30 15L30 16L31 16L31 17L29 17L29 16L28 16L28 18L31 18L31 17L32 17L32 18L33 18L33 17L32 17L32 16L31 16L31 15ZM34 15L34 16L35 16L35 15ZM24 16L24 17L26 17L26 16ZM15 17L15 18L16 18L16 17ZM52 17L52 18L53 18L53 17ZM1 18L1 19L2 19L2 18ZM6 18L6 19L7 19L7 18ZM20 18L20 19L21 19L21 20L20 20L20 21L19 21L19 22L18 22L18 23L17 23L17 24L18 24L18 25L16 25L16 26L15 26L15 27L16 27L16 28L15 28L15 29L14 29L14 30L15 30L15 32L17 32L17 33L18 33L18 32L17 32L17 31L18 31L18 29L19 29L19 31L20 31L20 29L21 29L21 30L26 30L26 31L25 31L25 33L26 33L26 31L29 31L29 32L27 32L27 34L25 34L25 36L24 36L24 37L26 37L26 38L24 38L24 39L26 39L26 40L25 40L25 41L22 41L22 43L23 43L23 42L25 42L25 43L26 43L26 42L25 42L25 41L26 41L26 40L27 40L27 38L28 38L28 39L30 39L30 40L29 40L29 41L27 41L27 42L28 42L28 43L29 43L29 42L31 42L31 41L32 41L32 40L35 40L35 38L34 38L34 36L33 36L33 35L32 35L32 34L31 34L31 33L32 33L32 31L31 31L31 33L29 33L29 32L30 32L30 31L29 31L29 30L32 30L32 29L29 29L29 26L31 26L31 27L30 27L30 28L33 28L33 30L34 30L34 31L33 31L33 32L34 32L34 31L35 31L35 30L34 30L34 27L35 27L35 28L36 28L36 31L37 31L37 30L38 30L38 31L39 31L39 30L40 30L40 29L39 29L39 30L38 30L38 29L37 29L37 28L38 28L38 27L39 27L39 28L41 28L41 30L43 30L43 31L42 31L42 32L44 32L44 30L43 30L43 29L42 29L42 28L43 28L43 27L39 27L39 26L40 26L40 25L39 25L39 24L42 24L42 23L41 23L41 22L38 22L38 20L36 20L36 21L37 21L37 22L36 22L36 23L38 23L38 25L39 25L39 26L38 26L38 27L37 27L37 26L36 26L36 25L37 25L37 24L35 24L35 26L33 26L33 25L34 25L34 23L35 23L35 22L34 22L34 21L32 21L32 22L31 22L31 20L33 20L33 19L31 19L31 20L30 20L30 19L29 19L29 20L30 20L30 22L31 22L31 23L27 23L27 22L28 22L28 20L27 20L27 21L24 21L24 22L23 22L23 21L22 21L22 19L21 19L21 18ZM24 18L24 19L26 19L26 18ZM48 18L48 19L49 19L49 20L48 20L48 21L49 21L49 22L51 22L51 20L53 20L53 19L51 19L51 20L50 20L50 18ZM49 20L49 21L50 21L50 20ZM20 21L20 23L21 23L21 22L22 22L22 23L23 23L23 24L22 24L22 25L20 25L20 24L19 24L19 26L17 26L17 27L19 27L19 29L20 29L20 27L21 27L21 26L22 26L22 27L23 27L23 28L22 28L22 29L24 29L24 27L23 27L23 26L24 26L24 25L23 25L23 24L24 24L24 23L26 23L26 24L27 24L27 23L26 23L26 22L24 22L24 23L23 23L23 22L22 22L22 21ZM52 21L52 22L53 22L53 21ZM4 22L4 24L7 24L7 23L6 23L6 22ZM32 22L32 23L34 23L34 22ZM44 22L44 23L45 23L45 22ZM32 24L32 25L33 25L33 24ZM49 24L49 25L50 25L50 24ZM51 24L51 25L52 25L52 24ZM5 25L5 28L8 28L8 25ZM22 25L22 26L23 26L23 25ZM25 25L25 28L28 28L28 25ZM45 25L45 28L48 28L48 25ZM6 26L6 27L7 27L7 26ZM19 26L19 27L20 27L20 26ZM26 26L26 27L27 27L27 26ZM35 26L35 27L36 27L36 28L37 28L37 27L36 27L36 26ZM46 26L46 27L47 27L47 26ZM49 28L49 29L50 29L50 28ZM2 29L2 30L1 30L1 31L0 31L0 33L1 33L1 31L2 31L2 30L3 30L3 29ZM15 29L15 30L16 30L16 31L17 31L17 29ZM26 29L26 30L27 30L27 29ZM28 29L28 30L29 30L29 29ZM13 31L13 32L14 32L14 31ZM40 31L40 32L41 32L41 31ZM45 31L45 34L44 34L44 35L43 35L43 36L41 36L41 35L40 35L40 34L43 34L43 33L39 33L39 32L38 32L38 33L37 33L37 32L35 32L35 33L37 33L37 36L36 36L36 34L34 34L34 35L35 35L35 36L36 36L36 37L38 37L38 35L40 35L40 36L41 36L41 39L40 39L40 38L38 38L38 39L40 39L40 40L42 40L42 41L41 41L41 42L43 42L43 40L44 40L44 39L45 39L45 38L44 38L44 39L42 39L42 38L43 38L43 36L44 36L44 37L48 37L48 36L47 36L47 35L46 35L46 32L47 32L47 33L48 33L48 32L47 32L47 31ZM13 33L13 34L14 34L14 33ZM15 33L15 34L16 34L16 33ZM28 33L28 34L29 34L29 35L28 35L28 36L29 36L29 35L31 35L31 34L29 34L29 33ZM38 33L38 34L39 34L39 33ZM0 34L0 35L1 35L1 36L0 36L0 37L1 37L1 38L0 38L0 39L1 39L1 38L2 38L2 37L1 37L1 36L2 36L2 35L1 35L1 34ZM45 35L45 36L46 36L46 35ZM50 35L50 36L52 36L52 35ZM6 36L6 37L7 37L7 36ZM26 36L26 37L27 37L27 36ZM31 36L31 38L30 38L30 39L32 39L32 37L33 37L33 36ZM36 38L36 39L37 39L37 38ZM30 40L30 41L31 41L31 40ZM52 40L52 42L53 42L53 40ZM38 42L38 43L39 43L39 44L38 44L38 45L39 45L39 44L41 44L41 43L40 43L40 42ZM42 43L42 44L43 44L43 43ZM17 44L17 45L16 45L16 46L18 46L18 47L17 47L17 48L18 48L18 49L19 49L19 51L20 51L20 52L21 52L21 51L20 51L20 50L22 50L22 51L24 51L24 52L25 52L25 51L26 51L26 52L27 52L27 51L26 51L26 50L27 50L27 49L26 49L26 50L25 50L25 51L24 51L24 50L22 50L22 49L24 49L24 48L23 48L23 46L22 46L22 49L20 49L20 48L21 48L21 45L20 45L20 44L19 44L19 45L18 45L18 44ZM36 44L36 45L37 45L37 44ZM49 44L49 45L50 45L50 44ZM10 45L10 46L9 46L9 47L10 47L10 48L11 48L11 47L12 47L12 46L11 46L11 45ZM19 45L19 46L20 46L20 45ZM25 45L25 48L28 48L28 45ZM45 45L45 48L48 48L48 45ZM10 46L10 47L11 47L11 46ZM26 46L26 47L27 47L27 46ZM34 46L34 48L35 48L35 46ZM40 46L40 47L41 47L41 46ZM46 46L46 47L47 47L47 46ZM32 47L32 48L33 48L33 47ZM49 48L49 49L47 49L47 50L46 50L46 49L45 49L45 50L42 50L42 51L43 51L43 52L44 52L44 51L45 51L45 50L46 50L46 52L47 52L47 51L48 51L48 50L49 50L49 51L50 51L50 52L51 52L51 51L50 51L50 50L49 50L49 49L50 49L50 48ZM36 52L36 53L37 53L37 52ZM0 0L0 7L7 7L7 0ZM1 1L1 6L6 6L6 1ZM2 2L2 5L5 5L5 2ZM46 0L46 7L53 7L53 0ZM47 1L47 6L52 6L52 1ZM48 2L48 5L51 5L51 2ZM0 46L0 53L7 53L7 46ZM1 47L1 52L6 52L6 47ZM2 48L2 51L5 51L5 48Z" fill="#000000"/></g></g></svg>
