<?xml version="1.0" encoding="UTF-8"?>
<svg xmlns="http://www.w3.org/2000/svg" version="1.1" width="400" height="400" viewBox="0 0 400 400"><rect x="0" y="0" width="400" height="400" fill="#fefefe"/><g transform="scale(4.706)"><g transform="translate(4,4)"><path fill-rule="evenodd" d="M13 0L13 1L15 1L15 0ZM18 0L18 1L16 1L16 2L15 2L15 3L14 3L14 4L12 4L12 5L10 5L10 7L9 7L9 6L8 6L8 9L7 9L7 8L3 8L3 9L2 9L2 8L1 8L1 9L0 9L0 10L3 10L3 11L4 11L4 12L2 12L2 11L1 11L1 12L2 12L2 13L3 13L3 14L4 14L4 16L1 16L1 19L0 19L0 24L1 24L1 26L0 26L0 27L1 27L1 28L0 28L0 29L1 29L1 28L2 28L2 27L1 27L1 26L3 26L3 25L4 25L4 27L3 27L3 28L4 28L4 29L2 29L2 30L0 30L0 32L4 32L4 33L5 33L5 34L3 34L3 33L0 33L0 34L1 34L1 35L4 35L4 36L1 36L1 37L2 37L2 38L1 38L1 39L2 39L2 38L4 38L4 42L3 42L3 43L2 43L2 45L1 45L1 46L3 46L3 47L4 47L4 51L5 51L5 52L3 52L3 51L1 51L1 50L0 50L0 52L2 52L2 53L0 53L0 54L1 54L1 55L0 55L0 56L1 56L1 55L2 55L2 56L3 56L3 60L2 60L2 59L0 59L0 60L2 60L2 61L3 61L3 60L6 60L6 61L5 61L5 62L3 62L3 63L2 63L2 62L0 62L0 66L1 66L1 67L2 67L2 66L4 66L4 68L1 68L1 69L5 69L5 67L7 67L7 66L5 66L5 65L4 65L4 64L5 64L5 63L9 63L9 64L10 64L10 66L9 66L9 65L8 65L8 64L6 64L6 65L8 65L8 67L9 67L9 68L10 68L10 66L11 66L11 62L13 62L13 63L14 63L14 64L13 64L13 65L12 65L12 66L13 66L13 67L12 67L12 68L11 68L11 69L10 69L10 70L9 70L9 69L8 69L8 70L9 70L9 71L8 71L8 74L9 74L9 75L8 75L8 76L9 76L9 77L13 77L13 76L14 76L14 77L18 77L18 76L19 76L19 77L21 77L21 74L20 74L20 73L22 73L22 74L23 74L23 75L25 75L25 77L26 77L26 76L27 76L27 77L29 77L29 76L32 76L32 73L30 73L30 72L29 72L29 71L32 71L32 72L33 72L33 69L34 69L34 68L35 68L35 69L36 69L36 71L35 71L35 73L36 73L36 76L37 76L37 77L39 77L39 76L40 76L40 77L44 77L44 76L45 76L45 75L46 75L46 77L49 77L49 76L50 76L50 77L54 77L54 76L55 76L55 75L58 75L58 74L60 74L60 76L58 76L58 77L64 77L64 76L65 76L65 75L66 75L66 77L69 77L69 76L71 76L71 77L75 77L75 76L76 76L76 75L77 75L77 74L76 74L76 73L77 73L77 72L76 72L76 71L77 71L77 65L76 65L76 64L75 64L75 63L77 63L77 62L75 62L75 59L74 59L74 58L75 58L75 57L76 57L76 58L77 58L77 55L75 55L75 54L77 54L77 53L75 53L75 54L73 54L73 53L74 53L74 52L75 52L75 50L76 50L76 49L77 49L77 48L76 48L76 49L75 49L75 48L73 48L73 47L74 47L74 46L75 46L75 45L76 45L76 47L77 47L77 42L75 42L75 45L73 45L73 46L71 46L71 44L73 44L73 41L76 41L76 39L74 39L74 38L76 38L76 37L77 37L77 36L76 36L76 35L75 35L75 36L74 36L74 34L75 34L75 33L74 33L74 32L73 32L73 33L72 33L72 32L70 32L70 30L71 30L71 29L72 29L72 31L74 31L74 30L73 30L73 29L77 29L77 28L74 28L74 27L75 27L75 25L77 25L77 24L76 24L76 23L77 23L77 20L76 20L76 21L75 21L75 19L77 19L77 17L75 17L75 19L74 19L74 14L75 14L75 16L77 16L77 10L75 10L75 9L76 9L76 8L75 8L75 9L74 9L74 8L72 8L72 9L71 9L71 8L69 8L69 9L68 9L68 10L67 10L67 11L68 11L68 10L69 10L69 9L71 9L71 11L69 11L69 12L67 12L67 13L66 13L66 9L67 9L67 8L68 8L68 7L69 7L69 6L68 6L68 7L67 7L67 5L69 5L69 1L68 1L68 4L66 4L66 3L65 3L65 4L63 4L63 3L64 3L64 2L62 2L62 1L60 1L60 3L61 3L61 4L60 4L60 5L59 5L59 4L56 4L56 3L58 3L58 2L59 2L59 0L58 0L58 2L56 2L56 1L54 1L54 0L52 0L52 1L53 1L53 2L51 2L51 1L50 1L50 0L47 0L47 3L48 3L48 4L46 4L46 7L45 7L45 6L44 6L44 8L43 8L43 4L44 4L44 2L46 2L46 0L45 0L45 1L40 1L40 0L38 0L38 2L37 2L37 1L36 1L36 2L34 2L34 5L33 5L33 4L32 4L32 3L33 3L33 2L32 2L32 0L31 0L31 1L29 1L29 0L25 0L25 1L23 1L23 2L22 2L22 1L21 1L21 0ZM33 0L33 1L34 1L34 0ZM64 0L64 1L65 1L65 0ZM8 1L8 2L10 2L10 1ZM18 1L18 2L20 2L20 3L19 3L19 4L18 4L18 3L15 3L15 4L14 4L14 5L13 5L13 7L12 7L12 6L11 6L11 7L12 7L12 8L11 8L11 9L12 9L12 10L13 10L13 9L15 9L15 8L17 8L17 7L18 7L18 8L19 8L19 10L20 10L20 11L19 11L19 12L20 12L20 11L21 11L21 12L22 12L22 14L21 14L21 13L20 13L20 16L19 16L19 17L18 17L18 18L17 18L17 17L16 17L16 16L15 16L15 17L14 17L14 18L15 18L15 17L16 17L16 20L15 20L15 19L14 19L14 21L13 21L13 22L15 22L15 24L16 24L16 25L17 25L17 26L15 26L15 25L14 25L14 26L15 26L15 27L14 27L14 28L13 28L13 24L14 24L14 23L13 23L13 24L12 24L12 22L10 22L10 21L9 21L9 20L10 20L10 19L11 19L11 20L12 20L12 19L11 19L11 18L12 18L12 17L13 17L13 16L14 16L14 14L16 14L16 13L14 13L14 12L13 12L13 11L12 11L12 12L11 12L11 14L12 14L12 12L13 12L13 16L12 16L12 15L10 15L10 13L8 13L8 14L7 14L7 13L6 13L6 12L7 12L7 11L8 11L8 12L9 12L9 11L8 11L8 10L9 10L9 9L10 9L10 8L9 8L9 9L8 9L8 10L7 10L7 9L5 9L5 10L7 10L7 11L6 11L6 12L4 12L4 13L5 13L5 18L7 18L7 19L5 19L5 20L3 20L3 23L4 23L4 24L7 24L7 23L9 23L9 22L10 22L10 25L9 25L9 26L10 26L10 27L9 27L9 28L10 28L10 27L12 27L12 28L11 28L11 29L9 29L9 33L8 33L8 32L7 32L7 31L4 31L4 32L7 32L7 33L6 33L6 34L7 34L7 35L6 35L6 36L7 36L7 37L4 37L4 38L5 38L5 40L7 40L7 39L8 39L8 41L5 41L5 42L4 42L4 43L5 43L5 44L3 44L3 46L4 46L4 45L5 45L5 44L7 44L7 45L6 45L6 46L9 46L9 51L8 51L8 54L9 54L9 53L12 53L12 54L11 54L11 55L8 55L8 56L7 56L7 55L6 55L6 54L7 54L7 53L5 53L5 55L6 55L6 56L5 56L5 57L6 57L6 58L7 58L7 57L9 57L9 58L10 58L10 59L8 59L8 60L7 60L7 59L6 59L6 60L7 60L7 61L6 61L6 62L8 62L8 60L9 60L9 62L11 62L11 61L10 61L10 59L12 59L12 60L13 60L13 59L12 59L12 55L13 55L13 53L15 53L15 54L14 54L14 56L16 56L16 57L15 57L15 58L14 58L14 59L15 59L15 58L17 58L17 57L19 57L19 56L18 56L18 55L17 55L17 56L16 56L16 55L15 55L15 54L18 54L18 53L17 53L17 52L19 52L19 51L18 51L18 50L16 50L16 48L15 48L15 49L14 49L14 47L13 47L13 46L14 46L14 45L15 45L15 47L18 47L18 48L17 48L17 49L18 49L18 48L19 48L19 50L20 50L20 52L22 52L22 53L21 53L21 54L22 54L22 56L21 56L21 55L20 55L20 53L19 53L19 55L20 55L20 57L22 57L22 58L24 58L24 57L25 57L25 54L24 54L24 53L25 53L25 52L24 52L24 51L23 51L23 52L22 52L22 50L23 50L23 48L24 48L24 45L25 45L25 44L26 44L26 45L28 45L28 44L29 44L29 46L31 46L31 47L32 47L32 46L33 46L33 45L34 45L34 44L33 44L33 43L35 43L35 44L36 44L36 43L37 43L37 46L38 46L38 47L36 47L36 46L35 46L35 47L36 47L36 49L35 49L35 48L34 48L34 49L33 49L33 48L32 48L32 50L30 50L30 51L32 51L32 52L31 52L31 53L30 53L30 52L29 52L29 55L27 55L27 56L28 56L28 57L27 57L27 60L26 60L26 58L25 58L25 59L20 59L20 58L18 58L18 59L16 59L16 60L15 60L15 61L13 61L13 62L14 62L14 63L16 63L16 64L15 64L15 65L14 65L14 66L15 66L15 65L16 65L16 67L17 67L17 69L15 69L15 70L14 70L14 68L15 68L15 67L13 67L13 68L12 68L12 69L11 69L11 70L10 70L10 71L11 71L11 72L10 72L10 73L9 73L9 74L11 74L11 75L10 75L10 76L11 76L11 75L12 75L12 74L14 74L14 75L17 75L17 76L18 76L18 75L20 75L20 74L17 74L17 73L18 73L18 72L17 72L17 73L16 73L16 72L15 72L15 71L19 71L19 72L22 72L22 71L20 71L20 68L21 68L21 67L20 67L20 66L19 66L19 64L20 64L20 65L21 65L21 64L22 64L22 65L23 65L23 67L22 67L22 68L28 68L28 67L29 67L29 66L31 66L31 67L30 67L30 70L32 70L32 69L31 69L31 68L32 68L32 67L33 67L33 66L34 66L34 67L36 67L36 66L37 66L37 67L38 67L38 66L39 66L39 65L40 65L40 67L39 67L39 69L38 69L38 68L37 68L37 69L38 69L38 70L37 70L37 71L38 71L38 72L37 72L37 76L39 76L39 75L40 75L40 73L44 73L44 74L42 74L42 75L41 75L41 76L43 76L43 75L45 75L45 74L48 74L48 75L47 75L47 76L49 76L49 74L48 74L48 73L45 73L45 72L44 72L44 71L43 71L43 70L42 70L42 68L41 68L41 66L42 66L42 67L43 67L43 68L44 68L44 70L46 70L46 69L45 69L45 68L50 68L50 67L51 67L51 68L52 68L52 69L51 69L51 70L53 70L53 71L51 71L51 72L53 72L53 74L52 74L52 75L53 75L53 76L54 76L54 72L53 72L53 71L54 71L54 70L55 70L55 72L56 72L56 73L55 73L55 74L57 74L57 73L58 73L58 69L60 69L60 72L59 72L59 73L62 73L62 75L61 75L61 76L62 76L62 75L63 75L63 76L64 76L64 75L63 75L63 73L64 73L64 74L65 74L65 73L64 73L64 72L65 72L65 71L66 71L66 70L65 70L65 69L66 69L66 68L70 68L70 67L68 67L68 64L69 64L69 61L70 61L70 62L71 62L71 63L70 63L70 65L69 65L69 66L70 66L70 65L71 65L71 66L72 66L72 67L73 67L73 66L74 66L74 67L75 67L75 68L74 68L74 69L73 69L73 70L74 70L74 71L73 71L73 72L75 72L75 71L76 71L76 70L74 70L74 69L75 69L75 68L76 68L76 67L75 67L75 66L76 66L76 65L75 65L75 64L74 64L74 63L75 63L75 62L74 62L74 60L73 60L73 62L72 62L72 61L71 61L71 59L73 59L73 58L74 58L74 57L72 57L72 58L70 58L70 57L69 57L69 58L68 58L68 57L66 57L66 60L64 60L64 59L60 59L60 60L62 60L62 62L63 62L63 61L65 61L65 62L64 62L64 63L63 63L63 64L62 64L62 63L60 63L60 62L61 62L61 61L59 61L59 60L58 60L58 59L57 59L57 60L56 60L56 58L59 58L59 56L60 56L60 57L61 57L61 55L62 55L62 57L63 57L63 54L64 54L64 58L65 58L65 56L68 56L68 55L69 55L69 54L68 54L68 53L69 53L69 52L70 52L70 53L71 53L71 51L67 51L67 50L68 50L68 48L67 48L67 47L68 47L68 46L67 46L67 47L66 47L66 48L65 48L65 47L62 47L62 45L63 45L63 43L62 43L62 41L64 41L64 43L65 43L65 44L64 44L64 45L65 45L65 46L66 46L66 45L68 45L68 44L69 44L69 45L70 45L70 43L68 43L68 42L69 42L69 41L71 41L71 43L72 43L72 41L71 41L71 40L72 40L72 38L73 38L73 37L74 37L74 36L72 36L72 33L71 33L71 34L70 34L70 35L69 35L69 36L67 36L67 35L66 35L66 37L65 37L65 39L64 39L64 40L62 40L62 39L63 39L63 38L64 38L64 37L63 37L63 36L65 36L65 32L67 32L67 33L66 33L66 34L68 34L68 32L67 32L67 30L68 30L68 31L69 31L69 29L66 29L66 28L67 28L67 25L66 25L66 24L65 24L65 25L64 25L64 27L63 27L63 25L62 25L62 24L64 24L64 23L66 23L66 22L65 22L65 21L66 21L66 20L67 20L67 19L68 19L68 20L69 20L69 21L67 21L67 24L68 24L68 23L69 23L69 22L72 22L72 21L73 21L73 22L74 22L74 23L73 23L73 24L75 24L75 23L76 23L76 22L74 22L74 21L73 21L73 20L74 20L74 19L73 19L73 18L72 18L72 20L71 20L71 17L73 17L73 15L72 15L72 16L71 16L71 15L70 15L70 18L69 18L69 19L68 19L68 18L66 18L66 17L69 17L69 14L66 14L66 13L65 13L65 14L64 14L64 15L63 15L63 14L62 14L62 15L61 15L61 13L58 13L58 12L59 12L59 8L60 8L60 9L61 9L61 10L60 10L60 12L62 12L62 13L63 13L63 12L65 12L65 11L63 11L63 10L64 10L64 8L67 8L67 7L66 7L66 6L65 6L65 7L64 7L64 5L63 5L63 4L61 4L61 5L60 5L60 6L59 6L59 8L58 8L58 6L57 6L57 5L55 5L55 9L53 9L53 8L54 8L54 2L53 2L53 3L51 3L51 2L50 2L50 3L49 3L49 2L48 2L48 3L49 3L49 4L51 4L51 7L52 7L52 8L51 8L51 9L48 9L48 10L46 10L46 8L44 8L44 9L43 9L43 8L42 8L42 6L41 6L41 7L40 7L40 5L41 5L41 4L43 4L43 3L42 3L42 2L40 2L40 1L39 1L39 2L40 2L40 3L41 3L41 4L40 4L40 5L39 5L39 7L38 7L38 5L36 5L36 3L35 3L35 7L34 7L34 6L33 6L33 5L32 5L32 4L31 4L31 5L32 5L32 6L31 6L31 8L33 8L33 9L30 9L30 10L28 10L28 11L26 11L26 10L25 10L25 12L22 12L22 11L21 11L21 10L22 10L22 9L21 9L21 8L20 8L20 6L21 6L21 7L22 7L22 8L23 8L23 10L24 10L24 8L23 8L23 7L24 7L24 5L22 5L22 4L21 4L21 3L22 3L22 2L21 2L21 1ZM25 1L25 2L23 2L23 3L25 3L25 4L26 4L26 1ZM27 1L27 2L29 2L29 3L27 3L27 4L30 4L30 2L29 2L29 1ZM66 1L66 2L67 2L67 1ZM11 2L11 3L13 3L13 2ZM8 3L8 5L9 5L9 3ZM15 4L15 5L16 5L16 7L17 7L17 4ZM19 4L19 5L20 5L20 4ZM52 4L52 7L53 7L53 4ZM65 4L65 5L66 5L66 4ZM25 5L25 8L28 8L28 5ZM47 5L47 8L50 8L50 5ZM62 5L62 7L61 7L61 6L60 6L60 7L61 7L61 8L62 8L62 9L63 9L63 8L64 8L64 7L63 7L63 5ZM14 6L14 7L15 7L15 6ZM18 6L18 7L19 7L19 6ZM22 6L22 7L23 7L23 6ZM26 6L26 7L27 7L27 6ZM29 6L29 7L30 7L30 6ZM32 6L32 7L33 7L33 8L34 8L34 9L33 9L33 10L35 10L35 9L36 9L36 11L35 11L35 13L34 13L34 11L32 11L32 10L31 10L31 13L30 13L30 12L29 12L29 11L28 11L28 12L26 12L26 13L27 13L27 14L25 14L25 13L23 13L23 15L25 15L25 17L22 17L22 16L21 16L21 17L22 17L22 20L20 20L20 21L18 21L18 20L19 20L19 19L21 19L21 18L18 18L18 19L17 19L17 22L18 22L18 23L20 23L20 26L19 26L19 25L18 25L18 26L19 26L19 27L18 27L18 29L19 29L19 36L18 36L18 35L17 35L17 36L16 36L16 35L15 35L15 34L16 34L16 33L15 33L15 34L14 34L14 33L13 33L13 36L12 36L12 37L13 37L13 38L12 38L12 39L11 39L11 37L10 37L10 36L11 36L11 35L10 35L10 36L8 36L8 37L7 37L7 38L6 38L6 39L7 39L7 38L10 38L10 39L11 39L11 40L12 40L12 42L13 42L13 41L14 41L14 42L15 42L15 43L14 43L14 44L15 44L15 45L16 45L16 44L17 44L17 45L19 45L19 44L18 44L18 43L16 43L16 41L17 41L17 42L19 42L19 43L20 43L20 41L22 41L22 42L21 42L21 44L25 44L25 43L27 43L27 42L28 42L28 43L30 43L30 41L31 41L31 40L32 40L32 41L33 41L33 42L35 42L35 43L36 43L36 41L35 41L35 40L38 40L38 42L37 42L37 43L38 43L38 42L39 42L39 43L40 43L40 42L41 42L41 43L42 43L42 44L41 44L41 46L40 46L40 45L39 45L39 48L38 48L38 50L37 50L37 49L36 49L36 50L34 50L34 51L33 51L33 52L34 52L34 51L35 51L35 52L36 52L36 53L35 53L35 54L36 54L36 55L35 55L35 56L34 56L34 53L33 53L33 54L32 54L32 53L31 53L31 54L32 54L32 56L30 56L30 57L28 57L28 58L31 58L31 60L34 60L34 61L33 61L33 64L30 64L30 62L29 62L29 61L30 61L30 60L29 60L29 61L28 61L28 62L27 62L27 61L26 61L26 60L25 60L25 61L26 61L26 62L23 62L23 60L22 60L22 62L21 62L21 61L19 61L19 60L20 60L20 59L19 59L19 60L18 60L18 61L17 61L17 60L16 60L16 63L17 63L17 65L18 65L18 63L20 63L20 64L21 64L21 63L25 63L25 65L24 65L24 67L25 67L25 65L27 65L27 67L28 67L28 62L29 62L29 65L32 65L32 66L33 66L33 65L34 65L34 64L35 64L35 66L36 66L36 65L39 65L39 62L40 62L40 64L42 64L42 63L44 63L44 65L45 65L45 66L43 66L43 65L42 65L42 66L43 66L43 67L48 67L48 66L47 66L47 65L48 65L48 64L49 64L49 62L50 62L50 61L51 61L51 63L50 63L50 65L51 65L51 67L52 67L52 68L53 68L53 69L54 69L54 68L53 68L53 67L54 67L54 66L53 66L53 62L55 62L55 64L54 64L54 65L55 65L55 64L57 64L57 63L58 63L58 64L59 64L59 65L58 65L58 66L57 66L57 65L56 65L56 66L55 66L55 69L56 69L56 68L57 68L57 69L58 69L58 68L57 68L57 67L59 67L59 68L62 68L62 67L60 67L60 66L59 66L59 65L60 65L60 64L59 64L59 61L58 61L58 60L57 60L57 61L56 61L56 60L55 60L55 58L56 58L56 57L57 57L57 56L56 56L56 52L55 52L55 53L54 53L54 52L53 52L53 50L52 50L52 48L54 48L54 45L55 45L55 44L56 44L56 41L55 41L55 43L54 43L54 41L52 41L52 42L51 42L51 40L53 40L53 39L54 39L54 40L55 40L55 39L56 39L56 40L57 40L57 42L58 42L58 43L60 43L60 42L59 42L59 41L58 41L58 40L59 40L59 39L58 39L58 38L62 38L62 37L60 37L60 36L59 36L59 35L61 35L61 34L62 34L62 33L59 33L59 34L57 34L57 32L56 32L56 30L57 30L57 31L58 31L58 30L59 30L59 32L63 32L63 33L64 33L64 31L66 31L66 29L65 29L65 27L64 27L64 28L63 28L63 27L62 27L62 28L63 28L63 29L62 29L62 30L60 30L60 29L61 29L61 27L60 27L60 29L59 29L59 28L57 28L57 27L58 27L58 26L62 26L62 25L59 25L59 24L60 24L60 22L61 22L61 23L64 23L64 22L62 22L62 21L61 21L61 20L62 20L62 18L59 18L59 19L58 19L58 18L57 18L57 16L56 16L56 17L55 17L55 15L58 15L58 16L59 16L59 17L62 17L62 16L61 16L61 15L60 15L60 16L59 16L59 14L57 14L57 13L56 13L56 11L57 11L57 10L56 10L56 9L55 9L55 10L54 10L54 11L53 11L53 9L51 9L51 11L53 11L53 13L54 13L54 12L55 12L55 13L56 13L56 14L52 14L52 13L50 13L50 12L49 12L49 13L50 13L50 16L49 16L49 18L48 18L48 19L49 19L49 20L50 20L50 21L48 21L48 22L46 22L46 21L47 21L47 20L46 20L46 21L45 21L45 20L44 20L44 19L43 19L43 17L44 17L44 18L47 18L47 17L48 17L48 15L49 15L49 14L47 14L47 13L48 13L48 12L46 12L46 13L45 13L45 12L43 12L43 11L45 11L45 10L43 10L43 9L42 9L42 10L41 10L41 9L38 9L38 7L37 7L37 6L36 6L36 7L35 7L35 8L34 8L34 7L33 7L33 6ZM48 6L48 7L49 7L49 6ZM56 6L56 7L57 7L57 6ZM39 7L39 8L40 8L40 7ZM62 7L62 8L63 8L63 7ZM12 8L12 9L13 9L13 8ZM36 8L36 9L37 9L37 8ZM3 9L3 10L4 10L4 9ZM20 9L20 10L21 10L21 9ZM73 9L73 10L72 10L72 11L73 11L73 10L74 10L74 11L75 11L75 12L76 12L76 11L75 11L75 10L74 10L74 9ZM10 10L10 11L11 11L11 10ZM17 10L17 11L18 11L18 10ZM38 10L38 11L40 11L40 12L37 12L37 13L35 13L35 15L36 15L36 14L37 14L37 13L38 13L38 15L37 15L37 17L36 17L36 16L34 16L34 14L33 14L33 13L31 13L31 14L30 14L30 15L29 15L29 12L28 12L28 15L26 15L26 16L28 16L28 15L29 15L29 17L33 17L33 19L34 19L34 20L33 20L33 23L34 23L34 24L32 24L32 20L30 20L30 21L29 21L29 19L28 19L28 18L27 18L27 17L26 17L26 18L27 18L27 19L25 19L25 20L23 20L23 21L25 21L25 20L27 20L27 21L29 21L29 22L30 22L30 24L29 24L29 27L30 27L30 28L29 28L29 29L31 29L31 30L30 30L30 31L29 31L29 32L30 32L30 31L31 31L31 32L33 32L33 30L34 30L34 29L35 29L35 30L36 30L36 33L35 33L35 31L34 31L34 35L35 35L35 36L34 36L34 37L32 37L32 36L31 36L31 35L32 35L32 34L33 34L33 33L32 33L32 34L31 34L31 35L29 35L29 34L28 34L28 32L27 32L27 31L25 31L25 33L23 33L23 34L24 34L24 35L22 35L22 34L21 34L21 33L22 33L22 31L24 31L24 30L25 30L25 29L24 29L24 28L22 28L22 27L24 27L24 25L23 25L23 26L22 26L22 27L20 27L20 28L19 28L19 29L20 29L20 31L21 31L21 33L20 33L20 36L21 36L21 37L18 37L18 38L17 38L17 41L18 41L18 39L19 39L19 41L20 41L20 38L21 38L21 39L22 39L22 40L23 40L23 39L24 39L24 40L25 40L25 39L26 39L26 37L25 37L25 33L27 33L27 35L26 35L26 36L27 36L27 37L28 37L28 36L31 36L31 37L29 37L29 38L30 38L30 39L29 39L29 40L30 40L30 39L31 39L31 38L32 38L32 40L33 40L33 41L34 41L34 40L35 40L35 38L37 38L37 36L38 36L38 40L39 40L39 42L40 42L40 39L39 39L39 37L40 37L40 38L41 38L41 37L43 37L43 36L44 36L44 37L46 37L46 38L43 38L43 39L41 39L41 42L42 42L42 43L43 43L43 44L42 44L42 45L44 45L44 46L41 46L41 47L40 47L40 48L42 48L42 49L44 49L44 50L43 50L43 51L42 51L42 50L40 50L40 49L39 49L39 50L38 50L38 51L40 51L40 52L39 52L39 53L38 53L38 54L39 54L39 53L40 53L40 55L39 55L39 56L41 56L41 58L43 58L43 59L41 59L41 60L40 60L40 57L39 57L39 58L38 58L38 55L37 55L37 56L35 56L35 57L34 57L34 56L32 56L32 57L31 57L31 58L32 58L32 59L33 59L33 58L34 58L34 60L35 60L35 59L36 59L36 60L40 60L40 61L41 61L41 62L43 62L43 60L44 60L44 61L45 61L45 60L46 60L46 61L49 61L49 58L50 58L50 60L51 60L51 61L52 61L52 62L53 62L53 59L54 59L54 58L55 58L55 57L54 57L54 58L53 58L53 57L52 57L52 58L53 58L53 59L51 59L51 58L50 58L50 57L51 57L51 56L52 56L52 55L51 55L51 56L50 56L50 57L48 57L48 60L47 60L47 59L46 59L46 58L45 58L45 57L44 57L44 58L43 58L43 57L42 57L42 56L41 56L41 53L40 53L40 52L42 52L42 53L45 53L45 52L46 52L46 56L47 56L47 54L49 54L49 55L48 55L48 56L49 56L49 55L50 55L50 53L52 53L52 54L53 54L53 53L52 53L52 51L50 51L50 52L49 52L49 51L45 51L45 49L46 49L46 48L45 48L45 47L44 47L44 46L45 46L45 45L46 45L46 42L47 42L47 46L49 46L49 44L50 44L50 45L51 45L51 46L52 46L52 47L51 47L51 48L52 48L52 47L53 47L53 45L51 45L51 44L54 44L54 43L53 43L53 42L52 42L52 43L50 43L50 39L49 39L49 38L51 38L51 36L52 36L52 37L53 37L53 35L57 35L57 36L58 36L58 37L56 37L56 36L55 36L55 37L56 37L56 38L58 38L58 37L59 37L59 36L58 36L58 35L57 35L57 34L54 34L54 33L56 33L56 32L54 32L54 31L55 31L55 30L54 30L54 29L57 29L57 30L58 30L58 29L57 29L57 28L56 28L56 27L57 27L57 25L58 25L58 22L57 22L57 20L58 20L58 21L59 21L59 22L60 22L60 21L59 21L59 20L58 20L58 19L57 19L57 18L56 18L56 19L57 19L57 20L55 20L55 17L54 17L54 15L53 15L53 16L52 16L52 15L51 15L51 16L50 16L50 20L51 20L51 21L50 21L50 22L49 22L49 23L48 23L48 24L51 24L51 23L50 23L50 22L51 22L51 21L52 21L52 23L53 23L53 22L54 22L54 21L55 21L55 23L54 23L54 24L52 24L52 25L54 25L54 26L56 26L56 27L55 27L55 28L54 28L54 27L53 27L53 28L51 28L51 29L50 29L50 30L49 30L49 31L48 31L48 30L47 30L47 32L48 32L48 33L47 33L47 34L45 34L45 33L46 33L46 30L45 30L45 32L44 32L44 31L43 31L43 30L42 30L42 29L43 29L43 28L41 28L41 27L42 27L42 26L43 26L43 27L45 27L45 28L44 28L44 29L46 29L46 26L45 26L45 25L46 25L46 24L47 24L47 23L44 23L44 22L45 22L45 21L44 21L44 22L41 22L41 20L42 20L42 21L43 21L43 20L42 20L42 18L41 18L41 17L39 17L39 16L44 16L44 17L45 17L45 16L46 16L46 14L45 14L45 13L44 13L44 15L41 15L41 14L42 14L42 12L41 12L41 11L40 11L40 10ZM48 10L48 11L49 11L49 10ZM55 10L55 11L56 11L56 10ZM15 11L15 12L16 12L16 11ZM17 12L17 14L18 14L18 15L17 15L17 16L18 16L18 15L19 15L19 14L18 14L18 12ZM69 12L69 13L70 13L70 14L72 14L72 13L73 13L73 14L74 14L74 12L71 12L71 13L70 13L70 12ZM39 13L39 14L41 14L41 13ZM6 14L6 15L7 15L7 16L6 16L6 17L7 17L7 18L8 18L8 20L6 20L6 21L8 21L8 20L9 20L9 18L11 18L11 16L10 16L10 15L9 15L9 17L8 17L8 15L7 15L7 14ZM32 14L32 15L31 15L31 16L33 16L33 14ZM65 14L65 15L66 15L66 14ZM38 15L38 16L39 16L39 15ZM44 15L44 16L45 16L45 15ZM51 16L51 19L52 19L52 18L53 18L53 19L54 19L54 18L53 18L53 17L52 17L52 16ZM64 16L64 17L63 17L63 20L64 20L64 21L65 21L65 19L66 19L66 18L65 18L65 16ZM2 17L2 19L4 19L4 17ZM34 17L34 19L36 19L36 17ZM37 17L37 19L39 19L39 21L40 21L40 19L41 19L41 18L39 18L39 17ZM30 18L30 19L32 19L32 18ZM69 19L69 20L70 20L70 21L71 21L71 20L70 20L70 19ZM36 20L36 22L37 22L37 20ZM53 20L53 21L54 21L54 20ZM34 21L34 22L35 22L35 21ZM1 22L1 24L2 24L2 25L3 25L3 24L2 24L2 22ZM4 22L4 23L5 23L5 22ZM6 22L6 23L7 23L7 22ZM20 22L20 23L21 23L21 25L22 25L22 24L25 24L25 22L23 22L23 23L22 23L22 22ZM26 22L26 23L27 23L27 24L28 24L28 23L27 23L27 22ZM38 22L38 25L40 25L40 24L41 24L41 23L40 23L40 22ZM16 23L16 24L17 24L17 23ZM39 23L39 24L40 24L40 23ZM42 23L42 25L43 25L43 26L44 26L44 25L45 25L45 24L44 24L44 23ZM55 23L55 24L54 24L54 25L56 25L56 23ZM30 24L30 27L33 27L33 28L32 28L32 30L31 30L31 31L32 31L32 30L33 30L33 28L35 28L35 26L36 26L36 24L34 24L34 27L33 27L33 26L32 26L32 25L31 25L31 24ZM43 24L43 25L44 25L44 24ZM5 25L5 28L8 28L8 25ZM25 25L25 28L28 28L28 25ZM47 25L47 28L50 28L50 25ZM65 25L65 26L66 26L66 25ZM69 25L69 28L72 28L72 25ZM6 26L6 27L7 27L7 26ZM26 26L26 27L27 27L27 26ZM37 26L37 27L36 27L36 28L37 28L37 31L38 31L38 30L40 30L40 31L41 31L41 32L42 32L42 30L40 30L40 29L41 29L41 28L40 28L40 29L39 29L39 27L38 27L38 26ZM48 26L48 27L49 27L49 26ZM70 26L70 27L71 27L71 26ZM73 26L73 27L74 27L74 26ZM76 26L76 27L77 27L77 26ZM16 27L16 29L17 29L17 27ZM37 27L37 28L38 28L38 27ZM21 28L21 30L22 30L22 28ZM53 28L53 29L52 29L52 30L51 30L51 31L52 31L52 32L50 32L50 31L49 31L49 33L48 33L48 36L47 36L47 35L46 35L46 36L47 36L47 37L48 37L48 36L49 36L49 37L50 37L50 36L51 36L51 35L52 35L52 34L50 34L50 33L54 33L54 32L53 32L53 31L54 31L54 30L53 30L53 29L54 29L54 28ZM5 29L5 30L8 30L8 29ZM11 29L11 30L10 30L10 31L11 31L11 32L10 32L10 33L11 33L11 32L15 32L15 31L14 31L14 30L15 30L15 29L13 29L13 31L11 31L11 30L12 30L12 29ZM26 29L26 30L28 30L28 29ZM2 30L2 31L3 31L3 30ZM17 30L17 31L16 31L16 32L17 32L17 34L18 34L18 30ZM52 30L52 31L53 31L53 30ZM62 30L62 31L63 31L63 30ZM75 30L75 31L76 31L76 30ZM39 32L39 33L38 33L38 34L37 34L37 33L36 33L36 34L37 34L37 35L36 35L36 36L37 36L37 35L39 35L39 36L43 36L43 35L42 35L42 34L41 34L41 33L40 33L40 32ZM69 32L69 33L70 33L70 32ZM76 32L76 34L77 34L77 32ZM7 33L7 34L8 34L8 33ZM39 33L39 34L40 34L40 35L41 35L41 34L40 34L40 33ZM43 33L43 34L44 34L44 35L45 35L45 34L44 34L44 33ZM49 34L49 36L50 36L50 34ZM63 34L63 35L62 35L62 36L63 36L63 35L64 35L64 34ZM21 35L21 36L22 36L22 35ZM27 35L27 36L28 36L28 35ZM70 35L70 37L71 37L71 38L72 38L72 37L71 37L71 35ZM15 36L15 37L14 37L14 38L15 38L15 39L14 39L14 41L15 41L15 40L16 40L16 36ZM23 36L23 38L22 38L22 37L21 37L21 38L22 38L22 39L23 39L23 38L25 38L25 37L24 37L24 36ZM66 37L66 38L67 38L67 39L66 39L66 41L68 41L68 40L70 40L70 39L68 39L68 38L69 38L69 37ZM33 38L33 40L34 40L34 38ZM46 38L46 41L47 41L47 42L48 42L48 41L49 41L49 40L48 40L48 39L47 39L47 38ZM12 39L12 40L13 40L13 39ZM57 39L57 40L58 40L58 39ZM60 39L60 41L61 41L61 39ZM67 39L67 40L68 40L68 39ZM73 39L73 40L74 40L74 39ZM0 40L0 44L1 44L1 41L2 41L2 40ZM9 40L9 41L10 41L10 40ZM26 40L26 41L25 41L25 42L27 42L27 41L28 41L28 42L29 42L29 41L28 41L28 40ZM42 40L42 42L43 42L43 43L44 43L44 45L45 45L45 41L43 41L43 40ZM47 40L47 41L48 41L48 40ZM23 41L23 42L22 42L22 43L23 43L23 42L24 42L24 41ZM6 42L6 43L10 43L10 42ZM31 42L31 43L32 43L32 42ZM65 42L65 43L66 43L66 42ZM12 43L12 45L11 45L11 44L8 44L8 45L9 45L9 46L10 46L10 47L11 47L11 46L13 46L13 43ZM15 43L15 44L16 44L16 43ZM48 43L48 44L49 44L49 43ZM61 43L61 44L60 44L60 45L61 45L61 44L62 44L62 43ZM67 43L67 44L68 44L68 43ZM31 44L31 46L32 46L32 45L33 45L33 44ZM58 44L58 45L59 45L59 44ZM10 45L10 46L11 46L11 45ZM22 45L22 46L21 46L21 47L20 47L20 46L18 46L18 47L20 47L20 48L21 48L21 47L22 47L22 48L23 48L23 47L22 47L22 46L23 46L23 45ZM57 46L57 47L56 47L56 48L55 48L55 49L54 49L54 50L55 50L55 51L57 51L57 50L58 50L58 49L57 49L57 47L58 47L58 48L59 48L59 49L61 49L61 47L60 47L60 46L59 46L59 47L58 47L58 46ZM5 47L5 50L8 50L8 47ZM25 47L25 50L28 50L28 47ZM29 47L29 49L31 49L31 48L30 48L30 47ZM42 47L42 48L44 48L44 49L45 49L45 48L44 48L44 47ZM47 47L47 50L50 50L50 47ZM69 47L69 50L72 50L72 47ZM0 48L0 49L2 49L2 50L3 50L3 48ZM6 48L6 49L7 49L7 48ZM11 48L11 50L14 50L14 51L15 51L15 52L16 52L16 50L14 50L14 49L13 49L13 48ZM26 48L26 49L27 49L27 48ZM48 48L48 49L49 49L49 48ZM62 48L62 49L63 49L63 50L61 50L61 51L60 51L60 52L59 52L59 53L58 53L58 52L57 52L57 54L58 54L58 55L60 55L60 54L61 54L61 53L62 53L62 54L63 54L63 52L64 52L64 51L65 51L65 50L64 50L64 49L63 49L63 48ZM70 48L70 49L71 49L71 48ZM55 49L55 50L57 50L57 49ZM66 49L66 50L67 50L67 49ZM73 49L73 50L74 50L74 49ZM36 50L36 51L37 51L37 50ZM6 51L6 52L7 52L7 51ZM12 51L12 52L13 52L13 51ZM27 51L27 52L26 52L26 53L27 53L27 54L28 54L28 53L27 53L27 52L28 52L28 51ZM61 51L61 52L60 52L60 53L59 53L59 54L60 54L60 53L61 53L61 52L63 52L63 51ZM73 51L73 52L72 52L72 53L73 53L73 52L74 52L74 51ZM76 51L76 52L77 52L77 51ZM23 52L23 53L24 53L24 52ZM47 52L47 53L49 53L49 52ZM65 52L65 55L66 55L66 54L67 54L67 53L66 53L66 52ZM2 53L2 54L3 54L3 56L4 56L4 53ZM42 54L42 55L43 55L43 54ZM54 54L54 55L53 55L53 56L55 56L55 54ZM71 54L71 55L73 55L73 54ZM23 55L23 56L24 56L24 55ZM44 55L44 56L45 56L45 55ZM74 55L74 56L75 56L75 55ZM6 56L6 57L7 57L7 56ZM9 56L9 57L10 57L10 58L11 58L11 57L10 57L10 56ZM0 57L0 58L1 58L1 57ZM36 57L36 59L38 59L38 58L37 58L37 57ZM4 58L4 59L5 59L5 58ZM44 58L44 60L45 60L45 58ZM67 58L67 59L68 59L68 60L66 60L66 61L69 61L69 60L70 60L70 58L69 58L69 59L68 59L68 58ZM54 60L54 61L55 61L55 62L56 62L56 63L57 63L57 62L58 62L58 61L57 61L57 62L56 62L56 61L55 61L55 60ZM76 60L76 61L77 61L77 60ZM18 61L18 62L17 62L17 63L18 63L18 62L19 62L19 61ZM35 61L35 63L36 63L36 62L37 62L37 61ZM38 61L38 62L39 62L39 61ZM20 62L20 63L21 63L21 62ZM26 62L26 63L27 63L27 62ZM44 62L44 63L45 63L45 64L48 64L48 62L47 62L47 63L45 63L45 62ZM66 62L66 63L67 63L67 64L68 64L68 63L67 63L67 62ZM1 63L1 66L2 66L2 63ZM3 63L3 64L4 64L4 63ZM72 63L72 64L71 64L71 65L72 65L72 64L73 64L73 63ZM51 64L51 65L52 65L52 64ZM61 64L61 65L62 65L62 64ZM64 64L64 65L63 65L63 67L64 67L64 68L63 68L63 69L65 69L65 67L66 67L66 66L67 66L67 65L65 65L65 64ZM17 66L17 67L18 67L18 66ZM49 66L49 67L50 67L50 66ZM56 66L56 67L57 67L57 66ZM64 66L64 67L65 67L65 66ZM19 67L19 68L18 68L18 69L19 69L19 68L20 68L20 67ZM6 68L6 69L7 69L7 68ZM40 68L40 69L41 69L41 68ZM12 69L12 70L13 70L13 73L14 73L14 70L13 70L13 69ZM23 69L23 70L24 70L24 69ZM25 69L25 72L28 72L28 69ZM47 69L47 72L50 72L50 69ZM69 69L69 72L72 72L72 69ZM26 70L26 71L27 71L27 70ZM39 70L39 72L38 72L38 75L39 75L39 73L40 73L40 72L43 72L43 71L42 71L42 70L41 70L41 71L40 71L40 70ZM48 70L48 71L49 71L49 70ZM62 70L62 73L63 73L63 71L64 71L64 70ZM67 70L67 71L68 71L68 70ZM70 70L70 71L71 71L71 70ZM56 71L56 72L57 72L57 71ZM67 72L67 74L68 74L68 75L67 75L67 76L68 76L68 75L69 75L69 74L71 74L71 76L73 76L73 75L74 75L74 76L75 76L75 75L74 75L74 74L73 74L73 75L72 75L72 73L68 73L68 72ZM23 73L23 74L24 74L24 73ZM25 73L25 74L26 74L26 75L28 75L28 74L29 74L29 75L30 75L30 74L29 74L29 73ZM33 74L33 75L34 75L34 74ZM50 75L50 76L51 76L51 75ZM22 76L22 77L24 77L24 76ZM34 76L34 77L35 77L35 76ZM56 76L56 77L57 77L57 76ZM0 0L0 7L7 7L7 0ZM1 1L1 6L6 6L6 1ZM2 2L2 5L5 5L5 2ZM70 0L70 7L77 7L77 0ZM71 1L71 6L76 6L76 1ZM72 2L72 5L75 5L75 2ZM0 70L0 77L7 77L7 70ZM1 71L1 76L6 76L6 71ZM2 72L2 75L5 75L5 72Z" fill="#000000"/></g></g></svg>
