<?xml version="1.0" encoding="UTF-8"?>
<svg xmlns="http://www.w3.org/2000/svg" version="1.1" width="400" height="400" viewBox="0 0 400 400"><rect x="0" y="0" width="400" height="400" fill="#fefefe"/><g transform="scale(4.706)"><g transform="translate(4,4)"><path fill-rule="evenodd" d="M10 0L10 1L9 1L9 2L8 2L8 3L9 3L9 4L8 4L8 7L9 7L9 6L10 6L10 10L9 10L9 8L8 8L8 9L7 9L7 8L6 8L6 9L5 9L5 8L4 8L4 9L2 9L2 8L1 8L1 9L0 9L0 13L1 13L1 14L0 14L0 15L1 15L1 16L0 16L0 17L1 17L1 16L2 16L2 17L3 17L3 18L4 18L4 16L2 16L2 15L4 15L4 14L5 14L5 17L7 17L7 16L6 16L6 15L8 15L8 17L9 17L9 18L6 18L6 19L3 19L3 20L2 20L2 19L0 19L0 22L1 22L1 20L2 20L2 23L4 23L4 26L3 26L3 28L4 28L4 29L3 29L3 30L4 30L4 29L5 29L5 31L4 31L4 33L3 33L3 31L2 31L2 29L1 29L1 28L0 28L0 30L1 30L1 31L0 31L0 33L1 33L1 36L0 36L0 37L1 37L1 38L0 38L0 39L2 39L2 40L0 40L0 42L1 42L1 43L0 43L0 44L2 44L2 43L4 43L4 42L5 42L5 41L7 41L7 42L6 42L6 43L5 43L5 44L3 44L3 45L0 45L0 46L1 46L1 47L0 47L0 51L1 51L1 47L2 47L2 46L3 46L3 47L4 47L4 48L3 48L3 49L4 49L4 51L5 51L5 52L0 52L0 53L2 53L2 55L1 55L1 54L0 54L0 55L1 55L1 57L0 57L0 58L1 58L1 61L0 61L0 66L1 66L1 67L2 67L2 65L1 65L1 63L2 63L2 64L3 64L3 63L4 63L4 64L6 64L6 65L8 65L8 66L5 66L5 65L3 65L3 66L4 66L4 68L1 68L1 69L5 69L5 67L7 67L7 68L6 68L6 69L7 69L7 68L9 68L9 67L8 67L8 66L10 66L10 68L11 68L11 69L8 69L8 70L9 70L9 72L8 72L8 73L9 73L9 72L10 72L10 73L14 73L14 74L11 74L11 75L10 75L10 74L9 74L9 75L8 75L8 76L10 76L10 77L11 77L11 75L13 75L13 76L12 76L12 77L13 77L13 76L15 76L15 72L16 72L16 71L15 71L15 68L12 68L12 67L11 67L11 65L13 65L13 66L14 66L14 67L15 67L15 66L16 66L16 65L18 65L18 66L17 66L17 67L16 67L16 70L17 70L17 68L18 68L18 69L19 69L19 70L18 70L18 72L19 72L19 73L18 73L18 74L19 74L19 76L18 76L18 77L19 77L19 76L20 76L20 77L23 77L23 76L24 76L24 77L25 77L25 76L26 76L26 75L25 75L25 73L30 73L30 74L31 74L31 75L30 75L30 76L28 76L28 75L27 75L27 76L28 76L28 77L34 77L34 76L33 76L33 75L34 75L34 74L31 74L31 73L30 73L30 71L31 71L31 70L32 70L32 71L33 71L33 72L35 72L35 70L36 70L36 69L39 69L39 70L38 70L38 71L36 71L36 72L39 72L39 75L38 75L38 76L39 76L39 77L40 77L40 76L41 76L41 77L43 77L43 76L44 76L44 73L45 73L45 77L47 77L47 76L48 76L48 77L51 77L51 76L55 76L55 77L57 77L57 76L58 76L58 77L59 77L59 76L60 76L60 77L61 77L61 76L60 76L60 74L61 74L61 75L62 75L62 73L63 73L63 76L62 76L62 77L63 77L63 76L64 76L64 77L67 77L67 74L66 74L66 73L67 73L67 72L68 72L68 73L69 73L69 75L70 75L70 76L68 76L68 77L70 77L70 76L72 76L72 77L73 77L73 76L74 76L74 77L76 77L76 76L75 76L75 75L77 75L77 74L76 74L76 73L75 73L75 72L73 72L73 71L75 71L75 70L76 70L76 69L74 69L74 67L75 67L75 68L76 68L76 67L77 67L77 66L75 66L75 64L73 64L73 65L74 65L74 67L73 67L73 68L70 68L70 67L72 67L72 66L71 66L71 65L70 65L70 67L68 67L68 66L67 66L67 65L69 65L69 63L71 63L71 64L72 64L72 63L73 63L73 62L74 62L74 63L76 63L76 62L77 62L77 61L76 61L76 57L75 57L75 56L74 56L74 55L75 55L75 54L76 54L76 51L77 51L77 50L76 50L76 47L77 47L77 46L76 46L76 45L75 45L75 44L76 44L76 43L75 43L75 40L74 40L74 41L73 41L73 40L72 40L72 36L70 36L70 35L71 35L71 34L69 34L69 33L70 33L70 32L69 32L69 33L67 33L67 32L66 32L66 31L65 31L65 30L64 30L64 29L63 29L63 30L62 30L62 28L60 28L60 27L61 27L61 26L63 26L63 28L65 28L65 29L67 29L67 26L66 26L66 25L68 25L68 30L69 30L69 31L70 31L70 29L73 29L73 31L74 31L74 32L73 32L73 33L72 33L72 32L71 32L71 33L72 33L72 34L74 34L74 35L77 35L77 33L76 33L76 34L75 34L75 31L76 31L76 30L77 30L77 28L76 28L76 27L77 27L77 26L76 26L76 27L75 27L75 25L74 25L74 24L72 24L72 22L73 22L73 23L75 23L75 22L76 22L76 20L77 20L77 19L75 19L75 18L76 18L76 17L74 17L74 16L76 16L76 15L77 15L77 14L75 14L75 13L76 13L76 12L75 12L75 11L77 11L77 9L76 9L76 10L75 10L75 8L74 8L74 9L73 9L73 8L71 8L71 9L70 9L70 8L69 8L69 6L68 6L68 8L66 8L66 7L67 7L67 5L69 5L69 1L68 1L68 4L66 4L66 3L64 3L64 2L65 2L65 1L66 1L66 2L67 2L67 1L66 1L66 0L65 0L65 1L64 1L64 0L63 0L63 1L64 1L64 2L62 2L62 1L60 1L60 2L59 2L59 5L58 5L58 7L57 7L57 6L56 6L56 5L57 5L57 4L58 4L58 2L56 2L56 1L55 1L55 0L54 0L54 1L55 1L55 2L53 2L53 1L52 1L52 0L51 0L51 1L50 1L50 0L49 0L49 1L48 1L48 2L46 2L46 8L45 8L45 9L44 9L44 8L43 8L43 9L42 9L42 8L41 8L41 6L40 6L40 4L42 4L42 7L43 7L43 6L44 6L44 7L45 7L45 5L43 5L43 4L44 4L44 2L45 2L45 1L42 1L42 0L41 0L41 1L40 1L40 0L38 0L38 3L37 3L37 2L35 2L35 1L36 1L36 0L35 0L35 1L34 1L34 3L33 3L33 1L29 1L29 2L25 2L25 3L24 3L24 4L23 4L23 3L21 3L21 5L20 5L20 7L19 7L19 5L17 5L17 4L16 4L16 5L17 5L17 6L16 6L16 9L13 9L13 10L12 10L12 7L13 7L13 6L14 6L14 8L15 8L15 6L14 6L14 5L15 5L15 3L18 3L18 4L19 4L19 3L20 3L20 1L18 1L18 0L16 0L16 1L15 1L15 0L13 0L13 1L15 1L15 2L14 2L14 3L13 3L13 2L12 2L12 3L11 3L11 4L12 4L12 3L13 3L13 4L14 4L14 5L12 5L12 7L11 7L11 6L10 6L10 3L9 3L9 2L10 2L10 1L12 1L12 0ZM21 0L21 2L22 2L22 0ZM23 0L23 2L24 2L24 0ZM27 0L27 1L28 1L28 0ZM46 0L46 1L47 1L47 0ZM16 1L16 2L18 2L18 1ZM39 1L39 4L40 4L40 1ZM51 1L51 2L49 2L49 4L50 4L50 3L51 3L51 2L52 2L52 3L53 3L53 2L52 2L52 1ZM31 2L31 3L30 3L30 6L29 6L29 8L30 8L30 9L27 9L27 10L26 10L26 9L25 9L25 10L24 10L24 11L21 11L21 10L20 10L20 11L21 11L21 13L22 13L22 15L20 15L20 14L19 14L19 13L17 13L17 11L19 11L19 9L22 9L22 10L23 10L23 9L22 9L22 8L23 8L23 7L24 7L24 6L23 6L23 5L22 5L22 6L21 6L21 7L20 7L20 8L19 8L19 9L18 9L18 6L17 6L17 9L18 9L18 10L17 10L17 11L15 11L15 13L14 13L14 12L13 12L13 11L11 11L11 10L10 10L10 11L9 11L9 10L7 10L7 9L6 9L6 10L7 10L7 11L6 11L6 12L7 12L7 13L6 13L6 14L8 14L8 15L10 15L10 16L9 16L9 17L12 17L12 19L11 19L11 18L10 18L10 19L6 19L6 20L4 20L4 21L3 21L3 22L5 22L5 23L6 23L6 24L8 24L8 23L9 23L9 26L11 26L11 29L12 29L12 25L13 25L13 28L14 28L14 30L13 30L13 31L14 31L14 32L13 32L13 33L12 33L12 34L14 34L14 35L16 35L16 37L14 37L14 36L13 36L13 35L12 35L12 36L11 36L11 35L8 35L8 33L6 33L6 32L9 32L9 31L10 31L10 32L12 32L12 30L11 30L11 31L10 31L10 28L9 28L9 29L6 29L6 30L7 30L7 31L6 31L6 32L5 32L5 33L6 33L6 34L7 34L7 35L6 35L6 36L4 36L4 35L5 35L5 34L3 34L3 33L2 33L2 32L1 32L1 33L2 33L2 34L3 34L3 36L1 36L1 37L2 37L2 39L3 39L3 42L4 42L4 41L5 41L5 40L7 40L7 41L10 41L10 42L9 42L9 43L8 43L8 42L7 42L7 43L6 43L6 44L5 44L5 45L6 45L6 46L8 46L8 44L10 44L10 42L11 42L11 43L12 43L12 44L11 44L11 45L12 45L12 44L13 44L13 43L14 43L14 42L15 42L15 41L16 41L16 40L18 40L18 41L17 41L17 42L16 42L16 43L15 43L15 44L14 44L14 46L13 46L13 48L12 48L12 46L11 46L11 47L9 47L9 49L10 49L10 50L9 50L9 51L8 51L8 53L6 53L6 52L7 52L7 51L6 51L6 52L5 52L5 54L7 54L7 55L4 55L4 58L5 58L5 56L7 56L7 55L8 55L8 53L9 53L9 51L10 51L10 54L11 54L11 53L13 53L13 54L12 54L12 55L11 55L11 56L13 56L13 58L14 58L14 57L15 57L15 59L16 59L16 61L13 61L13 60L11 60L11 59L12 59L12 58L11 58L11 57L9 57L9 56L8 56L8 57L6 57L6 58L8 58L8 57L9 57L9 59L10 59L10 60L11 60L11 61L10 61L10 63L9 63L9 61L8 61L8 59L5 59L5 60L4 60L4 59L2 59L2 60L3 60L3 62L8 62L8 64L11 64L11 61L12 61L12 64L13 64L13 63L15 63L15 64L14 64L14 65L15 65L15 64L16 64L16 63L15 63L15 62L16 62L16 61L17 61L17 62L18 62L18 65L19 65L19 64L20 64L20 63L19 63L19 62L20 62L20 59L19 59L19 58L22 58L22 57L21 57L21 56L19 56L19 55L18 55L18 54L20 54L20 55L22 55L22 56L24 56L24 58L23 58L23 59L22 59L22 60L21 60L21 61L22 61L22 62L21 62L21 65L20 65L20 66L21 66L21 65L22 65L22 67L21 67L21 68L22 68L22 69L23 69L23 71L22 71L22 72L21 72L21 71L20 71L20 70L19 70L19 72L20 72L20 73L21 73L21 75L20 75L20 76L21 76L21 75L22 75L22 76L23 76L23 75L24 75L24 69L23 69L23 68L24 68L24 67L26 67L26 68L27 68L27 67L28 67L28 66L29 66L29 69L32 69L32 70L33 70L33 69L32 69L32 68L33 68L33 67L32 67L32 68L31 68L31 67L30 67L30 66L29 66L29 65L30 65L30 64L29 64L29 63L31 63L31 61L30 61L30 60L32 60L32 61L36 61L36 62L35 62L35 63L36 63L36 62L37 62L37 63L38 63L38 68L40 68L40 71L41 71L41 72L40 72L40 73L41 73L41 72L42 72L42 73L43 73L43 72L42 72L42 71L41 71L41 70L42 70L42 68L44 68L44 67L45 67L45 69L43 69L43 70L44 70L44 72L45 72L45 73L46 73L46 72L45 72L45 71L46 71L46 67L47 67L47 65L48 65L48 64L50 64L50 63L51 63L51 62L50 62L50 63L49 63L49 59L47 59L47 57L48 57L48 58L49 58L49 57L50 57L50 56L49 56L49 57L48 57L48 56L44 56L44 55L47 55L47 54L45 54L45 53L48 53L48 54L49 54L49 51L48 51L48 52L47 52L47 51L46 51L46 49L43 49L43 48L46 48L46 47L45 47L45 43L46 43L46 46L48 46L48 45L49 45L49 46L50 46L50 45L49 45L49 44L51 44L51 46L52 46L52 45L53 45L53 44L51 44L51 42L52 42L52 43L54 43L54 44L57 44L57 42L56 42L56 41L55 41L55 40L57 40L57 38L59 38L59 36L60 36L60 37L62 37L62 39L61 39L61 41L60 41L60 39L59 39L59 40L58 40L58 41L60 41L60 43L61 43L61 44L59 44L59 42L58 42L58 45L57 45L57 46L56 46L56 45L54 45L54 46L55 46L55 48L54 48L54 49L52 49L52 50L53 50L53 51L54 51L54 52L52 52L52 51L51 51L51 52L50 52L50 55L51 55L51 54L52 54L52 56L51 56L51 57L53 57L53 58L52 58L52 60L53 60L53 61L52 61L52 62L53 62L53 61L55 61L55 65L54 65L54 66L55 66L55 68L54 68L54 69L53 69L53 68L52 68L52 67L50 67L50 66L49 66L49 67L50 67L50 68L52 68L52 69L51 69L51 70L54 70L54 71L55 71L55 72L54 72L54 73L53 73L53 74L52 74L52 71L51 71L51 74L52 74L52 75L53 75L53 74L55 74L55 76L56 76L56 75L57 75L57 72L56 72L56 71L59 71L59 69L58 69L58 68L59 68L59 66L58 66L58 65L59 65L59 63L58 63L58 65L57 65L57 64L56 64L56 61L57 61L57 60L56 60L56 61L55 61L55 59L56 59L56 58L57 58L57 59L58 59L58 61L59 61L59 62L60 62L60 63L61 63L61 65L60 65L60 66L61 66L61 69L60 69L60 70L61 70L61 69L62 69L62 71L61 71L61 72L60 72L60 73L62 73L62 72L63 72L63 73L64 73L64 76L65 76L65 73L64 73L64 72L63 72L63 70L64 70L64 71L66 71L66 72L67 72L67 71L68 71L68 69L67 69L67 70L64 70L64 69L66 69L66 68L65 68L65 65L64 65L64 68L63 68L63 69L62 69L62 66L61 66L61 65L63 65L63 64L62 64L62 63L63 63L63 62L61 62L61 61L59 61L59 60L60 60L60 59L61 59L61 60L62 60L62 61L64 61L64 64L65 64L65 61L67 61L67 60L68 60L68 63L69 63L69 60L71 60L71 59L72 59L72 60L73 60L73 61L74 61L74 60L73 60L73 59L72 59L72 58L73 58L73 57L74 57L74 56L73 56L73 55L74 55L74 53L75 53L75 51L76 51L76 50L74 50L74 48L75 48L75 47L74 47L74 44L72 44L72 43L73 43L73 41L71 41L71 37L70 37L70 36L67 36L67 34L66 34L66 33L65 33L65 32L64 32L64 31L62 31L62 30L61 30L61 29L59 29L59 26L58 26L58 28L57 28L57 29L55 29L55 28L56 28L56 26L57 26L57 25L55 25L55 24L57 24L57 23L59 23L59 21L60 21L60 22L61 22L61 24L60 24L60 25L62 25L62 23L63 23L63 22L64 22L64 21L65 21L65 22L66 22L66 24L68 24L68 22L70 22L70 21L71 21L71 22L72 22L72 21L73 21L73 19L74 19L74 17L73 17L73 16L74 16L74 15L73 15L73 14L72 14L72 13L74 13L74 12L73 12L73 10L72 10L72 12L70 12L70 10L69 10L69 12L70 12L70 14L71 14L71 15L69 15L69 16L68 16L68 15L66 15L66 14L64 14L64 13L67 13L67 14L68 14L68 13L67 13L67 12L68 12L68 11L67 11L67 12L63 12L63 11L61 11L61 10L62 10L62 9L63 9L63 8L62 8L62 6L63 6L63 7L64 7L64 3L63 3L63 5L59 5L59 7L58 7L58 8L59 8L59 7L60 7L60 6L61 6L61 8L60 8L60 9L61 9L61 10L60 10L60 11L61 11L61 12L59 12L59 11L58 11L58 13L57 13L57 8L56 8L56 6L55 6L55 8L56 8L56 9L53 9L53 7L54 7L54 4L53 4L53 5L52 5L52 4L51 4L51 7L52 7L52 8L51 8L51 9L50 9L50 10L49 10L49 9L47 9L47 10L48 10L48 11L47 11L47 13L44 13L44 15L43 15L43 12L42 12L42 9L41 9L41 8L40 8L40 6L39 6L39 5L38 5L38 4L35 4L35 5L34 5L34 6L33 6L33 7L34 7L34 8L31 8L31 7L32 7L32 5L31 5L31 3L32 3L32 2ZM42 2L42 3L43 3L43 2ZM55 2L55 3L56 3L56 2ZM60 2L60 3L61 3L61 4L62 4L62 2ZM25 3L25 4L26 4L26 3ZM28 3L28 4L29 4L29 3ZM55 4L55 5L56 5L56 4ZM65 4L65 7L66 7L66 4ZM25 5L25 8L28 8L28 5ZM47 5L47 8L50 8L50 5ZM22 6L22 7L21 7L21 8L22 8L22 7L23 7L23 6ZM26 6L26 7L27 7L27 6ZM30 6L30 7L31 7L31 6ZM34 6L34 7L35 7L35 6ZM36 6L36 7L37 7L37 6ZM38 6L38 8L37 8L37 9L36 9L36 8L34 8L34 9L33 9L33 10L34 10L34 9L36 9L36 10L40 10L40 11L34 11L34 12L35 12L35 13L37 13L37 14L38 14L38 13L37 13L37 12L40 12L40 13L39 13L39 14L41 14L41 15L40 15L40 16L39 16L39 17L37 17L37 16L36 16L36 17L34 17L34 16L33 16L33 17L34 17L34 18L32 18L32 17L31 17L31 18L32 18L32 20L33 20L33 19L34 19L34 18L35 18L35 20L34 20L34 21L31 21L31 20L30 20L30 22L34 22L34 23L32 23L32 24L31 24L31 23L29 23L29 20L28 20L28 18L27 18L27 17L29 17L29 18L30 18L30 17L29 17L29 16L32 16L32 15L31 15L31 14L26 14L26 15L25 15L25 11L24 11L24 12L22 12L22 13L24 13L24 14L23 14L23 15L25 15L25 16L24 16L24 17L23 17L23 16L22 16L22 17L23 17L23 18L24 18L24 20L22 20L22 19L21 19L21 17L19 17L19 16L20 16L20 15L19 15L19 14L17 14L17 13L16 13L16 14L14 14L14 15L16 15L16 14L17 14L17 16L15 16L15 18L14 18L14 19L13 19L13 20L11 20L11 22L10 22L10 20L6 20L6 21L8 21L8 22L6 22L6 23L8 23L8 22L9 22L9 23L10 23L10 25L12 25L12 22L14 22L14 21L13 21L13 20L15 20L15 18L16 18L16 19L17 19L17 18L18 18L18 19L19 19L19 18L20 18L20 20L19 20L19 21L18 21L18 20L16 20L16 21L15 21L15 22L16 22L16 23L15 23L15 24L14 24L14 25L15 25L15 24L18 24L18 23L17 23L17 22L20 22L20 23L19 23L19 24L21 24L21 23L22 23L22 25L21 25L21 27L18 27L18 26L17 26L17 27L16 27L16 28L15 28L15 27L14 27L14 28L15 28L15 29L16 29L16 28L17 28L17 27L18 27L18 28L19 28L19 29L20 29L20 31L21 31L21 30L25 30L25 32L24 32L24 34L23 34L23 33L19 33L19 32L17 32L17 31L19 31L19 30L18 30L18 29L17 29L17 31L15 31L15 30L14 30L14 31L15 31L15 32L14 32L14 33L15 33L15 34L16 34L16 33L18 33L18 34L20 34L20 35L17 35L17 36L18 36L18 38L17 38L17 37L16 37L16 39L15 39L15 40L13 40L13 39L14 39L14 38L13 38L13 37L12 37L12 38L13 38L13 39L12 39L12 40L13 40L13 42L14 42L14 41L15 41L15 40L16 40L16 39L18 39L18 38L19 38L19 36L20 36L20 37L21 37L21 38L20 38L20 39L19 39L19 42L20 42L20 41L21 41L21 43L20 43L20 44L19 44L19 43L18 43L18 42L17 42L17 43L16 43L16 44L17 44L17 45L15 45L15 47L14 47L14 50L16 50L16 49L18 49L18 50L17 50L17 51L19 51L19 53L22 53L22 55L23 55L23 54L24 54L24 55L26 55L26 54L24 54L24 53L25 53L25 52L24 52L24 53L22 53L22 50L21 50L21 49L22 49L22 48L21 48L21 46L22 46L22 47L23 47L23 48L24 48L24 49L23 49L23 51L26 51L26 52L27 52L27 56L28 56L28 57L30 57L30 58L31 58L31 59L32 59L32 60L33 60L33 59L32 59L32 57L31 57L31 56L29 56L29 54L30 54L30 55L32 55L32 56L33 56L33 55L34 55L34 54L35 54L35 55L36 55L36 57L35 57L35 56L34 56L34 57L33 57L33 58L34 58L34 60L35 60L35 59L36 59L36 61L37 61L37 62L38 62L38 63L40 63L40 62L38 62L38 61L40 61L40 60L37 60L37 59L36 59L36 58L37 58L37 55L39 55L39 53L41 53L41 55L40 55L40 59L41 59L41 58L42 58L42 61L41 61L41 62L42 62L42 63L41 63L41 64L39 64L39 65L41 65L41 66L42 66L42 67L44 67L44 66L46 66L46 65L47 65L47 64L48 64L48 62L47 62L47 60L46 60L46 59L44 59L44 60L43 60L43 57L44 57L44 56L43 56L43 55L44 55L44 54L42 54L42 52L39 52L39 48L38 48L38 46L39 46L39 47L40 47L40 48L41 48L41 50L40 50L40 51L42 51L42 48L41 48L41 47L42 47L42 46L43 46L43 45L41 45L41 44L42 44L42 43L41 43L41 42L42 42L42 40L43 40L43 38L44 38L44 37L45 37L45 38L46 38L46 39L44 39L44 40L45 40L45 41L46 41L46 43L47 43L47 41L48 41L48 43L49 43L49 41L50 41L50 42L51 42L51 41L52 41L52 40L53 40L53 42L54 42L54 43L55 43L55 41L54 41L54 40L55 40L55 39L54 39L54 37L55 37L55 38L56 38L56 37L58 37L58 35L60 35L60 34L61 34L61 33L59 33L59 32L60 32L60 30L58 30L58 29L57 29L57 30L56 30L56 32L58 32L58 35L57 35L57 33L56 33L56 35L55 35L55 36L54 36L54 35L53 35L53 34L55 34L55 32L54 32L54 31L55 31L55 30L53 30L53 29L52 29L52 28L54 28L54 27L55 27L55 26L53 26L53 25L54 25L54 22L53 22L53 21L54 21L54 20L55 20L55 22L56 22L56 23L57 23L57 22L58 22L58 21L59 21L59 19L62 19L62 16L59 16L59 17L58 17L58 15L60 15L60 14L59 14L59 13L58 13L58 14L57 14L57 13L56 13L56 12L55 12L55 11L54 11L54 10L53 10L53 9L51 9L51 10L50 10L50 11L51 11L51 13L50 13L50 12L49 12L49 11L48 11L48 12L49 12L49 13L50 13L50 14L49 14L49 15L48 15L48 16L49 16L49 15L52 15L52 16L51 16L51 18L50 18L50 17L49 17L49 18L50 18L50 19L51 19L51 20L50 20L50 21L51 21L51 20L52 20L52 22L51 22L51 24L46 24L46 22L47 22L47 23L48 23L48 22L49 22L49 23L50 23L50 22L49 22L49 19L47 19L47 20L48 20L48 22L47 22L47 21L46 21L46 19L45 19L45 20L44 20L44 19L43 19L43 18L45 18L45 16L46 16L46 17L47 17L47 18L48 18L48 17L47 17L47 16L46 16L46 14L45 14L45 16L43 16L43 17L42 17L42 18L41 18L41 20L40 20L40 19L39 19L39 18L40 18L40 17L41 17L41 16L42 16L42 13L41 13L41 12L40 12L40 11L41 11L41 10L40 10L40 9L38 9L38 8L39 8L39 6ZM48 6L48 7L49 7L49 6ZM52 6L52 7L53 7L53 6ZM64 8L64 9L65 9L65 8ZM68 8L68 9L69 9L69 8ZM4 9L4 13L5 13L5 9ZM30 9L30 10L27 10L27 12L26 12L26 13L28 13L28 11L30 11L30 10L31 10L31 11L32 11L32 12L30 12L30 13L32 13L32 12L33 12L33 11L32 11L32 10L31 10L31 9ZM45 9L45 10L44 10L44 11L46 11L46 9ZM58 9L58 10L59 10L59 9ZM66 9L66 10L67 10L67 9ZM52 10L52 12L53 12L53 13L52 13L52 14L53 14L53 15L54 15L54 16L55 16L55 17L54 17L54 18L55 18L55 20L56 20L56 17L57 17L57 19L58 19L58 17L57 17L57 16L56 16L56 13L55 13L55 12L53 12L53 10ZM64 10L64 11L65 11L65 10ZM1 11L1 13L2 13L2 14L3 14L3 12L2 12L2 11ZM12 12L12 13L11 13L11 16L12 16L12 17L13 17L13 16L12 16L12 15L13 15L13 12ZM61 12L61 14L62 14L62 15L63 15L63 19L65 19L65 21L67 21L67 22L68 22L68 20L69 20L69 21L70 21L70 20L71 20L71 21L72 21L72 18L73 18L73 17L72 17L72 16L73 16L73 15L72 15L72 16L71 16L71 17L69 17L69 18L71 18L71 19L70 19L70 20L69 20L69 19L68 19L68 18L67 18L67 19L66 19L66 15L65 15L65 16L64 16L64 14L63 14L63 13L62 13L62 12ZM33 14L33 15L34 15L34 14ZM18 15L18 16L17 16L17 17L18 17L18 18L19 18L19 17L18 17L18 16L19 16L19 15ZM25 16L25 17L24 17L24 18L26 18L26 19L25 19L25 20L26 20L26 21L27 21L27 18L26 18L26 17L27 17L27 16ZM67 16L67 17L68 17L68 16ZM52 17L52 18L53 18L53 17ZM59 17L59 18L60 18L60 17ZM64 17L64 18L65 18L65 17ZM71 17L71 18L72 18L72 17ZM36 18L36 20L35 20L35 21L34 21L34 22L35 22L35 24L36 24L36 22L37 22L37 25L34 25L34 24L32 24L32 25L31 25L31 26L30 26L30 27L29 27L29 28L30 28L30 29L31 29L31 30L29 30L29 29L28 29L28 31L30 31L30 32L29 32L29 33L27 33L27 32L26 32L26 33L25 33L25 34L24 34L24 35L23 35L23 36L22 36L22 38L21 38L21 39L20 39L20 40L21 40L21 41L23 41L23 42L22 42L22 43L21 43L21 44L20 44L20 45L19 45L19 47L20 47L20 46L21 46L21 45L22 45L22 46L23 46L23 45L24 45L24 46L30 46L30 47L29 47L29 48L30 48L30 49L29 49L29 50L30 50L30 52L29 52L29 51L28 51L28 52L29 52L29 53L28 53L28 54L29 54L29 53L31 53L31 54L32 54L32 55L33 55L33 54L32 54L32 53L33 53L33 52L34 52L34 53L36 53L36 55L37 55L37 53L39 53L39 52L37 52L37 53L36 53L36 52L35 52L35 49L37 49L37 50L36 50L36 51L37 51L37 50L38 50L38 49L37 49L37 46L35 46L35 42L36 42L36 44L37 44L37 45L40 45L40 47L41 47L41 45L40 45L40 44L41 44L41 43L38 43L38 42L40 42L40 40L42 40L42 38L43 38L43 37L42 37L42 35L43 35L43 36L45 36L45 37L46 37L46 38L51 38L51 37L52 37L52 35L51 35L51 33L52 33L52 31L53 31L53 30L52 30L52 29L50 29L50 31L49 31L49 30L48 30L48 29L46 29L46 30L45 30L45 28L46 28L46 27L45 27L45 26L46 26L46 25L45 25L45 21L44 21L44 20L43 20L43 19L42 19L42 21L44 21L44 25L43 25L43 23L42 23L42 22L40 22L40 21L37 21L37 20L38 20L38 19L37 19L37 18ZM52 19L52 20L53 20L53 19ZM67 19L67 20L68 20L68 19ZM20 20L20 22L22 22L22 20ZM57 20L57 21L56 21L56 22L57 22L57 21L58 21L58 20ZM62 20L62 21L61 21L61 22L62 22L62 21L64 21L64 20ZM16 21L16 22L17 22L17 21ZM35 21L35 22L36 22L36 21ZM23 22L23 25L22 25L22 26L24 26L24 22ZM25 22L25 23L26 23L26 24L29 24L29 25L30 25L30 24L29 24L29 23L28 23L28 22L27 22L27 23L26 23L26 22ZM38 22L38 23L39 23L39 24L38 24L38 28L39 28L39 27L40 27L40 29L38 29L38 30L37 30L37 33L36 33L36 34L35 34L35 33L34 33L34 32L35 32L35 31L34 31L34 32L33 32L33 33L32 33L32 30L33 30L33 29L34 29L34 30L35 30L35 29L36 29L36 28L37 28L37 26L36 26L36 27L35 27L35 26L34 26L34 25L32 25L32 26L34 26L34 27L32 27L32 28L33 28L33 29L32 29L32 30L31 30L31 33L29 33L29 34L28 34L28 35L27 35L27 34L26 34L26 35L25 35L25 37L26 37L26 39L28 39L28 40L29 40L29 42L28 42L28 41L27 41L27 40L25 40L25 41L24 41L24 40L23 40L23 39L24 39L24 38L23 38L23 39L21 39L21 40L23 40L23 41L24 41L24 42L25 42L25 43L26 43L26 44L25 44L25 45L29 45L29 44L31 44L31 43L32 43L32 46L33 46L33 47L34 47L34 48L33 48L33 49L35 49L35 48L36 48L36 47L35 47L35 46L34 46L34 45L33 45L33 43L34 43L34 42L35 42L35 40L36 40L36 42L37 42L37 41L38 41L38 40L40 40L40 39L41 39L41 38L42 38L42 37L41 37L41 35L42 35L42 34L44 34L44 33L45 33L45 34L46 34L46 35L45 35L45 36L47 36L47 37L51 37L51 35L49 35L49 36L48 36L48 34L49 34L49 33L51 33L51 31L52 31L52 30L51 30L51 31L50 31L50 32L49 32L49 31L48 31L48 30L46 30L46 31L45 31L45 32L43 32L43 29L42 29L42 30L41 30L41 28L44 28L44 26L43 26L43 25L42 25L42 23L41 23L41 25L40 25L40 22ZM52 22L52 24L51 24L51 25L53 25L53 22ZM64 23L64 26L65 26L65 23ZM69 23L69 24L70 24L70 23ZM0 24L0 25L1 25L1 27L2 27L2 25L3 25L3 24ZM58 24L58 25L59 25L59 24ZM5 25L5 28L8 28L8 25ZM25 25L25 28L28 28L28 25ZM39 25L39 26L40 26L40 27L41 27L41 26L42 26L42 27L43 27L43 26L42 26L42 25L41 25L41 26L40 26L40 25ZM47 25L47 28L50 28L50 25ZM69 25L69 28L72 28L72 25ZM6 26L6 27L7 27L7 26ZM26 26L26 27L27 27L27 26ZM48 26L48 27L49 27L49 26ZM52 26L52 27L53 27L53 26ZM70 26L70 27L71 27L71 26ZM23 27L23 28L20 28L20 29L23 29L23 28L24 28L24 27ZM34 28L34 29L35 29L35 28ZM73 28L73 29L74 29L74 28ZM75 28L75 30L76 30L76 28ZM25 29L25 30L26 30L26 29ZM38 30L38 31L41 31L41 34L40 34L40 32L39 32L39 34L40 34L40 35L38 35L38 33L37 33L37 34L36 34L36 35L38 35L38 36L40 36L40 35L41 35L41 34L42 34L42 31L41 31L41 30ZM57 30L57 31L58 31L58 30ZM71 30L71 31L72 31L72 30ZM46 31L46 32L45 32L45 33L46 33L46 34L48 34L48 33L49 33L49 32L48 32L48 33L46 33L46 32L47 32L47 31ZM53 32L53 33L54 33L54 32ZM62 32L62 33L64 33L64 32ZM9 33L9 34L10 34L10 33ZM33 33L33 34L30 34L30 35L28 35L28 36L30 36L30 38L29 38L29 37L28 37L28 38L29 38L29 40L30 40L30 38L31 38L31 42L29 42L29 43L27 43L27 41L25 41L25 42L26 42L26 43L27 43L27 44L29 44L29 43L31 43L31 42L34 42L34 41L33 41L33 40L34 40L34 39L35 39L35 38L36 38L36 37L35 37L35 36L34 36L34 35L33 35L33 34L34 34L34 33ZM21 34L21 35L20 35L20 36L21 36L21 35L22 35L22 34ZM62 34L62 36L63 36L63 37L64 37L64 36L66 36L66 34ZM68 34L68 35L69 35L69 34ZM30 35L30 36L31 36L31 35ZM63 35L63 36L64 36L64 35ZM6 36L6 37L7 37L7 38L6 38L6 39L7 39L7 40L9 40L9 39L11 39L11 36ZM23 36L23 37L24 37L24 36ZM26 36L26 37L27 37L27 36ZM33 36L33 37L34 37L34 38L35 38L35 37L34 37L34 36ZM55 36L55 37L56 37L56 36ZM73 36L73 38L76 38L76 37L75 37L75 36ZM3 37L3 39L4 39L4 40L5 40L5 37ZM8 37L8 38L7 38L7 39L9 39L9 38L10 38L10 37ZM40 37L40 38L41 38L41 37ZM66 37L66 38L65 38L65 41L61 41L61 42L63 42L63 43L62 43L62 44L61 44L61 46L62 46L62 49L63 49L63 50L62 50L62 53L59 53L59 52L60 52L60 51L61 51L61 48L58 48L58 47L60 47L60 46L59 46L59 45L58 45L58 47L56 47L56 48L55 48L55 49L56 49L56 48L57 48L57 52L56 52L56 51L55 51L55 52L56 52L56 53L53 53L53 57L55 57L55 56L56 56L56 57L58 57L58 59L60 59L60 58L62 58L62 59L63 59L63 60L67 60L67 59L68 59L68 58L69 58L69 59L71 59L71 58L72 58L72 57L73 57L73 56L70 56L70 55L73 55L73 54L72 54L72 53L73 53L73 52L72 52L72 53L71 53L71 54L68 54L68 52L69 52L69 51L70 51L70 52L71 52L71 51L73 51L73 48L74 48L74 47L73 47L73 46L70 46L70 45L72 45L72 44L69 44L69 45L68 45L68 44L67 44L67 43L68 43L68 42L69 42L69 43L71 43L71 42L70 42L70 40L69 40L69 41L67 41L67 40L66 40L66 39L67 39L67 38L69 38L69 37ZM38 38L38 39L39 39L39 38ZM63 38L63 40L64 40L64 38ZM47 39L47 40L48 40L48 39ZM49 39L49 40L50 40L50 41L51 41L51 40L52 40L52 39ZM10 40L10 41L11 41L11 42L12 42L12 41L11 41L11 40ZM1 41L1 42L2 42L2 41ZM43 41L43 44L44 44L44 41ZM66 41L66 42L67 42L67 41ZM7 43L7 44L6 44L6 45L7 45L7 44L8 44L8 43ZM17 43L17 44L18 44L18 43ZM22 43L22 44L24 44L24 43ZM37 43L37 44L38 44L38 43ZM63 43L63 44L62 44L62 45L63 45L63 46L64 46L64 48L65 48L65 46L66 46L66 45L67 45L67 47L68 47L68 45L67 45L67 44L66 44L66 45L65 45L65 43ZM63 44L63 45L64 45L64 46L65 46L65 45L64 45L64 44ZM3 45L3 46L4 46L4 45ZM17 45L17 46L18 46L18 45ZM5 47L5 50L8 50L8 47ZM17 47L17 48L18 48L18 47ZM25 47L25 50L28 50L28 47ZM30 47L30 48L31 48L31 49L30 49L30 50L31 50L31 53L32 53L32 52L33 52L33 51L32 51L32 50L31 50L31 49L32 49L32 47ZM47 47L47 50L50 50L50 47ZM51 47L51 48L52 48L52 47ZM69 47L69 50L72 50L72 47ZM6 48L6 49L7 49L7 48ZM11 48L11 49L12 49L12 50L11 50L11 51L12 51L12 52L13 52L13 51L12 51L12 50L13 50L13 49L12 49L12 48ZM19 48L19 50L20 50L20 51L21 51L21 50L20 50L20 48ZM26 48L26 49L27 49L27 48ZM48 48L48 49L49 49L49 48ZM66 48L66 49L64 49L64 51L66 51L66 52L65 52L65 54L64 54L64 53L62 53L62 55L61 55L61 56L60 56L60 57L62 57L62 58L63 58L63 57L65 57L65 56L64 56L64 55L65 55L65 54L66 54L66 55L67 55L67 54L66 54L66 53L67 53L67 52L68 52L68 51L67 51L67 48ZM70 48L70 49L71 49L71 48ZM58 49L58 52L57 52L57 55L58 55L58 56L59 56L59 55L58 55L58 52L59 52L59 50L60 50L60 49ZM43 50L43 51L44 51L44 50ZM15 51L15 52L16 52L16 53L14 53L14 54L13 54L13 56L14 56L14 54L18 54L18 53L17 53L17 52L16 52L16 51ZM44 52L44 53L45 53L45 52ZM51 52L51 53L52 53L52 52ZM55 54L55 55L56 55L56 54ZM63 54L63 55L64 55L64 54ZM2 55L2 57L1 57L1 58L2 58L2 57L3 57L3 55ZM17 55L17 56L15 56L15 57L18 57L18 55ZM68 55L68 56L69 56L69 55ZM38 56L38 57L39 57L39 56ZM41 56L41 57L43 57L43 56ZM25 57L25 58L24 58L24 59L23 59L23 60L25 60L25 58L26 58L26 60L28 60L28 59L27 59L27 57ZM34 57L34 58L35 58L35 57ZM45 57L45 58L46 58L46 57ZM66 57L66 58L68 58L68 57ZM69 57L69 58L70 58L70 57ZM38 58L38 59L39 59L39 58ZM17 59L17 60L18 60L18 59ZM53 59L53 60L54 60L54 59ZM5 60L5 61L7 61L7 60ZM44 60L44 61L46 61L46 60ZM18 61L18 62L19 62L19 61ZM25 61L25 62L26 62L26 63L25 63L25 65L24 65L24 66L23 66L23 67L24 67L24 66L25 66L25 65L26 65L26 67L27 67L27 66L28 66L28 65L29 65L29 64L28 64L28 63L29 63L29 62L30 62L30 61L29 61L29 62L28 62L28 61L27 61L27 62L26 62L26 61ZM42 61L42 62L43 62L43 63L42 63L42 66L43 66L43 65L46 65L46 64L47 64L47 63L46 63L46 64L45 64L45 62L43 62L43 61ZM70 61L70 62L72 62L72 61ZM75 61L75 62L76 62L76 61ZM27 62L27 63L28 63L28 62ZM32 62L32 64L31 64L31 65L33 65L33 66L34 66L34 70L35 70L35 68L36 68L36 67L35 67L35 65L33 65L33 64L34 64L34 63L33 63L33 62ZM66 62L66 63L67 63L67 62ZM6 63L6 64L7 64L7 63ZM23 63L23 64L22 64L22 65L23 65L23 64L24 64L24 63ZM43 63L43 64L44 64L44 63ZM52 63L52 64L51 64L51 65L52 65L52 64L53 64L53 63ZM27 64L27 65L28 65L28 64ZM66 64L66 65L67 65L67 64ZM36 65L36 66L37 66L37 65ZM56 65L56 66L57 66L57 67L56 67L56 68L55 68L55 69L54 69L54 70L56 70L56 69L57 69L57 68L58 68L58 66L57 66L57 65ZM39 66L39 67L40 67L40 66ZM12 69L12 70L10 70L10 72L11 72L11 71L12 71L12 72L15 72L15 71L13 71L13 70L14 70L14 69ZM25 69L25 72L28 72L28 69ZM47 69L47 72L50 72L50 69ZM69 69L69 72L72 72L72 69ZM26 70L26 71L27 71L27 70ZM48 70L48 71L49 71L49 70ZM70 70L70 71L71 71L71 70ZM55 72L55 73L56 73L56 72ZM58 72L58 73L59 73L59 72ZM35 73L35 74L36 74L36 75L37 75L37 74L38 74L38 73ZM71 73L71 74L70 74L70 75L72 75L72 73ZM16 74L16 77L17 77L17 74ZM22 74L22 75L23 75L23 74ZM41 74L41 75L42 75L42 76L43 76L43 74ZM46 74L46 75L48 75L48 74ZM49 74L49 75L50 75L50 74ZM58 74L58 76L59 76L59 74ZM31 75L31 76L32 76L32 75ZM39 75L39 76L40 76L40 75ZM36 76L36 77L37 77L37 76ZM0 0L0 7L7 7L7 0ZM1 1L1 6L6 6L6 1ZM2 2L2 5L5 5L5 2ZM70 0L70 7L77 7L77 0ZM71 1L71 6L76 6L76 1ZM72 2L72 5L75 5L75 2ZM0 70L0 77L7 77L7 70ZM1 71L1 76L6 76L6 71ZM2 72L2 75L5 75L5 72Z" fill="#000000"/></g></g></svg>
