<?xml version="1.0" encoding="UTF-8"?>
<svg xmlns="http://www.w3.org/2000/svg" version="1.1" width="400" height="400" viewBox="0 0 400 400"><rect x="0" y="0" width="400" height="400" fill="#fefefe"/><g transform="scale(6.557)"><g transform="translate(4,4)"><path fill-rule="evenodd" d="M11 0L11 2L15 2L15 4L14 4L14 5L13 5L13 3L11 3L11 4L10 4L10 3L8 3L8 4L9 4L9 5L8 5L8 7L9 7L9 8L6 8L6 9L8 9L8 11L7 11L7 10L5 10L5 11L4 11L4 12L3 12L3 10L4 10L4 9L5 9L5 8L0 8L0 10L1 10L1 9L3 9L3 10L2 10L2 12L3 12L3 14L2 14L2 13L0 13L0 15L1 15L1 17L0 17L0 19L1 19L1 20L0 20L0 21L2 21L2 22L1 22L1 23L0 23L0 26L1 26L1 28L0 28L0 29L1 29L1 30L3 30L3 34L4 34L4 33L5 33L5 34L6 34L6 35L5 35L5 36L6 36L6 37L3 37L3 36L2 36L2 34L1 34L1 36L0 36L0 37L1 37L1 36L2 36L2 37L3 37L3 38L2 38L2 39L4 39L4 40L2 40L2 42L0 42L0 43L1 43L1 44L3 44L3 45L4 45L4 44L3 44L3 43L7 43L7 44L6 44L6 45L8 45L8 47L9 47L9 48L8 48L8 53L10 53L10 52L11 52L11 50L12 50L12 51L14 51L14 52L13 52L13 53L14 53L14 52L15 52L15 53L17 53L17 52L18 52L18 53L19 53L19 52L20 52L20 53L22 53L22 51L24 51L24 52L23 52L23 53L25 53L25 52L26 52L26 53L27 53L27 51L26 51L26 49L29 49L29 50L31 50L31 51L28 51L28 52L29 52L29 53L31 53L31 51L32 51L32 52L33 52L33 53L34 53L34 52L33 52L33 51L36 51L36 50L38 50L38 51L37 51L37 52L36 52L36 53L38 53L38 51L40 51L40 52L41 52L41 53L43 53L43 52L41 52L41 51L40 51L40 50L38 50L38 48L39 48L39 47L40 47L40 48L41 48L41 47L40 47L40 46L43 46L43 45L42 45L42 44L43 44L43 43L42 43L42 42L43 42L43 40L44 40L44 39L40 39L40 40L41 40L41 41L39 41L39 38L40 38L40 37L39 37L39 38L38 38L38 36L36 36L36 37L37 37L37 40L36 40L36 39L35 39L35 38L34 38L34 37L33 37L33 38L34 38L34 39L32 39L32 40L31 40L31 41L28 41L28 40L27 40L27 42L25 42L25 41L26 41L26 39L27 39L27 38L28 38L28 39L29 39L29 40L30 40L30 39L29 39L29 38L28 38L28 37L29 37L29 36L30 36L30 38L32 38L32 37L31 37L31 36L33 36L33 35L34 35L34 36L35 36L35 34L33 34L33 33L34 33L34 31L35 31L35 30L34 30L34 29L35 29L35 28L36 28L36 29L37 29L37 30L36 30L36 31L37 31L37 30L38 30L38 31L39 31L39 32L35 32L35 33L37 33L37 34L36 34L36 35L37 35L37 34L38 34L38 35L39 35L39 34L40 34L40 33L39 33L39 32L42 32L42 33L41 33L41 34L43 34L43 35L40 35L40 36L41 36L41 38L45 38L45 35L46 35L46 36L47 36L47 37L48 37L48 38L49 38L49 39L48 39L48 40L47 40L47 39L46 39L46 40L45 40L45 42L44 42L44 49L43 49L43 47L42 47L42 49L41 49L41 50L46 50L46 51L45 51L45 53L49 53L49 52L50 52L50 53L51 53L51 52L52 52L52 51L53 51L53 50L52 50L52 51L51 51L51 52L50 52L50 49L52 49L52 48L50 48L50 46L51 46L51 44L50 44L50 43L51 43L51 41L52 41L52 42L53 42L53 40L50 40L50 38L49 38L49 37L48 37L48 36L50 36L50 37L51 37L51 38L53 38L53 35L52 35L52 34L53 34L53 32L52 32L52 33L51 33L51 32L50 32L50 31L51 31L51 30L53 30L53 29L52 29L52 28L53 28L53 27L51 27L51 28L50 28L50 26L49 26L49 24L50 24L50 25L51 25L51 26L53 26L53 25L51 25L51 24L50 24L50 23L49 23L49 22L53 22L53 21L51 21L51 20L53 20L53 19L51 19L51 16L52 16L52 18L53 18L53 15L51 15L51 16L50 16L50 15L48 15L48 16L47 16L47 14L46 14L46 13L47 13L47 12L46 12L46 11L47 11L47 10L48 10L48 11L49 11L49 12L48 12L48 13L49 13L49 14L51 14L51 13L50 13L50 11L49 11L49 10L50 10L50 8L49 8L49 10L48 10L48 8L47 8L47 10L46 10L46 11L45 11L45 12L44 12L44 10L43 10L43 9L42 9L42 10L43 10L43 12L42 12L42 11L41 11L41 9L39 9L39 8L38 8L38 9L39 9L39 10L37 10L37 8L34 8L34 7L35 7L35 5L34 5L34 4L30 4L30 5L29 5L29 3L28 3L28 4L27 4L27 3L26 3L26 1L25 1L25 0L24 0L24 1L25 1L25 2L24 2L24 3L23 3L23 4L22 4L22 3L20 3L20 4L19 4L19 3L16 3L16 2L15 2L15 1L16 1L16 0L15 0L15 1L14 1L14 0L13 0L13 1L12 1L12 0ZM17 0L17 2L18 2L18 0ZM19 0L19 1L20 1L20 2L22 2L22 1L23 1L23 0L22 0L22 1L20 1L20 0ZM27 0L27 1L28 1L28 0ZM29 0L29 1L31 1L31 3L33 3L33 2L35 2L35 3L36 3L36 4L37 4L37 5L36 5L36 7L37 7L37 5L38 5L38 7L39 7L39 6L40 6L40 8L41 8L41 5L42 5L42 8L43 8L43 3L44 3L44 4L45 4L45 3L44 3L44 1L43 1L43 0L41 0L41 1L42 1L42 2L43 2L43 3L42 3L42 4L41 4L41 5L38 5L38 4L39 4L39 3L41 3L41 2L39 2L39 1L40 1L40 0L39 0L39 1L38 1L38 2L37 2L37 3L36 3L36 1L37 1L37 0L36 0L36 1L34 1L34 0L33 0L33 2L32 2L32 0ZM8 1L8 2L9 2L9 1ZM24 3L24 4L23 4L23 8L22 8L22 9L24 9L24 4L25 4L25 3ZM11 4L11 5L12 5L12 4ZM15 4L15 5L16 5L16 6L15 6L15 8L16 8L16 9L13 9L13 8L14 8L14 6L13 6L13 8L12 8L12 6L11 6L11 8L10 8L10 9L9 9L9 11L10 11L10 12L8 12L8 13L5 13L5 12L7 12L7 11L5 11L5 12L4 12L4 13L5 13L5 14L3 14L3 15L5 15L5 16L2 16L2 17L1 17L1 18L3 18L3 20L2 20L2 21L3 21L3 24L5 24L5 23L6 23L6 24L7 24L7 23L6 23L6 22L7 22L7 21L8 21L8 20L7 20L7 19L6 19L6 18L8 18L8 19L9 19L9 22L8 22L8 23L9 23L9 22L14 22L14 21L15 21L15 22L17 22L17 23L15 23L15 24L16 24L16 25L13 25L13 24L14 24L14 23L13 23L13 24L12 24L12 23L11 23L11 24L9 24L9 25L10 25L10 26L9 26L9 27L10 27L10 26L11 26L11 27L12 27L12 28L11 28L11 29L10 29L10 31L11 31L11 33L12 33L12 34L13 34L13 36L14 36L14 37L9 37L9 38L7 38L7 37L8 37L8 35L6 35L6 36L7 36L7 37L6 37L6 38L5 38L5 39L6 39L6 40L4 40L4 41L3 41L3 42L2 42L2 43L3 43L3 42L4 42L4 41L5 41L5 42L7 42L7 43L8 43L8 42L7 42L7 41L6 41L6 40L7 40L7 39L10 39L10 40L8 40L8 41L10 41L10 42L11 42L11 43L12 43L12 44L13 44L13 45L12 45L12 47L11 47L11 48L9 48L9 49L10 49L10 50L11 50L11 48L13 48L13 49L12 49L12 50L13 50L13 49L14 49L14 48L13 48L13 47L14 47L14 46L13 46L13 45L14 45L14 44L15 44L15 45L16 45L16 46L18 46L18 47L16 47L16 48L15 48L15 49L16 49L16 50L14 50L14 51L16 51L16 52L17 52L17 50L18 50L18 49L19 49L19 50L20 50L20 51L22 51L22 50L21 50L21 49L19 49L19 48L22 48L22 49L24 49L24 51L25 51L25 49L24 49L24 48L23 48L23 46L24 46L24 44L26 44L26 43L25 43L25 42L22 42L22 41L25 41L25 39L26 39L26 37L27 37L27 36L26 36L26 37L24 37L24 36L23 36L23 35L24 35L24 34L23 34L23 35L20 35L20 36L19 36L19 37L18 37L18 38L17 38L17 37L16 37L16 38L17 38L17 39L18 39L18 38L19 38L19 40L21 40L21 37L20 37L20 36L22 36L22 37L24 37L24 38L22 38L22 39L23 39L23 40L22 40L22 41L19 41L19 44L21 44L21 42L22 42L22 43L24 43L24 44L22 44L22 45L23 45L23 46L21 46L21 45L20 45L20 46L19 46L19 45L16 45L16 43L15 43L15 42L16 42L16 41L18 41L18 40L16 40L16 41L13 41L13 40L14 40L14 39L12 39L12 40L11 40L11 39L10 39L10 38L14 38L14 37L15 37L15 35L16 35L16 36L17 36L17 35L19 35L19 34L22 34L22 33L25 33L25 34L27 34L27 35L28 35L28 36L29 36L29 35L30 35L30 36L31 36L31 34L32 34L32 33L33 33L33 32L32 32L32 33L31 33L31 34L29 34L29 31L33 31L33 30L32 30L32 29L33 29L33 28L35 28L35 27L36 27L36 28L37 28L37 29L38 29L38 30L39 30L39 29L43 29L43 30L40 30L40 31L43 31L43 30L45 30L45 31L44 31L44 32L43 32L43 33L45 33L45 32L46 32L46 35L48 35L48 33L50 33L50 32L49 32L49 31L50 31L50 30L48 30L48 29L47 29L47 30L45 30L45 29L43 29L43 28L44 28L44 27L43 27L43 26L41 26L41 25L43 25L43 24L45 24L45 23L46 23L46 24L49 24L49 23L48 23L48 22L49 22L49 21L50 21L50 20L51 20L51 19L50 19L50 20L49 20L49 19L48 19L48 18L49 18L49 17L50 17L50 16L49 16L49 17L47 17L47 16L45 16L45 15L46 15L46 14L45 14L45 13L44 13L44 12L43 12L43 14L42 14L42 12L39 12L39 13L38 13L38 12L37 12L37 11L36 11L36 10L35 10L35 9L34 9L34 10L35 10L35 11L36 11L36 12L34 12L34 11L33 11L33 10L32 10L32 9L33 9L33 8L32 8L32 6L33 6L33 7L34 7L34 6L33 6L33 5L32 5L32 6L31 6L31 5L30 5L30 6L29 6L29 7L30 7L30 6L31 6L31 8L29 8L29 9L31 9L31 10L27 10L27 11L26 11L26 14L24 14L24 15L23 15L23 14L22 14L22 13L23 13L23 12L24 12L24 11L25 11L25 10L21 10L21 9L20 9L20 8L21 8L21 7L22 7L22 6L21 6L21 5L22 5L22 4L20 4L20 6L19 6L19 4L18 4L18 6L17 6L17 4ZM25 5L25 8L28 8L28 5ZM9 6L9 7L10 7L10 6ZM16 6L16 8L18 8L18 10L17 10L17 9L16 9L16 10L15 10L15 11L14 11L14 12L15 12L15 13L14 13L14 14L15 14L15 13L17 13L17 15L18 15L18 14L19 14L19 17L18 17L18 16L17 16L17 17L18 17L18 18L17 18L17 20L16 20L16 19L15 19L15 18L16 18L16 17L15 17L15 18L14 18L14 17L13 17L13 16L14 16L14 15L13 15L13 13L12 13L12 11L13 11L13 10L11 10L11 9L12 9L12 8L11 8L11 9L10 9L10 11L11 11L11 15L8 15L8 17L10 17L10 18L9 18L9 19L11 19L11 17L12 17L12 18L13 18L13 19L12 19L12 21L13 21L13 19L15 19L15 20L16 20L16 21L17 21L17 22L18 22L18 23L17 23L17 24L18 24L18 25L16 25L16 26L15 26L15 27L14 27L14 28L12 28L12 29L11 29L11 30L15 30L15 32L16 32L16 31L18 31L18 29L19 29L19 31L20 31L20 29L22 29L22 30L21 30L21 32L20 32L20 33L22 33L22 30L24 30L24 29L26 29L26 30L25 30L25 31L24 31L24 32L25 32L25 33L26 33L26 32L27 32L27 34L28 34L28 35L29 35L29 34L28 34L28 32L27 32L27 31L29 31L29 26L31 26L31 27L30 27L30 28L33 28L33 27L32 27L32 26L31 26L31 25L32 25L32 23L33 23L33 25L35 25L35 26L34 26L34 27L35 27L35 26L36 26L36 27L37 27L37 28L38 28L38 27L39 27L39 28L41 28L41 26L40 26L40 27L39 27L39 26L38 26L38 25L39 25L39 24L41 24L41 23L42 23L42 24L43 24L43 23L42 23L42 22L43 22L43 21L45 21L45 22L46 22L46 23L47 23L47 22L46 22L46 21L45 21L45 20L46 20L46 19L47 19L47 20L48 20L48 21L49 21L49 20L48 20L48 19L47 19L47 18L46 18L46 19L45 19L45 18L44 18L44 17L45 17L45 16L44 16L44 17L43 17L43 16L42 16L42 15L38 15L38 13L37 13L37 12L36 12L36 15L38 15L38 17L39 17L39 16L42 16L42 18L43 18L43 19L42 19L42 20L43 20L43 21L41 21L41 23L40 23L40 22L38 22L38 21L39 21L39 18L38 18L38 19L37 19L37 20L36 20L36 19L35 19L35 18L37 18L37 16L35 16L35 14L34 14L34 13L33 13L33 14L34 14L34 16L33 16L33 15L30 15L30 14L31 14L31 12L33 12L33 11L30 11L30 12L29 12L29 11L27 11L27 14L28 14L28 12L29 12L29 13L30 13L30 14L29 14L29 15L27 15L27 16L26 16L26 15L24 15L24 16L26 16L26 17L28 17L28 18L29 18L29 19L30 19L30 18L31 18L31 20L27 20L27 21L26 21L26 22L25 22L25 20L26 20L26 19L27 19L27 18L26 18L26 19L23 19L23 17L22 17L22 16L23 16L23 15L22 15L22 14L21 14L21 15L20 15L20 13L22 13L22 12L23 12L23 11L22 11L22 12L20 12L20 11L19 11L19 8L20 8L20 7L21 7L21 6L20 6L20 7L19 7L19 6L18 6L18 7L17 7L17 6ZM26 6L26 7L27 7L27 6ZM44 6L44 7L45 7L45 6ZM31 8L31 9L32 9L32 8ZM44 8L44 9L46 9L46 8ZM51 8L51 10L53 10L53 9L52 9L52 8ZM39 10L39 11L40 11L40 10ZM0 11L0 12L1 12L1 11ZM15 11L15 12L16 12L16 11ZM17 11L17 12L18 12L18 11ZM19 12L19 13L20 13L20 12ZM8 13L8 14L9 14L9 13ZM39 13L39 14L40 14L40 13ZM52 13L52 14L53 14L53 13ZM1 14L1 15L2 15L2 14ZM6 14L6 15L7 15L7 14ZM11 15L11 16L13 16L13 15ZM6 16L6 17L7 17L7 16ZM28 16L28 17L29 17L29 16ZM32 16L32 17L33 17L33 16ZM34 16L34 18L35 18L35 16ZM4 17L4 19L5 19L5 17ZM19 17L19 18L18 18L18 20L19 20L19 21L18 21L18 22L19 22L19 21L20 21L20 23L19 23L19 24L20 24L20 23L21 23L21 22L22 22L22 23L23 23L23 24L22 24L22 25L19 25L19 26L20 26L20 27L21 27L21 28L22 28L22 29L23 29L23 28L22 28L22 27L24 27L24 23L25 23L25 22L24 22L24 23L23 23L23 22L22 22L22 21L24 21L24 20L23 20L23 19L21 19L21 18L22 18L22 17ZM24 17L24 18L25 18L25 17ZM34 19L34 22L33 22L33 23L34 23L34 24L37 24L37 25L36 25L36 26L37 26L37 27L38 27L38 26L37 26L37 25L38 25L38 24L39 24L39 23L38 23L38 22L37 22L37 21L36 21L36 20L35 20L35 19ZM40 19L40 20L41 20L41 19ZM43 19L43 20L45 20L45 19ZM3 20L3 21L5 21L5 22L6 22L6 21L7 21L7 20ZM20 20L20 21L22 21L22 20ZM31 20L31 22L30 22L30 21L29 21L29 22L28 22L28 23L29 23L29 25L31 25L31 24L30 24L30 23L32 23L32 21L33 21L33 20ZM26 22L26 24L27 24L27 22ZM34 22L34 23L35 23L35 22ZM36 22L36 23L37 23L37 22ZM1 23L1 25L2 25L2 23ZM5 25L5 28L8 28L8 25ZM11 25L11 26L12 26L12 27L13 27L13 26L12 26L12 25ZM22 25L22 26L23 26L23 25ZM25 25L25 28L28 28L28 25ZM45 25L45 28L48 28L48 25ZM3 26L3 27L2 27L2 28L1 28L1 29L3 29L3 30L4 30L4 31L5 31L5 32L7 32L7 31L5 31L5 29L3 29L3 27L4 27L4 26ZM6 26L6 27L7 27L7 26ZM26 26L26 27L27 27L27 26ZM46 26L46 27L47 27L47 26ZM15 27L15 28L14 28L14 29L15 29L15 30L17 30L17 29L15 29L15 28L16 28L16 27ZM17 27L17 28L18 28L18 27ZM42 27L42 28L43 28L43 27ZM49 28L49 29L50 29L50 28ZM6 29L6 30L7 30L7 29ZM30 29L30 30L31 30L31 29ZM8 30L8 31L9 31L9 30ZM12 31L12 33L13 33L13 34L14 34L14 33L13 33L13 32L14 32L14 31ZM25 31L25 32L26 32L26 31ZM46 31L46 32L47 32L47 31ZM1 32L1 33L2 33L2 32ZM17 32L17 33L18 33L18 34L19 34L19 33L18 33L18 32ZM6 33L6 34L8 34L8 33ZM15 33L15 34L16 34L16 33ZM38 33L38 34L39 34L39 33ZM9 34L9 35L10 35L10 36L12 36L12 35L10 35L10 34ZM44 34L44 35L45 35L45 34ZM50 34L50 36L52 36L52 35L51 35L51 34ZM43 36L43 37L44 37L44 36ZM19 37L19 38L20 38L20 37ZM0 38L0 39L1 39L1 38ZM6 38L6 39L7 39L7 38ZM24 38L24 39L25 39L25 38ZM34 39L34 40L32 40L32 43L34 43L34 46L33 46L33 44L30 44L30 43L31 43L31 42L29 42L29 43L28 43L28 44L29 44L29 45L31 45L31 46L29 46L29 48L30 48L30 49L31 49L31 48L32 48L32 50L35 50L35 48L37 48L37 47L38 47L38 46L40 46L40 45L41 45L41 44L40 44L40 43L41 43L41 42L40 42L40 43L38 43L38 42L39 42L39 41L38 41L38 42L37 42L37 43L36 43L36 44L35 44L35 43L34 43L34 42L35 42L35 39ZM10 40L10 41L11 41L11 42L12 42L12 43L14 43L14 42L13 42L13 41L11 41L11 40ZM46 40L46 43L45 43L45 44L46 44L46 43L48 43L48 44L49 44L49 42L47 42L47 40ZM48 40L48 41L50 41L50 40ZM17 42L17 44L18 44L18 42ZM9 43L9 44L10 44L10 45L11 45L11 44L10 44L10 43ZM37 43L37 44L36 44L36 45L37 45L37 46L36 46L36 47L37 47L37 46L38 46L38 45L37 45L37 44L38 44L38 43ZM25 45L25 48L28 48L28 45ZM45 45L45 48L48 48L48 45ZM52 45L52 46L53 46L53 45ZM9 46L9 47L10 47L10 46ZM20 46L20 47L21 47L21 46ZM26 46L26 47L27 47L27 46ZM34 46L34 47L32 47L32 48L35 48L35 46ZM46 46L46 47L47 47L47 46ZM30 47L30 48L31 48L31 47ZM17 48L17 49L18 49L18 48ZM49 48L49 49L46 49L46 50L47 50L47 51L46 51L46 52L47 52L47 51L48 51L48 50L49 50L49 49L50 49L50 48ZM9 51L9 52L10 52L10 51ZM0 0L0 7L7 7L7 0ZM1 1L1 6L6 6L6 1ZM2 2L2 5L5 5L5 2ZM46 0L46 7L53 7L53 0ZM47 1L47 6L52 6L52 1ZM48 2L48 5L51 5L51 2ZM0 46L0 53L7 53L7 46ZM1 47L1 52L6 52L6 47ZM2 48L2 51L5 51L5 48Z" fill="#000000"/></g></g></svg>
