<?xml version="1.0" encoding="UTF-8"?>
<svg xmlns="http://www.w3.org/2000/svg" version="1.1" width="400" height="400" viewBox="0 0 400 400"><rect x="0" y="0" width="400" height="400" fill="#fefefe"/><g transform="scale(4.706)"><g transform="translate(4,4)"><path fill-rule="evenodd" d="M8 0L8 5L13 5L13 6L12 6L12 7L11 7L11 6L10 6L10 7L9 7L9 6L8 6L8 8L6 8L6 9L5 9L5 8L4 8L4 9L3 9L3 8L1 8L1 9L0 9L0 12L2 12L2 13L0 13L0 14L1 14L1 15L2 15L2 14L3 14L3 16L0 16L0 21L2 21L2 22L3 22L3 23L1 23L1 22L0 22L0 23L1 23L1 24L2 24L2 26L1 26L1 25L0 25L0 27L1 27L1 28L2 28L2 29L0 29L0 32L1 32L1 33L0 33L0 35L1 35L1 33L2 33L2 34L3 34L3 35L2 35L2 36L0 36L0 37L2 37L2 38L0 38L0 39L3 39L3 40L2 40L2 41L3 41L3 42L4 42L4 43L5 43L5 42L6 42L6 43L7 43L7 42L8 42L8 40L9 40L9 41L10 41L10 43L9 43L9 44L6 44L6 45L9 45L9 44L10 44L10 43L11 43L11 41L10 41L10 40L11 40L11 38L12 38L12 36L11 36L11 35L12 35L12 34L11 34L11 33L12 33L12 32L13 32L13 35L15 35L15 36L13 36L13 38L14 38L14 39L13 39L13 41L12 41L12 42L13 42L13 44L12 44L12 45L13 45L13 46L16 46L16 45L19 45L19 44L22 44L22 43L23 43L23 44L24 44L24 47L23 47L23 45L20 45L20 46L21 46L21 47L16 47L16 48L15 48L15 47L12 47L12 46L11 46L11 45L10 45L10 49L11 49L11 50L12 50L12 52L11 52L11 51L10 51L10 50L9 50L9 46L5 46L5 44L3 44L3 46L2 46L2 47L1 47L1 48L0 48L0 50L1 50L1 53L0 53L0 56L1 56L1 58L0 58L0 59L1 59L1 58L2 58L2 57L3 57L3 56L4 56L4 57L5 57L5 56L6 56L6 57L7 57L7 58L5 58L5 59L4 59L4 58L3 58L3 59L2 59L2 61L3 61L3 60L4 60L4 62L1 62L1 61L0 61L0 62L1 62L1 63L0 63L0 65L1 65L1 67L2 67L2 66L3 66L3 64L4 64L4 65L7 65L7 66L4 66L4 68L1 68L1 69L5 69L5 67L7 67L7 68L6 68L6 69L8 69L8 71L9 71L9 72L8 72L8 73L10 73L10 74L12 74L12 75L16 75L16 76L13 76L13 77L22 77L22 76L23 76L23 77L24 77L24 73L26 73L26 75L27 75L27 77L29 77L29 76L28 76L28 75L30 75L30 77L31 77L31 76L33 76L33 75L38 75L38 77L39 77L39 75L38 75L38 74L39 74L39 73L40 73L40 71L39 71L39 70L38 70L38 68L39 68L39 69L40 69L40 70L42 70L42 69L43 69L43 68L44 68L44 70L43 70L43 71L42 71L42 72L46 72L46 74L47 74L47 76L48 76L48 77L49 77L49 75L48 75L48 74L47 74L47 73L49 73L49 74L50 74L50 73L51 73L51 72L52 72L52 74L55 74L55 73L54 73L54 72L57 72L57 73L56 73L56 75L53 75L53 76L52 76L52 75L50 75L50 77L53 77L53 76L56 76L56 77L57 77L57 76L60 76L60 77L63 77L63 76L62 76L62 75L63 75L63 72L65 72L65 73L66 73L66 74L67 74L67 73L68 73L68 75L65 75L65 74L64 74L64 75L65 75L65 77L71 77L71 76L68 76L68 75L69 75L69 73L70 73L70 75L72 75L72 77L77 77L77 74L76 74L76 76L75 76L75 75L74 75L74 73L75 73L75 72L74 72L74 69L75 69L75 68L76 68L76 69L77 69L77 66L76 66L76 65L77 65L77 63L76 63L76 65L75 65L75 62L77 62L77 59L74 59L74 57L75 57L75 56L71 56L71 55L72 55L72 52L70 52L70 53L66 53L66 55L65 55L65 56L64 56L64 59L63 59L63 60L64 60L64 61L65 61L65 60L69 60L69 61L67 61L67 63L68 63L68 64L70 64L70 65L67 65L67 67L63 67L63 65L64 65L64 64L65 64L65 65L66 65L66 62L65 62L65 63L63 63L63 65L61 65L61 64L62 64L62 63L61 63L61 62L62 62L62 61L59 61L59 60L62 60L62 59L61 59L61 58L63 58L63 57L62 57L62 56L63 56L63 54L65 54L65 52L66 52L66 51L67 51L67 52L69 52L69 51L73 51L73 53L74 53L74 51L75 51L75 50L77 50L77 46L75 46L75 47L76 47L76 48L74 48L74 47L73 47L73 45L75 45L75 43L74 43L74 41L75 41L75 42L76 42L76 45L77 45L77 42L76 42L76 41L77 41L77 39L76 39L76 38L74 38L74 37L77 37L77 34L75 34L75 36L74 36L74 35L73 35L73 34L74 34L74 33L75 33L75 32L74 32L74 31L73 31L73 30L74 30L74 29L75 29L75 30L77 30L77 29L75 29L75 28L77 28L77 26L76 26L76 25L77 25L77 23L76 23L76 22L75 22L75 23L74 23L74 25L73 25L73 24L72 24L72 23L73 23L73 22L74 22L74 21L77 21L77 20L76 20L76 19L74 19L74 21L73 21L73 22L72 22L72 19L73 19L73 18L72 18L72 16L74 16L74 17L75 17L75 16L76 16L76 18L77 18L77 14L76 14L76 13L77 13L77 8L72 8L72 9L73 9L73 10L72 10L72 12L73 12L73 14L72 14L72 13L71 13L71 12L69 12L69 11L71 11L71 8L70 8L70 10L69 10L69 11L68 11L68 9L67 9L67 8L69 8L69 6L68 6L68 7L67 7L67 5L69 5L69 1L68 1L68 4L66 4L66 3L65 3L65 4L66 4L66 5L63 5L63 6L62 6L62 7L61 7L61 3L60 3L60 2L67 2L67 1L66 1L66 0L63 0L63 1L62 1L62 0L61 0L61 1L59 1L59 0L58 0L58 1L57 1L57 2L56 2L56 0L55 0L55 1L53 1L53 0L51 0L51 2L50 2L50 1L49 1L49 0L48 0L48 1L47 1L47 2L48 2L48 1L49 1L49 2L50 2L50 3L46 3L46 2L44 2L44 0L43 0L43 2L41 2L41 1L42 1L42 0L38 0L38 3L37 3L37 1L36 1L36 0L34 0L34 1L33 1L33 3L32 3L32 5L34 5L34 3L35 3L35 2L36 2L36 4L37 4L37 6L36 6L36 7L37 7L37 8L40 8L40 10L41 10L41 11L39 11L39 10L38 10L38 9L37 9L37 10L38 10L38 12L37 12L37 11L36 11L36 10L35 10L35 11L34 11L34 10L33 10L33 9L34 9L34 8L35 8L35 6L34 6L34 8L33 8L33 6L32 6L32 8L30 8L30 7L31 7L31 6L30 6L30 3L31 3L31 2L32 2L32 0L29 0L29 1L28 1L28 0L27 0L27 1L26 1L26 2L24 2L24 1L25 1L25 0L21 0L21 1L20 1L20 2L19 2L19 1L18 1L18 0L17 0L17 4L14 4L14 5L13 5L13 4L11 4L11 3L12 3L12 2L13 2L13 3L15 3L15 2L13 2L13 1L12 1L12 0L11 0L11 3L10 3L10 2L9 2L9 0ZM21 1L21 3L20 3L20 4L21 4L21 7L22 7L22 6L23 6L23 8L24 8L24 6L23 6L23 5L24 5L24 2L23 2L23 4L21 4L21 3L22 3L22 1ZM30 1L30 2L29 2L29 3L30 3L30 2L31 2L31 1ZM39 1L39 3L38 3L38 6L37 6L37 7L38 7L38 6L39 6L39 7L40 7L40 4L39 4L39 3L40 3L40 1ZM58 1L58 2L57 2L57 3L55 3L55 4L53 4L53 3L54 3L54 2L51 2L51 3L52 3L52 4L51 4L51 5L54 5L54 6L53 6L53 7L54 7L54 8L55 8L55 11L56 11L56 12L52 12L52 13L51 13L51 11L54 11L54 10L52 10L52 8L51 8L51 10L49 10L49 11L50 11L50 12L48 12L48 10L47 10L47 9L46 9L46 10L45 10L45 9L44 9L44 10L45 10L45 11L43 11L43 7L44 7L44 6L45 6L45 8L46 8L46 6L45 6L45 3L44 3L44 6L43 6L43 7L42 7L42 6L41 6L41 8L42 8L42 11L41 11L41 13L40 13L40 14L41 14L41 15L42 15L42 16L41 16L41 17L40 17L40 19L39 19L39 20L38 20L38 18L37 18L37 19L36 19L36 18L35 18L35 20L34 20L34 17L38 17L38 16L39 16L39 15L38 15L38 14L37 14L37 15L36 15L36 16L34 16L34 17L33 17L33 20L34 20L34 21L33 21L33 22L32 22L32 18L31 18L31 19L30 19L30 20L31 20L31 22L32 22L32 23L30 23L30 22L25 22L25 21L24 21L24 20L25 20L25 18L26 18L26 15L27 15L27 16L28 16L28 15L27 15L27 14L26 14L26 13L25 13L25 15L24 15L24 13L23 13L23 12L22 12L22 11L21 11L21 12L18 12L18 13L16 13L16 12L17 12L17 11L20 11L20 10L22 10L22 8L21 8L21 9L20 9L20 8L19 8L19 7L20 7L20 6L19 6L19 4L18 4L18 5L15 5L15 7L16 7L16 6L17 6L17 9L16 9L16 12L15 12L15 14L14 14L14 13L12 13L12 12L14 12L14 11L15 11L15 8L14 8L14 11L13 11L13 7L14 7L14 6L13 6L13 7L12 7L12 8L10 8L10 9L12 9L12 10L11 10L11 11L10 11L10 12L8 12L8 11L9 11L9 10L8 10L8 11L5 11L5 12L4 12L4 10L2 10L2 9L1 9L1 11L3 11L3 12L4 12L4 13L3 13L3 14L4 14L4 16L3 16L3 19L4 19L4 18L8 18L8 19L5 19L5 20L7 20L7 21L6 21L6 22L5 22L5 21L4 21L4 22L5 22L5 23L4 23L4 24L7 24L7 23L6 23L6 22L7 22L7 21L8 21L8 22L10 22L10 26L12 26L12 27L13 27L13 28L12 28L12 29L11 29L11 27L10 27L10 29L4 29L4 27L3 27L3 29L4 29L4 33L5 33L5 34L4 34L4 36L5 36L5 37L6 37L6 38L5 38L5 39L4 39L4 38L3 38L3 39L4 39L4 40L3 40L3 41L4 41L4 42L5 42L5 40L8 40L8 37L9 37L9 36L10 36L10 35L11 35L11 34L10 34L10 35L9 35L9 34L7 34L7 33L6 33L6 32L8 32L8 31L9 31L9 33L11 33L11 32L10 32L10 31L9 31L9 30L13 30L13 31L14 31L14 33L15 33L15 28L16 28L16 30L17 30L17 28L18 28L18 29L19 29L19 30L18 30L18 32L16 32L16 33L17 33L17 34L18 34L18 35L17 35L17 37L18 37L18 38L17 38L17 39L18 39L18 40L15 40L15 39L14 39L14 41L13 41L13 42L15 42L15 43L14 43L14 44L15 44L15 45L16 45L16 43L17 43L17 44L19 44L19 43L20 43L20 42L21 42L21 41L20 41L20 40L21 40L21 38L23 38L23 39L22 39L22 40L23 40L23 41L22 41L22 42L23 42L23 43L24 43L24 40L26 40L26 41L27 41L27 45L28 45L28 44L29 44L29 45L32 45L32 44L33 44L33 43L34 43L34 45L33 45L33 47L32 47L32 49L31 49L31 50L30 50L30 48L29 48L29 50L30 50L30 51L28 51L28 52L25 52L25 51L24 51L24 48L23 48L23 47L22 47L22 48L21 48L21 49L20 49L20 50L18 50L18 49L19 49L19 48L17 48L17 50L16 50L16 53L17 53L17 55L15 55L15 53L14 53L14 55L13 55L13 54L12 54L12 53L9 53L9 51L5 51L5 52L4 52L4 49L3 49L3 48L4 48L4 46L3 46L3 47L2 47L2 49L1 49L1 50L2 50L2 53L3 53L3 55L2 55L2 56L3 56L3 55L4 55L4 56L5 56L5 52L8 52L8 53L9 53L9 54L11 54L11 55L10 55L10 56L9 56L9 55L8 55L8 56L9 56L9 57L10 57L10 56L11 56L11 58L8 58L8 59L6 59L6 60L5 60L5 61L6 61L6 62L7 62L7 61L6 61L6 60L8 60L8 61L11 61L11 60L9 60L9 59L11 59L11 58L14 58L14 59L12 59L12 62L11 62L11 63L13 63L13 65L11 65L11 66L10 66L10 62L9 62L9 64L8 64L8 65L9 65L9 66L7 66L7 67L8 67L8 68L9 68L9 71L10 71L10 67L11 67L11 66L13 66L13 65L14 65L14 63L13 63L13 62L14 62L14 59L16 59L16 57L15 57L15 56L18 56L18 57L17 57L17 58L19 58L19 56L20 56L20 58L21 58L21 56L20 56L20 55L19 55L19 56L18 56L18 53L22 53L22 54L21 54L21 55L22 55L22 59L20 59L20 61L21 61L21 60L22 60L22 59L24 59L24 58L26 58L26 59L25 59L25 60L26 60L26 61L25 61L25 62L24 62L24 63L23 63L23 62L22 62L22 63L21 63L21 62L19 62L19 61L18 61L18 60L19 60L19 59L17 59L17 62L16 62L16 61L15 61L15 62L16 62L16 63L15 63L15 66L14 66L14 67L13 67L13 69L12 69L12 68L11 68L11 69L12 69L12 70L15 70L15 69L16 69L16 70L17 70L17 74L16 74L16 75L18 75L18 74L19 74L19 75L20 75L20 76L21 76L21 73L22 73L22 74L23 74L23 73L22 73L22 72L20 72L20 70L21 70L21 71L24 71L24 70L23 70L23 69L22 69L22 68L24 68L24 67L22 67L22 65L21 65L21 64L24 64L24 63L26 63L26 64L25 64L25 68L27 68L27 66L29 66L29 65L30 65L30 67L29 67L29 68L30 68L30 67L34 67L34 68L33 68L33 69L32 69L32 68L31 68L31 69L30 69L30 70L29 70L29 74L30 74L30 75L31 75L31 73L30 73L30 72L32 72L32 73L33 73L33 69L34 69L34 70L37 70L37 71L36 71L36 74L38 74L38 73L39 73L39 72L38 72L38 70L37 70L37 67L38 67L38 66L37 66L37 65L38 65L38 64L39 64L39 66L40 66L40 69L42 69L42 68L43 68L43 66L42 66L42 65L43 65L43 64L44 64L44 66L46 66L46 67L45 67L45 69L46 69L46 68L47 68L47 67L49 67L49 68L53 68L53 67L59 67L59 68L57 68L57 69L58 69L58 72L59 72L59 71L62 71L62 70L60 70L60 69L61 69L61 66L60 66L60 65L59 65L59 66L57 66L57 64L56 64L56 65L55 65L55 66L54 66L54 65L53 65L53 64L51 64L51 65L50 65L50 64L49 64L49 63L48 63L48 62L49 62L49 61L50 61L50 62L51 62L51 63L52 63L52 62L53 62L53 63L60 63L60 62L57 62L57 59L58 59L58 58L59 58L59 59L60 59L60 58L61 58L61 56L60 56L60 57L59 57L59 56L58 56L58 57L57 57L57 58L56 58L56 57L55 57L55 59L54 59L54 60L52 60L52 61L50 61L50 59L53 59L53 58L52 58L52 57L53 57L53 55L55 55L55 56L56 56L56 55L61 55L61 51L65 51L65 48L64 48L64 49L63 49L63 50L62 50L62 49L60 49L60 50L59 50L59 48L61 48L61 47L60 47L60 46L58 46L58 47L59 47L59 48L58 48L58 49L57 49L57 45L56 45L56 44L57 44L57 43L60 43L60 44L59 44L59 45L60 45L60 44L61 44L61 46L62 46L62 48L63 48L63 47L65 47L65 46L63 46L63 45L64 45L64 43L67 43L67 42L66 42L66 41L65 41L65 42L64 42L64 40L62 40L62 42L60 42L60 40L59 40L59 39L62 39L62 38L63 38L63 39L66 39L66 40L67 40L67 41L68 41L68 42L71 42L71 43L70 43L70 44L69 44L69 43L68 43L68 44L66 44L66 45L67 45L67 47L66 47L66 49L67 49L67 51L68 51L68 49L67 49L67 48L68 48L68 46L71 46L71 44L72 44L72 45L73 45L73 44L74 44L74 43L73 43L73 44L72 44L72 42L73 42L73 40L71 40L71 41L69 41L69 40L70 40L70 39L72 39L72 37L74 37L74 36L73 36L73 35L71 35L71 36L68 36L68 35L66 35L66 34L67 34L67 33L66 33L66 34L65 34L65 32L64 32L64 33L63 33L63 34L62 34L62 33L61 33L61 31L62 31L62 32L63 32L63 31L66 31L66 32L67 32L67 31L68 31L68 34L69 34L69 35L70 35L70 34L71 34L71 33L70 33L70 34L69 34L69 32L70 32L70 31L71 31L71 32L72 32L72 34L73 34L73 33L74 33L74 32L72 32L72 30L71 30L71 29L67 29L67 31L66 31L66 30L65 30L65 28L63 28L63 27L67 27L67 28L68 28L68 27L67 27L67 26L66 26L66 25L62 25L62 26L61 26L61 24L60 24L60 25L59 25L59 26L58 26L58 25L57 25L57 26L56 26L56 24L57 24L57 22L58 22L58 24L59 24L59 23L62 23L62 24L63 24L63 23L64 23L64 22L63 22L63 21L62 21L62 22L60 22L60 20L59 20L59 19L61 19L61 18L63 18L63 19L62 19L62 20L64 20L64 18L65 18L65 19L66 19L66 17L67 17L67 18L68 18L68 17L69 17L69 18L70 18L70 19L69 19L69 20L67 20L67 21L69 21L69 20L71 20L71 19L72 19L72 18L70 18L70 14L71 14L71 13L68 13L68 12L65 12L65 11L67 11L67 10L66 10L66 9L65 9L65 10L64 10L64 9L63 9L63 8L62 8L62 9L61 9L61 8L60 8L60 9L59 9L59 7L60 7L60 6L59 6L59 7L58 7L58 6L57 6L57 7L58 7L58 11L60 11L60 12L59 12L59 16L61 16L61 17L60 17L60 18L59 18L59 19L58 19L58 20L54 20L54 21L57 21L57 22L55 22L55 23L54 23L54 22L53 22L53 23L54 23L54 25L55 25L55 26L53 26L53 27L54 27L54 28L53 28L53 29L54 29L54 30L49 30L49 29L48 29L48 30L47 30L47 29L46 29L46 28L45 28L45 27L46 27L46 24L45 24L45 23L47 23L47 24L49 24L49 23L48 23L48 22L50 22L50 21L48 21L48 20L47 20L47 21L48 21L48 22L46 22L46 21L45 21L45 23L43 23L43 20L45 20L45 19L44 19L44 18L45 18L45 17L46 17L46 19L47 19L47 18L48 18L48 17L49 17L49 16L48 16L48 15L47 15L47 13L49 13L49 14L50 14L50 17L51 17L51 18L49 18L49 19L50 19L50 20L51 20L51 21L53 21L53 20L51 20L51 19L52 19L52 18L53 18L53 19L56 19L56 18L57 18L57 17L56 17L56 18L54 18L54 17L53 17L53 15L52 15L52 14L53 14L53 13L55 13L55 15L54 15L54 16L57 16L57 15L58 15L58 14L57 14L57 11L56 11L56 9L57 9L57 8L55 8L55 7L56 7L56 6L55 6L55 5L56 5L56 4L57 4L57 5L59 5L59 4L57 4L57 3L59 3L59 1ZM26 2L26 3L27 3L27 4L28 4L28 3L27 3L27 2ZM63 3L63 4L64 4L64 3ZM42 4L42 5L43 5L43 4ZM25 5L25 8L28 8L28 5ZM47 5L47 8L50 8L50 5ZM18 6L18 7L19 7L19 6ZM26 6L26 7L27 7L27 6ZM29 6L29 7L30 7L30 6ZM48 6L48 7L49 7L49 6ZM51 6L51 7L52 7L52 6ZM54 6L54 7L55 7L55 6ZM63 6L63 7L64 7L64 8L65 8L65 7L66 7L66 6L65 6L65 7L64 7L64 6ZM8 8L8 9L9 9L9 8ZM18 8L18 9L17 9L17 10L20 10L20 9L19 9L19 8ZM32 8L32 9L30 9L30 10L29 10L29 9L25 9L25 11L26 11L26 12L27 12L27 11L28 11L28 14L29 14L29 12L30 12L30 11L31 11L31 12L32 12L32 13L33 13L33 14L36 14L36 11L35 11L35 13L33 13L33 12L34 12L34 11L33 11L33 12L32 12L32 11L31 11L31 10L32 10L32 9L33 9L33 8ZM6 9L6 10L7 10L7 9ZM23 9L23 10L24 10L24 9ZM74 9L74 11L73 11L73 12L74 12L74 11L75 11L75 12L76 12L76 11L75 11L75 9ZM26 10L26 11L27 11L27 10ZM28 10L28 11L29 11L29 10ZM60 10L60 11L61 11L61 12L60 12L60 13L61 13L61 12L62 12L62 13L63 13L63 14L60 14L60 15L61 15L61 16L62 16L62 17L64 17L64 16L65 16L65 17L66 17L66 16L69 16L69 15L68 15L68 14L66 14L66 15L63 15L63 14L65 14L65 12L64 12L64 13L63 13L63 12L62 12L62 10ZM42 11L42 12L43 12L43 13L42 13L42 15L43 15L43 16L44 16L44 17L43 17L43 18L44 18L44 17L45 17L45 16L47 16L47 15L45 15L45 14L46 14L46 12L47 12L47 11L45 11L45 12L43 12L43 11ZM5 12L5 13L4 13L4 14L6 14L6 15L5 15L5 16L4 16L4 17L5 17L5 16L6 16L6 17L8 17L8 16L6 16L6 15L7 15L7 14L8 14L8 15L9 15L9 20L8 20L8 21L9 21L9 20L10 20L10 21L13 21L13 24L14 24L14 21L15 21L15 19L16 19L16 20L17 20L17 21L16 21L16 22L15 22L15 24L16 24L16 27L18 27L18 26L19 26L19 27L20 27L20 28L22 28L22 30L23 30L23 31L22 31L22 32L21 32L21 33L22 33L22 32L23 32L23 31L25 31L25 30L26 30L26 31L28 31L28 30L26 30L26 29L29 29L29 30L30 30L30 29L29 29L29 27L30 27L30 28L31 28L31 27L30 27L30 26L34 26L34 29L33 29L33 27L32 27L32 29L33 29L33 30L34 30L34 31L38 31L38 32L33 32L33 31L32 31L32 32L31 32L31 33L32 33L32 34L31 34L31 37L30 37L30 35L29 35L29 34L30 34L30 33L29 33L29 34L28 34L28 37L29 37L29 38L26 38L26 37L27 37L27 34L26 34L26 33L24 33L24 34L23 34L23 35L22 35L22 34L21 34L21 35L20 35L20 36L21 36L21 35L22 35L22 37L23 37L23 36L24 36L24 37L25 37L25 39L30 39L30 40L29 40L29 41L28 41L28 40L27 40L27 41L28 41L28 42L29 42L29 44L31 44L31 43L33 43L33 42L34 42L34 41L35 41L35 42L36 42L36 41L38 41L38 42L37 42L37 43L38 43L38 44L36 44L36 43L35 43L35 45L34 45L34 47L35 47L35 48L36 48L36 47L37 47L37 48L38 48L38 51L37 51L37 50L36 50L36 51L37 51L37 52L35 52L35 51L34 51L34 48L33 48L33 51L32 51L32 52L33 52L33 53L34 53L34 54L35 54L35 53L36 53L36 54L37 54L37 56L36 56L36 55L35 55L35 58L34 58L34 59L36 59L36 58L37 58L37 57L38 57L38 58L39 58L39 59L40 59L40 57L41 57L41 60L38 60L38 59L37 59L37 60L38 60L38 61L37 61L37 62L40 62L40 61L41 61L41 60L42 60L42 61L43 61L43 62L42 62L42 63L40 63L40 66L41 66L41 67L42 67L42 66L41 66L41 65L42 65L42 63L43 63L43 62L44 62L44 63L46 63L46 65L47 65L47 64L48 64L48 65L49 65L49 66L50 66L50 65L49 65L49 64L48 64L48 63L47 63L47 62L48 62L48 61L49 61L49 60L47 60L47 59L46 59L46 58L45 58L45 57L44 57L44 59L42 59L42 58L43 58L43 56L45 56L45 52L44 52L44 51L46 51L46 55L47 55L47 52L48 52L48 51L50 51L50 52L51 52L51 53L48 53L48 55L49 55L49 56L50 56L50 54L52 54L52 55L53 55L53 54L52 54L52 53L53 53L53 52L55 52L55 51L53 51L53 50L54 50L54 48L55 48L55 47L53 47L53 45L54 45L54 46L55 46L55 44L56 44L56 43L57 43L57 42L56 42L56 43L55 43L55 44L54 44L54 42L53 42L53 44L52 44L52 43L51 43L51 42L52 42L52 41L54 41L54 40L56 40L56 41L58 41L58 42L59 42L59 40L58 40L58 39L57 39L57 38L58 38L58 37L57 37L57 36L59 36L59 37L60 37L60 36L59 36L59 33L57 33L57 35L56 35L56 36L54 36L54 35L55 35L55 33L56 33L56 32L58 32L58 31L59 31L59 32L60 32L60 31L61 31L61 30L63 30L63 29L61 29L61 28L62 28L62 27L63 27L63 26L62 26L62 27L61 27L61 28L60 28L60 27L55 27L55 28L56 28L56 30L57 30L57 31L55 31L55 30L54 30L54 31L53 31L53 32L55 32L55 33L52 33L52 35L53 35L53 37L52 37L52 39L53 39L53 40L51 40L51 42L50 42L50 43L49 43L49 44L50 44L50 45L51 45L51 46L48 46L48 45L47 45L47 43L48 43L48 41L49 41L49 40L50 40L50 38L51 38L51 37L50 37L50 38L49 38L49 36L51 36L51 33L50 33L50 35L49 35L49 34L48 34L48 32L49 32L49 30L48 30L48 31L47 31L47 30L46 30L46 29L44 29L44 28L43 28L43 27L45 27L45 24L43 24L43 23L42 23L42 22L39 22L39 23L37 23L37 24L36 24L36 22L38 22L38 21L37 21L37 20L35 20L35 21L34 21L34 23L35 23L35 24L36 24L36 25L39 25L39 23L41 23L41 24L42 24L42 25L40 25L40 26L43 26L43 27L42 27L42 28L41 28L41 29L42 29L42 30L38 30L38 29L37 29L37 27L39 27L39 26L36 26L36 28L35 28L35 25L34 25L34 24L33 24L33 23L32 23L32 25L30 25L30 23L27 23L27 24L26 24L26 23L24 23L24 21L22 21L22 23L24 23L24 25L23 25L23 26L22 26L22 27L20 27L20 25L21 25L21 21L20 21L20 20L22 20L22 19L23 19L23 20L24 20L24 18L25 18L25 17L24 17L24 16L23 16L23 13L22 13L22 16L23 16L23 18L22 18L22 19L20 19L20 20L19 20L19 21L20 21L20 23L19 23L19 22L17 22L17 21L18 21L18 20L17 20L17 19L18 19L18 18L19 18L19 17L21 17L21 16L20 16L20 14L21 14L21 13L19 13L19 14L18 14L18 15L16 15L16 14L15 14L15 16L16 16L16 17L15 17L15 18L14 18L14 16L12 16L12 15L14 15L14 14L12 14L12 13L10 13L10 15L9 15L9 14L8 14L8 13L7 13L7 12ZM38 12L38 13L39 13L39 12ZM6 13L6 14L7 14L7 13ZM74 13L74 14L73 14L73 15L74 15L74 16L75 16L75 15L76 15L76 14L75 14L75 13ZM11 14L11 15L10 15L10 16L11 16L11 17L10 17L10 18L12 18L12 20L13 20L13 21L14 21L14 18L12 18L12 16L11 16L11 15L12 15L12 14ZM56 14L56 15L57 15L57 14ZM18 15L18 16L17 16L17 18L16 18L16 19L17 19L17 18L18 18L18 16L19 16L19 15ZM29 15L29 16L30 16L30 15ZM44 15L44 16L45 16L45 15ZM62 15L62 16L63 16L63 15ZM71 15L71 16L72 16L72 15ZM31 16L31 17L32 17L32 16ZM51 16L51 17L52 17L52 16ZM1 17L1 20L2 20L2 17ZM27 17L27 18L28 18L28 19L27 19L27 21L29 21L29 20L28 20L28 19L29 19L29 18L30 18L30 17ZM41 17L41 18L42 18L42 17ZM10 19L10 20L11 20L11 19ZM41 19L41 20L40 20L40 21L42 21L42 19ZM11 22L11 25L12 25L12 26L13 26L13 25L12 25L12 22ZM51 22L51 23L50 23L50 24L51 24L51 27L52 27L52 22ZM62 22L62 23L63 23L63 22ZM65 22L65 23L66 23L66 24L67 24L67 25L68 25L68 24L67 24L67 23L69 23L69 24L71 24L71 23L72 23L72 22L67 22L67 23L66 23L66 22ZM8 23L8 24L9 24L9 23ZM17 23L17 25L18 25L18 24L19 24L19 23ZM55 23L55 24L56 24L56 23ZM75 23L75 25L74 25L74 27L73 27L73 28L74 28L74 27L75 27L75 25L76 25L76 23ZM5 25L5 28L8 28L8 25ZM14 25L14 26L15 26L15 25ZM25 25L25 28L28 28L28 25ZM43 25L43 26L44 26L44 25ZM47 25L47 28L50 28L50 25ZM69 25L69 28L72 28L72 25ZM6 26L6 27L7 27L7 26ZM23 26L23 27L22 27L22 28L24 28L24 26ZM26 26L26 27L27 27L27 26ZM48 26L48 27L49 27L49 26ZM70 26L70 27L71 27L71 26ZM13 28L13 30L14 30L14 28ZM39 28L39 29L40 29L40 28ZM42 28L42 29L43 29L43 30L42 30L42 32L41 32L41 31L40 31L40 32L38 32L38 36L40 36L40 37L35 37L35 38L39 38L39 39L40 39L40 38L41 38L41 40L38 40L38 41L41 41L41 45L40 45L40 48L39 48L39 50L40 50L40 49L41 49L41 52L40 52L40 51L39 51L39 52L40 52L40 53L42 53L42 52L43 52L43 51L42 51L42 50L44 50L44 49L43 49L43 47L44 47L44 48L46 48L46 46L47 46L47 45L45 45L45 43L43 43L43 42L42 42L42 41L44 41L44 38L43 38L43 37L44 37L44 36L45 36L45 38L47 38L47 39L46 39L46 41L47 41L47 40L48 40L48 39L49 39L49 38L47 38L47 37L46 37L46 36L48 36L48 35L46 35L46 36L45 36L45 35L44 35L44 34L43 34L43 33L44 33L44 32L45 32L45 34L47 34L47 32L45 32L45 31L44 31L44 29L43 29L43 28ZM57 28L57 30L59 30L59 31L60 31L60 30L59 30L59 29L58 29L58 28ZM23 29L23 30L25 30L25 29ZM36 29L36 30L37 30L37 29ZM1 30L1 32L2 32L2 30ZM6 30L6 31L5 31L5 32L6 32L6 31L8 31L8 30ZM19 31L19 33L18 33L18 34L20 34L20 31ZM43 31L43 32L42 32L42 33L41 33L41 34L40 34L40 33L39 33L39 35L41 35L41 34L42 34L42 36L44 36L44 35L43 35L43 34L42 34L42 33L43 33L43 32L44 32L44 31ZM76 31L76 33L77 33L77 31ZM27 32L27 33L28 33L28 32ZM33 33L33 34L34 34L34 36L33 36L33 37L34 37L34 36L35 36L35 35L36 35L36 36L37 36L37 35L36 35L36 34L37 34L37 33L35 33L35 34L34 34L34 33ZM6 34L6 35L5 35L5 36L6 36L6 37L7 37L7 36L6 36L6 35L7 35L7 34ZM15 34L15 35L16 35L16 34ZM24 34L24 35L25 35L25 34ZM60 34L60 35L61 35L61 38L62 38L62 36L63 36L63 38L64 38L64 37L65 37L65 38L66 38L66 37L65 37L65 36L66 36L66 35L65 35L65 34L64 34L64 35L65 35L65 36L63 36L63 35L61 35L61 34ZM18 35L18 37L19 37L19 35ZM67 36L67 38L68 38L68 36ZM71 36L71 37L72 37L72 36ZM10 37L10 38L11 38L11 37ZM20 37L20 38L19 38L19 40L20 40L20 38L21 38L21 37ZM41 37L41 38L42 38L42 37ZM53 37L53 39L54 39L54 37ZM69 37L69 39L68 39L68 40L69 40L69 39L70 39L70 37ZM6 38L6 39L7 39L7 38ZM31 38L31 41L29 41L29 42L32 42L32 40L33 40L33 41L34 41L34 38L33 38L33 39L32 39L32 38ZM55 38L55 39L56 39L56 40L57 40L57 39L56 39L56 38ZM73 38L73 39L74 39L74 40L75 40L75 41L76 41L76 39L74 39L74 38ZM9 39L9 40L10 40L10 39ZM42 39L42 40L41 40L41 41L42 41L42 40L43 40L43 39ZM0 41L0 43L1 43L1 44L0 44L0 46L1 46L1 45L2 45L2 43L1 43L1 41ZM6 41L6 42L7 42L7 41ZM16 41L16 42L17 42L17 43L19 43L19 42L20 42L20 41L19 41L19 42L17 42L17 41ZM71 41L71 42L72 42L72 41ZM39 42L39 43L40 43L40 42ZM62 42L62 43L61 43L61 44L63 44L63 42ZM25 43L25 44L26 44L26 43ZM42 43L42 46L41 46L41 49L42 49L42 47L43 47L43 45L44 45L44 47L45 47L45 45L44 45L44 44L43 44L43 43ZM50 43L50 44L51 44L51 45L52 45L52 44L51 44L51 43ZM25 45L25 46L26 46L26 45ZM35 45L35 46L37 46L37 47L38 47L38 45ZM29 46L29 47L30 47L30 46ZM51 46L51 48L52 48L52 49L51 49L51 52L53 52L53 51L52 51L52 50L53 50L53 47L52 47L52 46ZM5 47L5 50L8 50L8 47ZM11 47L11 48L12 48L12 50L14 50L14 48L12 48L12 47ZM25 47L25 50L28 50L28 47ZM47 47L47 50L50 50L50 47ZM69 47L69 50L72 50L72 47ZM6 48L6 49L7 49L7 48ZM22 48L22 49L23 49L23 48ZM26 48L26 49L27 49L27 48ZM48 48L48 49L49 49L49 48ZM70 48L70 49L71 49L71 48ZM2 49L2 50L3 50L3 49ZM56 49L56 50L57 50L57 49ZM73 49L73 51L74 51L74 50L75 50L75 49ZM60 50L60 51L57 51L57 52L59 52L59 53L60 53L60 51L61 51L61 50ZM13 51L13 52L15 52L15 51ZM18 51L18 52L17 52L17 53L18 53L18 52L19 52L19 51ZM20 51L20 52L21 52L21 51ZM23 51L23 54L22 54L22 55L25 55L25 56L23 56L23 58L24 58L24 57L26 57L26 55L27 55L27 56L28 56L28 55L30 55L30 56L29 56L29 58L30 58L30 57L31 57L31 59L28 59L28 57L27 57L27 59L26 59L26 60L28 60L28 61L29 61L29 62L30 62L30 60L31 60L31 61L32 61L32 62L31 62L31 64L30 64L30 63L28 63L28 62L27 62L27 61L26 61L26 63L28 63L28 64L26 64L26 65L28 65L28 64L30 64L30 65L31 65L31 66L34 66L34 65L35 65L35 66L36 66L36 67L37 67L37 66L36 66L36 64L32 64L32 63L33 63L33 62L34 62L34 60L32 60L32 59L33 59L33 57L34 57L34 56L33 56L33 54L31 54L31 55L30 55L30 53L28 53L28 55L27 55L27 54L26 54L26 53L25 53L25 54L24 54L24 51ZM30 51L30 52L31 52L31 51ZM33 51L33 52L34 52L34 51ZM76 51L76 53L77 53L77 51ZM3 52L3 53L4 53L4 52ZM6 53L6 54L7 54L7 53ZM37 53L37 54L39 54L39 55L38 55L38 56L39 56L39 55L40 55L40 56L41 56L41 57L42 57L42 56L43 56L43 55L42 55L42 56L41 56L41 55L40 55L40 54L39 54L39 53ZM43 53L43 54L44 54L44 53ZM55 53L55 54L58 54L58 53ZM70 53L70 54L68 54L68 55L67 55L67 57L68 57L68 58L66 58L66 57L65 57L65 59L64 59L64 60L65 60L65 59L69 59L69 60L70 60L70 61L69 61L69 63L70 63L70 62L71 62L71 63L72 63L72 64L71 64L71 65L70 65L70 66L71 66L71 68L73 68L73 69L74 69L74 67L76 67L76 66L75 66L75 65L73 65L73 64L74 64L74 62L75 62L75 61L72 61L72 62L71 62L71 60L70 60L70 58L72 58L72 60L74 60L74 59L73 59L73 58L72 58L72 57L70 57L70 54L71 54L71 53ZM25 54L25 55L26 55L26 54ZM75 54L75 55L76 55L76 57L77 57L77 55L76 55L76 54ZM6 55L6 56L7 56L7 55ZM11 55L11 56L12 56L12 55ZM13 56L13 57L14 57L14 56ZM32 56L32 57L33 57L33 56ZM68 56L68 57L69 57L69 58L70 58L70 57L69 57L69 56ZM48 57L48 59L50 59L50 57ZM55 59L55 60L56 60L56 59ZM23 60L23 61L24 61L24 60ZM35 60L35 63L36 63L36 60ZM43 60L43 61L44 61L44 62L46 62L46 61L47 61L47 60ZM1 63L1 65L2 65L2 64L3 64L3 63ZM4 63L4 64L7 64L7 63ZM17 63L17 66L18 66L18 63ZM20 63L20 64L21 64L21 63ZM31 64L31 65L32 65L32 64ZM19 65L19 67L16 67L16 66L15 66L15 67L14 67L14 68L18 68L18 69L17 69L17 70L19 70L19 67L20 67L20 68L22 68L22 67L21 67L21 65ZM52 65L52 67L53 67L53 65ZM71 65L71 66L72 66L72 67L73 67L73 65ZM62 67L62 68L63 68L63 69L64 69L64 68L63 68L63 67ZM67 67L67 71L66 71L66 70L65 70L65 71L66 71L66 72L68 72L68 67ZM34 68L34 69L36 69L36 68ZM54 68L54 70L53 70L53 69L52 69L52 70L51 70L51 71L54 71L54 70L55 70L55 71L56 71L56 70L55 70L55 69L56 69L56 68ZM21 69L21 70L22 70L22 69ZM25 69L25 72L28 72L28 69ZM47 69L47 72L50 72L50 69ZM69 69L69 72L72 72L72 69ZM26 70L26 71L27 71L27 70ZM30 70L30 71L32 71L32 70ZM48 70L48 71L49 71L49 70ZM63 70L63 71L64 71L64 70ZM70 70L70 71L71 71L71 70ZM75 70L75 71L76 71L76 73L77 73L77 71L76 71L76 70ZM11 71L11 72L10 72L10 73L12 73L12 74L13 74L13 73L14 73L14 72L15 72L15 73L16 73L16 71ZM18 71L18 73L20 73L20 72L19 72L19 71ZM12 72L12 73L13 73L13 72ZM34 72L34 73L35 73L35 72ZM60 72L60 73L59 73L59 74L58 74L58 73L57 73L57 75L60 75L60 76L61 76L61 75L60 75L60 74L61 74L61 72ZM73 72L73 73L72 73L72 74L73 74L73 73L74 73L74 72ZM27 73L27 74L28 74L28 73ZM42 73L42 75L45 75L45 77L46 77L46 75L45 75L45 74L44 74L44 73ZM8 74L8 76L10 76L10 77L11 77L11 75L9 75L9 74ZM32 74L32 75L33 75L33 74ZM40 74L40 77L41 77L41 74ZM73 75L73 76L74 76L74 75ZM25 76L25 77L26 77L26 76ZM35 76L35 77L37 77L37 76ZM42 76L42 77L44 77L44 76ZM0 0L0 7L7 7L7 0ZM1 1L1 6L6 6L6 1ZM2 2L2 5L5 5L5 2ZM70 0L70 7L77 7L77 0ZM71 1L71 6L76 6L76 1ZM72 2L72 5L75 5L75 2ZM0 70L0 77L7 77L7 70ZM1 71L1 76L6 76L6 71ZM2 72L2 75L5 75L5 72Z" fill="#000000"/></g></g></svg>
