<?xml version="1.0" encoding="UTF-8"?>
<svg xmlns="http://www.w3.org/2000/svg" version="1.1" width="400" height="400" viewBox="0 0 400 400"><rect x="0" y="0" width="400" height="400" fill="#fefefe"/><g transform="scale(4.706)"><g transform="translate(4,4)"><path fill-rule="evenodd" d="M10 0L10 1L9 1L9 2L10 2L10 1L11 1L11 0ZM14 0L14 1L15 1L15 3L14 3L14 4L12 4L12 3L13 3L13 1L12 1L12 3L10 3L10 5L8 5L8 8L9 8L9 10L10 10L10 7L11 7L11 6L10 6L10 5L11 5L11 4L12 4L12 7L13 7L13 5L16 5L16 4L17 4L17 2L18 2L18 3L19 3L19 5L18 5L18 7L17 7L17 6L16 6L16 8L14 8L14 11L12 11L12 10L11 10L11 11L12 11L12 13L13 13L13 14L12 14L12 16L11 16L11 14L10 14L10 13L11 13L11 12L9 12L9 13L7 13L7 12L8 12L8 11L7 11L7 10L8 10L8 9L7 9L7 8L6 8L6 9L5 9L5 10L3 10L3 8L1 8L1 10L3 10L3 11L4 11L4 12L2 12L2 11L1 11L1 12L0 12L0 13L2 13L2 14L3 14L3 16L1 16L1 15L0 15L0 16L1 16L1 17L0 17L0 18L1 18L1 19L0 19L0 21L1 21L1 22L0 22L0 23L2 23L2 24L0 24L0 25L2 25L2 27L1 27L1 26L0 26L0 27L1 27L1 28L0 28L0 30L2 30L2 31L1 31L1 33L0 33L0 35L1 35L1 36L0 36L0 37L1 37L1 36L4 36L4 37L3 37L3 39L2 39L2 38L0 38L0 41L2 41L2 42L3 42L3 44L4 44L4 45L3 45L3 47L2 47L2 46L1 46L1 47L2 47L2 48L3 48L3 50L4 50L4 51L2 51L2 49L1 49L1 48L0 48L0 50L1 50L1 51L0 51L0 52L1 52L1 51L2 51L2 52L3 52L3 53L4 53L4 54L3 54L3 55L2 55L2 53L1 53L1 56L0 56L0 60L1 60L1 61L2 61L2 62L1 62L1 63L2 63L2 64L4 64L4 63L5 63L5 65L2 65L2 66L1 66L1 67L2 67L2 66L4 66L4 68L1 68L1 69L5 69L5 67L8 67L8 68L6 68L6 69L8 69L8 70L9 70L9 71L10 71L10 70L14 70L14 71L12 71L12 72L13 72L13 76L12 76L12 75L11 75L11 74L12 74L12 73L10 73L10 72L9 72L9 74L8 74L8 76L9 76L9 77L10 77L10 76L9 76L9 75L11 75L11 76L12 76L12 77L19 77L19 76L20 76L20 77L21 77L21 76L20 76L20 75L21 75L21 74L23 74L23 75L22 75L22 76L23 76L23 75L24 75L24 77L25 77L25 76L26 76L26 75L27 75L27 77L28 77L28 75L29 75L29 76L30 76L30 75L31 75L31 74L32 74L32 75L33 75L33 76L31 76L31 77L33 77L33 76L37 76L37 77L43 77L43 76L44 76L44 75L47 75L47 74L45 74L45 73L51 73L51 75L50 75L50 74L49 74L49 75L48 75L48 76L47 76L47 77L51 77L51 75L52 75L52 76L53 76L53 75L54 75L54 77L56 77L56 75L58 75L58 76L59 76L59 77L61 77L61 76L59 76L59 75L64 75L64 76L62 76L62 77L64 77L64 76L65 76L65 75L64 75L64 71L65 71L65 70L66 70L66 71L67 71L67 72L65 72L65 74L66 74L66 75L69 75L69 76L68 76L68 77L69 77L69 76L70 76L70 77L73 77L73 76L74 76L74 77L75 77L75 76L76 76L76 77L77 77L77 74L76 74L76 73L77 73L77 71L75 71L75 72L73 72L73 69L75 69L75 70L76 70L76 69L77 69L77 66L75 66L75 67L76 67L76 68L72 68L72 67L74 67L74 66L73 66L73 65L74 65L74 64L73 64L73 65L72 65L72 64L71 64L71 63L72 63L72 62L70 62L70 61L69 61L69 62L67 62L67 61L68 61L68 60L71 60L71 61L72 61L72 60L71 60L71 58L73 58L73 56L72 56L72 54L73 54L73 55L75 55L75 56L74 56L74 57L76 57L76 58L75 58L75 59L73 59L73 60L74 60L74 61L73 61L73 62L74 62L74 63L75 63L75 62L76 62L76 65L77 65L77 62L76 62L76 61L77 61L77 60L75 60L75 59L76 59L76 58L77 58L77 55L75 55L75 54L76 54L76 53L77 53L77 52L76 52L76 51L77 51L77 50L76 50L76 51L75 51L75 52L74 52L74 51L73 51L73 50L74 50L74 49L75 49L75 47L74 47L74 45L77 45L77 42L75 42L75 43L73 43L73 42L72 42L72 39L75 39L75 40L74 40L74 41L77 41L77 39L75 39L75 38L76 38L76 37L77 37L77 31L76 31L76 30L77 30L77 29L76 29L76 28L77 28L77 26L76 26L76 28L75 28L75 27L73 27L73 25L77 25L77 23L75 23L75 24L69 24L69 23L68 23L68 22L69 22L69 21L68 21L68 20L70 20L70 22L71 22L71 23L73 23L73 22L71 22L71 21L72 21L72 20L73 20L73 21L75 21L75 22L76 22L76 21L77 21L77 20L76 20L76 19L77 19L77 18L75 18L75 19L74 19L74 17L75 17L75 16L74 16L74 15L75 15L75 14L74 14L74 13L75 13L75 12L76 12L76 14L77 14L77 12L76 12L76 11L77 11L77 10L75 10L75 11L73 11L73 10L72 10L72 8L70 8L70 9L69 9L69 8L68 8L68 10L70 10L70 11L68 11L68 12L67 12L67 11L66 11L66 10L67 10L67 8L66 8L66 9L64 9L64 7L65 7L65 6L66 6L66 7L67 7L67 5L69 5L69 1L68 1L68 4L66 4L66 2L67 2L67 1L66 1L66 2L65 2L65 4L66 4L66 5L64 5L64 4L63 4L63 5L64 5L64 7L63 7L63 6L62 6L62 8L63 8L63 9L62 9L62 10L61 10L61 9L60 9L60 7L61 7L61 6L60 6L60 7L59 7L59 6L58 6L58 4L59 4L59 3L58 3L58 2L59 2L59 0L58 0L58 2L57 2L57 1L56 1L56 2L54 2L54 0L52 0L52 2L50 2L50 1L48 1L48 2L49 2L49 3L50 3L50 4L47 4L47 3L46 3L46 9L45 9L45 8L44 8L44 7L45 7L45 6L44 6L44 7L43 7L43 6L42 6L42 7L41 7L41 6L40 6L40 9L39 9L39 6L38 6L38 5L44 5L44 4L45 4L45 2L46 2L46 1L47 1L47 0L45 0L45 2L42 2L42 1L41 1L41 0L40 0L40 2L38 2L38 1L37 1L37 4L38 4L38 5L36 5L36 3L35 3L35 2L34 2L34 1L35 1L35 0L33 0L33 2L34 2L34 3L35 3L35 6L34 6L34 5L33 5L33 3L32 3L32 0L31 0L31 1L30 1L30 2L31 2L31 3L30 3L30 4L31 4L31 6L30 6L30 5L29 5L29 4L27 4L27 3L25 3L25 4L23 4L23 2L24 2L24 1L22 1L22 4L21 4L21 2L20 2L20 3L19 3L19 1L20 1L20 0L17 0L17 2L16 2L16 0ZM26 0L26 1L25 1L25 2L26 2L26 1L27 1L27 2L28 2L28 3L29 3L29 2L28 2L28 1L29 1L29 0ZM64 0L64 1L65 1L65 0ZM60 1L60 5L61 5L61 4L62 4L62 2L63 2L63 3L64 3L64 2L63 2L63 1L62 1L62 2L61 2L61 1ZM40 2L40 4L42 4L42 3L41 3L41 2ZM52 2L52 3L51 3L51 4L52 4L52 5L51 5L51 7L52 7L52 8L51 8L51 9L52 9L52 11L51 11L51 10L50 10L50 9L48 9L48 11L49 11L49 12L48 12L48 13L47 13L47 15L46 15L46 14L45 14L45 13L46 13L46 12L47 12L47 11L46 11L46 10L45 10L45 13L44 13L44 10L43 10L43 9L44 9L44 8L43 8L43 7L42 7L42 8L41 8L41 10L40 10L40 13L39 13L39 12L37 12L37 11L38 11L38 9L37 9L37 8L35 8L35 7L36 7L36 6L35 6L35 7L34 7L34 6L33 6L33 5L32 5L32 6L31 6L31 8L29 8L29 9L28 9L28 10L27 10L27 9L25 9L25 10L27 10L27 11L23 11L23 7L24 7L24 5L23 5L23 7L22 7L22 5L21 5L21 4L20 4L20 5L19 5L19 8L17 8L17 9L15 9L15 10L17 10L17 11L16 11L16 13L15 13L15 14L14 14L14 15L15 15L15 16L13 16L13 17L16 17L16 18L17 18L17 19L16 19L16 20L14 20L14 19L15 19L15 18L14 18L14 19L11 19L11 18L12 18L12 17L11 17L11 18L8 18L8 17L6 17L6 16L7 16L7 15L8 15L8 16L9 16L9 17L10 17L10 14L9 14L9 15L8 15L8 14L7 14L7 13L5 13L5 12L7 12L7 11L5 11L5 12L4 12L4 13L3 13L3 14L4 14L4 13L5 13L5 14L7 14L7 15L4 15L4 16L5 16L5 17L4 17L4 19L1 19L1 21L2 21L2 22L3 22L3 21L5 21L5 23L3 23L3 24L2 24L2 25L3 25L3 24L5 24L5 23L6 23L6 24L7 24L7 23L8 23L8 24L9 24L9 23L10 23L10 25L9 25L9 26L10 26L10 27L9 27L9 29L10 29L10 30L9 30L9 31L10 31L10 32L11 32L11 33L10 33L10 34L8 34L8 29L3 29L3 27L4 27L4 26L3 26L3 27L2 27L2 29L3 29L3 33L4 33L4 30L5 30L5 32L7 32L7 33L6 33L6 34L7 34L7 35L5 35L5 34L4 34L4 36L8 36L8 35L9 35L9 36L10 36L10 37L11 37L11 42L12 42L12 43L10 43L10 44L13 44L13 45L12 45L12 46L11 46L11 45L9 45L9 44L8 44L8 43L6 43L6 44L8 44L8 46L9 46L9 47L10 47L10 49L9 49L9 51L4 51L4 53L5 53L5 54L7 54L7 55L4 55L4 56L3 56L3 57L2 57L2 56L1 56L1 57L2 57L2 58L1 58L1 60L3 60L3 62L2 62L2 63L4 63L4 62L5 62L5 63L6 63L6 64L9 64L9 65L6 65L6 66L8 66L8 67L9 67L9 66L12 66L12 67L13 67L13 68L12 68L12 69L14 69L14 68L18 68L18 67L20 67L20 65L21 65L21 64L24 64L24 66L23 66L23 65L22 65L22 66L21 66L21 67L22 67L22 68L19 68L19 69L22 69L22 70L18 70L18 69L15 69L15 71L14 71L14 76L15 76L15 73L16 73L16 74L17 74L17 73L18 73L18 75L16 75L16 76L18 76L18 75L19 75L19 73L20 73L20 74L21 74L21 73L22 73L22 72L24 72L24 70L23 70L23 67L25 67L25 66L26 66L26 65L27 65L27 64L25 64L25 61L27 61L27 60L30 60L30 61L28 61L28 62L27 62L27 63L28 63L28 64L29 64L29 65L28 65L28 66L29 66L29 65L32 65L32 64L33 64L33 66L34 66L34 68L33 68L33 67L32 67L32 69L31 69L31 70L30 70L30 71L29 71L29 73L27 73L27 74L31 74L31 72L33 72L33 73L32 73L32 74L34 74L34 73L35 73L35 72L33 72L33 71L32 71L32 70L34 70L34 71L35 71L35 69L37 69L37 70L36 70L36 74L35 74L35 75L38 75L38 74L39 74L39 76L40 76L40 73L41 73L41 72L42 72L42 73L43 73L43 74L41 74L41 75L42 75L42 76L43 76L43 75L44 75L44 73L45 73L45 72L44 72L44 70L43 70L43 69L41 69L41 70L42 70L42 71L39 71L39 70L38 70L38 69L40 69L40 68L39 68L39 67L40 67L40 66L41 66L41 67L42 67L42 68L44 68L44 66L45 66L45 65L43 65L43 62L45 62L45 60L46 60L46 62L47 62L47 61L48 61L48 63L44 63L44 64L47 64L47 65L46 65L46 66L47 66L47 65L48 65L48 64L50 64L50 62L51 62L51 61L52 61L52 62L53 62L53 60L54 60L54 63L52 63L52 64L51 64L51 65L49 65L49 66L48 66L48 67L45 67L45 68L49 68L49 66L50 66L50 68L52 68L52 69L51 69L51 70L52 70L52 71L51 71L51 72L52 72L52 71L53 71L53 72L54 72L54 73L53 73L53 74L52 74L52 75L53 75L53 74L55 74L55 70L56 70L56 73L58 73L58 72L59 72L59 73L60 73L60 74L63 74L63 73L62 73L62 72L63 72L63 71L61 71L61 70L62 70L62 67L63 67L63 68L64 68L64 67L65 67L65 68L66 68L66 67L68 67L68 65L67 65L67 64L68 64L68 63L67 63L67 64L66 64L66 63L65 63L65 61L66 61L66 59L67 59L67 60L68 60L68 59L67 59L67 58L68 58L68 57L69 57L69 58L71 58L71 57L72 57L72 56L71 56L71 57L69 57L69 54L68 54L68 53L69 53L69 52L70 52L70 51L69 51L69 52L68 52L68 51L67 51L67 50L66 50L66 49L68 49L68 48L67 48L67 47L68 47L68 46L69 46L69 45L70 45L70 46L71 46L71 44L72 44L72 45L74 45L74 44L72 44L72 42L71 42L71 41L70 41L70 40L69 40L69 39L71 39L71 37L73 37L73 38L75 38L75 37L73 37L73 36L75 36L75 34L76 34L76 33L75 33L75 30L76 30L76 29L74 29L74 28L73 28L73 29L72 29L72 30L71 30L71 29L68 29L68 28L67 28L67 29L68 29L68 30L70 30L70 31L66 31L66 27L68 27L68 25L67 25L67 26L66 26L66 27L63 27L63 25L62 25L62 23L61 23L61 22L62 22L62 19L63 19L63 17L64 17L64 18L65 18L65 17L66 17L66 19L65 19L65 20L66 20L66 19L67 19L67 20L68 20L68 18L67 18L67 16L68 16L68 17L69 17L69 16L68 16L68 15L69 15L69 13L70 13L70 14L71 14L71 15L72 15L72 14L73 14L73 13L74 13L74 12L73 12L73 11L70 11L70 12L69 12L69 13L68 13L68 14L67 14L67 12L66 12L66 11L65 11L65 10L64 10L64 9L63 9L63 10L62 10L62 11L61 11L61 10L60 10L60 9L59 9L59 8L58 8L58 6L57 6L57 5L56 5L56 4L55 4L55 5L53 5L53 4L54 4L54 3L53 3L53 2ZM56 2L56 3L57 3L57 4L58 4L58 3L57 3L57 2ZM8 3L8 4L9 4L9 3ZM15 3L15 4L16 4L16 3ZM38 3L38 4L39 4L39 3ZM20 5L20 7L21 7L21 8L19 8L19 9L21 9L21 10L18 10L18 9L17 9L17 10L18 10L18 12L17 12L17 13L18 13L18 12L19 12L19 11L20 11L20 12L21 12L21 14L22 14L22 12L21 12L21 11L22 11L22 7L21 7L21 5ZM25 5L25 8L28 8L28 5ZM47 5L47 8L50 8L50 5ZM9 6L9 7L10 7L10 6ZM14 6L14 7L15 7L15 6ZM26 6L26 7L27 7L27 6ZM29 6L29 7L30 7L30 6ZM32 6L32 8L33 8L33 6ZM37 6L37 7L38 7L38 6ZM48 6L48 7L49 7L49 6ZM52 6L52 7L53 7L53 6ZM54 6L54 9L55 9L55 10L53 10L53 11L52 11L52 12L53 12L53 13L54 13L54 15L56 15L56 16L54 16L54 17L53 17L53 16L51 16L51 17L50 17L50 18L49 18L49 17L48 17L48 16L49 16L49 14L50 14L50 12L49 12L49 13L48 13L48 15L47 15L47 18L48 18L48 20L46 20L46 21L45 21L45 20L44 20L44 19L45 19L45 18L46 18L46 16L45 16L45 18L44 18L44 19L43 19L43 20L44 20L44 23L40 23L40 24L39 24L39 22L38 22L38 25L37 25L37 23L36 23L36 21L38 21L38 20L36 20L36 19L37 19L37 18L36 18L36 17L39 17L39 18L40 18L40 17L41 17L41 16L42 16L42 18L41 18L41 19L42 19L42 18L43 18L43 16L44 16L44 15L45 15L45 14L44 14L44 15L43 15L43 14L41 14L41 13L43 13L43 12L41 12L41 13L40 13L40 15L39 15L39 13L38 13L38 14L37 14L37 12L34 12L34 11L36 11L36 10L37 10L37 9L36 9L36 10L35 10L35 9L33 9L33 11L30 11L30 12L31 12L31 15L30 15L30 14L29 14L29 15L30 15L30 19L28 19L28 20L26 20L26 19L27 19L27 18L28 18L28 17L25 17L25 16L27 16L27 15L28 15L28 12L29 12L29 10L30 10L30 9L29 9L29 10L28 10L28 11L27 11L27 12L26 12L26 13L25 13L25 15L24 15L24 14L23 14L23 15L24 15L24 16L22 16L22 17L21 17L21 18L20 18L20 16L21 16L21 15L20 15L20 13L19 13L19 14L18 14L18 15L19 15L19 17L17 17L17 18L19 18L19 20L20 20L20 21L21 21L21 20L23 20L23 21L22 21L22 22L21 22L21 24L22 24L22 25L24 25L24 26L21 26L21 27L20 27L20 23L19 23L19 22L18 22L18 21L16 21L16 22L13 22L13 21L11 21L11 22L12 22L12 23L14 23L14 24L12 24L12 26L11 26L11 27L10 27L10 29L11 29L11 30L10 30L10 31L11 31L11 30L12 30L12 32L13 32L13 31L14 31L14 33L11 33L11 34L10 34L10 35L11 35L11 34L12 34L12 36L13 36L13 34L14 34L14 33L15 33L15 35L14 35L14 36L15 36L15 35L16 35L16 41L17 41L17 42L18 42L18 44L17 44L17 43L16 43L16 42L15 42L15 43L16 43L16 44L14 44L14 43L13 43L13 44L14 44L14 45L15 45L15 46L14 46L14 47L13 47L13 48L12 48L12 47L11 47L11 50L10 50L10 53L9 53L9 54L8 54L8 52L5 52L5 53L7 53L7 54L8 54L8 55L7 55L7 56L6 56L6 57L5 57L5 56L4 56L4 57L3 57L3 60L6 60L6 61L7 61L7 62L6 62L6 63L8 63L8 61L9 61L9 64L10 64L10 65L11 65L11 64L10 64L10 62L11 62L11 63L12 63L12 66L13 66L13 67L14 67L14 66L15 66L15 67L16 67L16 65L17 65L17 67L18 67L18 65L19 65L19 64L18 64L18 63L19 63L19 62L20 62L20 61L21 61L21 59L22 59L22 62L21 62L21 63L24 63L24 61L23 61L23 60L25 60L25 59L26 59L26 60L27 60L27 59L30 59L30 60L31 60L31 61L30 61L30 62L28 62L28 63L30 63L30 64L31 64L31 63L32 63L32 62L31 62L31 61L32 61L32 59L30 59L30 58L31 58L31 57L32 57L32 58L33 58L33 55L34 55L34 56L35 56L35 57L34 57L34 59L36 59L36 60L35 60L35 61L33 61L33 63L34 63L34 64L35 64L35 66L36 66L36 67L35 67L35 68L36 68L36 67L37 67L37 66L38 66L38 67L39 67L39 65L40 65L40 64L39 64L39 63L38 63L38 62L39 62L39 60L40 60L40 59L39 59L39 58L40 58L40 57L43 57L43 58L41 58L41 59L42 59L42 61L44 61L44 60L45 60L45 58L46 58L46 56L47 56L47 59L46 59L46 60L47 60L47 59L48 59L48 60L49 60L49 61L51 61L51 59L52 59L52 60L53 60L53 59L54 59L54 60L55 60L55 63L54 63L54 65L53 65L53 66L52 66L52 65L51 65L51 67L52 67L52 68L53 68L53 69L52 69L52 70L53 70L53 71L54 71L54 70L53 70L53 69L54 69L54 68L55 68L55 67L56 67L56 70L57 70L57 69L58 69L58 68L57 68L57 63L60 63L60 62L61 62L61 63L62 63L62 62L63 62L63 63L64 63L64 64L65 64L65 63L64 63L64 61L65 61L65 60L63 60L63 61L62 61L62 60L61 60L61 58L62 58L62 59L66 59L66 58L67 58L67 57L68 57L68 55L67 55L67 56L66 56L66 57L65 57L65 56L64 56L64 55L66 55L66 54L67 54L67 53L68 53L68 52L67 52L67 53L66 53L66 52L63 52L63 51L66 51L66 50L64 50L64 49L63 49L63 47L64 47L64 48L65 48L65 47L67 47L67 46L68 46L68 45L66 45L66 46L65 46L65 47L64 47L64 45L63 45L63 47L62 47L62 46L61 46L61 45L62 45L62 44L61 44L61 43L62 43L62 42L63 42L63 43L66 43L66 44L67 44L67 43L66 43L66 42L67 42L67 40L66 40L66 41L65 41L65 39L66 39L66 38L65 38L65 37L66 37L66 36L65 36L65 35L67 35L67 36L70 36L70 37L71 37L71 36L72 36L72 35L74 35L74 34L72 34L72 35L71 35L71 34L70 34L70 33L71 33L71 32L69 32L69 34L68 34L68 35L67 35L67 34L65 34L65 33L64 33L64 31L65 31L65 30L64 30L64 29L65 29L65 28L63 28L63 29L62 29L62 28L60 28L60 30L59 30L59 31L58 31L58 30L57 30L57 28L53 28L53 27L56 27L56 25L55 25L55 24L56 24L56 23L57 23L57 22L58 22L58 20L57 20L57 21L56 21L56 18L57 18L57 19L59 19L59 23L60 23L60 24L61 24L61 23L60 23L60 22L61 22L61 21L60 21L60 19L62 19L62 18L61 18L61 17L60 17L60 16L61 16L61 15L62 15L62 16L63 16L63 15L64 15L64 16L65 16L65 15L64 15L64 14L66 14L66 12L64 12L64 10L63 10L63 13L64 13L64 14L61 14L61 13L62 13L62 12L59 12L59 11L60 11L60 10L59 10L59 9L58 9L58 14L57 14L57 15L56 15L56 12L57 12L57 6L56 6L56 7L55 7L55 6ZM68 6L68 7L69 7L69 6ZM11 8L11 9L12 9L12 8ZM55 8L55 9L56 9L56 8ZM73 8L73 9L74 9L74 8ZM6 9L6 10L7 10L7 9ZM31 9L31 10L32 10L32 9ZM49 10L49 11L50 11L50 10ZM53 11L53 12L54 12L54 13L55 13L55 12L56 12L56 11ZM13 12L13 13L14 13L14 12ZM23 12L23 13L24 13L24 12ZM32 12L32 15L33 15L33 16L34 16L34 15L35 15L35 16L38 16L38 15L35 15L35 14L36 14L36 13L33 13L33 12ZM70 12L70 13L72 13L72 12ZM51 13L51 15L53 15L53 14L52 14L52 13ZM59 13L59 14L60 14L60 13ZM33 14L33 15L34 15L34 14ZM16 15L16 16L17 16L17 15ZM40 15L40 16L39 16L39 17L40 17L40 16L41 16L41 15ZM57 15L57 18L58 18L58 15ZM59 15L59 16L60 16L60 15ZM76 15L76 17L77 17L77 15ZM71 16L71 18L69 18L69 19L70 19L70 20L71 20L71 18L72 18L72 19L73 19L73 17L74 17L74 16ZM22 17L22 19L23 19L23 17ZM24 17L24 18L25 18L25 19L24 19L24 22L22 22L22 24L23 24L23 23L25 23L25 24L26 24L26 22L27 22L27 23L28 23L28 24L30 24L30 23L28 23L28 22L30 22L30 20L28 20L28 21L26 21L26 20L25 20L25 19L26 19L26 18L25 18L25 17ZM33 17L33 18L31 18L31 22L33 22L33 23L34 23L34 25L33 25L33 24L32 24L32 23L31 23L31 24L32 24L32 26L31 26L31 27L32 27L32 28L29 28L29 30L30 30L30 31L29 31L29 33L28 33L28 36L29 36L29 37L30 37L30 38L31 38L31 37L32 37L32 40L35 40L35 42L34 42L34 41L32 41L32 43L31 43L31 44L30 44L30 41L31 41L31 40L30 40L30 39L29 39L29 40L30 40L30 41L29 41L29 42L26 42L26 38L28 38L28 37L26 37L26 36L27 36L27 32L28 32L28 31L27 31L27 32L26 32L26 33L25 33L25 31L24 31L24 32L23 32L23 30L21 30L21 28L23 28L23 29L24 29L24 28L23 28L23 27L21 27L21 28L20 28L20 27L18 27L18 25L19 25L19 23L18 23L18 25L17 25L17 23L15 23L15 24L16 24L16 25L17 25L17 26L16 26L16 27L15 27L15 25L13 25L13 26L12 26L12 27L11 27L11 29L12 29L12 30L14 30L14 31L15 31L15 32L16 32L16 31L17 31L17 29L18 29L18 30L19 30L19 29L18 29L18 28L20 28L20 31L19 31L19 32L17 32L17 34L16 34L16 35L17 35L17 37L19 37L19 36L18 36L18 35L19 35L19 32L23 32L23 33L24 33L24 34L22 34L22 35L24 35L24 34L25 34L25 36L20 36L20 37L22 37L22 38L19 38L19 39L20 39L20 40L22 40L22 41L23 41L23 39L22 39L22 38L24 38L24 37L25 37L25 41L24 41L24 42L26 42L26 43L24 43L24 44L25 44L25 45L23 45L23 43L22 43L22 42L21 42L21 41L20 41L20 42L19 42L19 41L18 41L18 40L17 40L17 41L18 41L18 42L19 42L19 43L20 43L20 42L21 42L21 43L22 43L22 46L25 46L25 45L27 45L27 46L30 46L30 45L31 45L31 44L32 44L32 43L35 43L35 44L34 44L34 45L33 45L33 46L34 46L34 45L36 45L36 46L35 46L35 47L34 47L34 48L35 48L35 47L36 47L36 46L37 46L37 48L38 48L38 51L40 51L40 50L45 50L45 49L46 49L46 48L44 48L44 47L43 47L43 48L42 48L42 49L39 49L39 48L40 48L40 47L42 47L42 44L43 44L43 45L46 45L46 46L48 46L48 45L49 45L49 43L50 43L50 41L49 41L49 42L48 42L48 40L47 40L47 39L46 39L46 38L48 38L48 39L49 39L49 40L51 40L51 42L52 42L52 43L51 43L51 44L53 44L53 45L54 45L54 44L57 44L57 45L56 45L56 47L55 47L55 46L54 46L54 47L52 47L52 50L54 50L54 51L52 51L52 52L50 52L50 53L49 53L49 54L48 54L48 55L47 55L47 56L48 56L48 55L49 55L49 56L52 56L52 55L50 55L50 53L51 53L51 54L53 54L53 53L52 53L52 52L54 52L54 55L53 55L53 58L52 58L52 59L53 59L53 58L54 58L54 55L55 55L55 56L56 56L56 57L57 57L57 58L56 58L56 62L58 62L58 60L60 60L60 61L59 61L59 62L60 62L60 61L61 61L61 62L62 62L62 61L61 61L61 60L60 60L60 59L59 59L59 58L61 58L61 57L60 57L60 56L62 56L62 55L63 55L63 54L62 54L62 51L63 51L63 50L62 50L62 51L61 51L61 52L60 52L60 51L59 51L59 50L60 50L60 49L59 49L59 48L61 48L61 49L62 49L62 47L61 47L61 46L60 46L60 45L59 45L59 46L60 46L60 47L59 47L59 48L58 48L58 43L59 43L59 44L60 44L60 43L61 43L61 42L62 42L62 41L64 41L64 40L62 40L62 39L61 39L61 38L64 38L64 37L63 37L63 36L64 36L64 35L63 35L63 34L64 34L64 33L63 33L63 34L62 34L62 35L60 35L60 36L58 36L58 35L59 35L59 34L58 34L58 33L59 33L59 32L58 32L58 31L57 31L57 30L56 30L56 31L54 31L54 30L55 30L55 29L54 29L54 30L53 30L53 28L52 28L52 27L53 27L53 26L55 26L55 25L54 25L54 24L55 24L55 23L54 23L54 22L56 22L56 21L54 21L54 22L53 22L53 26L52 26L52 27L51 27L51 29L50 29L50 30L49 30L49 29L46 29L46 26L45 26L45 27L44 27L44 24L45 24L45 25L46 25L46 23L47 23L47 22L48 22L48 24L51 24L51 25L52 25L52 24L51 24L51 22L50 22L50 21L53 21L53 20L54 20L54 19L55 19L55 18L54 18L54 19L53 19L53 17L52 17L52 19L49 19L49 21L47 21L47 22L46 22L46 23L44 23L44 24L43 24L43 27L44 27L44 28L43 28L43 29L42 29L42 31L39 31L39 30L40 30L40 29L41 29L41 28L40 28L40 27L41 27L41 26L42 26L42 24L41 24L41 25L40 25L40 27L38 27L38 26L39 26L39 25L38 25L38 26L37 26L37 25L35 25L35 21L36 21L36 20L34 20L34 19L36 19L36 18L35 18L35 17ZM6 18L6 19L7 19L7 20L6 20L6 21L9 21L9 22L10 22L10 21L9 21L9 20L8 20L8 18ZM17 19L17 20L18 20L18 19ZM2 20L2 21L3 21L3 20ZM40 20L40 21L41 21L41 22L42 22L42 21L41 21L41 20ZM63 20L63 22L64 22L64 23L65 23L65 24L64 24L64 26L65 26L65 25L66 25L66 24L68 24L68 23L66 23L66 22L68 22L68 21L66 21L66 22L64 22L64 20ZM75 20L75 21L76 21L76 20ZM6 22L6 23L7 23L7 22ZM49 22L49 23L50 23L50 22ZM58 24L58 25L57 25L57 27L58 27L58 28L59 28L59 27L60 27L60 25L59 25L59 24ZM5 25L5 28L8 28L8 25ZM25 25L25 28L28 28L28 25ZM34 25L34 28L33 28L33 29L34 29L34 30L35 30L35 32L33 32L33 30L32 30L32 32L33 32L33 33L31 33L31 31L30 31L30 33L31 33L31 34L32 34L32 35L31 35L31 36L30 36L30 37L31 37L31 36L32 36L32 37L34 37L34 35L38 35L38 36L37 36L37 37L36 37L36 36L35 36L35 38L36 38L36 40L37 40L37 38L38 38L38 39L39 39L39 40L38 40L38 41L39 41L39 42L37 42L37 41L36 41L36 42L35 42L35 43L37 43L37 44L36 44L36 45L37 45L37 44L38 44L38 46L41 46L41 45L40 45L40 44L39 44L39 42L40 42L40 41L39 41L39 40L40 40L40 39L42 39L42 40L41 40L41 42L42 42L42 40L43 40L43 41L45 41L45 40L44 40L44 39L45 39L45 38L44 38L44 39L43 39L43 36L42 36L42 34L43 34L43 35L44 35L44 37L48 37L48 38L49 38L49 39L50 39L50 38L51 38L51 40L52 40L52 41L53 41L53 40L52 40L52 39L53 39L53 38L54 38L54 39L56 39L56 40L55 40L55 41L54 41L54 42L53 42L53 43L54 43L54 42L55 42L55 43L58 43L58 42L56 42L56 40L57 40L57 39L58 39L58 40L59 40L59 39L60 39L60 37L59 37L59 38L58 38L58 36L57 36L57 35L58 35L58 34L57 34L57 35L56 35L56 33L54 33L54 35L55 35L55 36L53 36L53 35L52 35L52 34L53 34L53 32L52 32L52 29L51 29L51 31L50 31L50 32L49 32L49 30L46 30L46 29L43 29L43 31L42 31L42 32L41 32L41 33L40 33L40 32L39 32L39 31L37 31L37 30L39 30L39 28L38 28L38 27L37 27L37 26L35 26L35 25ZM47 25L47 28L50 28L50 25ZM61 25L61 27L62 27L62 25ZM69 25L69 28L72 28L72 25ZM6 26L6 27L7 27L7 26ZM26 26L26 27L27 27L27 26ZM29 26L29 27L30 27L30 26ZM32 26L32 27L33 27L33 26ZM48 26L48 27L49 27L49 26ZM58 26L58 27L59 27L59 26ZM70 26L70 27L71 27L71 26ZM13 27L13 28L14 28L14 27ZM16 27L16 28L15 28L15 29L14 29L14 30L16 30L16 28L17 28L17 27ZM36 27L36 28L35 28L35 30L36 30L36 28L37 28L37 27ZM26 29L26 30L27 30L27 29ZM61 29L61 30L62 30L62 31L60 31L60 34L61 34L61 33L62 33L62 32L63 32L63 30L62 30L62 29ZM6 30L6 31L7 31L7 30ZM45 30L45 31L43 31L43 32L42 32L42 33L44 33L44 32L46 32L46 34L47 34L47 35L48 35L48 37L49 37L49 35L48 35L48 34L49 34L49 32L48 32L48 31L47 31L47 32L46 32L46 30ZM72 30L72 32L74 32L74 31L73 31L73 30ZM56 31L56 32L57 32L57 31ZM36 32L36 33L37 33L37 34L38 34L38 35L39 35L39 32L38 32L38 33L37 33L37 32ZM50 32L50 33L51 33L51 32ZM66 32L66 33L67 33L67 32ZM1 33L1 34L2 34L2 33ZM20 33L20 34L21 34L21 33ZM17 34L17 35L18 35L18 34ZM29 34L29 35L30 35L30 34ZM33 34L33 35L32 35L32 36L33 36L33 35L34 35L34 34ZM40 34L40 36L38 36L38 37L40 37L40 38L42 38L42 36L41 36L41 34ZM45 35L45 36L46 36L46 35ZM50 35L50 37L51 37L51 36L52 36L52 35ZM62 35L62 36L63 36L63 35ZM55 36L55 37L54 37L54 38L56 38L56 39L57 39L57 38L56 38L56 36ZM5 37L5 38L4 38L4 39L5 39L5 40L4 40L4 41L3 41L3 42L4 42L4 41L5 41L5 42L9 42L9 41L10 41L10 40L7 40L7 39L8 39L8 38L9 38L9 37ZM12 37L12 39L13 39L13 40L12 40L12 41L13 41L13 42L14 42L14 41L13 41L13 40L14 40L14 39L15 39L15 37ZM6 38L6 39L7 39L7 38ZM33 38L33 39L34 39L34 38ZM67 38L67 39L69 39L69 38ZM1 39L1 40L2 40L2 39ZM5 40L5 41L7 41L7 40ZM60 40L60 41L59 41L59 43L60 43L60 42L61 42L61 40ZM46 41L46 45L48 45L48 44L47 44L47 41ZM69 41L69 42L68 42L68 44L71 44L71 42L70 42L70 41ZM0 42L0 44L1 44L1 45L2 45L2 44L1 44L1 42ZM44 42L44 43L43 43L43 44L44 44L44 43L45 43L45 42ZM28 43L28 44L29 44L29 45L30 45L30 44L29 44L29 43ZM16 44L16 45L17 45L17 46L18 46L18 47L14 47L14 48L13 48L13 49L12 49L12 51L14 51L14 52L15 52L15 53L13 53L13 52L11 52L11 53L10 53L10 54L11 54L11 55L9 55L9 58L10 58L10 59L8 59L8 58L7 58L7 57L6 57L6 58L7 58L7 59L6 59L6 60L7 60L7 61L8 61L8 60L9 60L9 61L10 61L10 59L12 59L12 57L11 57L11 58L10 58L10 56L12 56L12 53L13 53L13 57L15 57L15 61L16 61L16 60L17 60L17 63L16 63L16 62L15 62L15 64L14 64L14 62L13 62L13 61L12 61L12 63L13 63L13 64L14 64L14 65L13 65L13 66L14 66L14 65L16 65L16 64L17 64L17 65L18 65L18 64L17 64L17 63L18 63L18 60L17 60L17 59L19 59L19 60L20 60L20 59L21 59L21 57L23 57L23 58L22 58L22 59L23 59L23 58L24 58L24 59L25 59L25 58L24 58L24 55L23 55L23 56L21 56L21 57L19 57L19 58L17 58L17 59L16 59L16 57L17 57L17 56L19 56L19 55L21 55L21 54L20 54L20 52L19 52L19 53L18 53L18 54L17 54L17 56L16 56L16 55L14 55L14 54L16 54L16 51L14 51L14 49L17 49L17 48L18 48L18 50L21 50L21 51L24 51L24 49L23 49L23 48L24 48L24 47L21 47L21 46L20 46L20 44L19 44L19 45L17 45L17 44ZM5 45L5 46L7 46L7 45ZM50 45L50 46L52 46L52 45ZM5 47L5 50L8 50L8 47ZM18 47L18 48L19 48L19 47ZM20 47L20 48L21 48L21 47ZM25 47L25 50L28 50L28 47ZM30 47L30 48L31 48L31 47ZM32 47L32 50L33 50L33 51L34 51L34 50L35 50L35 51L36 51L36 52L35 52L35 53L36 53L36 55L37 55L37 56L36 56L36 58L37 58L37 60L39 60L39 59L38 59L38 57L39 57L39 56L38 56L38 54L39 54L39 53L41 53L41 54L40 54L40 56L42 56L42 55L43 55L43 56L44 56L44 57L45 57L45 56L46 56L46 55L45 55L45 56L44 56L44 53L45 53L45 52L46 52L46 51L44 51L44 52L42 52L42 51L41 51L41 52L39 52L39 53L38 53L38 52L37 52L37 51L36 51L36 50L35 50L35 49L34 49L34 50L33 50L33 47ZM47 47L47 50L50 50L50 47ZM54 47L54 48L55 48L55 51L54 51L54 52L55 52L55 51L56 51L56 52L57 52L57 54L58 54L58 55L59 55L59 56L60 56L60 55L61 55L61 54L60 54L60 52L59 52L59 51L58 51L58 52L57 52L57 51L56 51L56 50L58 50L58 49L57 49L57 47L56 47L56 48L55 48L55 47ZM69 47L69 50L72 50L72 47ZM73 47L73 48L74 48L74 47ZM76 47L76 49L77 49L77 47ZM6 48L6 49L7 49L7 48ZM26 48L26 49L27 49L27 48ZM43 48L43 49L44 49L44 48ZM48 48L48 49L49 49L49 48ZM70 48L70 49L71 49L71 48ZM29 49L29 50L30 50L30 51L31 51L31 49ZM17 51L17 52L18 52L18 51ZM25 51L25 52L22 52L22 54L25 54L25 53L27 53L27 54L28 54L28 53L31 53L31 52L28 52L28 51L27 51L27 52L26 52L26 51ZM47 51L47 52L48 52L48 51ZM71 51L71 53L70 53L70 54L72 54L72 52L73 52L73 51ZM32 52L32 54L29 54L29 55L25 55L25 57L27 57L27 58L26 58L26 59L27 59L27 58L30 58L30 55L31 55L31 56L32 56L32 54L33 54L33 53L34 53L34 52ZM41 52L41 53L42 53L42 52ZM75 52L75 53L74 53L74 54L75 54L75 53L76 53L76 52ZM55 53L55 55L56 55L56 56L57 56L57 55L56 55L56 53ZM58 53L58 54L59 54L59 53ZM64 53L64 54L66 54L66 53ZM18 54L18 55L19 55L19 54ZM34 54L34 55L35 55L35 54ZM41 54L41 55L42 55L42 54ZM27 56L27 57L28 57L28 56ZM37 56L37 57L38 57L38 56ZM63 56L63 57L62 57L62 58L65 58L65 57L64 57L64 56ZM4 57L4 58L5 58L5 57ZM49 57L49 58L48 58L48 59L51 59L51 57ZM58 57L58 58L57 58L57 59L58 59L58 58L59 58L59 57ZM13 58L13 59L14 59L14 58ZM19 58L19 59L20 59L20 58ZM43 59L43 60L44 60L44 59ZM35 61L35 62L34 62L34 63L35 63L35 64L36 64L36 65L37 65L37 64L36 64L36 63L35 63L35 62L36 62L36 61ZM37 61L37 62L38 62L38 61ZM40 61L40 62L41 62L41 64L42 64L42 62L41 62L41 61ZM74 61L74 62L75 62L75 61ZM30 62L30 63L31 63L31 62ZM0 64L0 65L1 65L1 64ZM58 64L58 67L59 67L59 71L60 71L60 72L61 72L61 71L60 71L60 70L61 70L61 68L60 68L60 67L61 67L61 64ZM42 65L42 67L43 67L43 65ZM63 65L63 67L64 67L64 65ZM69 65L69 68L70 68L70 65ZM71 65L71 66L72 66L72 65ZM30 66L30 68L31 68L31 66ZM54 66L54 67L53 67L53 68L54 68L54 67L55 67L55 66ZM65 66L65 67L66 67L66 66ZM10 67L10 68L9 68L9 69L11 69L11 67ZM28 67L28 68L29 68L29 67ZM37 68L37 69L38 69L38 68ZM25 69L25 72L28 72L28 69ZM45 69L45 70L46 70L46 69ZM47 69L47 72L50 72L50 69ZM63 69L63 70L64 70L64 69ZM66 69L66 70L67 70L67 69ZM69 69L69 72L72 72L72 69ZM16 70L16 71L15 71L15 72L16 72L16 73L17 73L17 72L19 72L19 71L18 71L18 70ZM22 70L22 71L23 71L23 70ZM26 70L26 71L27 71L27 70ZM48 70L48 71L49 71L49 70ZM70 70L70 71L71 71L71 70ZM16 71L16 72L17 72L17 71ZM20 71L20 72L21 72L21 71ZM30 71L30 72L31 72L31 71ZM38 71L38 73L37 73L37 74L38 74L38 73L39 73L39 71ZM67 72L67 73L66 73L66 74L67 74L67 73L68 73L68 72ZM24 73L24 75L25 75L25 73ZM71 73L71 75L70 75L70 76L72 76L72 75L75 75L75 73ZM58 74L58 75L59 75L59 74ZM66 76L66 77L67 77L67 76ZM0 0L0 7L7 7L7 0ZM1 1L1 6L6 6L6 1ZM2 2L2 5L5 5L5 2ZM70 0L70 7L77 7L77 0ZM71 1L71 6L76 6L76 1ZM72 2L72 5L75 5L75 2ZM0 70L0 77L7 77L7 70ZM1 71L1 76L6 76L6 71ZM2 72L2 75L5 75L5 72Z" fill="#000000"/></g></g></svg>
