<?xml version="1.0" encoding="UTF-8"?>
<svg xmlns="http://www.w3.org/2000/svg" version="1.1" width="400" height="400" viewBox="0 0 400 400"><rect x="0" y="0" width="400" height="400" fill="#fefefe"/><g transform="scale(4.706)"><g transform="translate(4,4)"><path fill-rule="evenodd" d="M9 0L9 2L8 2L8 3L9 3L9 4L8 4L8 7L9 7L9 8L8 8L8 11L9 11L9 10L10 10L10 12L9 12L9 15L8 15L8 13L7 13L7 12L6 12L6 11L7 11L7 10L6 10L6 9L7 9L7 8L6 8L6 9L5 9L5 8L4 8L4 9L5 9L5 10L2 10L2 11L3 11L3 12L2 12L2 13L1 13L1 11L0 11L0 16L1 16L1 17L3 17L3 18L4 18L4 19L7 19L7 20L4 20L4 22L2 22L2 24L1 24L1 25L0 25L0 32L1 32L1 33L3 33L3 34L1 34L1 35L0 35L0 38L1 38L1 37L3 37L3 38L2 38L2 40L1 40L1 39L0 39L0 40L1 40L1 42L0 42L0 43L4 43L4 42L5 42L5 44L6 44L6 45L5 45L5 46L4 46L4 44L3 44L3 45L2 45L2 44L0 44L0 46L1 46L1 47L0 47L0 49L1 49L1 47L2 47L2 48L3 48L3 47L4 47L4 49L2 49L2 52L3 52L3 50L4 50L4 51L5 51L5 52L4 52L4 53L2 53L2 55L1 55L1 53L0 53L0 55L1 55L1 56L0 56L0 57L1 57L1 58L2 58L2 59L1 59L1 60L2 60L2 61L0 61L0 63L1 63L1 62L2 62L2 64L3 64L3 65L7 65L7 66L4 66L4 68L1 68L1 69L5 69L5 67L7 67L7 66L8 66L8 67L9 67L9 68L8 68L8 70L10 70L10 71L11 71L11 68L10 68L10 67L12 67L12 68L13 68L13 67L14 67L14 69L16 69L16 70L15 70L15 73L16 73L16 72L17 72L17 74L18 74L18 75L16 75L16 77L17 77L17 76L19 76L19 75L21 75L21 76L20 76L20 77L24 77L24 75L25 75L25 76L26 76L26 75L25 75L25 74L24 74L24 75L23 75L23 76L22 76L22 75L21 75L21 74L23 74L23 73L27 73L27 74L29 74L29 75L28 75L28 77L30 77L30 76L29 76L29 75L30 75L30 74L31 74L31 75L32 75L32 74L33 74L33 76L32 76L32 77L35 77L35 75L36 75L36 77L38 77L38 76L40 76L40 77L43 77L43 76L44 76L44 73L43 73L43 71L44 71L44 72L45 72L45 73L48 73L48 75L47 75L47 74L46 74L46 75L45 75L45 77L47 77L47 76L48 76L48 77L52 77L52 76L54 76L54 77L59 77L59 76L60 76L60 77L61 77L61 76L60 76L60 74L63 74L63 76L62 76L62 77L63 77L63 76L64 76L64 77L67 77L67 76L66 76L66 75L65 75L65 76L64 76L64 73L65 73L65 74L67 74L67 72L68 72L68 73L69 73L69 75L70 75L70 76L68 76L68 77L70 77L70 76L72 76L72 77L73 77L73 76L74 76L74 77L76 77L76 76L75 76L75 75L77 75L77 74L76 74L76 73L75 73L75 72L73 72L73 71L75 71L75 70L76 70L76 69L75 69L75 68L76 68L76 67L77 67L77 66L75 66L75 65L74 65L74 64L76 64L76 63L77 63L77 62L75 62L75 60L77 60L77 59L76 59L76 58L77 58L77 57L76 57L76 58L75 58L75 56L71 56L71 58L69 58L69 59L68 59L68 55L74 55L74 54L76 54L76 52L77 52L77 51L75 51L75 50L77 50L77 49L76 49L76 47L75 47L75 43L77 43L77 42L75 42L75 40L74 40L74 41L73 41L73 40L72 40L72 42L73 42L73 44L74 44L74 47L73 47L73 46L70 46L70 45L71 45L71 44L70 44L70 45L68 45L68 44L69 44L69 43L71 43L71 42L70 42L70 40L69 40L69 41L67 41L67 40L66 40L66 39L67 39L67 38L69 38L69 37L70 37L70 35L71 35L71 34L70 34L70 32L71 32L71 31L70 31L70 29L73 29L73 32L74 32L74 31L76 31L76 30L77 30L77 28L76 28L76 27L77 27L77 26L76 26L76 27L75 27L75 24L72 24L72 23L71 23L71 21L70 21L70 20L71 20L71 19L72 19L72 20L73 20L73 21L72 21L72 22L73 22L73 23L75 23L75 22L76 22L76 20L77 20L77 17L76 17L76 16L77 16L77 13L75 13L75 12L77 12L77 11L76 11L76 10L77 10L77 9L76 9L76 10L75 10L75 8L74 8L74 9L73 9L73 8L71 8L71 9L70 9L70 8L69 8L69 6L68 6L68 9L67 9L67 5L69 5L69 1L68 1L68 4L66 4L66 2L67 2L67 1L66 1L66 0L65 0L65 1L66 1L66 2L62 2L62 1L60 1L60 0L59 0L59 1L58 1L58 0L57 0L57 2L56 2L56 1L52 1L52 0L51 0L51 1L50 1L50 2L51 2L51 3L50 3L50 4L48 4L48 3L49 3L49 0L48 0L48 1L47 1L47 0L46 0L46 1L42 1L42 0L41 0L41 3L40 3L40 2L39 2L39 1L40 1L40 0L38 0L38 2L39 2L39 3L40 3L40 4L42 4L42 7L43 7L43 6L44 6L44 7L45 7L45 5L46 5L46 8L45 8L45 9L47 9L47 10L48 10L48 9L49 9L49 10L50 10L50 11L51 11L51 13L50 13L50 12L49 12L49 11L48 11L48 12L49 12L49 13L50 13L50 14L49 14L49 15L48 15L48 16L49 16L49 15L53 15L53 17L52 17L52 16L51 16L51 17L50 17L50 20L52 20L52 21L49 21L49 19L47 19L47 18L48 18L48 17L47 17L47 18L45 18L45 17L46 17L46 16L47 16L47 14L45 14L45 13L46 13L46 10L45 10L45 13L43 13L43 12L44 12L44 9L42 9L42 8L41 8L41 9L40 9L40 7L41 7L41 6L40 6L40 7L39 7L39 4L38 4L38 3L37 3L37 1L36 1L36 0L35 0L35 1L36 1L36 3L37 3L37 4L38 4L38 7L37 7L37 6L36 6L36 5L35 5L35 2L34 2L34 1L32 1L32 0L31 0L31 2L32 2L32 3L30 3L30 1L29 1L29 2L28 2L28 1L27 1L27 0L26 0L26 2L25 2L25 4L23 4L23 2L24 2L24 1L25 1L25 0L24 0L24 1L23 1L23 0L21 0L21 1L20 1L20 0L18 0L18 1L17 1L17 0L15 0L15 1L14 1L14 0L13 0L13 3L14 3L14 4L11 4L11 5L13 5L13 6L12 6L12 7L11 7L11 6L10 6L10 7L9 7L9 5L10 5L10 3L9 3L9 2L10 2L10 0ZM11 0L11 1L12 1L12 0ZM63 0L63 1L64 1L64 0ZM15 1L15 2L16 2L16 1ZM18 1L18 2L17 2L17 3L16 3L16 4L15 4L15 7L14 7L14 6L13 6L13 8L12 8L12 9L11 9L11 8L9 8L9 9L11 9L11 11L13 11L13 10L12 10L12 9L14 9L14 11L15 11L15 12L16 12L16 11L15 11L15 10L17 10L17 11L18 11L18 10L19 10L19 8L20 8L20 5L21 5L21 9L22 9L22 11L23 11L23 13L22 13L22 12L20 12L20 11L21 11L21 10L20 10L20 11L19 11L19 12L17 12L17 15L16 15L16 16L14 16L14 17L12 17L12 16L10 16L10 15L13 15L13 14L15 14L15 13L14 13L14 12L13 12L13 14L12 14L12 13L10 13L10 15L9 15L9 16L10 16L10 17L8 17L8 16L7 16L7 15L6 15L6 16L7 16L7 17L5 17L5 16L4 16L4 15L1 15L1 16L3 16L3 17L4 17L4 18L8 18L8 20L7 20L7 21L5 21L5 24L7 24L7 23L10 23L10 24L9 24L9 26L10 26L10 28L9 28L9 30L8 30L8 29L4 29L4 26L3 26L3 27L2 27L2 26L1 26L1 29L2 29L2 30L1 30L1 31L2 31L2 30L3 30L3 33L6 33L6 34L7 34L7 35L6 35L6 36L4 36L4 37L5 37L5 38L4 38L4 41L3 41L3 40L2 40L2 42L4 42L4 41L5 41L5 40L7 40L7 41L6 41L6 42L7 42L7 43L6 43L6 44L8 44L8 45L6 45L6 46L8 46L8 45L9 45L9 51L6 51L6 52L8 52L8 53L6 53L6 54L8 54L8 56L7 56L7 55L5 55L5 56L7 56L7 57L6 57L6 58L4 58L4 59L2 59L2 60L4 60L4 61L2 61L2 62L3 62L3 64L5 64L5 63L4 63L4 61L6 61L6 62L7 62L7 63L6 63L6 64L9 64L9 65L10 65L10 66L13 66L13 65L10 65L10 63L11 63L11 61L12 61L12 59L11 59L11 58L10 58L10 59L11 59L11 61L10 61L10 62L9 62L9 63L8 63L8 60L9 60L9 59L8 59L8 60L7 60L7 59L6 59L6 58L9 58L9 57L8 57L8 56L9 56L9 54L8 54L8 53L9 53L9 51L10 51L10 54L11 54L11 55L10 55L10 56L11 56L11 57L12 57L12 58L14 58L14 59L16 59L16 57L15 57L15 54L16 54L16 53L18 53L18 52L17 52L17 49L21 49L21 50L18 50L18 51L21 51L21 53L23 53L23 54L22 54L22 55L20 55L20 56L19 56L19 54L17 54L17 55L16 55L16 56L18 56L18 57L20 57L20 58L17 58L17 60L15 60L15 61L13 61L13 64L14 64L14 66L15 66L15 68L16 68L16 69L17 69L17 71L18 71L18 72L19 72L19 71L20 71L20 69L21 69L21 68L22 68L22 66L21 66L21 64L22 64L22 61L23 61L23 62L25 62L25 63L27 63L27 64L24 64L24 65L23 65L23 66L24 66L24 67L23 67L23 68L24 68L24 67L27 67L27 68L30 68L30 69L29 69L29 70L30 70L30 69L31 69L31 68L30 68L30 67L31 67L31 64L28 64L28 62L29 62L29 63L30 63L30 62L29 62L29 61L30 61L30 56L32 56L32 55L33 55L33 54L32 54L32 53L33 53L33 52L34 52L34 53L35 53L35 52L36 52L36 53L38 53L38 52L37 52L37 49L36 49L36 47L37 47L37 48L38 48L38 47L37 47L37 46L35 46L35 48L34 48L34 47L33 47L33 46L34 46L34 44L35 44L35 42L36 42L36 44L37 44L37 45L38 45L38 46L39 46L39 48L40 48L40 47L41 47L41 49L38 49L38 50L39 50L39 52L41 52L41 54L40 54L40 55L39 55L39 54L38 54L38 55L36 55L36 56L35 56L35 54L34 54L34 56L35 56L35 57L32 57L32 58L33 58L33 59L32 59L32 61L34 61L34 62L33 62L33 63L35 63L35 62L36 62L36 63L37 63L37 64L34 64L34 65L33 65L33 64L32 64L32 69L33 69L33 70L32 70L32 71L31 71L31 72L30 72L30 73L29 73L29 74L30 74L30 73L31 73L31 74L32 74L32 73L31 73L31 72L33 72L33 73L34 73L34 71L35 71L35 73L36 73L36 74L42 74L42 75L41 75L41 76L42 76L42 75L43 75L43 73L41 73L41 70L42 70L42 68L44 68L44 67L45 67L45 69L43 69L43 70L44 70L44 71L45 71L45 72L46 72L46 71L45 71L45 70L46 70L46 68L47 68L47 67L45 67L45 66L46 66L46 65L48 65L48 66L49 66L49 67L50 67L50 68L51 68L51 67L50 67L50 66L49 66L49 64L50 64L50 63L51 63L51 62L50 62L50 63L49 63L49 62L48 62L48 63L49 63L49 64L46 64L46 63L47 63L47 61L46 61L46 60L47 60L47 57L48 57L48 58L49 58L49 57L48 57L48 56L51 56L51 57L53 57L53 58L52 58L52 60L53 60L53 61L52 61L52 62L53 62L53 61L55 61L55 64L56 64L56 61L57 61L57 62L58 62L58 65L54 65L54 66L55 66L55 68L54 68L54 69L53 69L53 71L54 71L54 72L56 72L56 73L55 73L55 74L54 74L54 73L53 73L53 74L54 74L54 76L56 76L56 74L57 74L57 72L56 72L56 70L57 70L57 71L59 71L59 69L60 69L60 70L61 70L61 72L60 72L60 73L62 73L62 72L63 72L63 73L64 73L64 71L63 71L63 70L64 70L64 69L66 69L66 68L67 68L67 67L66 67L66 66L65 66L65 65L64 65L64 68L63 68L63 69L62 69L62 67L61 67L61 65L63 65L63 63L62 63L62 62L63 62L63 61L64 61L64 60L65 60L65 58L64 58L64 60L62 60L62 59L63 59L63 58L61 58L61 60L62 60L62 62L61 62L61 61L60 61L60 60L58 60L58 61L57 61L57 58L58 58L58 59L59 59L59 58L58 58L58 57L56 57L56 56L55 56L55 57L53 57L53 55L52 55L52 56L51 56L51 54L53 54L53 53L55 53L55 55L58 55L58 54L59 54L59 53L62 53L62 54L61 54L61 56L60 56L60 57L61 57L61 56L62 56L62 57L64 57L64 55L66 55L66 56L67 56L67 55L66 55L66 54L64 54L64 52L65 52L65 53L67 53L67 52L68 52L68 54L69 54L69 53L70 53L70 54L71 54L71 53L70 53L70 52L72 52L72 53L73 53L73 54L74 54L74 53L75 53L75 51L74 51L74 48L75 48L75 47L74 47L74 48L73 48L73 51L69 51L69 52L68 52L68 50L67 50L67 52L65 52L65 51L64 51L64 52L63 52L63 53L62 53L62 50L63 50L63 49L62 49L62 48L63 48L63 47L62 47L62 46L61 46L61 45L60 45L60 44L58 44L58 45L57 45L57 46L58 46L58 45L59 45L59 46L61 46L61 49L60 49L60 50L61 50L61 51L59 51L59 50L58 50L58 49L55 49L55 48L56 48L56 45L54 45L54 46L55 46L55 48L54 48L54 49L52 49L52 47L51 47L51 49L52 49L52 50L54 50L54 49L55 49L55 52L52 52L52 51L51 51L51 52L50 52L50 55L47 55L47 54L46 54L46 55L45 55L45 53L47 53L47 52L48 52L48 53L49 53L49 51L46 51L46 52L44 52L44 51L45 51L45 49L44 49L44 48L46 48L46 47L45 47L45 43L46 43L46 46L48 46L48 45L49 45L49 46L50 46L50 45L51 45L51 46L52 46L52 45L53 45L53 44L50 44L50 45L49 45L49 43L51 43L51 42L52 42L52 43L54 43L54 44L57 44L57 43L58 43L58 40L59 40L59 39L58 39L58 40L56 40L56 38L59 38L59 37L58 37L58 36L57 36L57 37L56 37L56 36L53 36L53 35L52 35L52 36L51 36L51 37L49 37L49 34L50 34L50 35L51 35L51 34L52 34L52 33L53 33L53 34L54 34L54 33L55 33L55 35L56 35L56 33L57 33L57 34L58 34L58 35L59 35L59 36L60 36L60 37L62 37L62 39L60 39L60 40L62 40L62 43L61 43L61 44L62 44L62 45L64 45L64 48L65 48L65 45L67 45L67 46L66 46L66 49L64 49L64 50L66 50L66 49L68 49L68 48L67 48L67 46L68 46L68 45L67 45L67 44L65 44L65 45L64 45L64 43L63 43L63 41L64 41L64 40L65 40L65 39L64 39L64 40L62 40L62 39L63 39L63 38L64 38L64 37L65 37L65 38L66 38L66 37L69 37L69 36L67 36L67 34L66 34L66 33L65 33L65 34L66 34L66 36L65 36L65 35L64 35L64 36L62 36L62 34L64 34L64 31L62 31L62 30L63 30L63 29L64 29L64 30L65 30L65 31L66 31L66 32L67 32L67 33L69 33L69 32L70 32L70 31L69 31L69 30L68 30L68 28L67 28L67 29L65 29L65 28L63 28L63 27L62 27L62 23L63 23L63 25L64 25L64 26L65 26L65 25L64 25L64 24L65 24L65 23L66 23L66 24L68 24L68 22L70 22L70 21L69 21L69 20L70 20L70 19L71 19L71 18L72 18L72 17L73 17L73 16L74 16L74 17L75 17L75 18L76 18L76 17L75 17L75 16L76 16L76 15L75 15L75 14L74 14L74 12L73 12L73 10L72 10L72 12L70 12L70 10L69 10L69 11L67 11L67 12L70 12L70 14L71 14L71 15L69 15L69 14L68 14L68 15L67 15L67 13L65 13L65 14L64 14L64 16L65 16L65 15L67 15L67 16L66 16L66 17L64 17L64 18L66 18L66 17L67 17L67 18L68 18L68 19L67 19L67 20L68 20L68 22L64 22L64 21L66 21L66 20L65 20L65 19L63 19L63 20L64 20L64 21L62 21L62 18L61 18L61 17L63 17L63 16L62 16L62 15L63 15L63 14L61 14L61 12L62 12L62 13L64 13L64 11L63 11L63 10L65 10L65 8L64 8L64 6L65 6L65 7L66 7L66 5L65 5L65 4L64 4L64 5L63 5L63 3L62 3L62 2L61 2L61 3L62 3L62 4L61 4L61 5L63 5L63 7L62 7L62 6L61 6L61 7L60 7L60 5L58 5L58 4L59 4L59 2L60 2L60 1L59 1L59 2L58 2L58 4L57 4L57 5L58 5L58 6L57 6L57 7L58 7L58 8L64 8L64 9L63 9L63 10L62 10L62 9L61 9L61 10L60 10L60 9L59 9L59 10L60 10L60 11L61 11L61 12L59 12L59 11L58 11L58 9L57 9L57 8L56 8L56 6L55 6L55 8L56 8L56 9L55 9L55 10L54 10L54 9L52 9L52 12L53 12L53 13L52 13L52 14L53 14L53 15L54 15L54 16L55 16L55 15L57 15L57 14L58 14L58 13L59 13L59 14L61 14L61 15L60 15L60 16L58 16L58 17L54 17L54 18L55 18L55 20L54 20L54 21L53 21L53 22L52 22L52 24L51 24L51 25L53 25L53 22L54 22L54 23L56 23L56 25L54 25L54 26L52 26L52 28L53 28L53 29L52 29L52 31L55 31L55 32L54 32L54 33L53 33L53 32L50 32L50 31L49 31L49 30L50 30L50 29L49 29L49 30L48 30L48 29L46 29L46 30L45 30L45 27L46 27L46 26L45 26L45 25L44 25L44 24L45 24L45 21L44 21L44 20L45 20L45 18L44 18L44 20L43 20L43 19L42 19L42 21L44 21L44 24L43 24L43 25L44 25L44 28L43 28L43 27L41 27L41 26L42 26L42 25L41 25L41 26L40 26L40 25L38 25L38 24L39 24L39 22L40 22L40 21L41 21L41 19L39 19L39 18L43 18L43 17L45 17L45 14L44 14L44 16L43 16L43 17L40 17L40 16L38 16L38 17L39 17L39 18L34 18L34 17L36 17L36 16L37 16L37 15L39 15L39 14L40 14L40 15L41 15L41 16L42 16L42 15L43 15L43 14L42 14L42 12L43 12L43 11L42 11L42 9L41 9L41 10L40 10L40 11L39 11L39 9L38 9L38 11L39 11L39 12L37 12L37 11L36 11L36 10L37 10L37 8L36 8L36 6L35 6L35 5L34 5L34 6L33 6L33 7L34 7L34 6L35 6L35 8L36 8L36 9L34 9L34 10L33 10L33 12L32 12L32 13L31 13L31 15L32 15L32 13L33 13L33 15L35 15L35 14L36 14L36 16L34 16L34 17L33 17L33 18L32 18L32 19L31 19L31 21L30 21L30 20L29 20L29 17L28 17L28 18L27 18L27 17L26 17L26 16L27 16L27 15L26 15L26 14L27 14L27 13L28 13L28 15L30 15L30 14L29 14L29 13L28 13L28 12L29 12L29 11L28 11L28 10L25 10L25 11L23 11L23 9L24 9L24 6L23 6L23 5L21 5L21 4L22 4L22 1L21 1L21 4L20 4L20 5L19 5L19 1ZM46 1L46 2L42 2L42 3L46 3L46 4L47 4L47 3L48 3L48 2L47 2L47 1ZM51 1L51 2L52 2L52 3L53 3L53 2L52 2L52 1ZM27 2L27 4L29 4L29 8L30 8L30 5L31 5L31 9L30 9L30 12L31 12L31 10L32 10L32 9L33 9L33 8L32 8L32 5L31 5L31 4L29 4L29 3L28 3L28 2ZM33 2L33 3L34 3L34 2ZM54 2L54 3L56 3L56 2ZM17 3L17 4L16 4L16 5L18 5L18 3ZM44 4L44 5L45 5L45 4ZM51 4L51 8L52 8L52 6L53 6L53 7L54 7L54 4L53 4L53 5L52 5L52 4ZM55 4L55 5L56 5L56 4ZM25 5L25 8L28 8L28 5ZM47 5L47 8L50 8L50 5ZM16 6L16 7L15 7L15 8L14 8L14 9L15 9L15 8L16 8L16 7L17 7L17 9L18 9L18 8L19 8L19 6L18 6L18 7L17 7L17 6ZM22 6L22 9L23 9L23 6ZM26 6L26 7L27 7L27 6ZM48 6L48 7L49 7L49 6ZM58 6L58 7L59 7L59 6ZM1 8L1 9L0 9L0 10L1 10L1 9L2 9L2 8ZM50 9L50 10L51 10L51 9ZM66 9L66 10L67 10L67 9ZM34 10L34 12L36 12L36 13L37 13L37 14L38 14L38 13L37 13L37 12L36 12L36 11L35 11L35 10ZM53 10L53 12L54 12L54 10ZM61 10L61 11L62 11L62 10ZM4 11L4 12L3 12L3 13L2 13L2 14L4 14L4 12L5 12L5 14L7 14L7 13L6 13L6 12L5 12L5 11ZM27 11L27 12L26 12L26 13L27 13L27 12L28 12L28 11ZM40 11L40 12L42 12L42 11ZM55 11L55 12L56 12L56 13L55 13L55 14L57 14L57 13L58 13L58 11L57 11L57 12L56 12L56 11ZM19 12L19 13L18 13L18 14L21 14L21 16L20 16L20 15L19 15L19 17L20 17L20 19L19 19L19 18L18 18L18 15L17 15L17 16L16 16L16 17L17 17L17 18L18 18L18 19L19 19L19 21L18 21L18 20L16 20L16 18L15 18L15 17L14 17L14 18L13 18L13 19L12 19L12 18L11 18L11 19L10 19L10 20L8 20L8 22L9 22L9 21L10 21L10 23L11 23L11 28L10 28L10 29L11 29L11 31L10 31L10 32L12 32L12 34L10 34L10 33L9 33L9 31L8 31L8 32L6 32L6 31L7 31L7 30L6 30L6 31L5 31L5 30L4 30L4 31L5 31L5 32L6 32L6 33L8 33L8 34L10 34L10 35L9 35L9 36L8 36L8 37L7 37L7 36L6 36L6 37L7 37L7 38L5 38L5 39L7 39L7 40L10 40L10 39L11 39L11 40L12 40L12 41L11 41L11 42L10 42L10 41L7 41L7 42L9 42L9 43L8 43L8 44L9 44L9 43L10 43L10 44L11 44L11 42L12 42L12 43L13 43L13 44L12 44L12 45L11 45L11 46L12 46L12 47L13 47L13 46L15 46L15 50L13 50L13 48L12 48L12 49L11 49L11 47L10 47L10 49L11 49L11 50L10 50L10 51L12 51L12 52L11 52L11 53L12 53L12 52L13 52L13 55L14 55L14 54L15 54L15 53L16 53L16 52L14 52L14 51L15 51L15 50L16 50L16 49L17 49L17 48L19 48L19 47L20 47L20 48L21 48L21 49L23 49L23 48L24 48L24 50L21 50L21 51L24 51L24 52L23 52L23 53L24 53L24 54L23 54L23 56L21 56L21 61L20 61L20 59L18 59L18 60L17 60L17 61L19 61L19 64L16 64L16 63L15 63L15 64L16 64L16 65L17 65L17 68L18 68L18 69L20 69L20 68L21 68L21 66L20 66L20 65L19 65L19 64L20 64L20 62L21 62L21 61L22 61L22 58L23 58L23 59L25 59L25 60L26 60L26 59L27 59L27 60L29 60L29 58L27 58L27 56L28 56L28 57L29 57L29 56L30 56L30 54L31 54L31 55L32 55L32 54L31 54L31 53L32 53L32 52L33 52L33 50L34 50L34 51L35 51L35 50L36 50L36 49L35 49L35 50L34 50L34 49L33 49L33 47L32 47L32 46L33 46L33 45L32 45L32 43L29 43L29 42L27 42L27 46L25 46L25 44L24 44L24 46L23 46L23 45L22 45L22 44L21 44L21 43L24 43L24 42L25 42L25 40L26 40L26 41L29 41L29 40L31 40L31 39L30 39L30 38L31 38L31 36L30 36L30 34L29 34L29 33L30 33L30 32L29 32L29 31L32 31L32 32L35 32L35 33L33 33L33 34L32 34L32 33L31 33L31 35L32 35L32 37L33 37L33 34L34 34L34 37L35 37L35 38L36 38L36 39L37 39L37 38L36 38L36 36L37 36L37 37L38 37L38 38L39 38L39 39L40 39L40 40L38 40L38 41L37 41L37 40L35 40L35 39L34 39L34 38L33 38L33 39L32 39L32 42L34 42L34 41L37 41L37 42L40 42L40 41L41 41L41 39L42 39L42 38L43 38L43 39L44 39L44 38L43 38L43 36L44 36L44 37L45 37L45 36L46 36L46 35L47 35L47 34L46 34L46 33L48 33L48 34L49 34L49 33L50 33L50 32L49 32L49 31L48 31L48 30L46 30L46 31L45 31L45 32L43 32L43 33L45 33L45 36L44 36L44 35L43 35L43 34L42 34L42 35L43 35L43 36L42 36L42 38L40 38L40 37L41 37L41 35L40 35L40 33L39 33L39 32L42 32L42 31L43 31L43 28L41 28L41 27L40 27L40 28L39 28L39 26L37 26L37 28L39 28L39 29L42 29L42 30L41 30L41 31L40 31L40 30L38 30L38 31L36 31L36 30L37 30L37 29L36 29L36 26L35 26L35 25L36 25L36 24L38 24L38 23L37 23L37 22L39 22L39 21L40 21L40 20L39 20L39 21L36 21L36 20L37 20L37 19L35 19L35 21L34 21L34 22L33 22L33 21L31 21L31 22L30 22L30 21L29 21L29 20L28 20L28 19L27 19L27 18L26 18L26 17L25 17L25 15L23 15L23 16L24 16L24 17L21 17L21 16L22 16L22 13L20 13L20 12ZM24 12L24 14L25 14L25 12ZM40 13L40 14L41 14L41 15L42 15L42 14L41 14L41 13ZM72 13L72 14L73 14L73 15L72 15L72 16L71 16L71 17L69 17L69 18L71 18L71 17L72 17L72 16L73 16L73 15L74 15L74 14L73 14L73 13ZM68 15L68 16L67 16L67 17L68 17L68 16L69 16L69 15ZM30 16L30 17L32 17L32 16ZM60 16L60 17L58 17L58 18L57 18L57 19L56 19L56 21L54 21L54 22L56 22L56 23L57 23L57 28L58 28L58 29L61 29L61 30L62 30L62 28L60 28L60 27L61 27L61 25L60 25L60 24L61 24L61 22L62 22L62 21L61 21L61 20L59 20L59 19L60 19L60 17L61 17L61 16ZM51 17L51 18L52 18L52 17ZM0 18L0 22L1 22L1 18ZM14 18L14 19L13 19L13 20L14 20L14 23L13 23L13 22L12 22L12 21L11 21L11 23L12 23L12 24L14 24L14 23L15 23L15 22L17 22L17 21L15 21L15 18ZM22 18L22 19L21 19L21 20L23 20L23 21L24 21L24 20L25 20L25 22L26 22L26 23L27 23L27 21L28 21L28 23L29 23L29 21L28 21L28 20L25 20L25 18ZM73 18L73 20L76 20L76 19L74 19L74 18ZM33 19L33 20L34 20L34 19ZM68 19L68 20L69 20L69 19ZM46 20L46 21L47 21L47 22L46 22L46 24L50 24L50 23L51 23L51 22L50 22L50 23L47 23L47 22L48 22L48 20ZM57 20L57 21L56 21L56 22L57 22L57 23L59 23L59 22L60 22L60 21L58 21L58 20ZM19 21L19 22L18 22L18 23L20 23L20 21ZM21 21L21 22L22 22L22 23L21 23L21 24L22 24L22 25L21 25L21 26L24 26L24 22L22 22L22 21ZM35 21L35 22L34 22L34 23L33 23L33 22L31 22L31 24L32 24L32 25L30 25L30 24L29 24L29 25L30 25L30 26L29 26L29 28L30 28L30 29L29 29L29 30L30 30L30 29L31 29L31 30L32 30L32 31L33 31L33 28L34 28L34 27L35 27L35 26L34 26L34 25L35 25L35 23L36 23L36 21ZM57 21L57 22L58 22L58 21ZM6 22L6 23L7 23L7 22ZM41 22L41 24L42 24L42 22ZM63 22L63 23L64 23L64 22ZM3 23L3 24L4 24L4 23ZM22 23L22 24L23 24L23 23ZM32 23L32 24L33 24L33 25L32 25L32 26L31 26L31 27L30 27L30 28L32 28L32 26L33 26L33 25L34 25L34 24L33 24L33 23ZM69 23L69 24L70 24L70 23ZM15 24L15 25L13 25L13 26L15 26L15 25L16 25L16 24ZM19 24L19 26L18 26L18 25L17 25L17 26L18 26L18 27L19 27L19 28L20 28L20 29L19 29L19 30L18 30L18 28L17 28L17 27L16 27L16 30L15 30L15 27L14 27L14 29L13 29L13 27L12 27L12 28L11 28L11 29L12 29L12 30L13 30L13 31L14 31L14 32L15 32L15 33L13 33L13 34L14 34L14 35L16 35L16 37L15 37L15 36L13 36L13 37L15 37L15 39L14 39L14 38L13 38L13 39L14 39L14 40L13 40L13 42L14 42L14 41L15 41L15 42L16 42L16 44L15 44L15 43L14 43L14 44L13 44L13 45L14 45L14 44L15 44L15 45L16 45L16 44L18 44L18 45L17 45L17 46L19 46L19 45L20 45L20 46L21 46L21 48L23 48L23 47L22 47L22 45L20 45L20 44L19 44L19 43L20 43L20 42L23 42L23 41L24 41L24 40L23 40L23 39L25 39L25 38L28 38L28 37L29 37L29 36L28 36L28 37L26 37L26 36L27 36L27 35L28 35L28 34L27 34L27 33L29 33L29 32L27 32L27 31L25 31L25 29L24 29L24 31L23 31L23 30L22 30L22 31L23 31L23 32L21 32L21 31L20 31L20 29L23 29L23 28L24 28L24 27L23 27L23 28L20 28L20 24ZM58 24L58 25L59 25L59 24ZM5 25L5 28L8 28L8 25ZM25 25L25 28L28 28L28 25ZM47 25L47 28L50 28L50 25ZM66 25L66 26L67 26L67 25ZM69 25L69 28L72 28L72 25ZM6 26L6 27L7 27L7 26ZM26 26L26 27L27 27L27 26ZM48 26L48 27L49 27L49 26ZM58 26L58 28L59 28L59 26ZM70 26L70 27L71 27L71 26ZM53 27L53 28L54 28L54 27ZM2 28L2 29L3 29L3 28ZM55 28L55 29L56 29L56 28ZM73 28L73 29L74 29L74 28ZM75 28L75 30L76 30L76 28ZM34 29L34 31L35 31L35 30L36 30L36 29ZM16 30L16 31L15 31L15 32L16 32L16 33L17 33L17 32L18 32L18 33L20 33L20 34L21 34L21 32L19 32L19 31L18 31L18 30ZM56 30L56 32L57 32L57 33L58 33L58 34L59 34L59 35L60 35L60 34L61 34L61 33L59 33L59 31L60 31L60 30L59 30L59 31L58 31L58 30ZM16 31L16 32L17 32L17 31ZM38 31L38 32L36 32L36 34L35 34L35 35L36 35L36 34L37 34L37 36L38 36L38 35L39 35L39 36L40 36L40 35L39 35L39 34L37 34L37 33L38 33L38 32L39 32L39 31ZM46 31L46 32L45 32L45 33L46 33L46 32L47 32L47 31ZM23 32L23 33L22 33L22 34L25 34L25 35L24 35L24 36L25 36L25 35L26 35L26 34L25 34L25 33L24 33L24 32ZM26 32L26 33L27 33L27 32ZM48 32L48 33L49 33L49 32ZM62 32L62 33L63 33L63 32ZM72 33L72 34L74 34L74 35L77 35L77 33L76 33L76 34L75 34L75 33ZM3 34L3 35L2 35L2 36L3 36L3 35L5 35L5 34ZM16 34L16 35L17 35L17 36L18 36L18 37L20 37L20 36L21 36L21 35L19 35L19 34ZM68 34L68 35L70 35L70 34ZM22 35L22 38L19 38L19 40L18 40L18 39L17 39L17 37L16 37L16 39L15 39L15 41L16 41L16 39L17 39L17 40L18 40L18 41L17 41L17 43L19 43L19 40L20 40L20 39L21 39L21 41L22 41L22 38L25 38L25 37L23 37L23 35ZM9 36L9 37L8 37L8 39L9 39L9 37L10 37L10 36ZM52 36L52 37L51 37L51 39L50 39L50 40L49 40L49 38L46 38L46 39L45 39L45 40L42 40L42 41L43 41L43 42L42 42L42 45L41 45L41 43L37 43L37 44L38 44L38 45L39 45L39 46L42 46L42 48L44 48L44 47L43 47L43 44L44 44L44 43L43 43L43 42L44 42L44 41L46 41L46 43L47 43L47 41L48 41L48 43L49 43L49 42L50 42L50 40L51 40L51 41L52 41L52 40L53 40L53 42L54 42L54 41L56 41L56 42L57 42L57 41L56 41L56 40L54 40L54 39L55 39L55 38L56 38L56 37L55 37L55 38L53 38L53 36ZM71 36L71 39L72 39L72 36ZM73 36L73 38L76 38L76 37L75 37L75 36ZM26 39L26 40L29 40L29 39ZM47 39L47 40L48 40L48 39ZM51 39L51 40L52 40L52 39ZM33 40L33 41L34 41L34 40ZM60 41L60 42L61 42L61 41ZM66 41L66 42L67 42L67 41ZM68 42L68 43L69 43L69 42ZM62 43L62 44L63 44L63 43ZM28 44L28 46L30 46L30 48L29 48L29 49L30 49L30 48L31 48L31 50L30 50L30 51L29 51L29 52L26 52L26 51L25 51L25 52L24 52L24 53L25 53L25 54L24 54L24 55L25 55L25 57L26 57L26 56L27 56L27 53L28 53L28 54L29 54L29 53L31 53L31 51L32 51L32 47L31 47L31 46L32 46L32 45L31 45L31 44ZM39 44L39 45L40 45L40 44ZM1 45L1 46L2 46L2 45ZM5 47L5 50L8 50L8 47ZM16 47L16 48L17 48L17 47ZM25 47L25 50L28 50L28 47ZM47 47L47 50L50 50L50 47ZM69 47L69 50L72 50L72 47ZM6 48L6 49L7 49L7 48ZM26 48L26 49L27 49L27 48ZM48 48L48 49L49 49L49 48ZM70 48L70 49L71 49L71 48ZM42 49L42 50L41 50L41 52L43 52L43 53L42 53L42 54L41 54L41 55L40 55L40 56L41 56L41 55L43 55L43 53L44 53L44 52L43 52L43 51L44 51L44 49ZM0 50L0 52L1 52L1 50ZM42 50L42 51L43 51L43 50ZM56 50L56 52L58 52L58 50ZM51 52L51 53L52 53L52 52ZM56 53L56 54L58 54L58 53ZM62 54L62 56L63 56L63 55L64 55L64 54ZM2 55L2 56L1 56L1 57L2 57L2 58L3 58L3 57L4 57L4 56L3 56L3 55ZM11 55L11 56L12 56L12 55ZM38 55L38 56L36 56L36 57L37 57L37 59L36 59L36 58L35 58L35 60L36 60L36 61L37 61L37 62L38 62L38 63L39 63L39 64L40 64L40 63L43 63L43 67L44 67L44 66L45 66L45 64L44 64L44 63L43 63L43 62L46 62L46 61L44 61L44 60L46 60L46 59L44 59L44 60L43 60L43 59L42 59L42 57L44 57L44 56L45 56L45 55L44 55L44 56L42 56L42 57L41 57L41 60L40 60L40 61L39 61L39 60L37 60L37 59L38 59L38 56L39 56L39 55ZM23 56L23 57L24 57L24 56ZM39 57L39 58L40 58L40 57ZM45 57L45 58L46 58L46 57ZM66 57L66 58L67 58L67 57ZM72 57L72 58L71 58L71 59L69 59L69 60L71 60L71 61L70 61L70 62L72 62L72 61L73 61L73 63L72 63L72 64L71 64L71 63L69 63L69 61L66 61L66 63L67 63L67 62L68 62L68 63L69 63L69 65L67 65L67 64L66 64L66 65L67 65L67 66L68 66L68 67L70 67L70 68L75 68L75 66L74 66L74 65L73 65L73 63L75 63L75 62L74 62L74 60L73 60L73 59L72 59L72 58L73 58L73 57ZM53 58L53 60L55 60L55 59L54 59L54 58ZM4 59L4 60L6 60L6 61L7 61L7 60L6 60L6 59ZM33 59L33 60L34 60L34 59ZM67 59L67 60L68 60L68 59ZM71 59L71 60L72 60L72 59ZM23 60L23 61L24 61L24 60ZM48 60L48 61L49 61L49 60ZM27 61L27 62L28 62L28 61ZM38 61L38 62L39 62L39 63L40 63L40 62L39 62L39 61ZM41 61L41 62L42 62L42 61ZM58 61L58 62L59 62L59 64L61 64L61 63L60 63L60 62L59 62L59 61ZM31 62L31 63L32 63L32 62ZM64 62L64 64L65 64L65 62ZM0 64L0 66L1 66L1 67L2 67L2 65L1 65L1 64ZM37 64L37 65L38 65L38 64ZM41 64L41 65L39 65L39 66L37 66L37 67L35 67L35 66L36 66L36 65L34 65L34 66L33 66L33 67L34 67L34 68L33 68L33 69L34 69L34 68L36 68L36 69L37 69L37 67L39 67L39 69L41 69L41 67L39 67L39 66L41 66L41 65L42 65L42 64ZM51 64L51 65L52 65L52 67L53 67L53 64ZM25 65L25 66L26 66L26 65ZM27 65L27 67L28 67L28 65ZM58 65L58 67L57 67L57 66L56 66L56 67L57 67L57 68L56 68L56 69L55 69L55 70L56 70L56 69L57 69L57 68L58 68L58 69L59 69L59 68L61 68L61 67L60 67L60 65ZM70 65L70 67L72 67L72 66L71 66L71 65ZM29 66L29 67L30 67L30 66ZM73 66L73 67L74 67L74 66ZM19 67L19 68L20 68L20 67ZM65 67L65 68L66 68L66 67ZM6 68L6 69L7 69L7 68ZM12 69L12 70L13 70L13 69ZM22 69L22 70L21 70L21 71L22 71L22 70L23 70L23 72L22 72L22 73L23 73L23 72L24 72L24 70L23 70L23 69ZM25 69L25 72L28 72L28 69ZM47 69L47 72L50 72L50 69ZM61 69L61 70L62 70L62 69ZM67 69L67 70L65 70L65 71L66 71L66 72L65 72L65 73L66 73L66 72L67 72L67 71L68 71L68 69ZM69 69L69 72L72 72L72 69ZM18 70L18 71L19 71L19 70ZM26 70L26 71L27 71L27 70ZM33 70L33 71L34 71L34 70ZM37 70L37 73L39 73L39 72L38 72L38 71L39 71L39 70ZM48 70L48 71L49 71L49 70ZM70 70L70 71L71 71L71 70ZM12 71L12 72L10 72L10 73L11 73L11 75L10 75L10 74L9 74L9 75L8 75L8 76L9 76L9 77L11 77L11 76L13 76L13 74L14 74L14 73L13 73L13 74L12 74L12 72L14 72L14 71ZM51 71L51 73L52 73L52 71ZM8 72L8 73L9 73L9 72ZM58 72L58 73L59 73L59 72ZM18 73L18 74L19 74L19 73ZM71 73L71 75L72 75L72 73ZM49 74L49 75L50 75L50 74ZM58 74L58 76L59 76L59 74ZM9 75L9 76L10 76L10 75ZM14 75L14 76L15 76L15 75ZM37 75L37 76L38 76L38 75ZM51 75L51 76L52 76L52 75ZM0 0L0 7L7 7L7 0ZM1 1L1 6L6 6L6 1ZM2 2L2 5L5 5L5 2ZM70 0L70 7L77 7L77 0ZM71 1L71 6L76 6L76 1ZM72 2L72 5L75 5L75 2ZM0 70L0 77L7 77L7 70ZM1 71L1 76L6 76L6 71ZM2 72L2 75L5 75L5 72Z" fill="#000000"/></g></g></svg>
